M48
; DRILL file {KiCad 8.0.4} date 2024-11-12T18:47:26+0100
; FORMAT={-:-/ absolute / inch / decimal}
; #@! TF.CreationDate,2024-11-12T18:47:26+01:00
; #@! TF.GenerationSoftware,Kicad,Pcbnew,8.0.4
; #@! TF.FileFunction,Plated,1,2,PTH
FMAT,2
INCH
; #@! TA.AperFunction,Plated,PTH,ComponentDrill
T1C0.0315
; #@! TA.AperFunction,Plated,PTH,ComponentDrill
T2C0.0374
; #@! TA.AperFunction,Plated,PTH,ComponentDrill
T3C0.0394
; #@! TA.AperFunction,Plated,PTH,ComponentDrill
T4C0.0433
; #@! TA.AperFunction,Plated,PTH,ComponentDrill
T5C0.0472
; #@! TA.AperFunction,Plated,PTH,ComponentDrill
T6C0.0598
%
G90
G05
T1
X4.0525Y-3.4159
X4.0525Y-3.7159
X4.0551Y-3.9126
X4.0551Y-4.2126
X4.3063Y-3.7402
X4.6063Y-3.7402
X4.7563Y-3.7402
X4.7563Y-3.8402
X4.9525Y-3.4159
X5.0563Y-3.7402
X5.0563Y-3.8402
X5.2063Y-3.7402
X5.2525Y-3.4159
X5.5063Y-3.7402
X5.7059Y-3.7404
X6.0059Y-3.7404
X6.1041Y-3.4159
X6.1563Y-3.7402
X6.1563Y-3.8402
X6.4041Y-3.4159
X6.4563Y-3.7402
X6.4563Y-3.8402
X6.7547Y-3.8281
X7.0547Y-3.8281
X7.3541Y-3.4159
X7.3622Y-3.7795
X7.3622Y-3.878
X7.5622Y-3.7795
X7.5622Y-3.878
X7.6541Y-3.4159
T2
X5.4974Y-4.2126
X5.5958Y-4.2126
X5.6943Y-4.2126
X6.5998Y-4.2126
X6.6982Y-4.2126
X6.7966Y-4.2126
X6.895Y-4.2126
T3
X3.3071Y-3.2913
X3.3071Y-3.3913
X3.3071Y-3.4913
X3.3071Y-3.5913
X3.3071Y-3.6913
X3.3071Y-3.7913
X3.3071Y-3.8913
X3.3071Y-3.9913
X3.3071Y-4.0913
X3.3071Y-4.1913
X3.3071Y-4.2913
X3.3071Y-4.3913
X4.3541Y-3.4159
X4.3701Y-4.2126
X4.4525Y-3.4159
X4.4685Y-4.2126
X5.5541Y-3.4159
X5.6525Y-3.4159
X6.7057Y-3.4159
X6.8041Y-3.4159
X7.9528Y-4.2126
X7.9557Y-3.4159
X8.0512Y-4.2126
X8.0541Y-3.4159
T4
X7.3622Y-4.078
X7.4622Y-4.078
X7.5622Y-4.078
T5
X4.5053Y-2.4159
X4.5053Y-2.5159
X4.5053Y-2.6159
X5.6864Y-2.4159
X5.6864Y-2.5159
X5.6864Y-2.6159
X6.8675Y-2.4159
X6.8675Y-2.5159
X6.8675Y-2.6159
X8.0486Y-2.4159
X8.0486Y-2.5159
X8.0486Y-2.6159
T6
X4.5346Y-1.6644
X4.7346Y-1.6644
X5.8346Y-1.6644
X6.0346Y-1.6644
X6.7346Y-1.6644
X6.9346Y-1.6644
X7.6346Y-1.6644
X7.8346Y-1.6644
M30
