%TF.GenerationSoftware,KiCad,Pcbnew,8.0.4*%
%TF.CreationDate,2024-11-12T18:47:24+01:00*%
%TF.ProjectId,banc_rodage_pcb,62616e63-5f72-46f6-9461-67655f706362,rev?*%
%TF.SameCoordinates,Original*%
%TF.FileFunction,Copper,L1,Top*%
%TF.FilePolarity,Positive*%
%FSLAX46Y46*%
G04 Gerber Fmt 4.6, Leading zero omitted, Abs format (unit mm)*
G04 Created by KiCad (PCBNEW 8.0.4) date 2024-11-12 18:47:24*
%MOMM*%
%LPD*%
G01*
G04 APERTURE LIST*
G04 Aperture macros list*
%AMRoundRect*
0 Rectangle with rounded corners*
0 $1 Rounding radius*
0 $2 $3 $4 $5 $6 $7 $8 $9 X,Y pos of 4 corners*
0 Add a 4 corners polygon primitive as box body*
4,1,4,$2,$3,$4,$5,$6,$7,$8,$9,$2,$3,0*
0 Add four circle primitives for the rounded corners*
1,1,$1+$1,$2,$3*
1,1,$1+$1,$4,$5*
1,1,$1+$1,$6,$7*
1,1,$1+$1,$8,$9*
0 Add four rect primitives between the rounded corners*
20,1,$1+$1,$2,$3,$4,$5,0*
20,1,$1+$1,$4,$5,$6,$7,0*
20,1,$1+$1,$6,$7,$8,$9,0*
20,1,$1+$1,$8,$9,$2,$3,0*%
G04 Aperture macros list end*
%TA.AperFunction,ComponentPad*%
%ADD10C,1.600000*%
%TD*%
%TA.AperFunction,ComponentPad*%
%ADD11O,1.600000X1.600000*%
%TD*%
%TA.AperFunction,ComponentPad*%
%ADD12R,1.600000X1.600000*%
%TD*%
%TA.AperFunction,ComponentPad*%
%ADD13R,3.000000X3.000000*%
%TD*%
%TA.AperFunction,ComponentPad*%
%ADD14C,3.000000*%
%TD*%
%TA.AperFunction,ComponentPad*%
%ADD15RoundRect,0.250000X0.600000X0.750000X-0.600000X0.750000X-0.600000X-0.750000X0.600000X-0.750000X0*%
%TD*%
%TA.AperFunction,ComponentPad*%
%ADD16O,1.700000X2.000000*%
%TD*%
%TA.AperFunction,ComponentPad*%
%ADD17RoundRect,0.250000X0.600000X0.725000X-0.600000X0.725000X-0.600000X-0.725000X0.600000X-0.725000X0*%
%TD*%
%TA.AperFunction,ComponentPad*%
%ADD18O,1.700000X1.950000*%
%TD*%
%TA.AperFunction,ComponentPad*%
%ADD19R,1.905000X2.000000*%
%TD*%
%TA.AperFunction,ComponentPad*%
%ADD20O,1.905000X2.000000*%
%TD*%
%TA.AperFunction,ComponentPad*%
%ADD21R,2.000000X1.905000*%
%TD*%
%TA.AperFunction,ComponentPad*%
%ADD22O,2.000000X1.905000*%
%TD*%
%TA.AperFunction,ComponentPad*%
%ADD23R,1.700000X1.700000*%
%TD*%
%TA.AperFunction,ComponentPad*%
%ADD24O,1.700000X1.700000*%
%TD*%
%TA.AperFunction,Conductor*%
%ADD25C,0.200000*%
%TD*%
%TA.AperFunction,Conductor*%
%ADD26C,0.500000*%
%TD*%
%TA.AperFunction,Conductor*%
%ADD27C,1.500000*%
%TD*%
%TA.AperFunction,Conductor*%
%ADD28C,5.600000*%
%TD*%
%TA.AperFunction,Conductor*%
%ADD29C,2.500000*%
%TD*%
G04 APERTURE END LIST*
D10*
%TO.P,R7,1*%
%TO.N,/SIGN_THERMISTANCE_MOSFET_2*%
X133414119Y-86765000D03*
D11*
%TO.P,R7,2*%
%TO.N,GND*%
X125794119Y-86765000D03*
%TD*%
D12*
%TO.P,U2,1*%
%TO.N,Net-(R1-Pad2)*%
X120810000Y-95000000D03*
D11*
%TO.P,U2,2*%
%TO.N,GND*%
X120810000Y-97540000D03*
%TO.P,U2,3*%
%TO.N,/SIGN_MOTEUR*%
X128430000Y-97540000D03*
%TO.P,U2,4*%
%TO.N,+5V*%
X128430000Y-95000000D03*
%TD*%
D13*
%TO.P,J3,1,Pin_1*%
%TO.N,+24V*%
X199000000Y-42275000D03*
D14*
%TO.P,J3,2,Pin_2*%
%TO.N,GND*%
X193920000Y-42275000D03*
%TD*%
D15*
%TO.P,J10,1,Pin_1*%
%TO.N,/3v3*%
X172824119Y-86765000D03*
D16*
%TO.P,J10,2,Pin_2*%
%TO.N,/SIGN_THERMISTANCE_MOSFET_3*%
X170324119Y-86765000D03*
%TD*%
D15*
%TO.P,J6,1,Pin_1*%
%TO.N,/3v3*%
X113500000Y-107000000D03*
D16*
%TO.P,J6,2,Pin_2*%
%TO.N,/SIGN_THERMISTANCE*%
X111000000Y-107000000D03*
%TD*%
D15*
%TO.P,J11,1,Pin_1*%
%TO.N,/3v3*%
X204574119Y-86765000D03*
D16*
%TO.P,J11,2,Pin_2*%
%TO.N,/SIGN_THERMISTANCE_MOSFET_4*%
X202074119Y-86765000D03*
%TD*%
D10*
%TO.P,R6,1*%
%TO.N,/SIGN_THERMISTANCE_MOSFET_1*%
X102934119Y-86765000D03*
D11*
%TO.P,R6,2*%
%TO.N,GND*%
X102934119Y-94385000D03*
%TD*%
D13*
%TO.P,J7,1,Pin_1*%
%TO.N,+24V*%
X153280000Y-42275000D03*
D14*
%TO.P,J7,2,Pin_2*%
%TO.N,/CHAUFFE_1*%
X148200000Y-42275000D03*
%TD*%
D17*
%TO.P,J1,1,Pin_1*%
%TO.N,+5V*%
X144634119Y-107000000D03*
D18*
%TO.P,J1,2,Pin_2*%
%TO.N,GND*%
X142134119Y-107000000D03*
%TO.P,J1,3,Pin_3*%
%TO.N,/SIGN_HALL*%
X139634119Y-107000000D03*
%TD*%
D15*
%TO.P,J5,1,Pin_1*%
%TO.N,+24V*%
X204500000Y-107000000D03*
D16*
%TO.P,J5,2,Pin_2*%
%TO.N,GND*%
X202000000Y-107000000D03*
%TD*%
D15*
%TO.P,J8,1,Pin_1*%
%TO.N,/3v3*%
X113094119Y-86765000D03*
D16*
%TO.P,J8,2,Pin_2*%
%TO.N,/SIGN_THERMISTANCE_MOSFET_1*%
X110594119Y-86765000D03*
%TD*%
D10*
%TO.P,R9,1*%
%TO.N,/SIGN_THERMISTANCE_MOSFET_4*%
X194414119Y-86765000D03*
D11*
%TO.P,R9,2*%
%TO.N,GND*%
X186794119Y-86765000D03*
%TD*%
D12*
%TO.P,U4,1*%
%TO.N,Net-(R2-Pad2)*%
X156370000Y-95000000D03*
D11*
%TO.P,U4,2*%
%TO.N,GND*%
X156370000Y-97540000D03*
%TO.P,U4,3*%
%TO.N,/SIGN_CHAUFFE*%
X163990000Y-97540000D03*
%TO.P,U4,4*%
%TO.N,+5V*%
X163990000Y-95000000D03*
%TD*%
D13*
%TO.P,J2,1,Pin_1*%
%TO.N,+24V*%
X120260000Y-42275000D03*
D14*
%TO.P,J2,2,Pin_2*%
%TO.N,/MOTEUR*%
X115180000Y-42275000D03*
%TD*%
D10*
%TO.P,R1,1*%
%TO.N,/ARDUINO_SIGN_MOTEUR*%
X109380000Y-95000000D03*
D11*
%TO.P,R1,2*%
%TO.N,Net-(R1-Pad2)*%
X117000000Y-95000000D03*
%TD*%
D19*
%TO.P,U3,1,VI*%
%TO.N,+24V*%
X192080000Y-103580000D03*
D20*
%TO.P,U3,2,GND*%
%TO.N,GND*%
X189540000Y-103580000D03*
%TO.P,U3,3,VO*%
%TO.N,+5V*%
X187000000Y-103580000D03*
%TD*%
D10*
%TO.P,R5,1*%
%TO.N,/SIGN_THERMISTANCE*%
X103000000Y-107000000D03*
D11*
%TO.P,R5,2*%
%TO.N,GND*%
X103000000Y-99380000D03*
%TD*%
D21*
%TO.P,Q2,1,G*%
%TO.N,/SIGN_MOTEUR*%
X144434119Y-61365000D03*
D22*
%TO.P,Q2,2,D*%
%TO.N,/MOTEUR*%
X144434119Y-63905000D03*
%TO.P,Q2,3,S*%
%TO.N,GND*%
X144434119Y-66445000D03*
%TD*%
D10*
%TO.P,C1,1*%
%TO.N,+24V*%
X192080000Y-98500000D03*
%TO.P,C1,2*%
%TO.N,GND*%
X192080000Y-96000000D03*
%TD*%
%TO.P,R2,1*%
%TO.N,/ARDUINO_SIGN_CHAUFFE*%
X144930000Y-95005000D03*
D11*
%TO.P,R2,2*%
%TO.N,Net-(R2-Pad2)*%
X152550000Y-95005000D03*
%TD*%
D10*
%TO.P,R10,1*%
%TO.N,/SIGN_CHAUFFE*%
X171570000Y-97235000D03*
D11*
%TO.P,R10,2*%
%TO.N,GND*%
X179190000Y-97235000D03*
%TD*%
D10*
%TO.P,R4,1*%
%TO.N,/SIGN_MOTEUR*%
X139860000Y-95000000D03*
D11*
%TO.P,R4,2*%
%TO.N,GND*%
X132240000Y-95000000D03*
%TD*%
D23*
%TO.P,J13,1,Pin_1*%
%TO.N,GND*%
X84000000Y-111540000D03*
D24*
%TO.P,J13,2,Pin_2*%
%TO.N,+5V*%
X84000000Y-109000000D03*
%TO.P,J13,3,Pin_3*%
%TO.N,/3v3*%
X84000000Y-106460000D03*
%TO.P,J13,4,Pin_4*%
%TO.N,/NEXTION_RX*%
X84000000Y-103920000D03*
%TO.P,J13,5,Pin_5*%
%TO.N,/NEXTION_TX*%
X84000000Y-101380000D03*
%TO.P,J13,6,Pin_6*%
%TO.N,/ARDUINO_SIGN_CHAUFFE*%
X84000000Y-98840000D03*
%TO.P,J13,7,Pin_7*%
%TO.N,/ARDUINO_SIGN_MOTEUR*%
X84000000Y-96300000D03*
%TO.P,J13,8,Pin_8*%
%TO.N,/SIGN_HALL*%
X84000000Y-93760000D03*
%TO.P,J13,9,Pin_9*%
%TO.N,/SIGN_THERMISTANCE_MOSFET_4*%
X84000000Y-91220000D03*
%TO.P,J13,10,Pin_10*%
%TO.N,/SIGN_THERMISTANCE_MOSFET_3*%
X84000000Y-88680000D03*
%TO.P,J13,11,Pin_11*%
%TO.N,/SIGN_THERMISTANCE_MOSFET_2*%
X84000000Y-86140000D03*
%TO.P,J13,12,Pin_12*%
%TO.N,/SIGN_THERMISTANCE_MOSFET_1*%
X84000000Y-83600000D03*
%TD*%
D21*
%TO.P,Q1,1,G*%
%TO.N,/SIGN_MOTEUR*%
X114434119Y-61365000D03*
D22*
%TO.P,Q1,2,D*%
%TO.N,/MOTEUR*%
X114434119Y-63905000D03*
%TO.P,Q1,3,S*%
%TO.N,GND*%
X114434119Y-66445000D03*
%TD*%
D10*
%TO.P,R8,1*%
%TO.N,/SIGN_THERMISTANCE_MOSFET_3*%
X162664119Y-86765000D03*
D11*
%TO.P,R8,2*%
%TO.N,GND*%
X155044119Y-86765000D03*
%TD*%
D13*
%TO.P,J4,1,Pin_1*%
%TO.N,+24V*%
X176140000Y-42275000D03*
D14*
%TO.P,J4,2,Pin_2*%
%TO.N,/CHAUFFE_2*%
X171060000Y-42275000D03*
%TD*%
D17*
%TO.P,J12,1,Pin_1*%
%TO.N,+5V*%
X175134119Y-107000000D03*
D18*
%TO.P,J12,2,Pin_2*%
%TO.N,GND*%
X172634119Y-107000000D03*
%TO.P,J12,3,Pin_3*%
%TO.N,/NEXTION_RX*%
X170134119Y-107000000D03*
%TO.P,J12,4,Pin_4*%
%TO.N,/NEXTION_TX*%
X167634119Y-107000000D03*
%TD*%
D10*
%TO.P,C2,1*%
%TO.N,+5V*%
X187000000Y-98500000D03*
%TO.P,C2,2*%
%TO.N,GND*%
X187000000Y-96000000D03*
%TD*%
D21*
%TO.P,Q3,1,G*%
%TO.N,/SIGN_CHAUFFE*%
X174434119Y-61365000D03*
D22*
%TO.P,Q3,2,D*%
%TO.N,/CHAUFFE_1*%
X174434119Y-63905000D03*
%TO.P,Q3,3,S*%
%TO.N,GND*%
X174434119Y-66445000D03*
%TD*%
D15*
%TO.P,J9,1,Pin_1*%
%TO.N,/3v3*%
X143574119Y-86765000D03*
D16*
%TO.P,J9,2,Pin_2*%
%TO.N,/SIGN_THERMISTANCE_MOSFET_2*%
X141074119Y-86765000D03*
%TD*%
D21*
%TO.P,Q4,1,G*%
%TO.N,/SIGN_CHAUFFE*%
X204434119Y-61365000D03*
D22*
%TO.P,Q4,2,D*%
%TO.N,/CHAUFFE_2*%
X204434119Y-63905000D03*
%TO.P,Q4,3,S*%
%TO.N,GND*%
X204434119Y-66445000D03*
%TD*%
D25*
%TO.N,/SIGN_THERMISTANCE_MOSFET_2*%
X103000000Y-89000000D02*
X131179119Y-89000000D01*
X100140000Y-86140000D02*
X103000000Y-89000000D01*
X141074119Y-86765000D02*
X133414119Y-86765000D01*
X84000000Y-86140000D02*
X100140000Y-86140000D01*
X131179119Y-89000000D02*
X133414119Y-86765000D01*
%TO.N,/SIGN_THERMISTANCE_MOSFET_4*%
X202074119Y-86765000D02*
X194414119Y-86765000D01*
X188780000Y-91220000D02*
X193235000Y-86765000D01*
X84000000Y-91220000D02*
X188780000Y-91220000D01*
X193235000Y-86765000D02*
X194414119Y-86765000D01*
%TO.N,/SIGN_THERMISTANCE_MOSFET_1*%
X110594119Y-86765000D02*
X102934119Y-86765000D01*
X84000000Y-83600000D02*
X99769119Y-83600000D01*
X99769119Y-83600000D02*
X102934119Y-86765000D01*
%TO.N,+5V*%
X175134119Y-107000000D02*
X180000000Y-107000000D01*
X180000000Y-107000000D02*
X183420000Y-103580000D01*
X187000000Y-103580000D02*
X187000000Y-98500000D01*
X183420000Y-103580000D02*
X187000000Y-103580000D01*
X163990000Y-95000000D02*
X161055000Y-92065000D01*
X161055000Y-92065000D02*
X131365000Y-92065000D01*
X131365000Y-92065000D02*
X128430000Y-95000000D01*
%TO.N,/SIGN_THERMISTANCE_MOSFET_3*%
X170324119Y-86765000D02*
X162664119Y-86765000D01*
%TO.N,/3v3*%
X119860000Y-86765000D02*
X122800000Y-83825000D01*
X202000000Y-93000000D02*
X204574119Y-90425881D01*
X202904119Y-85095000D02*
X204574119Y-86765000D01*
X145660000Y-88905000D02*
X170684119Y-88905000D01*
X136000000Y-102000000D02*
X180000000Y-102000000D01*
X122800000Y-83825000D02*
X141850000Y-83825000D01*
X184000000Y-93000000D02*
X202000000Y-93000000D01*
X180000000Y-102000000D02*
X183000000Y-99000000D01*
X204574119Y-90425881D02*
X204574119Y-86765000D01*
X170684119Y-88905000D02*
X172824119Y-86765000D01*
X172824119Y-85870881D02*
X173600000Y-85095000D01*
X113094119Y-86765000D02*
X119860000Y-86765000D01*
X113500000Y-107000000D02*
X131000000Y-107000000D01*
X131000000Y-107000000D02*
X136000000Y-102000000D01*
X143574119Y-85549119D02*
X143574119Y-86765000D01*
X173600000Y-85095000D02*
X202904119Y-85095000D01*
X143574119Y-86765000D02*
X143574119Y-86819119D01*
X183000000Y-94000000D02*
X184000000Y-93000000D01*
X172824119Y-86765000D02*
X172824119Y-85870881D01*
X183000000Y-99000000D02*
X183000000Y-94000000D01*
X143574119Y-86819119D02*
X145660000Y-88905000D01*
X141850000Y-83825000D02*
X143574119Y-85549119D01*
%TO.N,/ARDUINO_SIGN_MOTEUR*%
X84000000Y-96300000D02*
X108080000Y-96300000D01*
X108080000Y-96300000D02*
X109380000Y-95000000D01*
%TO.N,/ARDUINO_SIGN_CHAUFFE*%
X138935000Y-101000000D02*
X144930000Y-95005000D01*
X116990000Y-97990000D02*
X120000000Y-101000000D01*
X84000000Y-98840000D02*
X84850000Y-97990000D01*
X84850000Y-97990000D02*
X116990000Y-97990000D01*
X120000000Y-101000000D02*
X138935000Y-101000000D01*
%TO.N,/NEXTION_TX*%
X163634119Y-111000000D02*
X167634119Y-107000000D01*
X103000000Y-111000000D02*
X163634119Y-111000000D01*
X84000000Y-101380000D02*
X93380000Y-101380000D01*
X93380000Y-101380000D02*
X103000000Y-111000000D01*
%TO.N,/NEXTION_RX*%
X84000000Y-103920000D02*
X93920000Y-103920000D01*
X170000000Y-107000000D02*
X170134119Y-107000000D01*
X102000000Y-112000000D02*
X165000000Y-112000000D01*
X165000000Y-112000000D02*
X170000000Y-107000000D01*
X93920000Y-103920000D02*
X102000000Y-112000000D01*
D26*
%TO.N,+24V*%
X201080000Y-103580000D02*
X204500000Y-107000000D01*
D27*
X142760000Y-42275000D02*
X150740000Y-34295000D01*
D26*
X207890000Y-57155000D02*
X207890000Y-96770000D01*
X192080000Y-103580000D02*
X201080000Y-103580000D01*
D28*
X199000000Y-45725000D02*
X196460000Y-48265000D01*
X182490000Y-49535000D02*
X179950000Y-49535000D01*
D27*
X182490000Y-40645000D02*
X182490000Y-49535000D01*
D28*
X196460000Y-48265000D02*
X195190000Y-49535000D01*
D26*
X207890000Y-96770000D02*
X201080000Y-103580000D01*
D29*
X176140000Y-39375000D02*
X176140000Y-42275000D01*
D27*
X150740000Y-34295000D02*
X176140000Y-34295000D01*
D29*
X153280000Y-42275000D02*
X153280000Y-40645000D01*
X155820000Y-38105000D02*
X174870000Y-38105000D01*
D28*
X176140000Y-45725000D02*
X176140000Y-42275000D01*
D29*
X153280000Y-40645000D02*
X155820000Y-38105000D01*
D27*
X176140000Y-34295000D02*
X182490000Y-40645000D01*
D26*
X199000000Y-48265000D02*
X207890000Y-57155000D01*
D28*
X179950000Y-49535000D02*
X176140000Y-45725000D01*
D26*
X196460000Y-48265000D02*
X199000000Y-48265000D01*
X192080000Y-103580000D02*
X192080000Y-98500000D01*
D28*
X195190000Y-49535000D02*
X182490000Y-49535000D01*
X199000000Y-42275000D02*
X199000000Y-45725000D01*
D27*
X120260000Y-42275000D02*
X142760000Y-42275000D01*
D29*
X174870000Y-38105000D02*
X176140000Y-39375000D01*
D27*
%TO.N,/MOTEUR*%
X114434119Y-63905000D02*
X113040000Y-63905000D01*
X113550000Y-42275000D02*
X115180000Y-42275000D01*
X111370000Y-44455000D02*
X113550000Y-42275000D01*
X115180000Y-42275000D02*
X115180000Y-41915000D01*
X113040000Y-63905000D02*
X111370000Y-62235000D01*
X144434119Y-63905000D02*
X114434119Y-63905000D01*
X111370000Y-62235000D02*
X111370000Y-44455000D01*
D25*
%TO.N,/SIGN_THERMISTANCE*%
X111000000Y-107000000D02*
X103340000Y-107000000D01*
%TO.N,/SIGN_MOTEUR*%
X138960881Y-97540000D02*
X139860000Y-96640881D01*
X114434119Y-61365000D02*
X144434119Y-61365000D01*
X128430000Y-97540000D02*
X138960881Y-97540000D01*
X139860000Y-96640881D02*
X139860000Y-95000000D01*
%TO.N,/SIGN_CHAUFFE*%
X171265000Y-97540000D02*
X171570000Y-97235000D01*
X163990000Y-97540000D02*
X171265000Y-97540000D01*
%TO.N,Net-(R1-Pad2)*%
X117000000Y-95000000D02*
X120810000Y-95000000D01*
%TO.N,Net-(R2-Pad2)*%
X156365000Y-95005000D02*
X156370000Y-95000000D01*
X152550000Y-95005000D02*
X156365000Y-95005000D01*
D29*
%TO.N,/CHAUFFE_1*%
X161300000Y-63905000D02*
X174434119Y-63905000D01*
X148200000Y-50805000D02*
X161300000Y-63905000D01*
X148200000Y-42275000D02*
X148200000Y-50805000D01*
%TO.N,/CHAUFFE_2*%
X171060000Y-42275000D02*
X171060000Y-48265000D01*
X171060000Y-48265000D02*
X186700000Y-63905000D01*
X186700000Y-63905000D02*
X204434119Y-63905000D01*
%TD*%
%TA.AperFunction,Conductor*%
%TO.N,GND*%
G36*
X200779010Y-87385185D02*
G01*
X200822456Y-87433205D01*
X200862388Y-87511575D01*
X200889617Y-87565016D01*
X200919070Y-87622819D01*
X201044009Y-87794786D01*
X201194332Y-87945109D01*
X201366298Y-88070048D01*
X201366300Y-88070049D01*
X201366303Y-88070051D01*
X201555707Y-88166557D01*
X201757876Y-88232246D01*
X201967832Y-88265500D01*
X201967833Y-88265500D01*
X202180405Y-88265500D01*
X202180406Y-88265500D01*
X202390362Y-88232246D01*
X202592531Y-88166557D01*
X202781935Y-88070051D01*
X202869657Y-88006318D01*
X202953903Y-87945110D01*
X202953903Y-87945109D01*
X202953911Y-87945104D01*
X203092723Y-87806291D01*
X203154042Y-87772809D01*
X203223734Y-87777793D01*
X203279668Y-87819664D01*
X203285940Y-87828878D01*
X203289304Y-87834333D01*
X203289305Y-87834334D01*
X203381407Y-87983656D01*
X203505463Y-88107712D01*
X203654785Y-88199814D01*
X203821322Y-88254999D01*
X203862222Y-88259177D01*
X203926912Y-88285573D01*
X203967064Y-88342753D01*
X203973619Y-88382535D01*
X203973619Y-90125784D01*
X203953934Y-90192823D01*
X203937300Y-90213465D01*
X201787584Y-92363181D01*
X201726261Y-92396666D01*
X201699903Y-92399500D01*
X184086670Y-92399500D01*
X184086654Y-92399499D01*
X184079058Y-92399499D01*
X183920943Y-92399499D01*
X183844579Y-92419961D01*
X183768214Y-92440423D01*
X183768209Y-92440426D01*
X183631290Y-92519475D01*
X183631282Y-92519481D01*
X182519481Y-93631282D01*
X182519475Y-93631290D01*
X182476396Y-93705907D01*
X182476396Y-93705908D01*
X182440423Y-93768214D01*
X182440423Y-93768215D01*
X182399499Y-93920943D01*
X182399499Y-93920945D01*
X182399499Y-94089046D01*
X182399500Y-94089059D01*
X182399500Y-98699902D01*
X182379815Y-98766941D01*
X182363181Y-98787583D01*
X179787584Y-101363181D01*
X179726261Y-101396666D01*
X179699903Y-101399500D01*
X139684096Y-101399500D01*
X139617057Y-101379815D01*
X139571302Y-101327011D01*
X139561358Y-101257853D01*
X139590383Y-101194297D01*
X139596415Y-101187819D01*
X142032970Y-98751264D01*
X144487294Y-96296939D01*
X144548615Y-96263456D01*
X144607066Y-96264847D01*
X144622629Y-96269017D01*
X144703308Y-96290635D01*
X144865230Y-96304801D01*
X144929998Y-96310468D01*
X144930000Y-96310468D01*
X144930002Y-96310468D01*
X144987150Y-96305468D01*
X145156692Y-96290635D01*
X145376496Y-96231739D01*
X145582734Y-96135568D01*
X145769139Y-96005047D01*
X145930047Y-95844139D01*
X146060568Y-95657734D01*
X146156739Y-95451496D01*
X146215635Y-95231692D01*
X146235468Y-95005000D01*
X146235468Y-95004998D01*
X151244532Y-95004998D01*
X151244532Y-95005001D01*
X151264364Y-95231686D01*
X151264366Y-95231697D01*
X151323258Y-95451488D01*
X151323261Y-95451497D01*
X151419431Y-95657732D01*
X151419432Y-95657734D01*
X151549954Y-95844141D01*
X151710858Y-96005045D01*
X151710861Y-96005047D01*
X151897266Y-96135568D01*
X152103504Y-96231739D01*
X152103509Y-96231740D01*
X152103511Y-96231741D01*
X152148505Y-96243797D01*
X152323308Y-96290635D01*
X152485230Y-96304801D01*
X152549998Y-96310468D01*
X152550000Y-96310468D01*
X152550002Y-96310468D01*
X152607150Y-96305468D01*
X152776692Y-96290635D01*
X152996496Y-96231739D01*
X153202734Y-96135568D01*
X153389139Y-96005047D01*
X153550047Y-95844139D01*
X153680118Y-95658375D01*
X153734693Y-95614752D01*
X153781692Y-95605500D01*
X154945501Y-95605500D01*
X155012540Y-95625185D01*
X155058295Y-95677989D01*
X155069501Y-95729500D01*
X155069501Y-95847876D01*
X155075908Y-95907483D01*
X155126202Y-96042328D01*
X155126206Y-96042335D01*
X155212452Y-96157544D01*
X155212455Y-96157547D01*
X155327664Y-96243793D01*
X155327671Y-96243797D01*
X155462517Y-96294091D01*
X155462516Y-96294091D01*
X155469444Y-96294835D01*
X155522127Y-96300500D01*
X157217872Y-96300499D01*
X157277483Y-96294091D01*
X157412331Y-96243796D01*
X157527546Y-96157546D01*
X157613796Y-96042331D01*
X157664091Y-95907483D01*
X157670500Y-95847873D01*
X157670499Y-94152128D01*
X157664091Y-94092517D01*
X157662801Y-94089059D01*
X157613797Y-93957671D01*
X157613793Y-93957664D01*
X157527547Y-93842455D01*
X157527544Y-93842452D01*
X157412335Y-93756206D01*
X157412328Y-93756202D01*
X157277482Y-93705908D01*
X157277483Y-93705908D01*
X157217883Y-93699501D01*
X157217881Y-93699500D01*
X157217873Y-93699500D01*
X157217864Y-93699500D01*
X155522129Y-93699500D01*
X155522123Y-93699501D01*
X155462516Y-93705908D01*
X155327671Y-93756202D01*
X155327664Y-93756206D01*
X155212455Y-93842452D01*
X155212452Y-93842455D01*
X155126206Y-93957664D01*
X155126202Y-93957671D01*
X155075908Y-94092517D01*
X155069501Y-94152116D01*
X155069501Y-94152123D01*
X155069500Y-94152135D01*
X155069500Y-94280500D01*
X155049815Y-94347539D01*
X154997011Y-94393294D01*
X154945500Y-94404500D01*
X153781692Y-94404500D01*
X153714653Y-94384815D01*
X153680119Y-94351625D01*
X153550047Y-94165861D01*
X153550045Y-94165858D01*
X153389141Y-94004954D01*
X153202734Y-93874432D01*
X153202732Y-93874431D01*
X152996497Y-93778261D01*
X152996488Y-93778258D01*
X152776697Y-93719366D01*
X152776693Y-93719365D01*
X152776692Y-93719365D01*
X152776691Y-93719364D01*
X152776686Y-93719364D01*
X152550002Y-93699532D01*
X152549998Y-93699532D01*
X152323313Y-93719364D01*
X152323302Y-93719366D01*
X152103511Y-93778258D01*
X152103502Y-93778261D01*
X151897267Y-93874431D01*
X151897265Y-93874432D01*
X151710858Y-94004954D01*
X151549954Y-94165858D01*
X151419432Y-94352265D01*
X151419431Y-94352267D01*
X151323261Y-94558502D01*
X151323258Y-94558511D01*
X151264366Y-94778302D01*
X151264364Y-94778313D01*
X151244532Y-95004998D01*
X146235468Y-95004998D01*
X146235030Y-94999998D01*
X146215635Y-94778313D01*
X146215635Y-94778308D01*
X146156739Y-94558504D01*
X146060568Y-94352266D01*
X145930047Y-94165861D01*
X145930045Y-94165858D01*
X145769141Y-94004954D01*
X145582734Y-93874432D01*
X145582732Y-93874431D01*
X145376497Y-93778261D01*
X145376488Y-93778258D01*
X145156697Y-93719366D01*
X145156693Y-93719365D01*
X145156692Y-93719365D01*
X145156691Y-93719364D01*
X145156686Y-93719364D01*
X144930002Y-93699532D01*
X144929998Y-93699532D01*
X144703313Y-93719364D01*
X144703302Y-93719366D01*
X144483511Y-93778258D01*
X144483502Y-93778261D01*
X144277267Y-93874431D01*
X144277265Y-93874432D01*
X144090858Y-94004954D01*
X143929954Y-94165858D01*
X143799432Y-94352265D01*
X143799431Y-94352267D01*
X143703261Y-94558502D01*
X143703258Y-94558511D01*
X143644366Y-94778302D01*
X143644364Y-94778313D01*
X143624532Y-95004998D01*
X143624532Y-95005001D01*
X143644364Y-95231686D01*
X143644366Y-95231697D01*
X143670152Y-95327931D01*
X143668489Y-95397781D01*
X143638058Y-95447705D01*
X138722584Y-100363181D01*
X138661261Y-100396666D01*
X138634903Y-100399500D01*
X120300097Y-100399500D01*
X120233058Y-100379815D01*
X120212416Y-100363181D01*
X117477590Y-97628355D01*
X117477588Y-97628352D01*
X117358717Y-97509481D01*
X117358716Y-97509480D01*
X117257960Y-97451309D01*
X117257959Y-97451308D01*
X117221783Y-97430422D01*
X117165881Y-97415443D01*
X117069057Y-97389499D01*
X116910943Y-97389499D01*
X116903347Y-97389499D01*
X116903331Y-97389500D01*
X85119758Y-97389500D01*
X85052719Y-97369815D01*
X85006964Y-97317011D01*
X84997020Y-97247853D01*
X85026045Y-97184297D01*
X85032077Y-97177819D01*
X85038495Y-97171401D01*
X85174035Y-96977830D01*
X85176707Y-96972097D01*
X85222878Y-96919658D01*
X85289091Y-96900500D01*
X107993331Y-96900500D01*
X107993347Y-96900501D01*
X108000943Y-96900501D01*
X108159054Y-96900501D01*
X108159057Y-96900501D01*
X108311785Y-96859577D01*
X108361904Y-96830639D01*
X108448716Y-96780520D01*
X108560520Y-96668716D01*
X108560520Y-96668714D01*
X108570728Y-96658507D01*
X108570730Y-96658504D01*
X108937294Y-96291939D01*
X108998615Y-96258456D01*
X109057066Y-96259847D01*
X109070535Y-96263456D01*
X109153308Y-96285635D01*
X109315230Y-96299801D01*
X109379998Y-96305468D01*
X109380000Y-96305468D01*
X109380002Y-96305468D01*
X109442511Y-96299999D01*
X109606692Y-96285635D01*
X109826496Y-96226739D01*
X110032734Y-96130568D01*
X110219139Y-96000047D01*
X110380047Y-95839139D01*
X110510568Y-95652734D01*
X110606739Y-95446496D01*
X110665635Y-95226692D01*
X110684812Y-95007500D01*
X110685468Y-95000001D01*
X110685468Y-94999998D01*
X115694532Y-94999998D01*
X115694532Y-95000001D01*
X115714364Y-95226686D01*
X115714366Y-95226697D01*
X115773258Y-95446488D01*
X115773261Y-95446497D01*
X115869431Y-95652732D01*
X115869432Y-95652734D01*
X115999954Y-95839141D01*
X116160858Y-96000045D01*
X116160861Y-96000047D01*
X116347266Y-96130568D01*
X116553504Y-96226739D01*
X116553509Y-96226740D01*
X116553511Y-96226741D01*
X116572164Y-96231739D01*
X116773308Y-96285635D01*
X116935230Y-96299801D01*
X116999998Y-96305468D01*
X117000000Y-96305468D01*
X117000002Y-96305468D01*
X117062511Y-96299999D01*
X117226692Y-96285635D01*
X117446496Y-96226739D01*
X117652734Y-96130568D01*
X117839139Y-96000047D01*
X118000047Y-95839139D01*
X118130118Y-95653375D01*
X118184693Y-95609752D01*
X118231692Y-95600500D01*
X119385501Y-95600500D01*
X119452540Y-95620185D01*
X119498295Y-95672989D01*
X119509501Y-95724500D01*
X119509501Y-95847876D01*
X119515908Y-95907483D01*
X119566202Y-96042328D01*
X119566206Y-96042335D01*
X119652452Y-96157544D01*
X119652455Y-96157547D01*
X119767664Y-96243793D01*
X119767671Y-96243797D01*
X119902517Y-96294091D01*
X119902516Y-96294091D01*
X119909444Y-96294835D01*
X119962127Y-96300500D01*
X121657872Y-96300499D01*
X121717483Y-96294091D01*
X121852331Y-96243796D01*
X121967546Y-96157546D01*
X122053796Y-96042331D01*
X122104091Y-95907483D01*
X122110500Y-95847873D01*
X122110499Y-94152128D01*
X122104091Y-94092517D01*
X122102801Y-94089059D01*
X122053797Y-93957671D01*
X122053793Y-93957664D01*
X121967547Y-93842455D01*
X121967544Y-93842452D01*
X121852335Y-93756206D01*
X121852328Y-93756202D01*
X121717482Y-93705908D01*
X121717483Y-93705908D01*
X121657883Y-93699501D01*
X121657881Y-93699500D01*
X121657873Y-93699500D01*
X121657864Y-93699500D01*
X119962129Y-93699500D01*
X119962123Y-93699501D01*
X119902516Y-93705908D01*
X119767671Y-93756202D01*
X119767664Y-93756206D01*
X119652455Y-93842452D01*
X119652452Y-93842455D01*
X119566206Y-93957664D01*
X119566202Y-93957671D01*
X119515908Y-94092517D01*
X119509501Y-94152116D01*
X119509501Y-94152123D01*
X119509500Y-94152135D01*
X119509500Y-94275500D01*
X119489815Y-94342539D01*
X119437011Y-94388294D01*
X119385500Y-94399500D01*
X118231692Y-94399500D01*
X118164653Y-94379815D01*
X118130119Y-94346625D01*
X118000047Y-94160861D01*
X118000045Y-94160858D01*
X117839141Y-93999954D01*
X117652734Y-93869432D01*
X117652732Y-93869431D01*
X117446497Y-93773261D01*
X117446488Y-93773258D01*
X117226697Y-93714366D01*
X117226693Y-93714365D01*
X117226692Y-93714365D01*
X117226691Y-93714364D01*
X117226686Y-93714364D01*
X117000002Y-93694532D01*
X116999998Y-93694532D01*
X116773313Y-93714364D01*
X116773302Y-93714366D01*
X116553511Y-93773258D01*
X116553502Y-93773261D01*
X116347267Y-93869431D01*
X116347265Y-93869432D01*
X116160858Y-93999954D01*
X115999954Y-94160858D01*
X115869432Y-94347265D01*
X115869431Y-94347267D01*
X115773261Y-94553502D01*
X115773258Y-94553511D01*
X115714366Y-94773302D01*
X115714364Y-94773313D01*
X115694532Y-94999998D01*
X110685468Y-94999998D01*
X110679206Y-94928425D01*
X110665635Y-94773308D01*
X110606739Y-94553504D01*
X110510568Y-94347266D01*
X110380047Y-94160861D01*
X110380045Y-94160858D01*
X110219141Y-93999954D01*
X110032734Y-93869432D01*
X110032732Y-93869431D01*
X109826497Y-93773261D01*
X109826488Y-93773258D01*
X109606697Y-93714366D01*
X109606693Y-93714365D01*
X109606692Y-93714365D01*
X109606691Y-93714364D01*
X109606686Y-93714364D01*
X109380002Y-93694532D01*
X109379998Y-93694532D01*
X109153313Y-93714364D01*
X109153302Y-93714366D01*
X108933511Y-93773258D01*
X108933502Y-93773261D01*
X108727267Y-93869431D01*
X108727265Y-93869432D01*
X108540858Y-93999954D01*
X108379954Y-94160858D01*
X108249432Y-94347265D01*
X108249431Y-94347267D01*
X108153261Y-94553502D01*
X108153258Y-94553511D01*
X108094366Y-94773302D01*
X108094364Y-94773313D01*
X108074532Y-94999998D01*
X108074532Y-95000001D01*
X108094364Y-95226686D01*
X108094366Y-95226697D01*
X108120152Y-95322931D01*
X108118489Y-95392781D01*
X108088058Y-95442705D01*
X107867582Y-95663182D01*
X107806262Y-95696666D01*
X107779903Y-95699500D01*
X85289091Y-95699500D01*
X85222052Y-95679815D01*
X85176711Y-95627909D01*
X85174037Y-95622175D01*
X85174034Y-95622170D01*
X85174033Y-95622169D01*
X85116002Y-95539290D01*
X85038494Y-95428597D01*
X84871402Y-95261506D01*
X84871396Y-95261501D01*
X84685842Y-95131575D01*
X84642217Y-95076998D01*
X84635023Y-95007500D01*
X84666546Y-94945145D01*
X84685842Y-94928425D01*
X84708026Y-94912891D01*
X84871401Y-94798495D01*
X85038495Y-94631401D01*
X85174035Y-94437830D01*
X85273903Y-94223663D01*
X85335063Y-93995408D01*
X85355659Y-93760000D01*
X85353922Y-93740152D01*
X85344398Y-93631290D01*
X85335063Y-93524592D01*
X85273903Y-93296337D01*
X85174035Y-93082171D01*
X85038495Y-92888599D01*
X85038494Y-92888597D01*
X84871402Y-92721506D01*
X84871396Y-92721501D01*
X84685842Y-92591575D01*
X84642217Y-92536998D01*
X84635023Y-92467500D01*
X84666546Y-92405145D01*
X84685842Y-92388425D01*
X84721894Y-92363181D01*
X84871401Y-92258495D01*
X85038495Y-92091401D01*
X85174035Y-91897830D01*
X85176707Y-91892097D01*
X85222878Y-91839658D01*
X85289091Y-91820500D01*
X130460902Y-91820500D01*
X130527941Y-91840185D01*
X130573696Y-91892989D01*
X130583640Y-91962147D01*
X130554615Y-92025703D01*
X130548583Y-92032181D01*
X128872705Y-93708058D01*
X128811382Y-93741543D01*
X128752931Y-93740152D01*
X128656697Y-93714366D01*
X128656693Y-93714365D01*
X128656692Y-93714365D01*
X128656691Y-93714364D01*
X128656686Y-93714364D01*
X128430002Y-93694532D01*
X128429998Y-93694532D01*
X128203313Y-93714364D01*
X128203302Y-93714366D01*
X127983511Y-93773258D01*
X127983502Y-93773261D01*
X127777267Y-93869431D01*
X127777265Y-93869432D01*
X127590858Y-93999954D01*
X127429954Y-94160858D01*
X127299432Y-94347265D01*
X127299431Y-94347267D01*
X127203261Y-94553502D01*
X127203258Y-94553511D01*
X127144366Y-94773302D01*
X127144364Y-94773313D01*
X127124532Y-94999998D01*
X127124532Y-95000001D01*
X127144364Y-95226686D01*
X127144366Y-95226697D01*
X127203258Y-95446488D01*
X127203261Y-95446497D01*
X127299431Y-95652732D01*
X127299432Y-95652734D01*
X127429954Y-95839141D01*
X127590858Y-96000045D01*
X127590861Y-96000047D01*
X127777266Y-96130568D01*
X127835275Y-96157618D01*
X127887714Y-96203791D01*
X127906866Y-96270984D01*
X127886650Y-96337865D01*
X127835275Y-96382382D01*
X127777267Y-96409431D01*
X127777265Y-96409432D01*
X127590858Y-96539954D01*
X127429954Y-96700858D01*
X127299432Y-96887265D01*
X127299431Y-96887267D01*
X127203261Y-97093502D01*
X127203258Y-97093511D01*
X127144366Y-97313302D01*
X127144364Y-97313313D01*
X127124532Y-97539998D01*
X127124532Y-97540001D01*
X127144364Y-97766686D01*
X127144366Y-97766697D01*
X127203258Y-97986488D01*
X127203261Y-97986497D01*
X127299431Y-98192732D01*
X127299432Y-98192734D01*
X127429954Y-98379141D01*
X127590858Y-98540045D01*
X127590861Y-98540047D01*
X127777266Y-98670568D01*
X127983504Y-98766739D01*
X127983509Y-98766740D01*
X127983511Y-98766741D01*
X128036415Y-98780916D01*
X128203308Y-98825635D01*
X128365230Y-98839801D01*
X128429998Y-98845468D01*
X128430000Y-98845468D01*
X128430002Y-98845468D01*
X128492511Y-98839999D01*
X128656692Y-98825635D01*
X128876496Y-98766739D01*
X129082734Y-98670568D01*
X129269139Y-98540047D01*
X129430047Y-98379139D01*
X129560118Y-98193375D01*
X129614693Y-98149752D01*
X129661692Y-98140500D01*
X138874212Y-98140500D01*
X138874228Y-98140501D01*
X138881824Y-98140501D01*
X139039935Y-98140501D01*
X139039938Y-98140501D01*
X139192666Y-98099577D01*
X139245528Y-98069057D01*
X139245529Y-98069057D01*
X139329590Y-98020524D01*
X139329589Y-98020524D01*
X139329597Y-98020520D01*
X139441401Y-97908716D01*
X139441401Y-97908714D01*
X139451605Y-97898511D01*
X139451609Y-97898506D01*
X140218506Y-97131609D01*
X140218511Y-97131605D01*
X140228714Y-97121401D01*
X140228716Y-97121401D01*
X140340520Y-97009597D01*
X140403507Y-96900500D01*
X140419577Y-96872666D01*
X140460500Y-96719939D01*
X140460500Y-96561824D01*
X140460500Y-96231692D01*
X140480185Y-96164653D01*
X140513374Y-96130119D01*
X140699139Y-96000047D01*
X140860047Y-95839139D01*
X140990568Y-95652734D01*
X141086739Y-95446496D01*
X141145635Y-95226692D01*
X141164812Y-95007500D01*
X141165468Y-95000001D01*
X141165468Y-94999998D01*
X141159206Y-94928425D01*
X141145635Y-94773308D01*
X141086739Y-94553504D01*
X140990568Y-94347266D01*
X140860047Y-94160861D01*
X140860045Y-94160858D01*
X140699141Y-93999954D01*
X140512734Y-93869432D01*
X140512732Y-93869431D01*
X140306497Y-93773261D01*
X140306488Y-93773258D01*
X140086697Y-93714366D01*
X140086693Y-93714365D01*
X140086692Y-93714365D01*
X140086691Y-93714364D01*
X140086686Y-93714364D01*
X139860002Y-93694532D01*
X139859998Y-93694532D01*
X139633313Y-93714364D01*
X139633302Y-93714366D01*
X139413511Y-93773258D01*
X139413502Y-93773261D01*
X139207267Y-93869431D01*
X139207265Y-93869432D01*
X139020858Y-93999954D01*
X138859954Y-94160858D01*
X138729432Y-94347265D01*
X138729431Y-94347267D01*
X138633261Y-94553502D01*
X138633258Y-94553511D01*
X138574366Y-94773302D01*
X138574364Y-94773313D01*
X138554532Y-94999998D01*
X138554532Y-95000001D01*
X138574364Y-95226686D01*
X138574366Y-95226697D01*
X138633258Y-95446488D01*
X138633261Y-95446497D01*
X138729431Y-95652732D01*
X138729432Y-95652734D01*
X138859954Y-95839141D01*
X139020858Y-96000045D01*
X139020861Y-96000047D01*
X139206624Y-96130118D01*
X139250248Y-96184693D01*
X139259500Y-96231692D01*
X139259500Y-96340784D01*
X139239815Y-96407823D01*
X139223181Y-96428465D01*
X138748465Y-96903181D01*
X138687142Y-96936666D01*
X138660784Y-96939500D01*
X129661692Y-96939500D01*
X129594653Y-96919815D01*
X129560119Y-96886625D01*
X129430047Y-96700861D01*
X129430045Y-96700858D01*
X129269141Y-96539954D01*
X129082734Y-96409432D01*
X129082728Y-96409429D01*
X129024725Y-96382382D01*
X128972285Y-96336210D01*
X128953133Y-96269017D01*
X128973348Y-96202135D01*
X129024725Y-96157618D01*
X129082734Y-96130568D01*
X129269139Y-96000047D01*
X129430047Y-95839139D01*
X129560568Y-95652734D01*
X129656739Y-95446496D01*
X129715635Y-95226692D01*
X129734812Y-95007500D01*
X129735468Y-95000001D01*
X129735468Y-94999998D01*
X129729206Y-94928425D01*
X129715635Y-94773308D01*
X129689847Y-94677066D01*
X129691510Y-94607217D01*
X129721939Y-94557294D01*
X131577417Y-92701819D01*
X131638740Y-92668334D01*
X131665098Y-92665500D01*
X160754903Y-92665500D01*
X160821942Y-92685185D01*
X160842584Y-92701819D01*
X162698058Y-94557293D01*
X162731543Y-94618616D01*
X162730152Y-94677067D01*
X162704366Y-94773302D01*
X162704364Y-94773313D01*
X162684532Y-94999998D01*
X162684532Y-95000001D01*
X162704364Y-95226686D01*
X162704366Y-95226697D01*
X162763258Y-95446488D01*
X162763261Y-95446497D01*
X162859431Y-95652732D01*
X162859432Y-95652734D01*
X162989954Y-95839141D01*
X163150858Y-96000045D01*
X163150861Y-96000047D01*
X163337266Y-96130568D01*
X163395275Y-96157618D01*
X163447714Y-96203791D01*
X163466866Y-96270984D01*
X163446650Y-96337865D01*
X163395275Y-96382382D01*
X163337267Y-96409431D01*
X163337265Y-96409432D01*
X163150858Y-96539954D01*
X162989954Y-96700858D01*
X162859432Y-96887265D01*
X162859431Y-96887267D01*
X162763261Y-97093502D01*
X162763258Y-97093511D01*
X162704366Y-97313302D01*
X162704364Y-97313313D01*
X162684532Y-97539998D01*
X162684532Y-97540001D01*
X162704364Y-97766686D01*
X162704366Y-97766697D01*
X162763258Y-97986488D01*
X162763261Y-97986497D01*
X162859431Y-98192732D01*
X162859432Y-98192734D01*
X162989954Y-98379141D01*
X163150858Y-98540045D01*
X163150861Y-98540047D01*
X163337266Y-98670568D01*
X163543504Y-98766739D01*
X163543509Y-98766740D01*
X163543511Y-98766741D01*
X163596415Y-98780916D01*
X163763308Y-98825635D01*
X163925230Y-98839801D01*
X163989998Y-98845468D01*
X163990000Y-98845468D01*
X163990002Y-98845468D01*
X164052511Y-98839999D01*
X164216692Y-98825635D01*
X164436496Y-98766739D01*
X164642734Y-98670568D01*
X164829139Y-98540047D01*
X164990047Y-98379139D01*
X165120118Y-98193375D01*
X165174693Y-98149752D01*
X165221692Y-98140500D01*
X170584952Y-98140500D01*
X170651991Y-98160185D01*
X170672628Y-98176814D01*
X170730861Y-98235047D01*
X170917266Y-98365568D01*
X171123504Y-98461739D01*
X171343308Y-98520635D01*
X171505230Y-98534801D01*
X171569998Y-98540468D01*
X171570000Y-98540468D01*
X171570002Y-98540468D01*
X171626673Y-98535509D01*
X171796692Y-98520635D01*
X172016496Y-98461739D01*
X172222734Y-98365568D01*
X172409139Y-98235047D01*
X172570047Y-98074139D01*
X172700568Y-97887734D01*
X172796739Y-97681496D01*
X172855635Y-97461692D01*
X172875468Y-97235000D01*
X172855635Y-97008308D01*
X172796739Y-96788504D01*
X172700568Y-96582266D01*
X172592876Y-96428465D01*
X172570045Y-96395858D01*
X172409141Y-96234954D01*
X172222734Y-96104432D01*
X172222732Y-96104431D01*
X172016497Y-96008261D01*
X172016488Y-96008258D01*
X171796697Y-95949366D01*
X171796693Y-95949365D01*
X171796692Y-95949365D01*
X171796691Y-95949364D01*
X171796686Y-95949364D01*
X171570002Y-95929532D01*
X171569998Y-95929532D01*
X171343313Y-95949364D01*
X171343302Y-95949366D01*
X171123511Y-96008258D01*
X171123502Y-96008261D01*
X170917267Y-96104431D01*
X170917265Y-96104432D01*
X170730858Y-96234954D01*
X170569954Y-96395858D01*
X170439432Y-96582265D01*
X170439431Y-96582267D01*
X170343261Y-96788502D01*
X170343258Y-96788511D01*
X170327428Y-96847593D01*
X170291063Y-96907254D01*
X170228216Y-96937783D01*
X170207653Y-96939500D01*
X165221692Y-96939500D01*
X165154653Y-96919815D01*
X165120119Y-96886625D01*
X164990047Y-96700861D01*
X164990045Y-96700858D01*
X164829141Y-96539954D01*
X164642734Y-96409432D01*
X164642728Y-96409429D01*
X164584725Y-96382382D01*
X164532285Y-96336210D01*
X164513133Y-96269017D01*
X164533348Y-96202135D01*
X164584725Y-96157618D01*
X164642734Y-96130568D01*
X164829139Y-96000047D01*
X164990047Y-95839139D01*
X165120568Y-95652734D01*
X165216739Y-95446496D01*
X165275635Y-95226692D01*
X165294812Y-95007500D01*
X165295468Y-95000001D01*
X165295468Y-94999998D01*
X165289206Y-94928425D01*
X165275635Y-94773308D01*
X165216739Y-94553504D01*
X165120568Y-94347266D01*
X164990047Y-94160861D01*
X164990045Y-94160858D01*
X164829141Y-93999954D01*
X164642734Y-93869432D01*
X164642732Y-93869431D01*
X164436497Y-93773261D01*
X164436488Y-93773258D01*
X164216697Y-93714366D01*
X164216693Y-93714365D01*
X164216692Y-93714365D01*
X164216691Y-93714364D01*
X164216686Y-93714364D01*
X163990002Y-93694532D01*
X163989998Y-93694532D01*
X163763313Y-93714364D01*
X163763302Y-93714366D01*
X163667067Y-93740152D01*
X163597217Y-93738489D01*
X163547293Y-93708058D01*
X161871416Y-92032181D01*
X161837931Y-91970858D01*
X161842915Y-91901166D01*
X161884787Y-91845233D01*
X161950251Y-91820816D01*
X161959097Y-91820500D01*
X188693331Y-91820500D01*
X188693347Y-91820501D01*
X188700943Y-91820501D01*
X188859054Y-91820501D01*
X188859057Y-91820501D01*
X189011785Y-91779577D01*
X189061904Y-91750639D01*
X189148716Y-91700520D01*
X189260520Y-91588716D01*
X189260520Y-91588714D01*
X189270728Y-91578507D01*
X189270730Y-91578504D01*
X193241904Y-87607329D01*
X193303225Y-87573846D01*
X193372917Y-87578830D01*
X193417262Y-87607329D01*
X193574978Y-87765045D01*
X193574981Y-87765048D01*
X193633887Y-87806294D01*
X193761385Y-87895568D01*
X193967623Y-87991739D01*
X194187427Y-88050635D01*
X194349349Y-88064801D01*
X194414117Y-88070468D01*
X194414119Y-88070468D01*
X194414121Y-88070468D01*
X194470792Y-88065509D01*
X194640811Y-88050635D01*
X194860615Y-87991739D01*
X195066853Y-87895568D01*
X195253258Y-87765047D01*
X195414166Y-87604139D01*
X195544237Y-87418375D01*
X195598812Y-87374752D01*
X195645811Y-87365500D01*
X200711971Y-87365500D01*
X200779010Y-87385185D01*
G37*
%TD.AperFunction*%
%TA.AperFunction,Conductor*%
G36*
X193412109Y-85715185D02*
G01*
X193457864Y-85767989D01*
X193467808Y-85837147D01*
X193438783Y-85900703D01*
X193432751Y-85907181D01*
X193414073Y-85925858D01*
X193386672Y-85964992D01*
X193284000Y-86111624D01*
X193229426Y-86155248D01*
X193182427Y-86164500D01*
X193155940Y-86164500D01*
X193115019Y-86175464D01*
X193115019Y-86175465D01*
X193077751Y-86185451D01*
X193003214Y-86205423D01*
X193003209Y-86205426D01*
X192866290Y-86284475D01*
X192866282Y-86284481D01*
X192754478Y-86396286D01*
X188567584Y-90583181D01*
X188506261Y-90616666D01*
X188479903Y-90619500D01*
X85289091Y-90619500D01*
X85222052Y-90599815D01*
X85176711Y-90547909D01*
X85174037Y-90542175D01*
X85174034Y-90542170D01*
X85174033Y-90542169D01*
X85038495Y-90348599D01*
X85038494Y-90348597D01*
X84871402Y-90181506D01*
X84871396Y-90181501D01*
X84685842Y-90051575D01*
X84642217Y-89996998D01*
X84635023Y-89927500D01*
X84666546Y-89865145D01*
X84685842Y-89848425D01*
X84708026Y-89832891D01*
X84871401Y-89718495D01*
X85038495Y-89551401D01*
X85174035Y-89357830D01*
X85273903Y-89143663D01*
X85335063Y-88915408D01*
X85355659Y-88680000D01*
X85335063Y-88444592D01*
X85287076Y-88265499D01*
X85273905Y-88216344D01*
X85273904Y-88216343D01*
X85273903Y-88216337D01*
X85174035Y-88002171D01*
X85166731Y-87991739D01*
X85038494Y-87808597D01*
X84871402Y-87641506D01*
X84871396Y-87641501D01*
X84685842Y-87511575D01*
X84642217Y-87456998D01*
X84635023Y-87387500D01*
X84666546Y-87325145D01*
X84685842Y-87308425D01*
X84708026Y-87292891D01*
X84871401Y-87178495D01*
X85038495Y-87011401D01*
X85174035Y-86817830D01*
X85176707Y-86812097D01*
X85222878Y-86759658D01*
X85289091Y-86740500D01*
X99839903Y-86740500D01*
X99906942Y-86760185D01*
X99927583Y-86776818D01*
X102631284Y-89480520D01*
X102768215Y-89559577D01*
X102920943Y-89600501D01*
X102920946Y-89600501D01*
X103086654Y-89600501D01*
X103086670Y-89600500D01*
X131092450Y-89600500D01*
X131092466Y-89600501D01*
X131100062Y-89600501D01*
X131258173Y-89600501D01*
X131258176Y-89600501D01*
X131410904Y-89559577D01*
X131461023Y-89530639D01*
X131547835Y-89480520D01*
X131659639Y-89368716D01*
X131659639Y-89368714D01*
X131669847Y-89358507D01*
X131669849Y-89358504D01*
X132971413Y-88056939D01*
X133032734Y-88023456D01*
X133091185Y-88024847D01*
X133110723Y-88030082D01*
X133187427Y-88050635D01*
X133349349Y-88064801D01*
X133414117Y-88070468D01*
X133414119Y-88070468D01*
X133414121Y-88070468D01*
X133470792Y-88065509D01*
X133640811Y-88050635D01*
X133860615Y-87991739D01*
X134066853Y-87895568D01*
X134253258Y-87765047D01*
X134414166Y-87604139D01*
X134544237Y-87418375D01*
X134598812Y-87374752D01*
X134645811Y-87365500D01*
X139711971Y-87365500D01*
X139779010Y-87385185D01*
X139822456Y-87433205D01*
X139862388Y-87511575D01*
X139889617Y-87565016D01*
X139919070Y-87622819D01*
X140044009Y-87794786D01*
X140194332Y-87945109D01*
X140366298Y-88070048D01*
X140366300Y-88070049D01*
X140366303Y-88070051D01*
X140555707Y-88166557D01*
X140757876Y-88232246D01*
X140967832Y-88265500D01*
X140967833Y-88265500D01*
X141180405Y-88265500D01*
X141180406Y-88265500D01*
X141390362Y-88232246D01*
X141592531Y-88166557D01*
X141781935Y-88070051D01*
X141869657Y-88006318D01*
X141953903Y-87945110D01*
X141953903Y-87945109D01*
X141953911Y-87945104D01*
X142092723Y-87806291D01*
X142154042Y-87772809D01*
X142223734Y-87777793D01*
X142279668Y-87819664D01*
X142285940Y-87828878D01*
X142289304Y-87834333D01*
X142289305Y-87834334D01*
X142381407Y-87983656D01*
X142505463Y-88107712D01*
X142654785Y-88199814D01*
X142821322Y-88254999D01*
X142924110Y-88265500D01*
X144119902Y-88265499D01*
X144186941Y-88285184D01*
X144207583Y-88301818D01*
X145175139Y-89269374D01*
X145175149Y-89269385D01*
X145179479Y-89273715D01*
X145179480Y-89273716D01*
X145291284Y-89385520D01*
X145378095Y-89435639D01*
X145378097Y-89435641D01*
X145428213Y-89464576D01*
X145428215Y-89464577D01*
X145580942Y-89505500D01*
X145580943Y-89505500D01*
X170597450Y-89505500D01*
X170597466Y-89505501D01*
X170605062Y-89505501D01*
X170763173Y-89505501D01*
X170763176Y-89505501D01*
X170915904Y-89464577D01*
X170966023Y-89435639D01*
X171052835Y-89385520D01*
X171164639Y-89273716D01*
X171164639Y-89273714D01*
X171174847Y-89263507D01*
X171174849Y-89263504D01*
X172136536Y-88301816D01*
X172197857Y-88268333D01*
X172224206Y-88265499D01*
X173474127Y-88265499D01*
X173576916Y-88254999D01*
X173743453Y-88199814D01*
X173892775Y-88107712D01*
X174016831Y-87983656D01*
X174108933Y-87834334D01*
X174164118Y-87667797D01*
X174174619Y-87565009D01*
X174174618Y-85964992D01*
X174168712Y-85907180D01*
X174164118Y-85862203D01*
X174164115Y-85862192D01*
X174162892Y-85858499D01*
X174162809Y-85856087D01*
X174162700Y-85855578D01*
X174162790Y-85855558D01*
X174160492Y-85788671D01*
X174196226Y-85728631D01*
X174258748Y-85697440D01*
X174280599Y-85695500D01*
X193345070Y-85695500D01*
X193412109Y-85715185D01*
G37*
%TD.AperFunction*%
%TA.AperFunction,Conductor*%
G36*
X141616942Y-84445185D02*
G01*
X141637584Y-84461819D01*
X142464077Y-85288312D01*
X142497562Y-85349635D01*
X142492578Y-85419327D01*
X142464077Y-85463674D01*
X142381408Y-85546342D01*
X142285940Y-85701121D01*
X142233992Y-85747845D01*
X142165029Y-85759068D01*
X142100947Y-85731224D01*
X142092720Y-85723705D01*
X141953905Y-85584890D01*
X141781939Y-85459951D01*
X141592533Y-85363444D01*
X141592532Y-85363443D01*
X141592531Y-85363443D01*
X141390362Y-85297754D01*
X141390360Y-85297753D01*
X141390359Y-85297753D01*
X141229076Y-85272208D01*
X141180406Y-85264500D01*
X140967832Y-85264500D01*
X140919161Y-85272208D01*
X140757879Y-85297753D01*
X140555704Y-85363444D01*
X140366298Y-85459951D01*
X140194332Y-85584890D01*
X140044009Y-85735213D01*
X139919070Y-85907180D01*
X139822456Y-86096795D01*
X139774481Y-86147591D01*
X139711971Y-86164500D01*
X134645811Y-86164500D01*
X134578772Y-86144815D01*
X134544238Y-86111625D01*
X134414166Y-85925861D01*
X134414164Y-85925858D01*
X134253260Y-85764954D01*
X134066853Y-85634432D01*
X134066851Y-85634431D01*
X133860616Y-85538261D01*
X133860607Y-85538258D01*
X133640816Y-85479366D01*
X133640812Y-85479365D01*
X133640811Y-85479365D01*
X133640810Y-85479364D01*
X133640805Y-85479364D01*
X133414121Y-85459532D01*
X133414117Y-85459532D01*
X133187432Y-85479364D01*
X133187421Y-85479366D01*
X132967630Y-85538258D01*
X132967621Y-85538261D01*
X132761386Y-85634431D01*
X132761384Y-85634432D01*
X132574977Y-85764954D01*
X132414073Y-85925858D01*
X132283551Y-86112265D01*
X132283550Y-86112267D01*
X132187380Y-86318502D01*
X132187377Y-86318511D01*
X132128485Y-86538302D01*
X132128483Y-86538313D01*
X132108651Y-86764998D01*
X132108651Y-86765001D01*
X132128483Y-86991686D01*
X132128485Y-86991697D01*
X132154271Y-87087931D01*
X132152608Y-87157781D01*
X132122177Y-87207705D01*
X130966703Y-88363181D01*
X130905380Y-88396666D01*
X130879022Y-88399500D01*
X114126949Y-88399500D01*
X114059910Y-88379815D01*
X114014155Y-88327011D01*
X114004211Y-88257853D01*
X114033236Y-88194297D01*
X114061850Y-88169962D01*
X114162775Y-88107712D01*
X114286831Y-87983656D01*
X114378933Y-87834334D01*
X114434118Y-87667797D01*
X114444619Y-87565009D01*
X114444619Y-87489500D01*
X114464304Y-87422461D01*
X114517108Y-87376706D01*
X114568619Y-87365500D01*
X119773331Y-87365500D01*
X119773347Y-87365501D01*
X119780943Y-87365501D01*
X119939054Y-87365501D01*
X119939057Y-87365501D01*
X120091785Y-87324577D01*
X120141904Y-87295639D01*
X120228716Y-87245520D01*
X120340520Y-87133716D01*
X120340520Y-87133714D01*
X120350728Y-87123507D01*
X120350729Y-87123504D01*
X123012416Y-84461819D01*
X123073739Y-84428334D01*
X123100097Y-84425500D01*
X141549903Y-84425500D01*
X141616942Y-84445185D01*
G37*
%TD.AperFunction*%
%TA.AperFunction,Conductor*%
G36*
X209442539Y-32520185D02*
G01*
X209488294Y-32572989D01*
X209499500Y-32624500D01*
X209499500Y-114375500D01*
X209479815Y-114442539D01*
X209427011Y-114488294D01*
X209375500Y-114499500D01*
X81624500Y-114499500D01*
X81557461Y-114479815D01*
X81511706Y-114427011D01*
X81500500Y-114375500D01*
X81500500Y-112000000D01*
X92494592Y-112000000D01*
X92514201Y-112286680D01*
X92514201Y-112286684D01*
X92514202Y-112286686D01*
X92531247Y-112368713D01*
X92572666Y-112568034D01*
X92572667Y-112568037D01*
X92668894Y-112838793D01*
X92668893Y-112838793D01*
X92801098Y-113093935D01*
X92966812Y-113328700D01*
X93051923Y-113419831D01*
X93162947Y-113538708D01*
X93385853Y-113720055D01*
X93631382Y-113869365D01*
X93818237Y-113950526D01*
X93894942Y-113983844D01*
X94171642Y-114061371D01*
X94421920Y-114095771D01*
X94456321Y-114100500D01*
X94456322Y-114100500D01*
X94743679Y-114100500D01*
X94774370Y-114096281D01*
X95028358Y-114061371D01*
X95305058Y-113983844D01*
X95418015Y-113934779D01*
X95568617Y-113869365D01*
X95568620Y-113869363D01*
X95568625Y-113869361D01*
X95814147Y-113720055D01*
X96037053Y-113538708D01*
X96233189Y-113328698D01*
X96398901Y-113093936D01*
X96531104Y-112838797D01*
X96627334Y-112568032D01*
X96685798Y-112286686D01*
X96705408Y-112000000D01*
X96685798Y-111713314D01*
X96627334Y-111431968D01*
X96531105Y-111161206D01*
X96531106Y-111161206D01*
X96398901Y-110906064D01*
X96233187Y-110671299D01*
X96154554Y-110587105D01*
X96037053Y-110461292D01*
X95814147Y-110279945D01*
X95814146Y-110279944D01*
X95568617Y-110130634D01*
X95305063Y-110016158D01*
X95305061Y-110016157D01*
X95305058Y-110016156D01*
X95175578Y-109979877D01*
X95028364Y-109938630D01*
X95028359Y-109938629D01*
X95028358Y-109938629D01*
X94886018Y-109919064D01*
X94743679Y-109899500D01*
X94743678Y-109899500D01*
X94456322Y-109899500D01*
X94456321Y-109899500D01*
X94171642Y-109938629D01*
X94171635Y-109938630D01*
X93963861Y-109996845D01*
X93894942Y-110016156D01*
X93894939Y-110016156D01*
X93894936Y-110016158D01*
X93894935Y-110016158D01*
X93631382Y-110130634D01*
X93385853Y-110279944D01*
X93162950Y-110461289D01*
X92966812Y-110671299D01*
X92801098Y-110906064D01*
X92668894Y-111161206D01*
X92572667Y-111431962D01*
X92572666Y-111431965D01*
X92514201Y-111713319D01*
X92494592Y-112000000D01*
X81500500Y-112000000D01*
X81500500Y-83599999D01*
X82644341Y-83599999D01*
X82644341Y-83600000D01*
X82664936Y-83835403D01*
X82664938Y-83835413D01*
X82726094Y-84063655D01*
X82726096Y-84063659D01*
X82726097Y-84063663D01*
X82798839Y-84219658D01*
X82825965Y-84277830D01*
X82825967Y-84277834D01*
X82961501Y-84471395D01*
X82961506Y-84471402D01*
X83128597Y-84638493D01*
X83128603Y-84638498D01*
X83314158Y-84768425D01*
X83357783Y-84823002D01*
X83364977Y-84892500D01*
X83333454Y-84954855D01*
X83314158Y-84971575D01*
X83128597Y-85101505D01*
X82961505Y-85268597D01*
X82825965Y-85462169D01*
X82825964Y-85462171D01*
X82726098Y-85676335D01*
X82726094Y-85676344D01*
X82664938Y-85904586D01*
X82664936Y-85904596D01*
X82644341Y-86139999D01*
X82644341Y-86140000D01*
X82664936Y-86375403D01*
X82664938Y-86375413D01*
X82726094Y-86603655D01*
X82726096Y-86603659D01*
X82726097Y-86603663D01*
X82798839Y-86759658D01*
X82825965Y-86817830D01*
X82825967Y-86817834D01*
X82961501Y-87011395D01*
X82961506Y-87011402D01*
X83128597Y-87178493D01*
X83128603Y-87178498D01*
X83314158Y-87308425D01*
X83357783Y-87363002D01*
X83364977Y-87432500D01*
X83333454Y-87494855D01*
X83314158Y-87511575D01*
X83128597Y-87641505D01*
X82961505Y-87808597D01*
X82825965Y-88002169D01*
X82825964Y-88002171D01*
X82726098Y-88216335D01*
X82726094Y-88216344D01*
X82664938Y-88444586D01*
X82664936Y-88444596D01*
X82644341Y-88679999D01*
X82644341Y-88680000D01*
X82664936Y-88915403D01*
X82664938Y-88915413D01*
X82726094Y-89143655D01*
X82726096Y-89143659D01*
X82726097Y-89143663D01*
X82786742Y-89273716D01*
X82825965Y-89357830D01*
X82825967Y-89357834D01*
X82961501Y-89551395D01*
X82961506Y-89551402D01*
X83128597Y-89718493D01*
X83128603Y-89718498D01*
X83314158Y-89848425D01*
X83357783Y-89903002D01*
X83364977Y-89972500D01*
X83333454Y-90034855D01*
X83314158Y-90051575D01*
X83128597Y-90181505D01*
X82961505Y-90348597D01*
X82825965Y-90542169D01*
X82825964Y-90542171D01*
X82726098Y-90756335D01*
X82726094Y-90756344D01*
X82664938Y-90984586D01*
X82664936Y-90984596D01*
X82644341Y-91219999D01*
X82644341Y-91220000D01*
X82664936Y-91455403D01*
X82664938Y-91455413D01*
X82726094Y-91683655D01*
X82726096Y-91683659D01*
X82726097Y-91683663D01*
X82789906Y-91820501D01*
X82825965Y-91897830D01*
X82825967Y-91897834D01*
X82961501Y-92091395D01*
X82961506Y-92091402D01*
X83128597Y-92258493D01*
X83128603Y-92258498D01*
X83314158Y-92388425D01*
X83357783Y-92443002D01*
X83364977Y-92512500D01*
X83333454Y-92574855D01*
X83314158Y-92591575D01*
X83128597Y-92721505D01*
X82961505Y-92888597D01*
X82825965Y-93082169D01*
X82825964Y-93082171D01*
X82726098Y-93296335D01*
X82726094Y-93296344D01*
X82664938Y-93524586D01*
X82664936Y-93524596D01*
X82644341Y-93759999D01*
X82644341Y-93760000D01*
X82664936Y-93995403D01*
X82664938Y-93995413D01*
X82726094Y-94223655D01*
X82726096Y-94223659D01*
X82726097Y-94223663D01*
X82808091Y-94399500D01*
X82825965Y-94437830D01*
X82825967Y-94437834D01*
X82961501Y-94631395D01*
X82961506Y-94631402D01*
X83128597Y-94798493D01*
X83128603Y-94798498D01*
X83314158Y-94928425D01*
X83357783Y-94983002D01*
X83364977Y-95052500D01*
X83333454Y-95114855D01*
X83314158Y-95131575D01*
X83128597Y-95261505D01*
X82961505Y-95428597D01*
X82825965Y-95622169D01*
X82825964Y-95622171D01*
X82726098Y-95836335D01*
X82726094Y-95836344D01*
X82664938Y-96064586D01*
X82664936Y-96064596D01*
X82644341Y-96299999D01*
X82644341Y-96300000D01*
X82664936Y-96535403D01*
X82664938Y-96535413D01*
X82726094Y-96763655D01*
X82726096Y-96763659D01*
X82726097Y-96763663D01*
X82793055Y-96907254D01*
X82825965Y-96977830D01*
X82825967Y-96977834D01*
X82961501Y-97171395D01*
X82961506Y-97171402D01*
X83128597Y-97338493D01*
X83128603Y-97338498D01*
X83314158Y-97468425D01*
X83357783Y-97523002D01*
X83364977Y-97592500D01*
X83333454Y-97654855D01*
X83314158Y-97671575D01*
X83128597Y-97801505D01*
X82961505Y-97968597D01*
X82825965Y-98162169D01*
X82825964Y-98162171D01*
X82726098Y-98376335D01*
X82726094Y-98376344D01*
X82664938Y-98604586D01*
X82664936Y-98604596D01*
X82644341Y-98839999D01*
X82644341Y-98840000D01*
X82664936Y-99075403D01*
X82664938Y-99075413D01*
X82726094Y-99303655D01*
X82726096Y-99303659D01*
X82726097Y-99303663D01*
X82817672Y-99500045D01*
X82825965Y-99517830D01*
X82825967Y-99517834D01*
X82961501Y-99711395D01*
X82961506Y-99711402D01*
X83128597Y-99878493D01*
X83128603Y-99878498D01*
X83314158Y-100008425D01*
X83357783Y-100063002D01*
X83364977Y-100132500D01*
X83333454Y-100194855D01*
X83314158Y-100211575D01*
X83128597Y-100341505D01*
X82961505Y-100508597D01*
X82825965Y-100702169D01*
X82825964Y-100702171D01*
X82726098Y-100916335D01*
X82726094Y-100916344D01*
X82664938Y-101144586D01*
X82664936Y-101144596D01*
X82644341Y-101379999D01*
X82644341Y-101380000D01*
X82664936Y-101615403D01*
X82664938Y-101615413D01*
X82726094Y-101843655D01*
X82726096Y-101843659D01*
X82726097Y-101843663D01*
X82823293Y-102052099D01*
X82825965Y-102057830D01*
X82825967Y-102057834D01*
X82961501Y-102251395D01*
X82961506Y-102251402D01*
X83128597Y-102418493D01*
X83128603Y-102418498D01*
X83314158Y-102548425D01*
X83357783Y-102603002D01*
X83364977Y-102672500D01*
X83333454Y-102734855D01*
X83314158Y-102751575D01*
X83128597Y-102881505D01*
X82961505Y-103048597D01*
X82825965Y-103242169D01*
X82825964Y-103242171D01*
X82726098Y-103456335D01*
X82726094Y-103456344D01*
X82664938Y-103684586D01*
X82664936Y-103684596D01*
X82644341Y-103919999D01*
X82644341Y-103920000D01*
X82664936Y-104155403D01*
X82664938Y-104155413D01*
X82726094Y-104383655D01*
X82726096Y-104383659D01*
X82726097Y-104383663D01*
X82798839Y-104539658D01*
X82825965Y-104597830D01*
X82825967Y-104597834D01*
X82961501Y-104791395D01*
X82961506Y-104791402D01*
X83128597Y-104958493D01*
X83128603Y-104958498D01*
X83314158Y-105088425D01*
X83357783Y-105143002D01*
X83364977Y-105212500D01*
X83333454Y-105274855D01*
X83314158Y-105291575D01*
X83128597Y-105421505D01*
X82961505Y-105588597D01*
X82825965Y-105782169D01*
X82825964Y-105782171D01*
X82756720Y-105930666D01*
X82726624Y-105995208D01*
X82726098Y-105996335D01*
X82726094Y-105996344D01*
X82664938Y-106224586D01*
X82664936Y-106224596D01*
X82644341Y-106459999D01*
X82644341Y-106460000D01*
X82664936Y-106695403D01*
X82664938Y-106695413D01*
X82726094Y-106923655D01*
X82726096Y-106923659D01*
X82726097Y-106923663D01*
X82754341Y-106984232D01*
X82825965Y-107137830D01*
X82825967Y-107137834D01*
X82891404Y-107231287D01*
X82959612Y-107328698D01*
X82961501Y-107331395D01*
X82961506Y-107331402D01*
X83128597Y-107498493D01*
X83128603Y-107498498D01*
X83314158Y-107628425D01*
X83357783Y-107683002D01*
X83364977Y-107752500D01*
X83333454Y-107814855D01*
X83314158Y-107831575D01*
X83128597Y-107961505D01*
X82961505Y-108128597D01*
X82825965Y-108322169D01*
X82825964Y-108322171D01*
X82726098Y-108536335D01*
X82726094Y-108536344D01*
X82664938Y-108764586D01*
X82664936Y-108764596D01*
X82644341Y-108999999D01*
X82644341Y-109000000D01*
X82664936Y-109235403D01*
X82664938Y-109235413D01*
X82726094Y-109463655D01*
X82726096Y-109463659D01*
X82726097Y-109463663D01*
X82825965Y-109677830D01*
X82825967Y-109677834D01*
X82934281Y-109832521D01*
X82961505Y-109871401D01*
X83128599Y-110038495D01*
X83225384Y-110106265D01*
X83322165Y-110174032D01*
X83322167Y-110174033D01*
X83322170Y-110174035D01*
X83536337Y-110273903D01*
X83536343Y-110273904D01*
X83536344Y-110273905D01*
X83558886Y-110279945D01*
X83764592Y-110335063D01*
X83952918Y-110351539D01*
X83999999Y-110355659D01*
X84000000Y-110355659D01*
X84000001Y-110355659D01*
X84039234Y-110352226D01*
X84235408Y-110335063D01*
X84463663Y-110273903D01*
X84677830Y-110174035D01*
X84871401Y-110038495D01*
X85038495Y-109871401D01*
X85174035Y-109677830D01*
X85273903Y-109463663D01*
X85335063Y-109235408D01*
X85355659Y-109000000D01*
X85335063Y-108764592D01*
X85273903Y-108536337D01*
X85174035Y-108322171D01*
X85170912Y-108317710D01*
X85038494Y-108128597D01*
X84871402Y-107961506D01*
X84871396Y-107961501D01*
X84685842Y-107831575D01*
X84642217Y-107776998D01*
X84635023Y-107707500D01*
X84666546Y-107645145D01*
X84685842Y-107628425D01*
X84813968Y-107538710D01*
X84871401Y-107498495D01*
X85038495Y-107331401D01*
X85174035Y-107137830D01*
X85273903Y-106923663D01*
X85335063Y-106695408D01*
X85355659Y-106460000D01*
X85335063Y-106224592D01*
X85288626Y-106051285D01*
X85273905Y-105996344D01*
X85273904Y-105996343D01*
X85273903Y-105996337D01*
X85174035Y-105782171D01*
X85167797Y-105773261D01*
X85038494Y-105588597D01*
X84871402Y-105421506D01*
X84871396Y-105421501D01*
X84685842Y-105291575D01*
X84642217Y-105236998D01*
X84635023Y-105167500D01*
X84666546Y-105105145D01*
X84685842Y-105088425D01*
X84748256Y-105044722D01*
X84871401Y-104958495D01*
X85038495Y-104791401D01*
X85174035Y-104597830D01*
X85176707Y-104592097D01*
X85222878Y-104539658D01*
X85289091Y-104520500D01*
X93619903Y-104520500D01*
X93686942Y-104540185D01*
X93707583Y-104556818D01*
X101631284Y-112480520D01*
X101631286Y-112480521D01*
X101631290Y-112480524D01*
X101768209Y-112559573D01*
X101768216Y-112559577D01*
X101920943Y-112600501D01*
X101920945Y-112600501D01*
X102086654Y-112600501D01*
X102086670Y-112600500D01*
X164913331Y-112600500D01*
X164913347Y-112600501D01*
X164920943Y-112600501D01*
X165079054Y-112600501D01*
X165079057Y-112600501D01*
X165231785Y-112559577D01*
X165281904Y-112530639D01*
X165368716Y-112480520D01*
X165480520Y-112368716D01*
X165480520Y-112368714D01*
X165490728Y-112358507D01*
X165490730Y-112358504D01*
X165849234Y-112000000D01*
X187894592Y-112000000D01*
X187914201Y-112286680D01*
X187914201Y-112286684D01*
X187914202Y-112286686D01*
X187931247Y-112368713D01*
X187972666Y-112568034D01*
X187972667Y-112568037D01*
X188068894Y-112838793D01*
X188068893Y-112838793D01*
X188201098Y-113093935D01*
X188366812Y-113328700D01*
X188451923Y-113419831D01*
X188562947Y-113538708D01*
X188785853Y-113720055D01*
X189031382Y-113869365D01*
X189218237Y-113950526D01*
X189294942Y-113983844D01*
X189571642Y-114061371D01*
X189821920Y-114095771D01*
X189856321Y-114100500D01*
X189856322Y-114100500D01*
X190143679Y-114100500D01*
X190174370Y-114096281D01*
X190428358Y-114061371D01*
X190705058Y-113983844D01*
X190818015Y-113934779D01*
X190968617Y-113869365D01*
X190968620Y-113869363D01*
X190968625Y-113869361D01*
X191214147Y-113720055D01*
X191437053Y-113538708D01*
X191633189Y-113328698D01*
X191798901Y-113093936D01*
X191931104Y-112838797D01*
X192027334Y-112568032D01*
X192085798Y-112286686D01*
X192105408Y-112000000D01*
X192085798Y-111713314D01*
X192027334Y-111431968D01*
X191931105Y-111161206D01*
X191931106Y-111161206D01*
X191798901Y-110906064D01*
X191633187Y-110671299D01*
X191554554Y-110587105D01*
X191437053Y-110461292D01*
X191214147Y-110279945D01*
X191214146Y-110279944D01*
X190968617Y-110130634D01*
X190705063Y-110016158D01*
X190705061Y-110016157D01*
X190705058Y-110016156D01*
X190575578Y-109979877D01*
X190428364Y-109938630D01*
X190428359Y-109938629D01*
X190428358Y-109938629D01*
X190286018Y-109919064D01*
X190143679Y-109899500D01*
X190143678Y-109899500D01*
X189856322Y-109899500D01*
X189856321Y-109899500D01*
X189571642Y-109938629D01*
X189571635Y-109938630D01*
X189363861Y-109996845D01*
X189294942Y-110016156D01*
X189294939Y-110016156D01*
X189294936Y-110016158D01*
X189294935Y-110016158D01*
X189031382Y-110130634D01*
X188785853Y-110279944D01*
X188562950Y-110461289D01*
X188366812Y-110671299D01*
X188201098Y-110906064D01*
X188068894Y-111161206D01*
X187972667Y-111431962D01*
X187972666Y-111431965D01*
X187914201Y-111713319D01*
X187894592Y-112000000D01*
X165849234Y-112000000D01*
X169457252Y-108391981D01*
X169518573Y-108358498D01*
X169588265Y-108363482D01*
X169601224Y-108369179D01*
X169615697Y-108376553D01*
X169615699Y-108376554D01*
X169615704Y-108376555D01*
X169615707Y-108376557D01*
X169817876Y-108442246D01*
X170027832Y-108475500D01*
X170027833Y-108475500D01*
X170240405Y-108475500D01*
X170240406Y-108475500D01*
X170450362Y-108442246D01*
X170652531Y-108376557D01*
X170841935Y-108280051D01*
X170863908Y-108264086D01*
X171013905Y-108155109D01*
X171013907Y-108155106D01*
X171013911Y-108155104D01*
X171164223Y-108004792D01*
X171164225Y-108004788D01*
X171164228Y-108004786D01*
X171289167Y-107832820D01*
X171289166Y-107832820D01*
X171289170Y-107832816D01*
X171385676Y-107643412D01*
X171451365Y-107441243D01*
X171484619Y-107231287D01*
X171484619Y-106768713D01*
X171451365Y-106558757D01*
X171385676Y-106356588D01*
X171318620Y-106224983D01*
X173783619Y-106224983D01*
X173783619Y-107775001D01*
X173783620Y-107775018D01*
X173794119Y-107877796D01*
X173794120Y-107877799D01*
X173849304Y-108044331D01*
X173849306Y-108044336D01*
X173859812Y-108061369D01*
X173941407Y-108193656D01*
X174065463Y-108317712D01*
X174214785Y-108409814D01*
X174381322Y-108464999D01*
X174484110Y-108475500D01*
X175784127Y-108475499D01*
X175886916Y-108464999D01*
X176053453Y-108409814D01*
X176202775Y-108317712D01*
X176326831Y-108193656D01*
X176418933Y-108044334D01*
X176474118Y-107877797D01*
X176484619Y-107775009D01*
X176484619Y-107724500D01*
X176504304Y-107657461D01*
X176557108Y-107611706D01*
X176608619Y-107600500D01*
X179913331Y-107600500D01*
X179913347Y-107600501D01*
X179920943Y-107600501D01*
X180079054Y-107600501D01*
X180079057Y-107600501D01*
X180231785Y-107559577D01*
X180281904Y-107530639D01*
X180368716Y-107480520D01*
X180480520Y-107368716D01*
X180480520Y-107368714D01*
X180490728Y-107358507D01*
X180490729Y-107358504D01*
X183632416Y-104216819D01*
X183693739Y-104183334D01*
X183720097Y-104180500D01*
X185575040Y-104180500D01*
X185642079Y-104200185D01*
X185685525Y-104248205D01*
X185757283Y-104389038D01*
X185891714Y-104574066D01*
X186053434Y-104735786D01*
X186238462Y-104870217D01*
X186442242Y-104974048D01*
X186442244Y-104974049D01*
X186659751Y-105044721D01*
X186659752Y-105044721D01*
X186659755Y-105044722D01*
X186885646Y-105080500D01*
X186885647Y-105080500D01*
X187114353Y-105080500D01*
X187114354Y-105080500D01*
X187340245Y-105044722D01*
X187340248Y-105044721D01*
X187340249Y-105044721D01*
X187557755Y-104974049D01*
X187557755Y-104974048D01*
X187557758Y-104974048D01*
X187761538Y-104870217D01*
X187946566Y-104735786D01*
X188108286Y-104574066D01*
X188242717Y-104389038D01*
X188346548Y-104185258D01*
X188356247Y-104155408D01*
X188417221Y-103967749D01*
X188417221Y-103967748D01*
X188417222Y-103967745D01*
X188453000Y-103741854D01*
X188453000Y-103418146D01*
X188417222Y-103192255D01*
X188417221Y-103192251D01*
X188417221Y-103192250D01*
X188346549Y-102974744D01*
X188299039Y-102881501D01*
X188242717Y-102770962D01*
X188108286Y-102585934D01*
X187946566Y-102424214D01*
X187761538Y-102289783D01*
X187668205Y-102242227D01*
X187617409Y-102194252D01*
X187600500Y-102131742D01*
X187600500Y-99731692D01*
X187620185Y-99664653D01*
X187653374Y-99630119D01*
X187839139Y-99500047D01*
X188000047Y-99339139D01*
X188130568Y-99152734D01*
X188226739Y-98946496D01*
X188285635Y-98726692D01*
X188305468Y-98500000D01*
X188285635Y-98273308D01*
X188226739Y-98053504D01*
X188130568Y-97847266D01*
X188000047Y-97660861D01*
X188000045Y-97660858D01*
X187839141Y-97499954D01*
X187652734Y-97369432D01*
X187652732Y-97369431D01*
X187446497Y-97273261D01*
X187446488Y-97273258D01*
X187226697Y-97214366D01*
X187226693Y-97214365D01*
X187226692Y-97214365D01*
X187226691Y-97214364D01*
X187226686Y-97214364D01*
X187000002Y-97194532D01*
X186999998Y-97194532D01*
X186773313Y-97214364D01*
X186773302Y-97214366D01*
X186553511Y-97273258D01*
X186553502Y-97273261D01*
X186347267Y-97369431D01*
X186347265Y-97369432D01*
X186160858Y-97499954D01*
X185999954Y-97660858D01*
X185869432Y-97847265D01*
X185869431Y-97847267D01*
X185773261Y-98053502D01*
X185773258Y-98053511D01*
X185714366Y-98273302D01*
X185714364Y-98273313D01*
X185694532Y-98499998D01*
X185694532Y-98500001D01*
X185714364Y-98726686D01*
X185714366Y-98726697D01*
X185773258Y-98946488D01*
X185773261Y-98946497D01*
X185869431Y-99152732D01*
X185869432Y-99152734D01*
X185999954Y-99339141D01*
X186160858Y-99500045D01*
X186160861Y-99500047D01*
X186346624Y-99630118D01*
X186390248Y-99684693D01*
X186399500Y-99731692D01*
X186399500Y-102131742D01*
X186379815Y-102198781D01*
X186331795Y-102242227D01*
X186238461Y-102289783D01*
X186172550Y-102337671D01*
X186053434Y-102424214D01*
X186053432Y-102424216D01*
X186053431Y-102424216D01*
X185891716Y-102585931D01*
X185891716Y-102585932D01*
X185891714Y-102585934D01*
X185854744Y-102636819D01*
X185757283Y-102770961D01*
X185685525Y-102911795D01*
X185637550Y-102962591D01*
X185575040Y-102979500D01*
X183340940Y-102979500D01*
X183300019Y-102990464D01*
X183300019Y-102990465D01*
X183262751Y-103000451D01*
X183188214Y-103020423D01*
X183188209Y-103020426D01*
X183051290Y-103099475D01*
X183051282Y-103099481D01*
X182965390Y-103185374D01*
X182939480Y-103211284D01*
X182939478Y-103211286D01*
X181359363Y-104791402D01*
X179787584Y-106363181D01*
X179726261Y-106396666D01*
X179699903Y-106399500D01*
X176608618Y-106399500D01*
X176541579Y-106379815D01*
X176495824Y-106327011D01*
X176484618Y-106275500D01*
X176484618Y-106224998D01*
X176484617Y-106224981D01*
X176474118Y-106122203D01*
X176474117Y-106122200D01*
X176465833Y-106097200D01*
X176418933Y-105955666D01*
X176326831Y-105806344D01*
X176202775Y-105682288D01*
X176073928Y-105602815D01*
X176053455Y-105590187D01*
X176053450Y-105590185D01*
X176048658Y-105588597D01*
X175886916Y-105535001D01*
X175886914Y-105535000D01*
X175784129Y-105524500D01*
X174484117Y-105524500D01*
X174484100Y-105524501D01*
X174381322Y-105535000D01*
X174381319Y-105535001D01*
X174214787Y-105590185D01*
X174214782Y-105590187D01*
X174065461Y-105682289D01*
X173941408Y-105806342D01*
X173849306Y-105955663D01*
X173849304Y-105955668D01*
X173834630Y-105999953D01*
X173794120Y-106122203D01*
X173794120Y-106122204D01*
X173794119Y-106122204D01*
X173783619Y-106224983D01*
X171318620Y-106224983D01*
X171289170Y-106167184D01*
X171289168Y-106167181D01*
X171289167Y-106167179D01*
X171164228Y-105995213D01*
X171013905Y-105844890D01*
X170841939Y-105719951D01*
X170652533Y-105623444D01*
X170652532Y-105623443D01*
X170652531Y-105623443D01*
X170450362Y-105557754D01*
X170450360Y-105557753D01*
X170450359Y-105557753D01*
X170289076Y-105532208D01*
X170240406Y-105524500D01*
X170027832Y-105524500D01*
X169979161Y-105532208D01*
X169817879Y-105557753D01*
X169615704Y-105623444D01*
X169426298Y-105719951D01*
X169254332Y-105844890D01*
X169104013Y-105995209D01*
X169104009Y-105995214D01*
X168984437Y-106159793D01*
X168929108Y-106202459D01*
X168859494Y-106208438D01*
X168797699Y-106175833D01*
X168783801Y-106159793D01*
X168664228Y-105995214D01*
X168664224Y-105995209D01*
X168513905Y-105844890D01*
X168341939Y-105719951D01*
X168152533Y-105623444D01*
X168152532Y-105623443D01*
X168152531Y-105623443D01*
X167950362Y-105557754D01*
X167950360Y-105557753D01*
X167950359Y-105557753D01*
X167789076Y-105532208D01*
X167740406Y-105524500D01*
X167527832Y-105524500D01*
X167479161Y-105532208D01*
X167317879Y-105557753D01*
X167115704Y-105623444D01*
X166926298Y-105719951D01*
X166754332Y-105844890D01*
X166604009Y-105995213D01*
X166479070Y-106167179D01*
X166382563Y-106356585D01*
X166316872Y-106558760D01*
X166292781Y-106710867D01*
X166283619Y-106768713D01*
X166283619Y-107231287D01*
X166299048Y-107328700D01*
X166310649Y-107401946D01*
X166301694Y-107471239D01*
X166275857Y-107509025D01*
X163421703Y-110363181D01*
X163360380Y-110396666D01*
X163334022Y-110399500D01*
X103300097Y-110399500D01*
X103233058Y-110379815D01*
X103212416Y-110363181D01*
X93867590Y-101018355D01*
X93867588Y-101018352D01*
X93748717Y-100899481D01*
X93748716Y-100899480D01*
X93661904Y-100849360D01*
X93661904Y-100849359D01*
X93661900Y-100849358D01*
X93611785Y-100820423D01*
X93459057Y-100779499D01*
X93300943Y-100779499D01*
X93293347Y-100779499D01*
X93293331Y-100779500D01*
X85289091Y-100779500D01*
X85222052Y-100759815D01*
X85176711Y-100707909D01*
X85174037Y-100702175D01*
X85174034Y-100702170D01*
X85174033Y-100702169D01*
X85038495Y-100508599D01*
X85038494Y-100508597D01*
X84871402Y-100341506D01*
X84871396Y-100341501D01*
X84685842Y-100211575D01*
X84642217Y-100156998D01*
X84635023Y-100087500D01*
X84666546Y-100025145D01*
X84685842Y-100008425D01*
X84708026Y-99992891D01*
X84871401Y-99878495D01*
X85038495Y-99711401D01*
X85174035Y-99517830D01*
X85273903Y-99303663D01*
X85335063Y-99075408D01*
X85355659Y-98840000D01*
X85345624Y-98725306D01*
X85359390Y-98656808D01*
X85408005Y-98606625D01*
X85469152Y-98590500D01*
X116689903Y-98590500D01*
X116756942Y-98610185D01*
X116777584Y-98626819D01*
X119515139Y-101364374D01*
X119515149Y-101364385D01*
X119519479Y-101368715D01*
X119519480Y-101368716D01*
X119631284Y-101480520D01*
X119698767Y-101519481D01*
X119768215Y-101559577D01*
X119920943Y-101600501D01*
X119920946Y-101600501D01*
X120086653Y-101600501D01*
X120086669Y-101600500D01*
X135250902Y-101600500D01*
X135317941Y-101620185D01*
X135363696Y-101672989D01*
X135373640Y-101742147D01*
X135344615Y-101805703D01*
X135338583Y-101812181D01*
X130787584Y-106363181D01*
X130726261Y-106396666D01*
X130699903Y-106399500D01*
X114974499Y-106399500D01*
X114907460Y-106379815D01*
X114861705Y-106327011D01*
X114850499Y-106275500D01*
X114850499Y-106199998D01*
X114850498Y-106199981D01*
X114839999Y-106097203D01*
X114839998Y-106097200D01*
X114807789Y-106000000D01*
X114784814Y-105930666D01*
X114692712Y-105781344D01*
X114568656Y-105657288D01*
X114457293Y-105588599D01*
X114419336Y-105565187D01*
X114419331Y-105565185D01*
X114417862Y-105564698D01*
X114252797Y-105510001D01*
X114252795Y-105510000D01*
X114150010Y-105499500D01*
X112849998Y-105499500D01*
X112849981Y-105499501D01*
X112747203Y-105510000D01*
X112747200Y-105510001D01*
X112580668Y-105565185D01*
X112580663Y-105565187D01*
X112431342Y-105657289D01*
X112307289Y-105781342D01*
X112211821Y-105936121D01*
X112159873Y-105982845D01*
X112090910Y-105994068D01*
X112026828Y-105966224D01*
X112018601Y-105958705D01*
X111879786Y-105819890D01*
X111707820Y-105694951D01*
X111518414Y-105598444D01*
X111518413Y-105598443D01*
X111518412Y-105598443D01*
X111316243Y-105532754D01*
X111316241Y-105532753D01*
X111316240Y-105532753D01*
X111154957Y-105507208D01*
X111106287Y-105499500D01*
X110893713Y-105499500D01*
X110845042Y-105507208D01*
X110683760Y-105532753D01*
X110481585Y-105598444D01*
X110292179Y-105694951D01*
X110120213Y-105819890D01*
X109969890Y-105970213D01*
X109844951Y-106142180D01*
X109748337Y-106331795D01*
X109700362Y-106382591D01*
X109637852Y-106399500D01*
X104231692Y-106399500D01*
X104164653Y-106379815D01*
X104130119Y-106346625D01*
X104000047Y-106160861D01*
X104000045Y-106160858D01*
X103839141Y-105999954D01*
X103652734Y-105869432D01*
X103652732Y-105869431D01*
X103446497Y-105773261D01*
X103446488Y-105773258D01*
X103226697Y-105714366D01*
X103226693Y-105714365D01*
X103226692Y-105714365D01*
X103226691Y-105714364D01*
X103226686Y-105714364D01*
X103000002Y-105694532D01*
X102999998Y-105694532D01*
X102773313Y-105714364D01*
X102773302Y-105714366D01*
X102553511Y-105773258D01*
X102553502Y-105773261D01*
X102347267Y-105869431D01*
X102347265Y-105869432D01*
X102160858Y-105999954D01*
X101999954Y-106160858D01*
X101869432Y-106347265D01*
X101869431Y-106347267D01*
X101773261Y-106553502D01*
X101773258Y-106553511D01*
X101714366Y-106773302D01*
X101714364Y-106773313D01*
X101694532Y-106999998D01*
X101694532Y-107000001D01*
X101714364Y-107226686D01*
X101714366Y-107226697D01*
X101773258Y-107446488D01*
X101773261Y-107446497D01*
X101869431Y-107652732D01*
X101869432Y-107652734D01*
X101999954Y-107839141D01*
X102160858Y-108000045D01*
X102160861Y-108000047D01*
X102347266Y-108130568D01*
X102553504Y-108226739D01*
X102773308Y-108285635D01*
X102935230Y-108299801D01*
X102999998Y-108305468D01*
X103000000Y-108305468D01*
X103000002Y-108305468D01*
X103056673Y-108300509D01*
X103226692Y-108285635D01*
X103446496Y-108226739D01*
X103652734Y-108130568D01*
X103839139Y-108000047D01*
X104000047Y-107839139D01*
X104130118Y-107653375D01*
X104184693Y-107609752D01*
X104231692Y-107600500D01*
X109637852Y-107600500D01*
X109704891Y-107620185D01*
X109748337Y-107668205D01*
X109791288Y-107752500D01*
X109823059Y-107814855D01*
X109844951Y-107857819D01*
X109969890Y-108029786D01*
X110120213Y-108180109D01*
X110292179Y-108305048D01*
X110292181Y-108305049D01*
X110292184Y-108305051D01*
X110481588Y-108401557D01*
X110683757Y-108467246D01*
X110893713Y-108500500D01*
X110893714Y-108500500D01*
X111106286Y-108500500D01*
X111106287Y-108500500D01*
X111316243Y-108467246D01*
X111518412Y-108401557D01*
X111707816Y-108305051D01*
X111879792Y-108180104D01*
X112018604Y-108041291D01*
X112079923Y-108007809D01*
X112149615Y-108012793D01*
X112205549Y-108054664D01*
X112211821Y-108063878D01*
X112215185Y-108069333D01*
X112215186Y-108069334D01*
X112307288Y-108218656D01*
X112431344Y-108342712D01*
X112580666Y-108434814D01*
X112747203Y-108489999D01*
X112849991Y-108500500D01*
X114150008Y-108500499D01*
X114252797Y-108489999D01*
X114419334Y-108434814D01*
X114568656Y-108342712D01*
X114692712Y-108218656D01*
X114784814Y-108069334D01*
X114839999Y-107902797D01*
X114850500Y-107800009D01*
X114850500Y-107724500D01*
X114870185Y-107657461D01*
X114922989Y-107611706D01*
X114974500Y-107600500D01*
X130913331Y-107600500D01*
X130913347Y-107600501D01*
X130920943Y-107600501D01*
X131079054Y-107600501D01*
X131079057Y-107600501D01*
X131231785Y-107559577D01*
X131281904Y-107530639D01*
X131368716Y-107480520D01*
X131480520Y-107368716D01*
X131480520Y-107368714D01*
X131490728Y-107358507D01*
X131490729Y-107358504D01*
X132080520Y-106768713D01*
X138283619Y-106768713D01*
X138283619Y-107231287D01*
X138316873Y-107441243D01*
X138379515Y-107634035D01*
X138382563Y-107643414D01*
X138479070Y-107832820D01*
X138604009Y-108004786D01*
X138754332Y-108155109D01*
X138926298Y-108280048D01*
X138926300Y-108280049D01*
X138926303Y-108280051D01*
X139115707Y-108376557D01*
X139317876Y-108442246D01*
X139527832Y-108475500D01*
X139527833Y-108475500D01*
X139740405Y-108475500D01*
X139740406Y-108475500D01*
X139950362Y-108442246D01*
X140152531Y-108376557D01*
X140341935Y-108280051D01*
X140363908Y-108264086D01*
X140513905Y-108155109D01*
X140513907Y-108155106D01*
X140513911Y-108155104D01*
X140664223Y-108004792D01*
X140664225Y-108004788D01*
X140664228Y-108004786D01*
X140789167Y-107832820D01*
X140789166Y-107832820D01*
X140789170Y-107832816D01*
X140885676Y-107643412D01*
X140951365Y-107441243D01*
X140984619Y-107231287D01*
X140984619Y-106768713D01*
X140951365Y-106558757D01*
X140885676Y-106356588D01*
X140818620Y-106224983D01*
X143283619Y-106224983D01*
X143283619Y-107775001D01*
X143283620Y-107775018D01*
X143294119Y-107877796D01*
X143294120Y-107877799D01*
X143349304Y-108044331D01*
X143349306Y-108044336D01*
X143359812Y-108061369D01*
X143441407Y-108193656D01*
X143565463Y-108317712D01*
X143714785Y-108409814D01*
X143881322Y-108464999D01*
X143984110Y-108475500D01*
X145284127Y-108475499D01*
X145386916Y-108464999D01*
X145553453Y-108409814D01*
X145702775Y-108317712D01*
X145826831Y-108193656D01*
X145918933Y-108044334D01*
X145974118Y-107877797D01*
X145984619Y-107775009D01*
X145984618Y-106224992D01*
X145974118Y-106122203D01*
X145933624Y-106000000D01*
X153494592Y-106000000D01*
X153514201Y-106286680D01*
X153572666Y-106568034D01*
X153572667Y-106568037D01*
X153668894Y-106838793D01*
X153668893Y-106838793D01*
X153801098Y-107093935D01*
X153966812Y-107328700D01*
X154004182Y-107368713D01*
X154162947Y-107538708D01*
X154385853Y-107720055D01*
X154612390Y-107857816D01*
X154631382Y-107869365D01*
X154818237Y-107950526D01*
X154894942Y-107983844D01*
X155171642Y-108061371D01*
X155421920Y-108095771D01*
X155456321Y-108100500D01*
X155456322Y-108100500D01*
X155743679Y-108100500D01*
X155774370Y-108096281D01*
X156028358Y-108061371D01*
X156305058Y-107983844D01*
X156491643Y-107902799D01*
X156568617Y-107869365D01*
X156568620Y-107869363D01*
X156568625Y-107869361D01*
X156814147Y-107720055D01*
X157037053Y-107538708D01*
X157233189Y-107328698D01*
X157398901Y-107093936D01*
X157531104Y-106838797D01*
X157627334Y-106568032D01*
X157685798Y-106286686D01*
X157705408Y-106000000D01*
X157685798Y-105713314D01*
X157627334Y-105431968D01*
X157623615Y-105421505D01*
X157531105Y-105161206D01*
X157531106Y-105161206D01*
X157398901Y-104906064D01*
X157233187Y-104671299D01*
X157154554Y-104587105D01*
X157037053Y-104461292D01*
X156814147Y-104279945D01*
X156814146Y-104279944D01*
X156568617Y-104130634D01*
X156305063Y-104016158D01*
X156305061Y-104016157D01*
X156305058Y-104016156D01*
X156132290Y-103967749D01*
X156028364Y-103938630D01*
X156028359Y-103938629D01*
X156028358Y-103938629D01*
X155886018Y-103919064D01*
X155743679Y-103899500D01*
X155743678Y-103899500D01*
X155456322Y-103899500D01*
X155456321Y-103899500D01*
X155171642Y-103938629D01*
X155171635Y-103938630D01*
X154963861Y-103996845D01*
X154894942Y-104016156D01*
X154894939Y-104016156D01*
X154894936Y-104016158D01*
X154894935Y-104016158D01*
X154631382Y-104130634D01*
X154385853Y-104279944D01*
X154162950Y-104461289D01*
X153966812Y-104671299D01*
X153801098Y-104906064D01*
X153668894Y-105161206D01*
X153572667Y-105431962D01*
X153572666Y-105431965D01*
X153514201Y-105713319D01*
X153494592Y-106000000D01*
X145933624Y-106000000D01*
X145918933Y-105955666D01*
X145826831Y-105806344D01*
X145702775Y-105682288D01*
X145573928Y-105602815D01*
X145553455Y-105590187D01*
X145553450Y-105590185D01*
X145548658Y-105588597D01*
X145386916Y-105535001D01*
X145386914Y-105535000D01*
X145284129Y-105524500D01*
X143984117Y-105524500D01*
X143984100Y-105524501D01*
X143881322Y-105535000D01*
X143881319Y-105535001D01*
X143714787Y-105590185D01*
X143714782Y-105590187D01*
X143565461Y-105682289D01*
X143441408Y-105806342D01*
X143349306Y-105955663D01*
X143349304Y-105955668D01*
X143334630Y-105999953D01*
X143294120Y-106122203D01*
X143294120Y-106122204D01*
X143294119Y-106122204D01*
X143283619Y-106224983D01*
X140818620Y-106224983D01*
X140789170Y-106167184D01*
X140789168Y-106167181D01*
X140789167Y-106167179D01*
X140664228Y-105995213D01*
X140513905Y-105844890D01*
X140341939Y-105719951D01*
X140152533Y-105623444D01*
X140152532Y-105623443D01*
X140152531Y-105623443D01*
X139950362Y-105557754D01*
X139950360Y-105557753D01*
X139950359Y-105557753D01*
X139789076Y-105532208D01*
X139740406Y-105524500D01*
X139527832Y-105524500D01*
X139479161Y-105532208D01*
X139317879Y-105557753D01*
X139115704Y-105623444D01*
X138926298Y-105719951D01*
X138754332Y-105844890D01*
X138604009Y-105995213D01*
X138479070Y-106167179D01*
X138382563Y-106356585D01*
X138316872Y-106558760D01*
X138292781Y-106710867D01*
X138283619Y-106768713D01*
X132080520Y-106768713D01*
X136212416Y-102636819D01*
X136273739Y-102603334D01*
X136300097Y-102600500D01*
X179913331Y-102600500D01*
X179913347Y-102600501D01*
X179920943Y-102600501D01*
X180079054Y-102600501D01*
X180079057Y-102600501D01*
X180231785Y-102559577D01*
X180283879Y-102529500D01*
X180368716Y-102480520D01*
X180480520Y-102368716D01*
X180480520Y-102368714D01*
X180490724Y-102358511D01*
X180490727Y-102358506D01*
X183480520Y-99368716D01*
X183559577Y-99231784D01*
X183600501Y-99079057D01*
X183600501Y-98920942D01*
X183600501Y-98913347D01*
X183600500Y-98913329D01*
X183600500Y-94300097D01*
X183620185Y-94233058D01*
X183636819Y-94212416D01*
X184212417Y-93636819D01*
X184273740Y-93603334D01*
X184300098Y-93600500D01*
X201913331Y-93600500D01*
X201913347Y-93600501D01*
X201920943Y-93600501D01*
X202079054Y-93600501D01*
X202079057Y-93600501D01*
X202231785Y-93559577D01*
X202292380Y-93524592D01*
X202368716Y-93480520D01*
X202480520Y-93368716D01*
X202480520Y-93368714D01*
X202490724Y-93358511D01*
X202490728Y-93358506D01*
X204932625Y-90916609D01*
X204932630Y-90916605D01*
X204942833Y-90906401D01*
X204942835Y-90906401D01*
X205054639Y-90794597D01*
X205132104Y-90660423D01*
X205133696Y-90657666D01*
X205174620Y-90504938D01*
X205174620Y-90346824D01*
X205174620Y-90339229D01*
X205174619Y-90339211D01*
X205174619Y-88382534D01*
X205194304Y-88315495D01*
X205247108Y-88269740D01*
X205286016Y-88259176D01*
X205326916Y-88254999D01*
X205493453Y-88199814D01*
X205642775Y-88107712D01*
X205766831Y-87983656D01*
X205858933Y-87834334D01*
X205914118Y-87667797D01*
X205924619Y-87565009D01*
X205924618Y-85964992D01*
X205918712Y-85907180D01*
X205914118Y-85862203D01*
X205914117Y-85862200D01*
X205883990Y-85771284D01*
X205858933Y-85695666D01*
X205766831Y-85546344D01*
X205642775Y-85422288D01*
X205493453Y-85330186D01*
X205326916Y-85275001D01*
X205326914Y-85275000D01*
X205224135Y-85264500D01*
X203974216Y-85264500D01*
X203907177Y-85244815D01*
X203886535Y-85228181D01*
X203391709Y-84733355D01*
X203391707Y-84733352D01*
X203272836Y-84614481D01*
X203272835Y-84614480D01*
X203186023Y-84564360D01*
X203186023Y-84564359D01*
X203186019Y-84564358D01*
X203135904Y-84535423D01*
X202983176Y-84494499D01*
X202825062Y-84494499D01*
X202817466Y-84494499D01*
X202817450Y-84494500D01*
X173520940Y-84494500D01*
X173480019Y-84505464D01*
X173480019Y-84505465D01*
X173442751Y-84515451D01*
X173368214Y-84535423D01*
X173368209Y-84535426D01*
X173231290Y-84614475D01*
X173231282Y-84614481D01*
X173119478Y-84726286D01*
X172617582Y-85228181D01*
X172556259Y-85261666D01*
X172529901Y-85264500D01*
X172174117Y-85264500D01*
X172174099Y-85264501D01*
X172071322Y-85275000D01*
X172071319Y-85275001D01*
X171904787Y-85330185D01*
X171904782Y-85330187D01*
X171755461Y-85422289D01*
X171631408Y-85546342D01*
X171535940Y-85701121D01*
X171483992Y-85747845D01*
X171415029Y-85759068D01*
X171350947Y-85731224D01*
X171342720Y-85723705D01*
X171203905Y-85584890D01*
X171031939Y-85459951D01*
X170842533Y-85363444D01*
X170842532Y-85363443D01*
X170842531Y-85363443D01*
X170640362Y-85297754D01*
X170640360Y-85297753D01*
X170640359Y-85297753D01*
X170479076Y-85272208D01*
X170430406Y-85264500D01*
X170217832Y-85264500D01*
X170169161Y-85272208D01*
X170007879Y-85297753D01*
X169805704Y-85363444D01*
X169616298Y-85459951D01*
X169444332Y-85584890D01*
X169294009Y-85735213D01*
X169169070Y-85907180D01*
X169072456Y-86096795D01*
X169024481Y-86147591D01*
X168961971Y-86164500D01*
X163895811Y-86164500D01*
X163828772Y-86144815D01*
X163794238Y-86111625D01*
X163664166Y-85925861D01*
X163664164Y-85925858D01*
X163503260Y-85764954D01*
X163316853Y-85634432D01*
X163316851Y-85634431D01*
X163110616Y-85538261D01*
X163110607Y-85538258D01*
X162890816Y-85479366D01*
X162890812Y-85479365D01*
X162890811Y-85479365D01*
X162890810Y-85479364D01*
X162890805Y-85479364D01*
X162664121Y-85459532D01*
X162664117Y-85459532D01*
X162437432Y-85479364D01*
X162437421Y-85479366D01*
X162217630Y-85538258D01*
X162217621Y-85538261D01*
X162011386Y-85634431D01*
X162011384Y-85634432D01*
X161824977Y-85764954D01*
X161664073Y-85925858D01*
X161533551Y-86112265D01*
X161533550Y-86112267D01*
X161437380Y-86318502D01*
X161437377Y-86318511D01*
X161378485Y-86538302D01*
X161378483Y-86538313D01*
X161358651Y-86764998D01*
X161358651Y-86765001D01*
X161378483Y-86991686D01*
X161378485Y-86991697D01*
X161437377Y-87211488D01*
X161437380Y-87211497D01*
X161533550Y-87417732D01*
X161533551Y-87417734D01*
X161664073Y-87604141D01*
X161824977Y-87765045D01*
X161824980Y-87765047D01*
X162011385Y-87895568D01*
X162217623Y-87991739D01*
X162437427Y-88050635D01*
X162507493Y-88056765D01*
X162509859Y-88056972D01*
X162574928Y-88082424D01*
X162615907Y-88139015D01*
X162619785Y-88208777D01*
X162585331Y-88269561D01*
X162523484Y-88302069D01*
X162499052Y-88304500D01*
X145960097Y-88304500D01*
X145893058Y-88284815D01*
X145872416Y-88268181D01*
X144960937Y-87356702D01*
X144927452Y-87295379D01*
X144924618Y-87269021D01*
X144924618Y-85964998D01*
X144924617Y-85964981D01*
X144914118Y-85862203D01*
X144914117Y-85862200D01*
X144883990Y-85771284D01*
X144858933Y-85695666D01*
X144766831Y-85546344D01*
X144642775Y-85422288D01*
X144493453Y-85330186D01*
X144326916Y-85275001D01*
X144326914Y-85275000D01*
X144224135Y-85264500D01*
X144224128Y-85264500D01*
X144174784Y-85264500D01*
X144107745Y-85244815D01*
X144067397Y-85202500D01*
X144054641Y-85180406D01*
X144054640Y-85180405D01*
X144054639Y-85180403D01*
X143942835Y-85068599D01*
X143942834Y-85068598D01*
X143938504Y-85064268D01*
X143938493Y-85064258D01*
X142337590Y-83463355D01*
X142337588Y-83463352D01*
X142218717Y-83344481D01*
X142218716Y-83344480D01*
X142131904Y-83294360D01*
X142131904Y-83294359D01*
X142131900Y-83294358D01*
X142081785Y-83265423D01*
X141929057Y-83224499D01*
X141770943Y-83224499D01*
X141763347Y-83224499D01*
X141763331Y-83224500D01*
X122886669Y-83224500D01*
X122886653Y-83224499D01*
X122879057Y-83224499D01*
X122720943Y-83224499D01*
X122613587Y-83253265D01*
X122568210Y-83265424D01*
X122568209Y-83265425D01*
X122518096Y-83294359D01*
X122518095Y-83294360D01*
X122474689Y-83319420D01*
X122431285Y-83344479D01*
X122431282Y-83344481D01*
X122319478Y-83456286D01*
X119647584Y-86128181D01*
X119586261Y-86161666D01*
X119559903Y-86164500D01*
X114568618Y-86164500D01*
X114501579Y-86144815D01*
X114455824Y-86092011D01*
X114444618Y-86040500D01*
X114444618Y-85964998D01*
X114444617Y-85964981D01*
X114434118Y-85862203D01*
X114434117Y-85862200D01*
X114403990Y-85771284D01*
X114378933Y-85695666D01*
X114286831Y-85546344D01*
X114162775Y-85422288D01*
X114013453Y-85330186D01*
X113846916Y-85275001D01*
X113846914Y-85275000D01*
X113744129Y-85264500D01*
X112444117Y-85264500D01*
X112444100Y-85264501D01*
X112341322Y-85275000D01*
X112341319Y-85275001D01*
X112174787Y-85330185D01*
X112174782Y-85330187D01*
X112025461Y-85422289D01*
X111901408Y-85546342D01*
X111805940Y-85701121D01*
X111753992Y-85747845D01*
X111685029Y-85759068D01*
X111620947Y-85731224D01*
X111612720Y-85723705D01*
X111473905Y-85584890D01*
X111301939Y-85459951D01*
X111112533Y-85363444D01*
X111112532Y-85363443D01*
X111112531Y-85363443D01*
X110910362Y-85297754D01*
X110910360Y-85297753D01*
X110910359Y-85297753D01*
X110749076Y-85272208D01*
X110700406Y-85264500D01*
X110487832Y-85264500D01*
X110439161Y-85272208D01*
X110277879Y-85297753D01*
X110075704Y-85363444D01*
X109886298Y-85459951D01*
X109714332Y-85584890D01*
X109564009Y-85735213D01*
X109439070Y-85907180D01*
X109342456Y-86096795D01*
X109294481Y-86147591D01*
X109231971Y-86164500D01*
X104165811Y-86164500D01*
X104098772Y-86144815D01*
X104064238Y-86111625D01*
X103934166Y-85925861D01*
X103934164Y-85925858D01*
X103773260Y-85764954D01*
X103586853Y-85634432D01*
X103586851Y-85634431D01*
X103380616Y-85538261D01*
X103380607Y-85538258D01*
X103160816Y-85479366D01*
X103160812Y-85479365D01*
X103160811Y-85479365D01*
X103160810Y-85479364D01*
X103160805Y-85479364D01*
X102934121Y-85459532D01*
X102934117Y-85459532D01*
X102707432Y-85479364D01*
X102707421Y-85479366D01*
X102611186Y-85505152D01*
X102541336Y-85503489D01*
X102491412Y-85473058D01*
X100256709Y-83238355D01*
X100256707Y-83238352D01*
X100137836Y-83119481D01*
X100137835Y-83119480D01*
X100051023Y-83069360D01*
X100051023Y-83069359D01*
X100051019Y-83069358D01*
X100000904Y-83040423D01*
X99848176Y-82999499D01*
X99690062Y-82999499D01*
X99682466Y-82999499D01*
X99682450Y-82999500D01*
X85289091Y-82999500D01*
X85222052Y-82979815D01*
X85176711Y-82927909D01*
X85174037Y-82922175D01*
X85174034Y-82922170D01*
X85174033Y-82922169D01*
X85038495Y-82728599D01*
X85038494Y-82728597D01*
X84871402Y-82561506D01*
X84871395Y-82561501D01*
X84677834Y-82425967D01*
X84677830Y-82425965D01*
X84677828Y-82425964D01*
X84463663Y-82326097D01*
X84463659Y-82326096D01*
X84463655Y-82326094D01*
X84235413Y-82264938D01*
X84235403Y-82264936D01*
X84000001Y-82244341D01*
X83999999Y-82244341D01*
X83764596Y-82264936D01*
X83764586Y-82264938D01*
X83536344Y-82326094D01*
X83536335Y-82326098D01*
X83322171Y-82425964D01*
X83322169Y-82425965D01*
X83128597Y-82561505D01*
X82961505Y-82728597D01*
X82825965Y-82922169D01*
X82825964Y-82922171D01*
X82726098Y-83136335D01*
X82726094Y-83136344D01*
X82664938Y-83364586D01*
X82664936Y-83364596D01*
X82644341Y-83599999D01*
X81500500Y-83599999D01*
X81500500Y-44356577D01*
X110119500Y-44356577D01*
X110119500Y-62333422D01*
X110150290Y-62527826D01*
X110211117Y-62715030D01*
X110260318Y-62811591D01*
X110300476Y-62890405D01*
X110416172Y-63049646D01*
X112225355Y-64858829D01*
X112384595Y-64974524D01*
X112460664Y-65013283D01*
X112559969Y-65063882D01*
X112559971Y-65063882D01*
X112559974Y-65063884D01*
X112660318Y-65096487D01*
X112747173Y-65124709D01*
X112941578Y-65155500D01*
X112941583Y-65155500D01*
X112941584Y-65155500D01*
X113138417Y-65155500D01*
X113610586Y-65155500D01*
X113666881Y-65169015D01*
X113828863Y-65251549D01*
X114046370Y-65322221D01*
X114046371Y-65322221D01*
X114046374Y-65322222D01*
X114272265Y-65358000D01*
X114272266Y-65358000D01*
X114595972Y-65358000D01*
X114595973Y-65358000D01*
X114821864Y-65322222D01*
X114821867Y-65322221D01*
X114821868Y-65322221D01*
X115039374Y-65251549D01*
X115039374Y-65251548D01*
X115039377Y-65251548D01*
X115201357Y-65169014D01*
X115257652Y-65155500D01*
X143610586Y-65155500D01*
X143666881Y-65169015D01*
X143828863Y-65251549D01*
X144046370Y-65322221D01*
X144046371Y-65322221D01*
X144046374Y-65322222D01*
X144272265Y-65358000D01*
X144272266Y-65358000D01*
X144595972Y-65358000D01*
X144595973Y-65358000D01*
X144821864Y-65322222D01*
X144821867Y-65322221D01*
X144821868Y-65322221D01*
X145039374Y-65251549D01*
X145039374Y-65251548D01*
X145039377Y-65251548D01*
X145243157Y-65147717D01*
X145428185Y-65013286D01*
X145589905Y-64851566D01*
X145724336Y-64666538D01*
X145828167Y-64462758D01*
X145898193Y-64247240D01*
X145898840Y-64245249D01*
X145898840Y-64245248D01*
X145898841Y-64245245D01*
X145934619Y-64019354D01*
X145934619Y-63790646D01*
X145898841Y-63564755D01*
X145898840Y-63564751D01*
X145898840Y-63564750D01*
X145828168Y-63347244D01*
X145724335Y-63143461D01*
X145713908Y-63129109D01*
X145591591Y-62960755D01*
X145568113Y-62894953D01*
X145583938Y-62826899D01*
X145634044Y-62778204D01*
X145648574Y-62771692D01*
X145676450Y-62761296D01*
X145791665Y-62675046D01*
X145877915Y-62559831D01*
X145928210Y-62424983D01*
X145934619Y-62365373D01*
X145934618Y-60364628D01*
X145928210Y-60305017D01*
X145877915Y-60170169D01*
X145877914Y-60170168D01*
X145877912Y-60170164D01*
X145791666Y-60054955D01*
X145791663Y-60054952D01*
X145676454Y-59968706D01*
X145676447Y-59968702D01*
X145541601Y-59918408D01*
X145541602Y-59918408D01*
X145482002Y-59912001D01*
X145482000Y-59912000D01*
X145481992Y-59912000D01*
X145481983Y-59912000D01*
X143386248Y-59912000D01*
X143386242Y-59912001D01*
X143326635Y-59918408D01*
X143191790Y-59968702D01*
X143191783Y-59968706D01*
X143076574Y-60054952D01*
X143076571Y-60054955D01*
X142990325Y-60170164D01*
X142990321Y-60170171D01*
X142940027Y-60305017D01*
X142933620Y-60364616D01*
X142933620Y-60364623D01*
X142933619Y-60364635D01*
X142933619Y-60640500D01*
X142913934Y-60707539D01*
X142861130Y-60753294D01*
X142809619Y-60764500D01*
X116058618Y-60764500D01*
X115991579Y-60744815D01*
X115945824Y-60692011D01*
X115934618Y-60640500D01*
X115934618Y-60364629D01*
X115934617Y-60364623D01*
X115934616Y-60364616D01*
X115928210Y-60305017D01*
X115877915Y-60170169D01*
X115877914Y-60170168D01*
X115877912Y-60170164D01*
X115791666Y-60054955D01*
X115791663Y-60054952D01*
X115676454Y-59968706D01*
X115676447Y-59968702D01*
X115541601Y-59918408D01*
X115541602Y-59918408D01*
X115482002Y-59912001D01*
X115482000Y-59912000D01*
X115481992Y-59912000D01*
X115481983Y-59912000D01*
X113386248Y-59912000D01*
X113386242Y-59912001D01*
X113326635Y-59918408D01*
X113191790Y-59968702D01*
X113191783Y-59968706D01*
X113076574Y-60054952D01*
X113076571Y-60054955D01*
X112990325Y-60170164D01*
X112990321Y-60170171D01*
X112940027Y-60305017D01*
X112933620Y-60364616D01*
X112933620Y-60364623D01*
X112933619Y-60364635D01*
X112933619Y-61730783D01*
X112913934Y-61797822D01*
X112861130Y-61843577D01*
X112791972Y-61853521D01*
X112728416Y-61824496D01*
X112721938Y-61818464D01*
X112656819Y-61753345D01*
X112623334Y-61692022D01*
X112620500Y-61665664D01*
X112620500Y-45024336D01*
X112640185Y-44957297D01*
X112656819Y-44936655D01*
X113199267Y-44394207D01*
X113754104Y-43839369D01*
X113815425Y-43805886D01*
X113885117Y-43810870D01*
X113916089Y-43827782D01*
X114095685Y-43962226D01*
X114095689Y-43962228D01*
X114095690Y-43962229D01*
X114346833Y-44099364D01*
X114346832Y-44099364D01*
X114346836Y-44099365D01*
X114346839Y-44099367D01*
X114614954Y-44199369D01*
X114614960Y-44199370D01*
X114614962Y-44199371D01*
X114894566Y-44260195D01*
X114894568Y-44260195D01*
X114894572Y-44260196D01*
X115148220Y-44278337D01*
X115179999Y-44280610D01*
X115180000Y-44280610D01*
X115180001Y-44280610D01*
X115208595Y-44278564D01*
X115465428Y-44260196D01*
X115655742Y-44218796D01*
X115745037Y-44199371D01*
X115745037Y-44199370D01*
X115745046Y-44199369D01*
X116013161Y-44099367D01*
X116264315Y-43962226D01*
X116493395Y-43790739D01*
X116695739Y-43588395D01*
X116867226Y-43359315D01*
X117004367Y-43108161D01*
X117104369Y-42840046D01*
X117165196Y-42560428D01*
X117185610Y-42275000D01*
X117165196Y-41989572D01*
X117104369Y-41709954D01*
X117004367Y-41441839D01*
X116929734Y-41305160D01*
X116867229Y-41190690D01*
X116867224Y-41190682D01*
X116695745Y-40961612D01*
X116695729Y-40961594D01*
X116493405Y-40759270D01*
X116493387Y-40759254D01*
X116450481Y-40727135D01*
X118259500Y-40727135D01*
X118259500Y-43822870D01*
X118259501Y-43822876D01*
X118265908Y-43882483D01*
X118316202Y-44017328D01*
X118316206Y-44017335D01*
X118402452Y-44132544D01*
X118402455Y-44132547D01*
X118517664Y-44218793D01*
X118517671Y-44218797D01*
X118652517Y-44269091D01*
X118652516Y-44269091D01*
X118659444Y-44269835D01*
X118712127Y-44275500D01*
X121807872Y-44275499D01*
X121867483Y-44269091D01*
X122002331Y-44218796D01*
X122117546Y-44132546D01*
X122203796Y-44017331D01*
X122254091Y-43882483D01*
X122260500Y-43822873D01*
X122260500Y-43649500D01*
X122280185Y-43582461D01*
X122332989Y-43536706D01*
X122384500Y-43525500D01*
X142858422Y-43525500D01*
X143052826Y-43494709D01*
X143240026Y-43433884D01*
X143415405Y-43344524D01*
X143574646Y-43228828D01*
X144528476Y-42274998D01*
X146194390Y-42274998D01*
X146194390Y-42275001D01*
X146214804Y-42560433D01*
X146275628Y-42840037D01*
X146275630Y-42840043D01*
X146275631Y-42840046D01*
X146375633Y-43108161D01*
X146434332Y-43215660D01*
X146449500Y-43275085D01*
X146449500Y-50919741D01*
X146474446Y-51109215D01*
X146479452Y-51147238D01*
X146479453Y-51147240D01*
X146538842Y-51368887D01*
X146626650Y-51580876D01*
X146626657Y-51580891D01*
X146735238Y-51768958D01*
X146741389Y-51779612D01*
X146811235Y-51870636D01*
X146881082Y-51961663D01*
X146881086Y-51961668D01*
X160143333Y-65223915D01*
X160143340Y-65223921D01*
X160179346Y-65251549D01*
X160234363Y-65293765D01*
X160325388Y-65363611D01*
X160424750Y-65420977D01*
X160424751Y-65420978D01*
X160474431Y-65449661D01*
X160524112Y-65478345D01*
X160674019Y-65540438D01*
X160736113Y-65566158D01*
X160774781Y-65576519D01*
X160957761Y-65625549D01*
X161161553Y-65652377D01*
X161161555Y-65652378D01*
X161161556Y-65652378D01*
X161168151Y-65653246D01*
X161185266Y-65655500D01*
X161185267Y-65655500D01*
X161185270Y-65655500D01*
X174548846Y-65655500D01*
X174548853Y-65655500D01*
X174776357Y-65625548D01*
X174998006Y-65566158D01*
X175210007Y-65478344D01*
X175408731Y-65363611D01*
X175590780Y-65223919D01*
X175590784Y-65223914D01*
X175590789Y-65223911D01*
X175753030Y-65061670D01*
X175753033Y-65061665D01*
X175753038Y-65061661D01*
X175892730Y-64879612D01*
X176007463Y-64680888D01*
X176095277Y-64468887D01*
X176154667Y-64247238D01*
X176184619Y-64019734D01*
X176184619Y-63790266D01*
X176154667Y-63562762D01*
X176095277Y-63341113D01*
X176007463Y-63129112D01*
X175892730Y-62930388D01*
X175802029Y-62812185D01*
X175776836Y-62747018D01*
X175790874Y-62678573D01*
X175801135Y-62662394D01*
X175877915Y-62559831D01*
X175928210Y-62424983D01*
X175934619Y-62365373D01*
X175934618Y-60364628D01*
X175928210Y-60305017D01*
X175877915Y-60170169D01*
X175877914Y-60170168D01*
X175877912Y-60170164D01*
X175791666Y-60054955D01*
X175791663Y-60054952D01*
X175676454Y-59968706D01*
X175676447Y-59968702D01*
X175541601Y-59918408D01*
X175541602Y-59918408D01*
X175482002Y-59912001D01*
X175482000Y-59912000D01*
X175481992Y-59912000D01*
X175481983Y-59912000D01*
X173386248Y-59912000D01*
X173386242Y-59912001D01*
X173326635Y-59918408D01*
X173191790Y-59968702D01*
X173191783Y-59968706D01*
X173076574Y-60054952D01*
X173076571Y-60054955D01*
X172990325Y-60170164D01*
X172990321Y-60170171D01*
X172940027Y-60305017D01*
X172933620Y-60364616D01*
X172933620Y-60364623D01*
X172933619Y-60364635D01*
X172933620Y-62030500D01*
X172913935Y-62097539D01*
X172861132Y-62143294D01*
X172809620Y-62154500D01*
X162076443Y-62154500D01*
X162009404Y-62134815D01*
X161988762Y-62118181D01*
X149986819Y-50116238D01*
X149953334Y-50054915D01*
X149950500Y-50028557D01*
X149950500Y-43275085D01*
X149965667Y-43215660D01*
X150024367Y-43108161D01*
X150124369Y-42840046D01*
X150185196Y-42560428D01*
X150205610Y-42275000D01*
X150185196Y-41989572D01*
X150124369Y-41709954D01*
X150024367Y-41441839D01*
X149949734Y-41305160D01*
X149887229Y-41190690D01*
X149887224Y-41190682D01*
X149715745Y-40961612D01*
X149715729Y-40961594D01*
X149513405Y-40759270D01*
X149513387Y-40759254D01*
X149284317Y-40587775D01*
X149284309Y-40587770D01*
X149033166Y-40450635D01*
X149033167Y-40450635D01*
X148925915Y-40410632D01*
X148765046Y-40350631D01*
X148765043Y-40350630D01*
X148765037Y-40350628D01*
X148485433Y-40289804D01*
X148200001Y-40269390D01*
X148199999Y-40269390D01*
X147914566Y-40289804D01*
X147634962Y-40350628D01*
X147366833Y-40450635D01*
X147115690Y-40587770D01*
X147115682Y-40587775D01*
X146886612Y-40759254D01*
X146886594Y-40759270D01*
X146684270Y-40961594D01*
X146684254Y-40961612D01*
X146512775Y-41190682D01*
X146512770Y-41190690D01*
X146375635Y-41441833D01*
X146275628Y-41709962D01*
X146214804Y-41989566D01*
X146194390Y-42274998D01*
X144528476Y-42274998D01*
X151221655Y-35581819D01*
X151282978Y-35548334D01*
X151309336Y-35545500D01*
X175570664Y-35545500D01*
X175637703Y-35565185D01*
X175658345Y-35581819D01*
X181203181Y-41126655D01*
X181236666Y-41187978D01*
X181239500Y-41214336D01*
X181239500Y-45857526D01*
X181219815Y-45924565D01*
X181167011Y-45970320D01*
X181097853Y-45980264D01*
X181034297Y-45951239D01*
X181027819Y-45945207D01*
X179476819Y-44394207D01*
X179443334Y-44332884D01*
X179440500Y-44306526D01*
X179440500Y-42112860D01*
X179408715Y-41790142D01*
X179408714Y-41790141D01*
X179408714Y-41790132D01*
X179358981Y-41540106D01*
X179345454Y-41472097D01*
X179345451Y-41472086D01*
X179345450Y-41472083D01*
X179345449Y-41472077D01*
X179251314Y-41161754D01*
X179127215Y-40862153D01*
X179055042Y-40727128D01*
X178974353Y-40576169D01*
X178974352Y-40576167D01*
X178974347Y-40576158D01*
X178794183Y-40306524D01*
X178588458Y-40055847D01*
X178588457Y-40055846D01*
X178588453Y-40055841D01*
X178359158Y-39826546D01*
X178108481Y-39620821D01*
X178108467Y-39620810D01*
X177945609Y-39511991D01*
X177900804Y-39458378D01*
X177890500Y-39408889D01*
X177890500Y-39260272D01*
X177890499Y-39260258D01*
X177889057Y-39249312D01*
X177860548Y-39032762D01*
X177801158Y-38811113D01*
X177713344Y-38599112D01*
X177598611Y-38400388D01*
X177598608Y-38400385D01*
X177598607Y-38400382D01*
X177458918Y-38218338D01*
X177296661Y-38056081D01*
X176981308Y-37740728D01*
X176026666Y-36786084D01*
X176026659Y-36786078D01*
X175931830Y-36713314D01*
X175931828Y-36713312D01*
X175844611Y-36646388D01*
X175645891Y-36531657D01*
X175645881Y-36531652D01*
X175433896Y-36443845D01*
X175433889Y-36443843D01*
X175433890Y-36443843D01*
X175433887Y-36443842D01*
X175389572Y-36431968D01*
X175389571Y-36431967D01*
X175249716Y-36394494D01*
X175212239Y-36384452D01*
X175212233Y-36384451D01*
X175212232Y-36384451D01*
X175202362Y-36383151D01*
X175185771Y-36380967D01*
X175185770Y-36380966D01*
X174984744Y-36354501D01*
X174984739Y-36354500D01*
X174984734Y-36354500D01*
X155705266Y-36354500D01*
X155705260Y-36354500D01*
X155705255Y-36354501D01*
X155504228Y-36380966D01*
X155504228Y-36380967D01*
X155500215Y-36381495D01*
X155477763Y-36384451D01*
X155300428Y-36431967D01*
X155300428Y-36431968D01*
X155256113Y-36443842D01*
X155256111Y-36443842D01*
X155256110Y-36443843D01*
X155256103Y-36443845D01*
X155044118Y-36531652D01*
X155044108Y-36531657D01*
X154845390Y-36646387D01*
X154845387Y-36646390D01*
X154663339Y-36786079D01*
X154663332Y-36786085D01*
X151961084Y-39488333D01*
X151961078Y-39488340D01*
X151903322Y-39563611D01*
X151866294Y-39611865D01*
X151821385Y-39670392D01*
X151731808Y-39825547D01*
X151731808Y-39825548D01*
X151706656Y-39869111D01*
X151706654Y-39869115D01*
X151618845Y-40081103D01*
X151618842Y-40081113D01*
X151567025Y-40274499D01*
X151567020Y-40274517D01*
X151566487Y-40276505D01*
X151530113Y-40336160D01*
X151521029Y-40343660D01*
X151422452Y-40417455D01*
X151336206Y-40532664D01*
X151336202Y-40532671D01*
X151285908Y-40667517D01*
X151279501Y-40727116D01*
X151279501Y-40727123D01*
X151279500Y-40727135D01*
X151279500Y-43822870D01*
X151279501Y-43822876D01*
X151285908Y-43882483D01*
X151336202Y-44017328D01*
X151336206Y-44017335D01*
X151422452Y-44132544D01*
X151422455Y-44132547D01*
X151537664Y-44218793D01*
X151537671Y-44218797D01*
X151672517Y-44269091D01*
X151672516Y-44269091D01*
X151679444Y-44269835D01*
X151732127Y-44275500D01*
X154827872Y-44275499D01*
X154887483Y-44269091D01*
X155022331Y-44218796D01*
X155137546Y-44132546D01*
X155223796Y-44017331D01*
X155274091Y-43882483D01*
X155280500Y-43822873D01*
X155280499Y-41171442D01*
X155300184Y-41104404D01*
X155316818Y-41083762D01*
X156508762Y-39891819D01*
X156570085Y-39858334D01*
X156596443Y-39855500D01*
X173593787Y-39855500D01*
X173660826Y-39875185D01*
X173706581Y-39927989D01*
X173716525Y-39997147D01*
X173689640Y-40058165D01*
X173485821Y-40306518D01*
X173485811Y-40306532D01*
X173305657Y-40576151D01*
X173305646Y-40576169D01*
X173152788Y-40862145D01*
X173152786Y-40862150D01*
X173076825Y-41045537D01*
X173047590Y-41116117D01*
X173028684Y-41161759D01*
X173008339Y-41228826D01*
X172970041Y-41287265D01*
X172906229Y-41315721D01*
X172837162Y-41305160D01*
X172784769Y-41258935D01*
X172780847Y-41252256D01*
X172747232Y-41190695D01*
X172747224Y-41190682D01*
X172575745Y-40961612D01*
X172575729Y-40961594D01*
X172373405Y-40759270D01*
X172373387Y-40759254D01*
X172144317Y-40587775D01*
X172144309Y-40587770D01*
X171893166Y-40450635D01*
X171893167Y-40450635D01*
X171785915Y-40410632D01*
X171625046Y-40350631D01*
X171625043Y-40350630D01*
X171625037Y-40350628D01*
X171345433Y-40289804D01*
X171060001Y-40269390D01*
X171059999Y-40269390D01*
X170774566Y-40289804D01*
X170494962Y-40350628D01*
X170226833Y-40450635D01*
X169975690Y-40587770D01*
X169975682Y-40587775D01*
X169746612Y-40759254D01*
X169746594Y-40759270D01*
X169544270Y-40961594D01*
X169544254Y-40961612D01*
X169372775Y-41190682D01*
X169372770Y-41190690D01*
X169235635Y-41441833D01*
X169135628Y-41709962D01*
X169074804Y-41989566D01*
X169054390Y-42274998D01*
X169054390Y-42275001D01*
X169074804Y-42560433D01*
X169135628Y-42840037D01*
X169135630Y-42840043D01*
X169135631Y-42840046D01*
X169235633Y-43108161D01*
X169294332Y-43215660D01*
X169309500Y-43275085D01*
X169309500Y-48379741D01*
X169334446Y-48569215D01*
X169339452Y-48607238D01*
X169390599Y-48798122D01*
X169398842Y-48828887D01*
X169486650Y-49040876D01*
X169486657Y-49040891D01*
X169595238Y-49228958D01*
X169601389Y-49239612D01*
X169671235Y-49330636D01*
X169741082Y-49421663D01*
X169741086Y-49421668D01*
X185543333Y-65223915D01*
X185543340Y-65223921D01*
X185579346Y-65251549D01*
X185634363Y-65293765D01*
X185671448Y-65322221D01*
X185725392Y-65363614D01*
X185924108Y-65478342D01*
X185924123Y-65478349D01*
X186002429Y-65510784D01*
X186136113Y-65566158D01*
X186357761Y-65625548D01*
X186384223Y-65629031D01*
X186384227Y-65629033D01*
X186384228Y-65629032D01*
X186561552Y-65652378D01*
X186585266Y-65655500D01*
X186585273Y-65655500D01*
X204548846Y-65655500D01*
X204548853Y-65655500D01*
X204776357Y-65625548D01*
X204998006Y-65566158D01*
X205210007Y-65478344D01*
X205408731Y-65363611D01*
X205590780Y-65223919D01*
X205590784Y-65223914D01*
X205590789Y-65223911D01*
X205753030Y-65061670D01*
X205753033Y-65061665D01*
X205753038Y-65061661D01*
X205892730Y-64879612D01*
X206007463Y-64680888D01*
X206095277Y-64468887D01*
X206154667Y-64247238D01*
X206184619Y-64019734D01*
X206184619Y-63790266D01*
X206154667Y-63562762D01*
X206095277Y-63341113D01*
X206007463Y-63129112D01*
X205892730Y-62930388D01*
X205802029Y-62812185D01*
X205776836Y-62747018D01*
X205790874Y-62678573D01*
X205801135Y-62662394D01*
X205877915Y-62559831D01*
X205928210Y-62424983D01*
X205934619Y-62365373D01*
X205934618Y-60364628D01*
X205928210Y-60305017D01*
X205877915Y-60170169D01*
X205877914Y-60170168D01*
X205877912Y-60170164D01*
X205791666Y-60054955D01*
X205791663Y-60054952D01*
X205676454Y-59968706D01*
X205676447Y-59968702D01*
X205541601Y-59918408D01*
X205541602Y-59918408D01*
X205482002Y-59912001D01*
X205482000Y-59912000D01*
X205481992Y-59912000D01*
X205481983Y-59912000D01*
X203386248Y-59912000D01*
X203386242Y-59912001D01*
X203326635Y-59918408D01*
X203191790Y-59968702D01*
X203191783Y-59968706D01*
X203076574Y-60054952D01*
X203076571Y-60054955D01*
X202990325Y-60170164D01*
X202990321Y-60170171D01*
X202940027Y-60305017D01*
X202933620Y-60364616D01*
X202933620Y-60364623D01*
X202933619Y-60364635D01*
X202933620Y-62030500D01*
X202913935Y-62097539D01*
X202861132Y-62143294D01*
X202809620Y-62154500D01*
X187476443Y-62154500D01*
X187409404Y-62134815D01*
X187388762Y-62118181D01*
X172846819Y-47576238D01*
X172813334Y-47514915D01*
X172810500Y-47488557D01*
X172810500Y-46934888D01*
X172830185Y-46867849D01*
X172882989Y-46822094D01*
X172952147Y-46812150D01*
X173015703Y-46841175D01*
X173049060Y-46887434D01*
X173101382Y-47013749D01*
X173152786Y-47137849D01*
X173152788Y-47137854D01*
X173305646Y-47423830D01*
X173305657Y-47423848D01*
X173485820Y-47693481D01*
X173691546Y-47944159D01*
X177730841Y-51983454D01*
X177730846Y-51983458D01*
X177730847Y-51983459D01*
X177981524Y-52189184D01*
X177981531Y-52189189D01*
X177981541Y-52189196D01*
X178251141Y-52369336D01*
X178251146Y-52369339D01*
X178251158Y-52369347D01*
X178251167Y-52369351D01*
X178251169Y-52369353D01*
X178537145Y-52522211D01*
X178537147Y-52522211D01*
X178537153Y-52522215D01*
X178836754Y-52646314D01*
X179147077Y-52740449D01*
X179147083Y-52740450D01*
X179147086Y-52740451D01*
X179147097Y-52740454D01*
X179346528Y-52780122D01*
X179465132Y-52803714D01*
X179787857Y-52835500D01*
X179787860Y-52835500D01*
X195352140Y-52835500D01*
X195352143Y-52835500D01*
X195674868Y-52803714D01*
X195832295Y-52772399D01*
X195992902Y-52740454D01*
X195992913Y-52740451D01*
X195992913Y-52740450D01*
X195992923Y-52740449D01*
X196303246Y-52646314D01*
X196602847Y-52522215D01*
X196888842Y-52369347D01*
X197158476Y-52189183D01*
X197238001Y-52123919D01*
X197409154Y-51983458D01*
X198908458Y-50484154D01*
X199445441Y-49947169D01*
X199506764Y-49913685D01*
X199576455Y-49918669D01*
X199620803Y-49947170D01*
X207103181Y-57429548D01*
X207136666Y-57490871D01*
X207139500Y-57517229D01*
X207139500Y-96407770D01*
X207119815Y-96474809D01*
X207103181Y-96495451D01*
X200805451Y-102793181D01*
X200744128Y-102826666D01*
X200717770Y-102829500D01*
X193656999Y-102829500D01*
X193589960Y-102809815D01*
X193544205Y-102757011D01*
X193532999Y-102705500D01*
X193532999Y-102532129D01*
X193532998Y-102532123D01*
X193532997Y-102532116D01*
X193526591Y-102472517D01*
X193506443Y-102418498D01*
X193476297Y-102337671D01*
X193476293Y-102337664D01*
X193390047Y-102222455D01*
X193390044Y-102222452D01*
X193274835Y-102136206D01*
X193274828Y-102136202D01*
X193139982Y-102085908D01*
X193139983Y-102085908D01*
X193080383Y-102079501D01*
X193080381Y-102079500D01*
X193080373Y-102079500D01*
X193080365Y-102079500D01*
X192954500Y-102079500D01*
X192887461Y-102059815D01*
X192841706Y-102007011D01*
X192830500Y-101955500D01*
X192830500Y-99626662D01*
X192850185Y-99559623D01*
X192883379Y-99525086D01*
X192919140Y-99500046D01*
X193080045Y-99339141D01*
X193080047Y-99339139D01*
X193210568Y-99152734D01*
X193306739Y-98946496D01*
X193365635Y-98726692D01*
X193385468Y-98500000D01*
X193365635Y-98273308D01*
X193306739Y-98053504D01*
X193210568Y-97847266D01*
X193080047Y-97660861D01*
X193080045Y-97660858D01*
X192919141Y-97499954D01*
X192732734Y-97369432D01*
X192732732Y-97369431D01*
X192526497Y-97273261D01*
X192526488Y-97273258D01*
X192306697Y-97214366D01*
X192306693Y-97214365D01*
X192306692Y-97214365D01*
X192306691Y-97214364D01*
X192306686Y-97214364D01*
X192080002Y-97194532D01*
X192079998Y-97194532D01*
X191853313Y-97214364D01*
X191853302Y-97214366D01*
X191633511Y-97273258D01*
X191633502Y-97273261D01*
X191427267Y-97369431D01*
X191427265Y-97369432D01*
X191240858Y-97499954D01*
X191079954Y-97660858D01*
X190949432Y-97847265D01*
X190949431Y-97847267D01*
X190853261Y-98053502D01*
X190853258Y-98053511D01*
X190794366Y-98273302D01*
X190794364Y-98273313D01*
X190774532Y-98499998D01*
X190774532Y-98500001D01*
X190794364Y-98726686D01*
X190794366Y-98726697D01*
X190853258Y-98946488D01*
X190853261Y-98946497D01*
X190949431Y-99152732D01*
X190949432Y-99152734D01*
X191079954Y-99339141D01*
X191240859Y-99500046D01*
X191276621Y-99525086D01*
X191320247Y-99579662D01*
X191329500Y-99626662D01*
X191329500Y-101955500D01*
X191309815Y-102022539D01*
X191257011Y-102068294D01*
X191205501Y-102079500D01*
X191079630Y-102079500D01*
X191079623Y-102079501D01*
X191020016Y-102085908D01*
X190885171Y-102136202D01*
X190885164Y-102136206D01*
X190769955Y-102222452D01*
X190769952Y-102222455D01*
X190683706Y-102337664D01*
X190683702Y-102337671D01*
X190633408Y-102472517D01*
X190627282Y-102529500D01*
X190627001Y-102532123D01*
X190627000Y-102532135D01*
X190627000Y-104627870D01*
X190627001Y-104627876D01*
X190633408Y-104687483D01*
X190683702Y-104822328D01*
X190683706Y-104822335D01*
X190769952Y-104937544D01*
X190769955Y-104937547D01*
X190885164Y-105023793D01*
X190885171Y-105023797D01*
X191020017Y-105074091D01*
X191020016Y-105074091D01*
X191026944Y-105074835D01*
X191079627Y-105080500D01*
X193080372Y-105080499D01*
X193139983Y-105074091D01*
X193274831Y-105023796D01*
X193390046Y-104937546D01*
X193476296Y-104822331D01*
X193526591Y-104687483D01*
X193533000Y-104627873D01*
X193533000Y-104454500D01*
X193552685Y-104387461D01*
X193605489Y-104341706D01*
X193657000Y-104330500D01*
X200717770Y-104330500D01*
X200784809Y-104350185D01*
X200805451Y-104366819D01*
X203113181Y-106674548D01*
X203146666Y-106735871D01*
X203149500Y-106762229D01*
X203149500Y-107800001D01*
X203149501Y-107800019D01*
X203160000Y-107902796D01*
X203160001Y-107902799D01*
X203196450Y-108012793D01*
X203215186Y-108069334D01*
X203307288Y-108218656D01*
X203431344Y-108342712D01*
X203580666Y-108434814D01*
X203747203Y-108489999D01*
X203849991Y-108500500D01*
X205150008Y-108500499D01*
X205252797Y-108489999D01*
X205419334Y-108434814D01*
X205568656Y-108342712D01*
X205692712Y-108218656D01*
X205784814Y-108069334D01*
X205839999Y-107902797D01*
X205850500Y-107800009D01*
X205850499Y-106199992D01*
X205844593Y-106142180D01*
X205839999Y-106097203D01*
X205839998Y-106097200D01*
X205807789Y-106000000D01*
X205784814Y-105930666D01*
X205692712Y-105781344D01*
X205568656Y-105657288D01*
X205457293Y-105588599D01*
X205419336Y-105565187D01*
X205419331Y-105565185D01*
X205417862Y-105564698D01*
X205252797Y-105510001D01*
X205252795Y-105510000D01*
X205150016Y-105499500D01*
X205150009Y-105499500D01*
X204112230Y-105499500D01*
X204045191Y-105479815D01*
X204024549Y-105463181D01*
X202229048Y-103667680D01*
X202195563Y-103606357D01*
X202200547Y-103536665D01*
X202229046Y-103492320D01*
X208472951Y-97248416D01*
X208555084Y-97125495D01*
X208611658Y-96988913D01*
X208625434Y-96919658D01*
X208640500Y-96843920D01*
X208640500Y-57081081D01*
X208634763Y-57052242D01*
X208634763Y-57052240D01*
X208611660Y-56936095D01*
X208611659Y-56936088D01*
X208557408Y-56805117D01*
X208555764Y-56800522D01*
X208472954Y-56676588D01*
X208472953Y-56676587D01*
X208472951Y-56676584D01*
X208368416Y-56572049D01*
X200682170Y-48885803D01*
X200648685Y-48824480D01*
X200653669Y-48754788D01*
X200682170Y-48710441D01*
X201448453Y-47944159D01*
X201448453Y-47944158D01*
X201448458Y-47944154D01*
X201654183Y-47693477D01*
X201834347Y-47423843D01*
X201987215Y-47137848D01*
X202038618Y-47013749D01*
X202111314Y-46838246D01*
X202205449Y-46527923D01*
X202205451Y-46527913D01*
X202205454Y-46527902D01*
X202263814Y-46234500D01*
X202268714Y-46209868D01*
X202300500Y-45887143D01*
X202300500Y-42112857D01*
X202268714Y-41790132D01*
X202218981Y-41540106D01*
X202205454Y-41472097D01*
X202205451Y-41472086D01*
X202205450Y-41472083D01*
X202205449Y-41472077D01*
X202111314Y-41161754D01*
X201987215Y-40862153D01*
X201915042Y-40727128D01*
X201834353Y-40576169D01*
X201834352Y-40576167D01*
X201834347Y-40576158D01*
X201654183Y-40306524D01*
X201448458Y-40055847D01*
X201448457Y-40055846D01*
X201448453Y-40055841D01*
X201219158Y-39826546D01*
X200968481Y-39620821D01*
X200968480Y-39620820D01*
X200968476Y-39620817D01*
X200698842Y-39440653D01*
X200698837Y-39440650D01*
X200698830Y-39440646D01*
X200412854Y-39287788D01*
X200412849Y-39287786D01*
X200113247Y-39163686D01*
X199802913Y-39069548D01*
X199802902Y-39069545D01*
X199484874Y-39006287D01*
X199484857Y-39006284D01*
X199240812Y-38982248D01*
X199162143Y-38974500D01*
X198837857Y-38974500D01*
X198765099Y-38981666D01*
X198515142Y-39006284D01*
X198515125Y-39006287D01*
X198197097Y-39069545D01*
X198197086Y-39069548D01*
X197886752Y-39163686D01*
X197587150Y-39287786D01*
X197587145Y-39287788D01*
X197301169Y-39440646D01*
X197301151Y-39440657D01*
X197031532Y-39620811D01*
X197031518Y-39620821D01*
X196780841Y-39826546D01*
X196551546Y-40055841D01*
X196345821Y-40306518D01*
X196345811Y-40306532D01*
X196165657Y-40576151D01*
X196165646Y-40576169D01*
X196012788Y-40862145D01*
X196012786Y-40862150D01*
X195888686Y-41161752D01*
X195794548Y-41472086D01*
X195794545Y-41472097D01*
X195731287Y-41790125D01*
X195731284Y-41790142D01*
X195699500Y-42112860D01*
X195699500Y-44306526D01*
X195679815Y-44373565D01*
X195663181Y-44394207D01*
X193859207Y-46198181D01*
X193797884Y-46231666D01*
X193771526Y-46234500D01*
X183864500Y-46234500D01*
X183797461Y-46214815D01*
X183751706Y-46162011D01*
X183740500Y-46110500D01*
X183740500Y-40546577D01*
X183720048Y-40417452D01*
X183709709Y-40352174D01*
X183689444Y-40289804D01*
X183648884Y-40164974D01*
X183648882Y-40164971D01*
X183648882Y-40164969D01*
X183593278Y-40055841D01*
X183559524Y-39989595D01*
X183443828Y-39830354D01*
X178613474Y-35000000D01*
X204894592Y-35000000D01*
X204914201Y-35286680D01*
X204972666Y-35568034D01*
X204972667Y-35568037D01*
X205068894Y-35838793D01*
X205068893Y-35838793D01*
X205201098Y-36093935D01*
X205366812Y-36328700D01*
X205451923Y-36419831D01*
X205562947Y-36538708D01*
X205777565Y-36713312D01*
X205785853Y-36720055D01*
X206031382Y-36869365D01*
X206218237Y-36950526D01*
X206294942Y-36983844D01*
X206571642Y-37061371D01*
X206821920Y-37095771D01*
X206856321Y-37100500D01*
X206856322Y-37100500D01*
X207143679Y-37100500D01*
X207174370Y-37096281D01*
X207428358Y-37061371D01*
X207705058Y-36983844D01*
X207818015Y-36934779D01*
X207968617Y-36869365D01*
X207968620Y-36869363D01*
X207968625Y-36869361D01*
X208214147Y-36720055D01*
X208437053Y-36538708D01*
X208633189Y-36328698D01*
X208798901Y-36093936D01*
X208931104Y-35838797D01*
X209027334Y-35568032D01*
X209085798Y-35286686D01*
X209105408Y-35000000D01*
X209085798Y-34713314D01*
X209027334Y-34431968D01*
X208931105Y-34161206D01*
X208931106Y-34161206D01*
X208798901Y-33906064D01*
X208633187Y-33671299D01*
X208554554Y-33587105D01*
X208437053Y-33461292D01*
X208214147Y-33279945D01*
X208214146Y-33279944D01*
X207968617Y-33130634D01*
X207705063Y-33016158D01*
X207705061Y-33016157D01*
X207705058Y-33016156D01*
X207575578Y-32979877D01*
X207428364Y-32938630D01*
X207428359Y-32938629D01*
X207428358Y-32938629D01*
X207286018Y-32919064D01*
X207143679Y-32899500D01*
X207143678Y-32899500D01*
X206856322Y-32899500D01*
X206856321Y-32899500D01*
X206571642Y-32938629D01*
X206571635Y-32938630D01*
X206363861Y-32996845D01*
X206294942Y-33016156D01*
X206294939Y-33016156D01*
X206294936Y-33016158D01*
X206294935Y-33016158D01*
X206031382Y-33130634D01*
X205785853Y-33279944D01*
X205562950Y-33461289D01*
X205366812Y-33671299D01*
X205201098Y-33906064D01*
X205068894Y-34161206D01*
X204972667Y-34431962D01*
X204972666Y-34431965D01*
X204914201Y-34713319D01*
X204894592Y-35000000D01*
X178613474Y-35000000D01*
X176954646Y-33341172D01*
X176795405Y-33225476D01*
X176620030Y-33136117D01*
X176432826Y-33075290D01*
X176238422Y-33044500D01*
X176238417Y-33044500D01*
X150838416Y-33044500D01*
X150641583Y-33044500D01*
X150641578Y-33044500D01*
X150447172Y-33075290D01*
X150259969Y-33136117D01*
X150084594Y-33225476D01*
X150009625Y-33279945D01*
X149925354Y-33341172D01*
X149925352Y-33341174D01*
X149925351Y-33341174D01*
X142278345Y-40988181D01*
X142217022Y-41021666D01*
X142190664Y-41024500D01*
X122384499Y-41024500D01*
X122317460Y-41004815D01*
X122271705Y-40952011D01*
X122260499Y-40900500D01*
X122260499Y-40727129D01*
X122260498Y-40727123D01*
X122260497Y-40727116D01*
X122254091Y-40667517D01*
X122224347Y-40587770D01*
X122203797Y-40532671D01*
X122203793Y-40532664D01*
X122117547Y-40417455D01*
X122117544Y-40417452D01*
X122002335Y-40331206D01*
X122002328Y-40331202D01*
X121867482Y-40280908D01*
X121867483Y-40280908D01*
X121807883Y-40274501D01*
X121807881Y-40274500D01*
X121807873Y-40274500D01*
X121807864Y-40274500D01*
X118712129Y-40274500D01*
X118712123Y-40274501D01*
X118652516Y-40280908D01*
X118517671Y-40331202D01*
X118517664Y-40331206D01*
X118402455Y-40417452D01*
X118402452Y-40417455D01*
X118316206Y-40532664D01*
X118316202Y-40532671D01*
X118265908Y-40667517D01*
X118259501Y-40727116D01*
X118259501Y-40727123D01*
X118259500Y-40727135D01*
X116450481Y-40727135D01*
X116264317Y-40587775D01*
X116264309Y-40587770D01*
X116013166Y-40450635D01*
X116013167Y-40450635D01*
X115905915Y-40410632D01*
X115745046Y-40350631D01*
X115745043Y-40350630D01*
X115745037Y-40350628D01*
X115465433Y-40289804D01*
X115180001Y-40269390D01*
X115179999Y-40269390D01*
X114894566Y-40289804D01*
X114614962Y-40350628D01*
X114346833Y-40450635D01*
X114095690Y-40587770D01*
X114095682Y-40587775D01*
X113866612Y-40759254D01*
X113866594Y-40759270D01*
X113664270Y-40961594D01*
X113664257Y-40961609D01*
X113654374Y-40974812D01*
X113598440Y-41016682D01*
X113555108Y-41024500D01*
X113451578Y-41024500D01*
X113318759Y-41045537D01*
X113318758Y-41045537D01*
X113257174Y-41055290D01*
X113257173Y-41055290D01*
X113069970Y-41116117D01*
X112894594Y-41205476D01*
X112830208Y-41252256D01*
X112735355Y-41321171D01*
X112735353Y-41321173D01*
X112735352Y-41321173D01*
X110416174Y-43640351D01*
X110416174Y-43640352D01*
X110416172Y-43640354D01*
X110409527Y-43649500D01*
X110300476Y-43799594D01*
X110211117Y-43974969D01*
X110170698Y-44099368D01*
X110150290Y-44162173D01*
X110119500Y-44356577D01*
X81500500Y-44356577D01*
X81500500Y-37000000D01*
X83894592Y-37000000D01*
X83914201Y-37286680D01*
X83972666Y-37568034D01*
X83972667Y-37568037D01*
X84068894Y-37838793D01*
X84068893Y-37838793D01*
X84201098Y-38093935D01*
X84366812Y-38328700D01*
X84433759Y-38400382D01*
X84562947Y-38538708D01*
X84785853Y-38720055D01*
X85031382Y-38869365D01*
X85218237Y-38950526D01*
X85294942Y-38983844D01*
X85571642Y-39061371D01*
X85821920Y-39095771D01*
X85856321Y-39100500D01*
X85856322Y-39100500D01*
X86143679Y-39100500D01*
X86174370Y-39096281D01*
X86428358Y-39061371D01*
X86705058Y-38983844D01*
X86818015Y-38934779D01*
X86968617Y-38869365D01*
X86968620Y-38869363D01*
X86968625Y-38869361D01*
X87214147Y-38720055D01*
X87437053Y-38538708D01*
X87633189Y-38328698D01*
X87798901Y-38093936D01*
X87931104Y-37838797D01*
X88027334Y-37568032D01*
X88085798Y-37286686D01*
X88105408Y-37000000D01*
X131494592Y-37000000D01*
X131514201Y-37286680D01*
X131572666Y-37568034D01*
X131572667Y-37568037D01*
X131668894Y-37838793D01*
X131668893Y-37838793D01*
X131801098Y-38093935D01*
X131966812Y-38328700D01*
X132033759Y-38400382D01*
X132162947Y-38538708D01*
X132385853Y-38720055D01*
X132631382Y-38869365D01*
X132818237Y-38950526D01*
X132894942Y-38983844D01*
X133171642Y-39061371D01*
X133421920Y-39095771D01*
X133456321Y-39100500D01*
X133456322Y-39100500D01*
X133743679Y-39100500D01*
X133774370Y-39096281D01*
X134028358Y-39061371D01*
X134305058Y-38983844D01*
X134418015Y-38934779D01*
X134568617Y-38869365D01*
X134568620Y-38869363D01*
X134568625Y-38869361D01*
X134814147Y-38720055D01*
X135037053Y-38538708D01*
X135233189Y-38328698D01*
X135398901Y-38093936D01*
X135531104Y-37838797D01*
X135627334Y-37568032D01*
X135685798Y-37286686D01*
X135705408Y-37000000D01*
X135685798Y-36713314D01*
X135627334Y-36431968D01*
X135610446Y-36384451D01*
X135531105Y-36161206D01*
X135531106Y-36161206D01*
X135398901Y-35906064D01*
X135233187Y-35671299D01*
X135134082Y-35565185D01*
X135037053Y-35461292D01*
X134822433Y-35286686D01*
X134814146Y-35279944D01*
X134568617Y-35130634D01*
X134305063Y-35016158D01*
X134305061Y-35016157D01*
X134305058Y-35016156D01*
X134175578Y-34979877D01*
X134028364Y-34938630D01*
X134028359Y-34938629D01*
X134028358Y-34938629D01*
X133886018Y-34919064D01*
X133743679Y-34899500D01*
X133743678Y-34899500D01*
X133456322Y-34899500D01*
X133456321Y-34899500D01*
X133171642Y-34938629D01*
X133171635Y-34938630D01*
X132963861Y-34996845D01*
X132894942Y-35016156D01*
X132894939Y-35016156D01*
X132894936Y-35016158D01*
X132894935Y-35016158D01*
X132631382Y-35130634D01*
X132385853Y-35279944D01*
X132162950Y-35461289D01*
X131966812Y-35671299D01*
X131801098Y-35906064D01*
X131668894Y-36161206D01*
X131572667Y-36431962D01*
X131572666Y-36431965D01*
X131514201Y-36713319D01*
X131494592Y-37000000D01*
X88105408Y-37000000D01*
X88085798Y-36713314D01*
X88027334Y-36431968D01*
X88010446Y-36384451D01*
X87931105Y-36161206D01*
X87931106Y-36161206D01*
X87798901Y-35906064D01*
X87633187Y-35671299D01*
X87534082Y-35565185D01*
X87437053Y-35461292D01*
X87222433Y-35286686D01*
X87214146Y-35279944D01*
X86968617Y-35130634D01*
X86705063Y-35016158D01*
X86705061Y-35016157D01*
X86705058Y-35016156D01*
X86575578Y-34979877D01*
X86428364Y-34938630D01*
X86428359Y-34938629D01*
X86428358Y-34938629D01*
X86286018Y-34919064D01*
X86143679Y-34899500D01*
X86143678Y-34899500D01*
X85856322Y-34899500D01*
X85856321Y-34899500D01*
X85571642Y-34938629D01*
X85571635Y-34938630D01*
X85363861Y-34996845D01*
X85294942Y-35016156D01*
X85294939Y-35016156D01*
X85294936Y-35016158D01*
X85294935Y-35016158D01*
X85031382Y-35130634D01*
X84785853Y-35279944D01*
X84562950Y-35461289D01*
X84366812Y-35671299D01*
X84201098Y-35906064D01*
X84068894Y-36161206D01*
X83972667Y-36431962D01*
X83972666Y-36431965D01*
X83914201Y-36713319D01*
X83894592Y-37000000D01*
X81500500Y-37000000D01*
X81500500Y-32624500D01*
X81520185Y-32557461D01*
X81572989Y-32511706D01*
X81624500Y-32500500D01*
X209375500Y-32500500D01*
X209442539Y-32520185D01*
G37*
%TD.AperFunction*%
%TD*%
M02*
