%TF.GenerationSoftware,KiCad,Pcbnew,8.0.4*%
%TF.CreationDate,2024-11-12T18:47:24+01:00*%
%TF.ProjectId,banc_rodage_pcb,62616e63-5f72-46f6-9461-67655f706362,rev?*%
%TF.SameCoordinates,Original*%
%TF.FileFunction,Legend,Top*%
%TF.FilePolarity,Positive*%
%FSLAX46Y46*%
G04 Gerber Fmt 4.6, Leading zero omitted, Abs format (unit mm)*
G04 Created by KiCad (PCBNEW 8.0.4) date 2024-11-12 18:47:24*
%MOMM*%
%LPD*%
G01*
G04 APERTURE LIST*
%ADD10C,0.100000*%
%ADD11C,0.150000*%
%ADD12C,0.120000*%
%ADD13C,0.000000*%
G04 APERTURE END LIST*
D10*
X200696115Y-36508533D02*
X199934211Y-36508533D01*
X200315163Y-36127580D02*
X200315163Y-36889485D01*
X199505639Y-37032342D02*
X199458020Y-37079961D01*
X199458020Y-37079961D02*
X199362782Y-37127580D01*
X199362782Y-37127580D02*
X199124687Y-37127580D01*
X199124687Y-37127580D02*
X199029449Y-37079961D01*
X199029449Y-37079961D02*
X198981830Y-37032342D01*
X198981830Y-37032342D02*
X198934211Y-36937104D01*
X198934211Y-36937104D02*
X198934211Y-36841866D01*
X198934211Y-36841866D02*
X198981830Y-36699009D01*
X198981830Y-36699009D02*
X199553258Y-36127580D01*
X199553258Y-36127580D02*
X198934211Y-36127580D01*
X198077068Y-36794247D02*
X198077068Y-36127580D01*
X198315163Y-37175200D02*
X198553258Y-36460914D01*
X198553258Y-36460914D02*
X197934211Y-36460914D01*
X194743734Y-37079961D02*
X194838972Y-37127580D01*
X194838972Y-37127580D02*
X194981829Y-37127580D01*
X194981829Y-37127580D02*
X195124686Y-37079961D01*
X195124686Y-37079961D02*
X195219924Y-36984723D01*
X195219924Y-36984723D02*
X195267543Y-36889485D01*
X195267543Y-36889485D02*
X195315162Y-36699009D01*
X195315162Y-36699009D02*
X195315162Y-36556152D01*
X195315162Y-36556152D02*
X195267543Y-36365676D01*
X195267543Y-36365676D02*
X195219924Y-36270438D01*
X195219924Y-36270438D02*
X195124686Y-36175200D01*
X195124686Y-36175200D02*
X194981829Y-36127580D01*
X194981829Y-36127580D02*
X194886591Y-36127580D01*
X194886591Y-36127580D02*
X194743734Y-36175200D01*
X194743734Y-36175200D02*
X194696115Y-36222819D01*
X194696115Y-36222819D02*
X194696115Y-36556152D01*
X194696115Y-36556152D02*
X194886591Y-36556152D01*
X194267543Y-36127580D02*
X194267543Y-37127580D01*
X194267543Y-37127580D02*
X193696115Y-36127580D01*
X193696115Y-36127580D02*
X193696115Y-37127580D01*
X193219924Y-36127580D02*
X193219924Y-37127580D01*
X193219924Y-37127580D02*
X192981829Y-37127580D01*
X192981829Y-37127580D02*
X192838972Y-37079961D01*
X192838972Y-37079961D02*
X192743734Y-36984723D01*
X192743734Y-36984723D02*
X192696115Y-36889485D01*
X192696115Y-36889485D02*
X192648496Y-36699009D01*
X192648496Y-36699009D02*
X192648496Y-36556152D01*
X192648496Y-36556152D02*
X192696115Y-36365676D01*
X192696115Y-36365676D02*
X192743734Y-36270438D01*
X192743734Y-36270438D02*
X192838972Y-36175200D01*
X192838972Y-36175200D02*
X192981829Y-36127580D01*
X192981829Y-36127580D02*
X193219924Y-36127580D01*
X168119048Y-100262475D02*
X168119048Y-99262475D01*
X168119048Y-99262475D02*
X168690476Y-100262475D01*
X168690476Y-100262475D02*
X168690476Y-99262475D01*
X169166667Y-99738665D02*
X169500000Y-99738665D01*
X169642857Y-100262475D02*
X169166667Y-100262475D01*
X169166667Y-100262475D02*
X169166667Y-99262475D01*
X169166667Y-99262475D02*
X169642857Y-99262475D01*
X169976191Y-99262475D02*
X170642857Y-100262475D01*
X170642857Y-99262475D02*
X169976191Y-100262475D01*
X170880953Y-99262475D02*
X171452381Y-99262475D01*
X171166667Y-100262475D02*
X171166667Y-99262475D01*
X171785715Y-100262475D02*
X171785715Y-99262475D01*
X172452381Y-99262475D02*
X172642857Y-99262475D01*
X172642857Y-99262475D02*
X172738095Y-99310094D01*
X172738095Y-99310094D02*
X172833333Y-99405332D01*
X172833333Y-99405332D02*
X172880952Y-99595808D01*
X172880952Y-99595808D02*
X172880952Y-99929141D01*
X172880952Y-99929141D02*
X172833333Y-100119617D01*
X172833333Y-100119617D02*
X172738095Y-100214856D01*
X172738095Y-100214856D02*
X172642857Y-100262475D01*
X172642857Y-100262475D02*
X172452381Y-100262475D01*
X172452381Y-100262475D02*
X172357143Y-100214856D01*
X172357143Y-100214856D02*
X172261905Y-100119617D01*
X172261905Y-100119617D02*
X172214286Y-99929141D01*
X172214286Y-99929141D02*
X172214286Y-99595808D01*
X172214286Y-99595808D02*
X172261905Y-99405332D01*
X172261905Y-99405332D02*
X172357143Y-99310094D01*
X172357143Y-99310094D02*
X172452381Y-99262475D01*
X173309524Y-100262475D02*
X173309524Y-99262475D01*
X173309524Y-99262475D02*
X173880952Y-100262475D01*
X173880952Y-100262475D02*
X173880952Y-99262475D01*
X165738095Y-100872419D02*
X166309523Y-100872419D01*
X166023809Y-101872419D02*
X166023809Y-100872419D01*
X166547619Y-100872419D02*
X167214285Y-101872419D01*
X167214285Y-100872419D02*
X166547619Y-101872419D01*
X168928571Y-101872419D02*
X168595238Y-101396228D01*
X168357143Y-101872419D02*
X168357143Y-100872419D01*
X168357143Y-100872419D02*
X168738095Y-100872419D01*
X168738095Y-100872419D02*
X168833333Y-100920038D01*
X168833333Y-100920038D02*
X168880952Y-100967657D01*
X168880952Y-100967657D02*
X168928571Y-101062895D01*
X168928571Y-101062895D02*
X168928571Y-101205752D01*
X168928571Y-101205752D02*
X168880952Y-101300990D01*
X168880952Y-101300990D02*
X168833333Y-101348609D01*
X168833333Y-101348609D02*
X168738095Y-101396228D01*
X168738095Y-101396228D02*
X168357143Y-101396228D01*
X169261905Y-100872419D02*
X169928571Y-101872419D01*
X169928571Y-100872419D02*
X169261905Y-101872419D01*
X171595238Y-100920038D02*
X171500000Y-100872419D01*
X171500000Y-100872419D02*
X171357143Y-100872419D01*
X171357143Y-100872419D02*
X171214286Y-100920038D01*
X171214286Y-100920038D02*
X171119048Y-101015276D01*
X171119048Y-101015276D02*
X171071429Y-101110514D01*
X171071429Y-101110514D02*
X171023810Y-101300990D01*
X171023810Y-101300990D02*
X171023810Y-101443847D01*
X171023810Y-101443847D02*
X171071429Y-101634323D01*
X171071429Y-101634323D02*
X171119048Y-101729561D01*
X171119048Y-101729561D02*
X171214286Y-101824800D01*
X171214286Y-101824800D02*
X171357143Y-101872419D01*
X171357143Y-101872419D02*
X171452381Y-101872419D01*
X171452381Y-101872419D02*
X171595238Y-101824800D01*
X171595238Y-101824800D02*
X171642857Y-101777180D01*
X171642857Y-101777180D02*
X171642857Y-101443847D01*
X171642857Y-101443847D02*
X171452381Y-101443847D01*
X172071429Y-101872419D02*
X172071429Y-100872419D01*
X172071429Y-100872419D02*
X172642857Y-101872419D01*
X172642857Y-101872419D02*
X172642857Y-100872419D01*
X173119048Y-101872419D02*
X173119048Y-100872419D01*
X173119048Y-100872419D02*
X173357143Y-100872419D01*
X173357143Y-100872419D02*
X173500000Y-100920038D01*
X173500000Y-100920038D02*
X173595238Y-101015276D01*
X173595238Y-101015276D02*
X173642857Y-101110514D01*
X173642857Y-101110514D02*
X173690476Y-101300990D01*
X173690476Y-101300990D02*
X173690476Y-101443847D01*
X173690476Y-101443847D02*
X173642857Y-101634323D01*
X173642857Y-101634323D02*
X173595238Y-101729561D01*
X173595238Y-101729561D02*
X173500000Y-101824800D01*
X173500000Y-101824800D02*
X173357143Y-101872419D01*
X173357143Y-101872419D02*
X173119048Y-101872419D01*
X175357143Y-100872419D02*
X174880953Y-100872419D01*
X174880953Y-100872419D02*
X174833334Y-101348609D01*
X174833334Y-101348609D02*
X174880953Y-101300990D01*
X174880953Y-101300990D02*
X174976191Y-101253371D01*
X174976191Y-101253371D02*
X175214286Y-101253371D01*
X175214286Y-101253371D02*
X175309524Y-101300990D01*
X175309524Y-101300990D02*
X175357143Y-101348609D01*
X175357143Y-101348609D02*
X175404762Y-101443847D01*
X175404762Y-101443847D02*
X175404762Y-101681942D01*
X175404762Y-101681942D02*
X175357143Y-101777180D01*
X175357143Y-101777180D02*
X175309524Y-101824800D01*
X175309524Y-101824800D02*
X175214286Y-101872419D01*
X175214286Y-101872419D02*
X174976191Y-101872419D01*
X174976191Y-101872419D02*
X174880953Y-101824800D01*
X174880953Y-101824800D02*
X174833334Y-101777180D01*
X175738096Y-101205752D02*
X175976191Y-101872419D01*
X175976191Y-101872419D02*
X176214286Y-101205752D01*
X87161027Y-83032895D02*
X87732455Y-83032895D01*
X87446741Y-83832895D02*
X87446741Y-83032895D01*
X88065789Y-83413847D02*
X88399122Y-83413847D01*
X88541979Y-83832895D02*
X88065789Y-83832895D01*
X88065789Y-83832895D02*
X88065789Y-83032895D01*
X88065789Y-83032895D02*
X88541979Y-83032895D01*
X88970551Y-83832895D02*
X88970551Y-83032895D01*
X88970551Y-83032895D02*
X89303884Y-83604323D01*
X89303884Y-83604323D02*
X89637217Y-83032895D01*
X89637217Y-83032895D02*
X89637217Y-83832895D01*
X90113408Y-83832895D02*
X90113408Y-83032895D01*
X90113408Y-83032895D02*
X90494360Y-83032895D01*
X90494360Y-83032895D02*
X90589598Y-83070990D01*
X90589598Y-83070990D02*
X90637217Y-83109085D01*
X90637217Y-83109085D02*
X90684836Y-83185276D01*
X90684836Y-83185276D02*
X90684836Y-83299561D01*
X90684836Y-83299561D02*
X90637217Y-83375752D01*
X90637217Y-83375752D02*
X90589598Y-83413847D01*
X90589598Y-83413847D02*
X90494360Y-83451942D01*
X90494360Y-83451942D02*
X90113408Y-83451942D01*
X91875313Y-83832895D02*
X91875313Y-83032895D01*
X91875313Y-83032895D02*
X92208646Y-83604323D01*
X92208646Y-83604323D02*
X92541979Y-83032895D01*
X92541979Y-83032895D02*
X92541979Y-83832895D01*
X93208646Y-83032895D02*
X93399122Y-83032895D01*
X93399122Y-83032895D02*
X93494360Y-83070990D01*
X93494360Y-83070990D02*
X93589598Y-83147180D01*
X93589598Y-83147180D02*
X93637217Y-83299561D01*
X93637217Y-83299561D02*
X93637217Y-83566228D01*
X93637217Y-83566228D02*
X93589598Y-83718609D01*
X93589598Y-83718609D02*
X93494360Y-83794800D01*
X93494360Y-83794800D02*
X93399122Y-83832895D01*
X93399122Y-83832895D02*
X93208646Y-83832895D01*
X93208646Y-83832895D02*
X93113408Y-83794800D01*
X93113408Y-83794800D02*
X93018170Y-83718609D01*
X93018170Y-83718609D02*
X92970551Y-83566228D01*
X92970551Y-83566228D02*
X92970551Y-83299561D01*
X92970551Y-83299561D02*
X93018170Y-83147180D01*
X93018170Y-83147180D02*
X93113408Y-83070990D01*
X93113408Y-83070990D02*
X93208646Y-83032895D01*
X94018170Y-83794800D02*
X94161027Y-83832895D01*
X94161027Y-83832895D02*
X94399122Y-83832895D01*
X94399122Y-83832895D02*
X94494360Y-83794800D01*
X94494360Y-83794800D02*
X94541979Y-83756704D01*
X94541979Y-83756704D02*
X94589598Y-83680514D01*
X94589598Y-83680514D02*
X94589598Y-83604323D01*
X94589598Y-83604323D02*
X94541979Y-83528133D01*
X94541979Y-83528133D02*
X94494360Y-83490038D01*
X94494360Y-83490038D02*
X94399122Y-83451942D01*
X94399122Y-83451942D02*
X94208646Y-83413847D01*
X94208646Y-83413847D02*
X94113408Y-83375752D01*
X94113408Y-83375752D02*
X94065789Y-83337657D01*
X94065789Y-83337657D02*
X94018170Y-83261466D01*
X94018170Y-83261466D02*
X94018170Y-83185276D01*
X94018170Y-83185276D02*
X94065789Y-83109085D01*
X94065789Y-83109085D02*
X94113408Y-83070990D01*
X94113408Y-83070990D02*
X94208646Y-83032895D01*
X94208646Y-83032895D02*
X94446741Y-83032895D01*
X94446741Y-83032895D02*
X94589598Y-83070990D01*
X95351503Y-83413847D02*
X95018170Y-83413847D01*
X95018170Y-83832895D02*
X95018170Y-83032895D01*
X95018170Y-83032895D02*
X95494360Y-83032895D01*
X95875313Y-83413847D02*
X96208646Y-83413847D01*
X96351503Y-83832895D02*
X95875313Y-83832895D01*
X95875313Y-83832895D02*
X95875313Y-83032895D01*
X95875313Y-83032895D02*
X96351503Y-83032895D01*
X96637218Y-83032895D02*
X97208646Y-83032895D01*
X96922932Y-83832895D02*
X96922932Y-83032895D01*
X98827694Y-83832895D02*
X98256266Y-83832895D01*
X98541980Y-83832895D02*
X98541980Y-83032895D01*
X98541980Y-83032895D02*
X98446742Y-83147180D01*
X98446742Y-83147180D02*
X98351504Y-83223371D01*
X98351504Y-83223371D02*
X98256266Y-83261466D01*
X87161027Y-85608805D02*
X87732455Y-85608805D01*
X87446741Y-86408805D02*
X87446741Y-85608805D01*
X88065789Y-85989757D02*
X88399122Y-85989757D01*
X88541979Y-86408805D02*
X88065789Y-86408805D01*
X88065789Y-86408805D02*
X88065789Y-85608805D01*
X88065789Y-85608805D02*
X88541979Y-85608805D01*
X88970551Y-86408805D02*
X88970551Y-85608805D01*
X88970551Y-85608805D02*
X89303884Y-86180233D01*
X89303884Y-86180233D02*
X89637217Y-85608805D01*
X89637217Y-85608805D02*
X89637217Y-86408805D01*
X90113408Y-86408805D02*
X90113408Y-85608805D01*
X90113408Y-85608805D02*
X90494360Y-85608805D01*
X90494360Y-85608805D02*
X90589598Y-85646900D01*
X90589598Y-85646900D02*
X90637217Y-85684995D01*
X90637217Y-85684995D02*
X90684836Y-85761186D01*
X90684836Y-85761186D02*
X90684836Y-85875471D01*
X90684836Y-85875471D02*
X90637217Y-85951662D01*
X90637217Y-85951662D02*
X90589598Y-85989757D01*
X90589598Y-85989757D02*
X90494360Y-86027852D01*
X90494360Y-86027852D02*
X90113408Y-86027852D01*
X91875313Y-86408805D02*
X91875313Y-85608805D01*
X91875313Y-85608805D02*
X92208646Y-86180233D01*
X92208646Y-86180233D02*
X92541979Y-85608805D01*
X92541979Y-85608805D02*
X92541979Y-86408805D01*
X93208646Y-85608805D02*
X93399122Y-85608805D01*
X93399122Y-85608805D02*
X93494360Y-85646900D01*
X93494360Y-85646900D02*
X93589598Y-85723090D01*
X93589598Y-85723090D02*
X93637217Y-85875471D01*
X93637217Y-85875471D02*
X93637217Y-86142138D01*
X93637217Y-86142138D02*
X93589598Y-86294519D01*
X93589598Y-86294519D02*
X93494360Y-86370710D01*
X93494360Y-86370710D02*
X93399122Y-86408805D01*
X93399122Y-86408805D02*
X93208646Y-86408805D01*
X93208646Y-86408805D02*
X93113408Y-86370710D01*
X93113408Y-86370710D02*
X93018170Y-86294519D01*
X93018170Y-86294519D02*
X92970551Y-86142138D01*
X92970551Y-86142138D02*
X92970551Y-85875471D01*
X92970551Y-85875471D02*
X93018170Y-85723090D01*
X93018170Y-85723090D02*
X93113408Y-85646900D01*
X93113408Y-85646900D02*
X93208646Y-85608805D01*
X94018170Y-86370710D02*
X94161027Y-86408805D01*
X94161027Y-86408805D02*
X94399122Y-86408805D01*
X94399122Y-86408805D02*
X94494360Y-86370710D01*
X94494360Y-86370710D02*
X94541979Y-86332614D01*
X94541979Y-86332614D02*
X94589598Y-86256424D01*
X94589598Y-86256424D02*
X94589598Y-86180233D01*
X94589598Y-86180233D02*
X94541979Y-86104043D01*
X94541979Y-86104043D02*
X94494360Y-86065948D01*
X94494360Y-86065948D02*
X94399122Y-86027852D01*
X94399122Y-86027852D02*
X94208646Y-85989757D01*
X94208646Y-85989757D02*
X94113408Y-85951662D01*
X94113408Y-85951662D02*
X94065789Y-85913567D01*
X94065789Y-85913567D02*
X94018170Y-85837376D01*
X94018170Y-85837376D02*
X94018170Y-85761186D01*
X94018170Y-85761186D02*
X94065789Y-85684995D01*
X94065789Y-85684995D02*
X94113408Y-85646900D01*
X94113408Y-85646900D02*
X94208646Y-85608805D01*
X94208646Y-85608805D02*
X94446741Y-85608805D01*
X94446741Y-85608805D02*
X94589598Y-85646900D01*
X95351503Y-85989757D02*
X95018170Y-85989757D01*
X95018170Y-86408805D02*
X95018170Y-85608805D01*
X95018170Y-85608805D02*
X95494360Y-85608805D01*
X95875313Y-85989757D02*
X96208646Y-85989757D01*
X96351503Y-86408805D02*
X95875313Y-86408805D01*
X95875313Y-86408805D02*
X95875313Y-85608805D01*
X95875313Y-85608805D02*
X96351503Y-85608805D01*
X96637218Y-85608805D02*
X97208646Y-85608805D01*
X96922932Y-86408805D02*
X96922932Y-85608805D01*
X98256266Y-85684995D02*
X98303885Y-85646900D01*
X98303885Y-85646900D02*
X98399123Y-85608805D01*
X98399123Y-85608805D02*
X98637218Y-85608805D01*
X98637218Y-85608805D02*
X98732456Y-85646900D01*
X98732456Y-85646900D02*
X98780075Y-85684995D01*
X98780075Y-85684995D02*
X98827694Y-85761186D01*
X98827694Y-85761186D02*
X98827694Y-85837376D01*
X98827694Y-85837376D02*
X98780075Y-85951662D01*
X98780075Y-85951662D02*
X98208647Y-86408805D01*
X98208647Y-86408805D02*
X98827694Y-86408805D01*
X87161027Y-88184715D02*
X87732455Y-88184715D01*
X87446741Y-88984715D02*
X87446741Y-88184715D01*
X88065789Y-88565667D02*
X88399122Y-88565667D01*
X88541979Y-88984715D02*
X88065789Y-88984715D01*
X88065789Y-88984715D02*
X88065789Y-88184715D01*
X88065789Y-88184715D02*
X88541979Y-88184715D01*
X88970551Y-88984715D02*
X88970551Y-88184715D01*
X88970551Y-88184715D02*
X89303884Y-88756143D01*
X89303884Y-88756143D02*
X89637217Y-88184715D01*
X89637217Y-88184715D02*
X89637217Y-88984715D01*
X90113408Y-88984715D02*
X90113408Y-88184715D01*
X90113408Y-88184715D02*
X90494360Y-88184715D01*
X90494360Y-88184715D02*
X90589598Y-88222810D01*
X90589598Y-88222810D02*
X90637217Y-88260905D01*
X90637217Y-88260905D02*
X90684836Y-88337096D01*
X90684836Y-88337096D02*
X90684836Y-88451381D01*
X90684836Y-88451381D02*
X90637217Y-88527572D01*
X90637217Y-88527572D02*
X90589598Y-88565667D01*
X90589598Y-88565667D02*
X90494360Y-88603762D01*
X90494360Y-88603762D02*
X90113408Y-88603762D01*
X91875313Y-88984715D02*
X91875313Y-88184715D01*
X91875313Y-88184715D02*
X92208646Y-88756143D01*
X92208646Y-88756143D02*
X92541979Y-88184715D01*
X92541979Y-88184715D02*
X92541979Y-88984715D01*
X93208646Y-88184715D02*
X93399122Y-88184715D01*
X93399122Y-88184715D02*
X93494360Y-88222810D01*
X93494360Y-88222810D02*
X93589598Y-88299000D01*
X93589598Y-88299000D02*
X93637217Y-88451381D01*
X93637217Y-88451381D02*
X93637217Y-88718048D01*
X93637217Y-88718048D02*
X93589598Y-88870429D01*
X93589598Y-88870429D02*
X93494360Y-88946620D01*
X93494360Y-88946620D02*
X93399122Y-88984715D01*
X93399122Y-88984715D02*
X93208646Y-88984715D01*
X93208646Y-88984715D02*
X93113408Y-88946620D01*
X93113408Y-88946620D02*
X93018170Y-88870429D01*
X93018170Y-88870429D02*
X92970551Y-88718048D01*
X92970551Y-88718048D02*
X92970551Y-88451381D01*
X92970551Y-88451381D02*
X93018170Y-88299000D01*
X93018170Y-88299000D02*
X93113408Y-88222810D01*
X93113408Y-88222810D02*
X93208646Y-88184715D01*
X94018170Y-88946620D02*
X94161027Y-88984715D01*
X94161027Y-88984715D02*
X94399122Y-88984715D01*
X94399122Y-88984715D02*
X94494360Y-88946620D01*
X94494360Y-88946620D02*
X94541979Y-88908524D01*
X94541979Y-88908524D02*
X94589598Y-88832334D01*
X94589598Y-88832334D02*
X94589598Y-88756143D01*
X94589598Y-88756143D02*
X94541979Y-88679953D01*
X94541979Y-88679953D02*
X94494360Y-88641858D01*
X94494360Y-88641858D02*
X94399122Y-88603762D01*
X94399122Y-88603762D02*
X94208646Y-88565667D01*
X94208646Y-88565667D02*
X94113408Y-88527572D01*
X94113408Y-88527572D02*
X94065789Y-88489477D01*
X94065789Y-88489477D02*
X94018170Y-88413286D01*
X94018170Y-88413286D02*
X94018170Y-88337096D01*
X94018170Y-88337096D02*
X94065789Y-88260905D01*
X94065789Y-88260905D02*
X94113408Y-88222810D01*
X94113408Y-88222810D02*
X94208646Y-88184715D01*
X94208646Y-88184715D02*
X94446741Y-88184715D01*
X94446741Y-88184715D02*
X94589598Y-88222810D01*
X95351503Y-88565667D02*
X95018170Y-88565667D01*
X95018170Y-88984715D02*
X95018170Y-88184715D01*
X95018170Y-88184715D02*
X95494360Y-88184715D01*
X95875313Y-88565667D02*
X96208646Y-88565667D01*
X96351503Y-88984715D02*
X95875313Y-88984715D01*
X95875313Y-88984715D02*
X95875313Y-88184715D01*
X95875313Y-88184715D02*
X96351503Y-88184715D01*
X96637218Y-88184715D02*
X97208646Y-88184715D01*
X96922932Y-88984715D02*
X96922932Y-88184715D01*
X98208647Y-88184715D02*
X98827694Y-88184715D01*
X98827694Y-88184715D02*
X98494361Y-88489477D01*
X98494361Y-88489477D02*
X98637218Y-88489477D01*
X98637218Y-88489477D02*
X98732456Y-88527572D01*
X98732456Y-88527572D02*
X98780075Y-88565667D01*
X98780075Y-88565667D02*
X98827694Y-88641858D01*
X98827694Y-88641858D02*
X98827694Y-88832334D01*
X98827694Y-88832334D02*
X98780075Y-88908524D01*
X98780075Y-88908524D02*
X98732456Y-88946620D01*
X98732456Y-88946620D02*
X98637218Y-88984715D01*
X98637218Y-88984715D02*
X98351504Y-88984715D01*
X98351504Y-88984715D02*
X98256266Y-88946620D01*
X98256266Y-88946620D02*
X98208647Y-88908524D01*
X87161027Y-90760625D02*
X87732455Y-90760625D01*
X87446741Y-91560625D02*
X87446741Y-90760625D01*
X88065789Y-91141577D02*
X88399122Y-91141577D01*
X88541979Y-91560625D02*
X88065789Y-91560625D01*
X88065789Y-91560625D02*
X88065789Y-90760625D01*
X88065789Y-90760625D02*
X88541979Y-90760625D01*
X88970551Y-91560625D02*
X88970551Y-90760625D01*
X88970551Y-90760625D02*
X89303884Y-91332053D01*
X89303884Y-91332053D02*
X89637217Y-90760625D01*
X89637217Y-90760625D02*
X89637217Y-91560625D01*
X90113408Y-91560625D02*
X90113408Y-90760625D01*
X90113408Y-90760625D02*
X90494360Y-90760625D01*
X90494360Y-90760625D02*
X90589598Y-90798720D01*
X90589598Y-90798720D02*
X90637217Y-90836815D01*
X90637217Y-90836815D02*
X90684836Y-90913006D01*
X90684836Y-90913006D02*
X90684836Y-91027291D01*
X90684836Y-91027291D02*
X90637217Y-91103482D01*
X90637217Y-91103482D02*
X90589598Y-91141577D01*
X90589598Y-91141577D02*
X90494360Y-91179672D01*
X90494360Y-91179672D02*
X90113408Y-91179672D01*
X91875313Y-91560625D02*
X91875313Y-90760625D01*
X91875313Y-90760625D02*
X92208646Y-91332053D01*
X92208646Y-91332053D02*
X92541979Y-90760625D01*
X92541979Y-90760625D02*
X92541979Y-91560625D01*
X93208646Y-90760625D02*
X93399122Y-90760625D01*
X93399122Y-90760625D02*
X93494360Y-90798720D01*
X93494360Y-90798720D02*
X93589598Y-90874910D01*
X93589598Y-90874910D02*
X93637217Y-91027291D01*
X93637217Y-91027291D02*
X93637217Y-91293958D01*
X93637217Y-91293958D02*
X93589598Y-91446339D01*
X93589598Y-91446339D02*
X93494360Y-91522530D01*
X93494360Y-91522530D02*
X93399122Y-91560625D01*
X93399122Y-91560625D02*
X93208646Y-91560625D01*
X93208646Y-91560625D02*
X93113408Y-91522530D01*
X93113408Y-91522530D02*
X93018170Y-91446339D01*
X93018170Y-91446339D02*
X92970551Y-91293958D01*
X92970551Y-91293958D02*
X92970551Y-91027291D01*
X92970551Y-91027291D02*
X93018170Y-90874910D01*
X93018170Y-90874910D02*
X93113408Y-90798720D01*
X93113408Y-90798720D02*
X93208646Y-90760625D01*
X94018170Y-91522530D02*
X94161027Y-91560625D01*
X94161027Y-91560625D02*
X94399122Y-91560625D01*
X94399122Y-91560625D02*
X94494360Y-91522530D01*
X94494360Y-91522530D02*
X94541979Y-91484434D01*
X94541979Y-91484434D02*
X94589598Y-91408244D01*
X94589598Y-91408244D02*
X94589598Y-91332053D01*
X94589598Y-91332053D02*
X94541979Y-91255863D01*
X94541979Y-91255863D02*
X94494360Y-91217768D01*
X94494360Y-91217768D02*
X94399122Y-91179672D01*
X94399122Y-91179672D02*
X94208646Y-91141577D01*
X94208646Y-91141577D02*
X94113408Y-91103482D01*
X94113408Y-91103482D02*
X94065789Y-91065387D01*
X94065789Y-91065387D02*
X94018170Y-90989196D01*
X94018170Y-90989196D02*
X94018170Y-90913006D01*
X94018170Y-90913006D02*
X94065789Y-90836815D01*
X94065789Y-90836815D02*
X94113408Y-90798720D01*
X94113408Y-90798720D02*
X94208646Y-90760625D01*
X94208646Y-90760625D02*
X94446741Y-90760625D01*
X94446741Y-90760625D02*
X94589598Y-90798720D01*
X95351503Y-91141577D02*
X95018170Y-91141577D01*
X95018170Y-91560625D02*
X95018170Y-90760625D01*
X95018170Y-90760625D02*
X95494360Y-90760625D01*
X95875313Y-91141577D02*
X96208646Y-91141577D01*
X96351503Y-91560625D02*
X95875313Y-91560625D01*
X95875313Y-91560625D02*
X95875313Y-90760625D01*
X95875313Y-90760625D02*
X96351503Y-90760625D01*
X96637218Y-90760625D02*
X97208646Y-90760625D01*
X96922932Y-91560625D02*
X96922932Y-90760625D01*
X98732456Y-91027291D02*
X98732456Y-91560625D01*
X98494361Y-90722530D02*
X98256266Y-91293958D01*
X98256266Y-91293958D02*
X98875313Y-91293958D01*
X87303884Y-94136535D02*
X87303884Y-93336535D01*
X87303884Y-93717487D02*
X87875312Y-93717487D01*
X87875312Y-94136535D02*
X87875312Y-93336535D01*
X88303884Y-93907963D02*
X88780074Y-93907963D01*
X88208646Y-94136535D02*
X88541979Y-93336535D01*
X88541979Y-93336535D02*
X88875312Y-94136535D01*
X89684836Y-94136535D02*
X89208646Y-94136535D01*
X89208646Y-94136535D02*
X89208646Y-93336535D01*
X90494360Y-94136535D02*
X90018170Y-94136535D01*
X90018170Y-94136535D02*
X90018170Y-93336535D01*
X87256265Y-96674350D02*
X87399122Y-96712445D01*
X87399122Y-96712445D02*
X87637217Y-96712445D01*
X87637217Y-96712445D02*
X87732455Y-96674350D01*
X87732455Y-96674350D02*
X87780074Y-96636254D01*
X87780074Y-96636254D02*
X87827693Y-96560064D01*
X87827693Y-96560064D02*
X87827693Y-96483873D01*
X87827693Y-96483873D02*
X87780074Y-96407683D01*
X87780074Y-96407683D02*
X87732455Y-96369588D01*
X87732455Y-96369588D02*
X87637217Y-96331492D01*
X87637217Y-96331492D02*
X87446741Y-96293397D01*
X87446741Y-96293397D02*
X87351503Y-96255302D01*
X87351503Y-96255302D02*
X87303884Y-96217207D01*
X87303884Y-96217207D02*
X87256265Y-96141016D01*
X87256265Y-96141016D02*
X87256265Y-96064826D01*
X87256265Y-96064826D02*
X87303884Y-95988635D01*
X87303884Y-95988635D02*
X87351503Y-95950540D01*
X87351503Y-95950540D02*
X87446741Y-95912445D01*
X87446741Y-95912445D02*
X87684836Y-95912445D01*
X87684836Y-95912445D02*
X87827693Y-95950540D01*
X88256265Y-96712445D02*
X88256265Y-95912445D01*
X89256264Y-95950540D02*
X89161026Y-95912445D01*
X89161026Y-95912445D02*
X89018169Y-95912445D01*
X89018169Y-95912445D02*
X88875312Y-95950540D01*
X88875312Y-95950540D02*
X88780074Y-96026730D01*
X88780074Y-96026730D02*
X88732455Y-96102921D01*
X88732455Y-96102921D02*
X88684836Y-96255302D01*
X88684836Y-96255302D02*
X88684836Y-96369588D01*
X88684836Y-96369588D02*
X88732455Y-96521969D01*
X88732455Y-96521969D02*
X88780074Y-96598159D01*
X88780074Y-96598159D02*
X88875312Y-96674350D01*
X88875312Y-96674350D02*
X89018169Y-96712445D01*
X89018169Y-96712445D02*
X89113407Y-96712445D01*
X89113407Y-96712445D02*
X89256264Y-96674350D01*
X89256264Y-96674350D02*
X89303883Y-96636254D01*
X89303883Y-96636254D02*
X89303883Y-96369588D01*
X89303883Y-96369588D02*
X89113407Y-96369588D01*
X89732455Y-96712445D02*
X89732455Y-95912445D01*
X89732455Y-95912445D02*
X90303883Y-96712445D01*
X90303883Y-96712445D02*
X90303883Y-95912445D01*
X91541979Y-96712445D02*
X91541979Y-95912445D01*
X91541979Y-95912445D02*
X91875312Y-96483873D01*
X91875312Y-96483873D02*
X92208645Y-95912445D01*
X92208645Y-95912445D02*
X92208645Y-96712445D01*
X92875312Y-95912445D02*
X93065788Y-95912445D01*
X93065788Y-95912445D02*
X93161026Y-95950540D01*
X93161026Y-95950540D02*
X93256264Y-96026730D01*
X93256264Y-96026730D02*
X93303883Y-96179111D01*
X93303883Y-96179111D02*
X93303883Y-96445778D01*
X93303883Y-96445778D02*
X93256264Y-96598159D01*
X93256264Y-96598159D02*
X93161026Y-96674350D01*
X93161026Y-96674350D02*
X93065788Y-96712445D01*
X93065788Y-96712445D02*
X92875312Y-96712445D01*
X92875312Y-96712445D02*
X92780074Y-96674350D01*
X92780074Y-96674350D02*
X92684836Y-96598159D01*
X92684836Y-96598159D02*
X92637217Y-96445778D01*
X92637217Y-96445778D02*
X92637217Y-96179111D01*
X92637217Y-96179111D02*
X92684836Y-96026730D01*
X92684836Y-96026730D02*
X92780074Y-95950540D01*
X92780074Y-95950540D02*
X92875312Y-95912445D01*
X93589598Y-95912445D02*
X94161026Y-95912445D01*
X93875312Y-96712445D02*
X93875312Y-95912445D01*
X94494360Y-96293397D02*
X94827693Y-96293397D01*
X94970550Y-96712445D02*
X94494360Y-96712445D01*
X94494360Y-96712445D02*
X94494360Y-95912445D01*
X94494360Y-95912445D02*
X94970550Y-95912445D01*
X95399122Y-95912445D02*
X95399122Y-96560064D01*
X95399122Y-96560064D02*
X95446741Y-96636254D01*
X95446741Y-96636254D02*
X95494360Y-96674350D01*
X95494360Y-96674350D02*
X95589598Y-96712445D01*
X95589598Y-96712445D02*
X95780074Y-96712445D01*
X95780074Y-96712445D02*
X95875312Y-96674350D01*
X95875312Y-96674350D02*
X95922931Y-96636254D01*
X95922931Y-96636254D02*
X95970550Y-96560064D01*
X95970550Y-96560064D02*
X95970550Y-95912445D01*
X97018169Y-96712445D02*
X96684836Y-96331492D01*
X96446741Y-96712445D02*
X96446741Y-95912445D01*
X96446741Y-95912445D02*
X96827693Y-95912445D01*
X96827693Y-95912445D02*
X96922931Y-95950540D01*
X96922931Y-95950540D02*
X96970550Y-95988635D01*
X96970550Y-95988635D02*
X97018169Y-96064826D01*
X97018169Y-96064826D02*
X97018169Y-96179111D01*
X97018169Y-96179111D02*
X96970550Y-96255302D01*
X96970550Y-96255302D02*
X96922931Y-96293397D01*
X96922931Y-96293397D02*
X96827693Y-96331492D01*
X96827693Y-96331492D02*
X96446741Y-96331492D01*
X87256265Y-99250260D02*
X87399122Y-99288355D01*
X87399122Y-99288355D02*
X87637217Y-99288355D01*
X87637217Y-99288355D02*
X87732455Y-99250260D01*
X87732455Y-99250260D02*
X87780074Y-99212164D01*
X87780074Y-99212164D02*
X87827693Y-99135974D01*
X87827693Y-99135974D02*
X87827693Y-99059783D01*
X87827693Y-99059783D02*
X87780074Y-98983593D01*
X87780074Y-98983593D02*
X87732455Y-98945498D01*
X87732455Y-98945498D02*
X87637217Y-98907402D01*
X87637217Y-98907402D02*
X87446741Y-98869307D01*
X87446741Y-98869307D02*
X87351503Y-98831212D01*
X87351503Y-98831212D02*
X87303884Y-98793117D01*
X87303884Y-98793117D02*
X87256265Y-98716926D01*
X87256265Y-98716926D02*
X87256265Y-98640736D01*
X87256265Y-98640736D02*
X87303884Y-98564545D01*
X87303884Y-98564545D02*
X87351503Y-98526450D01*
X87351503Y-98526450D02*
X87446741Y-98488355D01*
X87446741Y-98488355D02*
X87684836Y-98488355D01*
X87684836Y-98488355D02*
X87827693Y-98526450D01*
X88256265Y-99288355D02*
X88256265Y-98488355D01*
X89256264Y-98526450D02*
X89161026Y-98488355D01*
X89161026Y-98488355D02*
X89018169Y-98488355D01*
X89018169Y-98488355D02*
X88875312Y-98526450D01*
X88875312Y-98526450D02*
X88780074Y-98602640D01*
X88780074Y-98602640D02*
X88732455Y-98678831D01*
X88732455Y-98678831D02*
X88684836Y-98831212D01*
X88684836Y-98831212D02*
X88684836Y-98945498D01*
X88684836Y-98945498D02*
X88732455Y-99097879D01*
X88732455Y-99097879D02*
X88780074Y-99174069D01*
X88780074Y-99174069D02*
X88875312Y-99250260D01*
X88875312Y-99250260D02*
X89018169Y-99288355D01*
X89018169Y-99288355D02*
X89113407Y-99288355D01*
X89113407Y-99288355D02*
X89256264Y-99250260D01*
X89256264Y-99250260D02*
X89303883Y-99212164D01*
X89303883Y-99212164D02*
X89303883Y-98945498D01*
X89303883Y-98945498D02*
X89113407Y-98945498D01*
X89732455Y-99288355D02*
X89732455Y-98488355D01*
X89732455Y-98488355D02*
X90303883Y-99288355D01*
X90303883Y-99288355D02*
X90303883Y-98488355D01*
X92113407Y-99212164D02*
X92065788Y-99250260D01*
X92065788Y-99250260D02*
X91922931Y-99288355D01*
X91922931Y-99288355D02*
X91827693Y-99288355D01*
X91827693Y-99288355D02*
X91684836Y-99250260D01*
X91684836Y-99250260D02*
X91589598Y-99174069D01*
X91589598Y-99174069D02*
X91541979Y-99097879D01*
X91541979Y-99097879D02*
X91494360Y-98945498D01*
X91494360Y-98945498D02*
X91494360Y-98831212D01*
X91494360Y-98831212D02*
X91541979Y-98678831D01*
X91541979Y-98678831D02*
X91589598Y-98602640D01*
X91589598Y-98602640D02*
X91684836Y-98526450D01*
X91684836Y-98526450D02*
X91827693Y-98488355D01*
X91827693Y-98488355D02*
X91922931Y-98488355D01*
X91922931Y-98488355D02*
X92065788Y-98526450D01*
X92065788Y-98526450D02*
X92113407Y-98564545D01*
X92541979Y-99288355D02*
X92541979Y-98488355D01*
X92541979Y-98869307D02*
X93113407Y-98869307D01*
X93113407Y-99288355D02*
X93113407Y-98488355D01*
X93541979Y-99059783D02*
X94018169Y-99059783D01*
X93446741Y-99288355D02*
X93780074Y-98488355D01*
X93780074Y-98488355D02*
X94113407Y-99288355D01*
X94446741Y-98488355D02*
X94446741Y-99135974D01*
X94446741Y-99135974D02*
X94494360Y-99212164D01*
X94494360Y-99212164D02*
X94541979Y-99250260D01*
X94541979Y-99250260D02*
X94637217Y-99288355D01*
X94637217Y-99288355D02*
X94827693Y-99288355D01*
X94827693Y-99288355D02*
X94922931Y-99250260D01*
X94922931Y-99250260D02*
X94970550Y-99212164D01*
X94970550Y-99212164D02*
X95018169Y-99135974D01*
X95018169Y-99135974D02*
X95018169Y-98488355D01*
X95827693Y-98869307D02*
X95494360Y-98869307D01*
X95494360Y-99288355D02*
X95494360Y-98488355D01*
X95494360Y-98488355D02*
X95970550Y-98488355D01*
X96684836Y-98869307D02*
X96351503Y-98869307D01*
X96351503Y-99288355D02*
X96351503Y-98488355D01*
X96351503Y-98488355D02*
X96827693Y-98488355D01*
X97208646Y-98869307D02*
X97541979Y-98869307D01*
X97684836Y-99288355D02*
X97208646Y-99288355D01*
X97208646Y-99288355D02*
X97208646Y-98488355D01*
X97208646Y-98488355D02*
X97684836Y-98488355D01*
X87303884Y-101864265D02*
X87303884Y-101064265D01*
X87303884Y-101064265D02*
X87875312Y-101864265D01*
X87875312Y-101864265D02*
X87875312Y-101064265D01*
X88351503Y-101445217D02*
X88684836Y-101445217D01*
X88827693Y-101864265D02*
X88351503Y-101864265D01*
X88351503Y-101864265D02*
X88351503Y-101064265D01*
X88351503Y-101064265D02*
X88827693Y-101064265D01*
X89161027Y-101064265D02*
X89827693Y-101864265D01*
X89827693Y-101064265D02*
X89161027Y-101864265D01*
X90065789Y-101064265D02*
X90637217Y-101064265D01*
X90351503Y-101864265D02*
X90351503Y-101064265D01*
X90970551Y-101864265D02*
X90970551Y-101064265D01*
X91637217Y-101064265D02*
X91827693Y-101064265D01*
X91827693Y-101064265D02*
X91922931Y-101102360D01*
X91922931Y-101102360D02*
X92018169Y-101178550D01*
X92018169Y-101178550D02*
X92065788Y-101330931D01*
X92065788Y-101330931D02*
X92065788Y-101597598D01*
X92065788Y-101597598D02*
X92018169Y-101749979D01*
X92018169Y-101749979D02*
X91922931Y-101826170D01*
X91922931Y-101826170D02*
X91827693Y-101864265D01*
X91827693Y-101864265D02*
X91637217Y-101864265D01*
X91637217Y-101864265D02*
X91541979Y-101826170D01*
X91541979Y-101826170D02*
X91446741Y-101749979D01*
X91446741Y-101749979D02*
X91399122Y-101597598D01*
X91399122Y-101597598D02*
X91399122Y-101330931D01*
X91399122Y-101330931D02*
X91446741Y-101178550D01*
X91446741Y-101178550D02*
X91541979Y-101102360D01*
X91541979Y-101102360D02*
X91637217Y-101064265D01*
X92494360Y-101864265D02*
X92494360Y-101064265D01*
X92494360Y-101064265D02*
X93065788Y-101864265D01*
X93065788Y-101864265D02*
X93065788Y-101064265D01*
X94161027Y-101064265D02*
X94732455Y-101064265D01*
X94446741Y-101864265D02*
X94446741Y-101064265D01*
X94970551Y-101064265D02*
X95637217Y-101864265D01*
X95637217Y-101064265D02*
X94970551Y-101864265D01*
X87303884Y-104440175D02*
X87303884Y-103640175D01*
X87303884Y-103640175D02*
X87875312Y-104440175D01*
X87875312Y-104440175D02*
X87875312Y-103640175D01*
X88351503Y-104021127D02*
X88684836Y-104021127D01*
X88827693Y-104440175D02*
X88351503Y-104440175D01*
X88351503Y-104440175D02*
X88351503Y-103640175D01*
X88351503Y-103640175D02*
X88827693Y-103640175D01*
X89161027Y-103640175D02*
X89827693Y-104440175D01*
X89827693Y-103640175D02*
X89161027Y-104440175D01*
X90065789Y-103640175D02*
X90637217Y-103640175D01*
X90351503Y-104440175D02*
X90351503Y-103640175D01*
X90970551Y-104440175D02*
X90970551Y-103640175D01*
X91637217Y-103640175D02*
X91827693Y-103640175D01*
X91827693Y-103640175D02*
X91922931Y-103678270D01*
X91922931Y-103678270D02*
X92018169Y-103754460D01*
X92018169Y-103754460D02*
X92065788Y-103906841D01*
X92065788Y-103906841D02*
X92065788Y-104173508D01*
X92065788Y-104173508D02*
X92018169Y-104325889D01*
X92018169Y-104325889D02*
X91922931Y-104402080D01*
X91922931Y-104402080D02*
X91827693Y-104440175D01*
X91827693Y-104440175D02*
X91637217Y-104440175D01*
X91637217Y-104440175D02*
X91541979Y-104402080D01*
X91541979Y-104402080D02*
X91446741Y-104325889D01*
X91446741Y-104325889D02*
X91399122Y-104173508D01*
X91399122Y-104173508D02*
X91399122Y-103906841D01*
X91399122Y-103906841D02*
X91446741Y-103754460D01*
X91446741Y-103754460D02*
X91541979Y-103678270D01*
X91541979Y-103678270D02*
X91637217Y-103640175D01*
X92494360Y-104440175D02*
X92494360Y-103640175D01*
X92494360Y-103640175D02*
X93065788Y-104440175D01*
X93065788Y-104440175D02*
X93065788Y-103640175D01*
X94875312Y-104440175D02*
X94541979Y-104059222D01*
X94303884Y-104440175D02*
X94303884Y-103640175D01*
X94303884Y-103640175D02*
X94684836Y-103640175D01*
X94684836Y-103640175D02*
X94780074Y-103678270D01*
X94780074Y-103678270D02*
X94827693Y-103716365D01*
X94827693Y-103716365D02*
X94875312Y-103792556D01*
X94875312Y-103792556D02*
X94875312Y-103906841D01*
X94875312Y-103906841D02*
X94827693Y-103983032D01*
X94827693Y-103983032D02*
X94780074Y-104021127D01*
X94780074Y-104021127D02*
X94684836Y-104059222D01*
X94684836Y-104059222D02*
X94303884Y-104059222D01*
X95208646Y-103640175D02*
X95875312Y-104440175D01*
X95875312Y-103640175D02*
X95208646Y-104440175D01*
X87208646Y-106216085D02*
X87827693Y-106216085D01*
X87827693Y-106216085D02*
X87494360Y-106520847D01*
X87494360Y-106520847D02*
X87637217Y-106520847D01*
X87637217Y-106520847D02*
X87732455Y-106558942D01*
X87732455Y-106558942D02*
X87780074Y-106597037D01*
X87780074Y-106597037D02*
X87827693Y-106673228D01*
X87827693Y-106673228D02*
X87827693Y-106863704D01*
X87827693Y-106863704D02*
X87780074Y-106939894D01*
X87780074Y-106939894D02*
X87732455Y-106977990D01*
X87732455Y-106977990D02*
X87637217Y-107016085D01*
X87637217Y-107016085D02*
X87351503Y-107016085D01*
X87351503Y-107016085D02*
X87256265Y-106977990D01*
X87256265Y-106977990D02*
X87208646Y-106939894D01*
X88161027Y-106482751D02*
X88399122Y-107016085D01*
X88399122Y-107016085D02*
X88637217Y-106482751D01*
X88922932Y-106216085D02*
X89541979Y-106216085D01*
X89541979Y-106216085D02*
X89208646Y-106520847D01*
X89208646Y-106520847D02*
X89351503Y-106520847D01*
X89351503Y-106520847D02*
X89446741Y-106558942D01*
X89446741Y-106558942D02*
X89494360Y-106597037D01*
X89494360Y-106597037D02*
X89541979Y-106673228D01*
X89541979Y-106673228D02*
X89541979Y-106863704D01*
X89541979Y-106863704D02*
X89494360Y-106939894D01*
X89494360Y-106939894D02*
X89446741Y-106977990D01*
X89446741Y-106977990D02*
X89351503Y-107016085D01*
X89351503Y-107016085D02*
X89065789Y-107016085D01*
X89065789Y-107016085D02*
X88970551Y-106977990D01*
X88970551Y-106977990D02*
X88922932Y-106939894D01*
X87303884Y-109287233D02*
X88065789Y-109287233D01*
X87684836Y-109591995D02*
X87684836Y-108982471D01*
X89018169Y-108791995D02*
X88541979Y-108791995D01*
X88541979Y-108791995D02*
X88494360Y-109172947D01*
X88494360Y-109172947D02*
X88541979Y-109134852D01*
X88541979Y-109134852D02*
X88637217Y-109096757D01*
X88637217Y-109096757D02*
X88875312Y-109096757D01*
X88875312Y-109096757D02*
X88970550Y-109134852D01*
X88970550Y-109134852D02*
X89018169Y-109172947D01*
X89018169Y-109172947D02*
X89065788Y-109249138D01*
X89065788Y-109249138D02*
X89065788Y-109439614D01*
X89065788Y-109439614D02*
X89018169Y-109515804D01*
X89018169Y-109515804D02*
X88970550Y-109553900D01*
X88970550Y-109553900D02*
X88875312Y-109591995D01*
X88875312Y-109591995D02*
X88637217Y-109591995D01*
X88637217Y-109591995D02*
X88541979Y-109553900D01*
X88541979Y-109553900D02*
X88494360Y-109515804D01*
X89399122Y-109058661D02*
X89637217Y-109591995D01*
X89637217Y-109591995D02*
X89875312Y-109058661D01*
X87827693Y-111406000D02*
X87732455Y-111367905D01*
X87732455Y-111367905D02*
X87589598Y-111367905D01*
X87589598Y-111367905D02*
X87446741Y-111406000D01*
X87446741Y-111406000D02*
X87351503Y-111482190D01*
X87351503Y-111482190D02*
X87303884Y-111558381D01*
X87303884Y-111558381D02*
X87256265Y-111710762D01*
X87256265Y-111710762D02*
X87256265Y-111825048D01*
X87256265Y-111825048D02*
X87303884Y-111977429D01*
X87303884Y-111977429D02*
X87351503Y-112053619D01*
X87351503Y-112053619D02*
X87446741Y-112129810D01*
X87446741Y-112129810D02*
X87589598Y-112167905D01*
X87589598Y-112167905D02*
X87684836Y-112167905D01*
X87684836Y-112167905D02*
X87827693Y-112129810D01*
X87827693Y-112129810D02*
X87875312Y-112091714D01*
X87875312Y-112091714D02*
X87875312Y-111825048D01*
X87875312Y-111825048D02*
X87684836Y-111825048D01*
X88303884Y-112167905D02*
X88303884Y-111367905D01*
X88303884Y-111367905D02*
X88875312Y-112167905D01*
X88875312Y-112167905D02*
X88875312Y-111367905D01*
X89351503Y-112167905D02*
X89351503Y-111367905D01*
X89351503Y-111367905D02*
X89589598Y-111367905D01*
X89589598Y-111367905D02*
X89732455Y-111406000D01*
X89732455Y-111406000D02*
X89827693Y-111482190D01*
X89827693Y-111482190D02*
X89875312Y-111558381D01*
X89875312Y-111558381D02*
X89922931Y-111710762D01*
X89922931Y-111710762D02*
X89922931Y-111825048D01*
X89922931Y-111825048D02*
X89875312Y-111977429D01*
X89875312Y-111977429D02*
X89827693Y-112053619D01*
X89827693Y-112053619D02*
X89732455Y-112129810D01*
X89732455Y-112129810D02*
X89589598Y-112167905D01*
X89589598Y-112167905D02*
X89351503Y-112167905D01*
X121999999Y-36338365D02*
X121238095Y-36338365D01*
X121619047Y-35957412D02*
X121619047Y-36719317D01*
X120809523Y-36862174D02*
X120761904Y-36909793D01*
X120761904Y-36909793D02*
X120666666Y-36957412D01*
X120666666Y-36957412D02*
X120428571Y-36957412D01*
X120428571Y-36957412D02*
X120333333Y-36909793D01*
X120333333Y-36909793D02*
X120285714Y-36862174D01*
X120285714Y-36862174D02*
X120238095Y-36766936D01*
X120238095Y-36766936D02*
X120238095Y-36671698D01*
X120238095Y-36671698D02*
X120285714Y-36528841D01*
X120285714Y-36528841D02*
X120857142Y-35957412D01*
X120857142Y-35957412D02*
X120238095Y-35957412D01*
X119380952Y-36624079D02*
X119380952Y-35957412D01*
X119619047Y-37005032D02*
X119857142Y-36290746D01*
X119857142Y-36290746D02*
X119238095Y-36290746D01*
X116047618Y-36909793D02*
X116142856Y-36957412D01*
X116142856Y-36957412D02*
X116285713Y-36957412D01*
X116285713Y-36957412D02*
X116428570Y-36909793D01*
X116428570Y-36909793D02*
X116523808Y-36814555D01*
X116523808Y-36814555D02*
X116571427Y-36719317D01*
X116571427Y-36719317D02*
X116619046Y-36528841D01*
X116619046Y-36528841D02*
X116619046Y-36385984D01*
X116619046Y-36385984D02*
X116571427Y-36195508D01*
X116571427Y-36195508D02*
X116523808Y-36100270D01*
X116523808Y-36100270D02*
X116428570Y-36005032D01*
X116428570Y-36005032D02*
X116285713Y-35957412D01*
X116285713Y-35957412D02*
X116190475Y-35957412D01*
X116190475Y-35957412D02*
X116047618Y-36005032D01*
X116047618Y-36005032D02*
X115999999Y-36052651D01*
X115999999Y-36052651D02*
X115999999Y-36385984D01*
X115999999Y-36385984D02*
X116190475Y-36385984D01*
X115571427Y-35957412D02*
X115571427Y-36957412D01*
X115571427Y-36957412D02*
X114999999Y-35957412D01*
X114999999Y-35957412D02*
X114999999Y-36957412D01*
X114523808Y-35957412D02*
X114523808Y-36957412D01*
X114523808Y-36957412D02*
X114285713Y-36957412D01*
X114285713Y-36957412D02*
X114142856Y-36909793D01*
X114142856Y-36909793D02*
X114047618Y-36814555D01*
X114047618Y-36814555D02*
X113999999Y-36719317D01*
X113999999Y-36719317D02*
X113952380Y-36528841D01*
X113952380Y-36528841D02*
X113952380Y-36385984D01*
X113952380Y-36385984D02*
X113999999Y-36195508D01*
X113999999Y-36195508D02*
X114047618Y-36100270D01*
X114047618Y-36100270D02*
X114142856Y-36005032D01*
X114142856Y-36005032D02*
X114285713Y-35957412D01*
X114285713Y-35957412D02*
X114523808Y-35957412D01*
X120714285Y-34347468D02*
X120714285Y-35347468D01*
X120714285Y-35347468D02*
X120380952Y-34633183D01*
X120380952Y-34633183D02*
X120047619Y-35347468D01*
X120047619Y-35347468D02*
X120047619Y-34347468D01*
X119380952Y-35347468D02*
X119190476Y-35347468D01*
X119190476Y-35347468D02*
X119095238Y-35299849D01*
X119095238Y-35299849D02*
X119000000Y-35204611D01*
X119000000Y-35204611D02*
X118952381Y-35014135D01*
X118952381Y-35014135D02*
X118952381Y-34680802D01*
X118952381Y-34680802D02*
X119000000Y-34490326D01*
X119000000Y-34490326D02*
X119095238Y-34395088D01*
X119095238Y-34395088D02*
X119190476Y-34347468D01*
X119190476Y-34347468D02*
X119380952Y-34347468D01*
X119380952Y-34347468D02*
X119476190Y-34395088D01*
X119476190Y-34395088D02*
X119571428Y-34490326D01*
X119571428Y-34490326D02*
X119619047Y-34680802D01*
X119619047Y-34680802D02*
X119619047Y-35014135D01*
X119619047Y-35014135D02*
X119571428Y-35204611D01*
X119571428Y-35204611D02*
X119476190Y-35299849D01*
X119476190Y-35299849D02*
X119380952Y-35347468D01*
X118666666Y-35347468D02*
X118095238Y-35347468D01*
X118380952Y-34347468D02*
X118380952Y-35347468D01*
X117761904Y-34871278D02*
X117428571Y-34871278D01*
X117285714Y-34347468D02*
X117761904Y-34347468D01*
X117761904Y-34347468D02*
X117761904Y-35347468D01*
X117761904Y-35347468D02*
X117285714Y-35347468D01*
X116857142Y-35347468D02*
X116857142Y-34537945D01*
X116857142Y-34537945D02*
X116809523Y-34442707D01*
X116809523Y-34442707D02*
X116761904Y-34395088D01*
X116761904Y-34395088D02*
X116666666Y-34347468D01*
X116666666Y-34347468D02*
X116476190Y-34347468D01*
X116476190Y-34347468D02*
X116380952Y-34395088D01*
X116380952Y-34395088D02*
X116333333Y-34442707D01*
X116333333Y-34442707D02*
X116285714Y-34537945D01*
X116285714Y-34537945D02*
X116285714Y-35347468D01*
X115238095Y-34347468D02*
X115571428Y-34823659D01*
X115809523Y-34347468D02*
X115809523Y-35347468D01*
X115809523Y-35347468D02*
X115428571Y-35347468D01*
X115428571Y-35347468D02*
X115333333Y-35299849D01*
X115333333Y-35299849D02*
X115285714Y-35252230D01*
X115285714Y-35252230D02*
X115238095Y-35156992D01*
X115238095Y-35156992D02*
X115238095Y-35014135D01*
X115238095Y-35014135D02*
X115285714Y-34918897D01*
X115285714Y-34918897D02*
X115333333Y-34871278D01*
X115333333Y-34871278D02*
X115428571Y-34823659D01*
X115428571Y-34823659D02*
X115809523Y-34823659D01*
X106161027Y-80872419D02*
X106732455Y-80872419D01*
X106446741Y-81872419D02*
X106446741Y-80872419D01*
X107065789Y-81348609D02*
X107399122Y-81348609D01*
X107541979Y-81872419D02*
X107065789Y-81872419D01*
X107065789Y-81872419D02*
X107065789Y-80872419D01*
X107065789Y-80872419D02*
X107541979Y-80872419D01*
X107970551Y-81872419D02*
X107970551Y-80872419D01*
X107970551Y-80872419D02*
X108303884Y-81586704D01*
X108303884Y-81586704D02*
X108637217Y-80872419D01*
X108637217Y-80872419D02*
X108637217Y-81872419D01*
X109113408Y-81872419D02*
X109113408Y-80872419D01*
X109113408Y-80872419D02*
X109494360Y-80872419D01*
X109494360Y-80872419D02*
X109589598Y-80920038D01*
X109589598Y-80920038D02*
X109637217Y-80967657D01*
X109637217Y-80967657D02*
X109684836Y-81062895D01*
X109684836Y-81062895D02*
X109684836Y-81205752D01*
X109684836Y-81205752D02*
X109637217Y-81300990D01*
X109637217Y-81300990D02*
X109589598Y-81348609D01*
X109589598Y-81348609D02*
X109494360Y-81396228D01*
X109494360Y-81396228D02*
X109113408Y-81396228D01*
X110827694Y-81824800D02*
X110970551Y-81872419D01*
X110970551Y-81872419D02*
X111208646Y-81872419D01*
X111208646Y-81872419D02*
X111303884Y-81824800D01*
X111303884Y-81824800D02*
X111351503Y-81777180D01*
X111351503Y-81777180D02*
X111399122Y-81681942D01*
X111399122Y-81681942D02*
X111399122Y-81586704D01*
X111399122Y-81586704D02*
X111351503Y-81491466D01*
X111351503Y-81491466D02*
X111303884Y-81443847D01*
X111303884Y-81443847D02*
X111208646Y-81396228D01*
X111208646Y-81396228D02*
X111018170Y-81348609D01*
X111018170Y-81348609D02*
X110922932Y-81300990D01*
X110922932Y-81300990D02*
X110875313Y-81253371D01*
X110875313Y-81253371D02*
X110827694Y-81158133D01*
X110827694Y-81158133D02*
X110827694Y-81062895D01*
X110827694Y-81062895D02*
X110875313Y-80967657D01*
X110875313Y-80967657D02*
X110922932Y-80920038D01*
X110922932Y-80920038D02*
X111018170Y-80872419D01*
X111018170Y-80872419D02*
X111256265Y-80872419D01*
X111256265Y-80872419D02*
X111399122Y-80920038D01*
X111827694Y-81348609D02*
X112161027Y-81348609D01*
X112303884Y-81872419D02*
X111827694Y-81872419D01*
X111827694Y-81872419D02*
X111827694Y-80872419D01*
X111827694Y-80872419D02*
X112303884Y-80872419D01*
X112732456Y-81872419D02*
X112732456Y-80872419D01*
X112732456Y-80872419D02*
X113303884Y-81872419D01*
X113303884Y-81872419D02*
X113303884Y-80872419D01*
X113732456Y-81824800D02*
X113875313Y-81872419D01*
X113875313Y-81872419D02*
X114113408Y-81872419D01*
X114113408Y-81872419D02*
X114208646Y-81824800D01*
X114208646Y-81824800D02*
X114256265Y-81777180D01*
X114256265Y-81777180D02*
X114303884Y-81681942D01*
X114303884Y-81681942D02*
X114303884Y-81586704D01*
X114303884Y-81586704D02*
X114256265Y-81491466D01*
X114256265Y-81491466D02*
X114208646Y-81443847D01*
X114208646Y-81443847D02*
X114113408Y-81396228D01*
X114113408Y-81396228D02*
X113922932Y-81348609D01*
X113922932Y-81348609D02*
X113827694Y-81300990D01*
X113827694Y-81300990D02*
X113780075Y-81253371D01*
X113780075Y-81253371D02*
X113732456Y-81158133D01*
X113732456Y-81158133D02*
X113732456Y-81062895D01*
X113732456Y-81062895D02*
X113780075Y-80967657D01*
X113780075Y-80967657D02*
X113827694Y-80920038D01*
X113827694Y-80920038D02*
X113922932Y-80872419D01*
X113922932Y-80872419D02*
X114161027Y-80872419D01*
X114161027Y-80872419D02*
X114303884Y-80920038D01*
X114922932Y-80872419D02*
X115113408Y-80872419D01*
X115113408Y-80872419D02*
X115208646Y-80920038D01*
X115208646Y-80920038D02*
X115303884Y-81015276D01*
X115303884Y-81015276D02*
X115351503Y-81205752D01*
X115351503Y-81205752D02*
X115351503Y-81539085D01*
X115351503Y-81539085D02*
X115303884Y-81729561D01*
X115303884Y-81729561D02*
X115208646Y-81824800D01*
X115208646Y-81824800D02*
X115113408Y-81872419D01*
X115113408Y-81872419D02*
X114922932Y-81872419D01*
X114922932Y-81872419D02*
X114827694Y-81824800D01*
X114827694Y-81824800D02*
X114732456Y-81729561D01*
X114732456Y-81729561D02*
X114684837Y-81539085D01*
X114684837Y-81539085D02*
X114684837Y-81205752D01*
X114684837Y-81205752D02*
X114732456Y-81015276D01*
X114732456Y-81015276D02*
X114827694Y-80920038D01*
X114827694Y-80920038D02*
X114922932Y-80872419D01*
X116351503Y-81872419D02*
X116018170Y-81396228D01*
X115780075Y-81872419D02*
X115780075Y-80872419D01*
X115780075Y-80872419D02*
X116161027Y-80872419D01*
X116161027Y-80872419D02*
X116256265Y-80920038D01*
X116256265Y-80920038D02*
X116303884Y-80967657D01*
X116303884Y-80967657D02*
X116351503Y-81062895D01*
X116351503Y-81062895D02*
X116351503Y-81205752D01*
X116351503Y-81205752D02*
X116303884Y-81300990D01*
X116303884Y-81300990D02*
X116256265Y-81348609D01*
X116256265Y-81348609D02*
X116161027Y-81396228D01*
X116161027Y-81396228D02*
X115780075Y-81396228D01*
X118065789Y-81872419D02*
X117494361Y-81872419D01*
X117780075Y-81872419D02*
X117780075Y-80872419D01*
X117780075Y-80872419D02*
X117684837Y-81015276D01*
X117684837Y-81015276D02*
X117589599Y-81110514D01*
X117589599Y-81110514D02*
X117494361Y-81158133D01*
X109860241Y-101167419D02*
X110050717Y-101167419D01*
X110050717Y-101167419D02*
X110145955Y-101215038D01*
X110145955Y-101215038D02*
X110241193Y-101310276D01*
X110241193Y-101310276D02*
X110288812Y-101500752D01*
X110288812Y-101500752D02*
X110288812Y-101834085D01*
X110288812Y-101834085D02*
X110241193Y-102024561D01*
X110241193Y-102024561D02*
X110145955Y-102119800D01*
X110145955Y-102119800D02*
X110050717Y-102167419D01*
X110050717Y-102167419D02*
X109860241Y-102167419D01*
X109860241Y-102167419D02*
X109765003Y-102119800D01*
X109765003Y-102119800D02*
X109669765Y-102024561D01*
X109669765Y-102024561D02*
X109622146Y-101834085D01*
X109622146Y-101834085D02*
X109622146Y-101500752D01*
X109622146Y-101500752D02*
X109669765Y-101310276D01*
X109669765Y-101310276D02*
X109765003Y-101215038D01*
X109765003Y-101215038D02*
X109860241Y-101167419D01*
X110717384Y-102167419D02*
X110717384Y-101167419D01*
X111669764Y-102167419D02*
X111193574Y-102167419D01*
X111193574Y-102167419D02*
X111193574Y-101167419D01*
X112622146Y-101167419D02*
X113193574Y-101167419D01*
X112907860Y-102167419D02*
X112907860Y-101167419D01*
X113526908Y-101643609D02*
X113860241Y-101643609D01*
X114003098Y-102167419D02*
X113526908Y-102167419D01*
X113526908Y-102167419D02*
X113526908Y-101167419D01*
X113526908Y-101167419D02*
X114003098Y-101167419D01*
X114431670Y-102167419D02*
X114431670Y-101167419D01*
X114431670Y-101167419D02*
X114765003Y-101881704D01*
X114765003Y-101881704D02*
X115098336Y-101167419D01*
X115098336Y-101167419D02*
X115098336Y-102167419D01*
X115574527Y-102167419D02*
X115574527Y-101167419D01*
X115574527Y-101167419D02*
X115955479Y-101167419D01*
X115955479Y-101167419D02*
X116050717Y-101215038D01*
X116050717Y-101215038D02*
X116098336Y-101262657D01*
X116098336Y-101262657D02*
X116145955Y-101357895D01*
X116145955Y-101357895D02*
X116145955Y-101500752D01*
X116145955Y-101500752D02*
X116098336Y-101595990D01*
X116098336Y-101595990D02*
X116050717Y-101643609D01*
X116050717Y-101643609D02*
X115955479Y-101691228D01*
X115955479Y-101691228D02*
X115574527Y-101691228D01*
X202603098Y-112423609D02*
X202269765Y-112423609D01*
X202269765Y-112947419D02*
X202269765Y-111947419D01*
X202269765Y-111947419D02*
X202745955Y-111947419D01*
X203079289Y-112661704D02*
X203555479Y-112661704D01*
X202984051Y-112947419D02*
X203317384Y-111947419D01*
X203317384Y-111947419D02*
X203650717Y-112947419D01*
X203984051Y-112947419D02*
X203984051Y-111947419D01*
X203984051Y-111947419D02*
X204555479Y-112947419D01*
X204555479Y-112947419D02*
X204555479Y-111947419D01*
D11*
X92336779Y-38259875D02*
X92336779Y-37259875D01*
X92336779Y-37259875D02*
X92908207Y-38259875D01*
X92908207Y-38259875D02*
X92908207Y-37259875D01*
X93384398Y-38259875D02*
X93384398Y-37593208D01*
X93384398Y-37259875D02*
X93336779Y-37307494D01*
X93336779Y-37307494D02*
X93384398Y-37355113D01*
X93384398Y-37355113D02*
X93432017Y-37307494D01*
X93432017Y-37307494D02*
X93384398Y-37259875D01*
X93384398Y-37259875D02*
X93384398Y-37355113D01*
X93717731Y-37593208D02*
X94098683Y-37593208D01*
X93860588Y-37259875D02*
X93860588Y-38117017D01*
X93860588Y-38117017D02*
X93908207Y-38212256D01*
X93908207Y-38212256D02*
X94003445Y-38259875D01*
X94003445Y-38259875D02*
X94098683Y-38259875D01*
X94432017Y-38259875D02*
X94432017Y-37593208D01*
X94432017Y-37783684D02*
X94479636Y-37688446D01*
X94479636Y-37688446D02*
X94527255Y-37640827D01*
X94527255Y-37640827D02*
X94622493Y-37593208D01*
X94622493Y-37593208D02*
X94717731Y-37593208D01*
X95193922Y-38259875D02*
X95098684Y-38212256D01*
X95098684Y-38212256D02*
X95051065Y-38164636D01*
X95051065Y-38164636D02*
X95003446Y-38069398D01*
X95003446Y-38069398D02*
X95003446Y-37783684D01*
X95003446Y-37783684D02*
X95051065Y-37688446D01*
X95051065Y-37688446D02*
X95098684Y-37640827D01*
X95098684Y-37640827D02*
X95193922Y-37593208D01*
X95193922Y-37593208D02*
X95336779Y-37593208D01*
X95336779Y-37593208D02*
X95432017Y-37640827D01*
X95432017Y-37640827D02*
X95479636Y-37688446D01*
X95479636Y-37688446D02*
X95527255Y-37783684D01*
X95527255Y-37783684D02*
X95527255Y-38069398D01*
X95527255Y-38069398D02*
X95479636Y-38164636D01*
X95479636Y-38164636D02*
X95432017Y-38212256D01*
X95432017Y-38212256D02*
X95336779Y-38259875D01*
X95336779Y-38259875D02*
X95193922Y-38259875D01*
X97051065Y-37736065D02*
X97193922Y-37783684D01*
X97193922Y-37783684D02*
X97241541Y-37831303D01*
X97241541Y-37831303D02*
X97289160Y-37926541D01*
X97289160Y-37926541D02*
X97289160Y-38069398D01*
X97289160Y-38069398D02*
X97241541Y-38164636D01*
X97241541Y-38164636D02*
X97193922Y-38212256D01*
X97193922Y-38212256D02*
X97098684Y-38259875D01*
X97098684Y-38259875D02*
X96717732Y-38259875D01*
X96717732Y-38259875D02*
X96717732Y-37259875D01*
X96717732Y-37259875D02*
X97051065Y-37259875D01*
X97051065Y-37259875D02*
X97146303Y-37307494D01*
X97146303Y-37307494D02*
X97193922Y-37355113D01*
X97193922Y-37355113D02*
X97241541Y-37450351D01*
X97241541Y-37450351D02*
X97241541Y-37545589D01*
X97241541Y-37545589D02*
X97193922Y-37640827D01*
X97193922Y-37640827D02*
X97146303Y-37688446D01*
X97146303Y-37688446D02*
X97051065Y-37736065D01*
X97051065Y-37736065D02*
X96717732Y-37736065D01*
X97717732Y-38259875D02*
X97717732Y-37593208D01*
X97717732Y-37783684D02*
X97765351Y-37688446D01*
X97765351Y-37688446D02*
X97812970Y-37640827D01*
X97812970Y-37640827D02*
X97908208Y-37593208D01*
X97908208Y-37593208D02*
X98003446Y-37593208D01*
X98717732Y-38212256D02*
X98622494Y-38259875D01*
X98622494Y-38259875D02*
X98432018Y-38259875D01*
X98432018Y-38259875D02*
X98336780Y-38212256D01*
X98336780Y-38212256D02*
X98289161Y-38117017D01*
X98289161Y-38117017D02*
X98289161Y-37736065D01*
X98289161Y-37736065D02*
X98336780Y-37640827D01*
X98336780Y-37640827D02*
X98432018Y-37593208D01*
X98432018Y-37593208D02*
X98622494Y-37593208D01*
X98622494Y-37593208D02*
X98717732Y-37640827D01*
X98717732Y-37640827D02*
X98765351Y-37736065D01*
X98765351Y-37736065D02*
X98765351Y-37831303D01*
X98765351Y-37831303D02*
X98289161Y-37926541D01*
X99622494Y-38259875D02*
X99622494Y-37736065D01*
X99622494Y-37736065D02*
X99574875Y-37640827D01*
X99574875Y-37640827D02*
X99479637Y-37593208D01*
X99479637Y-37593208D02*
X99289161Y-37593208D01*
X99289161Y-37593208D02*
X99193923Y-37640827D01*
X99622494Y-38212256D02*
X99527256Y-38259875D01*
X99527256Y-38259875D02*
X99289161Y-38259875D01*
X99289161Y-38259875D02*
X99193923Y-38212256D01*
X99193923Y-38212256D02*
X99146304Y-38117017D01*
X99146304Y-38117017D02*
X99146304Y-38021779D01*
X99146304Y-38021779D02*
X99193923Y-37926541D01*
X99193923Y-37926541D02*
X99289161Y-37878922D01*
X99289161Y-37878922D02*
X99527256Y-37878922D01*
X99527256Y-37878922D02*
X99622494Y-37831303D01*
X100098685Y-38259875D02*
X100098685Y-37259875D01*
X100193923Y-37878922D02*
X100479637Y-38259875D01*
X100479637Y-37593208D02*
X100098685Y-37974160D01*
X101670114Y-38259875D02*
X101670114Y-37593208D01*
X101670114Y-37259875D02*
X101622495Y-37307494D01*
X101622495Y-37307494D02*
X101670114Y-37355113D01*
X101670114Y-37355113D02*
X101717733Y-37307494D01*
X101717733Y-37307494D02*
X101670114Y-37259875D01*
X101670114Y-37259875D02*
X101670114Y-37355113D01*
X102146304Y-37593208D02*
X102146304Y-38259875D01*
X102146304Y-37688446D02*
X102193923Y-37640827D01*
X102193923Y-37640827D02*
X102289161Y-37593208D01*
X102289161Y-37593208D02*
X102432018Y-37593208D01*
X102432018Y-37593208D02*
X102527256Y-37640827D01*
X102527256Y-37640827D02*
X102574875Y-37736065D01*
X102574875Y-37736065D02*
X102574875Y-38259875D01*
X103812971Y-38259875D02*
X103812971Y-37259875D01*
X103812971Y-37640827D02*
X103908209Y-37593208D01*
X103908209Y-37593208D02*
X104098685Y-37593208D01*
X104098685Y-37593208D02*
X104193923Y-37640827D01*
X104193923Y-37640827D02*
X104241542Y-37688446D01*
X104241542Y-37688446D02*
X104289161Y-37783684D01*
X104289161Y-37783684D02*
X104289161Y-38069398D01*
X104289161Y-38069398D02*
X104241542Y-38164636D01*
X104241542Y-38164636D02*
X104193923Y-38212256D01*
X104193923Y-38212256D02*
X104098685Y-38259875D01*
X104098685Y-38259875D02*
X103908209Y-38259875D01*
X103908209Y-38259875D02*
X103812971Y-38212256D01*
X105098685Y-38212256D02*
X105003447Y-38259875D01*
X105003447Y-38259875D02*
X104812971Y-38259875D01*
X104812971Y-38259875D02*
X104717733Y-38212256D01*
X104717733Y-38212256D02*
X104670114Y-38117017D01*
X104670114Y-38117017D02*
X104670114Y-37736065D01*
X104670114Y-37736065D02*
X104717733Y-37640827D01*
X104717733Y-37640827D02*
X104812971Y-37593208D01*
X104812971Y-37593208D02*
X105003447Y-37593208D01*
X105003447Y-37593208D02*
X105098685Y-37640827D01*
X105098685Y-37640827D02*
X105146304Y-37736065D01*
X105146304Y-37736065D02*
X105146304Y-37831303D01*
X105146304Y-37831303D02*
X104670114Y-37926541D01*
X105574876Y-37593208D02*
X105574876Y-38259875D01*
X105574876Y-37688446D02*
X105622495Y-37640827D01*
X105622495Y-37640827D02*
X105717733Y-37593208D01*
X105717733Y-37593208D02*
X105860590Y-37593208D01*
X105860590Y-37593208D02*
X105955828Y-37640827D01*
X105955828Y-37640827D02*
X106003447Y-37736065D01*
X106003447Y-37736065D02*
X106003447Y-38259875D01*
X106908209Y-38212256D02*
X106812971Y-38259875D01*
X106812971Y-38259875D02*
X106622495Y-38259875D01*
X106622495Y-38259875D02*
X106527257Y-38212256D01*
X106527257Y-38212256D02*
X106479638Y-38164636D01*
X106479638Y-38164636D02*
X106432019Y-38069398D01*
X106432019Y-38069398D02*
X106432019Y-37783684D01*
X106432019Y-37783684D02*
X106479638Y-37688446D01*
X106479638Y-37688446D02*
X106527257Y-37640827D01*
X106527257Y-37640827D02*
X106622495Y-37593208D01*
X106622495Y-37593208D02*
X106812971Y-37593208D01*
X106812971Y-37593208D02*
X106908209Y-37640827D01*
X107336781Y-38259875D02*
X107336781Y-37259875D01*
X107765352Y-38259875D02*
X107765352Y-37736065D01*
X107765352Y-37736065D02*
X107717733Y-37640827D01*
X107717733Y-37640827D02*
X107622495Y-37593208D01*
X107622495Y-37593208D02*
X107479638Y-37593208D01*
X107479638Y-37593208D02*
X107384400Y-37640827D01*
X107384400Y-37640827D02*
X107336781Y-37688446D01*
X92241541Y-39203152D02*
X92479636Y-39869819D01*
X92479636Y-39869819D02*
X92717731Y-39203152D01*
X93622493Y-39869819D02*
X93051065Y-39869819D01*
X93336779Y-39869819D02*
X93336779Y-38869819D01*
X93336779Y-38869819D02*
X93241541Y-39012676D01*
X93241541Y-39012676D02*
X93146303Y-39107914D01*
X93146303Y-39107914D02*
X93051065Y-39155533D01*
D10*
X154999999Y-36728421D02*
X154238095Y-36728421D01*
X154619047Y-36347468D02*
X154619047Y-37109373D01*
X153809523Y-37252230D02*
X153761904Y-37299849D01*
X153761904Y-37299849D02*
X153666666Y-37347468D01*
X153666666Y-37347468D02*
X153428571Y-37347468D01*
X153428571Y-37347468D02*
X153333333Y-37299849D01*
X153333333Y-37299849D02*
X153285714Y-37252230D01*
X153285714Y-37252230D02*
X153238095Y-37156992D01*
X153238095Y-37156992D02*
X153238095Y-37061754D01*
X153238095Y-37061754D02*
X153285714Y-36918897D01*
X153285714Y-36918897D02*
X153857142Y-36347468D01*
X153857142Y-36347468D02*
X153238095Y-36347468D01*
X152380952Y-37014135D02*
X152380952Y-36347468D01*
X152619047Y-37395088D02*
X152857142Y-36680802D01*
X152857142Y-36680802D02*
X152238095Y-36680802D01*
X149047618Y-37299849D02*
X149142856Y-37347468D01*
X149142856Y-37347468D02*
X149285713Y-37347468D01*
X149285713Y-37347468D02*
X149428570Y-37299849D01*
X149428570Y-37299849D02*
X149523808Y-37204611D01*
X149523808Y-37204611D02*
X149571427Y-37109373D01*
X149571427Y-37109373D02*
X149619046Y-36918897D01*
X149619046Y-36918897D02*
X149619046Y-36776040D01*
X149619046Y-36776040D02*
X149571427Y-36585564D01*
X149571427Y-36585564D02*
X149523808Y-36490326D01*
X149523808Y-36490326D02*
X149428570Y-36395088D01*
X149428570Y-36395088D02*
X149285713Y-36347468D01*
X149285713Y-36347468D02*
X149190475Y-36347468D01*
X149190475Y-36347468D02*
X149047618Y-36395088D01*
X149047618Y-36395088D02*
X148999999Y-36442707D01*
X148999999Y-36442707D02*
X148999999Y-36776040D01*
X148999999Y-36776040D02*
X149190475Y-36776040D01*
X148571427Y-36347468D02*
X148571427Y-37347468D01*
X148571427Y-37347468D02*
X147999999Y-36347468D01*
X147999999Y-36347468D02*
X147999999Y-37347468D01*
X147523808Y-36347468D02*
X147523808Y-37347468D01*
X147523808Y-37347468D02*
X147285713Y-37347468D01*
X147285713Y-37347468D02*
X147142856Y-37299849D01*
X147142856Y-37299849D02*
X147047618Y-37204611D01*
X147047618Y-37204611D02*
X146999999Y-37109373D01*
X146999999Y-37109373D02*
X146952380Y-36918897D01*
X146952380Y-36918897D02*
X146952380Y-36776040D01*
X146952380Y-36776040D02*
X146999999Y-36585564D01*
X146999999Y-36585564D02*
X147047618Y-36490326D01*
X147047618Y-36490326D02*
X147142856Y-36395088D01*
X147142856Y-36395088D02*
X147285713Y-36347468D01*
X147285713Y-36347468D02*
X147523808Y-36347468D01*
X154333333Y-34832763D02*
X154380952Y-34785144D01*
X154380952Y-34785144D02*
X154523809Y-34737524D01*
X154523809Y-34737524D02*
X154619047Y-34737524D01*
X154619047Y-34737524D02*
X154761904Y-34785144D01*
X154761904Y-34785144D02*
X154857142Y-34880382D01*
X154857142Y-34880382D02*
X154904761Y-34975620D01*
X154904761Y-34975620D02*
X154952380Y-35166096D01*
X154952380Y-35166096D02*
X154952380Y-35308953D01*
X154952380Y-35308953D02*
X154904761Y-35499429D01*
X154904761Y-35499429D02*
X154857142Y-35594667D01*
X154857142Y-35594667D02*
X154761904Y-35689905D01*
X154761904Y-35689905D02*
X154619047Y-35737524D01*
X154619047Y-35737524D02*
X154523809Y-35737524D01*
X154523809Y-35737524D02*
X154380952Y-35689905D01*
X154380952Y-35689905D02*
X154333333Y-35642286D01*
X153904761Y-34737524D02*
X153904761Y-35737524D01*
X153904761Y-35261334D02*
X153333333Y-35261334D01*
X153333333Y-34737524D02*
X153333333Y-35737524D01*
X152904761Y-35023239D02*
X152428571Y-35023239D01*
X152999999Y-34737524D02*
X152666666Y-35737524D01*
X152666666Y-35737524D02*
X152333333Y-34737524D01*
X151999999Y-35737524D02*
X151999999Y-34928001D01*
X151999999Y-34928001D02*
X151952380Y-34832763D01*
X151952380Y-34832763D02*
X151904761Y-34785144D01*
X151904761Y-34785144D02*
X151809523Y-34737524D01*
X151809523Y-34737524D02*
X151619047Y-34737524D01*
X151619047Y-34737524D02*
X151523809Y-34785144D01*
X151523809Y-34785144D02*
X151476190Y-34832763D01*
X151476190Y-34832763D02*
X151428571Y-34928001D01*
X151428571Y-34928001D02*
X151428571Y-35737524D01*
X150619047Y-35261334D02*
X150952380Y-35261334D01*
X150952380Y-34737524D02*
X150952380Y-35737524D01*
X150952380Y-35737524D02*
X150476190Y-35737524D01*
X149761904Y-35261334D02*
X150095237Y-35261334D01*
X150095237Y-34737524D02*
X150095237Y-35737524D01*
X150095237Y-35737524D02*
X149619047Y-35737524D01*
X149238094Y-35261334D02*
X148904761Y-35261334D01*
X148761904Y-34737524D02*
X149238094Y-34737524D01*
X149238094Y-34737524D02*
X149238094Y-35737524D01*
X149238094Y-35737524D02*
X148761904Y-35737524D01*
X147047618Y-34737524D02*
X147619046Y-34737524D01*
X147333332Y-34737524D02*
X147333332Y-35737524D01*
X147333332Y-35737524D02*
X147428570Y-35594667D01*
X147428570Y-35594667D02*
X147523808Y-35499429D01*
X147523808Y-35499429D02*
X147619046Y-35451810D01*
X197161027Y-80872419D02*
X197732455Y-80872419D01*
X197446741Y-81872419D02*
X197446741Y-80872419D01*
X198065789Y-81348609D02*
X198399122Y-81348609D01*
X198541979Y-81872419D02*
X198065789Y-81872419D01*
X198065789Y-81872419D02*
X198065789Y-80872419D01*
X198065789Y-80872419D02*
X198541979Y-80872419D01*
X198970551Y-81872419D02*
X198970551Y-80872419D01*
X198970551Y-80872419D02*
X199303884Y-81586704D01*
X199303884Y-81586704D02*
X199637217Y-80872419D01*
X199637217Y-80872419D02*
X199637217Y-81872419D01*
X200113408Y-81872419D02*
X200113408Y-80872419D01*
X200113408Y-80872419D02*
X200494360Y-80872419D01*
X200494360Y-80872419D02*
X200589598Y-80920038D01*
X200589598Y-80920038D02*
X200637217Y-80967657D01*
X200637217Y-80967657D02*
X200684836Y-81062895D01*
X200684836Y-81062895D02*
X200684836Y-81205752D01*
X200684836Y-81205752D02*
X200637217Y-81300990D01*
X200637217Y-81300990D02*
X200589598Y-81348609D01*
X200589598Y-81348609D02*
X200494360Y-81396228D01*
X200494360Y-81396228D02*
X200113408Y-81396228D01*
X201827694Y-81824800D02*
X201970551Y-81872419D01*
X201970551Y-81872419D02*
X202208646Y-81872419D01*
X202208646Y-81872419D02*
X202303884Y-81824800D01*
X202303884Y-81824800D02*
X202351503Y-81777180D01*
X202351503Y-81777180D02*
X202399122Y-81681942D01*
X202399122Y-81681942D02*
X202399122Y-81586704D01*
X202399122Y-81586704D02*
X202351503Y-81491466D01*
X202351503Y-81491466D02*
X202303884Y-81443847D01*
X202303884Y-81443847D02*
X202208646Y-81396228D01*
X202208646Y-81396228D02*
X202018170Y-81348609D01*
X202018170Y-81348609D02*
X201922932Y-81300990D01*
X201922932Y-81300990D02*
X201875313Y-81253371D01*
X201875313Y-81253371D02*
X201827694Y-81158133D01*
X201827694Y-81158133D02*
X201827694Y-81062895D01*
X201827694Y-81062895D02*
X201875313Y-80967657D01*
X201875313Y-80967657D02*
X201922932Y-80920038D01*
X201922932Y-80920038D02*
X202018170Y-80872419D01*
X202018170Y-80872419D02*
X202256265Y-80872419D01*
X202256265Y-80872419D02*
X202399122Y-80920038D01*
X202827694Y-81348609D02*
X203161027Y-81348609D01*
X203303884Y-81872419D02*
X202827694Y-81872419D01*
X202827694Y-81872419D02*
X202827694Y-80872419D01*
X202827694Y-80872419D02*
X203303884Y-80872419D01*
X203732456Y-81872419D02*
X203732456Y-80872419D01*
X203732456Y-80872419D02*
X204303884Y-81872419D01*
X204303884Y-81872419D02*
X204303884Y-80872419D01*
X204732456Y-81824800D02*
X204875313Y-81872419D01*
X204875313Y-81872419D02*
X205113408Y-81872419D01*
X205113408Y-81872419D02*
X205208646Y-81824800D01*
X205208646Y-81824800D02*
X205256265Y-81777180D01*
X205256265Y-81777180D02*
X205303884Y-81681942D01*
X205303884Y-81681942D02*
X205303884Y-81586704D01*
X205303884Y-81586704D02*
X205256265Y-81491466D01*
X205256265Y-81491466D02*
X205208646Y-81443847D01*
X205208646Y-81443847D02*
X205113408Y-81396228D01*
X205113408Y-81396228D02*
X204922932Y-81348609D01*
X204922932Y-81348609D02*
X204827694Y-81300990D01*
X204827694Y-81300990D02*
X204780075Y-81253371D01*
X204780075Y-81253371D02*
X204732456Y-81158133D01*
X204732456Y-81158133D02*
X204732456Y-81062895D01*
X204732456Y-81062895D02*
X204780075Y-80967657D01*
X204780075Y-80967657D02*
X204827694Y-80920038D01*
X204827694Y-80920038D02*
X204922932Y-80872419D01*
X204922932Y-80872419D02*
X205161027Y-80872419D01*
X205161027Y-80872419D02*
X205303884Y-80920038D01*
X205922932Y-80872419D02*
X206113408Y-80872419D01*
X206113408Y-80872419D02*
X206208646Y-80920038D01*
X206208646Y-80920038D02*
X206303884Y-81015276D01*
X206303884Y-81015276D02*
X206351503Y-81205752D01*
X206351503Y-81205752D02*
X206351503Y-81539085D01*
X206351503Y-81539085D02*
X206303884Y-81729561D01*
X206303884Y-81729561D02*
X206208646Y-81824800D01*
X206208646Y-81824800D02*
X206113408Y-81872419D01*
X206113408Y-81872419D02*
X205922932Y-81872419D01*
X205922932Y-81872419D02*
X205827694Y-81824800D01*
X205827694Y-81824800D02*
X205732456Y-81729561D01*
X205732456Y-81729561D02*
X205684837Y-81539085D01*
X205684837Y-81539085D02*
X205684837Y-81205752D01*
X205684837Y-81205752D02*
X205732456Y-81015276D01*
X205732456Y-81015276D02*
X205827694Y-80920038D01*
X205827694Y-80920038D02*
X205922932Y-80872419D01*
X207351503Y-81872419D02*
X207018170Y-81396228D01*
X206780075Y-81872419D02*
X206780075Y-80872419D01*
X206780075Y-80872419D02*
X207161027Y-80872419D01*
X207161027Y-80872419D02*
X207256265Y-80920038D01*
X207256265Y-80920038D02*
X207303884Y-80967657D01*
X207303884Y-80967657D02*
X207351503Y-81062895D01*
X207351503Y-81062895D02*
X207351503Y-81205752D01*
X207351503Y-81205752D02*
X207303884Y-81300990D01*
X207303884Y-81300990D02*
X207256265Y-81348609D01*
X207256265Y-81348609D02*
X207161027Y-81396228D01*
X207161027Y-81396228D02*
X206780075Y-81396228D01*
X208970551Y-81205752D02*
X208970551Y-81872419D01*
X208732456Y-80824800D02*
X208494361Y-81539085D01*
X208494361Y-81539085D02*
X209113408Y-81539085D01*
X140476190Y-100262475D02*
X140476190Y-99262475D01*
X140476190Y-99738665D02*
X141047618Y-99738665D01*
X141047618Y-100262475D02*
X141047618Y-99262475D01*
X141476190Y-99976760D02*
X141952380Y-99976760D01*
X141380952Y-100262475D02*
X141714285Y-99262475D01*
X141714285Y-99262475D02*
X142047618Y-100262475D01*
X142857142Y-100262475D02*
X142380952Y-100262475D01*
X142380952Y-100262475D02*
X142380952Y-99262475D01*
X143666666Y-100262475D02*
X143190476Y-100262475D01*
X143190476Y-100262475D02*
X143190476Y-99262475D01*
X137309524Y-101824800D02*
X137452381Y-101872419D01*
X137452381Y-101872419D02*
X137690476Y-101872419D01*
X137690476Y-101872419D02*
X137785714Y-101824800D01*
X137785714Y-101824800D02*
X137833333Y-101777180D01*
X137833333Y-101777180D02*
X137880952Y-101681942D01*
X137880952Y-101681942D02*
X137880952Y-101586704D01*
X137880952Y-101586704D02*
X137833333Y-101491466D01*
X137833333Y-101491466D02*
X137785714Y-101443847D01*
X137785714Y-101443847D02*
X137690476Y-101396228D01*
X137690476Y-101396228D02*
X137500000Y-101348609D01*
X137500000Y-101348609D02*
X137404762Y-101300990D01*
X137404762Y-101300990D02*
X137357143Y-101253371D01*
X137357143Y-101253371D02*
X137309524Y-101158133D01*
X137309524Y-101158133D02*
X137309524Y-101062895D01*
X137309524Y-101062895D02*
X137357143Y-100967657D01*
X137357143Y-100967657D02*
X137404762Y-100920038D01*
X137404762Y-100920038D02*
X137500000Y-100872419D01*
X137500000Y-100872419D02*
X137738095Y-100872419D01*
X137738095Y-100872419D02*
X137880952Y-100920038D01*
X138309524Y-101872419D02*
X138309524Y-100872419D01*
X139309523Y-100920038D02*
X139214285Y-100872419D01*
X139214285Y-100872419D02*
X139071428Y-100872419D01*
X139071428Y-100872419D02*
X138928571Y-100920038D01*
X138928571Y-100920038D02*
X138833333Y-101015276D01*
X138833333Y-101015276D02*
X138785714Y-101110514D01*
X138785714Y-101110514D02*
X138738095Y-101300990D01*
X138738095Y-101300990D02*
X138738095Y-101443847D01*
X138738095Y-101443847D02*
X138785714Y-101634323D01*
X138785714Y-101634323D02*
X138833333Y-101729561D01*
X138833333Y-101729561D02*
X138928571Y-101824800D01*
X138928571Y-101824800D02*
X139071428Y-101872419D01*
X139071428Y-101872419D02*
X139166666Y-101872419D01*
X139166666Y-101872419D02*
X139309523Y-101824800D01*
X139309523Y-101824800D02*
X139357142Y-101777180D01*
X139357142Y-101777180D02*
X139357142Y-101443847D01*
X139357142Y-101443847D02*
X139166666Y-101443847D01*
X139785714Y-101872419D02*
X139785714Y-100872419D01*
X139785714Y-100872419D02*
X140357142Y-101872419D01*
X140357142Y-101872419D02*
X140357142Y-100872419D01*
X142119047Y-100920038D02*
X142023809Y-100872419D01*
X142023809Y-100872419D02*
X141880952Y-100872419D01*
X141880952Y-100872419D02*
X141738095Y-100920038D01*
X141738095Y-100920038D02*
X141642857Y-101015276D01*
X141642857Y-101015276D02*
X141595238Y-101110514D01*
X141595238Y-101110514D02*
X141547619Y-101300990D01*
X141547619Y-101300990D02*
X141547619Y-101443847D01*
X141547619Y-101443847D02*
X141595238Y-101634323D01*
X141595238Y-101634323D02*
X141642857Y-101729561D01*
X141642857Y-101729561D02*
X141738095Y-101824800D01*
X141738095Y-101824800D02*
X141880952Y-101872419D01*
X141880952Y-101872419D02*
X141976190Y-101872419D01*
X141976190Y-101872419D02*
X142119047Y-101824800D01*
X142119047Y-101824800D02*
X142166666Y-101777180D01*
X142166666Y-101777180D02*
X142166666Y-101443847D01*
X142166666Y-101443847D02*
X141976190Y-101443847D01*
X142595238Y-101872419D02*
X142595238Y-100872419D01*
X142595238Y-100872419D02*
X143166666Y-101872419D01*
X143166666Y-101872419D02*
X143166666Y-100872419D01*
X143642857Y-101872419D02*
X143642857Y-100872419D01*
X143642857Y-100872419D02*
X143880952Y-100872419D01*
X143880952Y-100872419D02*
X144023809Y-100920038D01*
X144023809Y-100920038D02*
X144119047Y-101015276D01*
X144119047Y-101015276D02*
X144166666Y-101110514D01*
X144166666Y-101110514D02*
X144214285Y-101300990D01*
X144214285Y-101300990D02*
X144214285Y-101443847D01*
X144214285Y-101443847D02*
X144166666Y-101634323D01*
X144166666Y-101634323D02*
X144119047Y-101729561D01*
X144119047Y-101729561D02*
X144023809Y-101824800D01*
X144023809Y-101824800D02*
X143880952Y-101872419D01*
X143880952Y-101872419D02*
X143642857Y-101872419D01*
X145880952Y-100872419D02*
X145404762Y-100872419D01*
X145404762Y-100872419D02*
X145357143Y-101348609D01*
X145357143Y-101348609D02*
X145404762Y-101300990D01*
X145404762Y-101300990D02*
X145500000Y-101253371D01*
X145500000Y-101253371D02*
X145738095Y-101253371D01*
X145738095Y-101253371D02*
X145833333Y-101300990D01*
X145833333Y-101300990D02*
X145880952Y-101348609D01*
X145880952Y-101348609D02*
X145928571Y-101443847D01*
X145928571Y-101443847D02*
X145928571Y-101681942D01*
X145928571Y-101681942D02*
X145880952Y-101777180D01*
X145880952Y-101777180D02*
X145833333Y-101824800D01*
X145833333Y-101824800D02*
X145738095Y-101872419D01*
X145738095Y-101872419D02*
X145500000Y-101872419D01*
X145500000Y-101872419D02*
X145404762Y-101824800D01*
X145404762Y-101824800D02*
X145357143Y-101777180D01*
X146261905Y-101205752D02*
X146500000Y-101872419D01*
X146500000Y-101872419D02*
X146738095Y-101205752D01*
X136161027Y-80872419D02*
X136732455Y-80872419D01*
X136446741Y-81872419D02*
X136446741Y-80872419D01*
X137065789Y-81348609D02*
X137399122Y-81348609D01*
X137541979Y-81872419D02*
X137065789Y-81872419D01*
X137065789Y-81872419D02*
X137065789Y-80872419D01*
X137065789Y-80872419D02*
X137541979Y-80872419D01*
X137970551Y-81872419D02*
X137970551Y-80872419D01*
X137970551Y-80872419D02*
X138303884Y-81586704D01*
X138303884Y-81586704D02*
X138637217Y-80872419D01*
X138637217Y-80872419D02*
X138637217Y-81872419D01*
X139113408Y-81872419D02*
X139113408Y-80872419D01*
X139113408Y-80872419D02*
X139494360Y-80872419D01*
X139494360Y-80872419D02*
X139589598Y-80920038D01*
X139589598Y-80920038D02*
X139637217Y-80967657D01*
X139637217Y-80967657D02*
X139684836Y-81062895D01*
X139684836Y-81062895D02*
X139684836Y-81205752D01*
X139684836Y-81205752D02*
X139637217Y-81300990D01*
X139637217Y-81300990D02*
X139589598Y-81348609D01*
X139589598Y-81348609D02*
X139494360Y-81396228D01*
X139494360Y-81396228D02*
X139113408Y-81396228D01*
X140827694Y-81824800D02*
X140970551Y-81872419D01*
X140970551Y-81872419D02*
X141208646Y-81872419D01*
X141208646Y-81872419D02*
X141303884Y-81824800D01*
X141303884Y-81824800D02*
X141351503Y-81777180D01*
X141351503Y-81777180D02*
X141399122Y-81681942D01*
X141399122Y-81681942D02*
X141399122Y-81586704D01*
X141399122Y-81586704D02*
X141351503Y-81491466D01*
X141351503Y-81491466D02*
X141303884Y-81443847D01*
X141303884Y-81443847D02*
X141208646Y-81396228D01*
X141208646Y-81396228D02*
X141018170Y-81348609D01*
X141018170Y-81348609D02*
X140922932Y-81300990D01*
X140922932Y-81300990D02*
X140875313Y-81253371D01*
X140875313Y-81253371D02*
X140827694Y-81158133D01*
X140827694Y-81158133D02*
X140827694Y-81062895D01*
X140827694Y-81062895D02*
X140875313Y-80967657D01*
X140875313Y-80967657D02*
X140922932Y-80920038D01*
X140922932Y-80920038D02*
X141018170Y-80872419D01*
X141018170Y-80872419D02*
X141256265Y-80872419D01*
X141256265Y-80872419D02*
X141399122Y-80920038D01*
X141827694Y-81348609D02*
X142161027Y-81348609D01*
X142303884Y-81872419D02*
X141827694Y-81872419D01*
X141827694Y-81872419D02*
X141827694Y-80872419D01*
X141827694Y-80872419D02*
X142303884Y-80872419D01*
X142732456Y-81872419D02*
X142732456Y-80872419D01*
X142732456Y-80872419D02*
X143303884Y-81872419D01*
X143303884Y-81872419D02*
X143303884Y-80872419D01*
X143732456Y-81824800D02*
X143875313Y-81872419D01*
X143875313Y-81872419D02*
X144113408Y-81872419D01*
X144113408Y-81872419D02*
X144208646Y-81824800D01*
X144208646Y-81824800D02*
X144256265Y-81777180D01*
X144256265Y-81777180D02*
X144303884Y-81681942D01*
X144303884Y-81681942D02*
X144303884Y-81586704D01*
X144303884Y-81586704D02*
X144256265Y-81491466D01*
X144256265Y-81491466D02*
X144208646Y-81443847D01*
X144208646Y-81443847D02*
X144113408Y-81396228D01*
X144113408Y-81396228D02*
X143922932Y-81348609D01*
X143922932Y-81348609D02*
X143827694Y-81300990D01*
X143827694Y-81300990D02*
X143780075Y-81253371D01*
X143780075Y-81253371D02*
X143732456Y-81158133D01*
X143732456Y-81158133D02*
X143732456Y-81062895D01*
X143732456Y-81062895D02*
X143780075Y-80967657D01*
X143780075Y-80967657D02*
X143827694Y-80920038D01*
X143827694Y-80920038D02*
X143922932Y-80872419D01*
X143922932Y-80872419D02*
X144161027Y-80872419D01*
X144161027Y-80872419D02*
X144303884Y-80920038D01*
X144922932Y-80872419D02*
X145113408Y-80872419D01*
X145113408Y-80872419D02*
X145208646Y-80920038D01*
X145208646Y-80920038D02*
X145303884Y-81015276D01*
X145303884Y-81015276D02*
X145351503Y-81205752D01*
X145351503Y-81205752D02*
X145351503Y-81539085D01*
X145351503Y-81539085D02*
X145303884Y-81729561D01*
X145303884Y-81729561D02*
X145208646Y-81824800D01*
X145208646Y-81824800D02*
X145113408Y-81872419D01*
X145113408Y-81872419D02*
X144922932Y-81872419D01*
X144922932Y-81872419D02*
X144827694Y-81824800D01*
X144827694Y-81824800D02*
X144732456Y-81729561D01*
X144732456Y-81729561D02*
X144684837Y-81539085D01*
X144684837Y-81539085D02*
X144684837Y-81205752D01*
X144684837Y-81205752D02*
X144732456Y-81015276D01*
X144732456Y-81015276D02*
X144827694Y-80920038D01*
X144827694Y-80920038D02*
X144922932Y-80872419D01*
X146351503Y-81872419D02*
X146018170Y-81396228D01*
X145780075Y-81872419D02*
X145780075Y-80872419D01*
X145780075Y-80872419D02*
X146161027Y-80872419D01*
X146161027Y-80872419D02*
X146256265Y-80920038D01*
X146256265Y-80920038D02*
X146303884Y-80967657D01*
X146303884Y-80967657D02*
X146351503Y-81062895D01*
X146351503Y-81062895D02*
X146351503Y-81205752D01*
X146351503Y-81205752D02*
X146303884Y-81300990D01*
X146303884Y-81300990D02*
X146256265Y-81348609D01*
X146256265Y-81348609D02*
X146161027Y-81396228D01*
X146161027Y-81396228D02*
X145780075Y-81396228D01*
X147494361Y-80967657D02*
X147541980Y-80920038D01*
X147541980Y-80920038D02*
X147637218Y-80872419D01*
X147637218Y-80872419D02*
X147875313Y-80872419D01*
X147875313Y-80872419D02*
X147970551Y-80920038D01*
X147970551Y-80920038D02*
X148018170Y-80967657D01*
X148018170Y-80967657D02*
X148065789Y-81062895D01*
X148065789Y-81062895D02*
X148065789Y-81158133D01*
X148065789Y-81158133D02*
X148018170Y-81300990D01*
X148018170Y-81300990D02*
X147446742Y-81872419D01*
X147446742Y-81872419D02*
X148065789Y-81872419D01*
X177999999Y-37118477D02*
X177238095Y-37118477D01*
X177619047Y-36737524D02*
X177619047Y-37499429D01*
X176809523Y-37642286D02*
X176761904Y-37689905D01*
X176761904Y-37689905D02*
X176666666Y-37737524D01*
X176666666Y-37737524D02*
X176428571Y-37737524D01*
X176428571Y-37737524D02*
X176333333Y-37689905D01*
X176333333Y-37689905D02*
X176285714Y-37642286D01*
X176285714Y-37642286D02*
X176238095Y-37547048D01*
X176238095Y-37547048D02*
X176238095Y-37451810D01*
X176238095Y-37451810D02*
X176285714Y-37308953D01*
X176285714Y-37308953D02*
X176857142Y-36737524D01*
X176857142Y-36737524D02*
X176238095Y-36737524D01*
X175380952Y-37404191D02*
X175380952Y-36737524D01*
X175619047Y-37785144D02*
X175857142Y-37070858D01*
X175857142Y-37070858D02*
X175238095Y-37070858D01*
X172047618Y-37689905D02*
X172142856Y-37737524D01*
X172142856Y-37737524D02*
X172285713Y-37737524D01*
X172285713Y-37737524D02*
X172428570Y-37689905D01*
X172428570Y-37689905D02*
X172523808Y-37594667D01*
X172523808Y-37594667D02*
X172571427Y-37499429D01*
X172571427Y-37499429D02*
X172619046Y-37308953D01*
X172619046Y-37308953D02*
X172619046Y-37166096D01*
X172619046Y-37166096D02*
X172571427Y-36975620D01*
X172571427Y-36975620D02*
X172523808Y-36880382D01*
X172523808Y-36880382D02*
X172428570Y-36785144D01*
X172428570Y-36785144D02*
X172285713Y-36737524D01*
X172285713Y-36737524D02*
X172190475Y-36737524D01*
X172190475Y-36737524D02*
X172047618Y-36785144D01*
X172047618Y-36785144D02*
X171999999Y-36832763D01*
X171999999Y-36832763D02*
X171999999Y-37166096D01*
X171999999Y-37166096D02*
X172190475Y-37166096D01*
X171571427Y-36737524D02*
X171571427Y-37737524D01*
X171571427Y-37737524D02*
X170999999Y-36737524D01*
X170999999Y-36737524D02*
X170999999Y-37737524D01*
X170523808Y-36737524D02*
X170523808Y-37737524D01*
X170523808Y-37737524D02*
X170285713Y-37737524D01*
X170285713Y-37737524D02*
X170142856Y-37689905D01*
X170142856Y-37689905D02*
X170047618Y-37594667D01*
X170047618Y-37594667D02*
X169999999Y-37499429D01*
X169999999Y-37499429D02*
X169952380Y-37308953D01*
X169952380Y-37308953D02*
X169952380Y-37166096D01*
X169952380Y-37166096D02*
X169999999Y-36975620D01*
X169999999Y-36975620D02*
X170047618Y-36880382D01*
X170047618Y-36880382D02*
X170142856Y-36785144D01*
X170142856Y-36785144D02*
X170285713Y-36737524D01*
X170285713Y-36737524D02*
X170523808Y-36737524D01*
X177333333Y-35222819D02*
X177380952Y-35175200D01*
X177380952Y-35175200D02*
X177523809Y-35127580D01*
X177523809Y-35127580D02*
X177619047Y-35127580D01*
X177619047Y-35127580D02*
X177761904Y-35175200D01*
X177761904Y-35175200D02*
X177857142Y-35270438D01*
X177857142Y-35270438D02*
X177904761Y-35365676D01*
X177904761Y-35365676D02*
X177952380Y-35556152D01*
X177952380Y-35556152D02*
X177952380Y-35699009D01*
X177952380Y-35699009D02*
X177904761Y-35889485D01*
X177904761Y-35889485D02*
X177857142Y-35984723D01*
X177857142Y-35984723D02*
X177761904Y-36079961D01*
X177761904Y-36079961D02*
X177619047Y-36127580D01*
X177619047Y-36127580D02*
X177523809Y-36127580D01*
X177523809Y-36127580D02*
X177380952Y-36079961D01*
X177380952Y-36079961D02*
X177333333Y-36032342D01*
X176904761Y-35127580D02*
X176904761Y-36127580D01*
X176904761Y-35651390D02*
X176333333Y-35651390D01*
X176333333Y-35127580D02*
X176333333Y-36127580D01*
X175904761Y-35413295D02*
X175428571Y-35413295D01*
X175999999Y-35127580D02*
X175666666Y-36127580D01*
X175666666Y-36127580D02*
X175333333Y-35127580D01*
X174999999Y-36127580D02*
X174999999Y-35318057D01*
X174999999Y-35318057D02*
X174952380Y-35222819D01*
X174952380Y-35222819D02*
X174904761Y-35175200D01*
X174904761Y-35175200D02*
X174809523Y-35127580D01*
X174809523Y-35127580D02*
X174619047Y-35127580D01*
X174619047Y-35127580D02*
X174523809Y-35175200D01*
X174523809Y-35175200D02*
X174476190Y-35222819D01*
X174476190Y-35222819D02*
X174428571Y-35318057D01*
X174428571Y-35318057D02*
X174428571Y-36127580D01*
X173619047Y-35651390D02*
X173952380Y-35651390D01*
X173952380Y-35127580D02*
X173952380Y-36127580D01*
X173952380Y-36127580D02*
X173476190Y-36127580D01*
X172761904Y-35651390D02*
X173095237Y-35651390D01*
X173095237Y-35127580D02*
X173095237Y-36127580D01*
X173095237Y-36127580D02*
X172619047Y-36127580D01*
X172238094Y-35651390D02*
X171904761Y-35651390D01*
X171761904Y-35127580D02*
X172238094Y-35127580D01*
X172238094Y-35127580D02*
X172238094Y-36127580D01*
X172238094Y-36127580D02*
X171761904Y-36127580D01*
X170619046Y-36032342D02*
X170571427Y-36079961D01*
X170571427Y-36079961D02*
X170476189Y-36127580D01*
X170476189Y-36127580D02*
X170238094Y-36127580D01*
X170238094Y-36127580D02*
X170142856Y-36079961D01*
X170142856Y-36079961D02*
X170095237Y-36032342D01*
X170095237Y-36032342D02*
X170047618Y-35937104D01*
X170047618Y-35937104D02*
X170047618Y-35841866D01*
X170047618Y-35841866D02*
X170095237Y-35699009D01*
X170095237Y-35699009D02*
X170666665Y-35127580D01*
X170666665Y-35127580D02*
X170047618Y-35127580D01*
X165161027Y-80872419D02*
X165732455Y-80872419D01*
X165446741Y-81872419D02*
X165446741Y-80872419D01*
X166065789Y-81348609D02*
X166399122Y-81348609D01*
X166541979Y-81872419D02*
X166065789Y-81872419D01*
X166065789Y-81872419D02*
X166065789Y-80872419D01*
X166065789Y-80872419D02*
X166541979Y-80872419D01*
X166970551Y-81872419D02*
X166970551Y-80872419D01*
X166970551Y-80872419D02*
X167303884Y-81586704D01*
X167303884Y-81586704D02*
X167637217Y-80872419D01*
X167637217Y-80872419D02*
X167637217Y-81872419D01*
X168113408Y-81872419D02*
X168113408Y-80872419D01*
X168113408Y-80872419D02*
X168494360Y-80872419D01*
X168494360Y-80872419D02*
X168589598Y-80920038D01*
X168589598Y-80920038D02*
X168637217Y-80967657D01*
X168637217Y-80967657D02*
X168684836Y-81062895D01*
X168684836Y-81062895D02*
X168684836Y-81205752D01*
X168684836Y-81205752D02*
X168637217Y-81300990D01*
X168637217Y-81300990D02*
X168589598Y-81348609D01*
X168589598Y-81348609D02*
X168494360Y-81396228D01*
X168494360Y-81396228D02*
X168113408Y-81396228D01*
X169827694Y-81824800D02*
X169970551Y-81872419D01*
X169970551Y-81872419D02*
X170208646Y-81872419D01*
X170208646Y-81872419D02*
X170303884Y-81824800D01*
X170303884Y-81824800D02*
X170351503Y-81777180D01*
X170351503Y-81777180D02*
X170399122Y-81681942D01*
X170399122Y-81681942D02*
X170399122Y-81586704D01*
X170399122Y-81586704D02*
X170351503Y-81491466D01*
X170351503Y-81491466D02*
X170303884Y-81443847D01*
X170303884Y-81443847D02*
X170208646Y-81396228D01*
X170208646Y-81396228D02*
X170018170Y-81348609D01*
X170018170Y-81348609D02*
X169922932Y-81300990D01*
X169922932Y-81300990D02*
X169875313Y-81253371D01*
X169875313Y-81253371D02*
X169827694Y-81158133D01*
X169827694Y-81158133D02*
X169827694Y-81062895D01*
X169827694Y-81062895D02*
X169875313Y-80967657D01*
X169875313Y-80967657D02*
X169922932Y-80920038D01*
X169922932Y-80920038D02*
X170018170Y-80872419D01*
X170018170Y-80872419D02*
X170256265Y-80872419D01*
X170256265Y-80872419D02*
X170399122Y-80920038D01*
X170827694Y-81348609D02*
X171161027Y-81348609D01*
X171303884Y-81872419D02*
X170827694Y-81872419D01*
X170827694Y-81872419D02*
X170827694Y-80872419D01*
X170827694Y-80872419D02*
X171303884Y-80872419D01*
X171732456Y-81872419D02*
X171732456Y-80872419D01*
X171732456Y-80872419D02*
X172303884Y-81872419D01*
X172303884Y-81872419D02*
X172303884Y-80872419D01*
X172732456Y-81824800D02*
X172875313Y-81872419D01*
X172875313Y-81872419D02*
X173113408Y-81872419D01*
X173113408Y-81872419D02*
X173208646Y-81824800D01*
X173208646Y-81824800D02*
X173256265Y-81777180D01*
X173256265Y-81777180D02*
X173303884Y-81681942D01*
X173303884Y-81681942D02*
X173303884Y-81586704D01*
X173303884Y-81586704D02*
X173256265Y-81491466D01*
X173256265Y-81491466D02*
X173208646Y-81443847D01*
X173208646Y-81443847D02*
X173113408Y-81396228D01*
X173113408Y-81396228D02*
X172922932Y-81348609D01*
X172922932Y-81348609D02*
X172827694Y-81300990D01*
X172827694Y-81300990D02*
X172780075Y-81253371D01*
X172780075Y-81253371D02*
X172732456Y-81158133D01*
X172732456Y-81158133D02*
X172732456Y-81062895D01*
X172732456Y-81062895D02*
X172780075Y-80967657D01*
X172780075Y-80967657D02*
X172827694Y-80920038D01*
X172827694Y-80920038D02*
X172922932Y-80872419D01*
X172922932Y-80872419D02*
X173161027Y-80872419D01*
X173161027Y-80872419D02*
X173303884Y-80920038D01*
X173922932Y-80872419D02*
X174113408Y-80872419D01*
X174113408Y-80872419D02*
X174208646Y-80920038D01*
X174208646Y-80920038D02*
X174303884Y-81015276D01*
X174303884Y-81015276D02*
X174351503Y-81205752D01*
X174351503Y-81205752D02*
X174351503Y-81539085D01*
X174351503Y-81539085D02*
X174303884Y-81729561D01*
X174303884Y-81729561D02*
X174208646Y-81824800D01*
X174208646Y-81824800D02*
X174113408Y-81872419D01*
X174113408Y-81872419D02*
X173922932Y-81872419D01*
X173922932Y-81872419D02*
X173827694Y-81824800D01*
X173827694Y-81824800D02*
X173732456Y-81729561D01*
X173732456Y-81729561D02*
X173684837Y-81539085D01*
X173684837Y-81539085D02*
X173684837Y-81205752D01*
X173684837Y-81205752D02*
X173732456Y-81015276D01*
X173732456Y-81015276D02*
X173827694Y-80920038D01*
X173827694Y-80920038D02*
X173922932Y-80872419D01*
X175351503Y-81872419D02*
X175018170Y-81396228D01*
X174780075Y-81872419D02*
X174780075Y-80872419D01*
X174780075Y-80872419D02*
X175161027Y-80872419D01*
X175161027Y-80872419D02*
X175256265Y-80920038D01*
X175256265Y-80920038D02*
X175303884Y-80967657D01*
X175303884Y-80967657D02*
X175351503Y-81062895D01*
X175351503Y-81062895D02*
X175351503Y-81205752D01*
X175351503Y-81205752D02*
X175303884Y-81300990D01*
X175303884Y-81300990D02*
X175256265Y-81348609D01*
X175256265Y-81348609D02*
X175161027Y-81396228D01*
X175161027Y-81396228D02*
X174780075Y-81396228D01*
X176446742Y-80872419D02*
X177065789Y-80872419D01*
X177065789Y-80872419D02*
X176732456Y-81253371D01*
X176732456Y-81253371D02*
X176875313Y-81253371D01*
X176875313Y-81253371D02*
X176970551Y-81300990D01*
X176970551Y-81300990D02*
X177018170Y-81348609D01*
X177018170Y-81348609D02*
X177065789Y-81443847D01*
X177065789Y-81443847D02*
X177065789Y-81681942D01*
X177065789Y-81681942D02*
X177018170Y-81777180D01*
X177018170Y-81777180D02*
X176970551Y-81824800D01*
X176970551Y-81824800D02*
X176875313Y-81872419D01*
X176875313Y-81872419D02*
X176589599Y-81872419D01*
X176589599Y-81872419D02*
X176494361Y-81824800D01*
X176494361Y-81824800D02*
X176446742Y-81777180D01*
D11*
X129437452Y-89589819D02*
X129104119Y-89113628D01*
X128866024Y-89589819D02*
X128866024Y-88589819D01*
X128866024Y-88589819D02*
X129246976Y-88589819D01*
X129246976Y-88589819D02*
X129342214Y-88637438D01*
X129342214Y-88637438D02*
X129389833Y-88685057D01*
X129389833Y-88685057D02*
X129437452Y-88780295D01*
X129437452Y-88780295D02*
X129437452Y-88923152D01*
X129437452Y-88923152D02*
X129389833Y-89018390D01*
X129389833Y-89018390D02*
X129342214Y-89066009D01*
X129342214Y-89066009D02*
X129246976Y-89113628D01*
X129246976Y-89113628D02*
X128866024Y-89113628D01*
X129770786Y-88589819D02*
X130437452Y-88589819D01*
X130437452Y-88589819D02*
X130008881Y-89589819D01*
X124238095Y-95454819D02*
X124238095Y-96264342D01*
X124238095Y-96264342D02*
X124285714Y-96359580D01*
X124285714Y-96359580D02*
X124333333Y-96407200D01*
X124333333Y-96407200D02*
X124428571Y-96454819D01*
X124428571Y-96454819D02*
X124619047Y-96454819D01*
X124619047Y-96454819D02*
X124714285Y-96407200D01*
X124714285Y-96407200D02*
X124761904Y-96359580D01*
X124761904Y-96359580D02*
X124809523Y-96264342D01*
X124809523Y-96264342D02*
X124809523Y-95454819D01*
X125238095Y-95550057D02*
X125285714Y-95502438D01*
X125285714Y-95502438D02*
X125380952Y-95454819D01*
X125380952Y-95454819D02*
X125619047Y-95454819D01*
X125619047Y-95454819D02*
X125714285Y-95502438D01*
X125714285Y-95502438D02*
X125761904Y-95550057D01*
X125761904Y-95550057D02*
X125809523Y-95645295D01*
X125809523Y-95645295D02*
X125809523Y-95740533D01*
X125809523Y-95740533D02*
X125761904Y-95883390D01*
X125761904Y-95883390D02*
X125190476Y-96454819D01*
X125190476Y-96454819D02*
X125809523Y-96454819D01*
X196126666Y-46809819D02*
X196126666Y-47524104D01*
X196126666Y-47524104D02*
X196079047Y-47666961D01*
X196079047Y-47666961D02*
X195983809Y-47762200D01*
X195983809Y-47762200D02*
X195840952Y-47809819D01*
X195840952Y-47809819D02*
X195745714Y-47809819D01*
X196507619Y-46809819D02*
X197126666Y-46809819D01*
X197126666Y-46809819D02*
X196793333Y-47190771D01*
X196793333Y-47190771D02*
X196936190Y-47190771D01*
X196936190Y-47190771D02*
X197031428Y-47238390D01*
X197031428Y-47238390D02*
X197079047Y-47286009D01*
X197079047Y-47286009D02*
X197126666Y-47381247D01*
X197126666Y-47381247D02*
X197126666Y-47619342D01*
X197126666Y-47619342D02*
X197079047Y-47714580D01*
X197079047Y-47714580D02*
X197031428Y-47762200D01*
X197031428Y-47762200D02*
X196936190Y-47809819D01*
X196936190Y-47809819D02*
X196650476Y-47809819D01*
X196650476Y-47809819D02*
X196555238Y-47762200D01*
X196555238Y-47762200D02*
X196507619Y-47714580D01*
X170744595Y-91299819D02*
X170744595Y-92014104D01*
X170744595Y-92014104D02*
X170696976Y-92156961D01*
X170696976Y-92156961D02*
X170601738Y-92252200D01*
X170601738Y-92252200D02*
X170458881Y-92299819D01*
X170458881Y-92299819D02*
X170363643Y-92299819D01*
X171744595Y-92299819D02*
X171173167Y-92299819D01*
X171458881Y-92299819D02*
X171458881Y-91299819D01*
X171458881Y-91299819D02*
X171363643Y-91442676D01*
X171363643Y-91442676D02*
X171268405Y-91537914D01*
X171268405Y-91537914D02*
X171173167Y-91585533D01*
X172363643Y-91299819D02*
X172458881Y-91299819D01*
X172458881Y-91299819D02*
X172554119Y-91347438D01*
X172554119Y-91347438D02*
X172601738Y-91395057D01*
X172601738Y-91395057D02*
X172649357Y-91490295D01*
X172649357Y-91490295D02*
X172696976Y-91680771D01*
X172696976Y-91680771D02*
X172696976Y-91918866D01*
X172696976Y-91918866D02*
X172649357Y-92109342D01*
X172649357Y-92109342D02*
X172601738Y-92204580D01*
X172601738Y-92204580D02*
X172554119Y-92252200D01*
X172554119Y-92252200D02*
X172458881Y-92299819D01*
X172458881Y-92299819D02*
X172363643Y-92299819D01*
X172363643Y-92299819D02*
X172268405Y-92252200D01*
X172268405Y-92252200D02*
X172220786Y-92204580D01*
X172220786Y-92204580D02*
X172173167Y-92109342D01*
X172173167Y-92109342D02*
X172125548Y-91918866D01*
X172125548Y-91918866D02*
X172125548Y-91680771D01*
X172125548Y-91680771D02*
X172173167Y-91490295D01*
X172173167Y-91490295D02*
X172220786Y-91395057D01*
X172220786Y-91395057D02*
X172268405Y-91347438D01*
X172268405Y-91347438D02*
X172363643Y-91299819D01*
X118032547Y-106749819D02*
X118032547Y-107464104D01*
X118032547Y-107464104D02*
X117984928Y-107606961D01*
X117984928Y-107606961D02*
X117889690Y-107702200D01*
X117889690Y-107702200D02*
X117746833Y-107749819D01*
X117746833Y-107749819D02*
X117651595Y-107749819D01*
X118937309Y-106749819D02*
X118746833Y-106749819D01*
X118746833Y-106749819D02*
X118651595Y-106797438D01*
X118651595Y-106797438D02*
X118603976Y-106845057D01*
X118603976Y-106845057D02*
X118508738Y-106987914D01*
X118508738Y-106987914D02*
X118461119Y-107178390D01*
X118461119Y-107178390D02*
X118461119Y-107559342D01*
X118461119Y-107559342D02*
X118508738Y-107654580D01*
X118508738Y-107654580D02*
X118556357Y-107702200D01*
X118556357Y-107702200D02*
X118651595Y-107749819D01*
X118651595Y-107749819D02*
X118842071Y-107749819D01*
X118842071Y-107749819D02*
X118937309Y-107702200D01*
X118937309Y-107702200D02*
X118984928Y-107654580D01*
X118984928Y-107654580D02*
X119032547Y-107559342D01*
X119032547Y-107559342D02*
X119032547Y-107321247D01*
X119032547Y-107321247D02*
X118984928Y-107226009D01*
X118984928Y-107226009D02*
X118937309Y-107178390D01*
X118937309Y-107178390D02*
X118842071Y-107130771D01*
X118842071Y-107130771D02*
X118651595Y-107130771D01*
X118651595Y-107130771D02*
X118556357Y-107178390D01*
X118556357Y-107178390D02*
X118508738Y-107226009D01*
X118508738Y-107226009D02*
X118461119Y-107321247D01*
X197190476Y-89454819D02*
X197190476Y-90169104D01*
X197190476Y-90169104D02*
X197142857Y-90311961D01*
X197142857Y-90311961D02*
X197047619Y-90407200D01*
X197047619Y-90407200D02*
X196904762Y-90454819D01*
X196904762Y-90454819D02*
X196809524Y-90454819D01*
X198190476Y-90454819D02*
X197619048Y-90454819D01*
X197904762Y-90454819D02*
X197904762Y-89454819D01*
X197904762Y-89454819D02*
X197809524Y-89597676D01*
X197809524Y-89597676D02*
X197714286Y-89692914D01*
X197714286Y-89692914D02*
X197619048Y-89740533D01*
X199142857Y-90454819D02*
X198571429Y-90454819D01*
X198857143Y-90454819D02*
X198857143Y-89454819D01*
X198857143Y-89454819D02*
X198761905Y-89597676D01*
X198761905Y-89597676D02*
X198666667Y-89692914D01*
X198666667Y-89692914D02*
X198571429Y-89740533D01*
X105623938Y-90741666D02*
X105147747Y-91074999D01*
X105623938Y-91313094D02*
X104623938Y-91313094D01*
X104623938Y-91313094D02*
X104623938Y-90932142D01*
X104623938Y-90932142D02*
X104671557Y-90836904D01*
X104671557Y-90836904D02*
X104719176Y-90789285D01*
X104719176Y-90789285D02*
X104814414Y-90741666D01*
X104814414Y-90741666D02*
X104957271Y-90741666D01*
X104957271Y-90741666D02*
X105052509Y-90789285D01*
X105052509Y-90789285D02*
X105100128Y-90836904D01*
X105100128Y-90836904D02*
X105147747Y-90932142D01*
X105147747Y-90932142D02*
X105147747Y-91313094D01*
X104623938Y-89884523D02*
X104623938Y-90074999D01*
X104623938Y-90074999D02*
X104671557Y-90170237D01*
X104671557Y-90170237D02*
X104719176Y-90217856D01*
X104719176Y-90217856D02*
X104862033Y-90313094D01*
X104862033Y-90313094D02*
X105052509Y-90360713D01*
X105052509Y-90360713D02*
X105433461Y-90360713D01*
X105433461Y-90360713D02*
X105528699Y-90313094D01*
X105528699Y-90313094D02*
X105576319Y-90265475D01*
X105576319Y-90265475D02*
X105623938Y-90170237D01*
X105623938Y-90170237D02*
X105623938Y-89979761D01*
X105623938Y-89979761D02*
X105576319Y-89884523D01*
X105576319Y-89884523D02*
X105528699Y-89836904D01*
X105528699Y-89836904D02*
X105433461Y-89789285D01*
X105433461Y-89789285D02*
X105195366Y-89789285D01*
X105195366Y-89789285D02*
X105100128Y-89836904D01*
X105100128Y-89836904D02*
X105052509Y-89884523D01*
X105052509Y-89884523D02*
X105004890Y-89979761D01*
X105004890Y-89979761D02*
X105004890Y-90170237D01*
X105004890Y-90170237D02*
X105052509Y-90265475D01*
X105052509Y-90265475D02*
X105100128Y-90313094D01*
X105100128Y-90313094D02*
X105195366Y-90360713D01*
X150406666Y-46809819D02*
X150406666Y-47524104D01*
X150406666Y-47524104D02*
X150359047Y-47666961D01*
X150359047Y-47666961D02*
X150263809Y-47762200D01*
X150263809Y-47762200D02*
X150120952Y-47809819D01*
X150120952Y-47809819D02*
X150025714Y-47809819D01*
X150787619Y-46809819D02*
X151454285Y-46809819D01*
X151454285Y-46809819D02*
X151025714Y-47809819D01*
X149666666Y-105889819D02*
X149666666Y-106604104D01*
X149666666Y-106604104D02*
X149619047Y-106746961D01*
X149619047Y-106746961D02*
X149523809Y-106842200D01*
X149523809Y-106842200D02*
X149380952Y-106889819D01*
X149380952Y-106889819D02*
X149285714Y-106889819D01*
X150666666Y-106889819D02*
X150095238Y-106889819D01*
X150380952Y-106889819D02*
X150380952Y-105889819D01*
X150380952Y-105889819D02*
X150285714Y-106032676D01*
X150285714Y-106032676D02*
X150190476Y-106127914D01*
X150190476Y-106127914D02*
X150095238Y-106175533D01*
X197632547Y-104529819D02*
X197632547Y-105244104D01*
X197632547Y-105244104D02*
X197584928Y-105386961D01*
X197584928Y-105386961D02*
X197489690Y-105482200D01*
X197489690Y-105482200D02*
X197346833Y-105529819D01*
X197346833Y-105529819D02*
X197251595Y-105529819D01*
X198584928Y-104529819D02*
X198108738Y-104529819D01*
X198108738Y-104529819D02*
X198061119Y-105006009D01*
X198061119Y-105006009D02*
X198108738Y-104958390D01*
X198108738Y-104958390D02*
X198203976Y-104910771D01*
X198203976Y-104910771D02*
X198442071Y-104910771D01*
X198442071Y-104910771D02*
X198537309Y-104958390D01*
X198537309Y-104958390D02*
X198584928Y-105006009D01*
X198584928Y-105006009D02*
X198632547Y-105101247D01*
X198632547Y-105101247D02*
X198632547Y-105339342D01*
X198632547Y-105339342D02*
X198584928Y-105434580D01*
X198584928Y-105434580D02*
X198537309Y-105482200D01*
X198537309Y-105482200D02*
X198442071Y-105529819D01*
X198442071Y-105529819D02*
X198203976Y-105529819D01*
X198203976Y-105529819D02*
X198108738Y-105482200D01*
X198108738Y-105482200D02*
X198061119Y-105434580D01*
X116666666Y-84454819D02*
X116666666Y-85169104D01*
X116666666Y-85169104D02*
X116619047Y-85311961D01*
X116619047Y-85311961D02*
X116523809Y-85407200D01*
X116523809Y-85407200D02*
X116380952Y-85454819D01*
X116380952Y-85454819D02*
X116285714Y-85454819D01*
X117285714Y-84883390D02*
X117190476Y-84835771D01*
X117190476Y-84835771D02*
X117142857Y-84788152D01*
X117142857Y-84788152D02*
X117095238Y-84692914D01*
X117095238Y-84692914D02*
X117095238Y-84645295D01*
X117095238Y-84645295D02*
X117142857Y-84550057D01*
X117142857Y-84550057D02*
X117190476Y-84502438D01*
X117190476Y-84502438D02*
X117285714Y-84454819D01*
X117285714Y-84454819D02*
X117476190Y-84454819D01*
X117476190Y-84454819D02*
X117571428Y-84502438D01*
X117571428Y-84502438D02*
X117619047Y-84550057D01*
X117619047Y-84550057D02*
X117666666Y-84645295D01*
X117666666Y-84645295D02*
X117666666Y-84692914D01*
X117666666Y-84692914D02*
X117619047Y-84788152D01*
X117619047Y-84788152D02*
X117571428Y-84835771D01*
X117571428Y-84835771D02*
X117476190Y-84883390D01*
X117476190Y-84883390D02*
X117285714Y-84883390D01*
X117285714Y-84883390D02*
X117190476Y-84931009D01*
X117190476Y-84931009D02*
X117142857Y-84978628D01*
X117142857Y-84978628D02*
X117095238Y-85073866D01*
X117095238Y-85073866D02*
X117095238Y-85264342D01*
X117095238Y-85264342D02*
X117142857Y-85359580D01*
X117142857Y-85359580D02*
X117190476Y-85407200D01*
X117190476Y-85407200D02*
X117285714Y-85454819D01*
X117285714Y-85454819D02*
X117476190Y-85454819D01*
X117476190Y-85454819D02*
X117571428Y-85407200D01*
X117571428Y-85407200D02*
X117619047Y-85359580D01*
X117619047Y-85359580D02*
X117666666Y-85264342D01*
X117666666Y-85264342D02*
X117666666Y-85073866D01*
X117666666Y-85073866D02*
X117619047Y-84978628D01*
X117619047Y-84978628D02*
X117571428Y-84931009D01*
X117571428Y-84931009D02*
X117476190Y-84883390D01*
X190437452Y-89589819D02*
X190104119Y-89113628D01*
X189866024Y-89589819D02*
X189866024Y-88589819D01*
X189866024Y-88589819D02*
X190246976Y-88589819D01*
X190246976Y-88589819D02*
X190342214Y-88637438D01*
X190342214Y-88637438D02*
X190389833Y-88685057D01*
X190389833Y-88685057D02*
X190437452Y-88780295D01*
X190437452Y-88780295D02*
X190437452Y-88923152D01*
X190437452Y-88923152D02*
X190389833Y-89018390D01*
X190389833Y-89018390D02*
X190342214Y-89066009D01*
X190342214Y-89066009D02*
X190246976Y-89113628D01*
X190246976Y-89113628D02*
X189866024Y-89113628D01*
X190913643Y-89589819D02*
X191104119Y-89589819D01*
X191104119Y-89589819D02*
X191199357Y-89542200D01*
X191199357Y-89542200D02*
X191246976Y-89494580D01*
X191246976Y-89494580D02*
X191342214Y-89351723D01*
X191342214Y-89351723D02*
X191389833Y-89161247D01*
X191389833Y-89161247D02*
X191389833Y-88780295D01*
X191389833Y-88780295D02*
X191342214Y-88685057D01*
X191342214Y-88685057D02*
X191294595Y-88637438D01*
X191294595Y-88637438D02*
X191199357Y-88589819D01*
X191199357Y-88589819D02*
X191008881Y-88589819D01*
X191008881Y-88589819D02*
X190913643Y-88637438D01*
X190913643Y-88637438D02*
X190866024Y-88685057D01*
X190866024Y-88685057D02*
X190818405Y-88780295D01*
X190818405Y-88780295D02*
X190818405Y-89018390D01*
X190818405Y-89018390D02*
X190866024Y-89113628D01*
X190866024Y-89113628D02*
X190913643Y-89161247D01*
X190913643Y-89161247D02*
X191008881Y-89208866D01*
X191008881Y-89208866D02*
X191199357Y-89208866D01*
X191199357Y-89208866D02*
X191294595Y-89161247D01*
X191294595Y-89161247D02*
X191342214Y-89113628D01*
X191342214Y-89113628D02*
X191389833Y-89018390D01*
X158793976Y-99344819D02*
X158793976Y-100154342D01*
X158793976Y-100154342D02*
X158841595Y-100249580D01*
X158841595Y-100249580D02*
X158889214Y-100297200D01*
X158889214Y-100297200D02*
X158984452Y-100344819D01*
X158984452Y-100344819D02*
X159174928Y-100344819D01*
X159174928Y-100344819D02*
X159270166Y-100297200D01*
X159270166Y-100297200D02*
X159317785Y-100249580D01*
X159317785Y-100249580D02*
X159365404Y-100154342D01*
X159365404Y-100154342D02*
X159365404Y-99344819D01*
X160270166Y-99678152D02*
X160270166Y-100344819D01*
X160032071Y-99297200D02*
X159793976Y-100011485D01*
X159793976Y-100011485D02*
X160413023Y-100011485D01*
X117386666Y-46809819D02*
X117386666Y-47524104D01*
X117386666Y-47524104D02*
X117339047Y-47666961D01*
X117339047Y-47666961D02*
X117243809Y-47762200D01*
X117243809Y-47762200D02*
X117100952Y-47809819D01*
X117100952Y-47809819D02*
X117005714Y-47809819D01*
X117815238Y-46905057D02*
X117862857Y-46857438D01*
X117862857Y-46857438D02*
X117958095Y-46809819D01*
X117958095Y-46809819D02*
X118196190Y-46809819D01*
X118196190Y-46809819D02*
X118291428Y-46857438D01*
X118291428Y-46857438D02*
X118339047Y-46905057D01*
X118339047Y-46905057D02*
X118386666Y-47000295D01*
X118386666Y-47000295D02*
X118386666Y-47095533D01*
X118386666Y-47095533D02*
X118339047Y-47238390D01*
X118339047Y-47238390D02*
X117767619Y-47809819D01*
X117767619Y-47809819D02*
X118386666Y-47809819D01*
X113023333Y-93084819D02*
X112690000Y-92608628D01*
X112451905Y-93084819D02*
X112451905Y-92084819D01*
X112451905Y-92084819D02*
X112832857Y-92084819D01*
X112832857Y-92084819D02*
X112928095Y-92132438D01*
X112928095Y-92132438D02*
X112975714Y-92180057D01*
X112975714Y-92180057D02*
X113023333Y-92275295D01*
X113023333Y-92275295D02*
X113023333Y-92418152D01*
X113023333Y-92418152D02*
X112975714Y-92513390D01*
X112975714Y-92513390D02*
X112928095Y-92561009D01*
X112928095Y-92561009D02*
X112832857Y-92608628D01*
X112832857Y-92608628D02*
X112451905Y-92608628D01*
X113975714Y-93084819D02*
X113404286Y-93084819D01*
X113690000Y-93084819D02*
X113690000Y-92084819D01*
X113690000Y-92084819D02*
X113594762Y-92227676D01*
X113594762Y-92227676D02*
X113499524Y-92322914D01*
X113499524Y-92322914D02*
X113404286Y-92370533D01*
X188778095Y-107668938D02*
X188778095Y-108478461D01*
X188778095Y-108478461D02*
X188825714Y-108573699D01*
X188825714Y-108573699D02*
X188873333Y-108621319D01*
X188873333Y-108621319D02*
X188968571Y-108668938D01*
X188968571Y-108668938D02*
X189159047Y-108668938D01*
X189159047Y-108668938D02*
X189254285Y-108621319D01*
X189254285Y-108621319D02*
X189301904Y-108573699D01*
X189301904Y-108573699D02*
X189349523Y-108478461D01*
X189349523Y-108478461D02*
X189349523Y-107668938D01*
X189730476Y-107668938D02*
X190349523Y-107668938D01*
X190349523Y-107668938D02*
X190016190Y-108049890D01*
X190016190Y-108049890D02*
X190159047Y-108049890D01*
X190159047Y-108049890D02*
X190254285Y-108097509D01*
X190254285Y-108097509D02*
X190301904Y-108145128D01*
X190301904Y-108145128D02*
X190349523Y-108240366D01*
X190349523Y-108240366D02*
X190349523Y-108478461D01*
X190349523Y-108478461D02*
X190301904Y-108573699D01*
X190301904Y-108573699D02*
X190254285Y-108621319D01*
X190254285Y-108621319D02*
X190159047Y-108668938D01*
X190159047Y-108668938D02*
X189873333Y-108668938D01*
X189873333Y-108668938D02*
X189778095Y-108621319D01*
X189778095Y-108621319D02*
X189730476Y-108573699D01*
X101084819Y-103356666D02*
X100608628Y-103689999D01*
X101084819Y-103928094D02*
X100084819Y-103928094D01*
X100084819Y-103928094D02*
X100084819Y-103547142D01*
X100084819Y-103547142D02*
X100132438Y-103451904D01*
X100132438Y-103451904D02*
X100180057Y-103404285D01*
X100180057Y-103404285D02*
X100275295Y-103356666D01*
X100275295Y-103356666D02*
X100418152Y-103356666D01*
X100418152Y-103356666D02*
X100513390Y-103404285D01*
X100513390Y-103404285D02*
X100561009Y-103451904D01*
X100561009Y-103451904D02*
X100608628Y-103547142D01*
X100608628Y-103547142D02*
X100608628Y-103928094D01*
X100084819Y-102451904D02*
X100084819Y-102928094D01*
X100084819Y-102928094D02*
X100561009Y-102975713D01*
X100561009Y-102975713D02*
X100513390Y-102928094D01*
X100513390Y-102928094D02*
X100465771Y-102832856D01*
X100465771Y-102832856D02*
X100465771Y-102594761D01*
X100465771Y-102594761D02*
X100513390Y-102499523D01*
X100513390Y-102499523D02*
X100561009Y-102451904D01*
X100561009Y-102451904D02*
X100656247Y-102404285D01*
X100656247Y-102404285D02*
X100894342Y-102404285D01*
X100894342Y-102404285D02*
X100989580Y-102451904D01*
X100989580Y-102451904D02*
X101037200Y-102499523D01*
X101037200Y-102499523D02*
X101084819Y-102594761D01*
X101084819Y-102594761D02*
X101084819Y-102832856D01*
X101084819Y-102832856D02*
X101037200Y-102928094D01*
X101037200Y-102928094D02*
X100989580Y-102975713D01*
X124764176Y-64000238D02*
X124716557Y-64095476D01*
X124716557Y-64095476D02*
X124621319Y-64190714D01*
X124621319Y-64190714D02*
X124478461Y-64333571D01*
X124478461Y-64333571D02*
X124430842Y-64428809D01*
X124430842Y-64428809D02*
X124430842Y-64524047D01*
X124668938Y-64476428D02*
X124621319Y-64571666D01*
X124621319Y-64571666D02*
X124526080Y-64666904D01*
X124526080Y-64666904D02*
X124335604Y-64714523D01*
X124335604Y-64714523D02*
X124002271Y-64714523D01*
X124002271Y-64714523D02*
X123811795Y-64666904D01*
X123811795Y-64666904D02*
X123716557Y-64571666D01*
X123716557Y-64571666D02*
X123668938Y-64476428D01*
X123668938Y-64476428D02*
X123668938Y-64285952D01*
X123668938Y-64285952D02*
X123716557Y-64190714D01*
X123716557Y-64190714D02*
X123811795Y-64095476D01*
X123811795Y-64095476D02*
X124002271Y-64047857D01*
X124002271Y-64047857D02*
X124335604Y-64047857D01*
X124335604Y-64047857D02*
X124526080Y-64095476D01*
X124526080Y-64095476D02*
X124621319Y-64190714D01*
X124621319Y-64190714D02*
X124668938Y-64285952D01*
X124668938Y-64285952D02*
X124668938Y-64476428D01*
X123764176Y-63666904D02*
X123716557Y-63619285D01*
X123716557Y-63619285D02*
X123668938Y-63524047D01*
X123668938Y-63524047D02*
X123668938Y-63285952D01*
X123668938Y-63285952D02*
X123716557Y-63190714D01*
X123716557Y-63190714D02*
X123764176Y-63143095D01*
X123764176Y-63143095D02*
X123859414Y-63095476D01*
X123859414Y-63095476D02*
X123954652Y-63095476D01*
X123954652Y-63095476D02*
X124097509Y-63143095D01*
X124097509Y-63143095D02*
X124668938Y-63714523D01*
X124668938Y-63714523D02*
X124668938Y-63095476D01*
X189939580Y-97416666D02*
X189987200Y-97464285D01*
X189987200Y-97464285D02*
X190034819Y-97607142D01*
X190034819Y-97607142D02*
X190034819Y-97702380D01*
X190034819Y-97702380D02*
X189987200Y-97845237D01*
X189987200Y-97845237D02*
X189891961Y-97940475D01*
X189891961Y-97940475D02*
X189796723Y-97988094D01*
X189796723Y-97988094D02*
X189606247Y-98035713D01*
X189606247Y-98035713D02*
X189463390Y-98035713D01*
X189463390Y-98035713D02*
X189272914Y-97988094D01*
X189272914Y-97988094D02*
X189177676Y-97940475D01*
X189177676Y-97940475D02*
X189082438Y-97845237D01*
X189082438Y-97845237D02*
X189034819Y-97702380D01*
X189034819Y-97702380D02*
X189034819Y-97607142D01*
X189034819Y-97607142D02*
X189082438Y-97464285D01*
X189082438Y-97464285D02*
X189130057Y-97416666D01*
X190034819Y-96464285D02*
X190034819Y-97035713D01*
X190034819Y-96749999D02*
X189034819Y-96749999D01*
X189034819Y-96749999D02*
X189177676Y-96845237D01*
X189177676Y-96845237D02*
X189272914Y-96940475D01*
X189272914Y-96940475D02*
X189320533Y-97035713D01*
X148573333Y-93089819D02*
X148240000Y-92613628D01*
X148001905Y-93089819D02*
X148001905Y-92089819D01*
X148001905Y-92089819D02*
X148382857Y-92089819D01*
X148382857Y-92089819D02*
X148478095Y-92137438D01*
X148478095Y-92137438D02*
X148525714Y-92185057D01*
X148525714Y-92185057D02*
X148573333Y-92280295D01*
X148573333Y-92280295D02*
X148573333Y-92423152D01*
X148573333Y-92423152D02*
X148525714Y-92518390D01*
X148525714Y-92518390D02*
X148478095Y-92566009D01*
X148478095Y-92566009D02*
X148382857Y-92613628D01*
X148382857Y-92613628D02*
X148001905Y-92613628D01*
X148954286Y-92185057D02*
X149001905Y-92137438D01*
X149001905Y-92137438D02*
X149097143Y-92089819D01*
X149097143Y-92089819D02*
X149335238Y-92089819D01*
X149335238Y-92089819D02*
X149430476Y-92137438D01*
X149430476Y-92137438D02*
X149478095Y-92185057D01*
X149478095Y-92185057D02*
X149525714Y-92280295D01*
X149525714Y-92280295D02*
X149525714Y-92375533D01*
X149525714Y-92375533D02*
X149478095Y-92518390D01*
X149478095Y-92518390D02*
X148906667Y-93089819D01*
X148906667Y-93089819D02*
X149525714Y-93089819D01*
X174737142Y-95319819D02*
X174403809Y-94843628D01*
X174165714Y-95319819D02*
X174165714Y-94319819D01*
X174165714Y-94319819D02*
X174546666Y-94319819D01*
X174546666Y-94319819D02*
X174641904Y-94367438D01*
X174641904Y-94367438D02*
X174689523Y-94415057D01*
X174689523Y-94415057D02*
X174737142Y-94510295D01*
X174737142Y-94510295D02*
X174737142Y-94653152D01*
X174737142Y-94653152D02*
X174689523Y-94748390D01*
X174689523Y-94748390D02*
X174641904Y-94796009D01*
X174641904Y-94796009D02*
X174546666Y-94843628D01*
X174546666Y-94843628D02*
X174165714Y-94843628D01*
X175689523Y-95319819D02*
X175118095Y-95319819D01*
X175403809Y-95319819D02*
X175403809Y-94319819D01*
X175403809Y-94319819D02*
X175308571Y-94462676D01*
X175308571Y-94462676D02*
X175213333Y-94557914D01*
X175213333Y-94557914D02*
X175118095Y-94605533D01*
X176308571Y-94319819D02*
X176403809Y-94319819D01*
X176403809Y-94319819D02*
X176499047Y-94367438D01*
X176499047Y-94367438D02*
X176546666Y-94415057D01*
X176546666Y-94415057D02*
X176594285Y-94510295D01*
X176594285Y-94510295D02*
X176641904Y-94700771D01*
X176641904Y-94700771D02*
X176641904Y-94938866D01*
X176641904Y-94938866D02*
X176594285Y-95129342D01*
X176594285Y-95129342D02*
X176546666Y-95224580D01*
X176546666Y-95224580D02*
X176499047Y-95272200D01*
X176499047Y-95272200D02*
X176403809Y-95319819D01*
X176403809Y-95319819D02*
X176308571Y-95319819D01*
X176308571Y-95319819D02*
X176213333Y-95272200D01*
X176213333Y-95272200D02*
X176165714Y-95224580D01*
X176165714Y-95224580D02*
X176118095Y-95129342D01*
X176118095Y-95129342D02*
X176070476Y-94938866D01*
X176070476Y-94938866D02*
X176070476Y-94700771D01*
X176070476Y-94700771D02*
X176118095Y-94510295D01*
X176118095Y-94510295D02*
X176165714Y-94415057D01*
X176165714Y-94415057D02*
X176213333Y-94367438D01*
X176213333Y-94367438D02*
X176308571Y-94319819D01*
X135883333Y-97824819D02*
X135550000Y-97348628D01*
X135311905Y-97824819D02*
X135311905Y-96824819D01*
X135311905Y-96824819D02*
X135692857Y-96824819D01*
X135692857Y-96824819D02*
X135788095Y-96872438D01*
X135788095Y-96872438D02*
X135835714Y-96920057D01*
X135835714Y-96920057D02*
X135883333Y-97015295D01*
X135883333Y-97015295D02*
X135883333Y-97158152D01*
X135883333Y-97158152D02*
X135835714Y-97253390D01*
X135835714Y-97253390D02*
X135788095Y-97301009D01*
X135788095Y-97301009D02*
X135692857Y-97348628D01*
X135692857Y-97348628D02*
X135311905Y-97348628D01*
X136740476Y-97158152D02*
X136740476Y-97824819D01*
X136502381Y-96777200D02*
X136264286Y-97491485D01*
X136264286Y-97491485D02*
X136883333Y-97491485D01*
X83190476Y-113324819D02*
X83190476Y-114039104D01*
X83190476Y-114039104D02*
X83142857Y-114181961D01*
X83142857Y-114181961D02*
X83047619Y-114277200D01*
X83047619Y-114277200D02*
X82904762Y-114324819D01*
X82904762Y-114324819D02*
X82809524Y-114324819D01*
X84190476Y-114324819D02*
X83619048Y-114324819D01*
X83904762Y-114324819D02*
X83904762Y-113324819D01*
X83904762Y-113324819D02*
X83809524Y-113467676D01*
X83809524Y-113467676D02*
X83714286Y-113562914D01*
X83714286Y-113562914D02*
X83619048Y-113610533D01*
X84523810Y-113324819D02*
X85142857Y-113324819D01*
X85142857Y-113324819D02*
X84809524Y-113705771D01*
X84809524Y-113705771D02*
X84952381Y-113705771D01*
X84952381Y-113705771D02*
X85047619Y-113753390D01*
X85047619Y-113753390D02*
X85095238Y-113801009D01*
X85095238Y-113801009D02*
X85142857Y-113896247D01*
X85142857Y-113896247D02*
X85142857Y-114134342D01*
X85142857Y-114134342D02*
X85095238Y-114229580D01*
X85095238Y-114229580D02*
X85047619Y-114277200D01*
X85047619Y-114277200D02*
X84952381Y-114324819D01*
X84952381Y-114324819D02*
X84666667Y-114324819D01*
X84666667Y-114324819D02*
X84571429Y-114277200D01*
X84571429Y-114277200D02*
X84523810Y-114229580D01*
X94764176Y-64000238D02*
X94716557Y-64095476D01*
X94716557Y-64095476D02*
X94621319Y-64190714D01*
X94621319Y-64190714D02*
X94478461Y-64333571D01*
X94478461Y-64333571D02*
X94430842Y-64428809D01*
X94430842Y-64428809D02*
X94430842Y-64524047D01*
X94668938Y-64476428D02*
X94621319Y-64571666D01*
X94621319Y-64571666D02*
X94526080Y-64666904D01*
X94526080Y-64666904D02*
X94335604Y-64714523D01*
X94335604Y-64714523D02*
X94002271Y-64714523D01*
X94002271Y-64714523D02*
X93811795Y-64666904D01*
X93811795Y-64666904D02*
X93716557Y-64571666D01*
X93716557Y-64571666D02*
X93668938Y-64476428D01*
X93668938Y-64476428D02*
X93668938Y-64285952D01*
X93668938Y-64285952D02*
X93716557Y-64190714D01*
X93716557Y-64190714D02*
X93811795Y-64095476D01*
X93811795Y-64095476D02*
X94002271Y-64047857D01*
X94002271Y-64047857D02*
X94335604Y-64047857D01*
X94335604Y-64047857D02*
X94526080Y-64095476D01*
X94526080Y-64095476D02*
X94621319Y-64190714D01*
X94621319Y-64190714D02*
X94668938Y-64285952D01*
X94668938Y-64285952D02*
X94668938Y-64476428D01*
X94668938Y-63095476D02*
X94668938Y-63666904D01*
X94668938Y-63381190D02*
X93668938Y-63381190D01*
X93668938Y-63381190D02*
X93811795Y-63476428D01*
X93811795Y-63476428D02*
X93907033Y-63571666D01*
X93907033Y-63571666D02*
X93954652Y-63666904D01*
X158687452Y-89589819D02*
X158354119Y-89113628D01*
X158116024Y-89589819D02*
X158116024Y-88589819D01*
X158116024Y-88589819D02*
X158496976Y-88589819D01*
X158496976Y-88589819D02*
X158592214Y-88637438D01*
X158592214Y-88637438D02*
X158639833Y-88685057D01*
X158639833Y-88685057D02*
X158687452Y-88780295D01*
X158687452Y-88780295D02*
X158687452Y-88923152D01*
X158687452Y-88923152D02*
X158639833Y-89018390D01*
X158639833Y-89018390D02*
X158592214Y-89066009D01*
X158592214Y-89066009D02*
X158496976Y-89113628D01*
X158496976Y-89113628D02*
X158116024Y-89113628D01*
X159258881Y-89018390D02*
X159163643Y-88970771D01*
X159163643Y-88970771D02*
X159116024Y-88923152D01*
X159116024Y-88923152D02*
X159068405Y-88827914D01*
X159068405Y-88827914D02*
X159068405Y-88780295D01*
X159068405Y-88780295D02*
X159116024Y-88685057D01*
X159116024Y-88685057D02*
X159163643Y-88637438D01*
X159163643Y-88637438D02*
X159258881Y-88589819D01*
X159258881Y-88589819D02*
X159449357Y-88589819D01*
X159449357Y-88589819D02*
X159544595Y-88637438D01*
X159544595Y-88637438D02*
X159592214Y-88685057D01*
X159592214Y-88685057D02*
X159639833Y-88780295D01*
X159639833Y-88780295D02*
X159639833Y-88827914D01*
X159639833Y-88827914D02*
X159592214Y-88923152D01*
X159592214Y-88923152D02*
X159544595Y-88970771D01*
X159544595Y-88970771D02*
X159449357Y-89018390D01*
X159449357Y-89018390D02*
X159258881Y-89018390D01*
X159258881Y-89018390D02*
X159163643Y-89066009D01*
X159163643Y-89066009D02*
X159116024Y-89113628D01*
X159116024Y-89113628D02*
X159068405Y-89208866D01*
X159068405Y-89208866D02*
X159068405Y-89399342D01*
X159068405Y-89399342D02*
X159116024Y-89494580D01*
X159116024Y-89494580D02*
X159163643Y-89542200D01*
X159163643Y-89542200D02*
X159258881Y-89589819D01*
X159258881Y-89589819D02*
X159449357Y-89589819D01*
X159449357Y-89589819D02*
X159544595Y-89542200D01*
X159544595Y-89542200D02*
X159592214Y-89494580D01*
X159592214Y-89494580D02*
X159639833Y-89399342D01*
X159639833Y-89399342D02*
X159639833Y-89208866D01*
X159639833Y-89208866D02*
X159592214Y-89113628D01*
X159592214Y-89113628D02*
X159544595Y-89066009D01*
X159544595Y-89066009D02*
X159449357Y-89018390D01*
X173266666Y-46809819D02*
X173266666Y-47524104D01*
X173266666Y-47524104D02*
X173219047Y-47666961D01*
X173219047Y-47666961D02*
X173123809Y-47762200D01*
X173123809Y-47762200D02*
X172980952Y-47809819D01*
X172980952Y-47809819D02*
X172885714Y-47809819D01*
X174171428Y-47143152D02*
X174171428Y-47809819D01*
X173933333Y-46762200D02*
X173695238Y-47476485D01*
X173695238Y-47476485D02*
X174314285Y-47476485D01*
X170574595Y-110004819D02*
X170574595Y-110719104D01*
X170574595Y-110719104D02*
X170526976Y-110861961D01*
X170526976Y-110861961D02*
X170431738Y-110957200D01*
X170431738Y-110957200D02*
X170288881Y-111004819D01*
X170288881Y-111004819D02*
X170193643Y-111004819D01*
X171574595Y-111004819D02*
X171003167Y-111004819D01*
X171288881Y-111004819D02*
X171288881Y-110004819D01*
X171288881Y-110004819D02*
X171193643Y-110147676D01*
X171193643Y-110147676D02*
X171098405Y-110242914D01*
X171098405Y-110242914D02*
X171003167Y-110290533D01*
X171955548Y-110100057D02*
X172003167Y-110052438D01*
X172003167Y-110052438D02*
X172098405Y-110004819D01*
X172098405Y-110004819D02*
X172336500Y-110004819D01*
X172336500Y-110004819D02*
X172431738Y-110052438D01*
X172431738Y-110052438D02*
X172479357Y-110100057D01*
X172479357Y-110100057D02*
X172526976Y-110195295D01*
X172526976Y-110195295D02*
X172526976Y-110290533D01*
X172526976Y-110290533D02*
X172479357Y-110433390D01*
X172479357Y-110433390D02*
X171907929Y-111004819D01*
X171907929Y-111004819D02*
X172526976Y-111004819D01*
X184859580Y-97416666D02*
X184907200Y-97464285D01*
X184907200Y-97464285D02*
X184954819Y-97607142D01*
X184954819Y-97607142D02*
X184954819Y-97702380D01*
X184954819Y-97702380D02*
X184907200Y-97845237D01*
X184907200Y-97845237D02*
X184811961Y-97940475D01*
X184811961Y-97940475D02*
X184716723Y-97988094D01*
X184716723Y-97988094D02*
X184526247Y-98035713D01*
X184526247Y-98035713D02*
X184383390Y-98035713D01*
X184383390Y-98035713D02*
X184192914Y-97988094D01*
X184192914Y-97988094D02*
X184097676Y-97940475D01*
X184097676Y-97940475D02*
X184002438Y-97845237D01*
X184002438Y-97845237D02*
X183954819Y-97702380D01*
X183954819Y-97702380D02*
X183954819Y-97607142D01*
X183954819Y-97607142D02*
X184002438Y-97464285D01*
X184002438Y-97464285D02*
X184050057Y-97416666D01*
X184050057Y-97035713D02*
X184002438Y-96988094D01*
X184002438Y-96988094D02*
X183954819Y-96892856D01*
X183954819Y-96892856D02*
X183954819Y-96654761D01*
X183954819Y-96654761D02*
X184002438Y-96559523D01*
X184002438Y-96559523D02*
X184050057Y-96511904D01*
X184050057Y-96511904D02*
X184145295Y-96464285D01*
X184145295Y-96464285D02*
X184240533Y-96464285D01*
X184240533Y-96464285D02*
X184383390Y-96511904D01*
X184383390Y-96511904D02*
X184954819Y-97083332D01*
X184954819Y-97083332D02*
X184954819Y-96464285D01*
X154764176Y-64000238D02*
X154716557Y-64095476D01*
X154716557Y-64095476D02*
X154621319Y-64190714D01*
X154621319Y-64190714D02*
X154478461Y-64333571D01*
X154478461Y-64333571D02*
X154430842Y-64428809D01*
X154430842Y-64428809D02*
X154430842Y-64524047D01*
X154668938Y-64476428D02*
X154621319Y-64571666D01*
X154621319Y-64571666D02*
X154526080Y-64666904D01*
X154526080Y-64666904D02*
X154335604Y-64714523D01*
X154335604Y-64714523D02*
X154002271Y-64714523D01*
X154002271Y-64714523D02*
X153811795Y-64666904D01*
X153811795Y-64666904D02*
X153716557Y-64571666D01*
X153716557Y-64571666D02*
X153668938Y-64476428D01*
X153668938Y-64476428D02*
X153668938Y-64285952D01*
X153668938Y-64285952D02*
X153716557Y-64190714D01*
X153716557Y-64190714D02*
X153811795Y-64095476D01*
X153811795Y-64095476D02*
X154002271Y-64047857D01*
X154002271Y-64047857D02*
X154335604Y-64047857D01*
X154335604Y-64047857D02*
X154526080Y-64095476D01*
X154526080Y-64095476D02*
X154621319Y-64190714D01*
X154621319Y-64190714D02*
X154668938Y-64285952D01*
X154668938Y-64285952D02*
X154668938Y-64476428D01*
X153668938Y-63714523D02*
X153668938Y-63095476D01*
X153668938Y-63095476D02*
X154049890Y-63428809D01*
X154049890Y-63428809D02*
X154049890Y-63285952D01*
X154049890Y-63285952D02*
X154097509Y-63190714D01*
X154097509Y-63190714D02*
X154145128Y-63143095D01*
X154145128Y-63143095D02*
X154240366Y-63095476D01*
X154240366Y-63095476D02*
X154478461Y-63095476D01*
X154478461Y-63095476D02*
X154573699Y-63143095D01*
X154573699Y-63143095D02*
X154621319Y-63190714D01*
X154621319Y-63190714D02*
X154668938Y-63285952D01*
X154668938Y-63285952D02*
X154668938Y-63571666D01*
X154668938Y-63571666D02*
X154621319Y-63666904D01*
X154621319Y-63666904D02*
X154573699Y-63714523D01*
X158546666Y-91659819D02*
X158546666Y-92374104D01*
X158546666Y-92374104D02*
X158499047Y-92516961D01*
X158499047Y-92516961D02*
X158403809Y-92612200D01*
X158403809Y-92612200D02*
X158260952Y-92659819D01*
X158260952Y-92659819D02*
X158165714Y-92659819D01*
X159070476Y-92659819D02*
X159260952Y-92659819D01*
X159260952Y-92659819D02*
X159356190Y-92612200D01*
X159356190Y-92612200D02*
X159403809Y-92564580D01*
X159403809Y-92564580D02*
X159499047Y-92421723D01*
X159499047Y-92421723D02*
X159546666Y-92231247D01*
X159546666Y-92231247D02*
X159546666Y-91850295D01*
X159546666Y-91850295D02*
X159499047Y-91755057D01*
X159499047Y-91755057D02*
X159451428Y-91707438D01*
X159451428Y-91707438D02*
X159356190Y-91659819D01*
X159356190Y-91659819D02*
X159165714Y-91659819D01*
X159165714Y-91659819D02*
X159070476Y-91707438D01*
X159070476Y-91707438D02*
X159022857Y-91755057D01*
X159022857Y-91755057D02*
X158975238Y-91850295D01*
X158975238Y-91850295D02*
X158975238Y-92088390D01*
X158975238Y-92088390D02*
X159022857Y-92183628D01*
X159022857Y-92183628D02*
X159070476Y-92231247D01*
X159070476Y-92231247D02*
X159165714Y-92278866D01*
X159165714Y-92278866D02*
X159356190Y-92278866D01*
X159356190Y-92278866D02*
X159451428Y-92231247D01*
X159451428Y-92231247D02*
X159499047Y-92183628D01*
X159499047Y-92183628D02*
X159546666Y-92088390D01*
X184764176Y-64000238D02*
X184716557Y-64095476D01*
X184716557Y-64095476D02*
X184621319Y-64190714D01*
X184621319Y-64190714D02*
X184478461Y-64333571D01*
X184478461Y-64333571D02*
X184430842Y-64428809D01*
X184430842Y-64428809D02*
X184430842Y-64524047D01*
X184668938Y-64476428D02*
X184621319Y-64571666D01*
X184621319Y-64571666D02*
X184526080Y-64666904D01*
X184526080Y-64666904D02*
X184335604Y-64714523D01*
X184335604Y-64714523D02*
X184002271Y-64714523D01*
X184002271Y-64714523D02*
X183811795Y-64666904D01*
X183811795Y-64666904D02*
X183716557Y-64571666D01*
X183716557Y-64571666D02*
X183668938Y-64476428D01*
X183668938Y-64476428D02*
X183668938Y-64285952D01*
X183668938Y-64285952D02*
X183716557Y-64190714D01*
X183716557Y-64190714D02*
X183811795Y-64095476D01*
X183811795Y-64095476D02*
X184002271Y-64047857D01*
X184002271Y-64047857D02*
X184335604Y-64047857D01*
X184335604Y-64047857D02*
X184526080Y-64095476D01*
X184526080Y-64095476D02*
X184621319Y-64190714D01*
X184621319Y-64190714D02*
X184668938Y-64285952D01*
X184668938Y-64285952D02*
X184668938Y-64476428D01*
X184002271Y-63190714D02*
X184668938Y-63190714D01*
X183621319Y-63428809D02*
X184335604Y-63666904D01*
X184335604Y-63666904D02*
X184335604Y-63047857D01*
D12*
%TO.C,R7*%
X126334119Y-85395000D02*
X126334119Y-85725000D01*
X126334119Y-88135000D02*
X126334119Y-87805000D01*
X132874119Y-85395000D02*
X126334119Y-85395000D01*
X132874119Y-85725000D02*
X132874119Y-85395000D01*
X132874119Y-87805000D02*
X132874119Y-88135000D01*
X132874119Y-88135000D02*
X126334119Y-88135000D01*
%TO.C,U2*%
X121970000Y-93670000D02*
X121970000Y-98870000D01*
X121970000Y-98870000D02*
X127270000Y-98870000D01*
X123620000Y-93670000D02*
X121970000Y-93670000D01*
X127270000Y-93670000D02*
X125620000Y-93670000D01*
X127270000Y-98870000D02*
X127270000Y-93670000D01*
X125620000Y-93670000D02*
G75*
G02*
X123620000Y-93670000I-1000000J0D01*
G01*
%TO.C,J3*%
X191380000Y-38465000D02*
X191380000Y-46085000D01*
X191380000Y-39735000D02*
X201540000Y-39735000D01*
X191380000Y-46085000D02*
X201540000Y-46085000D01*
X201540000Y-38465000D02*
X191380000Y-38465000D01*
X201540000Y-46085000D02*
X201540000Y-38465000D01*
%TO.C,J10*%
X167764119Y-83255000D02*
X167764119Y-89225000D01*
X167764119Y-89225000D02*
X175384119Y-89225000D01*
X167774119Y-86965000D02*
X168524119Y-86965000D01*
X167774119Y-88465000D02*
X167774119Y-89215000D01*
X167774119Y-89215000D02*
X169574119Y-89215000D01*
X168524119Y-84015000D02*
X171574119Y-84015000D01*
X168524119Y-86965000D02*
X168524119Y-84015000D01*
X169574119Y-88465000D02*
X167774119Y-88465000D01*
X169574119Y-89215000D02*
X169574119Y-88465000D01*
X171074119Y-88465000D02*
X171074119Y-89215000D01*
X171074119Y-89215000D02*
X172074119Y-89215000D01*
X172074119Y-88465000D02*
X171074119Y-88465000D01*
X172074119Y-89215000D02*
X172074119Y-88465000D01*
X173574119Y-88465000D02*
X173574119Y-89215000D01*
X173574119Y-89215000D02*
X175374119Y-89215000D01*
X174424119Y-89515000D02*
X175674119Y-89515000D01*
X174624119Y-84015000D02*
X171574119Y-84015000D01*
X174624119Y-86965000D02*
X174624119Y-84015000D01*
X175374119Y-86965000D02*
X174624119Y-86965000D01*
X175374119Y-88465000D02*
X173574119Y-88465000D01*
X175374119Y-89215000D02*
X175374119Y-88465000D01*
X175384119Y-83255000D02*
X167764119Y-83255000D01*
X175384119Y-89225000D02*
X175384119Y-83255000D01*
X175674119Y-89515000D02*
X175674119Y-88265000D01*
%TO.C,J6*%
X108440000Y-103490000D02*
X108440000Y-109460000D01*
X108440000Y-109460000D02*
X116060000Y-109460000D01*
X108450000Y-107200000D02*
X109200000Y-107200000D01*
X108450000Y-108700000D02*
X108450000Y-109450000D01*
X108450000Y-109450000D02*
X110250000Y-109450000D01*
X109200000Y-104250000D02*
X112250000Y-104250000D01*
X109200000Y-107200000D02*
X109200000Y-104250000D01*
X110250000Y-108700000D02*
X108450000Y-108700000D01*
X110250000Y-109450000D02*
X110250000Y-108700000D01*
X111750000Y-108700000D02*
X111750000Y-109450000D01*
X111750000Y-109450000D02*
X112750000Y-109450000D01*
X112750000Y-108700000D02*
X111750000Y-108700000D01*
X112750000Y-109450000D02*
X112750000Y-108700000D01*
X114250000Y-108700000D02*
X114250000Y-109450000D01*
X114250000Y-109450000D02*
X116050000Y-109450000D01*
X115100000Y-109750000D02*
X116350000Y-109750000D01*
X115300000Y-104250000D02*
X112250000Y-104250000D01*
X115300000Y-107200000D02*
X115300000Y-104250000D01*
X116050000Y-107200000D02*
X115300000Y-107200000D01*
X116050000Y-108700000D02*
X114250000Y-108700000D01*
X116050000Y-109450000D02*
X116050000Y-108700000D01*
X116060000Y-103490000D02*
X108440000Y-103490000D01*
X116060000Y-109460000D02*
X116060000Y-103490000D01*
X116350000Y-109750000D02*
X116350000Y-108500000D01*
%TO.C,J11*%
X199514119Y-83255000D02*
X199514119Y-89225000D01*
X199514119Y-89225000D02*
X207134119Y-89225000D01*
X199524119Y-86965000D02*
X200274119Y-86965000D01*
X199524119Y-88465000D02*
X199524119Y-89215000D01*
X199524119Y-89215000D02*
X201324119Y-89215000D01*
X200274119Y-84015000D02*
X203324119Y-84015000D01*
X200274119Y-86965000D02*
X200274119Y-84015000D01*
X201324119Y-88465000D02*
X199524119Y-88465000D01*
X201324119Y-89215000D02*
X201324119Y-88465000D01*
X202824119Y-88465000D02*
X202824119Y-89215000D01*
X202824119Y-89215000D02*
X203824119Y-89215000D01*
X203824119Y-88465000D02*
X202824119Y-88465000D01*
X203824119Y-89215000D02*
X203824119Y-88465000D01*
X205324119Y-88465000D02*
X205324119Y-89215000D01*
X205324119Y-89215000D02*
X207124119Y-89215000D01*
X206174119Y-89515000D02*
X207424119Y-89515000D01*
X206374119Y-84015000D02*
X203324119Y-84015000D01*
X206374119Y-86965000D02*
X206374119Y-84015000D01*
X207124119Y-86965000D02*
X206374119Y-86965000D01*
X207124119Y-88465000D02*
X205324119Y-88465000D01*
X207124119Y-89215000D02*
X207124119Y-88465000D01*
X207134119Y-83255000D02*
X199514119Y-83255000D01*
X207134119Y-89225000D02*
X207134119Y-83255000D01*
X207424119Y-89515000D02*
X207424119Y-88265000D01*
%TO.C,R6*%
X101564119Y-87305000D02*
X101564119Y-93845000D01*
X101564119Y-93845000D02*
X101894119Y-93845000D01*
X101894119Y-87305000D02*
X101564119Y-87305000D01*
X103974119Y-87305000D02*
X104304119Y-87305000D01*
X104304119Y-87305000D02*
X104304119Y-93845000D01*
X104304119Y-93845000D02*
X103974119Y-93845000D01*
%TO.C,J7*%
X145660000Y-38465000D02*
X145660000Y-46085000D01*
X145660000Y-39735000D02*
X155820000Y-39735000D01*
X145660000Y-46085000D02*
X155820000Y-46085000D01*
X155820000Y-38465000D02*
X145660000Y-38465000D01*
X155820000Y-46085000D02*
X155820000Y-38465000D01*
%TO.C,J1*%
X137074119Y-103490000D02*
X137074119Y-109460000D01*
X137074119Y-109460000D02*
X147194119Y-109460000D01*
X137084119Y-107200000D02*
X137834119Y-107200000D01*
X137084119Y-108700000D02*
X137084119Y-109450000D01*
X137084119Y-109450000D02*
X138884119Y-109450000D01*
X137834119Y-104250000D02*
X142134119Y-104250000D01*
X137834119Y-107200000D02*
X137834119Y-104250000D01*
X138884119Y-108700000D02*
X137084119Y-108700000D01*
X138884119Y-109450000D02*
X138884119Y-108700000D01*
X140384119Y-108700000D02*
X140384119Y-109450000D01*
X140384119Y-109450000D02*
X143884119Y-109450000D01*
X143884119Y-108700000D02*
X140384119Y-108700000D01*
X143884119Y-109450000D02*
X143884119Y-108700000D01*
X145384119Y-108700000D02*
X145384119Y-109450000D01*
X145384119Y-109450000D02*
X147184119Y-109450000D01*
X146234119Y-109750000D02*
X147484119Y-109750000D01*
X146434119Y-104250000D02*
X142134119Y-104250000D01*
X146434119Y-107200000D02*
X146434119Y-104250000D01*
X147184119Y-107200000D02*
X146434119Y-107200000D01*
X147184119Y-108700000D02*
X145384119Y-108700000D01*
X147184119Y-109450000D02*
X147184119Y-108700000D01*
X147194119Y-103490000D02*
X137074119Y-103490000D01*
X147194119Y-109460000D02*
X147194119Y-103490000D01*
X147484119Y-109750000D02*
X147484119Y-108500000D01*
%TO.C,J5*%
X199440000Y-103490000D02*
X199440000Y-109460000D01*
X199440000Y-109460000D02*
X207060000Y-109460000D01*
X199450000Y-107200000D02*
X200200000Y-107200000D01*
X199450000Y-108700000D02*
X199450000Y-109450000D01*
X199450000Y-109450000D02*
X201250000Y-109450000D01*
X200200000Y-104250000D02*
X203250000Y-104250000D01*
X200200000Y-107200000D02*
X200200000Y-104250000D01*
X201250000Y-108700000D02*
X199450000Y-108700000D01*
X201250000Y-109450000D02*
X201250000Y-108700000D01*
X202750000Y-108700000D02*
X202750000Y-109450000D01*
X202750000Y-109450000D02*
X203750000Y-109450000D01*
X203750000Y-108700000D02*
X202750000Y-108700000D01*
X203750000Y-109450000D02*
X203750000Y-108700000D01*
X205250000Y-108700000D02*
X205250000Y-109450000D01*
X205250000Y-109450000D02*
X207050000Y-109450000D01*
X206100000Y-109750000D02*
X207350000Y-109750000D01*
X206300000Y-104250000D02*
X203250000Y-104250000D01*
X206300000Y-107200000D02*
X206300000Y-104250000D01*
X207050000Y-107200000D02*
X206300000Y-107200000D01*
X207050000Y-108700000D02*
X205250000Y-108700000D01*
X207050000Y-109450000D02*
X207050000Y-108700000D01*
X207060000Y-103490000D02*
X199440000Y-103490000D01*
X207060000Y-109460000D02*
X207060000Y-103490000D01*
X207350000Y-109750000D02*
X207350000Y-108500000D01*
%TO.C,J8*%
X108034119Y-83255000D02*
X108034119Y-89225000D01*
X108034119Y-89225000D02*
X115654119Y-89225000D01*
X108044119Y-86965000D02*
X108794119Y-86965000D01*
X108044119Y-88465000D02*
X108044119Y-89215000D01*
X108044119Y-89215000D02*
X109844119Y-89215000D01*
X108794119Y-84015000D02*
X111844119Y-84015000D01*
X108794119Y-86965000D02*
X108794119Y-84015000D01*
X109844119Y-88465000D02*
X108044119Y-88465000D01*
X109844119Y-89215000D02*
X109844119Y-88465000D01*
X111344119Y-88465000D02*
X111344119Y-89215000D01*
X111344119Y-89215000D02*
X112344119Y-89215000D01*
X112344119Y-88465000D02*
X111344119Y-88465000D01*
X112344119Y-89215000D02*
X112344119Y-88465000D01*
X113844119Y-88465000D02*
X113844119Y-89215000D01*
X113844119Y-89215000D02*
X115644119Y-89215000D01*
X114694119Y-89515000D02*
X115944119Y-89515000D01*
X114894119Y-84015000D02*
X111844119Y-84015000D01*
X114894119Y-86965000D02*
X114894119Y-84015000D01*
X115644119Y-86965000D02*
X114894119Y-86965000D01*
X115644119Y-88465000D02*
X113844119Y-88465000D01*
X115644119Y-89215000D02*
X115644119Y-88465000D01*
X115654119Y-83255000D02*
X108034119Y-83255000D01*
X115654119Y-89225000D02*
X115654119Y-83255000D01*
X115944119Y-89515000D02*
X115944119Y-88265000D01*
%TO.C,R9*%
X187334119Y-85395000D02*
X187334119Y-85725000D01*
X187334119Y-88135000D02*
X187334119Y-87805000D01*
X193874119Y-85395000D02*
X187334119Y-85395000D01*
X193874119Y-85725000D02*
X193874119Y-85395000D01*
X193874119Y-87805000D02*
X193874119Y-88135000D01*
X193874119Y-88135000D02*
X187334119Y-88135000D01*
%TO.C,U4*%
X157530000Y-93670000D02*
X157530000Y-98870000D01*
X157530000Y-98870000D02*
X162830000Y-98870000D01*
X159180000Y-93670000D02*
X157530000Y-93670000D01*
X162830000Y-93670000D02*
X161180000Y-93670000D01*
X162830000Y-98870000D02*
X162830000Y-93670000D01*
X161180000Y-93670000D02*
G75*
G02*
X159180000Y-93670000I-1000000J0D01*
G01*
%TO.C,J2*%
X112640000Y-38465000D02*
X112640000Y-46085000D01*
X112640000Y-39735000D02*
X122800000Y-39735000D01*
X112640000Y-46085000D02*
X122800000Y-46085000D01*
X122800000Y-38465000D02*
X112640000Y-38465000D01*
X122800000Y-46085000D02*
X122800000Y-38465000D01*
%TO.C,R1*%
X109920000Y-93630000D02*
X116460000Y-93630000D01*
X109920000Y-93960000D02*
X109920000Y-93630000D01*
X109920000Y-96040000D02*
X109920000Y-96370000D01*
X109920000Y-96370000D02*
X116460000Y-96370000D01*
X116460000Y-93630000D02*
X116460000Y-93960000D01*
X116460000Y-96370000D02*
X116460000Y-96040000D01*
%TO.C,U3*%
X184420000Y-106850000D02*
X184420000Y-102209000D01*
X187689000Y-106850000D02*
X187689000Y-105340000D01*
X191390000Y-106850000D02*
X191390000Y-105340000D01*
X194660000Y-102209000D02*
X184420000Y-102209000D01*
X194660000Y-105340000D02*
X184420000Y-105340000D01*
X194660000Y-106850000D02*
X184420000Y-106850000D01*
X194660000Y-106850000D02*
X194660000Y-102209000D01*
%TO.C,R5*%
X101630000Y-99920000D02*
X101960000Y-99920000D01*
X101630000Y-106460000D02*
X101630000Y-99920000D01*
X101960000Y-106460000D02*
X101630000Y-106460000D01*
X104040000Y-106460000D02*
X104370000Y-106460000D01*
X104370000Y-99920000D02*
X104040000Y-99920000D01*
X104370000Y-106460000D02*
X104370000Y-99920000D01*
%TO.C,Q2*%
X125214119Y-58655000D02*
X125214119Y-59855000D01*
X125214119Y-61054000D02*
X125214119Y-62255000D01*
X125214119Y-63455000D02*
X125214119Y-64655000D01*
X125214119Y-65855000D02*
X125214119Y-67055000D01*
X125214119Y-68255000D02*
X125214119Y-69155000D01*
X126854119Y-58655000D02*
X125654119Y-58655000D01*
X126854119Y-69155000D02*
X125654119Y-69155000D01*
X129254119Y-58655000D02*
X128054119Y-58655000D01*
X129254119Y-69155000D02*
X128054119Y-69155000D01*
X131654119Y-58655000D02*
X130454119Y-58655000D01*
X131654119Y-69155000D02*
X130454119Y-69155000D01*
X131894119Y-58655000D02*
X131894119Y-69155000D01*
X141324119Y-58655000D02*
X131894119Y-58655000D01*
X141324119Y-58655000D02*
X141324119Y-69155000D01*
X141324119Y-69155000D02*
X131894119Y-69155000D01*
D10*
X143284119Y-48905000D02*
X113284119Y-48905000D01*
X113284119Y-78905000D01*
X143284119Y-78905000D01*
X143284119Y-48905000D01*
D12*
%TO.C,C1*%
X190710000Y-95130000D02*
X191415000Y-95130000D01*
X190710000Y-99370000D02*
X190710000Y-95130000D01*
X190710000Y-99370000D02*
X191415000Y-99370000D01*
X192745000Y-95130000D02*
X193450000Y-95130000D01*
X192745000Y-99370000D02*
X193450000Y-99370000D01*
X193450000Y-99370000D02*
X193450000Y-95130000D01*
%TO.C,R2*%
X145470000Y-93635000D02*
X152010000Y-93635000D01*
X145470000Y-93965000D02*
X145470000Y-93635000D01*
X145470000Y-96045000D02*
X145470000Y-96375000D01*
X145470000Y-96375000D02*
X152010000Y-96375000D01*
X152010000Y-93635000D02*
X152010000Y-93965000D01*
X152010000Y-96375000D02*
X152010000Y-96045000D01*
%TO.C,R10*%
X172110000Y-95865000D02*
X178650000Y-95865000D01*
X172110000Y-96195000D02*
X172110000Y-95865000D01*
X172110000Y-98275000D02*
X172110000Y-98605000D01*
X172110000Y-98605000D02*
X178650000Y-98605000D01*
X178650000Y-95865000D02*
X178650000Y-96195000D01*
X178650000Y-98605000D02*
X178650000Y-98275000D01*
%TO.C,R4*%
X132780000Y-93630000D02*
X132780000Y-93960000D01*
X132780000Y-96370000D02*
X132780000Y-96040000D01*
X139320000Y-93630000D02*
X132780000Y-93630000D01*
X139320000Y-93960000D02*
X139320000Y-93630000D01*
X139320000Y-96040000D02*
X139320000Y-96370000D01*
X139320000Y-96370000D02*
X132780000Y-96370000D01*
%TO.C,J13*%
X82670000Y-110270000D02*
X82670000Y-82270000D01*
X85330000Y-82270000D02*
X82670000Y-82270000D01*
X85330000Y-110270000D02*
X82670000Y-110270000D01*
X85330000Y-110270000D02*
X85330000Y-82270000D01*
X85330000Y-111540000D02*
X85330000Y-112870000D01*
X85330000Y-112870000D02*
X84000000Y-112870000D01*
%TO.C,Q1*%
X95214119Y-58655000D02*
X95214119Y-59855000D01*
X95214119Y-61054000D02*
X95214119Y-62255000D01*
X95214119Y-63455000D02*
X95214119Y-64655000D01*
X95214119Y-65855000D02*
X95214119Y-67055000D01*
X95214119Y-68255000D02*
X95214119Y-69155000D01*
X96854119Y-58655000D02*
X95654119Y-58655000D01*
X96854119Y-69155000D02*
X95654119Y-69155000D01*
X99254119Y-58655000D02*
X98054119Y-58655000D01*
X99254119Y-69155000D02*
X98054119Y-69155000D01*
X101654119Y-58655000D02*
X100454119Y-58655000D01*
X101654119Y-69155000D02*
X100454119Y-69155000D01*
X101894119Y-58655000D02*
X101894119Y-69155000D01*
X111324119Y-58655000D02*
X101894119Y-58655000D01*
X111324119Y-58655000D02*
X111324119Y-69155000D01*
X111324119Y-69155000D02*
X101894119Y-69155000D01*
D10*
X113284119Y-48905000D02*
X83284119Y-48905000D01*
X83284119Y-78905000D01*
X113284119Y-78905000D01*
X113284119Y-48905000D01*
D12*
%TO.C,R8*%
X155584119Y-85395000D02*
X155584119Y-85725000D01*
X155584119Y-88135000D02*
X155584119Y-87805000D01*
X162124119Y-85395000D02*
X155584119Y-85395000D01*
X162124119Y-85725000D02*
X162124119Y-85395000D01*
X162124119Y-87805000D02*
X162124119Y-88135000D01*
X162124119Y-88135000D02*
X155584119Y-88135000D01*
%TO.C,J4*%
X168520000Y-38465000D02*
X168520000Y-46085000D01*
X168520000Y-39735000D02*
X178680000Y-39735000D01*
X168520000Y-46085000D02*
X178680000Y-46085000D01*
X178680000Y-38465000D02*
X168520000Y-38465000D01*
X178680000Y-46085000D02*
X178680000Y-38465000D01*
%TO.C,J12*%
X165074119Y-103490000D02*
X165074119Y-109460000D01*
X165074119Y-109460000D02*
X177694119Y-109460000D01*
X165084119Y-107200000D02*
X165834119Y-107200000D01*
X165084119Y-108700000D02*
X165084119Y-109450000D01*
X165084119Y-109450000D02*
X166884119Y-109450000D01*
X165834119Y-104250000D02*
X171384119Y-104250000D01*
X165834119Y-107200000D02*
X165834119Y-104250000D01*
X166884119Y-108700000D02*
X165084119Y-108700000D01*
X166884119Y-109450000D02*
X166884119Y-108700000D01*
X168384119Y-108700000D02*
X168384119Y-109450000D01*
X168384119Y-109450000D02*
X174384119Y-109450000D01*
X174384119Y-108700000D02*
X168384119Y-108700000D01*
X174384119Y-109450000D02*
X174384119Y-108700000D01*
X175884119Y-108700000D02*
X175884119Y-109450000D01*
X175884119Y-109450000D02*
X177684119Y-109450000D01*
X176734119Y-109750000D02*
X177984119Y-109750000D01*
X176934119Y-104250000D02*
X171384119Y-104250000D01*
X176934119Y-107200000D02*
X176934119Y-104250000D01*
X177684119Y-107200000D02*
X176934119Y-107200000D01*
X177684119Y-108700000D02*
X175884119Y-108700000D01*
X177684119Y-109450000D02*
X177684119Y-108700000D01*
X177694119Y-103490000D02*
X165074119Y-103490000D01*
X177694119Y-109460000D02*
X177694119Y-103490000D01*
X177984119Y-109750000D02*
X177984119Y-108500000D01*
%TO.C,C2*%
X185630000Y-95130000D02*
X186335000Y-95130000D01*
X185630000Y-99370000D02*
X185630000Y-95130000D01*
X185630000Y-99370000D02*
X186335000Y-99370000D01*
X187665000Y-95130000D02*
X188370000Y-95130000D01*
X187665000Y-99370000D02*
X188370000Y-99370000D01*
X188370000Y-99370000D02*
X188370000Y-95130000D01*
D13*
%TO.C,G\u002A\u002A\u002A*%
G36*
X99469850Y-43875223D02*
G01*
X99475149Y-43885277D01*
X99484776Y-43907241D01*
X99497752Y-43938586D01*
X99513098Y-43976783D01*
X99529837Y-44019300D01*
X99546990Y-44063608D01*
X99563579Y-44107177D01*
X99578626Y-44147477D01*
X99591153Y-44181978D01*
X99600182Y-44208149D01*
X99604733Y-44223462D01*
X99604977Y-44224711D01*
X99603998Y-44263000D01*
X99590765Y-44301339D01*
X99567750Y-44335318D01*
X99537422Y-44360525D01*
X99525606Y-44366430D01*
X99492052Y-44375047D01*
X99455070Y-44376237D01*
X99421151Y-44370208D01*
X99403846Y-44362533D01*
X99365451Y-44331278D01*
X99341170Y-44294024D01*
X99331078Y-44250899D01*
X99330769Y-44241198D01*
X99333315Y-44227718D01*
X99340378Y-44203575D01*
X99351095Y-44171037D01*
X99364604Y-44132376D01*
X99380042Y-44089862D01*
X99396545Y-44045765D01*
X99413252Y-44002355D01*
X99429299Y-43961902D01*
X99443824Y-43926678D01*
X99455963Y-43898951D01*
X99464855Y-43880992D01*
X99469636Y-43875072D01*
X99469850Y-43875223D01*
G37*
G36*
X99665838Y-41773717D02*
G01*
X99719689Y-41777667D01*
X99764766Y-41784604D01*
X99776923Y-41787553D01*
X99872009Y-41821139D01*
X99958786Y-41866936D01*
X100036402Y-41923839D01*
X100104007Y-41990739D01*
X100160750Y-42066530D01*
X100205781Y-42150105D01*
X100238249Y-42240357D01*
X100257303Y-42336179D01*
X100262321Y-42419230D01*
X100256591Y-42510953D01*
X100238970Y-42596434D01*
X100214139Y-42667187D01*
X100201756Y-42695256D01*
X100188095Y-42722232D01*
X100171914Y-42749890D01*
X100151970Y-42780001D01*
X100127020Y-42814339D01*
X100095821Y-42854676D01*
X100057130Y-42902786D01*
X100009706Y-42960442D01*
X100002420Y-42969230D01*
X99965673Y-43013568D01*
X99921584Y-43066839D01*
X99872586Y-43126099D01*
X99821114Y-43188403D01*
X99769601Y-43250804D01*
X99720481Y-43310358D01*
X99703659Y-43330769D01*
X99663170Y-43379744D01*
X99625623Y-43424854D01*
X99592167Y-43464739D01*
X99563953Y-43498043D01*
X99542131Y-43523407D01*
X99527850Y-43539472D01*
X99522365Y-43544871D01*
X99516674Y-43540759D01*
X99515384Y-43532757D01*
X99512129Y-43512923D01*
X99503204Y-43482751D01*
X99489867Y-43445639D01*
X99473380Y-43404983D01*
X99455001Y-43364182D01*
X99446216Y-43346214D01*
X99422673Y-43301475D01*
X99397875Y-43258927D01*
X99370671Y-43217193D01*
X99339914Y-43174900D01*
X99304453Y-43130672D01*
X99263141Y-43083134D01*
X99214827Y-43030911D01*
X99158364Y-42972629D01*
X99092601Y-42906912D01*
X99018688Y-42834615D01*
X98952936Y-42770421D01*
X98897345Y-42715233D01*
X98850703Y-42667699D01*
X98811798Y-42626465D01*
X98779418Y-42590177D01*
X98752350Y-42557482D01*
X98729382Y-42527027D01*
X98709303Y-42497458D01*
X98692927Y-42470869D01*
X98653936Y-42390018D01*
X98628312Y-42303230D01*
X98616509Y-42212933D01*
X98618980Y-42121554D01*
X98622530Y-42094569D01*
X98627826Y-42067822D01*
X98636150Y-42033909D01*
X98646491Y-41996159D01*
X98657837Y-41957902D01*
X98669179Y-41922467D01*
X98679503Y-41893182D01*
X98687800Y-41873378D01*
X98691575Y-41867220D01*
X98701239Y-41867469D01*
X98719530Y-41876710D01*
X98744034Y-41893220D01*
X98772337Y-41915278D01*
X98802024Y-41941163D01*
X98821634Y-41959937D01*
X98869826Y-42014713D01*
X98913474Y-42077110D01*
X98949063Y-42141722D01*
X98966180Y-42182265D01*
X98978095Y-42211170D01*
X98988227Y-42228646D01*
X98995696Y-42233755D01*
X98999620Y-42225558D01*
X99000000Y-42218272D01*
X99003083Y-42206119D01*
X99011254Y-42184353D01*
X99022893Y-42157206D01*
X99025775Y-42150896D01*
X99074915Y-42062267D01*
X99135474Y-41983644D01*
X99206622Y-41915724D01*
X99287528Y-41859207D01*
X99377361Y-41814790D01*
X99457692Y-41787728D01*
X99499142Y-41779758D01*
X99550816Y-41774765D01*
X99607964Y-41772750D01*
X99665838Y-41773717D01*
G37*
G36*
X98440676Y-41774884D02*
G01*
X98482656Y-41779014D01*
X98505223Y-41783328D01*
X98545061Y-41793580D01*
X98530729Y-41827015D01*
X98521335Y-41850956D01*
X98509823Y-41883153D01*
X98498501Y-41917127D01*
X98497213Y-41921178D01*
X98468375Y-42033835D01*
X98454357Y-42142506D01*
X98455185Y-42247417D01*
X98470881Y-42348793D01*
X98501469Y-42446859D01*
X98546974Y-42541839D01*
X98566039Y-42573776D01*
X98587718Y-42607053D01*
X98610668Y-42639442D01*
X98636161Y-42672356D01*
X98665464Y-42707207D01*
X98699849Y-42745409D01*
X98740585Y-42788373D01*
X98788942Y-42837511D01*
X98846189Y-42894237D01*
X98910636Y-42957091D01*
X98983488Y-43028274D01*
X99045965Y-43090600D01*
X99099199Y-43145423D01*
X99144321Y-43194098D01*
X99182463Y-43237979D01*
X99214756Y-43278423D01*
X99242332Y-43316782D01*
X99266323Y-43354413D01*
X99287859Y-43392670D01*
X99308072Y-43432908D01*
X99308132Y-43433032D01*
X99342636Y-43520507D01*
X99365545Y-43612560D01*
X99373351Y-43671117D01*
X99378119Y-43726923D01*
X99345694Y-43765384D01*
X99332722Y-43780901D01*
X99311467Y-43806482D01*
X99283428Y-43840316D01*
X99250103Y-43880591D01*
X99212993Y-43925497D01*
X99173595Y-43973223D01*
X99156649Y-43993767D01*
X99118272Y-44040178D01*
X99082867Y-44082754D01*
X99051658Y-44120042D01*
X99025866Y-44150591D01*
X99006716Y-44172949D01*
X98995431Y-44185664D01*
X98993019Y-44188021D01*
X98987117Y-44182938D01*
X98972236Y-44166870D01*
X98949151Y-44140730D01*
X98918639Y-44105430D01*
X98881472Y-44061882D01*
X98838428Y-44011000D01*
X98790280Y-43953696D01*
X98737805Y-43890883D01*
X98681776Y-43823473D01*
X98622970Y-43752378D01*
X98621850Y-43751022D01*
X98257692Y-43309690D01*
X98253678Y-43945222D01*
X98272883Y-43973523D01*
X98296306Y-44019944D01*
X98305974Y-44067352D01*
X98303156Y-44113785D01*
X98289122Y-44157282D01*
X98265141Y-44195883D01*
X98232483Y-44227626D01*
X98192417Y-44250550D01*
X98146214Y-44262696D01*
X98095144Y-44262102D01*
X98086896Y-44260748D01*
X98051642Y-44251585D01*
X98022922Y-44236736D01*
X97993574Y-44212538D01*
X97961361Y-44172381D01*
X97945048Y-44133601D01*
X97941889Y-44126091D01*
X97935480Y-44076614D01*
X97941223Y-44035692D01*
X98042307Y-44035692D01*
X98042307Y-44133601D01*
X98076923Y-44154657D01*
X98098785Y-44166689D01*
X98116639Y-44174310D01*
X98123077Y-44175713D01*
X98135919Y-44171912D01*
X98156069Y-44162196D01*
X98169230Y-44154657D01*
X98203846Y-44133601D01*
X98203846Y-44035860D01*
X98119230Y-43990170D01*
X98080769Y-44012931D01*
X98042307Y-44035692D01*
X97941223Y-44035692D01*
X97942457Y-44026896D01*
X97963139Y-43979885D01*
X97967439Y-43973256D01*
X97988461Y-43942307D01*
X97992307Y-43467740D01*
X97996154Y-42993173D01*
X98123077Y-43147086D01*
X98250000Y-43301000D01*
X98254014Y-42671740D01*
X98274088Y-42660997D01*
X98300288Y-42641282D01*
X98327323Y-42611540D01*
X98351512Y-42576449D01*
X98369172Y-42540687D01*
X98369540Y-42539713D01*
X98383924Y-42480915D01*
X98384832Y-42420717D01*
X98373061Y-42361931D01*
X98349408Y-42307366D01*
X98314670Y-42259836D01*
X98281907Y-42230557D01*
X98262831Y-42217366D01*
X98248693Y-42209105D01*
X98244638Y-42207692D01*
X98242626Y-42214971D01*
X98240888Y-42235155D01*
X98239539Y-42265767D01*
X98238696Y-42304327D01*
X98238461Y-42340504D01*
X98237987Y-42397107D01*
X98236127Y-42440635D01*
X98232221Y-42473378D01*
X98225612Y-42497631D01*
X98215641Y-42515683D01*
X98201649Y-42529828D01*
X98182978Y-42542357D01*
X98179968Y-42544104D01*
X98140112Y-42559084D01*
X98100468Y-42559226D01*
X98062913Y-42544987D01*
X98029326Y-42516823D01*
X98019938Y-42505234D01*
X98014111Y-42496136D01*
X98009745Y-42485167D01*
X98006538Y-42469891D01*
X98004188Y-42447872D01*
X98002392Y-42416677D01*
X98000848Y-42373869D01*
X98000000Y-42344583D01*
X97996154Y-42205620D01*
X97962210Y-42231656D01*
X97927566Y-42264315D01*
X97896820Y-42304433D01*
X97874062Y-42346284D01*
X97867525Y-42364133D01*
X97862578Y-42388792D01*
X97859232Y-42421317D01*
X97858249Y-42451085D01*
X97866083Y-42511745D01*
X97888451Y-42568084D01*
X97924860Y-42619063D01*
X97950336Y-42644131D01*
X97992113Y-42680769D01*
X97992210Y-42828846D01*
X97991956Y-42874640D01*
X97991190Y-42914638D01*
X97990003Y-42946502D01*
X97988484Y-42967891D01*
X97986723Y-42976468D01*
X97986538Y-42976531D01*
X97979547Y-42970652D01*
X97965098Y-42954944D01*
X97945118Y-42931768D01*
X97921537Y-42903486D01*
X97896283Y-42872456D01*
X97871283Y-42841041D01*
X97848466Y-42811600D01*
X97829761Y-42786496D01*
X97820354Y-42773076D01*
X97794735Y-42729434D01*
X97769475Y-42676725D01*
X97747297Y-42621087D01*
X97732786Y-42575651D01*
X97725664Y-42538289D01*
X97721057Y-42490230D01*
X97718961Y-42435952D01*
X97719367Y-42379935D01*
X97722270Y-42326658D01*
X97727663Y-42280600D01*
X97733241Y-42253846D01*
X97748940Y-42207440D01*
X97771549Y-42155220D01*
X97798563Y-42102020D01*
X97827477Y-42052673D01*
X97855786Y-42012013D01*
X97863411Y-42002669D01*
X97928830Y-41936650D01*
X98004167Y-41878958D01*
X98086138Y-41831669D01*
X98171458Y-41796859D01*
X98203846Y-41787395D01*
X98240095Y-41780670D01*
X98286315Y-41775997D01*
X98338093Y-41773435D01*
X98391018Y-41773044D01*
X98440676Y-41774884D01*
G37*
G36*
X99095129Y-40675000D02*
G01*
X99114016Y-40716916D01*
X99132629Y-40765797D01*
X99149412Y-40816808D01*
X99162810Y-40865118D01*
X99171265Y-40905895D01*
X99172544Y-40915384D01*
X99174101Y-40946080D01*
X99173334Y-40983057D01*
X99171001Y-41012432D01*
X99168393Y-41057102D01*
X99172506Y-41088381D01*
X99183444Y-41106767D01*
X99191881Y-41111403D01*
X99208863Y-41115445D01*
X99236381Y-41120640D01*
X99269706Y-41126244D01*
X99304106Y-41131511D01*
X99334853Y-41135698D01*
X99357214Y-41138059D01*
X99362912Y-41138327D01*
X99379590Y-41136097D01*
X99392438Y-41127613D01*
X99402948Y-41110554D01*
X99412614Y-41082599D01*
X99421610Y-41047137D01*
X99431289Y-41010709D01*
X99442772Y-40974968D01*
X99453994Y-40946173D01*
X99457025Y-40939778D01*
X99475563Y-40908016D01*
X99501680Y-40869543D01*
X99532162Y-40828615D01*
X99563795Y-40789483D01*
X99593365Y-40756402D01*
X99602832Y-40746844D01*
X99637709Y-40712920D01*
X99697700Y-40730546D01*
X99737765Y-40742552D01*
X99765563Y-40752450D01*
X99783578Y-40762507D01*
X99794291Y-40774992D01*
X99800186Y-40792175D01*
X99803746Y-40816324D01*
X99805099Y-40828697D01*
X99807789Y-40863106D01*
X99809685Y-40906052D01*
X99810533Y-40950696D01*
X99810467Y-40973076D01*
X99809444Y-41010109D01*
X99806839Y-41041597D01*
X99801788Y-41071254D01*
X99793426Y-41102793D01*
X99780888Y-41139927D01*
X99763311Y-41186368D01*
X99757132Y-41202147D01*
X99748621Y-41228351D01*
X99747961Y-41245445D01*
X99750643Y-41252147D01*
X99760433Y-41260958D01*
X99780824Y-41274646D01*
X99808654Y-41291206D01*
X99835077Y-41305665D01*
X99876222Y-41326683D01*
X99906898Y-41339567D01*
X99929962Y-41343872D01*
X99948272Y-41339151D01*
X99964684Y-41324959D01*
X99982057Y-41300849D01*
X99994537Y-41280769D01*
X100015512Y-41248517D01*
X100038323Y-41216977D01*
X100058910Y-41191678D01*
X100064052Y-41186124D01*
X100089787Y-41162743D01*
X100125041Y-41134975D01*
X100165760Y-41105675D01*
X100207889Y-41077693D01*
X100247370Y-41053883D01*
X100267150Y-41043265D01*
X100307377Y-41022977D01*
X100372919Y-41069557D01*
X100407231Y-41095430D01*
X100429211Y-41115425D01*
X100438254Y-41128979D01*
X100438461Y-41130643D01*
X100436440Y-41150359D01*
X100431019Y-41180528D01*
X100423163Y-41216852D01*
X100413835Y-41255030D01*
X100403999Y-41290765D01*
X100398763Y-41307692D01*
X100371223Y-41378640D01*
X100337507Y-41439295D01*
X100295876Y-41493367D01*
X100269419Y-41524501D01*
X100252877Y-41547479D01*
X100245013Y-41564744D01*
X100244592Y-41578741D01*
X100248063Y-41587902D01*
X100256568Y-41599164D01*
X100273568Y-41618178D01*
X100296423Y-41642084D01*
X100317247Y-41662902D01*
X100350129Y-41693668D01*
X100374655Y-41713151D01*
X100391941Y-41722191D01*
X100397482Y-41723076D01*
X100414225Y-41717308D01*
X100440147Y-41700354D01*
X100474451Y-41672743D01*
X100477984Y-41669701D01*
X100521794Y-41635256D01*
X100567359Y-41607185D01*
X100618331Y-41583740D01*
X100678360Y-41563172D01*
X100730201Y-41548917D01*
X100774306Y-41538213D01*
X100806939Y-41532663D01*
X100831429Y-41533218D01*
X100851101Y-41540825D01*
X100869284Y-41556437D01*
X100889306Y-41581001D01*
X100901731Y-41597880D01*
X100947726Y-41661145D01*
X100911072Y-41724803D01*
X100867411Y-41795782D01*
X100825161Y-41853854D01*
X100782449Y-41901140D01*
X100737401Y-41939761D01*
X100697722Y-41966262D01*
X100663832Y-41987013D01*
X100640758Y-42004071D01*
X100627854Y-42020399D01*
X100624473Y-42038959D01*
X100629967Y-42062716D01*
X100643692Y-42094631D01*
X100661736Y-42131164D01*
X100682266Y-42170828D01*
X100699086Y-42197826D01*
X100714949Y-42213455D01*
X100732602Y-42219010D01*
X100754795Y-42215790D01*
X100784278Y-42205092D01*
X100802306Y-42197475D01*
X100864544Y-42174829D01*
X100927233Y-42161011D01*
X100994958Y-42155307D01*
X101065384Y-42156599D01*
X101114557Y-42159306D01*
X101150809Y-42161956D01*
X101176553Y-42165788D01*
X101194198Y-42172040D01*
X101206156Y-42181949D01*
X101214836Y-42196752D01*
X101222650Y-42217689D01*
X101230453Y-42241358D01*
X101240616Y-42273129D01*
X101248549Y-42300339D01*
X101253143Y-42319060D01*
X101253846Y-42324247D01*
X101247994Y-42336100D01*
X101231852Y-42355028D01*
X101207543Y-42379014D01*
X101177188Y-42406043D01*
X101142910Y-42434098D01*
X101119230Y-42452151D01*
X101055154Y-42494098D01*
X100990597Y-42524453D01*
X100919585Y-42545995D01*
X100915188Y-42547021D01*
X100880732Y-42555376D01*
X100856738Y-42563713D01*
X100841798Y-42574683D01*
X100834503Y-42590937D01*
X100833443Y-42615125D01*
X100837209Y-42649897D01*
X100842290Y-42684103D01*
X100848564Y-42720331D01*
X100855362Y-42751574D01*
X100861825Y-42774304D01*
X100866696Y-42784615D01*
X100874132Y-42789320D01*
X100887687Y-42792636D01*
X100909647Y-42794781D01*
X100942294Y-42795973D01*
X100987915Y-42796429D01*
X100990688Y-42796437D01*
X101044090Y-42797313D01*
X101088184Y-42800297D01*
X101127191Y-42806371D01*
X101165339Y-42816515D01*
X101206850Y-42831709D01*
X101255949Y-42852934D01*
X101278449Y-42863235D01*
X101345360Y-42894170D01*
X101347680Y-42925931D01*
X101348516Y-42950385D01*
X101348402Y-42982779D01*
X101347489Y-43012881D01*
X101344979Y-43068071D01*
X101274412Y-43098757D01*
X101220719Y-43121574D01*
X101177050Y-43138439D01*
X101139629Y-43150202D01*
X101104681Y-43157714D01*
X101068431Y-43161823D01*
X101027102Y-43163379D01*
X100987401Y-43163353D01*
X100943407Y-43163142D01*
X100912234Y-43163705D01*
X100891325Y-43165297D01*
X100878125Y-43168174D01*
X100870079Y-43172591D01*
X100867270Y-43175363D01*
X100861540Y-43188168D01*
X100854822Y-43212910D01*
X100847916Y-43246245D01*
X100842380Y-43279605D01*
X100836776Y-43318215D01*
X100833534Y-43344562D01*
X100832681Y-43361590D01*
X100834242Y-43372242D01*
X100838241Y-43379463D01*
X100843281Y-43384813D01*
X100857063Y-43392842D01*
X100881568Y-43402275D01*
X100912429Y-43411524D01*
X100926038Y-43414925D01*
X100988036Y-43433496D01*
X101046972Y-43460007D01*
X101105481Y-43496022D01*
X101166201Y-43543108D01*
X101214236Y-43586123D01*
X101260887Y-43629939D01*
X101248837Y-43666892D01*
X101239042Y-43696292D01*
X101227487Y-43730106D01*
X101221542Y-43747162D01*
X101206298Y-43790478D01*
X101158918Y-43796038D01*
X101105797Y-43800826D01*
X101049675Y-43803420D01*
X100995578Y-43803750D01*
X100948532Y-43801744D01*
X100925134Y-43799302D01*
X100895699Y-43793115D01*
X100858744Y-43782459D01*
X100820738Y-43769272D01*
X100807927Y-43764229D01*
X100773930Y-43750889D01*
X100750637Y-43743431D01*
X100734864Y-43741117D01*
X100723428Y-43743211D01*
X100721253Y-43744154D01*
X100709191Y-43755302D01*
X100693666Y-43777162D01*
X100676450Y-43806210D01*
X100659318Y-43838920D01*
X100644045Y-43871768D01*
X100632404Y-43901229D01*
X100626169Y-43923778D01*
X100625955Y-43933499D01*
X100634315Y-43947278D01*
X100653982Y-43964036D01*
X100686385Y-43984962D01*
X100691825Y-43988178D01*
X100753656Y-44031567D01*
X100810529Y-44086742D01*
X100863811Y-44155127D01*
X100888084Y-44192368D01*
X100911823Y-44230626D01*
X100928302Y-44258516D01*
X100937882Y-44279033D01*
X100940924Y-44295173D01*
X100937789Y-44309932D01*
X100928838Y-44326306D01*
X100914433Y-44347290D01*
X100907893Y-44356678D01*
X100885367Y-44389042D01*
X100868702Y-44410663D01*
X100854794Y-44423300D01*
X100840538Y-44428712D01*
X100822828Y-44428658D01*
X100798561Y-44424897D01*
X100790097Y-44423407D01*
X100691726Y-44400631D01*
X100604791Y-44368567D01*
X100528069Y-44326667D01*
X100463662Y-44277371D01*
X100440482Y-44258505D01*
X100419662Y-44244678D01*
X100405273Y-44238553D01*
X100404073Y-44238461D01*
X100390719Y-44244054D01*
X100370481Y-44259027D01*
X100345994Y-44280673D01*
X100319890Y-44306283D01*
X100294801Y-44333150D01*
X100273361Y-44358564D01*
X100258202Y-44379818D01*
X100251958Y-44394204D01*
X100251923Y-44394959D01*
X100258292Y-44414154D01*
X100277331Y-44441758D01*
X100295495Y-44463071D01*
X100338326Y-44520174D01*
X100375816Y-44589237D01*
X100406775Y-44667407D01*
X100430013Y-44751830D01*
X100440824Y-44811538D01*
X100442557Y-44823392D01*
X100442683Y-44832660D01*
X100439500Y-44841172D01*
X100431304Y-44850756D01*
X100416393Y-44863244D01*
X100393063Y-44880464D01*
X100359612Y-44904247D01*
X100344724Y-44914796D01*
X100308679Y-44940360D01*
X100252416Y-44907933D01*
X100179649Y-44863126D01*
X100119813Y-44819593D01*
X100070783Y-44775435D01*
X100030436Y-44728758D01*
X99999030Y-44681740D01*
X99980617Y-44651321D01*
X99967173Y-44631944D01*
X99956287Y-44621152D01*
X99945547Y-44616489D01*
X99934003Y-44615502D01*
X99918227Y-44619128D01*
X99893869Y-44628953D01*
X99864211Y-44643169D01*
X99832536Y-44659966D01*
X99802127Y-44677536D01*
X99776266Y-44694069D01*
X99758236Y-44707757D01*
X99751428Y-44716108D01*
X99752408Y-44730962D01*
X99759112Y-44755588D01*
X99770409Y-44785987D01*
X99772650Y-44791310D01*
X99791087Y-44838210D01*
X99803582Y-44880819D01*
X99811119Y-44924357D01*
X99814683Y-44974043D01*
X99815340Y-45017686D01*
X99814502Y-45059754D01*
X99812248Y-45101255D01*
X99808899Y-45139045D01*
X99804778Y-45169983D01*
X99800207Y-45190926D01*
X99796840Y-45198031D01*
X99787278Y-45202754D01*
X99766989Y-45210372D01*
X99740045Y-45219577D01*
X99710518Y-45229064D01*
X99682480Y-45237526D01*
X99660003Y-45243656D01*
X99647161Y-45246148D01*
X99646859Y-45246153D01*
X99634299Y-45240127D01*
X99615099Y-45223564D01*
X99591137Y-45198737D01*
X99564292Y-45167920D01*
X99536443Y-45133386D01*
X99509469Y-45097409D01*
X99485248Y-45062262D01*
X99465660Y-45030218D01*
X99460524Y-45020695D01*
X99451974Y-45000189D01*
X99441748Y-44969776D01*
X99431502Y-44934569D01*
X99426961Y-44917059D01*
X99415503Y-44875835D01*
X99404361Y-44847914D01*
X99392314Y-44831289D01*
X99378137Y-44823954D01*
X99369683Y-44823145D01*
X99357521Y-44824421D01*
X99333861Y-44827822D01*
X99302353Y-44832801D01*
X99273653Y-44837600D01*
X99228740Y-44846313D01*
X99198506Y-44854617D01*
X99182258Y-44862714D01*
X99180168Y-44864905D01*
X99175849Y-44876827D01*
X99173697Y-44898954D01*
X99173618Y-44933128D01*
X99174861Y-44967757D01*
X99175297Y-45030055D01*
X99169857Y-45087019D01*
X99157594Y-45143159D01*
X99137562Y-45202986D01*
X99113373Y-45260888D01*
X99097961Y-45294462D01*
X99086382Y-45316453D01*
X99076726Y-45329553D01*
X99067080Y-45336449D01*
X99057569Y-45339420D01*
X99034107Y-45342353D01*
X99001941Y-45343872D01*
X98967690Y-45343914D01*
X98937977Y-45342416D01*
X98924829Y-45340702D01*
X98910006Y-45330763D01*
X98892857Y-45306887D01*
X98874001Y-45270237D01*
X98854054Y-45221977D01*
X98838675Y-45178634D01*
X98820245Y-45117607D01*
X98809184Y-45064889D01*
X98804855Y-45015655D01*
X98806621Y-44965076D01*
X98808290Y-44948507D01*
X98811605Y-44913770D01*
X98811148Y-44888331D01*
X98804956Y-44870285D01*
X98791066Y-44857729D01*
X98767514Y-44848759D01*
X98732338Y-44841470D01*
X98691376Y-44835108D01*
X98652299Y-44829454D01*
X98625548Y-44826142D01*
X98608242Y-44825187D01*
X98597502Y-44826604D01*
X98590445Y-44830409D01*
X98585051Y-44835684D01*
X98577143Y-44849771D01*
X98568085Y-44874242D01*
X98559570Y-44904363D01*
X98557879Y-44911538D01*
X98549255Y-44945817D01*
X98539473Y-44978979D01*
X98530499Y-45004409D01*
X98529633Y-45006481D01*
X98511720Y-45041072D01*
X98485338Y-45082618D01*
X98453113Y-45127416D01*
X98417671Y-45171762D01*
X98390734Y-45202310D01*
X98342307Y-45254620D01*
X98266610Y-45228953D01*
X98226788Y-45214175D01*
X98198493Y-45200908D01*
X98183333Y-45189927D01*
X98182081Y-45188182D01*
X98178420Y-45173511D01*
X98175704Y-45143877D01*
X98173956Y-45099674D01*
X98173195Y-45041296D01*
X98173163Y-45026923D01*
X98173077Y-44880769D01*
X98201923Y-44811807D01*
X98218059Y-44771053D01*
X98227276Y-44741621D01*
X98229963Y-44721293D01*
X98226507Y-44707853D01*
X98221154Y-44701764D01*
X98207119Y-44692526D01*
X98183887Y-44679410D01*
X98154942Y-44664150D01*
X98123769Y-44648478D01*
X98093853Y-44634125D01*
X98068679Y-44622824D01*
X98051733Y-44616307D01*
X98047381Y-44615384D01*
X98031754Y-44620903D01*
X98013878Y-44638183D01*
X97992799Y-44668304D01*
X97977012Y-44695130D01*
X97957806Y-44724470D01*
X97932679Y-44756498D01*
X97909378Y-44781899D01*
X97875116Y-44812180D01*
X97831904Y-44845354D01*
X97784777Y-44877905D01*
X97738773Y-44906317D01*
X97706407Y-44923587D01*
X97670506Y-44940907D01*
X97607357Y-44895453D01*
X97580344Y-44875360D01*
X97558316Y-44857756D01*
X97544159Y-44845016D01*
X97540544Y-44840468D01*
X97540295Y-44827711D01*
X97543633Y-44803589D01*
X97549837Y-44771505D01*
X97558188Y-44734862D01*
X97567964Y-44697065D01*
X97578437Y-44661538D01*
X97606306Y-44588577D01*
X97641216Y-44525252D01*
X97684618Y-44467997D01*
X97706254Y-44441079D01*
X97722159Y-44417644D01*
X97730202Y-44400947D01*
X97730769Y-44397478D01*
X97725465Y-44386123D01*
X97711263Y-44367180D01*
X97690730Y-44343318D01*
X97666433Y-44317207D01*
X97640939Y-44291519D01*
X97616814Y-44268923D01*
X97596626Y-44252090D01*
X97582951Y-44243694D01*
X97568006Y-44246166D01*
X97544579Y-44260505D01*
X97530534Y-44271494D01*
X97474582Y-44315057D01*
X97422515Y-44349222D01*
X97370073Y-44376004D01*
X97312992Y-44397420D01*
X97247011Y-44415488D01*
X97207692Y-44424245D01*
X97134615Y-44439585D01*
X97114343Y-44415369D01*
X97098902Y-44395747D01*
X97079680Y-44369731D01*
X97064845Y-44348720D01*
X97051837Y-44329016D01*
X97043990Y-44312751D01*
X97041843Y-44297072D01*
X97045934Y-44279128D01*
X97056799Y-44256067D01*
X97074978Y-44225036D01*
X97093927Y-44194509D01*
X97145086Y-44121116D01*
X97198625Y-44061423D01*
X97256142Y-44013765D01*
X97285945Y-43994490D01*
X97316496Y-43974867D01*
X97339859Y-43956924D01*
X97353145Y-43942947D01*
X97354651Y-43940095D01*
X97356209Y-43929459D01*
X97353240Y-43914349D01*
X97344870Y-43892260D01*
X97330228Y-43860686D01*
X97319248Y-43838495D01*
X97301697Y-43805213D01*
X97285095Y-43776772D01*
X97271318Y-43756202D01*
X97262272Y-43746546D01*
X97252274Y-43744167D01*
X97236911Y-43746235D01*
X97213594Y-43753428D01*
X97179734Y-43766425D01*
X97167944Y-43771223D01*
X97088461Y-43803846D01*
X96957692Y-43803846D01*
X96912086Y-43803490D01*
X96869810Y-43802508D01*
X96834147Y-43801023D01*
X96808378Y-43799162D01*
X96798256Y-43797761D01*
X96785348Y-43794576D01*
X96776073Y-43789642D01*
X96768626Y-43780137D01*
X96761207Y-43763241D01*
X96752014Y-43736129D01*
X96745156Y-43714605D01*
X96720724Y-43637532D01*
X96758439Y-43599037D01*
X96799712Y-43560493D01*
X96846984Y-43522122D01*
X96895417Y-43487554D01*
X96940175Y-43460417D01*
X96950000Y-43455329D01*
X96981425Y-43442001D01*
X97019819Y-43428906D01*
X97056980Y-43418836D01*
X97057692Y-43418676D01*
X97092571Y-43410401D01*
X97117603Y-43401921D01*
X97133938Y-43390832D01*
X97142725Y-43374732D01*
X97145111Y-43351219D01*
X97142247Y-43317891D01*
X97135282Y-43272345D01*
X97133325Y-43260523D01*
X97125783Y-43219245D01*
X97117567Y-43191100D01*
X97106106Y-43173953D01*
X97088824Y-43165669D01*
X97063149Y-43164115D01*
X97026507Y-43167155D01*
X97021418Y-43167709D01*
X96957048Y-43170628D01*
X96892367Y-43164682D01*
X96824640Y-43149289D01*
X96751136Y-43123862D01*
X96687048Y-43096234D01*
X96630769Y-43070231D01*
X96630769Y-42980310D01*
X97316652Y-42980310D01*
X97317865Y-43042307D01*
X97319936Y-43101842D01*
X97322550Y-43150220D01*
X97326148Y-43191666D01*
X97331172Y-43230406D01*
X97338061Y-43270668D01*
X97345663Y-43309009D01*
X97385793Y-43466804D01*
X97439389Y-43617834D01*
X97505958Y-43761455D01*
X97585005Y-43897026D01*
X97676038Y-44023904D01*
X97778562Y-44141448D01*
X97892083Y-44249015D01*
X98016107Y-44345963D01*
X98150142Y-44431650D01*
X98249765Y-44484639D01*
X98374227Y-44540754D01*
X98494779Y-44584466D01*
X98615163Y-44616718D01*
X98739118Y-44638454D01*
X98870384Y-44650620D01*
X98915384Y-44652676D01*
X98967188Y-44654478D01*
X99007100Y-44655671D01*
X99038602Y-44656169D01*
X99065179Y-44655885D01*
X99090314Y-44654730D01*
X99117489Y-44652618D01*
X99150190Y-44649461D01*
X99184615Y-44645924D01*
X99327247Y-44623799D01*
X99470140Y-44587279D01*
X99611368Y-44537195D01*
X99749005Y-44474381D01*
X99881127Y-44399669D01*
X100005807Y-44313892D01*
X100069230Y-44263376D01*
X100185281Y-44156135D01*
X100290101Y-44038799D01*
X100383165Y-43912323D01*
X100463948Y-43777661D01*
X100531926Y-43635767D01*
X100586572Y-43487596D01*
X100627363Y-43334101D01*
X100649594Y-43208638D01*
X100655859Y-43149247D01*
X100659958Y-43079916D01*
X100661885Y-43005103D01*
X100661630Y-42929265D01*
X100659187Y-42856859D01*
X100654548Y-42792340D01*
X100650378Y-42756936D01*
X100620260Y-42598500D01*
X100576309Y-42445781D01*
X100519126Y-42299490D01*
X100449313Y-42160336D01*
X100367471Y-42029030D01*
X100274204Y-41906282D01*
X100170112Y-41792801D01*
X100055798Y-41689298D01*
X99931864Y-41596484D01*
X99798911Y-41515067D01*
X99657542Y-41445758D01*
X99508359Y-41389268D01*
X99484615Y-41381717D01*
X99369946Y-41350065D01*
X99258626Y-41327791D01*
X99146066Y-41314290D01*
X99027676Y-41308956D01*
X98938981Y-41309755D01*
X98791452Y-41319380D01*
X98652195Y-41340182D01*
X98518154Y-41372924D01*
X98386278Y-41418368D01*
X98253513Y-41477277D01*
X98238461Y-41484743D01*
X98113117Y-41554096D01*
X97996872Y-41632439D01*
X97886756Y-41721956D01*
X97787899Y-41816486D01*
X97681741Y-41936230D01*
X97588208Y-42064501D01*
X97507654Y-42200549D01*
X97440430Y-42343622D01*
X97386889Y-42492970D01*
X97347384Y-42647844D01*
X97322266Y-42807493D01*
X97322238Y-42807748D01*
X97318719Y-42854160D01*
X97316838Y-42912729D01*
X97316652Y-42980310D01*
X96630769Y-42980310D01*
X96630769Y-42898998D01*
X96687048Y-42872996D01*
X96765360Y-42839748D01*
X96835515Y-42816603D01*
X96900384Y-42802937D01*
X96962836Y-42798125D01*
X97018621Y-42800773D01*
X97057309Y-42804139D01*
X97084695Y-42803656D01*
X97103249Y-42797212D01*
X97115443Y-42782692D01*
X97123747Y-42757983D01*
X97130632Y-42720972D01*
X97133503Y-42702503D01*
X97138731Y-42666874D01*
X97142910Y-42635617D01*
X97145541Y-42612646D01*
X97146198Y-42603115D01*
X97141997Y-42586708D01*
X97128261Y-42573405D01*
X97103134Y-42562098D01*
X97064761Y-42551674D01*
X97057692Y-42550106D01*
X97006109Y-42536238D01*
X96957345Y-42516999D01*
X96908705Y-42490845D01*
X96857492Y-42456234D01*
X96801012Y-42411624D01*
X96771154Y-42386132D01*
X96748876Y-42365223D01*
X96732079Y-42346573D01*
X96723584Y-42333416D01*
X96723077Y-42331058D01*
X96725359Y-42318967D01*
X96731340Y-42296980D01*
X96739725Y-42269138D01*
X96749217Y-42239478D01*
X96758519Y-42212039D01*
X96766336Y-42190860D01*
X96771369Y-42179979D01*
X96771705Y-42179576D01*
X96783640Y-42174962D01*
X96807939Y-42170765D01*
X96841580Y-42167214D01*
X96881545Y-42164538D01*
X96924812Y-42162966D01*
X96968361Y-42162727D01*
X96988461Y-42163153D01*
X97030881Y-42164738D01*
X97062405Y-42166971D01*
X97087524Y-42170684D01*
X97110723Y-42176706D01*
X97136494Y-42185871D01*
X97158646Y-42194673D01*
X97198029Y-42209933D01*
X97226215Y-42218964D01*
X97245819Y-42222316D01*
X97259456Y-42220538D01*
X97265930Y-42217189D01*
X97274065Y-42207080D01*
X97286594Y-42186454D01*
X97301716Y-42158879D01*
X97317634Y-42127921D01*
X97332548Y-42097148D01*
X97344659Y-42070126D01*
X97352168Y-42050423D01*
X97353728Y-42043124D01*
X97352434Y-42030055D01*
X97347132Y-42019054D01*
X97335367Y-42007639D01*
X97314683Y-41993328D01*
X97288461Y-41977156D01*
X97228710Y-41935747D01*
X97176359Y-41887184D01*
X97135158Y-41838461D01*
X97114398Y-41809806D01*
X97092846Y-41777166D01*
X97072394Y-41743767D01*
X97054935Y-41712836D01*
X97042359Y-41687601D01*
X97036561Y-41671289D01*
X97036408Y-41670055D01*
X97040266Y-41658136D01*
X97051506Y-41637344D01*
X97068191Y-41611043D01*
X97080751Y-41592988D01*
X97126149Y-41529936D01*
X97157305Y-41534868D01*
X97200599Y-41543330D01*
X97251524Y-41555731D01*
X97303430Y-41570294D01*
X97349666Y-41585242D01*
X97360422Y-41589153D01*
X97403063Y-41607131D01*
X97440095Y-41627853D01*
X97476764Y-41654634D01*
X97511765Y-41684820D01*
X97536245Y-41705841D01*
X97556148Y-41718440D01*
X97574177Y-41722088D01*
X97593035Y-41716257D01*
X97615424Y-41700421D01*
X97644047Y-41674052D01*
X97662993Y-41655301D01*
X97695000Y-41621884D01*
X97717329Y-41595467D01*
X97729106Y-41577137D01*
X97730769Y-41571053D01*
X97725745Y-41557843D01*
X97712184Y-41537005D01*
X97692347Y-41511868D01*
X97684001Y-41502290D01*
X97647849Y-41457423D01*
X97617851Y-41409581D01*
X97592697Y-41355854D01*
X97571078Y-41293332D01*
X97551685Y-41219105D01*
X97546828Y-41197452D01*
X97539974Y-41165019D01*
X97536525Y-41144093D01*
X97536424Y-41131189D01*
X97539608Y-41122827D01*
X97545421Y-41116116D01*
X97560889Y-41102608D01*
X97583056Y-41085580D01*
X97608364Y-41067477D01*
X97633256Y-41050745D01*
X97654175Y-41037830D01*
X97667562Y-41031178D01*
X97669568Y-41030769D01*
X97683722Y-41034951D01*
X97707369Y-41046326D01*
X97737489Y-41063133D01*
X97771065Y-41083614D01*
X97805075Y-41106008D01*
X97833520Y-41126314D01*
X97885223Y-41168022D01*
X97926219Y-41208685D01*
X97960291Y-41252421D01*
X97983457Y-41289507D01*
X98004852Y-41323177D01*
X98022407Y-41342906D01*
X98033367Y-41348999D01*
X98048649Y-41347420D01*
X98073308Y-41339135D01*
X98103894Y-41325928D01*
X98136956Y-41309584D01*
X98169042Y-41291888D01*
X98196702Y-41274624D01*
X98216485Y-41259579D01*
X98224384Y-41250202D01*
X98227151Y-41238695D01*
X98225162Y-41223340D01*
X98217600Y-41200800D01*
X98204869Y-41170508D01*
X98184561Y-41118270D01*
X98171235Y-41067850D01*
X98164167Y-41014653D01*
X98162633Y-40954088D01*
X98164096Y-40911747D01*
X98166583Y-40861412D01*
X98169004Y-40824039D01*
X98172642Y-40797264D01*
X98178781Y-40778724D01*
X98188703Y-40766056D01*
X98203694Y-40756895D01*
X98225034Y-40748879D01*
X98254009Y-40739644D01*
X98258296Y-40738266D01*
X98338064Y-40712485D01*
X98381060Y-40758165D01*
X98413472Y-40794961D01*
X98446919Y-40836956D01*
X98478185Y-40879802D01*
X98504054Y-40919151D01*
X98517241Y-40942307D01*
X98526144Y-40963301D01*
X98536895Y-40994187D01*
X98547790Y-41029887D01*
X98553102Y-41049257D01*
X98564235Y-41087450D01*
X98574786Y-41115628D01*
X98583877Y-41131557D01*
X98586212Y-41133627D01*
X98599957Y-41136250D01*
X98624834Y-41135887D01*
X98657004Y-41133103D01*
X98692628Y-41128458D01*
X98727869Y-41122514D01*
X98758886Y-41115835D01*
X98781843Y-41108983D01*
X98792121Y-41103471D01*
X98796894Y-41095761D01*
X98800255Y-41082199D01*
X98802426Y-41060453D01*
X98803633Y-41028192D01*
X98804098Y-40983084D01*
X98804110Y-40978559D01*
X98804969Y-40925337D01*
X98807918Y-40881387D01*
X98813935Y-40842512D01*
X98823994Y-40804511D01*
X98839073Y-40763189D01*
X98860148Y-40714345D01*
X98871111Y-40690384D01*
X98902231Y-40623076D01*
X99069037Y-40623076D01*
X99095129Y-40675000D01*
G37*
D12*
%TO.C,Q3*%
X155214119Y-58655000D02*
X155214119Y-59855000D01*
X155214119Y-61054000D02*
X155214119Y-62255000D01*
X155214119Y-63455000D02*
X155214119Y-64655000D01*
X155214119Y-65855000D02*
X155214119Y-67055000D01*
X155214119Y-68255000D02*
X155214119Y-69155000D01*
X156854119Y-58655000D02*
X155654119Y-58655000D01*
X156854119Y-69155000D02*
X155654119Y-69155000D01*
X159254119Y-58655000D02*
X158054119Y-58655000D01*
X159254119Y-69155000D02*
X158054119Y-69155000D01*
X161654119Y-58655000D02*
X160454119Y-58655000D01*
X161654119Y-69155000D02*
X160454119Y-69155000D01*
X161894119Y-58655000D02*
X161894119Y-69155000D01*
X171324119Y-58655000D02*
X161894119Y-58655000D01*
X171324119Y-58655000D02*
X171324119Y-69155000D01*
X171324119Y-69155000D02*
X161894119Y-69155000D01*
D10*
X173284119Y-48905000D02*
X143284119Y-48905000D01*
X143284119Y-78905000D01*
X173284119Y-78905000D01*
X173284119Y-48905000D01*
D12*
%TO.C,J9*%
X138514119Y-83255000D02*
X138514119Y-89225000D01*
X138514119Y-89225000D02*
X146134119Y-89225000D01*
X138524119Y-86965000D02*
X139274119Y-86965000D01*
X138524119Y-88465000D02*
X138524119Y-89215000D01*
X138524119Y-89215000D02*
X140324119Y-89215000D01*
X139274119Y-84015000D02*
X142324119Y-84015000D01*
X139274119Y-86965000D02*
X139274119Y-84015000D01*
X140324119Y-88465000D02*
X138524119Y-88465000D01*
X140324119Y-89215000D02*
X140324119Y-88465000D01*
X141824119Y-88465000D02*
X141824119Y-89215000D01*
X141824119Y-89215000D02*
X142824119Y-89215000D01*
X142824119Y-88465000D02*
X141824119Y-88465000D01*
X142824119Y-89215000D02*
X142824119Y-88465000D01*
X144324119Y-88465000D02*
X144324119Y-89215000D01*
X144324119Y-89215000D02*
X146124119Y-89215000D01*
X145174119Y-89515000D02*
X146424119Y-89515000D01*
X145374119Y-84015000D02*
X142324119Y-84015000D01*
X145374119Y-86965000D02*
X145374119Y-84015000D01*
X146124119Y-86965000D02*
X145374119Y-86965000D01*
X146124119Y-88465000D02*
X144324119Y-88465000D01*
X146124119Y-89215000D02*
X146124119Y-88465000D01*
X146134119Y-83255000D02*
X138514119Y-83255000D01*
X146134119Y-89225000D02*
X146134119Y-83255000D01*
X146424119Y-89515000D02*
X146424119Y-88265000D01*
%TO.C,Q4*%
X185214119Y-58655000D02*
X185214119Y-59855000D01*
X185214119Y-61054000D02*
X185214119Y-62255000D01*
X185214119Y-63455000D02*
X185214119Y-64655000D01*
X185214119Y-65855000D02*
X185214119Y-67055000D01*
X185214119Y-68255000D02*
X185214119Y-69155000D01*
X186854119Y-58655000D02*
X185654119Y-58655000D01*
X186854119Y-69155000D02*
X185654119Y-69155000D01*
X189254119Y-58655000D02*
X188054119Y-58655000D01*
X189254119Y-69155000D02*
X188054119Y-69155000D01*
X191654119Y-58655000D02*
X190454119Y-58655000D01*
X191654119Y-69155000D02*
X190454119Y-69155000D01*
X191894119Y-58655000D02*
X191894119Y-69155000D01*
X201324119Y-58655000D02*
X191894119Y-58655000D01*
X201324119Y-58655000D02*
X201324119Y-69155000D01*
X201324119Y-69155000D02*
X191894119Y-69155000D01*
D10*
X203284119Y-48905000D02*
X173284119Y-48905000D01*
X173284119Y-78905000D01*
X203284119Y-78905000D01*
X203284119Y-48905000D01*
%TD*%
M02*
