%TF.GenerationSoftware,KiCad,Pcbnew,8.0.4*%
%TF.CreationDate,2024-11-12T18:47:24+01:00*%
%TF.ProjectId,banc_rodage_pcb,62616e63-5f72-46f6-9461-67655f706362,rev?*%
%TF.SameCoordinates,Original*%
%TF.FileFunction,Copper,L2,Bot*%
%TF.FilePolarity,Positive*%
%FSLAX46Y46*%
G04 Gerber Fmt 4.6, Leading zero omitted, Abs format (unit mm)*
G04 Created by KiCad (PCBNEW 8.0.4) date 2024-11-12 18:47:24*
%MOMM*%
%LPD*%
G01*
G04 APERTURE LIST*
G04 Aperture macros list*
%AMRoundRect*
0 Rectangle with rounded corners*
0 $1 Rounding radius*
0 $2 $3 $4 $5 $6 $7 $8 $9 X,Y pos of 4 corners*
0 Add a 4 corners polygon primitive as box body*
4,1,4,$2,$3,$4,$5,$6,$7,$8,$9,$2,$3,0*
0 Add four circle primitives for the rounded corners*
1,1,$1+$1,$2,$3*
1,1,$1+$1,$4,$5*
1,1,$1+$1,$6,$7*
1,1,$1+$1,$8,$9*
0 Add four rect primitives between the rounded corners*
20,1,$1+$1,$2,$3,$4,$5,0*
20,1,$1+$1,$4,$5,$6,$7,0*
20,1,$1+$1,$6,$7,$8,$9,0*
20,1,$1+$1,$8,$9,$2,$3,0*%
G04 Aperture macros list end*
%TA.AperFunction,ComponentPad*%
%ADD10C,1.600000*%
%TD*%
%TA.AperFunction,ComponentPad*%
%ADD11O,1.600000X1.600000*%
%TD*%
%TA.AperFunction,ComponentPad*%
%ADD12R,1.600000X1.600000*%
%TD*%
%TA.AperFunction,ComponentPad*%
%ADD13R,3.000000X3.000000*%
%TD*%
%TA.AperFunction,ComponentPad*%
%ADD14C,3.000000*%
%TD*%
%TA.AperFunction,ComponentPad*%
%ADD15RoundRect,0.250000X0.600000X0.750000X-0.600000X0.750000X-0.600000X-0.750000X0.600000X-0.750000X0*%
%TD*%
%TA.AperFunction,ComponentPad*%
%ADD16O,1.700000X2.000000*%
%TD*%
%TA.AperFunction,ComponentPad*%
%ADD17RoundRect,0.250000X0.600000X0.725000X-0.600000X0.725000X-0.600000X-0.725000X0.600000X-0.725000X0*%
%TD*%
%TA.AperFunction,ComponentPad*%
%ADD18O,1.700000X1.950000*%
%TD*%
%TA.AperFunction,ComponentPad*%
%ADD19R,1.905000X2.000000*%
%TD*%
%TA.AperFunction,ComponentPad*%
%ADD20O,1.905000X2.000000*%
%TD*%
%TA.AperFunction,ComponentPad*%
%ADD21R,2.000000X1.905000*%
%TD*%
%TA.AperFunction,ComponentPad*%
%ADD22O,2.000000X1.905000*%
%TD*%
%TA.AperFunction,ComponentPad*%
%ADD23R,1.700000X1.700000*%
%TD*%
%TA.AperFunction,ComponentPad*%
%ADD24O,1.700000X1.700000*%
%TD*%
%TA.AperFunction,Conductor*%
%ADD25C,0.200000*%
%TD*%
%TA.AperFunction,Conductor*%
%ADD26C,1.500000*%
%TD*%
%TA.AperFunction,Conductor*%
%ADD27C,5.600000*%
%TD*%
%TA.AperFunction,Conductor*%
%ADD28C,2.500000*%
%TD*%
G04 APERTURE END LIST*
D10*
%TO.P,R7,1*%
%TO.N,/SIGN_THERMISTANCE_MOSFET_2*%
X133414119Y-86765000D03*
D11*
%TO.P,R7,2*%
%TO.N,GND*%
X125794119Y-86765000D03*
%TD*%
D12*
%TO.P,U2,1*%
%TO.N,Net-(R1-Pad2)*%
X120810000Y-95000000D03*
D11*
%TO.P,U2,2*%
%TO.N,GND*%
X120810000Y-97540000D03*
%TO.P,U2,3*%
%TO.N,/SIGN_MOTEUR*%
X128430000Y-97540000D03*
%TO.P,U2,4*%
%TO.N,+5V*%
X128430000Y-95000000D03*
%TD*%
D13*
%TO.P,J3,1,Pin_1*%
%TO.N,+24V*%
X199000000Y-42275000D03*
D14*
%TO.P,J3,2,Pin_2*%
%TO.N,GND*%
X193920000Y-42275000D03*
%TD*%
D15*
%TO.P,J10,1,Pin_1*%
%TO.N,/3v3*%
X172824119Y-86765000D03*
D16*
%TO.P,J10,2,Pin_2*%
%TO.N,/SIGN_THERMISTANCE_MOSFET_3*%
X170324119Y-86765000D03*
%TD*%
D15*
%TO.P,J6,1,Pin_1*%
%TO.N,/3v3*%
X113500000Y-107000000D03*
D16*
%TO.P,J6,2,Pin_2*%
%TO.N,/SIGN_THERMISTANCE*%
X111000000Y-107000000D03*
%TD*%
D15*
%TO.P,J11,1,Pin_1*%
%TO.N,/3v3*%
X204574119Y-86765000D03*
D16*
%TO.P,J11,2,Pin_2*%
%TO.N,/SIGN_THERMISTANCE_MOSFET_4*%
X202074119Y-86765000D03*
%TD*%
D10*
%TO.P,R6,1*%
%TO.N,/SIGN_THERMISTANCE_MOSFET_1*%
X102934119Y-86765000D03*
D11*
%TO.P,R6,2*%
%TO.N,GND*%
X102934119Y-94385000D03*
%TD*%
D13*
%TO.P,J7,1,Pin_1*%
%TO.N,+24V*%
X153280000Y-42275000D03*
D14*
%TO.P,J7,2,Pin_2*%
%TO.N,/CHAUFFE_1*%
X148200000Y-42275000D03*
%TD*%
D17*
%TO.P,J1,1,Pin_1*%
%TO.N,+5V*%
X144634119Y-107000000D03*
D18*
%TO.P,J1,2,Pin_2*%
%TO.N,GND*%
X142134119Y-107000000D03*
%TO.P,J1,3,Pin_3*%
%TO.N,/SIGN_HALL*%
X139634119Y-107000000D03*
%TD*%
D15*
%TO.P,J5,1,Pin_1*%
%TO.N,+24V*%
X204500000Y-107000000D03*
D16*
%TO.P,J5,2,Pin_2*%
%TO.N,GND*%
X202000000Y-107000000D03*
%TD*%
D15*
%TO.P,J8,1,Pin_1*%
%TO.N,/3v3*%
X113094119Y-86765000D03*
D16*
%TO.P,J8,2,Pin_2*%
%TO.N,/SIGN_THERMISTANCE_MOSFET_1*%
X110594119Y-86765000D03*
%TD*%
D10*
%TO.P,R9,1*%
%TO.N,/SIGN_THERMISTANCE_MOSFET_4*%
X194414119Y-86765000D03*
D11*
%TO.P,R9,2*%
%TO.N,GND*%
X186794119Y-86765000D03*
%TD*%
D12*
%TO.P,U4,1*%
%TO.N,Net-(R2-Pad2)*%
X156370000Y-95000000D03*
D11*
%TO.P,U4,2*%
%TO.N,GND*%
X156370000Y-97540000D03*
%TO.P,U4,3*%
%TO.N,/SIGN_CHAUFFE*%
X163990000Y-97540000D03*
%TO.P,U4,4*%
%TO.N,+5V*%
X163990000Y-95000000D03*
%TD*%
D13*
%TO.P,J2,1,Pin_1*%
%TO.N,+24V*%
X120260000Y-42275000D03*
D14*
%TO.P,J2,2,Pin_2*%
%TO.N,/MOTEUR*%
X115180000Y-42275000D03*
%TD*%
D10*
%TO.P,R1,1*%
%TO.N,/ARDUINO_SIGN_MOTEUR*%
X109380000Y-95000000D03*
D11*
%TO.P,R1,2*%
%TO.N,Net-(R1-Pad2)*%
X117000000Y-95000000D03*
%TD*%
D19*
%TO.P,U3,1,VI*%
%TO.N,+24V*%
X192080000Y-103580000D03*
D20*
%TO.P,U3,2,GND*%
%TO.N,GND*%
X189540000Y-103580000D03*
%TO.P,U3,3,VO*%
%TO.N,+5V*%
X187000000Y-103580000D03*
%TD*%
D10*
%TO.P,R5,1*%
%TO.N,/SIGN_THERMISTANCE*%
X103000000Y-107000000D03*
D11*
%TO.P,R5,2*%
%TO.N,GND*%
X103000000Y-99380000D03*
%TD*%
D21*
%TO.P,Q2,1,G*%
%TO.N,/SIGN_MOTEUR*%
X144434119Y-61365000D03*
D22*
%TO.P,Q2,2,D*%
%TO.N,/MOTEUR*%
X144434119Y-63905000D03*
%TO.P,Q2,3,S*%
%TO.N,GND*%
X144434119Y-66445000D03*
%TD*%
D10*
%TO.P,C1,1*%
%TO.N,+24V*%
X192080000Y-98500000D03*
%TO.P,C1,2*%
%TO.N,GND*%
X192080000Y-96000000D03*
%TD*%
%TO.P,R2,1*%
%TO.N,/ARDUINO_SIGN_CHAUFFE*%
X144930000Y-95005000D03*
D11*
%TO.P,R2,2*%
%TO.N,Net-(R2-Pad2)*%
X152550000Y-95005000D03*
%TD*%
D10*
%TO.P,R10,1*%
%TO.N,/SIGN_CHAUFFE*%
X171570000Y-97235000D03*
D11*
%TO.P,R10,2*%
%TO.N,GND*%
X179190000Y-97235000D03*
%TD*%
D10*
%TO.P,R4,1*%
%TO.N,/SIGN_MOTEUR*%
X139860000Y-95000000D03*
D11*
%TO.P,R4,2*%
%TO.N,GND*%
X132240000Y-95000000D03*
%TD*%
D23*
%TO.P,J13,1,Pin_1*%
%TO.N,GND*%
X84000000Y-111540000D03*
D24*
%TO.P,J13,2,Pin_2*%
%TO.N,+5V*%
X84000000Y-109000000D03*
%TO.P,J13,3,Pin_3*%
%TO.N,/3v3*%
X84000000Y-106460000D03*
%TO.P,J13,4,Pin_4*%
%TO.N,/NEXTION_RX*%
X84000000Y-103920000D03*
%TO.P,J13,5,Pin_5*%
%TO.N,/NEXTION_TX*%
X84000000Y-101380000D03*
%TO.P,J13,6,Pin_6*%
%TO.N,/ARDUINO_SIGN_CHAUFFE*%
X84000000Y-98840000D03*
%TO.P,J13,7,Pin_7*%
%TO.N,/ARDUINO_SIGN_MOTEUR*%
X84000000Y-96300000D03*
%TO.P,J13,8,Pin_8*%
%TO.N,/SIGN_HALL*%
X84000000Y-93760000D03*
%TO.P,J13,9,Pin_9*%
%TO.N,/SIGN_THERMISTANCE_MOSFET_4*%
X84000000Y-91220000D03*
%TO.P,J13,10,Pin_10*%
%TO.N,/SIGN_THERMISTANCE_MOSFET_3*%
X84000000Y-88680000D03*
%TO.P,J13,11,Pin_11*%
%TO.N,/SIGN_THERMISTANCE_MOSFET_2*%
X84000000Y-86140000D03*
%TO.P,J13,12,Pin_12*%
%TO.N,/SIGN_THERMISTANCE_MOSFET_1*%
X84000000Y-83600000D03*
%TD*%
D21*
%TO.P,Q1,1,G*%
%TO.N,/SIGN_MOTEUR*%
X114434119Y-61365000D03*
D22*
%TO.P,Q1,2,D*%
%TO.N,/MOTEUR*%
X114434119Y-63905000D03*
%TO.P,Q1,3,S*%
%TO.N,GND*%
X114434119Y-66445000D03*
%TD*%
D10*
%TO.P,R8,1*%
%TO.N,/SIGN_THERMISTANCE_MOSFET_3*%
X162664119Y-86765000D03*
D11*
%TO.P,R8,2*%
%TO.N,GND*%
X155044119Y-86765000D03*
%TD*%
D13*
%TO.P,J4,1,Pin_1*%
%TO.N,+24V*%
X176140000Y-42275000D03*
D14*
%TO.P,J4,2,Pin_2*%
%TO.N,/CHAUFFE_2*%
X171060000Y-42275000D03*
%TD*%
D17*
%TO.P,J12,1,Pin_1*%
%TO.N,+5V*%
X175134119Y-107000000D03*
D18*
%TO.P,J12,2,Pin_2*%
%TO.N,GND*%
X172634119Y-107000000D03*
%TO.P,J12,3,Pin_3*%
%TO.N,/NEXTION_RX*%
X170134119Y-107000000D03*
%TO.P,J12,4,Pin_4*%
%TO.N,/NEXTION_TX*%
X167634119Y-107000000D03*
%TD*%
D10*
%TO.P,C2,1*%
%TO.N,+5V*%
X187000000Y-98500000D03*
%TO.P,C2,2*%
%TO.N,GND*%
X187000000Y-96000000D03*
%TD*%
D21*
%TO.P,Q3,1,G*%
%TO.N,/SIGN_CHAUFFE*%
X174434119Y-61365000D03*
D22*
%TO.P,Q3,2,D*%
%TO.N,/CHAUFFE_1*%
X174434119Y-63905000D03*
%TO.P,Q3,3,S*%
%TO.N,GND*%
X174434119Y-66445000D03*
%TD*%
D15*
%TO.P,J9,1,Pin_1*%
%TO.N,/3v3*%
X143574119Y-86765000D03*
D16*
%TO.P,J9,2,Pin_2*%
%TO.N,/SIGN_THERMISTANCE_MOSFET_2*%
X141074119Y-86765000D03*
%TD*%
D21*
%TO.P,Q4,1,G*%
%TO.N,/SIGN_CHAUFFE*%
X204434119Y-61365000D03*
D22*
%TO.P,Q4,2,D*%
%TO.N,/CHAUFFE_2*%
X204434119Y-63905000D03*
%TO.P,Q4,3,S*%
%TO.N,GND*%
X204434119Y-66445000D03*
%TD*%
D25*
%TO.N,+5V*%
X134634119Y-97000000D02*
X130430000Y-97000000D01*
X144634119Y-107365881D02*
X144634119Y-107000000D01*
X173000000Y-104000000D02*
X175134119Y-106134119D01*
X163990000Y-95000000D02*
X169000000Y-100010000D01*
X175134119Y-106134119D02*
X175134119Y-107000000D01*
X144634119Y-107000000D02*
X134634119Y-97000000D01*
X169000000Y-102000000D02*
X171000000Y-104000000D01*
X171000000Y-104000000D02*
X173000000Y-104000000D01*
X84000000Y-109000000D02*
X143000000Y-109000000D01*
X169000000Y-100010000D02*
X169000000Y-102000000D01*
X130430000Y-97000000D02*
X128430000Y-95000000D01*
X143000000Y-109000000D02*
X144634119Y-107365881D01*
%TO.N,/SIGN_THERMISTANCE_MOSFET_3*%
X99680000Y-88680000D02*
X102000000Y-91000000D01*
X161000000Y-91000000D02*
X162664119Y-89335881D01*
X102000000Y-91000000D02*
X161000000Y-91000000D01*
X162664119Y-89335881D02*
X162664119Y-86765000D01*
X84000000Y-88680000D02*
X99680000Y-88680000D01*
%TO.N,/3v3*%
X84000000Y-106460000D02*
X98540000Y-106460000D01*
X101000000Y-104000000D02*
X112000000Y-104000000D01*
X98540000Y-106460000D02*
X101000000Y-104000000D01*
X113500000Y-105500000D02*
X113500000Y-107000000D01*
X112000000Y-104000000D02*
X113500000Y-105500000D01*
D26*
%TO.N,+24V*%
X182490000Y-40645000D02*
X182490000Y-49535000D01*
D27*
X195190000Y-49535000D02*
X182490000Y-49535000D01*
D28*
X176140000Y-39375000D02*
X176140000Y-42275000D01*
D27*
X199000000Y-42275000D02*
X199000000Y-45725000D01*
D28*
X153280000Y-42275000D02*
X153280000Y-40645000D01*
X153280000Y-40645000D02*
X155820000Y-38105000D01*
D27*
X176140000Y-45725000D02*
X176140000Y-42275000D01*
D26*
X176140000Y-34295000D02*
X182490000Y-40645000D01*
X120260000Y-42275000D02*
X142760000Y-42275000D01*
X150740000Y-34295000D02*
X176140000Y-34295000D01*
D27*
X199000000Y-45725000D02*
X195190000Y-49535000D01*
D28*
X155820000Y-38105000D02*
X174870000Y-38105000D01*
D27*
X179950000Y-49535000D02*
X176140000Y-45725000D01*
D26*
X142760000Y-42275000D02*
X150740000Y-34295000D01*
D27*
X182490000Y-49535000D02*
X179950000Y-49535000D01*
D28*
X174870000Y-38105000D02*
X176140000Y-39375000D01*
D25*
%TO.N,/SIGN_HALL*%
X84000000Y-93760000D02*
X96760000Y-93760000D01*
X134634119Y-102000000D02*
X139634119Y-107000000D01*
X107000000Y-98000000D02*
X117000000Y-98000000D01*
X117000000Y-98000000D02*
X121000000Y-102000000D01*
X96760000Y-93760000D02*
X100000000Y-97000000D01*
X121000000Y-102000000D02*
X134634119Y-102000000D01*
X100000000Y-97000000D02*
X106000000Y-97000000D01*
X106000000Y-97000000D02*
X107000000Y-98000000D01*
D26*
%TO.N,/MOTEUR*%
X111370000Y-62235000D02*
X113040000Y-63905000D01*
X113550000Y-42275000D02*
X111370000Y-44455000D01*
X111370000Y-44455000D02*
X111370000Y-62235000D01*
X114434119Y-63905000D02*
X144434119Y-63905000D01*
X113040000Y-63905000D02*
X114434119Y-63905000D01*
X115180000Y-42275000D02*
X113550000Y-42275000D01*
D25*
%TO.N,/SIGN_MOTEUR*%
X152000000Y-70000000D02*
X152000000Y-65000000D01*
X166000000Y-84000000D02*
X152000000Y-70000000D01*
X148365000Y-61365000D02*
X144434119Y-61365000D01*
X166000000Y-89000000D02*
X166000000Y-84000000D01*
X142860000Y-92000000D02*
X163000000Y-92000000D01*
X152000000Y-65000000D02*
X148365000Y-61365000D01*
X163000000Y-92000000D02*
X166000000Y-89000000D01*
X139860000Y-95000000D02*
X142860000Y-92000000D01*
%TO.N,/SIGN_CHAUFFE*%
X205750000Y-61365000D02*
X206620000Y-62235000D01*
X174434119Y-61365000D02*
X174386619Y-61365000D01*
X206620000Y-62235000D02*
X206620000Y-69855000D01*
X174434119Y-61365000D02*
X175270000Y-61365000D01*
X204434119Y-61365000D02*
X205750000Y-61365000D01*
X206620000Y-69855000D02*
X205350000Y-71125000D01*
X171570000Y-95430000D02*
X177410000Y-89590000D01*
X171570000Y-97235000D02*
X171570000Y-95430000D01*
X177410000Y-63505000D02*
X177410000Y-71125000D01*
X177410000Y-89590000D02*
X177410000Y-71125000D01*
X205350000Y-71125000D02*
X177410000Y-71125000D01*
X175270000Y-61365000D02*
X177410000Y-63505000D01*
D28*
%TO.N,/CHAUFFE_1*%
X148200000Y-42275000D02*
X148200000Y-50805000D01*
X148200000Y-50805000D02*
X161300000Y-63905000D01*
X161300000Y-63905000D02*
X174434119Y-63905000D01*
%TO.N,/CHAUFFE_2*%
X171060000Y-48265000D02*
X186700000Y-63905000D01*
X171060000Y-42275000D02*
X171060000Y-48265000D01*
X186700000Y-63905000D02*
X204434119Y-63905000D01*
%TD*%
%TA.AperFunction,Conductor*%
%TO.N,GND*%
G36*
X96526942Y-94380185D02*
G01*
X96547584Y-94396819D01*
X99515139Y-97364374D01*
X99515149Y-97364385D01*
X99519479Y-97368715D01*
X99519480Y-97368716D01*
X99631284Y-97480520D01*
X99698767Y-97519481D01*
X99768215Y-97559577D01*
X99920943Y-97600501D01*
X99920946Y-97600501D01*
X100086653Y-97600501D01*
X100086669Y-97600500D01*
X105699903Y-97600500D01*
X105766942Y-97620185D01*
X105787583Y-97636818D01*
X106631284Y-98480520D01*
X106631286Y-98480521D01*
X106631290Y-98480524D01*
X106735118Y-98540468D01*
X106768216Y-98559577D01*
X106920943Y-98600501D01*
X106920945Y-98600501D01*
X107086654Y-98600501D01*
X107086670Y-98600500D01*
X116699903Y-98600500D01*
X116766942Y-98620185D01*
X116787584Y-98636819D01*
X120515139Y-102364374D01*
X120515149Y-102364385D01*
X120519479Y-102368715D01*
X120519480Y-102368716D01*
X120631284Y-102480520D01*
X120716121Y-102529500D01*
X120768215Y-102559577D01*
X120920942Y-102600500D01*
X120920943Y-102600500D01*
X134334022Y-102600500D01*
X134401061Y-102620185D01*
X134421703Y-102636819D01*
X138275857Y-106490973D01*
X138309342Y-106552296D01*
X138310649Y-106598052D01*
X138283619Y-106768713D01*
X138283619Y-107231287D01*
X138316873Y-107441243D01*
X138379515Y-107634035D01*
X138382563Y-107643414D01*
X138479070Y-107832820D01*
X138604009Y-108004786D01*
X138604015Y-108004792D01*
X138754327Y-108155104D01*
X138781961Y-108175181D01*
X138824627Y-108230511D01*
X138830606Y-108300124D01*
X138798001Y-108361920D01*
X138737162Y-108396277D01*
X138709076Y-108399500D01*
X114803341Y-108399500D01*
X114736302Y-108379815D01*
X114690547Y-108327011D01*
X114680603Y-108257853D01*
X114697802Y-108210404D01*
X114748259Y-108128599D01*
X114784814Y-108069334D01*
X114839999Y-107902797D01*
X114850500Y-107800009D01*
X114850499Y-106199992D01*
X114839999Y-106097203D01*
X114784814Y-105930666D01*
X114692712Y-105781344D01*
X114568656Y-105657288D01*
X114457293Y-105588599D01*
X114419336Y-105565187D01*
X114419331Y-105565185D01*
X114417862Y-105564698D01*
X114252797Y-105510001D01*
X114252795Y-105510000D01*
X114205793Y-105505199D01*
X114141102Y-105478803D01*
X114100950Y-105421622D01*
X114098629Y-105413961D01*
X114059577Y-105268216D01*
X114054413Y-105259272D01*
X113980524Y-105131290D01*
X113980521Y-105131286D01*
X113980520Y-105131284D01*
X113868716Y-105019480D01*
X113868715Y-105019479D01*
X113864385Y-105015149D01*
X113864374Y-105015139D01*
X112487590Y-103638355D01*
X112487588Y-103638352D01*
X112368717Y-103519481D01*
X112368716Y-103519480D01*
X112281904Y-103469360D01*
X112281904Y-103469359D01*
X112281900Y-103469358D01*
X112231785Y-103440423D01*
X112079057Y-103399499D01*
X111920943Y-103399499D01*
X111913347Y-103399499D01*
X111913331Y-103399500D01*
X100920940Y-103399500D01*
X100880019Y-103410464D01*
X100880019Y-103410465D01*
X100851354Y-103418146D01*
X100768214Y-103440423D01*
X100768209Y-103440426D01*
X100631290Y-103519475D01*
X100631282Y-103519481D01*
X100519480Y-103631284D01*
X100519478Y-103631286D01*
X99414979Y-104735786D01*
X98327584Y-105823181D01*
X98266261Y-105856666D01*
X98239903Y-105859500D01*
X85289091Y-105859500D01*
X85222052Y-105839815D01*
X85176711Y-105787909D01*
X85174037Y-105782175D01*
X85174034Y-105782170D01*
X85174033Y-105782169D01*
X85104097Y-105682289D01*
X85038494Y-105588597D01*
X84871402Y-105421506D01*
X84871396Y-105421501D01*
X84685842Y-105291575D01*
X84642217Y-105236998D01*
X84635023Y-105167500D01*
X84666546Y-105105145D01*
X84685842Y-105088425D01*
X84748256Y-105044722D01*
X84871401Y-104958495D01*
X85038495Y-104791401D01*
X85174035Y-104597830D01*
X85273903Y-104383663D01*
X85335063Y-104155408D01*
X85355659Y-103920000D01*
X85335063Y-103684592D01*
X85288626Y-103511285D01*
X85273905Y-103456344D01*
X85273904Y-103456343D01*
X85273903Y-103456337D01*
X85174035Y-103242171D01*
X85139083Y-103192253D01*
X85038494Y-103048597D01*
X84871402Y-102881506D01*
X84871396Y-102881501D01*
X84685842Y-102751575D01*
X84642217Y-102696998D01*
X84635023Y-102627500D01*
X84666546Y-102565145D01*
X84685842Y-102548425D01*
X84772730Y-102487585D01*
X84871401Y-102418495D01*
X85038495Y-102251401D01*
X85174035Y-102057830D01*
X85273903Y-101843663D01*
X85335063Y-101615408D01*
X85355659Y-101380000D01*
X85354187Y-101363181D01*
X85335063Y-101144596D01*
X85335063Y-101144592D01*
X85273903Y-100916337D01*
X85174035Y-100702171D01*
X85038495Y-100508599D01*
X85038494Y-100508597D01*
X84871402Y-100341506D01*
X84871396Y-100341501D01*
X84685842Y-100211575D01*
X84642217Y-100156998D01*
X84635023Y-100087500D01*
X84666546Y-100025145D01*
X84685842Y-100008425D01*
X84708026Y-99992891D01*
X84871401Y-99878495D01*
X85038495Y-99711401D01*
X85174035Y-99517830D01*
X85273903Y-99303663D01*
X85335063Y-99075408D01*
X85355659Y-98840000D01*
X85335063Y-98604592D01*
X85273903Y-98376337D01*
X85174035Y-98162171D01*
X85097945Y-98053502D01*
X85038494Y-97968597D01*
X84871402Y-97801506D01*
X84871396Y-97801501D01*
X84685842Y-97671575D01*
X84642217Y-97616998D01*
X84635023Y-97547500D01*
X84666546Y-97485145D01*
X84685842Y-97468425D01*
X84827218Y-97369432D01*
X84871401Y-97338495D01*
X85038495Y-97171401D01*
X85174035Y-96977830D01*
X85273903Y-96763663D01*
X85335063Y-96535408D01*
X85355659Y-96300000D01*
X85354839Y-96290633D01*
X85349687Y-96231738D01*
X85335063Y-96064592D01*
X85273903Y-95836337D01*
X85174035Y-95622171D01*
X85101827Y-95519046D01*
X85038494Y-95428597D01*
X84871402Y-95261506D01*
X84871396Y-95261501D01*
X84685842Y-95131575D01*
X84642217Y-95076998D01*
X84635023Y-95007500D01*
X84666546Y-94945145D01*
X84685842Y-94928425D01*
X84708026Y-94912891D01*
X84871401Y-94798495D01*
X85038495Y-94631401D01*
X85174035Y-94437830D01*
X85176707Y-94432097D01*
X85222878Y-94379658D01*
X85289091Y-94360500D01*
X96459903Y-94360500D01*
X96526942Y-94380185D01*
G37*
%TD.AperFunction*%
%TA.AperFunction,Conductor*%
G36*
X209442539Y-32520185D02*
G01*
X209488294Y-32572989D01*
X209499500Y-32624500D01*
X209499500Y-114375500D01*
X209479815Y-114442539D01*
X209427011Y-114488294D01*
X209375500Y-114499500D01*
X81624500Y-114499500D01*
X81557461Y-114479815D01*
X81511706Y-114427011D01*
X81500500Y-114375500D01*
X81500500Y-112000000D01*
X92494592Y-112000000D01*
X92514201Y-112286680D01*
X92572666Y-112568034D01*
X92572667Y-112568037D01*
X92668894Y-112838793D01*
X92668893Y-112838793D01*
X92801098Y-113093935D01*
X92966812Y-113328700D01*
X93051923Y-113419831D01*
X93162947Y-113538708D01*
X93385853Y-113720055D01*
X93631382Y-113869365D01*
X93818237Y-113950526D01*
X93894942Y-113983844D01*
X94171642Y-114061371D01*
X94421920Y-114095771D01*
X94456321Y-114100500D01*
X94456322Y-114100500D01*
X94743679Y-114100500D01*
X94774370Y-114096281D01*
X95028358Y-114061371D01*
X95305058Y-113983844D01*
X95418015Y-113934779D01*
X95568617Y-113869365D01*
X95568620Y-113869363D01*
X95568625Y-113869361D01*
X95814147Y-113720055D01*
X96037053Y-113538708D01*
X96233189Y-113328698D01*
X96398901Y-113093936D01*
X96531104Y-112838797D01*
X96627334Y-112568032D01*
X96685798Y-112286686D01*
X96705408Y-112000000D01*
X187894592Y-112000000D01*
X187914201Y-112286680D01*
X187972666Y-112568034D01*
X187972667Y-112568037D01*
X188068894Y-112838793D01*
X188068893Y-112838793D01*
X188201098Y-113093935D01*
X188366812Y-113328700D01*
X188451923Y-113419831D01*
X188562947Y-113538708D01*
X188785853Y-113720055D01*
X189031382Y-113869365D01*
X189218237Y-113950526D01*
X189294942Y-113983844D01*
X189571642Y-114061371D01*
X189821920Y-114095771D01*
X189856321Y-114100500D01*
X189856322Y-114100500D01*
X190143679Y-114100500D01*
X190174370Y-114096281D01*
X190428358Y-114061371D01*
X190705058Y-113983844D01*
X190818015Y-113934779D01*
X190968617Y-113869365D01*
X190968620Y-113869363D01*
X190968625Y-113869361D01*
X191214147Y-113720055D01*
X191437053Y-113538708D01*
X191633189Y-113328698D01*
X191798901Y-113093936D01*
X191931104Y-112838797D01*
X192027334Y-112568032D01*
X192085798Y-112286686D01*
X192105408Y-112000000D01*
X192085798Y-111713314D01*
X192027334Y-111431968D01*
X191931105Y-111161206D01*
X191931106Y-111161206D01*
X191798901Y-110906064D01*
X191633187Y-110671299D01*
X191554554Y-110587105D01*
X191437053Y-110461292D01*
X191214147Y-110279945D01*
X191214146Y-110279944D01*
X190968617Y-110130634D01*
X190705063Y-110016158D01*
X190705061Y-110016157D01*
X190705058Y-110016156D01*
X190575578Y-109979877D01*
X190428364Y-109938630D01*
X190428359Y-109938629D01*
X190428358Y-109938629D01*
X190286018Y-109919064D01*
X190143679Y-109899500D01*
X190143678Y-109899500D01*
X189856322Y-109899500D01*
X189856321Y-109899500D01*
X189571642Y-109938629D01*
X189571635Y-109938630D01*
X189363861Y-109996845D01*
X189294942Y-110016156D01*
X189294939Y-110016156D01*
X189294936Y-110016158D01*
X189294935Y-110016158D01*
X189031382Y-110130634D01*
X188785853Y-110279944D01*
X188562950Y-110461289D01*
X188366812Y-110671299D01*
X188201098Y-110906064D01*
X188068894Y-111161206D01*
X187972667Y-111431962D01*
X187972666Y-111431965D01*
X187914201Y-111713319D01*
X187894592Y-112000000D01*
X96705408Y-112000000D01*
X96685798Y-111713314D01*
X96627334Y-111431968D01*
X96531105Y-111161206D01*
X96531106Y-111161206D01*
X96398901Y-110906064D01*
X96233187Y-110671299D01*
X96154554Y-110587105D01*
X96037053Y-110461292D01*
X95814147Y-110279945D01*
X95814146Y-110279944D01*
X95568617Y-110130634D01*
X95305063Y-110016158D01*
X95305061Y-110016157D01*
X95305058Y-110016156D01*
X95175578Y-109979877D01*
X95028364Y-109938630D01*
X95028359Y-109938629D01*
X95028358Y-109938629D01*
X94886018Y-109919064D01*
X94743679Y-109899500D01*
X94743678Y-109899500D01*
X94456322Y-109899500D01*
X94456321Y-109899500D01*
X94171642Y-109938629D01*
X94171635Y-109938630D01*
X93963861Y-109996845D01*
X93894942Y-110016156D01*
X93894939Y-110016156D01*
X93894936Y-110016158D01*
X93894935Y-110016158D01*
X93631382Y-110130634D01*
X93385853Y-110279944D01*
X93162950Y-110461289D01*
X92966812Y-110671299D01*
X92801098Y-110906064D01*
X92668894Y-111161206D01*
X92572667Y-111431962D01*
X92572666Y-111431965D01*
X92514201Y-111713319D01*
X92494592Y-112000000D01*
X81500500Y-112000000D01*
X81500500Y-83599999D01*
X82644341Y-83599999D01*
X82644341Y-83600000D01*
X82664936Y-83835403D01*
X82664938Y-83835413D01*
X82726094Y-84063655D01*
X82726096Y-84063659D01*
X82726097Y-84063663D01*
X82795462Y-84212416D01*
X82825965Y-84277830D01*
X82825967Y-84277834D01*
X82961501Y-84471395D01*
X82961506Y-84471402D01*
X83128597Y-84638493D01*
X83128603Y-84638498D01*
X83314158Y-84768425D01*
X83357783Y-84823002D01*
X83364977Y-84892500D01*
X83333454Y-84954855D01*
X83314158Y-84971575D01*
X83128597Y-85101505D01*
X82961505Y-85268597D01*
X82825965Y-85462169D01*
X82825964Y-85462171D01*
X82726098Y-85676335D01*
X82726094Y-85676344D01*
X82664938Y-85904586D01*
X82664936Y-85904596D01*
X82644341Y-86139999D01*
X82644341Y-86140000D01*
X82664936Y-86375403D01*
X82664938Y-86375413D01*
X82726094Y-86603655D01*
X82726096Y-86603659D01*
X82726097Y-86603663D01*
X82801329Y-86764998D01*
X82825965Y-86817830D01*
X82825967Y-86817834D01*
X82961501Y-87011395D01*
X82961506Y-87011402D01*
X83128597Y-87178493D01*
X83128603Y-87178498D01*
X83314158Y-87308425D01*
X83357783Y-87363002D01*
X83364977Y-87432500D01*
X83333454Y-87494855D01*
X83314158Y-87511575D01*
X83128597Y-87641505D01*
X82961505Y-87808597D01*
X82825965Y-88002169D01*
X82825964Y-88002171D01*
X82726098Y-88216335D01*
X82726094Y-88216344D01*
X82664938Y-88444586D01*
X82664936Y-88444596D01*
X82644341Y-88679999D01*
X82644341Y-88680000D01*
X82664936Y-88915403D01*
X82664938Y-88915413D01*
X82726094Y-89143655D01*
X82726096Y-89143659D01*
X82726097Y-89143663D01*
X82794290Y-89289902D01*
X82825965Y-89357830D01*
X82825967Y-89357834D01*
X82961501Y-89551395D01*
X82961506Y-89551402D01*
X83128597Y-89718493D01*
X83128603Y-89718498D01*
X83314158Y-89848425D01*
X83357783Y-89903002D01*
X83364977Y-89972500D01*
X83333454Y-90034855D01*
X83314158Y-90051575D01*
X83128597Y-90181505D01*
X82961505Y-90348597D01*
X82825965Y-90542169D01*
X82825964Y-90542171D01*
X82726098Y-90756335D01*
X82726094Y-90756344D01*
X82664938Y-90984586D01*
X82664936Y-90984596D01*
X82644341Y-91219999D01*
X82644341Y-91220000D01*
X82664936Y-91455403D01*
X82664938Y-91455413D01*
X82726094Y-91683655D01*
X82726096Y-91683659D01*
X82726097Y-91683663D01*
X82786026Y-91812181D01*
X82825965Y-91897830D01*
X82825967Y-91897834D01*
X82961501Y-92091395D01*
X82961506Y-92091402D01*
X83128597Y-92258493D01*
X83128603Y-92258498D01*
X83314158Y-92388425D01*
X83357783Y-92443002D01*
X83364977Y-92512500D01*
X83333454Y-92574855D01*
X83314158Y-92591575D01*
X83128597Y-92721505D01*
X82961505Y-92888597D01*
X82825965Y-93082169D01*
X82825964Y-93082171D01*
X82726098Y-93296335D01*
X82726094Y-93296344D01*
X82664938Y-93524586D01*
X82664936Y-93524596D01*
X82644341Y-93759999D01*
X82644341Y-93760000D01*
X82664936Y-93995403D01*
X82664938Y-93995413D01*
X82726094Y-94223655D01*
X82726096Y-94223659D01*
X82726097Y-94223663D01*
X82798839Y-94379658D01*
X82825965Y-94437830D01*
X82825967Y-94437834D01*
X82961501Y-94631395D01*
X82961506Y-94631402D01*
X83128597Y-94798493D01*
X83128603Y-94798498D01*
X83314158Y-94928425D01*
X83357783Y-94983002D01*
X83364977Y-95052500D01*
X83333454Y-95114855D01*
X83314158Y-95131575D01*
X83128597Y-95261505D01*
X82961505Y-95428597D01*
X82825965Y-95622169D01*
X82825964Y-95622171D01*
X82726098Y-95836335D01*
X82726094Y-95836344D01*
X82664938Y-96064586D01*
X82664936Y-96064596D01*
X82644341Y-96299999D01*
X82644341Y-96300000D01*
X82664936Y-96535403D01*
X82664938Y-96535413D01*
X82726094Y-96763655D01*
X82726096Y-96763659D01*
X82726097Y-96763663D01*
X82737680Y-96788502D01*
X82825965Y-96977830D01*
X82825967Y-96977834D01*
X82961501Y-97171395D01*
X82961506Y-97171402D01*
X83128597Y-97338493D01*
X83128603Y-97338498D01*
X83314158Y-97468425D01*
X83357783Y-97523002D01*
X83364977Y-97592500D01*
X83333454Y-97654855D01*
X83314158Y-97671575D01*
X83128597Y-97801505D01*
X82961505Y-97968597D01*
X82825965Y-98162169D01*
X82825964Y-98162171D01*
X82726098Y-98376335D01*
X82726094Y-98376344D01*
X82664938Y-98604586D01*
X82664936Y-98604596D01*
X82644341Y-98839999D01*
X82644341Y-98840000D01*
X82664936Y-99075403D01*
X82664938Y-99075413D01*
X82726094Y-99303655D01*
X82726096Y-99303659D01*
X82726097Y-99303663D01*
X82742640Y-99339139D01*
X82825965Y-99517830D01*
X82825967Y-99517834D01*
X82961501Y-99711395D01*
X82961506Y-99711402D01*
X83128597Y-99878493D01*
X83128603Y-99878498D01*
X83314158Y-100008425D01*
X83357783Y-100063002D01*
X83364977Y-100132500D01*
X83333454Y-100194855D01*
X83314158Y-100211575D01*
X83128597Y-100341505D01*
X82961505Y-100508597D01*
X82825965Y-100702169D01*
X82825964Y-100702171D01*
X82726098Y-100916335D01*
X82726094Y-100916344D01*
X82664938Y-101144586D01*
X82664936Y-101144596D01*
X82644341Y-101379999D01*
X82644341Y-101380000D01*
X82664936Y-101615403D01*
X82664938Y-101615413D01*
X82726094Y-101843655D01*
X82726096Y-101843659D01*
X82726097Y-101843663D01*
X82825965Y-102057830D01*
X82825967Y-102057834D01*
X82961501Y-102251395D01*
X82961506Y-102251402D01*
X83128597Y-102418493D01*
X83128603Y-102418498D01*
X83314158Y-102548425D01*
X83357783Y-102603002D01*
X83364977Y-102672500D01*
X83333454Y-102734855D01*
X83314158Y-102751575D01*
X83128597Y-102881505D01*
X82961505Y-103048597D01*
X82825965Y-103242169D01*
X82825964Y-103242171D01*
X82726098Y-103456335D01*
X82726094Y-103456344D01*
X82664938Y-103684586D01*
X82664936Y-103684596D01*
X82644341Y-103919999D01*
X82644341Y-103920000D01*
X82664936Y-104155403D01*
X82664938Y-104155413D01*
X82726094Y-104383655D01*
X82726096Y-104383659D01*
X82726097Y-104383663D01*
X82794633Y-104530639D01*
X82825965Y-104597830D01*
X82825967Y-104597834D01*
X82961501Y-104791395D01*
X82961506Y-104791402D01*
X83128597Y-104958493D01*
X83128603Y-104958498D01*
X83314158Y-105088425D01*
X83357783Y-105143002D01*
X83364977Y-105212500D01*
X83333454Y-105274855D01*
X83314158Y-105291575D01*
X83128597Y-105421505D01*
X82961505Y-105588597D01*
X82825965Y-105782169D01*
X82825964Y-105782171D01*
X82745064Y-105955663D01*
X82726624Y-105995208D01*
X82726098Y-105996335D01*
X82726094Y-105996344D01*
X82664938Y-106224586D01*
X82664936Y-106224596D01*
X82644341Y-106459999D01*
X82644341Y-106460000D01*
X82664936Y-106695403D01*
X82664938Y-106695413D01*
X82726094Y-106923655D01*
X82726096Y-106923659D01*
X82726097Y-106923663D01*
X82789906Y-107060501D01*
X82825965Y-107137830D01*
X82825967Y-107137834D01*
X82934281Y-107292521D01*
X82959612Y-107328698D01*
X82961501Y-107331395D01*
X82961506Y-107331402D01*
X83128597Y-107498493D01*
X83128603Y-107498498D01*
X83314158Y-107628425D01*
X83357783Y-107683002D01*
X83364977Y-107752500D01*
X83333454Y-107814855D01*
X83314158Y-107831575D01*
X83128597Y-107961505D01*
X82961505Y-108128597D01*
X82825965Y-108322169D01*
X82825964Y-108322171D01*
X82726098Y-108536335D01*
X82726094Y-108536344D01*
X82664938Y-108764586D01*
X82664936Y-108764596D01*
X82644341Y-108999999D01*
X82644341Y-109000000D01*
X82664936Y-109235403D01*
X82664938Y-109235413D01*
X82726094Y-109463655D01*
X82726096Y-109463659D01*
X82726097Y-109463663D01*
X82789906Y-109600501D01*
X82825965Y-109677830D01*
X82825967Y-109677834D01*
X82934281Y-109832521D01*
X82961505Y-109871401D01*
X83128599Y-110038495D01*
X83225384Y-110106265D01*
X83322165Y-110174032D01*
X83322167Y-110174033D01*
X83322170Y-110174035D01*
X83536337Y-110273903D01*
X83536343Y-110273904D01*
X83536344Y-110273905D01*
X83558886Y-110279945D01*
X83764592Y-110335063D01*
X83952918Y-110351539D01*
X83999999Y-110355659D01*
X84000000Y-110355659D01*
X84000001Y-110355659D01*
X84039234Y-110352226D01*
X84235408Y-110335063D01*
X84463663Y-110273903D01*
X84677830Y-110174035D01*
X84871401Y-110038495D01*
X85038495Y-109871401D01*
X85174035Y-109677830D01*
X85176707Y-109672097D01*
X85222878Y-109619658D01*
X85289091Y-109600500D01*
X142913331Y-109600500D01*
X142913347Y-109600501D01*
X142920943Y-109600501D01*
X143079054Y-109600501D01*
X143079057Y-109600501D01*
X143231785Y-109559577D01*
X143281904Y-109530639D01*
X143368716Y-109480520D01*
X143480520Y-109368716D01*
X143480520Y-109368714D01*
X143490728Y-109358507D01*
X143490730Y-109358504D01*
X144337416Y-108511818D01*
X144398739Y-108478333D01*
X144425097Y-108475499D01*
X145284121Y-108475499D01*
X145284127Y-108475499D01*
X145386916Y-108464999D01*
X145553453Y-108409814D01*
X145702775Y-108317712D01*
X145826831Y-108193656D01*
X145918933Y-108044334D01*
X145974118Y-107877797D01*
X145984619Y-107775009D01*
X145984618Y-106224992D01*
X145974118Y-106122203D01*
X145933624Y-106000000D01*
X153494592Y-106000000D01*
X153514201Y-106286680D01*
X153572666Y-106568034D01*
X153572667Y-106568037D01*
X153668894Y-106838793D01*
X153668893Y-106838793D01*
X153801098Y-107093935D01*
X153966812Y-107328700D01*
X153969335Y-107331401D01*
X154162947Y-107538708D01*
X154385853Y-107720055D01*
X154612390Y-107857816D01*
X154631382Y-107869365D01*
X154818237Y-107950526D01*
X154894942Y-107983844D01*
X155171642Y-108061371D01*
X155421920Y-108095771D01*
X155456321Y-108100500D01*
X155456322Y-108100500D01*
X155743679Y-108100500D01*
X155774370Y-108096281D01*
X156028358Y-108061371D01*
X156305058Y-107983844D01*
X156491643Y-107902799D01*
X156568617Y-107869365D01*
X156568620Y-107869363D01*
X156568625Y-107869361D01*
X156814147Y-107720055D01*
X157037053Y-107538708D01*
X157233189Y-107328698D01*
X157398901Y-107093936D01*
X157531104Y-106838797D01*
X157556012Y-106768713D01*
X166283619Y-106768713D01*
X166283619Y-107231287D01*
X166316873Y-107441243D01*
X166379515Y-107634035D01*
X166382563Y-107643414D01*
X166479070Y-107832820D01*
X166604009Y-108004786D01*
X166754332Y-108155109D01*
X166926298Y-108280048D01*
X166926300Y-108280049D01*
X166926303Y-108280051D01*
X167115707Y-108376557D01*
X167317876Y-108442246D01*
X167527832Y-108475500D01*
X167527833Y-108475500D01*
X167740405Y-108475500D01*
X167740406Y-108475500D01*
X167950362Y-108442246D01*
X168152531Y-108376557D01*
X168341935Y-108280051D01*
X168397442Y-108239723D01*
X168513905Y-108155109D01*
X168513907Y-108155106D01*
X168513911Y-108155104D01*
X168664223Y-108004792D01*
X168783802Y-107840204D01*
X168839130Y-107797540D01*
X168908743Y-107791561D01*
X168970539Y-107824166D01*
X168984432Y-107840199D01*
X169100566Y-108000045D01*
X169104015Y-108004792D01*
X169254332Y-108155109D01*
X169426298Y-108280048D01*
X169426300Y-108280049D01*
X169426303Y-108280051D01*
X169615707Y-108376557D01*
X169817876Y-108442246D01*
X170027832Y-108475500D01*
X170027833Y-108475500D01*
X170240405Y-108475500D01*
X170240406Y-108475500D01*
X170450362Y-108442246D01*
X170652531Y-108376557D01*
X170841935Y-108280051D01*
X170897442Y-108239723D01*
X171013905Y-108155109D01*
X171013907Y-108155106D01*
X171013911Y-108155104D01*
X171164223Y-108004792D01*
X171164225Y-108004788D01*
X171164228Y-108004786D01*
X171289167Y-107832820D01*
X171289166Y-107832820D01*
X171289170Y-107832816D01*
X171385676Y-107643412D01*
X171451365Y-107441243D01*
X171484619Y-107231287D01*
X171484619Y-106768713D01*
X171451365Y-106558757D01*
X171385676Y-106356588D01*
X171289170Y-106167184D01*
X171289168Y-106167181D01*
X171289167Y-106167179D01*
X171164228Y-105995213D01*
X171013905Y-105844890D01*
X170841939Y-105719951D01*
X170652533Y-105623444D01*
X170652532Y-105623443D01*
X170652531Y-105623443D01*
X170450362Y-105557754D01*
X170450360Y-105557753D01*
X170450359Y-105557753D01*
X170284690Y-105531514D01*
X170240406Y-105524500D01*
X170027832Y-105524500D01*
X169983548Y-105531514D01*
X169817879Y-105557753D01*
X169615704Y-105623444D01*
X169426298Y-105719951D01*
X169254332Y-105844890D01*
X169104013Y-105995209D01*
X169104009Y-105995214D01*
X168984437Y-106159793D01*
X168929108Y-106202459D01*
X168859494Y-106208438D01*
X168797699Y-106175833D01*
X168783801Y-106159793D01*
X168664228Y-105995214D01*
X168664224Y-105995209D01*
X168513905Y-105844890D01*
X168341939Y-105719951D01*
X168152533Y-105623444D01*
X168152532Y-105623443D01*
X168152531Y-105623443D01*
X167950362Y-105557754D01*
X167950360Y-105557753D01*
X167950359Y-105557753D01*
X167784690Y-105531514D01*
X167740406Y-105524500D01*
X167527832Y-105524500D01*
X167483548Y-105531514D01*
X167317879Y-105557753D01*
X167115704Y-105623444D01*
X166926298Y-105719951D01*
X166754332Y-105844890D01*
X166604009Y-105995213D01*
X166479070Y-106167179D01*
X166382563Y-106356585D01*
X166316872Y-106558760D01*
X166288051Y-106740728D01*
X166283619Y-106768713D01*
X157556012Y-106768713D01*
X157627334Y-106568032D01*
X157685798Y-106286686D01*
X157705408Y-106000000D01*
X157685798Y-105713314D01*
X157627334Y-105431968D01*
X157623615Y-105421505D01*
X157531105Y-105161206D01*
X157531106Y-105161206D01*
X157398901Y-104906064D01*
X157233187Y-104671299D01*
X157154554Y-104587105D01*
X157037053Y-104461292D01*
X156814147Y-104279945D01*
X156814146Y-104279944D01*
X156568617Y-104130634D01*
X156305063Y-104016158D01*
X156305061Y-104016157D01*
X156305058Y-104016156D01*
X156132290Y-103967749D01*
X156028364Y-103938630D01*
X156028359Y-103938629D01*
X156028358Y-103938629D01*
X155886018Y-103919064D01*
X155743679Y-103899500D01*
X155743678Y-103899500D01*
X155456322Y-103899500D01*
X155456321Y-103899500D01*
X155171642Y-103938629D01*
X155171635Y-103938630D01*
X154963861Y-103996845D01*
X154894942Y-104016156D01*
X154894939Y-104016156D01*
X154894936Y-104016158D01*
X154894935Y-104016158D01*
X154631382Y-104130634D01*
X154385853Y-104279944D01*
X154162950Y-104461289D01*
X153966812Y-104671299D01*
X153801098Y-104906064D01*
X153668894Y-105161206D01*
X153572667Y-105431962D01*
X153572666Y-105431965D01*
X153514201Y-105713319D01*
X153494592Y-106000000D01*
X145933624Y-106000000D01*
X145918933Y-105955666D01*
X145826831Y-105806344D01*
X145702775Y-105682288D01*
X145607372Y-105623443D01*
X145553455Y-105590187D01*
X145553450Y-105590185D01*
X145548658Y-105588597D01*
X145386916Y-105535001D01*
X145386914Y-105535000D01*
X145284135Y-105524500D01*
X145284128Y-105524500D01*
X144059217Y-105524500D01*
X143992178Y-105504815D01*
X143971536Y-105488181D01*
X135121709Y-96638355D01*
X135121707Y-96638352D01*
X135002836Y-96519481D01*
X135002835Y-96519480D01*
X134916023Y-96469360D01*
X134916023Y-96469359D01*
X134916019Y-96469358D01*
X134865904Y-96440423D01*
X134713176Y-96399499D01*
X134555062Y-96399499D01*
X134547466Y-96399499D01*
X134547450Y-96399500D01*
X130730097Y-96399500D01*
X130663058Y-96379815D01*
X130642416Y-96363181D01*
X129721941Y-95442706D01*
X129688456Y-95381383D01*
X129689847Y-95322931D01*
X129706306Y-95261506D01*
X129715635Y-95226692D01*
X129734812Y-95007500D01*
X129735468Y-95000001D01*
X129735468Y-94999998D01*
X129729206Y-94928425D01*
X129715635Y-94773308D01*
X129656739Y-94553504D01*
X129560568Y-94347266D01*
X129430047Y-94160861D01*
X129430045Y-94160858D01*
X129269141Y-93999954D01*
X129082734Y-93869432D01*
X129082732Y-93869431D01*
X128876497Y-93773261D01*
X128876488Y-93773258D01*
X128656697Y-93714366D01*
X128656693Y-93714365D01*
X128656692Y-93714365D01*
X128656691Y-93714364D01*
X128656686Y-93714364D01*
X128430002Y-93694532D01*
X128429998Y-93694532D01*
X128203313Y-93714364D01*
X128203302Y-93714366D01*
X127983511Y-93773258D01*
X127983502Y-93773261D01*
X127777267Y-93869431D01*
X127777265Y-93869432D01*
X127590858Y-93999954D01*
X127429954Y-94160858D01*
X127299432Y-94347265D01*
X127299431Y-94347267D01*
X127203261Y-94553502D01*
X127203258Y-94553511D01*
X127144366Y-94773302D01*
X127144364Y-94773313D01*
X127124532Y-94999998D01*
X127124532Y-95000001D01*
X127144364Y-95226686D01*
X127144366Y-95226697D01*
X127203258Y-95446488D01*
X127203261Y-95446497D01*
X127299431Y-95652732D01*
X127299432Y-95652734D01*
X127429954Y-95839141D01*
X127590858Y-96000045D01*
X127590861Y-96000047D01*
X127777266Y-96130568D01*
X127835275Y-96157618D01*
X127887714Y-96203791D01*
X127906866Y-96270984D01*
X127886650Y-96337865D01*
X127835275Y-96382382D01*
X127777267Y-96409431D01*
X127777265Y-96409432D01*
X127590858Y-96539954D01*
X127429954Y-96700858D01*
X127299432Y-96887265D01*
X127299431Y-96887267D01*
X127203261Y-97093502D01*
X127203258Y-97093511D01*
X127144366Y-97313302D01*
X127144364Y-97313313D01*
X127124532Y-97539998D01*
X127124532Y-97540001D01*
X127144364Y-97766686D01*
X127144366Y-97766697D01*
X127203258Y-97986488D01*
X127203261Y-97986497D01*
X127299431Y-98192732D01*
X127299432Y-98192734D01*
X127429954Y-98379141D01*
X127590858Y-98540045D01*
X127618753Y-98559577D01*
X127777266Y-98670568D01*
X127983504Y-98766739D01*
X128203308Y-98825635D01*
X128365230Y-98839801D01*
X128429998Y-98845468D01*
X128430000Y-98845468D01*
X128430002Y-98845468D01*
X128492511Y-98839999D01*
X128656692Y-98825635D01*
X128876496Y-98766739D01*
X129082734Y-98670568D01*
X129269139Y-98540047D01*
X129430047Y-98379139D01*
X129560568Y-98192734D01*
X129656739Y-97986496D01*
X129715635Y-97766692D01*
X129735468Y-97540000D01*
X129728219Y-97457149D01*
X129741985Y-97388652D01*
X129790600Y-97338469D01*
X129858628Y-97322535D01*
X129924472Y-97345910D01*
X129939428Y-97358663D01*
X129945139Y-97364374D01*
X129945149Y-97364385D01*
X129949479Y-97368715D01*
X129949480Y-97368716D01*
X130061284Y-97480520D01*
X130128767Y-97519481D01*
X130198215Y-97559577D01*
X130350943Y-97600500D01*
X130509057Y-97600500D01*
X134334022Y-97600500D01*
X134401061Y-97620185D01*
X134421703Y-97636819D01*
X143247300Y-106462417D01*
X143280785Y-106523740D01*
X143283619Y-106550098D01*
X143283619Y-107775001D01*
X143283621Y-107775023D01*
X143286171Y-107799989D01*
X143273400Y-107868681D01*
X143250494Y-107900269D01*
X142787584Y-108363181D01*
X142726261Y-108396666D01*
X142699903Y-108399500D01*
X140559162Y-108399500D01*
X140492123Y-108379815D01*
X140446368Y-108327011D01*
X140436424Y-108257853D01*
X140465449Y-108194297D01*
X140486277Y-108175181D01*
X140513911Y-108155104D01*
X140664223Y-108004792D01*
X140664225Y-108004788D01*
X140664228Y-108004786D01*
X140789167Y-107832820D01*
X140789166Y-107832820D01*
X140789170Y-107832816D01*
X140885676Y-107643412D01*
X140951365Y-107441243D01*
X140984619Y-107231287D01*
X140984619Y-106768713D01*
X140951365Y-106558757D01*
X140885676Y-106356588D01*
X140789170Y-106167184D01*
X140789168Y-106167181D01*
X140789167Y-106167179D01*
X140664228Y-105995213D01*
X140513905Y-105844890D01*
X140341939Y-105719951D01*
X140152533Y-105623444D01*
X140152532Y-105623443D01*
X140152531Y-105623443D01*
X139950362Y-105557754D01*
X139950360Y-105557753D01*
X139950359Y-105557753D01*
X139784690Y-105531514D01*
X139740406Y-105524500D01*
X139527832Y-105524500D01*
X139483548Y-105531514D01*
X139317879Y-105557753D01*
X139317876Y-105557754D01*
X139181248Y-105602147D01*
X139111409Y-105604142D01*
X139055251Y-105571897D01*
X135121709Y-101638355D01*
X135121707Y-101638352D01*
X135002836Y-101519481D01*
X135002835Y-101519480D01*
X134916023Y-101469360D01*
X134916023Y-101469359D01*
X134916019Y-101469358D01*
X134865904Y-101440423D01*
X134713176Y-101399499D01*
X134555062Y-101399499D01*
X134547466Y-101399499D01*
X134547450Y-101399500D01*
X121300097Y-101399500D01*
X121233058Y-101379815D01*
X121212416Y-101363181D01*
X117487590Y-97638355D01*
X117487588Y-97638352D01*
X117368716Y-97519480D01*
X117368714Y-97519479D01*
X117277443Y-97466784D01*
X117231785Y-97440423D01*
X117079057Y-97399499D01*
X116920943Y-97399499D01*
X116913347Y-97399499D01*
X116913331Y-97399500D01*
X107300098Y-97399500D01*
X107233059Y-97379815D01*
X107212417Y-97363181D01*
X106487590Y-96638355D01*
X106487588Y-96638352D01*
X106368717Y-96519481D01*
X106368716Y-96519480D01*
X106281904Y-96469360D01*
X106281904Y-96469359D01*
X106281900Y-96469358D01*
X106231785Y-96440423D01*
X106079057Y-96399499D01*
X105920943Y-96399499D01*
X105913347Y-96399499D01*
X105913331Y-96399500D01*
X100300097Y-96399500D01*
X100233058Y-96379815D01*
X100212416Y-96363181D01*
X98849233Y-94999998D01*
X108074532Y-94999998D01*
X108074532Y-95000001D01*
X108094364Y-95226686D01*
X108094366Y-95226697D01*
X108153258Y-95446488D01*
X108153261Y-95446497D01*
X108249431Y-95652732D01*
X108249432Y-95652734D01*
X108379954Y-95839141D01*
X108540858Y-96000045D01*
X108540861Y-96000047D01*
X108727266Y-96130568D01*
X108933504Y-96226739D01*
X108933509Y-96226740D01*
X108933511Y-96226741D01*
X108952164Y-96231739D01*
X109153308Y-96285635D01*
X109315230Y-96299801D01*
X109379998Y-96305468D01*
X109380000Y-96305468D01*
X109380002Y-96305468D01*
X109442511Y-96299999D01*
X109606692Y-96285635D01*
X109826496Y-96226739D01*
X110032734Y-96130568D01*
X110219139Y-96000047D01*
X110380047Y-95839139D01*
X110510568Y-95652734D01*
X110606739Y-95446496D01*
X110665635Y-95226692D01*
X110684812Y-95007500D01*
X110685468Y-95000001D01*
X110685468Y-94999998D01*
X115694532Y-94999998D01*
X115694532Y-95000001D01*
X115714364Y-95226686D01*
X115714366Y-95226697D01*
X115773258Y-95446488D01*
X115773261Y-95446497D01*
X115869431Y-95652732D01*
X115869432Y-95652734D01*
X115999954Y-95839141D01*
X116160858Y-96000045D01*
X116160861Y-96000047D01*
X116347266Y-96130568D01*
X116553504Y-96226739D01*
X116553509Y-96226740D01*
X116553511Y-96226741D01*
X116572164Y-96231739D01*
X116773308Y-96285635D01*
X116935230Y-96299801D01*
X116999998Y-96305468D01*
X117000000Y-96305468D01*
X117000002Y-96305468D01*
X117062511Y-96299999D01*
X117226692Y-96285635D01*
X117446496Y-96226739D01*
X117652734Y-96130568D01*
X117839139Y-96000047D01*
X118000047Y-95839139D01*
X118130568Y-95652734D01*
X118226739Y-95446496D01*
X118285635Y-95226692D01*
X118304812Y-95007500D01*
X118305468Y-95000001D01*
X118305468Y-94999998D01*
X118299206Y-94928425D01*
X118285635Y-94773308D01*
X118226739Y-94553504D01*
X118130568Y-94347266D01*
X118000047Y-94160861D01*
X118000045Y-94160858D01*
X117991322Y-94152135D01*
X119509500Y-94152135D01*
X119509500Y-95847870D01*
X119509501Y-95847876D01*
X119515908Y-95907483D01*
X119566202Y-96042328D01*
X119566206Y-96042335D01*
X119652452Y-96157544D01*
X119652455Y-96157547D01*
X119767664Y-96243793D01*
X119767671Y-96243797D01*
X119902517Y-96294091D01*
X119902516Y-96294091D01*
X119909444Y-96294835D01*
X119962127Y-96300500D01*
X121657872Y-96300499D01*
X121717483Y-96294091D01*
X121852331Y-96243796D01*
X121967546Y-96157546D01*
X122053796Y-96042331D01*
X122104091Y-95907483D01*
X122110500Y-95847873D01*
X122110499Y-94152128D01*
X122104091Y-94092517D01*
X122069567Y-93999954D01*
X122053797Y-93957671D01*
X122053793Y-93957664D01*
X121967547Y-93842455D01*
X121967544Y-93842452D01*
X121852335Y-93756206D01*
X121852328Y-93756202D01*
X121717482Y-93705908D01*
X121717483Y-93705908D01*
X121657883Y-93699501D01*
X121657881Y-93699500D01*
X121657873Y-93699500D01*
X121657864Y-93699500D01*
X119962129Y-93699500D01*
X119962123Y-93699501D01*
X119902516Y-93705908D01*
X119767671Y-93756202D01*
X119767664Y-93756206D01*
X119652455Y-93842452D01*
X119652452Y-93842455D01*
X119566206Y-93957664D01*
X119566202Y-93957671D01*
X119515908Y-94092517D01*
X119509501Y-94152116D01*
X119509501Y-94152123D01*
X119509500Y-94152135D01*
X117991322Y-94152135D01*
X117839141Y-93999954D01*
X117652734Y-93869432D01*
X117652732Y-93869431D01*
X117446497Y-93773261D01*
X117446488Y-93773258D01*
X117226697Y-93714366D01*
X117226693Y-93714365D01*
X117226692Y-93714365D01*
X117226691Y-93714364D01*
X117226686Y-93714364D01*
X117000002Y-93694532D01*
X116999998Y-93694532D01*
X116773313Y-93714364D01*
X116773302Y-93714366D01*
X116553511Y-93773258D01*
X116553502Y-93773261D01*
X116347267Y-93869431D01*
X116347265Y-93869432D01*
X116160858Y-93999954D01*
X115999954Y-94160858D01*
X115869432Y-94347265D01*
X115869431Y-94347267D01*
X115773261Y-94553502D01*
X115773258Y-94553511D01*
X115714366Y-94773302D01*
X115714364Y-94773313D01*
X115694532Y-94999998D01*
X110685468Y-94999998D01*
X110679206Y-94928425D01*
X110665635Y-94773308D01*
X110606739Y-94553504D01*
X110510568Y-94347266D01*
X110380047Y-94160861D01*
X110380045Y-94160858D01*
X110219141Y-93999954D01*
X110032734Y-93869432D01*
X110032732Y-93869431D01*
X109826497Y-93773261D01*
X109826488Y-93773258D01*
X109606697Y-93714366D01*
X109606693Y-93714365D01*
X109606692Y-93714365D01*
X109606691Y-93714364D01*
X109606686Y-93714364D01*
X109380002Y-93694532D01*
X109379998Y-93694532D01*
X109153313Y-93714364D01*
X109153302Y-93714366D01*
X108933511Y-93773258D01*
X108933502Y-93773261D01*
X108727267Y-93869431D01*
X108727265Y-93869432D01*
X108540858Y-93999954D01*
X108379954Y-94160858D01*
X108249432Y-94347265D01*
X108249431Y-94347267D01*
X108153261Y-94553502D01*
X108153258Y-94553511D01*
X108094366Y-94773302D01*
X108094364Y-94773313D01*
X108074532Y-94999998D01*
X98849233Y-94999998D01*
X97247590Y-93398355D01*
X97247588Y-93398352D01*
X97128717Y-93279481D01*
X97128716Y-93279480D01*
X97041904Y-93229360D01*
X97041904Y-93229359D01*
X97041900Y-93229358D01*
X96991785Y-93200423D01*
X96839057Y-93159499D01*
X96680943Y-93159499D01*
X96673347Y-93159499D01*
X96673331Y-93159500D01*
X85289091Y-93159500D01*
X85222052Y-93139815D01*
X85176711Y-93087909D01*
X85174037Y-93082175D01*
X85174034Y-93082170D01*
X85174033Y-93082169D01*
X85038495Y-92888599D01*
X85038494Y-92888597D01*
X84871402Y-92721506D01*
X84871396Y-92721501D01*
X84685842Y-92591575D01*
X84642217Y-92536998D01*
X84635023Y-92467500D01*
X84666546Y-92405145D01*
X84685842Y-92388425D01*
X84728578Y-92358501D01*
X84871401Y-92258495D01*
X85038495Y-92091401D01*
X85174035Y-91897830D01*
X85273903Y-91683663D01*
X85335063Y-91455408D01*
X85355659Y-91220000D01*
X85335063Y-90984592D01*
X85273903Y-90756337D01*
X85174035Y-90542171D01*
X85074137Y-90399500D01*
X85038494Y-90348597D01*
X84871402Y-90181506D01*
X84871396Y-90181501D01*
X84685842Y-90051575D01*
X84642217Y-89996998D01*
X84635023Y-89927500D01*
X84666546Y-89865145D01*
X84685842Y-89848425D01*
X84723889Y-89821784D01*
X84871401Y-89718495D01*
X85038495Y-89551401D01*
X85174035Y-89357830D01*
X85176707Y-89352097D01*
X85222878Y-89299658D01*
X85289091Y-89280500D01*
X99379903Y-89280500D01*
X99446942Y-89300185D01*
X99467584Y-89316819D01*
X101515139Y-91364374D01*
X101515149Y-91364385D01*
X101519479Y-91368715D01*
X101519480Y-91368716D01*
X101631284Y-91480520D01*
X101631286Y-91480521D01*
X101631290Y-91480524D01*
X101768209Y-91559573D01*
X101768216Y-91559577D01*
X101880019Y-91589534D01*
X101920942Y-91600500D01*
X101920943Y-91600500D01*
X142110902Y-91600500D01*
X142177941Y-91620185D01*
X142223696Y-91672989D01*
X142233640Y-91742147D01*
X142204615Y-91805703D01*
X142198583Y-91812181D01*
X140302705Y-93708058D01*
X140241382Y-93741543D01*
X140182931Y-93740152D01*
X140086697Y-93714366D01*
X140086693Y-93714365D01*
X140086692Y-93714365D01*
X140086691Y-93714364D01*
X140086686Y-93714364D01*
X139860002Y-93694532D01*
X139859998Y-93694532D01*
X139633313Y-93714364D01*
X139633302Y-93714366D01*
X139413511Y-93773258D01*
X139413502Y-93773261D01*
X139207267Y-93869431D01*
X139207265Y-93869432D01*
X139020858Y-93999954D01*
X138859954Y-94160858D01*
X138729432Y-94347265D01*
X138729431Y-94347267D01*
X138633261Y-94553502D01*
X138633258Y-94553511D01*
X138574366Y-94773302D01*
X138574364Y-94773313D01*
X138554532Y-94999998D01*
X138554532Y-95000001D01*
X138574364Y-95226686D01*
X138574366Y-95226697D01*
X138633258Y-95446488D01*
X138633261Y-95446497D01*
X138729431Y-95652732D01*
X138729432Y-95652734D01*
X138859954Y-95839141D01*
X139020858Y-96000045D01*
X139020861Y-96000047D01*
X139207266Y-96130568D01*
X139413504Y-96226739D01*
X139413509Y-96226740D01*
X139413511Y-96226741D01*
X139432164Y-96231739D01*
X139633308Y-96285635D01*
X139795230Y-96299801D01*
X139859998Y-96305468D01*
X139860000Y-96305468D01*
X139860002Y-96305468D01*
X139922511Y-96299999D01*
X140086692Y-96285635D01*
X140306496Y-96226739D01*
X140512734Y-96130568D01*
X140699139Y-96000047D01*
X140860047Y-95839139D01*
X140990568Y-95652734D01*
X141086739Y-95446496D01*
X141145635Y-95226692D01*
X141164812Y-95007500D01*
X141165031Y-95004998D01*
X143624532Y-95004998D01*
X143624532Y-95005001D01*
X143644364Y-95231686D01*
X143644366Y-95231697D01*
X143703258Y-95451488D01*
X143703261Y-95451497D01*
X143799431Y-95657732D01*
X143799432Y-95657734D01*
X143929954Y-95844141D01*
X144090858Y-96005045D01*
X144090861Y-96005047D01*
X144277266Y-96135568D01*
X144483504Y-96231739D01*
X144483509Y-96231740D01*
X144483511Y-96231741D01*
X144528505Y-96243797D01*
X144703308Y-96290635D01*
X144865230Y-96304801D01*
X144929998Y-96310468D01*
X144930000Y-96310468D01*
X144930002Y-96310468D01*
X144987150Y-96305468D01*
X145156692Y-96290635D01*
X145376496Y-96231739D01*
X145582734Y-96135568D01*
X145769139Y-96005047D01*
X145930047Y-95844139D01*
X146060568Y-95657734D01*
X146156739Y-95451496D01*
X146215635Y-95231692D01*
X146235468Y-95005000D01*
X146235468Y-95004998D01*
X151244532Y-95004998D01*
X151244532Y-95005001D01*
X151264364Y-95231686D01*
X151264366Y-95231697D01*
X151323258Y-95451488D01*
X151323261Y-95451497D01*
X151419431Y-95657732D01*
X151419432Y-95657734D01*
X151549954Y-95844141D01*
X151710858Y-96005045D01*
X151710861Y-96005047D01*
X151897266Y-96135568D01*
X152103504Y-96231739D01*
X152103509Y-96231740D01*
X152103511Y-96231741D01*
X152148505Y-96243797D01*
X152323308Y-96290635D01*
X152485230Y-96304801D01*
X152549998Y-96310468D01*
X152550000Y-96310468D01*
X152550002Y-96310468D01*
X152607150Y-96305468D01*
X152776692Y-96290635D01*
X152996496Y-96231739D01*
X153202734Y-96135568D01*
X153389139Y-96005047D01*
X153550047Y-95844139D01*
X153680568Y-95657734D01*
X153776739Y-95451496D01*
X153835635Y-95231692D01*
X153855468Y-95005000D01*
X153855030Y-94999998D01*
X153835635Y-94778313D01*
X153835635Y-94778308D01*
X153776739Y-94558504D01*
X153680568Y-94352266D01*
X153550047Y-94165861D01*
X153550045Y-94165858D01*
X153536322Y-94152135D01*
X155069500Y-94152135D01*
X155069500Y-95847870D01*
X155069501Y-95847876D01*
X155075908Y-95907483D01*
X155126202Y-96042328D01*
X155126206Y-96042335D01*
X155212452Y-96157544D01*
X155212455Y-96157547D01*
X155327664Y-96243793D01*
X155327671Y-96243797D01*
X155462517Y-96294091D01*
X155462516Y-96294091D01*
X155469444Y-96294835D01*
X155522127Y-96300500D01*
X157217872Y-96300499D01*
X157277483Y-96294091D01*
X157412331Y-96243796D01*
X157527546Y-96157546D01*
X157613796Y-96042331D01*
X157664091Y-95907483D01*
X157670500Y-95847873D01*
X157670499Y-94999998D01*
X162684532Y-94999998D01*
X162684532Y-95000001D01*
X162704364Y-95226686D01*
X162704366Y-95226697D01*
X162763258Y-95446488D01*
X162763261Y-95446497D01*
X162859431Y-95652732D01*
X162859432Y-95652734D01*
X162989954Y-95839141D01*
X163150858Y-96000045D01*
X163150861Y-96000047D01*
X163337266Y-96130568D01*
X163395275Y-96157618D01*
X163447714Y-96203791D01*
X163466866Y-96270984D01*
X163446650Y-96337865D01*
X163395275Y-96382382D01*
X163337267Y-96409431D01*
X163337265Y-96409432D01*
X163150858Y-96539954D01*
X162989954Y-96700858D01*
X162859432Y-96887265D01*
X162859431Y-96887267D01*
X162763261Y-97093502D01*
X162763258Y-97093511D01*
X162704366Y-97313302D01*
X162704364Y-97313313D01*
X162684532Y-97539998D01*
X162684532Y-97540001D01*
X162704364Y-97766686D01*
X162704366Y-97766697D01*
X162763258Y-97986488D01*
X162763261Y-97986497D01*
X162859431Y-98192732D01*
X162859432Y-98192734D01*
X162989954Y-98379141D01*
X163150858Y-98540045D01*
X163178753Y-98559577D01*
X163337266Y-98670568D01*
X163543504Y-98766739D01*
X163763308Y-98825635D01*
X163925230Y-98839801D01*
X163989998Y-98845468D01*
X163990000Y-98845468D01*
X163990002Y-98845468D01*
X164052511Y-98839999D01*
X164216692Y-98825635D01*
X164436496Y-98766739D01*
X164642734Y-98670568D01*
X164829139Y-98540047D01*
X164990047Y-98379139D01*
X165120568Y-98192734D01*
X165216739Y-97986496D01*
X165275635Y-97766692D01*
X165295468Y-97540000D01*
X165288219Y-97457149D01*
X165301985Y-97388652D01*
X165350600Y-97338469D01*
X165418628Y-97322535D01*
X165484472Y-97345910D01*
X165499428Y-97358663D01*
X168363181Y-100222416D01*
X168396666Y-100283739D01*
X168399500Y-100310097D01*
X168399500Y-101913330D01*
X168399499Y-101913348D01*
X168399499Y-102079054D01*
X168399498Y-102079054D01*
X168440424Y-102231789D01*
X168440425Y-102231790D01*
X168460541Y-102266631D01*
X168460542Y-102266632D01*
X168519477Y-102368712D01*
X168519481Y-102368717D01*
X168638349Y-102487585D01*
X168638355Y-102487590D01*
X170515139Y-104364374D01*
X170515149Y-104364385D01*
X170519479Y-104368715D01*
X170519480Y-104368716D01*
X170631284Y-104480520D01*
X170718095Y-104530639D01*
X170718097Y-104530641D01*
X170756151Y-104552611D01*
X170768215Y-104559577D01*
X170920943Y-104600500D01*
X172699903Y-104600500D01*
X172766942Y-104620185D01*
X172787584Y-104636819D01*
X173878068Y-105727303D01*
X173911553Y-105788626D01*
X173906569Y-105858318D01*
X173895926Y-105880080D01*
X173849308Y-105955659D01*
X173849304Y-105955668D01*
X173834630Y-105999953D01*
X173794120Y-106122203D01*
X173794120Y-106122204D01*
X173794119Y-106122204D01*
X173783619Y-106224983D01*
X173783619Y-107775001D01*
X173783620Y-107775018D01*
X173794119Y-107877796D01*
X173794120Y-107877799D01*
X173834629Y-108000045D01*
X173849305Y-108044334D01*
X173941407Y-108193656D01*
X174065463Y-108317712D01*
X174214785Y-108409814D01*
X174381322Y-108464999D01*
X174484110Y-108475500D01*
X175784127Y-108475499D01*
X175886916Y-108464999D01*
X176053453Y-108409814D01*
X176202775Y-108317712D01*
X176326831Y-108193656D01*
X176418933Y-108044334D01*
X176474118Y-107877797D01*
X176484619Y-107775009D01*
X176484618Y-106224992D01*
X176482063Y-106199983D01*
X203149500Y-106199983D01*
X203149500Y-107800001D01*
X203149501Y-107800018D01*
X203160000Y-107902796D01*
X203160001Y-107902799D01*
X203215185Y-108069331D01*
X203215187Y-108069336D01*
X203234409Y-108100500D01*
X203307288Y-108218656D01*
X203431344Y-108342712D01*
X203580666Y-108434814D01*
X203747203Y-108489999D01*
X203849991Y-108500500D01*
X205150008Y-108500499D01*
X205252797Y-108489999D01*
X205419334Y-108434814D01*
X205568656Y-108342712D01*
X205692712Y-108218656D01*
X205784814Y-108069334D01*
X205839999Y-107902797D01*
X205850500Y-107800009D01*
X205850499Y-106199992D01*
X205839999Y-106097203D01*
X205784814Y-105930666D01*
X205692712Y-105781344D01*
X205568656Y-105657288D01*
X205457293Y-105588599D01*
X205419336Y-105565187D01*
X205419331Y-105565185D01*
X205417862Y-105564698D01*
X205252797Y-105510001D01*
X205252795Y-105510000D01*
X205150010Y-105499500D01*
X203849998Y-105499500D01*
X203849981Y-105499501D01*
X203747203Y-105510000D01*
X203747200Y-105510001D01*
X203580668Y-105565185D01*
X203580663Y-105565187D01*
X203431342Y-105657289D01*
X203307289Y-105781342D01*
X203215187Y-105930663D01*
X203215185Y-105930668D01*
X203192226Y-105999954D01*
X203160001Y-106097203D01*
X203160001Y-106097204D01*
X203160000Y-106097204D01*
X203149500Y-106199983D01*
X176482063Y-106199983D01*
X176474118Y-106122203D01*
X176418933Y-105955666D01*
X176326831Y-105806344D01*
X176202775Y-105682288D01*
X176107372Y-105623443D01*
X176053455Y-105590187D01*
X176053450Y-105590185D01*
X176048658Y-105588597D01*
X175886916Y-105535001D01*
X175886914Y-105535000D01*
X175784135Y-105524500D01*
X175784128Y-105524500D01*
X175425097Y-105524500D01*
X175358058Y-105504815D01*
X175337416Y-105488181D01*
X173487590Y-103638355D01*
X173487588Y-103638352D01*
X173368717Y-103519481D01*
X173368716Y-103519480D01*
X173281904Y-103469360D01*
X173281904Y-103469359D01*
X173281900Y-103469358D01*
X173231785Y-103440423D01*
X173148647Y-103418146D01*
X185547000Y-103418146D01*
X185547000Y-103741853D01*
X185582778Y-103967746D01*
X185582778Y-103967749D01*
X185653450Y-104185255D01*
X185653452Y-104185258D01*
X185757283Y-104389038D01*
X185891714Y-104574066D01*
X186053434Y-104735786D01*
X186238462Y-104870217D01*
X186442242Y-104974048D01*
X186442244Y-104974049D01*
X186659751Y-105044721D01*
X186659752Y-105044721D01*
X186659755Y-105044722D01*
X186885646Y-105080500D01*
X186885647Y-105080500D01*
X187114353Y-105080500D01*
X187114354Y-105080500D01*
X187340245Y-105044722D01*
X187340248Y-105044721D01*
X187340249Y-105044721D01*
X187557755Y-104974049D01*
X187557755Y-104974048D01*
X187557758Y-104974048D01*
X187761538Y-104870217D01*
X187946566Y-104735786D01*
X188108286Y-104574066D01*
X188242717Y-104389038D01*
X188346548Y-104185258D01*
X188356247Y-104155408D01*
X188417221Y-103967749D01*
X188417221Y-103967748D01*
X188417222Y-103967745D01*
X188453000Y-103741854D01*
X188453000Y-103418146D01*
X188417222Y-103192255D01*
X188417221Y-103192251D01*
X188417221Y-103192250D01*
X188346549Y-102974744D01*
X188242716Y-102770961D01*
X188228631Y-102751575D01*
X188108286Y-102585934D01*
X188054487Y-102532135D01*
X190627000Y-102532135D01*
X190627000Y-104627870D01*
X190627001Y-104627876D01*
X190633408Y-104687483D01*
X190683702Y-104822328D01*
X190683706Y-104822335D01*
X190769952Y-104937544D01*
X190769955Y-104937547D01*
X190885164Y-105023793D01*
X190885171Y-105023797D01*
X191020017Y-105074091D01*
X191020016Y-105074091D01*
X191026944Y-105074835D01*
X191079627Y-105080500D01*
X193080372Y-105080499D01*
X193139983Y-105074091D01*
X193274831Y-105023796D01*
X193390046Y-104937546D01*
X193476296Y-104822331D01*
X193526591Y-104687483D01*
X193533000Y-104627873D01*
X193532999Y-102532128D01*
X193526591Y-102472517D01*
X193506443Y-102418498D01*
X193476297Y-102337671D01*
X193476293Y-102337664D01*
X193390047Y-102222455D01*
X193390044Y-102222452D01*
X193274835Y-102136206D01*
X193274828Y-102136202D01*
X193139982Y-102085908D01*
X193139983Y-102085908D01*
X193080383Y-102079501D01*
X193080381Y-102079500D01*
X193080373Y-102079500D01*
X193080364Y-102079500D01*
X191079629Y-102079500D01*
X191079623Y-102079501D01*
X191020016Y-102085908D01*
X190885171Y-102136202D01*
X190885164Y-102136206D01*
X190769955Y-102222452D01*
X190769952Y-102222455D01*
X190683706Y-102337664D01*
X190683702Y-102337671D01*
X190633408Y-102472517D01*
X190627282Y-102529500D01*
X190627001Y-102532123D01*
X190627000Y-102532135D01*
X188054487Y-102532135D01*
X187946566Y-102424214D01*
X187761538Y-102289783D01*
X187686209Y-102251401D01*
X187557755Y-102185950D01*
X187340248Y-102115278D01*
X187154812Y-102085908D01*
X187114354Y-102079500D01*
X186885646Y-102079500D01*
X186845188Y-102085908D01*
X186659753Y-102115278D01*
X186659750Y-102115278D01*
X186442244Y-102185950D01*
X186238461Y-102289783D01*
X186135781Y-102364385D01*
X186053434Y-102424214D01*
X186053432Y-102424216D01*
X186053431Y-102424216D01*
X185891716Y-102585931D01*
X185891716Y-102585932D01*
X185891714Y-102585934D01*
X185854744Y-102636819D01*
X185757283Y-102770961D01*
X185653450Y-102974744D01*
X185582778Y-103192250D01*
X185582778Y-103192253D01*
X185547000Y-103418146D01*
X173148647Y-103418146D01*
X173079057Y-103399499D01*
X172920943Y-103399499D01*
X172913347Y-103399499D01*
X172913331Y-103399500D01*
X171300097Y-103399500D01*
X171233058Y-103379815D01*
X171212416Y-103363181D01*
X169636819Y-101787584D01*
X169603334Y-101726261D01*
X169600500Y-101699903D01*
X169600500Y-100099059D01*
X169600501Y-100099046D01*
X169600501Y-99930945D01*
X169600501Y-99930943D01*
X169559577Y-99778215D01*
X169521002Y-99711401D01*
X169480520Y-99641284D01*
X169368716Y-99529480D01*
X169368715Y-99529479D01*
X169364385Y-99525149D01*
X169364374Y-99525139D01*
X165281941Y-95442706D01*
X165248456Y-95381383D01*
X165249847Y-95322931D01*
X165266306Y-95261506D01*
X165275635Y-95226692D01*
X165294812Y-95007500D01*
X165295468Y-95000001D01*
X165295468Y-94999998D01*
X165289206Y-94928425D01*
X165275635Y-94773308D01*
X165216739Y-94553504D01*
X165120568Y-94347266D01*
X164990047Y-94160861D01*
X164990045Y-94160858D01*
X164829141Y-93999954D01*
X164642734Y-93869432D01*
X164642732Y-93869431D01*
X164436497Y-93773261D01*
X164436488Y-93773258D01*
X164216697Y-93714366D01*
X164216693Y-93714365D01*
X164216692Y-93714365D01*
X164216691Y-93714364D01*
X164216686Y-93714364D01*
X163990002Y-93694532D01*
X163989998Y-93694532D01*
X163763313Y-93714364D01*
X163763302Y-93714366D01*
X163543511Y-93773258D01*
X163543502Y-93773261D01*
X163337267Y-93869431D01*
X163337265Y-93869432D01*
X163150858Y-93999954D01*
X162989954Y-94160858D01*
X162859432Y-94347265D01*
X162859431Y-94347267D01*
X162763261Y-94553502D01*
X162763258Y-94553511D01*
X162704366Y-94773302D01*
X162704364Y-94773313D01*
X162684532Y-94999998D01*
X157670499Y-94999998D01*
X157670499Y-94152128D01*
X157664091Y-94092517D01*
X157629567Y-93999954D01*
X157613797Y-93957671D01*
X157613793Y-93957664D01*
X157527547Y-93842455D01*
X157527544Y-93842452D01*
X157412335Y-93756206D01*
X157412328Y-93756202D01*
X157277482Y-93705908D01*
X157277483Y-93705908D01*
X157217883Y-93699501D01*
X157217881Y-93699500D01*
X157217873Y-93699500D01*
X157217864Y-93699500D01*
X155522129Y-93699500D01*
X155522123Y-93699501D01*
X155462516Y-93705908D01*
X155327671Y-93756202D01*
X155327664Y-93756206D01*
X155212455Y-93842452D01*
X155212452Y-93842455D01*
X155126206Y-93957664D01*
X155126202Y-93957671D01*
X155075908Y-94092517D01*
X155069501Y-94152116D01*
X155069501Y-94152123D01*
X155069500Y-94152135D01*
X153536322Y-94152135D01*
X153389141Y-94004954D01*
X153202734Y-93874432D01*
X153202732Y-93874431D01*
X152996497Y-93778261D01*
X152996488Y-93778258D01*
X152776697Y-93719366D01*
X152776693Y-93719365D01*
X152776692Y-93719365D01*
X152776691Y-93719364D01*
X152776686Y-93719364D01*
X152550002Y-93699532D01*
X152549998Y-93699532D01*
X152323313Y-93719364D01*
X152323302Y-93719366D01*
X152103511Y-93778258D01*
X152103502Y-93778261D01*
X151897267Y-93874431D01*
X151897265Y-93874432D01*
X151710858Y-94004954D01*
X151549954Y-94165858D01*
X151419432Y-94352265D01*
X151419431Y-94352267D01*
X151323261Y-94558502D01*
X151323258Y-94558511D01*
X151264366Y-94778302D01*
X151264364Y-94778313D01*
X151244532Y-95004998D01*
X146235468Y-95004998D01*
X146235030Y-94999998D01*
X146215635Y-94778313D01*
X146215635Y-94778308D01*
X146156739Y-94558504D01*
X146060568Y-94352266D01*
X145930047Y-94165861D01*
X145930045Y-94165858D01*
X145769141Y-94004954D01*
X145582734Y-93874432D01*
X145582732Y-93874431D01*
X145376497Y-93778261D01*
X145376488Y-93778258D01*
X145156697Y-93719366D01*
X145156693Y-93719365D01*
X145156692Y-93719365D01*
X145156691Y-93719364D01*
X145156686Y-93719364D01*
X144930002Y-93699532D01*
X144929998Y-93699532D01*
X144703313Y-93719364D01*
X144703302Y-93719366D01*
X144483511Y-93778258D01*
X144483502Y-93778261D01*
X144277267Y-93874431D01*
X144277265Y-93874432D01*
X144090858Y-94004954D01*
X143929954Y-94165858D01*
X143799432Y-94352265D01*
X143799431Y-94352267D01*
X143703261Y-94558502D01*
X143703258Y-94558511D01*
X143644366Y-94778302D01*
X143644364Y-94778313D01*
X143624532Y-95004998D01*
X141165031Y-95004998D01*
X141165468Y-95000001D01*
X141165468Y-94999998D01*
X141159206Y-94928425D01*
X141145635Y-94773308D01*
X141119847Y-94677066D01*
X141121510Y-94607217D01*
X141151939Y-94557294D01*
X143072417Y-92636819D01*
X143133740Y-92603334D01*
X143160098Y-92600500D01*
X162913331Y-92600500D01*
X162913347Y-92600501D01*
X162920943Y-92600501D01*
X163079054Y-92600501D01*
X163079057Y-92600501D01*
X163231785Y-92559577D01*
X163281904Y-92530639D01*
X163368716Y-92480520D01*
X163480520Y-92368716D01*
X163480520Y-92368714D01*
X163490728Y-92358507D01*
X163490729Y-92358504D01*
X166480520Y-89368716D01*
X166559577Y-89231784D01*
X166600501Y-89079057D01*
X166600501Y-88920942D01*
X166600501Y-88913347D01*
X166600500Y-88913329D01*
X166600500Y-86508713D01*
X168973619Y-86508713D01*
X168973619Y-87021286D01*
X169003745Y-87211497D01*
X169006873Y-87231243D01*
X169067467Y-87417732D01*
X169072563Y-87433414D01*
X169169070Y-87622820D01*
X169294009Y-87794786D01*
X169444332Y-87945109D01*
X169616298Y-88070048D01*
X169616300Y-88070049D01*
X169616303Y-88070051D01*
X169805707Y-88166557D01*
X170007876Y-88232246D01*
X170217832Y-88265500D01*
X170217833Y-88265500D01*
X170430405Y-88265500D01*
X170430406Y-88265500D01*
X170640362Y-88232246D01*
X170842531Y-88166557D01*
X171031935Y-88070051D01*
X171125359Y-88002175D01*
X171203903Y-87945110D01*
X171203903Y-87945109D01*
X171203911Y-87945104D01*
X171342723Y-87806291D01*
X171404042Y-87772809D01*
X171473734Y-87777793D01*
X171529668Y-87819664D01*
X171535940Y-87828878D01*
X171539304Y-87834333D01*
X171539305Y-87834334D01*
X171631407Y-87983656D01*
X171755463Y-88107712D01*
X171904785Y-88199814D01*
X172071322Y-88254999D01*
X172174110Y-88265500D01*
X173474127Y-88265499D01*
X173576916Y-88254999D01*
X173743453Y-88199814D01*
X173892775Y-88107712D01*
X174016831Y-87983656D01*
X174108933Y-87834334D01*
X174164118Y-87667797D01*
X174174619Y-87565009D01*
X174174618Y-85964992D01*
X174168448Y-85904596D01*
X174164118Y-85862203D01*
X174164117Y-85862200D01*
X174108933Y-85695666D01*
X174016831Y-85546344D01*
X173892775Y-85422288D01*
X173743453Y-85330186D01*
X173576916Y-85275001D01*
X173576914Y-85275000D01*
X173474129Y-85264500D01*
X172174117Y-85264500D01*
X172174100Y-85264501D01*
X172071322Y-85275000D01*
X172071319Y-85275001D01*
X171904787Y-85330185D01*
X171904782Y-85330187D01*
X171755461Y-85422289D01*
X171631408Y-85546342D01*
X171535940Y-85701121D01*
X171483992Y-85747845D01*
X171415029Y-85759068D01*
X171350947Y-85731224D01*
X171342720Y-85723705D01*
X171203905Y-85584890D01*
X171031939Y-85459951D01*
X170842533Y-85363444D01*
X170842532Y-85363443D01*
X170842531Y-85363443D01*
X170640362Y-85297754D01*
X170640360Y-85297753D01*
X170640359Y-85297753D01*
X170479076Y-85272208D01*
X170430406Y-85264500D01*
X170217832Y-85264500D01*
X170169161Y-85272208D01*
X170007879Y-85297753D01*
X169805704Y-85363444D01*
X169616298Y-85459951D01*
X169444332Y-85584890D01*
X169294009Y-85735213D01*
X169169070Y-85907179D01*
X169072563Y-86096585D01*
X169006872Y-86298760D01*
X168973619Y-86508713D01*
X166600500Y-86508713D01*
X166600500Y-84089059D01*
X166600501Y-84089046D01*
X166600501Y-83920945D01*
X166600501Y-83920943D01*
X166559577Y-83768215D01*
X166534073Y-83724043D01*
X166519350Y-83698540D01*
X166519349Y-83698539D01*
X166480521Y-83631286D01*
X166480520Y-83631284D01*
X166368716Y-83519480D01*
X166368715Y-83519479D01*
X166364385Y-83515149D01*
X166364374Y-83515139D01*
X152636819Y-69787584D01*
X152603334Y-69726261D01*
X152600500Y-69699903D01*
X152600500Y-64920943D01*
X152600499Y-64920939D01*
X152589426Y-64879613D01*
X152583856Y-64858826D01*
X152559577Y-64768215D01*
X152530639Y-64718095D01*
X152480520Y-64631284D01*
X152368716Y-64519480D01*
X152368715Y-64519479D01*
X152364385Y-64515149D01*
X152364374Y-64515139D01*
X148852590Y-61003355D01*
X148852588Y-61003352D01*
X148733717Y-60884481D01*
X148733716Y-60884480D01*
X148646904Y-60834360D01*
X148646904Y-60834359D01*
X148646900Y-60834358D01*
X148596785Y-60805423D01*
X148444057Y-60764499D01*
X148285943Y-60764499D01*
X148278347Y-60764499D01*
X148278331Y-60764500D01*
X146058618Y-60764500D01*
X145991579Y-60744815D01*
X145945824Y-60692011D01*
X145934618Y-60640500D01*
X145934618Y-60364629D01*
X145934617Y-60364623D01*
X145934616Y-60364616D01*
X145928210Y-60305017D01*
X145877915Y-60170169D01*
X145877914Y-60170168D01*
X145877912Y-60170164D01*
X145791666Y-60054955D01*
X145791663Y-60054952D01*
X145676454Y-59968706D01*
X145676447Y-59968702D01*
X145541601Y-59918408D01*
X145541602Y-59918408D01*
X145482002Y-59912001D01*
X145482000Y-59912000D01*
X145481992Y-59912000D01*
X145481983Y-59912000D01*
X143386248Y-59912000D01*
X143386242Y-59912001D01*
X143326635Y-59918408D01*
X143191790Y-59968702D01*
X143191783Y-59968706D01*
X143076574Y-60054952D01*
X143076571Y-60054955D01*
X142990325Y-60170164D01*
X142990321Y-60170171D01*
X142940027Y-60305017D01*
X142933620Y-60364616D01*
X142933620Y-60364623D01*
X142933619Y-60364635D01*
X142933619Y-62365370D01*
X142933620Y-62365376D01*
X142940027Y-62424983D01*
X142963221Y-62487167D01*
X142968205Y-62556858D01*
X142934720Y-62618182D01*
X142873397Y-62651666D01*
X142847039Y-62654500D01*
X116021199Y-62654500D01*
X115954160Y-62634815D01*
X115908405Y-62582011D01*
X115898461Y-62512853D01*
X115905017Y-62487167D01*
X115928210Y-62424982D01*
X115934619Y-62365373D01*
X115934618Y-60364628D01*
X115928210Y-60305017D01*
X115877915Y-60170169D01*
X115877914Y-60170168D01*
X115877912Y-60170164D01*
X115791666Y-60054955D01*
X115791663Y-60054952D01*
X115676454Y-59968706D01*
X115676447Y-59968702D01*
X115541601Y-59918408D01*
X115541602Y-59918408D01*
X115482002Y-59912001D01*
X115482000Y-59912000D01*
X115481992Y-59912000D01*
X115481983Y-59912000D01*
X113386248Y-59912000D01*
X113386242Y-59912001D01*
X113326635Y-59918408D01*
X113191790Y-59968702D01*
X113191783Y-59968706D01*
X113076574Y-60054952D01*
X113076571Y-60054955D01*
X112990325Y-60170164D01*
X112990321Y-60170171D01*
X112940027Y-60305017D01*
X112933620Y-60364616D01*
X112933620Y-60364623D01*
X112933619Y-60364635D01*
X112933619Y-61730783D01*
X112913934Y-61797822D01*
X112861130Y-61843577D01*
X112791972Y-61853521D01*
X112728416Y-61824496D01*
X112721938Y-61818464D01*
X112656819Y-61753345D01*
X112623334Y-61692022D01*
X112620500Y-61665664D01*
X112620500Y-45024336D01*
X112640185Y-44957297D01*
X112656819Y-44936655D01*
X113199267Y-44394207D01*
X113754104Y-43839369D01*
X113815425Y-43805886D01*
X113885117Y-43810870D01*
X113916089Y-43827782D01*
X114095685Y-43962226D01*
X114095689Y-43962228D01*
X114095690Y-43962229D01*
X114346833Y-44099364D01*
X114346832Y-44099364D01*
X114346836Y-44099365D01*
X114346839Y-44099367D01*
X114614954Y-44199369D01*
X114614960Y-44199370D01*
X114614962Y-44199371D01*
X114894566Y-44260195D01*
X114894568Y-44260195D01*
X114894572Y-44260196D01*
X115148220Y-44278337D01*
X115179999Y-44280610D01*
X115180000Y-44280610D01*
X115180001Y-44280610D01*
X115208595Y-44278564D01*
X115465428Y-44260196D01*
X115655742Y-44218796D01*
X115745037Y-44199371D01*
X115745037Y-44199370D01*
X115745046Y-44199369D01*
X116013161Y-44099367D01*
X116264315Y-43962226D01*
X116493395Y-43790739D01*
X116695739Y-43588395D01*
X116867226Y-43359315D01*
X117004367Y-43108161D01*
X117104369Y-42840046D01*
X117165196Y-42560428D01*
X117185610Y-42275000D01*
X117165196Y-41989572D01*
X117104369Y-41709954D01*
X117004367Y-41441839D01*
X116929734Y-41305160D01*
X116867229Y-41190690D01*
X116867224Y-41190682D01*
X116695745Y-40961612D01*
X116695729Y-40961594D01*
X116493405Y-40759270D01*
X116493387Y-40759254D01*
X116450481Y-40727135D01*
X118259500Y-40727135D01*
X118259500Y-43822870D01*
X118259501Y-43822876D01*
X118265908Y-43882483D01*
X118316202Y-44017328D01*
X118316206Y-44017335D01*
X118402452Y-44132544D01*
X118402455Y-44132547D01*
X118517664Y-44218793D01*
X118517671Y-44218797D01*
X118652517Y-44269091D01*
X118652516Y-44269091D01*
X118659444Y-44269835D01*
X118712127Y-44275500D01*
X121807872Y-44275499D01*
X121867483Y-44269091D01*
X122002331Y-44218796D01*
X122117546Y-44132546D01*
X122203796Y-44017331D01*
X122254091Y-43882483D01*
X122260500Y-43822873D01*
X122260500Y-43649500D01*
X122280185Y-43582461D01*
X122332989Y-43536706D01*
X122384500Y-43525500D01*
X142858422Y-43525500D01*
X143052826Y-43494709D01*
X143240026Y-43433884D01*
X143415405Y-43344524D01*
X143574646Y-43228828D01*
X151221655Y-35581819D01*
X151282978Y-35548334D01*
X151309336Y-35545500D01*
X175570664Y-35545500D01*
X175637703Y-35565185D01*
X175658345Y-35581819D01*
X181203181Y-41126655D01*
X181236666Y-41187978D01*
X181239500Y-41214336D01*
X181239500Y-45857526D01*
X181219815Y-45924565D01*
X181167011Y-45970320D01*
X181097853Y-45980264D01*
X181034297Y-45951239D01*
X181027819Y-45945207D01*
X179476819Y-44394207D01*
X179443334Y-44332884D01*
X179440500Y-44306526D01*
X179440500Y-42112860D01*
X179408715Y-41790142D01*
X179408714Y-41790141D01*
X179408714Y-41790132D01*
X179358981Y-41540106D01*
X179345454Y-41472097D01*
X179345451Y-41472086D01*
X179345450Y-41472083D01*
X179345449Y-41472077D01*
X179251314Y-41161754D01*
X179127215Y-40862153D01*
X179055042Y-40727128D01*
X178974353Y-40576169D01*
X178974352Y-40576167D01*
X178974347Y-40576158D01*
X178794183Y-40306524D01*
X178588458Y-40055847D01*
X178588457Y-40055846D01*
X178588453Y-40055841D01*
X178359158Y-39826546D01*
X178108481Y-39620821D01*
X178108467Y-39620810D01*
X177945609Y-39511991D01*
X177900804Y-39458378D01*
X177890500Y-39408889D01*
X177890500Y-39260272D01*
X177890499Y-39260258D01*
X177889057Y-39249312D01*
X177860548Y-39032762D01*
X177801158Y-38811113D01*
X177713344Y-38599112D01*
X177598611Y-38400388D01*
X177598608Y-38400385D01*
X177598607Y-38400382D01*
X177458918Y-38218338D01*
X177296661Y-38056081D01*
X176981308Y-37740728D01*
X176026666Y-36786084D01*
X176026659Y-36786078D01*
X175931830Y-36713314D01*
X175931828Y-36713312D01*
X175844611Y-36646388D01*
X175645891Y-36531657D01*
X175645881Y-36531652D01*
X175433896Y-36443845D01*
X175433889Y-36443843D01*
X175433890Y-36443843D01*
X175433887Y-36443842D01*
X175389572Y-36431968D01*
X175389571Y-36431967D01*
X175249716Y-36394494D01*
X175212239Y-36384452D01*
X175212233Y-36384451D01*
X175212232Y-36384451D01*
X175202362Y-36383151D01*
X175185771Y-36380967D01*
X175185770Y-36380966D01*
X174984744Y-36354501D01*
X174984739Y-36354500D01*
X174984734Y-36354500D01*
X155705266Y-36354500D01*
X155705260Y-36354500D01*
X155705255Y-36354501D01*
X155504228Y-36380966D01*
X155504228Y-36380967D01*
X155500215Y-36381495D01*
X155477763Y-36384451D01*
X155300428Y-36431967D01*
X155300428Y-36431968D01*
X155256113Y-36443842D01*
X155256111Y-36443842D01*
X155256110Y-36443843D01*
X155256103Y-36443845D01*
X155044118Y-36531652D01*
X155044108Y-36531657D01*
X154845390Y-36646387D01*
X154845387Y-36646390D01*
X154663339Y-36786079D01*
X154663332Y-36786085D01*
X151961084Y-39488333D01*
X151961078Y-39488340D01*
X151903322Y-39563611D01*
X151866294Y-39611865D01*
X151821385Y-39670392D01*
X151731808Y-39825547D01*
X151731808Y-39825548D01*
X151706656Y-39869111D01*
X151706654Y-39869115D01*
X151618845Y-40081103D01*
X151618842Y-40081113D01*
X151567025Y-40274499D01*
X151567020Y-40274517D01*
X151566487Y-40276505D01*
X151530113Y-40336160D01*
X151521029Y-40343660D01*
X151422452Y-40417455D01*
X151336206Y-40532664D01*
X151336202Y-40532671D01*
X151285908Y-40667517D01*
X151279501Y-40727116D01*
X151279501Y-40727123D01*
X151279500Y-40727135D01*
X151279500Y-43822870D01*
X151279501Y-43822876D01*
X151285908Y-43882483D01*
X151336202Y-44017328D01*
X151336206Y-44017335D01*
X151422452Y-44132544D01*
X151422455Y-44132547D01*
X151537664Y-44218793D01*
X151537671Y-44218797D01*
X151672517Y-44269091D01*
X151672516Y-44269091D01*
X151679444Y-44269835D01*
X151732127Y-44275500D01*
X154827872Y-44275499D01*
X154887483Y-44269091D01*
X155022331Y-44218796D01*
X155137546Y-44132546D01*
X155223796Y-44017331D01*
X155274091Y-43882483D01*
X155280500Y-43822873D01*
X155280499Y-41171442D01*
X155300184Y-41104404D01*
X155316818Y-41083762D01*
X156508762Y-39891819D01*
X156570085Y-39858334D01*
X156596443Y-39855500D01*
X173593787Y-39855500D01*
X173660826Y-39875185D01*
X173706581Y-39927989D01*
X173716525Y-39997147D01*
X173689640Y-40058165D01*
X173485821Y-40306518D01*
X173485811Y-40306532D01*
X173305657Y-40576151D01*
X173305646Y-40576169D01*
X173152788Y-40862145D01*
X173152786Y-40862150D01*
X173076825Y-41045537D01*
X173047590Y-41116117D01*
X173028684Y-41161759D01*
X173008339Y-41228826D01*
X172970041Y-41287265D01*
X172906229Y-41315721D01*
X172837162Y-41305160D01*
X172784769Y-41258935D01*
X172780847Y-41252256D01*
X172747232Y-41190695D01*
X172747224Y-41190682D01*
X172575745Y-40961612D01*
X172575729Y-40961594D01*
X172373405Y-40759270D01*
X172373387Y-40759254D01*
X172144317Y-40587775D01*
X172144309Y-40587770D01*
X171893166Y-40450635D01*
X171893167Y-40450635D01*
X171785915Y-40410632D01*
X171625046Y-40350631D01*
X171625043Y-40350630D01*
X171625037Y-40350628D01*
X171345433Y-40289804D01*
X171060001Y-40269390D01*
X171059999Y-40269390D01*
X170774566Y-40289804D01*
X170494962Y-40350628D01*
X170226833Y-40450635D01*
X169975690Y-40587770D01*
X169975682Y-40587775D01*
X169746612Y-40759254D01*
X169746594Y-40759270D01*
X169544270Y-40961594D01*
X169544254Y-40961612D01*
X169372775Y-41190682D01*
X169372770Y-41190690D01*
X169235635Y-41441833D01*
X169135628Y-41709962D01*
X169074804Y-41989566D01*
X169054390Y-42274998D01*
X169054390Y-42275001D01*
X169074804Y-42560433D01*
X169135628Y-42840037D01*
X169135630Y-42840043D01*
X169135631Y-42840046D01*
X169235633Y-43108161D01*
X169294332Y-43215660D01*
X169309500Y-43275085D01*
X169309500Y-48379741D01*
X169334446Y-48569215D01*
X169339452Y-48607238D01*
X169339453Y-48607240D01*
X169398842Y-48828887D01*
X169486650Y-49040876D01*
X169486657Y-49040891D01*
X169595238Y-49228958D01*
X169601389Y-49239612D01*
X169671235Y-49330636D01*
X169741082Y-49421663D01*
X169741086Y-49421668D01*
X185543333Y-65223915D01*
X185543340Y-65223921D01*
X185634363Y-65293765D01*
X185671448Y-65322221D01*
X185725392Y-65363614D01*
X185924108Y-65478342D01*
X185924123Y-65478349D01*
X186002429Y-65510784D01*
X186136113Y-65566158D01*
X186357761Y-65625548D01*
X186384223Y-65629031D01*
X186384227Y-65629033D01*
X186384228Y-65629032D01*
X186561552Y-65652378D01*
X186585266Y-65655500D01*
X186585273Y-65655500D01*
X204548846Y-65655500D01*
X204548853Y-65655500D01*
X204776357Y-65625548D01*
X204998006Y-65566158D01*
X205210007Y-65478344D01*
X205408731Y-65363611D01*
X205590780Y-65223919D01*
X205590784Y-65223914D01*
X205590789Y-65223911D01*
X205753030Y-65061670D01*
X205753033Y-65061665D01*
X205753038Y-65061661D01*
X205797125Y-65004205D01*
X205853553Y-64963004D01*
X205923299Y-64958849D01*
X205984219Y-64993062D01*
X206016971Y-65054779D01*
X206019500Y-65079693D01*
X206019500Y-69554903D01*
X205999815Y-69621942D01*
X205983181Y-69642584D01*
X205137584Y-70488181D01*
X205076261Y-70521666D01*
X205049903Y-70524500D01*
X178134500Y-70524500D01*
X178067461Y-70504815D01*
X178021706Y-70452011D01*
X178010500Y-70400500D01*
X178010500Y-63594059D01*
X178010501Y-63594046D01*
X178010501Y-63425945D01*
X178010501Y-63425943D01*
X177969577Y-63273215D01*
X177920856Y-63188828D01*
X177890520Y-63136284D01*
X177778716Y-63024480D01*
X177774385Y-63020149D01*
X177774374Y-63020139D01*
X175970937Y-61216702D01*
X175937452Y-61155379D01*
X175934618Y-61129021D01*
X175934618Y-60364629D01*
X175934617Y-60364623D01*
X175934616Y-60364616D01*
X175928210Y-60305017D01*
X175877915Y-60170169D01*
X175877914Y-60170168D01*
X175877912Y-60170164D01*
X175791666Y-60054955D01*
X175791663Y-60054952D01*
X175676454Y-59968706D01*
X175676447Y-59968702D01*
X175541601Y-59918408D01*
X175541602Y-59918408D01*
X175482002Y-59912001D01*
X175482000Y-59912000D01*
X175481992Y-59912000D01*
X175481983Y-59912000D01*
X173386248Y-59912000D01*
X173386242Y-59912001D01*
X173326635Y-59918408D01*
X173191790Y-59968702D01*
X173191783Y-59968706D01*
X173076574Y-60054952D01*
X173076571Y-60054955D01*
X172990325Y-60170164D01*
X172990321Y-60170171D01*
X172940027Y-60305017D01*
X172933620Y-60364616D01*
X172933619Y-60364627D01*
X172933619Y-61216702D01*
X172933620Y-62030500D01*
X172913935Y-62097539D01*
X172861132Y-62143294D01*
X172809620Y-62154500D01*
X162076443Y-62154500D01*
X162009404Y-62134815D01*
X161988762Y-62118181D01*
X149986819Y-50116238D01*
X149953334Y-50054915D01*
X149950500Y-50028557D01*
X149950500Y-43275085D01*
X149965667Y-43215660D01*
X150024367Y-43108161D01*
X150124369Y-42840046D01*
X150185196Y-42560428D01*
X150205610Y-42275000D01*
X150185196Y-41989572D01*
X150124369Y-41709954D01*
X150024367Y-41441839D01*
X149949734Y-41305160D01*
X149887229Y-41190690D01*
X149887224Y-41190682D01*
X149715745Y-40961612D01*
X149715729Y-40961594D01*
X149513405Y-40759270D01*
X149513387Y-40759254D01*
X149284317Y-40587775D01*
X149284309Y-40587770D01*
X149033166Y-40450635D01*
X149033167Y-40450635D01*
X148925915Y-40410632D01*
X148765046Y-40350631D01*
X148765043Y-40350630D01*
X148765037Y-40350628D01*
X148485433Y-40289804D01*
X148200001Y-40269390D01*
X148199999Y-40269390D01*
X147914566Y-40289804D01*
X147634962Y-40350628D01*
X147366833Y-40450635D01*
X147115690Y-40587770D01*
X147115682Y-40587775D01*
X146886612Y-40759254D01*
X146886594Y-40759270D01*
X146684270Y-40961594D01*
X146684254Y-40961612D01*
X146512775Y-41190682D01*
X146512770Y-41190690D01*
X146375635Y-41441833D01*
X146275628Y-41709962D01*
X146214804Y-41989566D01*
X146194390Y-42274998D01*
X146194390Y-42275001D01*
X146214804Y-42560433D01*
X146275628Y-42840037D01*
X146275630Y-42840043D01*
X146275631Y-42840046D01*
X146375633Y-43108161D01*
X146434332Y-43215660D01*
X146449500Y-43275085D01*
X146449500Y-50919741D01*
X146474446Y-51109215D01*
X146479452Y-51147238D01*
X146479453Y-51147240D01*
X146538842Y-51368887D01*
X146626650Y-51580876D01*
X146626657Y-51580891D01*
X146735238Y-51768958D01*
X146741389Y-51779612D01*
X146811235Y-51870636D01*
X146881082Y-51961663D01*
X146881086Y-51961668D01*
X160143333Y-65223915D01*
X160143340Y-65223921D01*
X160234363Y-65293765D01*
X160325388Y-65363611D01*
X160424750Y-65420977D01*
X160424751Y-65420978D01*
X160474431Y-65449661D01*
X160524112Y-65478345D01*
X160674019Y-65540438D01*
X160736113Y-65566158D01*
X160774781Y-65576519D01*
X160957761Y-65625549D01*
X161161553Y-65652377D01*
X161161555Y-65652378D01*
X161161556Y-65652378D01*
X161168151Y-65653246D01*
X161185266Y-65655500D01*
X161185267Y-65655500D01*
X161185270Y-65655500D01*
X174548846Y-65655500D01*
X174548853Y-65655500D01*
X174776357Y-65625548D01*
X174998006Y-65566158D01*
X175210007Y-65478344D01*
X175408731Y-65363611D01*
X175590780Y-65223919D01*
X175590784Y-65223914D01*
X175590789Y-65223911D01*
X175753030Y-65061670D01*
X175753033Y-65061665D01*
X175753038Y-65061661D01*
X175892730Y-64879612D01*
X176007463Y-64680888D01*
X176095277Y-64468887D01*
X176154667Y-64247238D01*
X176184619Y-64019734D01*
X176184619Y-63790266D01*
X176154667Y-63562762D01*
X176104657Y-63376120D01*
X176106320Y-63306272D01*
X176145483Y-63248410D01*
X176209711Y-63220906D01*
X176278613Y-63232493D01*
X176312113Y-63256348D01*
X176773181Y-63717416D01*
X176806666Y-63778739D01*
X176809500Y-63805097D01*
X176809500Y-89289902D01*
X176789815Y-89356941D01*
X176773181Y-89377583D01*
X171089481Y-95061282D01*
X171089479Y-95061284D01*
X171075772Y-95085026D01*
X171069978Y-95095063D01*
X171010423Y-95198215D01*
X170969499Y-95350943D01*
X170969499Y-95350945D01*
X170969499Y-95519046D01*
X170969500Y-95519059D01*
X170969500Y-96003306D01*
X170949815Y-96070345D01*
X170916623Y-96104881D01*
X170730859Y-96234953D01*
X170569954Y-96395858D01*
X170439432Y-96582265D01*
X170439431Y-96582267D01*
X170343261Y-96788502D01*
X170343258Y-96788511D01*
X170284366Y-97008302D01*
X170284364Y-97008313D01*
X170264532Y-97234998D01*
X170264532Y-97235001D01*
X170284364Y-97461686D01*
X170284366Y-97461697D01*
X170343258Y-97681488D01*
X170343261Y-97681497D01*
X170439431Y-97887732D01*
X170439432Y-97887734D01*
X170569954Y-98074141D01*
X170730858Y-98235045D01*
X170730861Y-98235047D01*
X170917266Y-98365568D01*
X171123504Y-98461739D01*
X171343308Y-98520635D01*
X171505230Y-98534801D01*
X171569998Y-98540468D01*
X171570000Y-98540468D01*
X171570002Y-98540468D01*
X171626673Y-98535509D01*
X171796692Y-98520635D01*
X171873711Y-98499998D01*
X185694532Y-98499998D01*
X185694532Y-98500001D01*
X185714364Y-98726686D01*
X185714366Y-98726697D01*
X185773258Y-98946488D01*
X185773261Y-98946497D01*
X185869431Y-99152732D01*
X185869432Y-99152734D01*
X185999954Y-99339141D01*
X186160858Y-99500045D01*
X186160861Y-99500047D01*
X186347266Y-99630568D01*
X186553504Y-99726739D01*
X186773308Y-99785635D01*
X186935230Y-99799801D01*
X186999998Y-99805468D01*
X187000000Y-99805468D01*
X187000002Y-99805468D01*
X187056673Y-99800509D01*
X187226692Y-99785635D01*
X187446496Y-99726739D01*
X187652734Y-99630568D01*
X187839139Y-99500047D01*
X188000047Y-99339139D01*
X188130568Y-99152734D01*
X188226739Y-98946496D01*
X188285635Y-98726692D01*
X188305468Y-98500000D01*
X188305468Y-98499998D01*
X190774532Y-98499998D01*
X190774532Y-98500001D01*
X190794364Y-98726686D01*
X190794366Y-98726697D01*
X190853258Y-98946488D01*
X190853261Y-98946497D01*
X190949431Y-99152732D01*
X190949432Y-99152734D01*
X191079954Y-99339141D01*
X191240858Y-99500045D01*
X191240861Y-99500047D01*
X191427266Y-99630568D01*
X191633504Y-99726739D01*
X191853308Y-99785635D01*
X192015230Y-99799801D01*
X192079998Y-99805468D01*
X192080000Y-99805468D01*
X192080002Y-99805468D01*
X192136673Y-99800509D01*
X192306692Y-99785635D01*
X192526496Y-99726739D01*
X192732734Y-99630568D01*
X192919139Y-99500047D01*
X193080047Y-99339139D01*
X193210568Y-99152734D01*
X193306739Y-98946496D01*
X193365635Y-98726692D01*
X193385468Y-98500000D01*
X193365635Y-98273308D01*
X193306739Y-98053504D01*
X193210568Y-97847266D01*
X193080047Y-97660861D01*
X193080045Y-97660858D01*
X192919141Y-97499954D01*
X192732734Y-97369432D01*
X192732732Y-97369431D01*
X192526497Y-97273261D01*
X192526488Y-97273258D01*
X192306697Y-97214366D01*
X192306693Y-97214365D01*
X192306692Y-97214365D01*
X192306691Y-97214364D01*
X192306686Y-97214364D01*
X192080002Y-97194532D01*
X192079998Y-97194532D01*
X191853313Y-97214364D01*
X191853302Y-97214366D01*
X191633511Y-97273258D01*
X191633502Y-97273261D01*
X191427267Y-97369431D01*
X191427265Y-97369432D01*
X191240858Y-97499954D01*
X191079954Y-97660858D01*
X190949432Y-97847265D01*
X190949431Y-97847267D01*
X190853261Y-98053502D01*
X190853258Y-98053511D01*
X190794366Y-98273302D01*
X190794364Y-98273313D01*
X190774532Y-98499998D01*
X188305468Y-98499998D01*
X188285635Y-98273308D01*
X188226739Y-98053504D01*
X188130568Y-97847266D01*
X188000047Y-97660861D01*
X188000045Y-97660858D01*
X187839141Y-97499954D01*
X187652734Y-97369432D01*
X187652732Y-97369431D01*
X187446497Y-97273261D01*
X187446488Y-97273258D01*
X187226697Y-97214366D01*
X187226693Y-97214365D01*
X187226692Y-97214365D01*
X187226691Y-97214364D01*
X187226686Y-97214364D01*
X187000002Y-97194532D01*
X186999998Y-97194532D01*
X186773313Y-97214364D01*
X186773302Y-97214366D01*
X186553511Y-97273258D01*
X186553502Y-97273261D01*
X186347267Y-97369431D01*
X186347265Y-97369432D01*
X186160858Y-97499954D01*
X185999954Y-97660858D01*
X185869432Y-97847265D01*
X185869431Y-97847267D01*
X185773261Y-98053502D01*
X185773258Y-98053511D01*
X185714366Y-98273302D01*
X185714364Y-98273313D01*
X185694532Y-98499998D01*
X171873711Y-98499998D01*
X172016496Y-98461739D01*
X172222734Y-98365568D01*
X172409139Y-98235047D01*
X172570047Y-98074139D01*
X172700568Y-97887734D01*
X172796739Y-97681496D01*
X172855635Y-97461692D01*
X172875468Y-97235000D01*
X172855635Y-97008308D01*
X172796739Y-96788504D01*
X172700568Y-96582266D01*
X172601249Y-96440423D01*
X172570045Y-96395858D01*
X172409140Y-96234953D01*
X172223377Y-96104881D01*
X172179752Y-96050304D01*
X172170500Y-96003306D01*
X172170500Y-95730096D01*
X172190185Y-95663057D01*
X172206814Y-95642420D01*
X177768506Y-90080727D01*
X177768511Y-90080724D01*
X177778714Y-90070520D01*
X177778716Y-90070520D01*
X177890520Y-89958716D01*
X177950957Y-89854035D01*
X177969577Y-89821785D01*
X178010500Y-89669058D01*
X178010500Y-89510943D01*
X178010500Y-86764998D01*
X193108651Y-86764998D01*
X193108651Y-86765001D01*
X193128483Y-86991686D01*
X193128485Y-86991697D01*
X193187377Y-87211488D01*
X193187380Y-87211497D01*
X193283550Y-87417732D01*
X193283551Y-87417734D01*
X193414073Y-87604141D01*
X193574977Y-87765045D01*
X193574980Y-87765047D01*
X193761385Y-87895568D01*
X193967623Y-87991739D01*
X194187427Y-88050635D01*
X194349349Y-88064801D01*
X194414117Y-88070468D01*
X194414119Y-88070468D01*
X194414121Y-88070468D01*
X194470792Y-88065509D01*
X194640811Y-88050635D01*
X194860615Y-87991739D01*
X195066853Y-87895568D01*
X195253258Y-87765047D01*
X195414166Y-87604139D01*
X195544687Y-87417734D01*
X195640858Y-87211496D01*
X195699754Y-86991692D01*
X195719587Y-86765000D01*
X195699754Y-86538308D01*
X195691824Y-86508713D01*
X200723619Y-86508713D01*
X200723619Y-87021286D01*
X200753745Y-87211497D01*
X200756873Y-87231243D01*
X200817467Y-87417732D01*
X200822563Y-87433414D01*
X200919070Y-87622820D01*
X201044009Y-87794786D01*
X201194332Y-87945109D01*
X201366298Y-88070048D01*
X201366300Y-88070049D01*
X201366303Y-88070051D01*
X201555707Y-88166557D01*
X201757876Y-88232246D01*
X201967832Y-88265500D01*
X201967833Y-88265500D01*
X202180405Y-88265500D01*
X202180406Y-88265500D01*
X202390362Y-88232246D01*
X202592531Y-88166557D01*
X202781935Y-88070051D01*
X202875359Y-88002175D01*
X202953903Y-87945110D01*
X202953903Y-87945109D01*
X202953911Y-87945104D01*
X203092723Y-87806291D01*
X203154042Y-87772809D01*
X203223734Y-87777793D01*
X203279668Y-87819664D01*
X203285940Y-87828878D01*
X203289304Y-87834333D01*
X203289305Y-87834334D01*
X203381407Y-87983656D01*
X203505463Y-88107712D01*
X203654785Y-88199814D01*
X203821322Y-88254999D01*
X203924110Y-88265500D01*
X205224127Y-88265499D01*
X205326916Y-88254999D01*
X205493453Y-88199814D01*
X205642775Y-88107712D01*
X205766831Y-87983656D01*
X205858933Y-87834334D01*
X205914118Y-87667797D01*
X205924619Y-87565009D01*
X205924618Y-85964992D01*
X205918448Y-85904596D01*
X205914118Y-85862203D01*
X205914117Y-85862200D01*
X205858933Y-85695666D01*
X205766831Y-85546344D01*
X205642775Y-85422288D01*
X205493453Y-85330186D01*
X205326916Y-85275001D01*
X205326914Y-85275000D01*
X205224129Y-85264500D01*
X203924117Y-85264500D01*
X203924100Y-85264501D01*
X203821322Y-85275000D01*
X203821319Y-85275001D01*
X203654787Y-85330185D01*
X203654782Y-85330187D01*
X203505461Y-85422289D01*
X203381408Y-85546342D01*
X203285940Y-85701121D01*
X203233992Y-85747845D01*
X203165029Y-85759068D01*
X203100947Y-85731224D01*
X203092720Y-85723705D01*
X202953905Y-85584890D01*
X202781939Y-85459951D01*
X202592533Y-85363444D01*
X202592532Y-85363443D01*
X202592531Y-85363443D01*
X202390362Y-85297754D01*
X202390360Y-85297753D01*
X202390359Y-85297753D01*
X202229076Y-85272208D01*
X202180406Y-85264500D01*
X201967832Y-85264500D01*
X201919161Y-85272208D01*
X201757879Y-85297753D01*
X201555704Y-85363444D01*
X201366298Y-85459951D01*
X201194332Y-85584890D01*
X201044009Y-85735213D01*
X200919070Y-85907179D01*
X200822563Y-86096585D01*
X200756872Y-86298760D01*
X200723619Y-86508713D01*
X195691824Y-86508713D01*
X195640858Y-86318504D01*
X195544687Y-86112266D01*
X195414166Y-85925861D01*
X195414164Y-85925858D01*
X195253260Y-85764954D01*
X195066853Y-85634432D01*
X195066851Y-85634431D01*
X194860616Y-85538261D01*
X194860607Y-85538258D01*
X194640816Y-85479366D01*
X194640812Y-85479365D01*
X194640811Y-85479365D01*
X194640810Y-85479364D01*
X194640805Y-85479364D01*
X194414121Y-85459532D01*
X194414117Y-85459532D01*
X194187432Y-85479364D01*
X194187421Y-85479366D01*
X193967630Y-85538258D01*
X193967621Y-85538261D01*
X193761386Y-85634431D01*
X193761384Y-85634432D01*
X193574977Y-85764954D01*
X193414073Y-85925858D01*
X193283551Y-86112265D01*
X193283550Y-86112267D01*
X193187380Y-86318502D01*
X193187377Y-86318511D01*
X193128485Y-86538302D01*
X193128483Y-86538313D01*
X193108651Y-86764998D01*
X178010500Y-86764998D01*
X178010500Y-71849500D01*
X178030185Y-71782461D01*
X178082989Y-71736706D01*
X178134500Y-71725500D01*
X205263331Y-71725500D01*
X205263347Y-71725501D01*
X205270943Y-71725501D01*
X205429054Y-71725501D01*
X205429057Y-71725501D01*
X205581785Y-71684577D01*
X205631904Y-71655639D01*
X205718716Y-71605520D01*
X205830520Y-71493716D01*
X205830520Y-71493714D01*
X205840728Y-71483507D01*
X205840730Y-71483504D01*
X206988713Y-70335521D01*
X206988716Y-70335520D01*
X207100520Y-70223716D01*
X207150639Y-70136904D01*
X207179577Y-70086785D01*
X207220500Y-69934058D01*
X207220500Y-69775943D01*
X207220500Y-62324060D01*
X207220501Y-62324047D01*
X207220501Y-62155945D01*
X207220501Y-62155943D01*
X207179577Y-62003215D01*
X207100520Y-61866284D01*
X206237589Y-61003354D01*
X206237588Y-61003352D01*
X206118717Y-60884481D01*
X206118716Y-60884480D01*
X206031904Y-60834360D01*
X206031904Y-60834359D01*
X206031900Y-60834358D01*
X205996615Y-60813985D01*
X205948401Y-60763418D01*
X205934618Y-60706600D01*
X205934618Y-60364629D01*
X205934617Y-60364623D01*
X205934616Y-60364616D01*
X205928210Y-60305017D01*
X205877915Y-60170169D01*
X205877914Y-60170168D01*
X205877912Y-60170164D01*
X205791666Y-60054955D01*
X205791663Y-60054952D01*
X205676454Y-59968706D01*
X205676447Y-59968702D01*
X205541601Y-59918408D01*
X205541602Y-59918408D01*
X205482002Y-59912001D01*
X205482000Y-59912000D01*
X205481992Y-59912000D01*
X205481983Y-59912000D01*
X203386248Y-59912000D01*
X203386242Y-59912001D01*
X203326635Y-59918408D01*
X203191790Y-59968702D01*
X203191783Y-59968706D01*
X203076574Y-60054952D01*
X203076571Y-60054955D01*
X202990325Y-60170164D01*
X202990321Y-60170171D01*
X202940027Y-60305017D01*
X202933620Y-60364616D01*
X202933619Y-60364627D01*
X202933619Y-61216702D01*
X202933620Y-62030500D01*
X202913935Y-62097539D01*
X202861132Y-62143294D01*
X202809620Y-62154500D01*
X187476443Y-62154500D01*
X187409404Y-62134815D01*
X187388762Y-62118181D01*
X172846819Y-47576238D01*
X172813334Y-47514915D01*
X172810500Y-47488557D01*
X172810500Y-46934888D01*
X172830185Y-46867849D01*
X172882989Y-46822094D01*
X172952147Y-46812150D01*
X173015703Y-46841175D01*
X173049060Y-46887434D01*
X173152785Y-47137847D01*
X173152786Y-47137849D01*
X173152788Y-47137854D01*
X173305646Y-47423830D01*
X173305657Y-47423848D01*
X173485820Y-47693481D01*
X173691546Y-47944159D01*
X177730841Y-51983454D01*
X177730846Y-51983458D01*
X177730847Y-51983459D01*
X177981524Y-52189184D01*
X177981531Y-52189189D01*
X177981541Y-52189196D01*
X178251141Y-52369336D01*
X178251146Y-52369339D01*
X178251158Y-52369347D01*
X178251167Y-52369351D01*
X178251169Y-52369353D01*
X178537145Y-52522211D01*
X178537147Y-52522211D01*
X178537153Y-52522215D01*
X178836754Y-52646314D01*
X179147077Y-52740449D01*
X179147083Y-52740450D01*
X179147086Y-52740451D01*
X179147097Y-52740454D01*
X179346528Y-52780122D01*
X179465132Y-52803714D01*
X179787857Y-52835500D01*
X179787860Y-52835500D01*
X195352140Y-52835500D01*
X195352143Y-52835500D01*
X195674868Y-52803714D01*
X195832295Y-52772399D01*
X195992902Y-52740454D01*
X195992913Y-52740451D01*
X195992913Y-52740450D01*
X195992923Y-52740449D01*
X196303246Y-52646314D01*
X196602847Y-52522215D01*
X196888842Y-52369347D01*
X197158476Y-52189183D01*
X197238001Y-52123919D01*
X197409154Y-51983458D01*
X201448459Y-47944153D01*
X201654184Y-47693476D01*
X201834347Y-47423842D01*
X201987215Y-47137847D01*
X202111314Y-46838246D01*
X202205449Y-46527923D01*
X202205451Y-46527913D01*
X202205454Y-46527902D01*
X202263814Y-46234500D01*
X202268714Y-46209868D01*
X202300500Y-45887143D01*
X202300500Y-45562857D01*
X202300500Y-42112857D01*
X202268714Y-41790132D01*
X202218981Y-41540106D01*
X202205454Y-41472097D01*
X202205451Y-41472086D01*
X202205450Y-41472083D01*
X202205449Y-41472077D01*
X202111314Y-41161754D01*
X201987215Y-40862153D01*
X201915042Y-40727128D01*
X201834353Y-40576169D01*
X201834352Y-40576167D01*
X201834347Y-40576158D01*
X201654183Y-40306524D01*
X201448458Y-40055847D01*
X201448457Y-40055846D01*
X201448453Y-40055841D01*
X201219158Y-39826546D01*
X200968481Y-39620821D01*
X200968480Y-39620820D01*
X200968476Y-39620817D01*
X200698842Y-39440653D01*
X200698837Y-39440650D01*
X200698830Y-39440646D01*
X200412854Y-39287788D01*
X200412849Y-39287786D01*
X200113247Y-39163686D01*
X199802913Y-39069548D01*
X199802902Y-39069545D01*
X199484874Y-39006287D01*
X199484857Y-39006284D01*
X199240812Y-38982248D01*
X199162143Y-38974500D01*
X198837857Y-38974500D01*
X198765099Y-38981666D01*
X198515142Y-39006284D01*
X198515125Y-39006287D01*
X198197097Y-39069545D01*
X198197086Y-39069548D01*
X197886752Y-39163686D01*
X197587150Y-39287786D01*
X197587145Y-39287788D01*
X197301169Y-39440646D01*
X197301151Y-39440657D01*
X197031532Y-39620811D01*
X197031518Y-39620821D01*
X196780841Y-39826546D01*
X196551546Y-40055841D01*
X196345821Y-40306518D01*
X196345811Y-40306532D01*
X196165657Y-40576151D01*
X196165646Y-40576169D01*
X196012788Y-40862145D01*
X196012786Y-40862150D01*
X195888686Y-41161752D01*
X195794548Y-41472086D01*
X195794545Y-41472097D01*
X195731287Y-41790125D01*
X195731284Y-41790142D01*
X195699500Y-42112860D01*
X195699500Y-44306526D01*
X195679815Y-44373565D01*
X195663181Y-44394207D01*
X193859207Y-46198181D01*
X193797884Y-46231666D01*
X193771526Y-46234500D01*
X183864500Y-46234500D01*
X183797461Y-46214815D01*
X183751706Y-46162011D01*
X183740500Y-46110500D01*
X183740500Y-40546577D01*
X183720048Y-40417452D01*
X183709709Y-40352174D01*
X183689444Y-40289804D01*
X183648884Y-40164974D01*
X183648882Y-40164971D01*
X183648882Y-40164969D01*
X183593278Y-40055841D01*
X183559524Y-39989595D01*
X183443828Y-39830354D01*
X178613474Y-35000000D01*
X204894592Y-35000000D01*
X204914201Y-35286680D01*
X204972666Y-35568034D01*
X204972667Y-35568037D01*
X205068894Y-35838793D01*
X205068893Y-35838793D01*
X205201098Y-36093935D01*
X205366812Y-36328700D01*
X205451923Y-36419831D01*
X205562947Y-36538708D01*
X205777565Y-36713312D01*
X205785853Y-36720055D01*
X206031382Y-36869365D01*
X206218237Y-36950526D01*
X206294942Y-36983844D01*
X206571642Y-37061371D01*
X206821920Y-37095771D01*
X206856321Y-37100500D01*
X206856322Y-37100500D01*
X207143679Y-37100500D01*
X207174370Y-37096281D01*
X207428358Y-37061371D01*
X207705058Y-36983844D01*
X207818015Y-36934779D01*
X207968617Y-36869365D01*
X207968620Y-36869363D01*
X207968625Y-36869361D01*
X208214147Y-36720055D01*
X208437053Y-36538708D01*
X208633189Y-36328698D01*
X208798901Y-36093936D01*
X208931104Y-35838797D01*
X209027334Y-35568032D01*
X209085798Y-35286686D01*
X209105408Y-35000000D01*
X209085798Y-34713314D01*
X209027334Y-34431968D01*
X208931105Y-34161206D01*
X208931106Y-34161206D01*
X208798901Y-33906064D01*
X208633187Y-33671299D01*
X208554554Y-33587105D01*
X208437053Y-33461292D01*
X208214147Y-33279945D01*
X208214146Y-33279944D01*
X207968617Y-33130634D01*
X207705063Y-33016158D01*
X207705061Y-33016157D01*
X207705058Y-33016156D01*
X207575578Y-32979877D01*
X207428364Y-32938630D01*
X207428359Y-32938629D01*
X207428358Y-32938629D01*
X207286018Y-32919064D01*
X207143679Y-32899500D01*
X207143678Y-32899500D01*
X206856322Y-32899500D01*
X206856321Y-32899500D01*
X206571642Y-32938629D01*
X206571635Y-32938630D01*
X206363861Y-32996845D01*
X206294942Y-33016156D01*
X206294939Y-33016156D01*
X206294936Y-33016158D01*
X206294935Y-33016158D01*
X206031382Y-33130634D01*
X205785853Y-33279944D01*
X205562950Y-33461289D01*
X205366812Y-33671299D01*
X205201098Y-33906064D01*
X205068894Y-34161206D01*
X204972667Y-34431962D01*
X204972666Y-34431965D01*
X204914201Y-34713319D01*
X204894592Y-35000000D01*
X178613474Y-35000000D01*
X176954646Y-33341172D01*
X176795405Y-33225476D01*
X176620030Y-33136117D01*
X176432826Y-33075290D01*
X176238422Y-33044500D01*
X176238417Y-33044500D01*
X150838416Y-33044500D01*
X150641583Y-33044500D01*
X150641578Y-33044500D01*
X150447172Y-33075290D01*
X150259969Y-33136117D01*
X150084594Y-33225476D01*
X150009625Y-33279945D01*
X149925354Y-33341172D01*
X149925352Y-33341174D01*
X149925351Y-33341174D01*
X142278345Y-40988181D01*
X142217022Y-41021666D01*
X142190664Y-41024500D01*
X122384499Y-41024500D01*
X122317460Y-41004815D01*
X122271705Y-40952011D01*
X122260499Y-40900500D01*
X122260499Y-40727129D01*
X122260498Y-40727123D01*
X122260497Y-40727116D01*
X122254091Y-40667517D01*
X122224347Y-40587770D01*
X122203797Y-40532671D01*
X122203793Y-40532664D01*
X122117547Y-40417455D01*
X122117544Y-40417452D01*
X122002335Y-40331206D01*
X122002328Y-40331202D01*
X121867482Y-40280908D01*
X121867483Y-40280908D01*
X121807883Y-40274501D01*
X121807881Y-40274500D01*
X121807873Y-40274500D01*
X121807864Y-40274500D01*
X118712129Y-40274500D01*
X118712123Y-40274501D01*
X118652516Y-40280908D01*
X118517671Y-40331202D01*
X118517664Y-40331206D01*
X118402455Y-40417452D01*
X118402452Y-40417455D01*
X118316206Y-40532664D01*
X118316202Y-40532671D01*
X118265908Y-40667517D01*
X118259501Y-40727116D01*
X118259501Y-40727123D01*
X118259500Y-40727135D01*
X116450481Y-40727135D01*
X116264317Y-40587775D01*
X116264309Y-40587770D01*
X116013166Y-40450635D01*
X116013167Y-40450635D01*
X115905915Y-40410632D01*
X115745046Y-40350631D01*
X115745043Y-40350630D01*
X115745037Y-40350628D01*
X115465433Y-40289804D01*
X115180001Y-40269390D01*
X115179999Y-40269390D01*
X114894566Y-40289804D01*
X114614962Y-40350628D01*
X114346833Y-40450635D01*
X114095690Y-40587770D01*
X114095682Y-40587775D01*
X113866612Y-40759254D01*
X113866594Y-40759270D01*
X113664270Y-40961594D01*
X113664257Y-40961609D01*
X113654374Y-40974812D01*
X113598440Y-41016682D01*
X113555108Y-41024500D01*
X113451578Y-41024500D01*
X113318759Y-41045537D01*
X113318758Y-41045537D01*
X113257174Y-41055290D01*
X113257173Y-41055290D01*
X113069970Y-41116117D01*
X112894594Y-41205476D01*
X112830208Y-41252256D01*
X112735355Y-41321171D01*
X112735353Y-41321173D01*
X112735352Y-41321173D01*
X110416174Y-43640351D01*
X110416174Y-43640352D01*
X110416172Y-43640354D01*
X110409527Y-43649500D01*
X110300476Y-43799594D01*
X110211117Y-43974969D01*
X110170698Y-44099368D01*
X110150290Y-44162173D01*
X110119500Y-44356577D01*
X110119500Y-62333422D01*
X110150290Y-62527826D01*
X110211117Y-62715030D01*
X110260318Y-62811591D01*
X110300476Y-62890405D01*
X110416172Y-63049646D01*
X112225355Y-64858829D01*
X112384595Y-64974524D01*
X112460664Y-65013283D01*
X112559973Y-65063884D01*
X112559979Y-65063886D01*
X112606671Y-65079057D01*
X112606672Y-65079057D01*
X112676923Y-65101883D01*
X112747173Y-65124709D01*
X112941578Y-65155500D01*
X112941583Y-65155500D01*
X112941584Y-65155500D01*
X113138417Y-65155500D01*
X113610586Y-65155500D01*
X113666881Y-65169015D01*
X113828863Y-65251549D01*
X114046370Y-65322221D01*
X114046371Y-65322221D01*
X114046374Y-65322222D01*
X114272265Y-65358000D01*
X114272266Y-65358000D01*
X114595972Y-65358000D01*
X114595973Y-65358000D01*
X114821864Y-65322222D01*
X114821867Y-65322221D01*
X114821868Y-65322221D01*
X115039374Y-65251549D01*
X115039374Y-65251548D01*
X115039377Y-65251548D01*
X115201357Y-65169014D01*
X115257652Y-65155500D01*
X143610586Y-65155500D01*
X143666881Y-65169015D01*
X143828863Y-65251549D01*
X144046370Y-65322221D01*
X144046371Y-65322221D01*
X144046374Y-65322222D01*
X144272265Y-65358000D01*
X144272266Y-65358000D01*
X144595972Y-65358000D01*
X144595973Y-65358000D01*
X144821864Y-65322222D01*
X144821867Y-65322221D01*
X144821868Y-65322221D01*
X145039374Y-65251549D01*
X145039374Y-65251548D01*
X145039377Y-65251548D01*
X145243157Y-65147717D01*
X145428185Y-65013286D01*
X145589905Y-64851566D01*
X145724336Y-64666538D01*
X145828167Y-64462758D01*
X145898193Y-64247240D01*
X145898840Y-64245249D01*
X145898840Y-64245248D01*
X145898841Y-64245245D01*
X145934619Y-64019354D01*
X145934619Y-63790646D01*
X145898841Y-63564755D01*
X145898840Y-63564751D01*
X145898840Y-63564750D01*
X145828168Y-63347244D01*
X145781854Y-63256348D01*
X145724336Y-63143462D01*
X145591591Y-62960755D01*
X145568113Y-62894953D01*
X145583938Y-62826899D01*
X145634044Y-62778204D01*
X145648574Y-62771692D01*
X145676450Y-62761296D01*
X145791665Y-62675046D01*
X145877915Y-62559831D01*
X145928210Y-62424983D01*
X145934619Y-62365373D01*
X145934619Y-62089500D01*
X145954304Y-62022461D01*
X146007108Y-61976706D01*
X146058619Y-61965500D01*
X148064903Y-61965500D01*
X148131942Y-61985185D01*
X148152584Y-62001819D01*
X151363181Y-65212416D01*
X151396666Y-65273739D01*
X151399500Y-65300097D01*
X151399500Y-69913330D01*
X151399499Y-69913348D01*
X151399499Y-70079054D01*
X151399498Y-70079054D01*
X151440423Y-70231785D01*
X151469358Y-70281900D01*
X151469359Y-70281904D01*
X151469360Y-70281904D01*
X151506210Y-70345732D01*
X151519479Y-70368714D01*
X151519481Y-70368717D01*
X151638349Y-70487585D01*
X151638355Y-70487590D01*
X165363181Y-84212416D01*
X165396666Y-84273739D01*
X165399500Y-84300097D01*
X165399500Y-88699902D01*
X165379815Y-88766941D01*
X165363181Y-88787583D01*
X162787584Y-91363181D01*
X162726261Y-91396666D01*
X162699903Y-91399500D01*
X161749096Y-91399500D01*
X161682057Y-91379815D01*
X161636302Y-91327011D01*
X161626358Y-91257853D01*
X161655383Y-91194297D01*
X161661415Y-91187819D01*
X161864648Y-90984586D01*
X163144639Y-89704597D01*
X163223696Y-89567665D01*
X163264620Y-89414938D01*
X163264620Y-89256823D01*
X163264620Y-89249228D01*
X163264619Y-89249210D01*
X163264619Y-87996692D01*
X163284304Y-87929653D01*
X163317493Y-87895119D01*
X163503258Y-87765047D01*
X163664166Y-87604139D01*
X163794687Y-87417734D01*
X163890858Y-87211496D01*
X163949754Y-86991692D01*
X163969587Y-86765000D01*
X163949754Y-86538308D01*
X163890858Y-86318504D01*
X163794687Y-86112266D01*
X163664166Y-85925861D01*
X163664164Y-85925858D01*
X163503260Y-85764954D01*
X163316853Y-85634432D01*
X163316851Y-85634431D01*
X163110616Y-85538261D01*
X163110607Y-85538258D01*
X162890816Y-85479366D01*
X162890812Y-85479365D01*
X162890811Y-85479365D01*
X162890810Y-85479364D01*
X162890805Y-85479364D01*
X162664121Y-85459532D01*
X162664117Y-85459532D01*
X162437432Y-85479364D01*
X162437421Y-85479366D01*
X162217630Y-85538258D01*
X162217621Y-85538261D01*
X162011386Y-85634431D01*
X162011384Y-85634432D01*
X161824977Y-85764954D01*
X161664073Y-85925858D01*
X161533551Y-86112265D01*
X161533550Y-86112267D01*
X161437380Y-86318502D01*
X161437377Y-86318511D01*
X161378485Y-86538302D01*
X161378483Y-86538313D01*
X161358651Y-86764998D01*
X161358651Y-86765001D01*
X161378483Y-86991686D01*
X161378485Y-86991697D01*
X161437377Y-87211488D01*
X161437380Y-87211497D01*
X161533550Y-87417732D01*
X161533551Y-87417734D01*
X161664073Y-87604141D01*
X161824977Y-87765045D01*
X161824980Y-87765047D01*
X162010743Y-87895118D01*
X162054367Y-87949693D01*
X162063619Y-87996692D01*
X162063619Y-89035783D01*
X162043934Y-89102822D01*
X162027300Y-89123464D01*
X160787584Y-90363181D01*
X160726261Y-90396666D01*
X160699903Y-90399500D01*
X102300097Y-90399500D01*
X102233058Y-90379815D01*
X102212416Y-90363181D01*
X100167590Y-88318355D01*
X100167588Y-88318352D01*
X100048717Y-88199481D01*
X100048716Y-88199480D01*
X99961904Y-88149360D01*
X99961904Y-88149359D01*
X99961900Y-88149358D01*
X99911785Y-88120423D01*
X99759057Y-88079499D01*
X99600943Y-88079499D01*
X99593347Y-88079499D01*
X99593331Y-88079500D01*
X85289091Y-88079500D01*
X85222052Y-88059815D01*
X85176711Y-88007909D01*
X85174037Y-88002175D01*
X85174034Y-88002170D01*
X85174033Y-88002169D01*
X85056513Y-87834331D01*
X85038494Y-87808597D01*
X84871402Y-87641506D01*
X84871396Y-87641501D01*
X84685842Y-87511575D01*
X84642217Y-87456998D01*
X84635023Y-87387500D01*
X84666546Y-87325145D01*
X84685842Y-87308425D01*
X84796069Y-87231243D01*
X84871401Y-87178495D01*
X85038495Y-87011401D01*
X85174035Y-86817830D01*
X85198671Y-86764998D01*
X101628651Y-86764998D01*
X101628651Y-86765001D01*
X101648483Y-86991686D01*
X101648485Y-86991697D01*
X101707377Y-87211488D01*
X101707380Y-87211497D01*
X101803550Y-87417732D01*
X101803551Y-87417734D01*
X101934073Y-87604141D01*
X102094977Y-87765045D01*
X102094980Y-87765047D01*
X102281385Y-87895568D01*
X102487623Y-87991739D01*
X102707427Y-88050635D01*
X102869349Y-88064801D01*
X102934117Y-88070468D01*
X102934119Y-88070468D01*
X102934121Y-88070468D01*
X102990792Y-88065509D01*
X103160811Y-88050635D01*
X103380615Y-87991739D01*
X103586853Y-87895568D01*
X103773258Y-87765047D01*
X103934166Y-87604139D01*
X104064687Y-87417734D01*
X104160858Y-87211496D01*
X104219754Y-86991692D01*
X104239587Y-86765000D01*
X104219754Y-86538308D01*
X104211824Y-86508713D01*
X109243619Y-86508713D01*
X109243619Y-87021286D01*
X109273745Y-87211497D01*
X109276873Y-87231243D01*
X109337467Y-87417732D01*
X109342563Y-87433414D01*
X109439070Y-87622820D01*
X109564009Y-87794786D01*
X109714332Y-87945109D01*
X109886298Y-88070048D01*
X109886300Y-88070049D01*
X109886303Y-88070051D01*
X110075707Y-88166557D01*
X110277876Y-88232246D01*
X110487832Y-88265500D01*
X110487833Y-88265500D01*
X110700405Y-88265500D01*
X110700406Y-88265500D01*
X110910362Y-88232246D01*
X111112531Y-88166557D01*
X111301935Y-88070051D01*
X111395359Y-88002175D01*
X111473903Y-87945110D01*
X111473903Y-87945109D01*
X111473911Y-87945104D01*
X111612723Y-87806291D01*
X111674042Y-87772809D01*
X111743734Y-87777793D01*
X111799668Y-87819664D01*
X111805940Y-87828878D01*
X111809304Y-87834333D01*
X111809305Y-87834334D01*
X111901407Y-87983656D01*
X112025463Y-88107712D01*
X112174785Y-88199814D01*
X112341322Y-88254999D01*
X112444110Y-88265500D01*
X113744127Y-88265499D01*
X113846916Y-88254999D01*
X114013453Y-88199814D01*
X114162775Y-88107712D01*
X114286831Y-87983656D01*
X114378933Y-87834334D01*
X114434118Y-87667797D01*
X114444619Y-87565009D01*
X114444618Y-86764998D01*
X132108651Y-86764998D01*
X132108651Y-86765001D01*
X132128483Y-86991686D01*
X132128485Y-86991697D01*
X132187377Y-87211488D01*
X132187380Y-87211497D01*
X132283550Y-87417732D01*
X132283551Y-87417734D01*
X132414073Y-87604141D01*
X132574977Y-87765045D01*
X132574980Y-87765047D01*
X132761385Y-87895568D01*
X132967623Y-87991739D01*
X133187427Y-88050635D01*
X133349349Y-88064801D01*
X133414117Y-88070468D01*
X133414119Y-88070468D01*
X133414121Y-88070468D01*
X133470792Y-88065509D01*
X133640811Y-88050635D01*
X133860615Y-87991739D01*
X134066853Y-87895568D01*
X134253258Y-87765047D01*
X134414166Y-87604139D01*
X134544687Y-87417734D01*
X134640858Y-87211496D01*
X134699754Y-86991692D01*
X134719587Y-86765000D01*
X134699754Y-86538308D01*
X134691824Y-86508713D01*
X139723619Y-86508713D01*
X139723619Y-87021286D01*
X139753745Y-87211497D01*
X139756873Y-87231243D01*
X139817467Y-87417732D01*
X139822563Y-87433414D01*
X139919070Y-87622820D01*
X140044009Y-87794786D01*
X140194332Y-87945109D01*
X140366298Y-88070048D01*
X140366300Y-88070049D01*
X140366303Y-88070051D01*
X140555707Y-88166557D01*
X140757876Y-88232246D01*
X140967832Y-88265500D01*
X140967833Y-88265500D01*
X141180405Y-88265500D01*
X141180406Y-88265500D01*
X141390362Y-88232246D01*
X141592531Y-88166557D01*
X141781935Y-88070051D01*
X141875359Y-88002175D01*
X141953903Y-87945110D01*
X141953903Y-87945109D01*
X141953911Y-87945104D01*
X142092723Y-87806291D01*
X142154042Y-87772809D01*
X142223734Y-87777793D01*
X142279668Y-87819664D01*
X142285940Y-87828878D01*
X142289304Y-87834333D01*
X142289305Y-87834334D01*
X142381407Y-87983656D01*
X142505463Y-88107712D01*
X142654785Y-88199814D01*
X142821322Y-88254999D01*
X142924110Y-88265500D01*
X144224127Y-88265499D01*
X144326916Y-88254999D01*
X144493453Y-88199814D01*
X144642775Y-88107712D01*
X144766831Y-87983656D01*
X144858933Y-87834334D01*
X144914118Y-87667797D01*
X144924619Y-87565009D01*
X144924618Y-85964992D01*
X144918448Y-85904596D01*
X144914118Y-85862203D01*
X144914117Y-85862200D01*
X144858933Y-85695666D01*
X144766831Y-85546344D01*
X144642775Y-85422288D01*
X144493453Y-85330186D01*
X144326916Y-85275001D01*
X144326914Y-85275000D01*
X144224129Y-85264500D01*
X142924117Y-85264500D01*
X142924100Y-85264501D01*
X142821322Y-85275000D01*
X142821319Y-85275001D01*
X142654787Y-85330185D01*
X142654782Y-85330187D01*
X142505461Y-85422289D01*
X142381408Y-85546342D01*
X142285940Y-85701121D01*
X142233992Y-85747845D01*
X142165029Y-85759068D01*
X142100947Y-85731224D01*
X142092720Y-85723705D01*
X141953905Y-85584890D01*
X141781939Y-85459951D01*
X141592533Y-85363444D01*
X141592532Y-85363443D01*
X141592531Y-85363443D01*
X141390362Y-85297754D01*
X141390360Y-85297753D01*
X141390359Y-85297753D01*
X141229076Y-85272208D01*
X141180406Y-85264500D01*
X140967832Y-85264500D01*
X140919161Y-85272208D01*
X140757879Y-85297753D01*
X140555704Y-85363444D01*
X140366298Y-85459951D01*
X140194332Y-85584890D01*
X140044009Y-85735213D01*
X139919070Y-85907179D01*
X139822563Y-86096585D01*
X139756872Y-86298760D01*
X139723619Y-86508713D01*
X134691824Y-86508713D01*
X134640858Y-86318504D01*
X134544687Y-86112266D01*
X134414166Y-85925861D01*
X134414164Y-85925858D01*
X134253260Y-85764954D01*
X134066853Y-85634432D01*
X134066851Y-85634431D01*
X133860616Y-85538261D01*
X133860607Y-85538258D01*
X133640816Y-85479366D01*
X133640812Y-85479365D01*
X133640811Y-85479365D01*
X133640810Y-85479364D01*
X133640805Y-85479364D01*
X133414121Y-85459532D01*
X133414117Y-85459532D01*
X133187432Y-85479364D01*
X133187421Y-85479366D01*
X132967630Y-85538258D01*
X132967621Y-85538261D01*
X132761386Y-85634431D01*
X132761384Y-85634432D01*
X132574977Y-85764954D01*
X132414073Y-85925858D01*
X132283551Y-86112265D01*
X132283550Y-86112267D01*
X132187380Y-86318502D01*
X132187377Y-86318511D01*
X132128485Y-86538302D01*
X132128483Y-86538313D01*
X132108651Y-86764998D01*
X114444618Y-86764998D01*
X114444618Y-85964992D01*
X114438448Y-85904596D01*
X114434118Y-85862203D01*
X114434117Y-85862200D01*
X114378933Y-85695666D01*
X114286831Y-85546344D01*
X114162775Y-85422288D01*
X114013453Y-85330186D01*
X113846916Y-85275001D01*
X113846914Y-85275000D01*
X113744129Y-85264500D01*
X112444117Y-85264500D01*
X112444100Y-85264501D01*
X112341322Y-85275000D01*
X112341319Y-85275001D01*
X112174787Y-85330185D01*
X112174782Y-85330187D01*
X112025461Y-85422289D01*
X111901408Y-85546342D01*
X111805940Y-85701121D01*
X111753992Y-85747845D01*
X111685029Y-85759068D01*
X111620947Y-85731224D01*
X111612720Y-85723705D01*
X111473905Y-85584890D01*
X111301939Y-85459951D01*
X111112533Y-85363444D01*
X111112532Y-85363443D01*
X111112531Y-85363443D01*
X110910362Y-85297754D01*
X110910360Y-85297753D01*
X110910359Y-85297753D01*
X110749076Y-85272208D01*
X110700406Y-85264500D01*
X110487832Y-85264500D01*
X110439161Y-85272208D01*
X110277879Y-85297753D01*
X110075704Y-85363444D01*
X109886298Y-85459951D01*
X109714332Y-85584890D01*
X109564009Y-85735213D01*
X109439070Y-85907179D01*
X109342563Y-86096585D01*
X109276872Y-86298760D01*
X109243619Y-86508713D01*
X104211824Y-86508713D01*
X104160858Y-86318504D01*
X104064687Y-86112266D01*
X103934166Y-85925861D01*
X103934164Y-85925858D01*
X103773260Y-85764954D01*
X103586853Y-85634432D01*
X103586851Y-85634431D01*
X103380616Y-85538261D01*
X103380607Y-85538258D01*
X103160816Y-85479366D01*
X103160812Y-85479365D01*
X103160811Y-85479365D01*
X103160810Y-85479364D01*
X103160805Y-85479364D01*
X102934121Y-85459532D01*
X102934117Y-85459532D01*
X102707432Y-85479364D01*
X102707421Y-85479366D01*
X102487630Y-85538258D01*
X102487621Y-85538261D01*
X102281386Y-85634431D01*
X102281384Y-85634432D01*
X102094977Y-85764954D01*
X101934073Y-85925858D01*
X101803551Y-86112265D01*
X101803550Y-86112267D01*
X101707380Y-86318502D01*
X101707377Y-86318511D01*
X101648485Y-86538302D01*
X101648483Y-86538313D01*
X101628651Y-86764998D01*
X85198671Y-86764998D01*
X85273903Y-86603663D01*
X85335063Y-86375408D01*
X85355659Y-86140000D01*
X85335063Y-85904592D01*
X85273903Y-85676337D01*
X85174035Y-85462171D01*
X85172480Y-85459949D01*
X85038494Y-85268597D01*
X84871402Y-85101506D01*
X84871396Y-85101501D01*
X84685842Y-84971575D01*
X84642217Y-84916998D01*
X84635023Y-84847500D01*
X84666546Y-84785145D01*
X84685842Y-84768425D01*
X84708026Y-84752891D01*
X84871401Y-84638495D01*
X85038495Y-84471401D01*
X85174035Y-84277830D01*
X85273903Y-84063663D01*
X85335063Y-83835408D01*
X85355659Y-83600000D01*
X85335063Y-83364592D01*
X85273903Y-83136337D01*
X85174035Y-82922171D01*
X85038495Y-82728599D01*
X85038494Y-82728597D01*
X84871402Y-82561506D01*
X84871395Y-82561501D01*
X84677834Y-82425967D01*
X84677830Y-82425965D01*
X84677828Y-82425964D01*
X84463663Y-82326097D01*
X84463659Y-82326096D01*
X84463655Y-82326094D01*
X84235413Y-82264938D01*
X84235403Y-82264936D01*
X84000001Y-82244341D01*
X83999999Y-82244341D01*
X83764596Y-82264936D01*
X83764586Y-82264938D01*
X83536344Y-82326094D01*
X83536335Y-82326098D01*
X83322171Y-82425964D01*
X83322169Y-82425965D01*
X83128597Y-82561505D01*
X82961505Y-82728597D01*
X82825965Y-82922169D01*
X82825964Y-82922171D01*
X82726098Y-83136335D01*
X82726094Y-83136344D01*
X82664938Y-83364586D01*
X82664936Y-83364596D01*
X82644341Y-83599999D01*
X81500500Y-83599999D01*
X81500500Y-37000000D01*
X83894592Y-37000000D01*
X83914201Y-37286680D01*
X83972666Y-37568034D01*
X83972667Y-37568037D01*
X84068894Y-37838793D01*
X84068893Y-37838793D01*
X84201098Y-38093935D01*
X84366812Y-38328700D01*
X84433759Y-38400382D01*
X84562947Y-38538708D01*
X84785853Y-38720055D01*
X85031382Y-38869365D01*
X85218237Y-38950526D01*
X85294942Y-38983844D01*
X85571642Y-39061371D01*
X85821920Y-39095771D01*
X85856321Y-39100500D01*
X85856322Y-39100500D01*
X86143679Y-39100500D01*
X86174370Y-39096281D01*
X86428358Y-39061371D01*
X86705058Y-38983844D01*
X86818015Y-38934779D01*
X86968617Y-38869365D01*
X86968620Y-38869363D01*
X86968625Y-38869361D01*
X87214147Y-38720055D01*
X87437053Y-38538708D01*
X87633189Y-38328698D01*
X87798901Y-38093936D01*
X87931104Y-37838797D01*
X88027334Y-37568032D01*
X88085798Y-37286686D01*
X88105408Y-37000000D01*
X131494592Y-37000000D01*
X131514201Y-37286680D01*
X131572666Y-37568034D01*
X131572667Y-37568037D01*
X131668894Y-37838793D01*
X131668893Y-37838793D01*
X131801098Y-38093935D01*
X131966812Y-38328700D01*
X132033759Y-38400382D01*
X132162947Y-38538708D01*
X132385853Y-38720055D01*
X132631382Y-38869365D01*
X132818237Y-38950526D01*
X132894942Y-38983844D01*
X133171642Y-39061371D01*
X133421920Y-39095771D01*
X133456321Y-39100500D01*
X133456322Y-39100500D01*
X133743679Y-39100500D01*
X133774370Y-39096281D01*
X134028358Y-39061371D01*
X134305058Y-38983844D01*
X134418015Y-38934779D01*
X134568617Y-38869365D01*
X134568620Y-38869363D01*
X134568625Y-38869361D01*
X134814147Y-38720055D01*
X135037053Y-38538708D01*
X135233189Y-38328698D01*
X135398901Y-38093936D01*
X135531104Y-37838797D01*
X135627334Y-37568032D01*
X135685798Y-37286686D01*
X135705408Y-37000000D01*
X135685798Y-36713314D01*
X135627334Y-36431968D01*
X135610446Y-36384451D01*
X135531105Y-36161206D01*
X135531106Y-36161206D01*
X135398901Y-35906064D01*
X135233187Y-35671299D01*
X135134082Y-35565185D01*
X135037053Y-35461292D01*
X134822433Y-35286686D01*
X134814146Y-35279944D01*
X134568617Y-35130634D01*
X134305063Y-35016158D01*
X134305061Y-35016157D01*
X134305058Y-35016156D01*
X134175578Y-34979877D01*
X134028364Y-34938630D01*
X134028359Y-34938629D01*
X134028358Y-34938629D01*
X133886018Y-34919064D01*
X133743679Y-34899500D01*
X133743678Y-34899500D01*
X133456322Y-34899500D01*
X133456321Y-34899500D01*
X133171642Y-34938629D01*
X133171635Y-34938630D01*
X132963861Y-34996845D01*
X132894942Y-35016156D01*
X132894939Y-35016156D01*
X132894936Y-35016158D01*
X132894935Y-35016158D01*
X132631382Y-35130634D01*
X132385853Y-35279944D01*
X132162950Y-35461289D01*
X131966812Y-35671299D01*
X131801098Y-35906064D01*
X131668894Y-36161206D01*
X131572667Y-36431962D01*
X131572666Y-36431965D01*
X131514201Y-36713319D01*
X131494592Y-37000000D01*
X88105408Y-37000000D01*
X88085798Y-36713314D01*
X88027334Y-36431968D01*
X88010446Y-36384451D01*
X87931105Y-36161206D01*
X87931106Y-36161206D01*
X87798901Y-35906064D01*
X87633187Y-35671299D01*
X87534082Y-35565185D01*
X87437053Y-35461292D01*
X87222433Y-35286686D01*
X87214146Y-35279944D01*
X86968617Y-35130634D01*
X86705063Y-35016158D01*
X86705061Y-35016157D01*
X86705058Y-35016156D01*
X86575578Y-34979877D01*
X86428364Y-34938630D01*
X86428359Y-34938629D01*
X86428358Y-34938629D01*
X86286018Y-34919064D01*
X86143679Y-34899500D01*
X86143678Y-34899500D01*
X85856322Y-34899500D01*
X85856321Y-34899500D01*
X85571642Y-34938629D01*
X85571635Y-34938630D01*
X85363861Y-34996845D01*
X85294942Y-35016156D01*
X85294939Y-35016156D01*
X85294936Y-35016158D01*
X85294935Y-35016158D01*
X85031382Y-35130634D01*
X84785853Y-35279944D01*
X84562950Y-35461289D01*
X84366812Y-35671299D01*
X84201098Y-35906064D01*
X84068894Y-36161206D01*
X83972667Y-36431962D01*
X83972666Y-36431965D01*
X83914201Y-36713319D01*
X83894592Y-37000000D01*
X81500500Y-37000000D01*
X81500500Y-32624500D01*
X81520185Y-32557461D01*
X81572989Y-32511706D01*
X81624500Y-32500500D01*
X209375500Y-32500500D01*
X209442539Y-32520185D01*
G37*
%TD.AperFunction*%
%TD*%
M02*
