M48
; DRILL file {KiCad 9.0.3} date 2025-08-15T05:26:40+0200
; FORMAT={-:-/ absolute / inch / decimal}
; #@! TF.CreationDate,2025-08-15T05:26:40+02:00
; #@! TF.GenerationSoftware,Kicad,Pcbnew,9.0.3
; #@! TF.FileFunction,Plated,1,2,PTH
FMAT,2
INCH
; #@! TA.AperFunction,Plated,PTH,ViaDrill
T1C0.0118
; #@! TA.AperFunction,Plated,PTH,ComponentDrill
T2C0.0315
; #@! TA.AperFunction,Plated,PTH,ComponentDrill
T3C0.0354
; #@! TA.AperFunction,Plated,PTH,ComponentDrill
T4C0.0374
; #@! TA.AperFunction,Plated,PTH,ComponentDrill
T5C0.0394
; #@! TA.AperFunction,Plated,PTH,ComponentDrill
T6C0.0400
; #@! TA.AperFunction,Plated,PTH,ComponentDrill
T7C0.0433
; #@! TA.AperFunction,Plated,PTH,ComponentDrill
T8C0.0472
; #@! TA.AperFunction,Plated,PTH,ComponentDrill
T9C0.0598
%
G90
G05
T1
X5.8661Y-3.7402
X6.0433Y-3.248
X6.1417Y-4.1339
X6.6142Y-4.1339
X6.7717Y-4.7244
X6.8898Y-4.7244
X7.0472Y-3.3858
X7.126Y-4.2913
X7.9331Y-3.7402
X8.0512Y-3.7402
T2
X5.0075Y-4.6138
X5.0075Y-4.7138
X5.0075Y-4.8138
X5.0075Y-4.9138
X5.3075Y-4.6138
X5.3075Y-4.7138
X5.3075Y-4.8138
X5.3075Y-4.9138
X5.4407Y-3.7008
X5.4407Y-3.8008
X5.7407Y-3.7008
X5.7407Y-3.8008
X6.6219Y-3.7008
X6.6219Y-3.8008
X6.9219Y-3.7008
X6.9219Y-3.8008
T3
X8.4252Y-1.8504
X8.5252Y-1.8504
T4
X4.4291Y-4.7717
X4.5276Y-4.7717
X4.6063Y-1.8504
X4.626Y-4.7717
X4.7047Y-1.8504
X4.7244Y-4.7717
X4.8031Y-1.8504
T5
X4.9213Y-3.751
X5.0197Y-3.751
X5.5709Y-1.8504
X5.6693Y-1.8504
X5.7087Y-4.6063
X5.7087Y-4.9055
X5.9449Y-1.8504
X6.0433Y-1.8504
X6.1024Y-3.751
X6.2008Y-3.751
X6.811Y-1.8504
X6.9094Y-1.8504
X7.2835Y-3.751
X7.3819Y-3.751
X8.4646Y-3.751
X8.563Y-3.751
T6
X6.0992Y-4.5638
X6.0992Y-4.9638
X6.1992Y-4.4638
X6.1992Y-5.0638
X6.2992Y-4.4638
X6.2992Y-4.5638
X6.2992Y-5.0638
X6.3992Y-4.4638
X6.3992Y-5.0638
X6.4992Y-4.4638
X6.4992Y-5.0638
X6.5992Y-4.4638
X6.5992Y-5.0638
X6.6992Y-4.4638
X6.6992Y-5.0638
X6.7992Y-4.4638
X6.7992Y-5.0638
X6.8992Y-4.4638
X6.8992Y-5.0638
X6.9992Y-4.4638
X6.9992Y-5.0638
X7.0992Y-4.4638
X7.0992Y-5.0638
X7.1992Y-4.4638
X7.1992Y-5.0638
X7.2992Y-4.4638
X7.2992Y-5.0638
X7.3992Y-4.4638
X7.3992Y-5.0638
X7.4992Y-4.4638
X7.4992Y-5.0638
X7.5992Y-4.4638
X7.5992Y-5.0638
T7
X4.1732Y-2.7528
X4.1732Y-3.1528
T8
X5.1969Y-2.8528
X5.1969Y-2.9528
X5.1969Y-3.0528
X6.378Y-2.8528
X6.378Y-2.9528
X6.378Y-3.0528
X7.5591Y-2.8528
X7.5591Y-2.9528
X7.5591Y-3.0528
X8.7402Y-2.8528
X8.7402Y-2.9528
X8.7402Y-3.0528
T9
X5.0787Y-1.8504
X5.2787Y-1.8504
X6.3386Y-1.8504
X6.5386Y-1.8504
X7.1622Y-1.8504
X7.3622Y-1.8504
X7.5953Y-1.8504
X7.7953Y-1.8504
X8.0283Y-1.8504
X8.2283Y-1.8504
M30
