%TF.GenerationSoftware,KiCad,Pcbnew,9.0.3*%
%TF.CreationDate,2025-08-15T05:26:35+02:00*%
%TF.ProjectId,banc_rodage_pcb,62616e63-5f72-46f6-9461-67655f706362,rev?*%
%TF.SameCoordinates,Original*%
%TF.FileFunction,Legend,Top*%
%TF.FilePolarity,Positive*%
%FSLAX46Y46*%
G04 Gerber Fmt 4.6, Leading zero omitted, Abs format (unit mm)*
G04 Created by KiCad (PCBNEW 9.0.3) date 2025-08-15 05:26:35*
%MOMM*%
%LPD*%
G01*
G04 APERTURE LIST*
%ADD10C,0.200000*%
%ADD11C,0.100000*%
%ADD12C,0.300000*%
%ADD13C,0.150000*%
%ADD14C,0.120000*%
%ADD15C,0.000000*%
G04 APERTURE END LIST*
D10*
X133954136Y-39300114D02*
X134068422Y-39357257D01*
X134068422Y-39357257D02*
X134239850Y-39357257D01*
X134239850Y-39357257D02*
X134411279Y-39300114D01*
X134411279Y-39300114D02*
X134525564Y-39185828D01*
X134525564Y-39185828D02*
X134582707Y-39071542D01*
X134582707Y-39071542D02*
X134639850Y-38842971D01*
X134639850Y-38842971D02*
X134639850Y-38671542D01*
X134639850Y-38671542D02*
X134582707Y-38442971D01*
X134582707Y-38442971D02*
X134525564Y-38328685D01*
X134525564Y-38328685D02*
X134411279Y-38214400D01*
X134411279Y-38214400D02*
X134239850Y-38157257D01*
X134239850Y-38157257D02*
X134125564Y-38157257D01*
X134125564Y-38157257D02*
X133954136Y-38214400D01*
X133954136Y-38214400D02*
X133896993Y-38271542D01*
X133896993Y-38271542D02*
X133896993Y-38671542D01*
X133896993Y-38671542D02*
X134125564Y-38671542D01*
X133382707Y-38157257D02*
X133382707Y-39357257D01*
X133382707Y-39357257D02*
X132696993Y-38157257D01*
X132696993Y-38157257D02*
X132696993Y-39357257D01*
X132125564Y-38157257D02*
X132125564Y-39357257D01*
X132125564Y-39357257D02*
X131839850Y-39357257D01*
X131839850Y-39357257D02*
X131668421Y-39300114D01*
X131668421Y-39300114D02*
X131554136Y-39185828D01*
X131554136Y-39185828D02*
X131496993Y-39071542D01*
X131496993Y-39071542D02*
X131439850Y-38842971D01*
X131439850Y-38842971D02*
X131439850Y-38671542D01*
X131439850Y-38671542D02*
X131496993Y-38442971D01*
X131496993Y-38442971D02*
X131554136Y-38328685D01*
X131554136Y-38328685D02*
X131668421Y-38214400D01*
X131668421Y-38214400D02*
X131839850Y-38157257D01*
X131839850Y-38157257D02*
X132125564Y-38157257D01*
X130068421Y-39242971D02*
X130011278Y-39300114D01*
X130011278Y-39300114D02*
X129896993Y-39357257D01*
X129896993Y-39357257D02*
X129611278Y-39357257D01*
X129611278Y-39357257D02*
X129496993Y-39300114D01*
X129496993Y-39300114D02*
X129439850Y-39242971D01*
X129439850Y-39242971D02*
X129382707Y-39128685D01*
X129382707Y-39128685D02*
X129382707Y-39014400D01*
X129382707Y-39014400D02*
X129439850Y-38842971D01*
X129439850Y-38842971D02*
X130125564Y-38157257D01*
X130125564Y-38157257D02*
X129382707Y-38157257D01*
X128354136Y-38957257D02*
X128354136Y-38157257D01*
X128639850Y-39414400D02*
X128925564Y-38557257D01*
X128925564Y-38557257D02*
X128182707Y-38557257D01*
X127839850Y-38957257D02*
X127554136Y-38157257D01*
X127554136Y-38157257D02*
X127268421Y-38957257D01*
X113028572Y-127110809D02*
X113028572Y-127910809D01*
X113028572Y-127225095D02*
X113085715Y-127167952D01*
X113085715Y-127167952D02*
X113200000Y-127110809D01*
X113200000Y-127110809D02*
X113371429Y-127110809D01*
X113371429Y-127110809D02*
X113485715Y-127167952D01*
X113485715Y-127167952D02*
X113542858Y-127282238D01*
X113542858Y-127282238D02*
X113542858Y-127910809D01*
X114571429Y-127853667D02*
X114457143Y-127910809D01*
X114457143Y-127910809D02*
X114228572Y-127910809D01*
X114228572Y-127910809D02*
X114114286Y-127853667D01*
X114114286Y-127853667D02*
X114057143Y-127739381D01*
X114057143Y-127739381D02*
X114057143Y-127282238D01*
X114057143Y-127282238D02*
X114114286Y-127167952D01*
X114114286Y-127167952D02*
X114228572Y-127110809D01*
X114228572Y-127110809D02*
X114457143Y-127110809D01*
X114457143Y-127110809D02*
X114571429Y-127167952D01*
X114571429Y-127167952D02*
X114628572Y-127282238D01*
X114628572Y-127282238D02*
X114628572Y-127396524D01*
X114628572Y-127396524D02*
X114057143Y-127510809D01*
X115028571Y-127910809D02*
X115657143Y-127110809D01*
X115028571Y-127110809D02*
X115657143Y-127910809D01*
X115942857Y-127110809D02*
X116400000Y-127110809D01*
X116114286Y-126710809D02*
X116114286Y-127739381D01*
X116114286Y-127739381D02*
X116171429Y-127853667D01*
X116171429Y-127853667D02*
X116285714Y-127910809D01*
X116285714Y-127910809D02*
X116400000Y-127910809D01*
X116800000Y-127910809D02*
X116800000Y-127110809D01*
X116800000Y-126710809D02*
X116742857Y-126767952D01*
X116742857Y-126767952D02*
X116800000Y-126825095D01*
X116800000Y-126825095D02*
X116857143Y-126767952D01*
X116857143Y-126767952D02*
X116800000Y-126710809D01*
X116800000Y-126710809D02*
X116800000Y-126825095D01*
X117542857Y-127910809D02*
X117428572Y-127853667D01*
X117428572Y-127853667D02*
X117371429Y-127796524D01*
X117371429Y-127796524D02*
X117314286Y-127682238D01*
X117314286Y-127682238D02*
X117314286Y-127339381D01*
X117314286Y-127339381D02*
X117371429Y-127225095D01*
X117371429Y-127225095D02*
X117428572Y-127167952D01*
X117428572Y-127167952D02*
X117542857Y-127110809D01*
X117542857Y-127110809D02*
X117714286Y-127110809D01*
X117714286Y-127110809D02*
X117828572Y-127167952D01*
X117828572Y-127167952D02*
X117885715Y-127225095D01*
X117885715Y-127225095D02*
X117942857Y-127339381D01*
X117942857Y-127339381D02*
X117942857Y-127682238D01*
X117942857Y-127682238D02*
X117885715Y-127796524D01*
X117885715Y-127796524D02*
X117828572Y-127853667D01*
X117828572Y-127853667D02*
X117714286Y-127910809D01*
X117714286Y-127910809D02*
X117542857Y-127910809D01*
X118457143Y-127110809D02*
X118457143Y-127910809D01*
X118457143Y-127225095D02*
X118514286Y-127167952D01*
X118514286Y-127167952D02*
X118628571Y-127110809D01*
X118628571Y-127110809D02*
X118800000Y-127110809D01*
X118800000Y-127110809D02*
X118914286Y-127167952D01*
X118914286Y-127167952D02*
X118971429Y-127282238D01*
X118971429Y-127282238D02*
X118971429Y-127910809D01*
X110428570Y-128642742D02*
X109857142Y-128642742D01*
X109857142Y-128642742D02*
X109799999Y-129214171D01*
X109799999Y-129214171D02*
X109857142Y-129157028D01*
X109857142Y-129157028D02*
X109971428Y-129099885D01*
X109971428Y-129099885D02*
X110257142Y-129099885D01*
X110257142Y-129099885D02*
X110371428Y-129157028D01*
X110371428Y-129157028D02*
X110428570Y-129214171D01*
X110428570Y-129214171D02*
X110485713Y-129328457D01*
X110485713Y-129328457D02*
X110485713Y-129614171D01*
X110485713Y-129614171D02*
X110428570Y-129728457D01*
X110428570Y-129728457D02*
X110371428Y-129785600D01*
X110371428Y-129785600D02*
X110257142Y-129842742D01*
X110257142Y-129842742D02*
X109971428Y-129842742D01*
X109971428Y-129842742D02*
X109857142Y-129785600D01*
X109857142Y-129785600D02*
X109799999Y-129728457D01*
X110885713Y-129042742D02*
X111171427Y-129842742D01*
X111171427Y-129842742D02*
X111457142Y-129042742D01*
X113514285Y-129842742D02*
X113114285Y-129271314D01*
X112828571Y-129842742D02*
X112828571Y-128642742D01*
X112828571Y-128642742D02*
X113285714Y-128642742D01*
X113285714Y-128642742D02*
X113399999Y-128699885D01*
X113399999Y-128699885D02*
X113457142Y-128757028D01*
X113457142Y-128757028D02*
X113514285Y-128871314D01*
X113514285Y-128871314D02*
X113514285Y-129042742D01*
X113514285Y-129042742D02*
X113457142Y-129157028D01*
X113457142Y-129157028D02*
X113399999Y-129214171D01*
X113399999Y-129214171D02*
X113285714Y-129271314D01*
X113285714Y-129271314D02*
X112828571Y-129271314D01*
X113914285Y-128642742D02*
X114714285Y-129842742D01*
X114714285Y-128642742D02*
X113914285Y-129842742D01*
X115914285Y-128642742D02*
X116600000Y-128642742D01*
X116257142Y-129842742D02*
X116257142Y-128642742D01*
X116885714Y-128642742D02*
X117685714Y-129842742D01*
X117685714Y-128642742D02*
X116885714Y-129842742D01*
X119685714Y-128699885D02*
X119571429Y-128642742D01*
X119571429Y-128642742D02*
X119400000Y-128642742D01*
X119400000Y-128642742D02*
X119228571Y-128699885D01*
X119228571Y-128699885D02*
X119114286Y-128814171D01*
X119114286Y-128814171D02*
X119057143Y-128928457D01*
X119057143Y-128928457D02*
X119000000Y-129157028D01*
X119000000Y-129157028D02*
X119000000Y-129328457D01*
X119000000Y-129328457D02*
X119057143Y-129557028D01*
X119057143Y-129557028D02*
X119114286Y-129671314D01*
X119114286Y-129671314D02*
X119228571Y-129785600D01*
X119228571Y-129785600D02*
X119400000Y-129842742D01*
X119400000Y-129842742D02*
X119514286Y-129842742D01*
X119514286Y-129842742D02*
X119685714Y-129785600D01*
X119685714Y-129785600D02*
X119742857Y-129728457D01*
X119742857Y-129728457D02*
X119742857Y-129328457D01*
X119742857Y-129328457D02*
X119514286Y-129328457D01*
X120257143Y-129842742D02*
X120257143Y-128642742D01*
X120257143Y-128642742D02*
X120942857Y-129842742D01*
X120942857Y-129842742D02*
X120942857Y-128642742D01*
X121514286Y-129842742D02*
X121514286Y-128642742D01*
X121514286Y-128642742D02*
X121800000Y-128642742D01*
X121800000Y-128642742D02*
X121971429Y-128699885D01*
X121971429Y-128699885D02*
X122085714Y-128814171D01*
X122085714Y-128814171D02*
X122142857Y-128928457D01*
X122142857Y-128928457D02*
X122200000Y-129157028D01*
X122200000Y-129157028D02*
X122200000Y-129328457D01*
X122200000Y-129328457D02*
X122142857Y-129557028D01*
X122142857Y-129557028D02*
X122085714Y-129671314D01*
X122085714Y-129671314D02*
X121971429Y-129785600D01*
X121971429Y-129785600D02*
X121800000Y-129842742D01*
X121800000Y-129842742D02*
X121514286Y-129842742D01*
X187874136Y-39300114D02*
X187988422Y-39357257D01*
X187988422Y-39357257D02*
X188159850Y-39357257D01*
X188159850Y-39357257D02*
X188331279Y-39300114D01*
X188331279Y-39300114D02*
X188445564Y-39185828D01*
X188445564Y-39185828D02*
X188502707Y-39071542D01*
X188502707Y-39071542D02*
X188559850Y-38842971D01*
X188559850Y-38842971D02*
X188559850Y-38671542D01*
X188559850Y-38671542D02*
X188502707Y-38442971D01*
X188502707Y-38442971D02*
X188445564Y-38328685D01*
X188445564Y-38328685D02*
X188331279Y-38214400D01*
X188331279Y-38214400D02*
X188159850Y-38157257D01*
X188159850Y-38157257D02*
X188045564Y-38157257D01*
X188045564Y-38157257D02*
X187874136Y-38214400D01*
X187874136Y-38214400D02*
X187816993Y-38271542D01*
X187816993Y-38271542D02*
X187816993Y-38671542D01*
X187816993Y-38671542D02*
X188045564Y-38671542D01*
X187302707Y-38157257D02*
X187302707Y-39357257D01*
X187302707Y-39357257D02*
X186616993Y-38157257D01*
X186616993Y-38157257D02*
X186616993Y-39357257D01*
X186045564Y-38157257D02*
X186045564Y-39357257D01*
X186045564Y-39357257D02*
X185759850Y-39357257D01*
X185759850Y-39357257D02*
X185588421Y-39300114D01*
X185588421Y-39300114D02*
X185474136Y-39185828D01*
X185474136Y-39185828D02*
X185416993Y-39071542D01*
X185416993Y-39071542D02*
X185359850Y-38842971D01*
X185359850Y-38842971D02*
X185359850Y-38671542D01*
X185359850Y-38671542D02*
X185416993Y-38442971D01*
X185416993Y-38442971D02*
X185474136Y-38328685D01*
X185474136Y-38328685D02*
X185588421Y-38214400D01*
X185588421Y-38214400D02*
X185759850Y-38157257D01*
X185759850Y-38157257D02*
X186045564Y-38157257D01*
X183988421Y-39242971D02*
X183931278Y-39300114D01*
X183931278Y-39300114D02*
X183816993Y-39357257D01*
X183816993Y-39357257D02*
X183531278Y-39357257D01*
X183531278Y-39357257D02*
X183416993Y-39300114D01*
X183416993Y-39300114D02*
X183359850Y-39242971D01*
X183359850Y-39242971D02*
X183302707Y-39128685D01*
X183302707Y-39128685D02*
X183302707Y-39014400D01*
X183302707Y-39014400D02*
X183359850Y-38842971D01*
X183359850Y-38842971D02*
X184045564Y-38157257D01*
X184045564Y-38157257D02*
X183302707Y-38157257D01*
X182274136Y-38957257D02*
X182274136Y-38157257D01*
X182559850Y-39414400D02*
X182845564Y-38557257D01*
X182845564Y-38557257D02*
X182102707Y-38557257D01*
X181759850Y-38957257D02*
X181474136Y-38157257D01*
X181474136Y-38157257D02*
X181188421Y-38957257D01*
X166954136Y-39300114D02*
X167068422Y-39357257D01*
X167068422Y-39357257D02*
X167239850Y-39357257D01*
X167239850Y-39357257D02*
X167411279Y-39300114D01*
X167411279Y-39300114D02*
X167525564Y-39185828D01*
X167525564Y-39185828D02*
X167582707Y-39071542D01*
X167582707Y-39071542D02*
X167639850Y-38842971D01*
X167639850Y-38842971D02*
X167639850Y-38671542D01*
X167639850Y-38671542D02*
X167582707Y-38442971D01*
X167582707Y-38442971D02*
X167525564Y-38328685D01*
X167525564Y-38328685D02*
X167411279Y-38214400D01*
X167411279Y-38214400D02*
X167239850Y-38157257D01*
X167239850Y-38157257D02*
X167125564Y-38157257D01*
X167125564Y-38157257D02*
X166954136Y-38214400D01*
X166954136Y-38214400D02*
X166896993Y-38271542D01*
X166896993Y-38271542D02*
X166896993Y-38671542D01*
X166896993Y-38671542D02*
X167125564Y-38671542D01*
X166382707Y-38157257D02*
X166382707Y-39357257D01*
X166382707Y-39357257D02*
X165696993Y-38157257D01*
X165696993Y-38157257D02*
X165696993Y-39357257D01*
X165125564Y-38157257D02*
X165125564Y-39357257D01*
X165125564Y-39357257D02*
X164839850Y-39357257D01*
X164839850Y-39357257D02*
X164668421Y-39300114D01*
X164668421Y-39300114D02*
X164554136Y-39185828D01*
X164554136Y-39185828D02*
X164496993Y-39071542D01*
X164496993Y-39071542D02*
X164439850Y-38842971D01*
X164439850Y-38842971D02*
X164439850Y-38671542D01*
X164439850Y-38671542D02*
X164496993Y-38442971D01*
X164496993Y-38442971D02*
X164554136Y-38328685D01*
X164554136Y-38328685D02*
X164668421Y-38214400D01*
X164668421Y-38214400D02*
X164839850Y-38157257D01*
X164839850Y-38157257D02*
X165125564Y-38157257D01*
X163068421Y-39242971D02*
X163011278Y-39300114D01*
X163011278Y-39300114D02*
X162896993Y-39357257D01*
X162896993Y-39357257D02*
X162611278Y-39357257D01*
X162611278Y-39357257D02*
X162496993Y-39300114D01*
X162496993Y-39300114D02*
X162439850Y-39242971D01*
X162439850Y-39242971D02*
X162382707Y-39128685D01*
X162382707Y-39128685D02*
X162382707Y-39014400D01*
X162382707Y-39014400D02*
X162439850Y-38842971D01*
X162439850Y-38842971D02*
X163125564Y-38157257D01*
X163125564Y-38157257D02*
X162382707Y-38157257D01*
X161354136Y-38957257D02*
X161354136Y-38157257D01*
X161639850Y-39414400D02*
X161925564Y-38557257D01*
X161925564Y-38557257D02*
X161182707Y-38557257D01*
X160839850Y-38957257D02*
X160554136Y-38157257D01*
X160554136Y-38157257D02*
X160268421Y-38957257D01*
X198874136Y-39300114D02*
X198988422Y-39357257D01*
X198988422Y-39357257D02*
X199159850Y-39357257D01*
X199159850Y-39357257D02*
X199331279Y-39300114D01*
X199331279Y-39300114D02*
X199445564Y-39185828D01*
X199445564Y-39185828D02*
X199502707Y-39071542D01*
X199502707Y-39071542D02*
X199559850Y-38842971D01*
X199559850Y-38842971D02*
X199559850Y-38671542D01*
X199559850Y-38671542D02*
X199502707Y-38442971D01*
X199502707Y-38442971D02*
X199445564Y-38328685D01*
X199445564Y-38328685D02*
X199331279Y-38214400D01*
X199331279Y-38214400D02*
X199159850Y-38157257D01*
X199159850Y-38157257D02*
X199045564Y-38157257D01*
X199045564Y-38157257D02*
X198874136Y-38214400D01*
X198874136Y-38214400D02*
X198816993Y-38271542D01*
X198816993Y-38271542D02*
X198816993Y-38671542D01*
X198816993Y-38671542D02*
X199045564Y-38671542D01*
X198302707Y-38157257D02*
X198302707Y-39357257D01*
X198302707Y-39357257D02*
X197616993Y-38157257D01*
X197616993Y-38157257D02*
X197616993Y-39357257D01*
X197045564Y-38157257D02*
X197045564Y-39357257D01*
X197045564Y-39357257D02*
X196759850Y-39357257D01*
X196759850Y-39357257D02*
X196588421Y-39300114D01*
X196588421Y-39300114D02*
X196474136Y-39185828D01*
X196474136Y-39185828D02*
X196416993Y-39071542D01*
X196416993Y-39071542D02*
X196359850Y-38842971D01*
X196359850Y-38842971D02*
X196359850Y-38671542D01*
X196359850Y-38671542D02*
X196416993Y-38442971D01*
X196416993Y-38442971D02*
X196474136Y-38328685D01*
X196474136Y-38328685D02*
X196588421Y-38214400D01*
X196588421Y-38214400D02*
X196759850Y-38157257D01*
X196759850Y-38157257D02*
X197045564Y-38157257D01*
X194988421Y-39242971D02*
X194931278Y-39300114D01*
X194931278Y-39300114D02*
X194816993Y-39357257D01*
X194816993Y-39357257D02*
X194531278Y-39357257D01*
X194531278Y-39357257D02*
X194416993Y-39300114D01*
X194416993Y-39300114D02*
X194359850Y-39242971D01*
X194359850Y-39242971D02*
X194302707Y-39128685D01*
X194302707Y-39128685D02*
X194302707Y-39014400D01*
X194302707Y-39014400D02*
X194359850Y-38842971D01*
X194359850Y-38842971D02*
X195045564Y-38157257D01*
X195045564Y-38157257D02*
X194302707Y-38157257D01*
X193274136Y-38957257D02*
X193274136Y-38157257D01*
X193559850Y-39414400D02*
X193845564Y-38557257D01*
X193845564Y-38557257D02*
X193102707Y-38557257D01*
X192759850Y-38957257D02*
X192474136Y-38157257D01*
X192474136Y-38157257D02*
X192188421Y-38957257D01*
X123011279Y-39857257D02*
X123582707Y-39857257D01*
X123582707Y-39857257D02*
X123639850Y-39285828D01*
X123639850Y-39285828D02*
X123582707Y-39342971D01*
X123582707Y-39342971D02*
X123468422Y-39400114D01*
X123468422Y-39400114D02*
X123182707Y-39400114D01*
X123182707Y-39400114D02*
X123068422Y-39342971D01*
X123068422Y-39342971D02*
X123011279Y-39285828D01*
X123011279Y-39285828D02*
X122954136Y-39171542D01*
X122954136Y-39171542D02*
X122954136Y-38885828D01*
X122954136Y-38885828D02*
X123011279Y-38771542D01*
X123011279Y-38771542D02*
X123068422Y-38714400D01*
X123068422Y-38714400D02*
X123182707Y-38657257D01*
X123182707Y-38657257D02*
X123468422Y-38657257D01*
X123468422Y-38657257D02*
X123582707Y-38714400D01*
X123582707Y-38714400D02*
X123639850Y-38771542D01*
X122554136Y-39457257D02*
X122268422Y-38657257D01*
X122268422Y-38657257D02*
X121982707Y-39457257D01*
X119982707Y-39800114D02*
X120096993Y-39857257D01*
X120096993Y-39857257D02*
X120268421Y-39857257D01*
X120268421Y-39857257D02*
X120439850Y-39800114D01*
X120439850Y-39800114D02*
X120554135Y-39685828D01*
X120554135Y-39685828D02*
X120611278Y-39571542D01*
X120611278Y-39571542D02*
X120668421Y-39342971D01*
X120668421Y-39342971D02*
X120668421Y-39171542D01*
X120668421Y-39171542D02*
X120611278Y-38942971D01*
X120611278Y-38942971D02*
X120554135Y-38828685D01*
X120554135Y-38828685D02*
X120439850Y-38714400D01*
X120439850Y-38714400D02*
X120268421Y-38657257D01*
X120268421Y-38657257D02*
X120154135Y-38657257D01*
X120154135Y-38657257D02*
X119982707Y-38714400D01*
X119982707Y-38714400D02*
X119925564Y-38771542D01*
X119925564Y-38771542D02*
X119925564Y-39171542D01*
X119925564Y-39171542D02*
X120154135Y-39171542D01*
X119411278Y-38657257D02*
X119411278Y-39857257D01*
X119411278Y-39857257D02*
X118725564Y-38657257D01*
X118725564Y-38657257D02*
X118725564Y-39857257D01*
X118154135Y-38657257D02*
X118154135Y-39857257D01*
X118154135Y-39857257D02*
X117868421Y-39857257D01*
X117868421Y-39857257D02*
X117696992Y-39800114D01*
X117696992Y-39800114D02*
X117582707Y-39685828D01*
X117582707Y-39685828D02*
X117525564Y-39571542D01*
X117525564Y-39571542D02*
X117468421Y-39342971D01*
X117468421Y-39342971D02*
X117468421Y-39171542D01*
X117468421Y-39171542D02*
X117525564Y-38942971D01*
X117525564Y-38942971D02*
X117582707Y-38828685D01*
X117582707Y-38828685D02*
X117696992Y-38714400D01*
X117696992Y-38714400D02*
X117868421Y-38657257D01*
X117868421Y-38657257D02*
X118154135Y-38657257D01*
X116096992Y-38714400D02*
X115925564Y-38657257D01*
X115925564Y-38657257D02*
X115639849Y-38657257D01*
X115639849Y-38657257D02*
X115525564Y-38714400D01*
X115525564Y-38714400D02*
X115468421Y-38771542D01*
X115468421Y-38771542D02*
X115411278Y-38885828D01*
X115411278Y-38885828D02*
X115411278Y-39000114D01*
X115411278Y-39000114D02*
X115468421Y-39114400D01*
X115468421Y-39114400D02*
X115525564Y-39171542D01*
X115525564Y-39171542D02*
X115639849Y-39228685D01*
X115639849Y-39228685D02*
X115868421Y-39285828D01*
X115868421Y-39285828D02*
X115982706Y-39342971D01*
X115982706Y-39342971D02*
X116039849Y-39400114D01*
X116039849Y-39400114D02*
X116096992Y-39514400D01*
X116096992Y-39514400D02*
X116096992Y-39628685D01*
X116096992Y-39628685D02*
X116039849Y-39742971D01*
X116039849Y-39742971D02*
X115982706Y-39800114D01*
X115982706Y-39800114D02*
X115868421Y-39857257D01*
X115868421Y-39857257D02*
X115582706Y-39857257D01*
X115582706Y-39857257D02*
X115411278Y-39800114D01*
X209874136Y-39300114D02*
X209988422Y-39357257D01*
X209988422Y-39357257D02*
X210159850Y-39357257D01*
X210159850Y-39357257D02*
X210331279Y-39300114D01*
X210331279Y-39300114D02*
X210445564Y-39185828D01*
X210445564Y-39185828D02*
X210502707Y-39071542D01*
X210502707Y-39071542D02*
X210559850Y-38842971D01*
X210559850Y-38842971D02*
X210559850Y-38671542D01*
X210559850Y-38671542D02*
X210502707Y-38442971D01*
X210502707Y-38442971D02*
X210445564Y-38328685D01*
X210445564Y-38328685D02*
X210331279Y-38214400D01*
X210331279Y-38214400D02*
X210159850Y-38157257D01*
X210159850Y-38157257D02*
X210045564Y-38157257D01*
X210045564Y-38157257D02*
X209874136Y-38214400D01*
X209874136Y-38214400D02*
X209816993Y-38271542D01*
X209816993Y-38271542D02*
X209816993Y-38671542D01*
X209816993Y-38671542D02*
X210045564Y-38671542D01*
X209302707Y-38157257D02*
X209302707Y-39357257D01*
X209302707Y-39357257D02*
X208616993Y-38157257D01*
X208616993Y-38157257D02*
X208616993Y-39357257D01*
X208045564Y-38157257D02*
X208045564Y-39357257D01*
X208045564Y-39357257D02*
X207759850Y-39357257D01*
X207759850Y-39357257D02*
X207588421Y-39300114D01*
X207588421Y-39300114D02*
X207474136Y-39185828D01*
X207474136Y-39185828D02*
X207416993Y-39071542D01*
X207416993Y-39071542D02*
X207359850Y-38842971D01*
X207359850Y-38842971D02*
X207359850Y-38671542D01*
X207359850Y-38671542D02*
X207416993Y-38442971D01*
X207416993Y-38442971D02*
X207474136Y-38328685D01*
X207474136Y-38328685D02*
X207588421Y-38214400D01*
X207588421Y-38214400D02*
X207759850Y-38157257D01*
X207759850Y-38157257D02*
X208045564Y-38157257D01*
X205359850Y-39357257D02*
X205931278Y-39357257D01*
X205931278Y-39357257D02*
X205988421Y-38785828D01*
X205988421Y-38785828D02*
X205931278Y-38842971D01*
X205931278Y-38842971D02*
X205816993Y-38900114D01*
X205816993Y-38900114D02*
X205531278Y-38900114D01*
X205531278Y-38900114D02*
X205416993Y-38842971D01*
X205416993Y-38842971D02*
X205359850Y-38785828D01*
X205359850Y-38785828D02*
X205302707Y-38671542D01*
X205302707Y-38671542D02*
X205302707Y-38385828D01*
X205302707Y-38385828D02*
X205359850Y-38271542D01*
X205359850Y-38271542D02*
X205416993Y-38214400D01*
X205416993Y-38214400D02*
X205531278Y-38157257D01*
X205531278Y-38157257D02*
X205816993Y-38157257D01*
X205816993Y-38157257D02*
X205931278Y-38214400D01*
X205931278Y-38214400D02*
X205988421Y-38271542D01*
X204902707Y-38957257D02*
X204616993Y-38157257D01*
X204616993Y-38157257D02*
X204331278Y-38957257D01*
X178082707Y-38157257D02*
X178082707Y-39357257D01*
X178082707Y-39357257D02*
X177396993Y-38157257D01*
X177396993Y-38157257D02*
X177396993Y-39357257D01*
X176996993Y-39357257D02*
X176311279Y-39357257D01*
X176654136Y-38157257D02*
X176654136Y-39357257D01*
X175225564Y-38271542D02*
X175282707Y-38214400D01*
X175282707Y-38214400D02*
X175454135Y-38157257D01*
X175454135Y-38157257D02*
X175568421Y-38157257D01*
X175568421Y-38157257D02*
X175739850Y-38214400D01*
X175739850Y-38214400D02*
X175854135Y-38328685D01*
X175854135Y-38328685D02*
X175911278Y-38442971D01*
X175911278Y-38442971D02*
X175968421Y-38671542D01*
X175968421Y-38671542D02*
X175968421Y-38842971D01*
X175968421Y-38842971D02*
X175911278Y-39071542D01*
X175911278Y-39071542D02*
X175854135Y-39185828D01*
X175854135Y-39185828D02*
X175739850Y-39300114D01*
X175739850Y-39300114D02*
X175568421Y-39357257D01*
X175568421Y-39357257D02*
X175454135Y-39357257D01*
X175454135Y-39357257D02*
X175282707Y-39300114D01*
X175282707Y-39300114D02*
X175225564Y-39242971D01*
X174996993Y-38042971D02*
X174082707Y-38042971D01*
X173568421Y-39357257D02*
X173339849Y-39357257D01*
X173339849Y-39357257D02*
X173225564Y-39300114D01*
X173225564Y-39300114D02*
X173111278Y-39185828D01*
X173111278Y-39185828D02*
X173054135Y-38957257D01*
X173054135Y-38957257D02*
X173054135Y-38557257D01*
X173054135Y-38557257D02*
X173111278Y-38328685D01*
X173111278Y-38328685D02*
X173225564Y-38214400D01*
X173225564Y-38214400D02*
X173339849Y-38157257D01*
X173339849Y-38157257D02*
X173568421Y-38157257D01*
X173568421Y-38157257D02*
X173682707Y-38214400D01*
X173682707Y-38214400D02*
X173796992Y-38328685D01*
X173796992Y-38328685D02*
X173854135Y-38557257D01*
X173854135Y-38557257D02*
X173854135Y-38957257D01*
X173854135Y-38957257D02*
X173796992Y-39185828D01*
X173796992Y-39185828D02*
X173682707Y-39300114D01*
X173682707Y-39300114D02*
X173568421Y-39357257D01*
X172539849Y-38157257D02*
X172539849Y-39357257D01*
X171396992Y-38157257D02*
X171968420Y-38157257D01*
X171968420Y-38157257D02*
X171968420Y-39357257D01*
X146082707Y-38157257D02*
X146082707Y-39357257D01*
X146082707Y-39357257D02*
X145396993Y-38157257D01*
X145396993Y-38157257D02*
X145396993Y-39357257D01*
X144996993Y-39357257D02*
X144311279Y-39357257D01*
X144654136Y-38157257D02*
X144654136Y-39357257D01*
X143225564Y-38271542D02*
X143282707Y-38214400D01*
X143282707Y-38214400D02*
X143454135Y-38157257D01*
X143454135Y-38157257D02*
X143568421Y-38157257D01*
X143568421Y-38157257D02*
X143739850Y-38214400D01*
X143739850Y-38214400D02*
X143854135Y-38328685D01*
X143854135Y-38328685D02*
X143911278Y-38442971D01*
X143911278Y-38442971D02*
X143968421Y-38671542D01*
X143968421Y-38671542D02*
X143968421Y-38842971D01*
X143968421Y-38842971D02*
X143911278Y-39071542D01*
X143911278Y-39071542D02*
X143854135Y-39185828D01*
X143854135Y-39185828D02*
X143739850Y-39300114D01*
X143739850Y-39300114D02*
X143568421Y-39357257D01*
X143568421Y-39357257D02*
X143454135Y-39357257D01*
X143454135Y-39357257D02*
X143282707Y-39300114D01*
X143282707Y-39300114D02*
X143225564Y-39242971D01*
X142996993Y-38042971D02*
X142082707Y-38042971D01*
X141796992Y-38157257D02*
X141796992Y-39357257D01*
X141796992Y-39357257D02*
X141396992Y-38500114D01*
X141396992Y-38500114D02*
X140996992Y-39357257D01*
X140996992Y-39357257D02*
X140996992Y-38157257D01*
X140196992Y-39357257D02*
X139968420Y-39357257D01*
X139968420Y-39357257D02*
X139854135Y-39300114D01*
X139854135Y-39300114D02*
X139739849Y-39185828D01*
X139739849Y-39185828D02*
X139682706Y-38957257D01*
X139682706Y-38957257D02*
X139682706Y-38557257D01*
X139682706Y-38557257D02*
X139739849Y-38328685D01*
X139739849Y-38328685D02*
X139854135Y-38214400D01*
X139854135Y-38214400D02*
X139968420Y-38157257D01*
X139968420Y-38157257D02*
X140196992Y-38157257D01*
X140196992Y-38157257D02*
X140311278Y-38214400D01*
X140311278Y-38214400D02*
X140425563Y-38328685D01*
X140425563Y-38328685D02*
X140482706Y-38557257D01*
X140482706Y-38557257D02*
X140482706Y-38957257D01*
X140482706Y-38957257D02*
X140425563Y-39185828D01*
X140425563Y-39185828D02*
X140311278Y-39300114D01*
X140311278Y-39300114D02*
X140196992Y-39357257D01*
X139339849Y-39357257D02*
X138654135Y-39357257D01*
X138996992Y-38157257D02*
X138996992Y-39357257D01*
X138025563Y-39357257D02*
X137796991Y-39357257D01*
X137796991Y-39357257D02*
X137682706Y-39300114D01*
X137682706Y-39300114D02*
X137568420Y-39185828D01*
X137568420Y-39185828D02*
X137511277Y-38957257D01*
X137511277Y-38957257D02*
X137511277Y-38557257D01*
X137511277Y-38557257D02*
X137568420Y-38328685D01*
X137568420Y-38328685D02*
X137682706Y-38214400D01*
X137682706Y-38214400D02*
X137796991Y-38157257D01*
X137796991Y-38157257D02*
X138025563Y-38157257D01*
X138025563Y-38157257D02*
X138139849Y-38214400D01*
X138139849Y-38214400D02*
X138254134Y-38328685D01*
X138254134Y-38328685D02*
X138311277Y-38557257D01*
X138311277Y-38557257D02*
X138311277Y-38957257D01*
X138311277Y-38957257D02*
X138254134Y-39185828D01*
X138254134Y-39185828D02*
X138139849Y-39300114D01*
X138139849Y-39300114D02*
X138025563Y-39357257D01*
X136311277Y-38157257D02*
X136711277Y-38728685D01*
X136996991Y-38157257D02*
X136996991Y-39357257D01*
X136996991Y-39357257D02*
X136539848Y-39357257D01*
X136539848Y-39357257D02*
X136425563Y-39300114D01*
X136425563Y-39300114D02*
X136368420Y-39242971D01*
X136368420Y-39242971D02*
X136311277Y-39128685D01*
X136311277Y-39128685D02*
X136311277Y-38957257D01*
X136311277Y-38957257D02*
X136368420Y-38842971D01*
X136368420Y-38842971D02*
X136425563Y-38785828D01*
X136425563Y-38785828D02*
X136539848Y-38728685D01*
X136539848Y-38728685D02*
X136996991Y-38728685D01*
D11*
X119637217Y-112738665D02*
X119780074Y-112786284D01*
X119780074Y-112786284D02*
X119827693Y-112833903D01*
X119827693Y-112833903D02*
X119875312Y-112929141D01*
X119875312Y-112929141D02*
X119875312Y-113071998D01*
X119875312Y-113071998D02*
X119827693Y-113167236D01*
X119827693Y-113167236D02*
X119780074Y-113214856D01*
X119780074Y-113214856D02*
X119684836Y-113262475D01*
X119684836Y-113262475D02*
X119303884Y-113262475D01*
X119303884Y-113262475D02*
X119303884Y-112262475D01*
X119303884Y-112262475D02*
X119637217Y-112262475D01*
X119637217Y-112262475D02*
X119732455Y-112310094D01*
X119732455Y-112310094D02*
X119780074Y-112357713D01*
X119780074Y-112357713D02*
X119827693Y-112452951D01*
X119827693Y-112452951D02*
X119827693Y-112548189D01*
X119827693Y-112548189D02*
X119780074Y-112643427D01*
X119780074Y-112643427D02*
X119732455Y-112691046D01*
X119732455Y-112691046D02*
X119637217Y-112738665D01*
X119637217Y-112738665D02*
X119303884Y-112738665D01*
X120303884Y-113262475D02*
X120303884Y-112595808D01*
X120303884Y-112786284D02*
X120351503Y-112691046D01*
X120351503Y-112691046D02*
X120399122Y-112643427D01*
X120399122Y-112643427D02*
X120494360Y-112595808D01*
X120494360Y-112595808D02*
X120589598Y-112595808D01*
X121303884Y-113214856D02*
X121208646Y-113262475D01*
X121208646Y-113262475D02*
X121018170Y-113262475D01*
X121018170Y-113262475D02*
X120922932Y-113214856D01*
X120922932Y-113214856D02*
X120875313Y-113119617D01*
X120875313Y-113119617D02*
X120875313Y-112738665D01*
X120875313Y-112738665D02*
X120922932Y-112643427D01*
X120922932Y-112643427D02*
X121018170Y-112595808D01*
X121018170Y-112595808D02*
X121208646Y-112595808D01*
X121208646Y-112595808D02*
X121303884Y-112643427D01*
X121303884Y-112643427D02*
X121351503Y-112738665D01*
X121351503Y-112738665D02*
X121351503Y-112833903D01*
X121351503Y-112833903D02*
X120875313Y-112929141D01*
X122208646Y-113262475D02*
X122208646Y-112738665D01*
X122208646Y-112738665D02*
X122161027Y-112643427D01*
X122161027Y-112643427D02*
X122065789Y-112595808D01*
X122065789Y-112595808D02*
X121875313Y-112595808D01*
X121875313Y-112595808D02*
X121780075Y-112643427D01*
X122208646Y-113214856D02*
X122113408Y-113262475D01*
X122113408Y-113262475D02*
X121875313Y-113262475D01*
X121875313Y-113262475D02*
X121780075Y-113214856D01*
X121780075Y-113214856D02*
X121732456Y-113119617D01*
X121732456Y-113119617D02*
X121732456Y-113024379D01*
X121732456Y-113024379D02*
X121780075Y-112929141D01*
X121780075Y-112929141D02*
X121875313Y-112881522D01*
X121875313Y-112881522D02*
X122113408Y-112881522D01*
X122113408Y-112881522D02*
X122208646Y-112833903D01*
X122684837Y-113262475D02*
X122684837Y-112262475D01*
X122780075Y-112881522D02*
X123065789Y-113262475D01*
X123065789Y-112595808D02*
X122684837Y-112976760D01*
X123494361Y-113262475D02*
X123494361Y-112262475D01*
X123970551Y-112595808D02*
X123970551Y-113262475D01*
X123970551Y-112691046D02*
X124018170Y-112643427D01*
X124018170Y-112643427D02*
X124113408Y-112595808D01*
X124113408Y-112595808D02*
X124256265Y-112595808D01*
X124256265Y-112595808D02*
X124351503Y-112643427D01*
X124351503Y-112643427D02*
X124399122Y-112738665D01*
X124399122Y-112738665D02*
X124399122Y-113262475D01*
X125637218Y-113262475D02*
X125637218Y-112262475D01*
X125637218Y-112643427D02*
X125732456Y-112595808D01*
X125732456Y-112595808D02*
X125922932Y-112595808D01*
X125922932Y-112595808D02*
X126018170Y-112643427D01*
X126018170Y-112643427D02*
X126065789Y-112691046D01*
X126065789Y-112691046D02*
X126113408Y-112786284D01*
X126113408Y-112786284D02*
X126113408Y-113071998D01*
X126113408Y-113071998D02*
X126065789Y-113167236D01*
X126065789Y-113167236D02*
X126018170Y-113214856D01*
X126018170Y-113214856D02*
X125922932Y-113262475D01*
X125922932Y-113262475D02*
X125732456Y-113262475D01*
X125732456Y-113262475D02*
X125637218Y-113214856D01*
X126922932Y-113214856D02*
X126827694Y-113262475D01*
X126827694Y-113262475D02*
X126637218Y-113262475D01*
X126637218Y-113262475D02*
X126541980Y-113214856D01*
X126541980Y-113214856D02*
X126494361Y-113119617D01*
X126494361Y-113119617D02*
X126494361Y-112738665D01*
X126494361Y-112738665D02*
X126541980Y-112643427D01*
X126541980Y-112643427D02*
X126637218Y-112595808D01*
X126637218Y-112595808D02*
X126827694Y-112595808D01*
X126827694Y-112595808D02*
X126922932Y-112643427D01*
X126922932Y-112643427D02*
X126970551Y-112738665D01*
X126970551Y-112738665D02*
X126970551Y-112833903D01*
X126970551Y-112833903D02*
X126494361Y-112929141D01*
X127399123Y-112595808D02*
X127399123Y-113262475D01*
X127399123Y-112691046D02*
X127446742Y-112643427D01*
X127446742Y-112643427D02*
X127541980Y-112595808D01*
X127541980Y-112595808D02*
X127684837Y-112595808D01*
X127684837Y-112595808D02*
X127780075Y-112643427D01*
X127780075Y-112643427D02*
X127827694Y-112738665D01*
X127827694Y-112738665D02*
X127827694Y-113262475D01*
X128732456Y-113214856D02*
X128637218Y-113262475D01*
X128637218Y-113262475D02*
X128446742Y-113262475D01*
X128446742Y-113262475D02*
X128351504Y-113214856D01*
X128351504Y-113214856D02*
X128303885Y-113167236D01*
X128303885Y-113167236D02*
X128256266Y-113071998D01*
X128256266Y-113071998D02*
X128256266Y-112786284D01*
X128256266Y-112786284D02*
X128303885Y-112691046D01*
X128303885Y-112691046D02*
X128351504Y-112643427D01*
X128351504Y-112643427D02*
X128446742Y-112595808D01*
X128446742Y-112595808D02*
X128637218Y-112595808D01*
X128637218Y-112595808D02*
X128732456Y-112643427D01*
X129161028Y-113262475D02*
X129161028Y-112262475D01*
X129589599Y-113262475D02*
X129589599Y-112738665D01*
X129589599Y-112738665D02*
X129541980Y-112643427D01*
X129541980Y-112643427D02*
X129446742Y-112595808D01*
X129446742Y-112595808D02*
X129303885Y-112595808D01*
X129303885Y-112595808D02*
X129208647Y-112643427D01*
X129208647Y-112643427D02*
X129161028Y-112691046D01*
X119208646Y-114205752D02*
X119446741Y-114872419D01*
X119446741Y-114872419D02*
X119684836Y-114205752D01*
X120589598Y-114872419D02*
X120018170Y-114872419D01*
X120303884Y-114872419D02*
X120303884Y-113872419D01*
X120303884Y-113872419D02*
X120208646Y-114015276D01*
X120208646Y-114015276D02*
X120113408Y-114110514D01*
X120113408Y-114110514D02*
X120018170Y-114158133D01*
X121018170Y-114777180D02*
X121065789Y-114824800D01*
X121065789Y-114824800D02*
X121018170Y-114872419D01*
X121018170Y-114872419D02*
X120970551Y-114824800D01*
X120970551Y-114824800D02*
X121018170Y-114777180D01*
X121018170Y-114777180D02*
X121018170Y-114872419D01*
X122018169Y-114872419D02*
X121446741Y-114872419D01*
X121732455Y-114872419D02*
X121732455Y-113872419D01*
X121732455Y-113872419D02*
X121637217Y-114015276D01*
X121637217Y-114015276D02*
X121541979Y-114110514D01*
X121541979Y-114110514D02*
X121446741Y-114158133D01*
D12*
X153616917Y-38791028D02*
X154016917Y-38791028D01*
X154016917Y-38162457D02*
X154016917Y-39362457D01*
X154016917Y-39362457D02*
X153445489Y-39362457D01*
X153045489Y-38505314D02*
X152474061Y-38505314D01*
X153159775Y-38162457D02*
X152759775Y-39362457D01*
X152759775Y-39362457D02*
X152359775Y-38162457D01*
X151959775Y-38162457D02*
X151959775Y-39362457D01*
X151959775Y-39362457D02*
X151274061Y-38162457D01*
X151274061Y-38162457D02*
X151274061Y-39362457D01*
D13*
X214833333Y-38624819D02*
X214500000Y-38148628D01*
X214261905Y-38624819D02*
X214261905Y-37624819D01*
X214261905Y-37624819D02*
X214642857Y-37624819D01*
X214642857Y-37624819D02*
X214738095Y-37672438D01*
X214738095Y-37672438D02*
X214785714Y-37720057D01*
X214785714Y-37720057D02*
X214833333Y-37815295D01*
X214833333Y-37815295D02*
X214833333Y-37958152D01*
X214833333Y-37958152D02*
X214785714Y-38053390D01*
X214785714Y-38053390D02*
X214738095Y-38101009D01*
X214738095Y-38101009D02*
X214642857Y-38148628D01*
X214642857Y-38148628D02*
X214261905Y-38148628D01*
X215166667Y-37624819D02*
X215785714Y-37624819D01*
X215785714Y-37624819D02*
X215452381Y-38005771D01*
X215452381Y-38005771D02*
X215595238Y-38005771D01*
X215595238Y-38005771D02*
X215690476Y-38053390D01*
X215690476Y-38053390D02*
X215738095Y-38101009D01*
X215738095Y-38101009D02*
X215785714Y-38196247D01*
X215785714Y-38196247D02*
X215785714Y-38434342D01*
X215785714Y-38434342D02*
X215738095Y-38529580D01*
X215738095Y-38529580D02*
X215690476Y-38577200D01*
X215690476Y-38577200D02*
X215595238Y-38624819D01*
X215595238Y-38624819D02*
X215309524Y-38624819D01*
X215309524Y-38624819D02*
X215214286Y-38577200D01*
X215214286Y-38577200D02*
X215166667Y-38529580D01*
X152549104Y-121714285D02*
X152549104Y-121238095D01*
X152834819Y-121809523D02*
X151834819Y-121476190D01*
X151834819Y-121476190D02*
X152834819Y-121142857D01*
X152834819Y-120285714D02*
X152834819Y-120857142D01*
X152834819Y-120571428D02*
X151834819Y-120571428D01*
X151834819Y-120571428D02*
X151977676Y-120666666D01*
X151977676Y-120666666D02*
X152072914Y-120761904D01*
X152072914Y-120761904D02*
X152120533Y-120857142D01*
X159261905Y-127169819D02*
X159261905Y-126169819D01*
X159261905Y-126169819D02*
X159500000Y-126169819D01*
X159500000Y-126169819D02*
X159642857Y-126217438D01*
X159642857Y-126217438D02*
X159738095Y-126312676D01*
X159738095Y-126312676D02*
X159785714Y-126407914D01*
X159785714Y-126407914D02*
X159833333Y-126598390D01*
X159833333Y-126598390D02*
X159833333Y-126741247D01*
X159833333Y-126741247D02*
X159785714Y-126931723D01*
X159785714Y-126931723D02*
X159738095Y-127026961D01*
X159738095Y-127026961D02*
X159642857Y-127122200D01*
X159642857Y-127122200D02*
X159500000Y-127169819D01*
X159500000Y-127169819D02*
X159261905Y-127169819D01*
X160452381Y-126169819D02*
X160547619Y-126169819D01*
X160547619Y-126169819D02*
X160642857Y-126217438D01*
X160642857Y-126217438D02*
X160690476Y-126265057D01*
X160690476Y-126265057D02*
X160738095Y-126360295D01*
X160738095Y-126360295D02*
X160785714Y-126550771D01*
X160785714Y-126550771D02*
X160785714Y-126788866D01*
X160785714Y-126788866D02*
X160738095Y-126979342D01*
X160738095Y-126979342D02*
X160690476Y-127074580D01*
X160690476Y-127074580D02*
X160642857Y-127122200D01*
X160642857Y-127122200D02*
X160547619Y-127169819D01*
X160547619Y-127169819D02*
X160452381Y-127169819D01*
X160452381Y-127169819D02*
X160357143Y-127122200D01*
X160357143Y-127122200D02*
X160309524Y-127074580D01*
X160309524Y-127074580D02*
X160261905Y-126979342D01*
X160261905Y-126979342D02*
X160214286Y-126788866D01*
X160214286Y-126788866D02*
X160214286Y-126550771D01*
X160214286Y-126550771D02*
X160261905Y-126360295D01*
X160261905Y-126360295D02*
X160309524Y-126265057D01*
X160309524Y-126265057D02*
X160357143Y-126217438D01*
X160357143Y-126217438D02*
X160452381Y-126169819D01*
X163206666Y-41374819D02*
X163206666Y-42089104D01*
X163206666Y-42089104D02*
X163159047Y-42231961D01*
X163159047Y-42231961D02*
X163063809Y-42327200D01*
X163063809Y-42327200D02*
X162920952Y-42374819D01*
X162920952Y-42374819D02*
X162825714Y-42374819D01*
X163587619Y-41374819D02*
X164254285Y-41374819D01*
X164254285Y-41374819D02*
X163825714Y-42374819D01*
X210284819Y-96629166D02*
X209808628Y-96962499D01*
X210284819Y-97200594D02*
X209284819Y-97200594D01*
X209284819Y-97200594D02*
X209284819Y-96819642D01*
X209284819Y-96819642D02*
X209332438Y-96724404D01*
X209332438Y-96724404D02*
X209380057Y-96676785D01*
X209380057Y-96676785D02*
X209475295Y-96629166D01*
X209475295Y-96629166D02*
X209618152Y-96629166D01*
X209618152Y-96629166D02*
X209713390Y-96676785D01*
X209713390Y-96676785D02*
X209761009Y-96724404D01*
X209761009Y-96724404D02*
X209808628Y-96819642D01*
X209808628Y-96819642D02*
X209808628Y-97200594D01*
X209284819Y-95724404D02*
X209284819Y-96200594D01*
X209284819Y-96200594D02*
X209761009Y-96248213D01*
X209761009Y-96248213D02*
X209713390Y-96200594D01*
X209713390Y-96200594D02*
X209665771Y-96105356D01*
X209665771Y-96105356D02*
X209665771Y-95867261D01*
X209665771Y-95867261D02*
X209713390Y-95772023D01*
X209713390Y-95772023D02*
X209761009Y-95724404D01*
X209761009Y-95724404D02*
X209856247Y-95676785D01*
X209856247Y-95676785D02*
X210094342Y-95676785D01*
X210094342Y-95676785D02*
X210189580Y-95724404D01*
X210189580Y-95724404D02*
X210237200Y-95772023D01*
X210237200Y-95772023D02*
X210284819Y-95867261D01*
X210284819Y-95867261D02*
X210284819Y-96105356D01*
X210284819Y-96105356D02*
X210237200Y-96200594D01*
X210237200Y-96200594D02*
X210189580Y-96248213D01*
X142330057Y-75095238D02*
X142282438Y-75190476D01*
X142282438Y-75190476D02*
X142187200Y-75285714D01*
X142187200Y-75285714D02*
X142044342Y-75428571D01*
X142044342Y-75428571D02*
X141996723Y-75523809D01*
X141996723Y-75523809D02*
X141996723Y-75619047D01*
X142234819Y-75571428D02*
X142187200Y-75666666D01*
X142187200Y-75666666D02*
X142091961Y-75761904D01*
X142091961Y-75761904D02*
X141901485Y-75809523D01*
X141901485Y-75809523D02*
X141568152Y-75809523D01*
X141568152Y-75809523D02*
X141377676Y-75761904D01*
X141377676Y-75761904D02*
X141282438Y-75666666D01*
X141282438Y-75666666D02*
X141234819Y-75571428D01*
X141234819Y-75571428D02*
X141234819Y-75380952D01*
X141234819Y-75380952D02*
X141282438Y-75285714D01*
X141282438Y-75285714D02*
X141377676Y-75190476D01*
X141377676Y-75190476D02*
X141568152Y-75142857D01*
X141568152Y-75142857D02*
X141901485Y-75142857D01*
X141901485Y-75142857D02*
X142091961Y-75190476D01*
X142091961Y-75190476D02*
X142187200Y-75285714D01*
X142187200Y-75285714D02*
X142234819Y-75380952D01*
X142234819Y-75380952D02*
X142234819Y-75571428D01*
X141330057Y-74761904D02*
X141282438Y-74714285D01*
X141282438Y-74714285D02*
X141234819Y-74619047D01*
X141234819Y-74619047D02*
X141234819Y-74380952D01*
X141234819Y-74380952D02*
X141282438Y-74285714D01*
X141282438Y-74285714D02*
X141330057Y-74238095D01*
X141330057Y-74238095D02*
X141425295Y-74190476D01*
X141425295Y-74190476D02*
X141520533Y-74190476D01*
X141520533Y-74190476D02*
X141663390Y-74238095D01*
X141663390Y-74238095D02*
X142234819Y-74809523D01*
X142234819Y-74809523D02*
X142234819Y-74190476D01*
X171243095Y-91124819D02*
X171243095Y-91934342D01*
X171243095Y-91934342D02*
X171290714Y-92029580D01*
X171290714Y-92029580D02*
X171338333Y-92077200D01*
X171338333Y-92077200D02*
X171433571Y-92124819D01*
X171433571Y-92124819D02*
X171624047Y-92124819D01*
X171624047Y-92124819D02*
X171719285Y-92077200D01*
X171719285Y-92077200D02*
X171766904Y-92029580D01*
X171766904Y-92029580D02*
X171814523Y-91934342D01*
X171814523Y-91934342D02*
X171814523Y-91124819D01*
X172719285Y-91458152D02*
X172719285Y-92124819D01*
X172481190Y-91077200D02*
X172243095Y-91791485D01*
X172243095Y-91791485D02*
X172862142Y-91791485D01*
X172330057Y-75095238D02*
X172282438Y-75190476D01*
X172282438Y-75190476D02*
X172187200Y-75285714D01*
X172187200Y-75285714D02*
X172044342Y-75428571D01*
X172044342Y-75428571D02*
X171996723Y-75523809D01*
X171996723Y-75523809D02*
X171996723Y-75619047D01*
X172234819Y-75571428D02*
X172187200Y-75666666D01*
X172187200Y-75666666D02*
X172091961Y-75761904D01*
X172091961Y-75761904D02*
X171901485Y-75809523D01*
X171901485Y-75809523D02*
X171568152Y-75809523D01*
X171568152Y-75809523D02*
X171377676Y-75761904D01*
X171377676Y-75761904D02*
X171282438Y-75666666D01*
X171282438Y-75666666D02*
X171234819Y-75571428D01*
X171234819Y-75571428D02*
X171234819Y-75380952D01*
X171234819Y-75380952D02*
X171282438Y-75285714D01*
X171282438Y-75285714D02*
X171377676Y-75190476D01*
X171377676Y-75190476D02*
X171568152Y-75142857D01*
X171568152Y-75142857D02*
X171901485Y-75142857D01*
X171901485Y-75142857D02*
X172091961Y-75190476D01*
X172091961Y-75190476D02*
X172187200Y-75285714D01*
X172187200Y-75285714D02*
X172234819Y-75380952D01*
X172234819Y-75380952D02*
X172234819Y-75571428D01*
X171234819Y-74809523D02*
X171234819Y-74190476D01*
X171234819Y-74190476D02*
X171615771Y-74523809D01*
X171615771Y-74523809D02*
X171615771Y-74380952D01*
X171615771Y-74380952D02*
X171663390Y-74285714D01*
X171663390Y-74285714D02*
X171711009Y-74238095D01*
X171711009Y-74238095D02*
X171806247Y-74190476D01*
X171806247Y-74190476D02*
X172044342Y-74190476D01*
X172044342Y-74190476D02*
X172139580Y-74238095D01*
X172139580Y-74238095D02*
X172187200Y-74285714D01*
X172187200Y-74285714D02*
X172234819Y-74380952D01*
X172234819Y-74380952D02*
X172234819Y-74666666D01*
X172234819Y-74666666D02*
X172187200Y-74761904D01*
X172187200Y-74761904D02*
X172139580Y-74809523D01*
X152284819Y-98629166D02*
X151808628Y-98962499D01*
X152284819Y-99200594D02*
X151284819Y-99200594D01*
X151284819Y-99200594D02*
X151284819Y-98819642D01*
X151284819Y-98819642D02*
X151332438Y-98724404D01*
X151332438Y-98724404D02*
X151380057Y-98676785D01*
X151380057Y-98676785D02*
X151475295Y-98629166D01*
X151475295Y-98629166D02*
X151618152Y-98629166D01*
X151618152Y-98629166D02*
X151713390Y-98676785D01*
X151713390Y-98676785D02*
X151761009Y-98724404D01*
X151761009Y-98724404D02*
X151808628Y-98819642D01*
X151808628Y-98819642D02*
X151808628Y-99200594D01*
X151618152Y-97772023D02*
X152284819Y-97772023D01*
X151237200Y-98010118D02*
X151951485Y-98248213D01*
X151951485Y-98248213D02*
X151951485Y-97629166D01*
X202330057Y-75095238D02*
X202282438Y-75190476D01*
X202282438Y-75190476D02*
X202187200Y-75285714D01*
X202187200Y-75285714D02*
X202044342Y-75428571D01*
X202044342Y-75428571D02*
X201996723Y-75523809D01*
X201996723Y-75523809D02*
X201996723Y-75619047D01*
X202234819Y-75571428D02*
X202187200Y-75666666D01*
X202187200Y-75666666D02*
X202091961Y-75761904D01*
X202091961Y-75761904D02*
X201901485Y-75809523D01*
X201901485Y-75809523D02*
X201568152Y-75809523D01*
X201568152Y-75809523D02*
X201377676Y-75761904D01*
X201377676Y-75761904D02*
X201282438Y-75666666D01*
X201282438Y-75666666D02*
X201234819Y-75571428D01*
X201234819Y-75571428D02*
X201234819Y-75380952D01*
X201234819Y-75380952D02*
X201282438Y-75285714D01*
X201282438Y-75285714D02*
X201377676Y-75190476D01*
X201377676Y-75190476D02*
X201568152Y-75142857D01*
X201568152Y-75142857D02*
X201901485Y-75142857D01*
X201901485Y-75142857D02*
X202091961Y-75190476D01*
X202091961Y-75190476D02*
X202187200Y-75285714D01*
X202187200Y-75285714D02*
X202234819Y-75380952D01*
X202234819Y-75380952D02*
X202234819Y-75571428D01*
X201568152Y-74285714D02*
X202234819Y-74285714D01*
X201187200Y-74523809D02*
X201901485Y-74761904D01*
X201901485Y-74761904D02*
X201901485Y-74142857D01*
X200284819Y-96642857D02*
X199808628Y-96976190D01*
X200284819Y-97214285D02*
X199284819Y-97214285D01*
X199284819Y-97214285D02*
X199284819Y-96833333D01*
X199284819Y-96833333D02*
X199332438Y-96738095D01*
X199332438Y-96738095D02*
X199380057Y-96690476D01*
X199380057Y-96690476D02*
X199475295Y-96642857D01*
X199475295Y-96642857D02*
X199618152Y-96642857D01*
X199618152Y-96642857D02*
X199713390Y-96690476D01*
X199713390Y-96690476D02*
X199761009Y-96738095D01*
X199761009Y-96738095D02*
X199808628Y-96833333D01*
X199808628Y-96833333D02*
X199808628Y-97214285D01*
X200284819Y-95690476D02*
X200284819Y-96261904D01*
X200284819Y-95976190D02*
X199284819Y-95976190D01*
X199284819Y-95976190D02*
X199427676Y-96071428D01*
X199427676Y-96071428D02*
X199522914Y-96166666D01*
X199522914Y-96166666D02*
X199570533Y-96261904D01*
X200284819Y-94738095D02*
X200284819Y-95309523D01*
X200284819Y-95023809D02*
X199284819Y-95023809D01*
X199284819Y-95023809D02*
X199427676Y-95119047D01*
X199427676Y-95119047D02*
X199522914Y-95214285D01*
X199522914Y-95214285D02*
X199570533Y-95309523D01*
X119166666Y-50004819D02*
X119166666Y-50719104D01*
X119166666Y-50719104D02*
X119119047Y-50861961D01*
X119119047Y-50861961D02*
X119023809Y-50957200D01*
X119023809Y-50957200D02*
X118880952Y-51004819D01*
X118880952Y-51004819D02*
X118785714Y-51004819D01*
X120166666Y-51004819D02*
X119595238Y-51004819D01*
X119880952Y-51004819D02*
X119880952Y-50004819D01*
X119880952Y-50004819D02*
X119785714Y-50147676D01*
X119785714Y-50147676D02*
X119690476Y-50242914D01*
X119690476Y-50242914D02*
X119595238Y-50290533D01*
X205650476Y-41374819D02*
X205650476Y-42089104D01*
X205650476Y-42089104D02*
X205602857Y-42231961D01*
X205602857Y-42231961D02*
X205507619Y-42327200D01*
X205507619Y-42327200D02*
X205364762Y-42374819D01*
X205364762Y-42374819D02*
X205269524Y-42374819D01*
X206650476Y-42374819D02*
X206079048Y-42374819D01*
X206364762Y-42374819D02*
X206364762Y-41374819D01*
X206364762Y-41374819D02*
X206269524Y-41517676D01*
X206269524Y-41517676D02*
X206174286Y-41612914D01*
X206174286Y-41612914D02*
X206079048Y-41660533D01*
X207555238Y-41374819D02*
X207079048Y-41374819D01*
X207079048Y-41374819D02*
X207031429Y-41851009D01*
X207031429Y-41851009D02*
X207079048Y-41803390D01*
X207079048Y-41803390D02*
X207174286Y-41755771D01*
X207174286Y-41755771D02*
X207412381Y-41755771D01*
X207412381Y-41755771D02*
X207507619Y-41803390D01*
X207507619Y-41803390D02*
X207555238Y-41851009D01*
X207555238Y-41851009D02*
X207602857Y-41946247D01*
X207602857Y-41946247D02*
X207602857Y-42184342D01*
X207602857Y-42184342D02*
X207555238Y-42279580D01*
X207555238Y-42279580D02*
X207507619Y-42327200D01*
X207507619Y-42327200D02*
X207412381Y-42374819D01*
X207412381Y-42374819D02*
X207174286Y-42374819D01*
X207174286Y-42374819D02*
X207079048Y-42327200D01*
X207079048Y-42327200D02*
X207031429Y-42279580D01*
X215440476Y-91179819D02*
X215440476Y-91894104D01*
X215440476Y-91894104D02*
X215392857Y-92036961D01*
X215392857Y-92036961D02*
X215297619Y-92132200D01*
X215297619Y-92132200D02*
X215154762Y-92179819D01*
X215154762Y-92179819D02*
X215059524Y-92179819D01*
X216440476Y-92179819D02*
X215869048Y-92179819D01*
X216154762Y-92179819D02*
X216154762Y-91179819D01*
X216154762Y-91179819D02*
X216059524Y-91322676D01*
X216059524Y-91322676D02*
X215964286Y-91417914D01*
X215964286Y-91417914D02*
X215869048Y-91465533D01*
X217392857Y-92179819D02*
X216821429Y-92179819D01*
X217107143Y-92179819D02*
X217107143Y-91179819D01*
X217107143Y-91179819D02*
X217011905Y-91322676D01*
X217011905Y-91322676D02*
X216916667Y-91417914D01*
X216916667Y-91417914D02*
X216821429Y-91465533D01*
X225284819Y-95904166D02*
X224808628Y-96237499D01*
X225284819Y-96475594D02*
X224284819Y-96475594D01*
X224284819Y-96475594D02*
X224284819Y-96094642D01*
X224284819Y-96094642D02*
X224332438Y-95999404D01*
X224332438Y-95999404D02*
X224380057Y-95951785D01*
X224380057Y-95951785D02*
X224475295Y-95904166D01*
X224475295Y-95904166D02*
X224618152Y-95904166D01*
X224618152Y-95904166D02*
X224713390Y-95951785D01*
X224713390Y-95951785D02*
X224761009Y-95999404D01*
X224761009Y-95999404D02*
X224808628Y-96094642D01*
X224808628Y-96094642D02*
X224808628Y-96475594D01*
X225284819Y-95427975D02*
X225284819Y-95237499D01*
X225284819Y-95237499D02*
X225237200Y-95142261D01*
X225237200Y-95142261D02*
X225189580Y-95094642D01*
X225189580Y-95094642D02*
X225046723Y-94999404D01*
X225046723Y-94999404D02*
X224856247Y-94951785D01*
X224856247Y-94951785D02*
X224475295Y-94951785D01*
X224475295Y-94951785D02*
X224380057Y-94999404D01*
X224380057Y-94999404D02*
X224332438Y-95047023D01*
X224332438Y-95047023D02*
X224284819Y-95142261D01*
X224284819Y-95142261D02*
X224284819Y-95332737D01*
X224284819Y-95332737D02*
X224332438Y-95427975D01*
X224332438Y-95427975D02*
X224380057Y-95475594D01*
X224380057Y-95475594D02*
X224475295Y-95523213D01*
X224475295Y-95523213D02*
X224713390Y-95523213D01*
X224713390Y-95523213D02*
X224808628Y-95475594D01*
X224808628Y-95475594D02*
X224856247Y-95427975D01*
X224856247Y-95427975D02*
X224903866Y-95332737D01*
X224903866Y-95332737D02*
X224903866Y-95142261D01*
X224903866Y-95142261D02*
X224856247Y-95047023D01*
X224856247Y-95047023D02*
X224808628Y-94999404D01*
X224808628Y-94999404D02*
X224713390Y-94951785D01*
X135284819Y-96979166D02*
X134808628Y-97312499D01*
X135284819Y-97550594D02*
X134284819Y-97550594D01*
X134284819Y-97550594D02*
X134284819Y-97169642D01*
X134284819Y-97169642D02*
X134332438Y-97074404D01*
X134332438Y-97074404D02*
X134380057Y-97026785D01*
X134380057Y-97026785D02*
X134475295Y-96979166D01*
X134475295Y-96979166D02*
X134618152Y-96979166D01*
X134618152Y-96979166D02*
X134713390Y-97026785D01*
X134713390Y-97026785D02*
X134761009Y-97074404D01*
X134761009Y-97074404D02*
X134808628Y-97169642D01*
X134808628Y-97169642D02*
X134808628Y-97550594D01*
X134284819Y-96122023D02*
X134284819Y-96312499D01*
X134284819Y-96312499D02*
X134332438Y-96407737D01*
X134332438Y-96407737D02*
X134380057Y-96455356D01*
X134380057Y-96455356D02*
X134522914Y-96550594D01*
X134522914Y-96550594D02*
X134713390Y-96598213D01*
X134713390Y-96598213D02*
X135094342Y-96598213D01*
X135094342Y-96598213D02*
X135189580Y-96550594D01*
X135189580Y-96550594D02*
X135237200Y-96502975D01*
X135237200Y-96502975D02*
X135284819Y-96407737D01*
X135284819Y-96407737D02*
X135284819Y-96217261D01*
X135284819Y-96217261D02*
X135237200Y-96122023D01*
X135237200Y-96122023D02*
X135189580Y-96074404D01*
X135189580Y-96074404D02*
X135094342Y-96026785D01*
X135094342Y-96026785D02*
X134856247Y-96026785D01*
X134856247Y-96026785D02*
X134761009Y-96074404D01*
X134761009Y-96074404D02*
X134713390Y-96122023D01*
X134713390Y-96122023D02*
X134665771Y-96217261D01*
X134665771Y-96217261D02*
X134665771Y-96407737D01*
X134665771Y-96407737D02*
X134713390Y-96502975D01*
X134713390Y-96502975D02*
X134761009Y-96550594D01*
X134761009Y-96550594D02*
X134856247Y-96598213D01*
X165284819Y-95904166D02*
X164808628Y-96237499D01*
X165284819Y-96475594D02*
X164284819Y-96475594D01*
X164284819Y-96475594D02*
X164284819Y-96094642D01*
X164284819Y-96094642D02*
X164332438Y-95999404D01*
X164332438Y-95999404D02*
X164380057Y-95951785D01*
X164380057Y-95951785D02*
X164475295Y-95904166D01*
X164475295Y-95904166D02*
X164618152Y-95904166D01*
X164618152Y-95904166D02*
X164713390Y-95951785D01*
X164713390Y-95951785D02*
X164761009Y-95999404D01*
X164761009Y-95999404D02*
X164808628Y-96094642D01*
X164808628Y-96094642D02*
X164808628Y-96475594D01*
X164284819Y-95570832D02*
X164284819Y-94904166D01*
X164284819Y-94904166D02*
X165284819Y-95332737D01*
X184624819Y-122166666D02*
X184148628Y-122499999D01*
X184624819Y-122738094D02*
X183624819Y-122738094D01*
X183624819Y-122738094D02*
X183624819Y-122357142D01*
X183624819Y-122357142D02*
X183672438Y-122261904D01*
X183672438Y-122261904D02*
X183720057Y-122214285D01*
X183720057Y-122214285D02*
X183815295Y-122166666D01*
X183815295Y-122166666D02*
X183958152Y-122166666D01*
X183958152Y-122166666D02*
X184053390Y-122214285D01*
X184053390Y-122214285D02*
X184101009Y-122261904D01*
X184101009Y-122261904D02*
X184148628Y-122357142D01*
X184148628Y-122357142D02*
X184148628Y-122738094D01*
X184624819Y-121214285D02*
X184624819Y-121785713D01*
X184624819Y-121499999D02*
X183624819Y-121499999D01*
X183624819Y-121499999D02*
X183767676Y-121595237D01*
X183767676Y-121595237D02*
X183862914Y-121690475D01*
X183862914Y-121690475D02*
X183910533Y-121785713D01*
X130238095Y-114314819D02*
X130238095Y-115124342D01*
X130238095Y-115124342D02*
X130285714Y-115219580D01*
X130285714Y-115219580D02*
X130333333Y-115267200D01*
X130333333Y-115267200D02*
X130428571Y-115314819D01*
X130428571Y-115314819D02*
X130619047Y-115314819D01*
X130619047Y-115314819D02*
X130714285Y-115267200D01*
X130714285Y-115267200D02*
X130761904Y-115219580D01*
X130761904Y-115219580D02*
X130809523Y-115124342D01*
X130809523Y-115124342D02*
X130809523Y-114314819D01*
X131809523Y-115314819D02*
X131238095Y-115314819D01*
X131523809Y-115314819D02*
X131523809Y-114314819D01*
X131523809Y-114314819D02*
X131428571Y-114457676D01*
X131428571Y-114457676D02*
X131333333Y-114552914D01*
X131333333Y-114552914D02*
X131238095Y-114600533D01*
X195126666Y-41374819D02*
X195126666Y-42089104D01*
X195126666Y-42089104D02*
X195079047Y-42231961D01*
X195079047Y-42231961D02*
X194983809Y-42327200D01*
X194983809Y-42327200D02*
X194840952Y-42374819D01*
X194840952Y-42374819D02*
X194745714Y-42374819D01*
X195507619Y-41374819D02*
X196126666Y-41374819D01*
X196126666Y-41374819D02*
X195793333Y-41755771D01*
X195793333Y-41755771D02*
X195936190Y-41755771D01*
X195936190Y-41755771D02*
X196031428Y-41803390D01*
X196031428Y-41803390D02*
X196079047Y-41851009D01*
X196079047Y-41851009D02*
X196126666Y-41946247D01*
X196126666Y-41946247D02*
X196126666Y-42184342D01*
X196126666Y-42184342D02*
X196079047Y-42279580D01*
X196079047Y-42279580D02*
X196031428Y-42327200D01*
X196031428Y-42327200D02*
X195936190Y-42374819D01*
X195936190Y-42374819D02*
X195650476Y-42374819D01*
X195650476Y-42374819D02*
X195555238Y-42327200D01*
X195555238Y-42327200D02*
X195507619Y-42279580D01*
X151916666Y-50004819D02*
X151916666Y-50719104D01*
X151916666Y-50719104D02*
X151869047Y-50861961D01*
X151869047Y-50861961D02*
X151773809Y-50957200D01*
X151773809Y-50957200D02*
X151630952Y-51004819D01*
X151630952Y-51004819D02*
X151535714Y-51004819D01*
X152869047Y-50004819D02*
X152392857Y-50004819D01*
X152392857Y-50004819D02*
X152345238Y-50481009D01*
X152345238Y-50481009D02*
X152392857Y-50433390D01*
X152392857Y-50433390D02*
X152488095Y-50385771D01*
X152488095Y-50385771D02*
X152726190Y-50385771D01*
X152726190Y-50385771D02*
X152821428Y-50433390D01*
X152821428Y-50433390D02*
X152869047Y-50481009D01*
X152869047Y-50481009D02*
X152916666Y-50576247D01*
X152916666Y-50576247D02*
X152916666Y-50814342D01*
X152916666Y-50814342D02*
X152869047Y-50909580D01*
X152869047Y-50909580D02*
X152821428Y-50957200D01*
X152821428Y-50957200D02*
X152726190Y-51004819D01*
X152726190Y-51004819D02*
X152488095Y-51004819D01*
X152488095Y-51004819D02*
X152392857Y-50957200D01*
X152392857Y-50957200D02*
X152345238Y-50909580D01*
X125916666Y-91179819D02*
X125916666Y-91894104D01*
X125916666Y-91894104D02*
X125869047Y-92036961D01*
X125869047Y-92036961D02*
X125773809Y-92132200D01*
X125773809Y-92132200D02*
X125630952Y-92179819D01*
X125630952Y-92179819D02*
X125535714Y-92179819D01*
X126535714Y-91608390D02*
X126440476Y-91560771D01*
X126440476Y-91560771D02*
X126392857Y-91513152D01*
X126392857Y-91513152D02*
X126345238Y-91417914D01*
X126345238Y-91417914D02*
X126345238Y-91370295D01*
X126345238Y-91370295D02*
X126392857Y-91275057D01*
X126392857Y-91275057D02*
X126440476Y-91227438D01*
X126440476Y-91227438D02*
X126535714Y-91179819D01*
X126535714Y-91179819D02*
X126726190Y-91179819D01*
X126726190Y-91179819D02*
X126821428Y-91227438D01*
X126821428Y-91227438D02*
X126869047Y-91275057D01*
X126869047Y-91275057D02*
X126916666Y-91370295D01*
X126916666Y-91370295D02*
X126916666Y-91417914D01*
X126916666Y-91417914D02*
X126869047Y-91513152D01*
X126869047Y-91513152D02*
X126821428Y-91560771D01*
X126821428Y-91560771D02*
X126726190Y-91608390D01*
X126726190Y-91608390D02*
X126535714Y-91608390D01*
X126535714Y-91608390D02*
X126440476Y-91656009D01*
X126440476Y-91656009D02*
X126392857Y-91703628D01*
X126392857Y-91703628D02*
X126345238Y-91798866D01*
X126345238Y-91798866D02*
X126345238Y-91989342D01*
X126345238Y-91989342D02*
X126392857Y-92084580D01*
X126392857Y-92084580D02*
X126440476Y-92132200D01*
X126440476Y-92132200D02*
X126535714Y-92179819D01*
X126535714Y-92179819D02*
X126726190Y-92179819D01*
X126726190Y-92179819D02*
X126821428Y-92132200D01*
X126821428Y-92132200D02*
X126869047Y-92084580D01*
X126869047Y-92084580D02*
X126916666Y-91989342D01*
X126916666Y-91989342D02*
X126916666Y-91798866D01*
X126916666Y-91798866D02*
X126869047Y-91703628D01*
X126869047Y-91703628D02*
X126821428Y-91656009D01*
X126821428Y-91656009D02*
X126726190Y-91608390D01*
X108924819Y-75738094D02*
X107924819Y-75738094D01*
X107924819Y-75738094D02*
X107924819Y-75499999D01*
X107924819Y-75499999D02*
X107972438Y-75357142D01*
X107972438Y-75357142D02*
X108067676Y-75261904D01*
X108067676Y-75261904D02*
X108162914Y-75214285D01*
X108162914Y-75214285D02*
X108353390Y-75166666D01*
X108353390Y-75166666D02*
X108496247Y-75166666D01*
X108496247Y-75166666D02*
X108686723Y-75214285D01*
X108686723Y-75214285D02*
X108781961Y-75261904D01*
X108781961Y-75261904D02*
X108877200Y-75357142D01*
X108877200Y-75357142D02*
X108924819Y-75499999D01*
X108924819Y-75499999D02*
X108924819Y-75738094D01*
X108924819Y-74214285D02*
X108924819Y-74785713D01*
X108924819Y-74499999D02*
X107924819Y-74499999D01*
X107924819Y-74499999D02*
X108067676Y-74595237D01*
X108067676Y-74595237D02*
X108162914Y-74690475D01*
X108162914Y-74690475D02*
X108210533Y-74785713D01*
X108554819Y-70181904D02*
X107554819Y-70181904D01*
X108554819Y-69610476D02*
X107983390Y-70039047D01*
X107554819Y-69610476D02*
X108126247Y-70181904D01*
X115440476Y-117104819D02*
X115440476Y-117819104D01*
X115440476Y-117819104D02*
X115392857Y-117961961D01*
X115392857Y-117961961D02*
X115297619Y-118057200D01*
X115297619Y-118057200D02*
X115154762Y-118104819D01*
X115154762Y-118104819D02*
X115059524Y-118104819D01*
X116440476Y-118104819D02*
X115869048Y-118104819D01*
X116154762Y-118104819D02*
X116154762Y-117104819D01*
X116154762Y-117104819D02*
X116059524Y-117247676D01*
X116059524Y-117247676D02*
X115964286Y-117342914D01*
X115964286Y-117342914D02*
X115869048Y-117390533D01*
X116821429Y-117200057D02*
X116869048Y-117152438D01*
X116869048Y-117152438D02*
X116964286Y-117104819D01*
X116964286Y-117104819D02*
X117202381Y-117104819D01*
X117202381Y-117104819D02*
X117297619Y-117152438D01*
X117297619Y-117152438D02*
X117345238Y-117200057D01*
X117345238Y-117200057D02*
X117392857Y-117295295D01*
X117392857Y-117295295D02*
X117392857Y-117390533D01*
X117392857Y-117390533D02*
X117345238Y-117533390D01*
X117345238Y-117533390D02*
X116773810Y-118104819D01*
X116773810Y-118104819D02*
X117392857Y-118104819D01*
X137731009Y-121680952D02*
X137778628Y-121538095D01*
X137778628Y-121538095D02*
X137826247Y-121490476D01*
X137826247Y-121490476D02*
X137921485Y-121442857D01*
X137921485Y-121442857D02*
X138064342Y-121442857D01*
X138064342Y-121442857D02*
X138159580Y-121490476D01*
X138159580Y-121490476D02*
X138207200Y-121538095D01*
X138207200Y-121538095D02*
X138254819Y-121633333D01*
X138254819Y-121633333D02*
X138254819Y-122014285D01*
X138254819Y-122014285D02*
X137254819Y-122014285D01*
X137254819Y-122014285D02*
X137254819Y-121680952D01*
X137254819Y-121680952D02*
X137302438Y-121585714D01*
X137302438Y-121585714D02*
X137350057Y-121538095D01*
X137350057Y-121538095D02*
X137445295Y-121490476D01*
X137445295Y-121490476D02*
X137540533Y-121490476D01*
X137540533Y-121490476D02*
X137635771Y-121538095D01*
X137635771Y-121538095D02*
X137683390Y-121585714D01*
X137683390Y-121585714D02*
X137731009Y-121680952D01*
X137731009Y-121680952D02*
X137731009Y-122014285D01*
X137254819Y-121109523D02*
X137254819Y-120442857D01*
X137254819Y-120442857D02*
X138254819Y-121109523D01*
X138254819Y-121109523D02*
X138254819Y-120442857D01*
X138254819Y-119538095D02*
X138254819Y-120109523D01*
X138254819Y-119823809D02*
X137254819Y-119823809D01*
X137254819Y-119823809D02*
X137397676Y-119919047D01*
X137397676Y-119919047D02*
X137492914Y-120014285D01*
X137492914Y-120014285D02*
X137540533Y-120109523D01*
X142533866Y-124990951D02*
X142533866Y-124229047D01*
X142914819Y-124609999D02*
X142152914Y-124609999D01*
X214531905Y-44494819D02*
X214531905Y-43494819D01*
X214531905Y-43494819D02*
X214770000Y-43494819D01*
X214770000Y-43494819D02*
X214912857Y-43542438D01*
X214912857Y-43542438D02*
X215008095Y-43637676D01*
X215008095Y-43637676D02*
X215055714Y-43732914D01*
X215055714Y-43732914D02*
X215103333Y-43923390D01*
X215103333Y-43923390D02*
X215103333Y-44066247D01*
X215103333Y-44066247D02*
X215055714Y-44256723D01*
X215055714Y-44256723D02*
X215008095Y-44351961D01*
X215008095Y-44351961D02*
X214912857Y-44447200D01*
X214912857Y-44447200D02*
X214770000Y-44494819D01*
X214770000Y-44494819D02*
X214531905Y-44494819D01*
X215484286Y-43590057D02*
X215531905Y-43542438D01*
X215531905Y-43542438D02*
X215627143Y-43494819D01*
X215627143Y-43494819D02*
X215865238Y-43494819D01*
X215865238Y-43494819D02*
X215960476Y-43542438D01*
X215960476Y-43542438D02*
X216008095Y-43590057D01*
X216008095Y-43590057D02*
X216055714Y-43685295D01*
X216055714Y-43685295D02*
X216055714Y-43780533D01*
X216055714Y-43780533D02*
X216008095Y-43923390D01*
X216008095Y-43923390D02*
X215436667Y-44494819D01*
X215436667Y-44494819D02*
X216055714Y-44494819D01*
X141243095Y-91124819D02*
X141243095Y-91934342D01*
X141243095Y-91934342D02*
X141290714Y-92029580D01*
X141290714Y-92029580D02*
X141338333Y-92077200D01*
X141338333Y-92077200D02*
X141433571Y-92124819D01*
X141433571Y-92124819D02*
X141624047Y-92124819D01*
X141624047Y-92124819D02*
X141719285Y-92077200D01*
X141719285Y-92077200D02*
X141766904Y-92029580D01*
X141766904Y-92029580D02*
X141814523Y-91934342D01*
X141814523Y-91934342D02*
X141814523Y-91124819D01*
X142243095Y-91220057D02*
X142290714Y-91172438D01*
X142290714Y-91172438D02*
X142385952Y-91124819D01*
X142385952Y-91124819D02*
X142624047Y-91124819D01*
X142624047Y-91124819D02*
X142719285Y-91172438D01*
X142719285Y-91172438D02*
X142766904Y-91220057D01*
X142766904Y-91220057D02*
X142814523Y-91315295D01*
X142814523Y-91315295D02*
X142814523Y-91410533D01*
X142814523Y-91410533D02*
X142766904Y-91553390D01*
X142766904Y-91553390D02*
X142195476Y-92124819D01*
X142195476Y-92124819D02*
X142814523Y-92124819D01*
X131206666Y-41374819D02*
X131206666Y-42089104D01*
X131206666Y-42089104D02*
X131159047Y-42231961D01*
X131159047Y-42231961D02*
X131063809Y-42327200D01*
X131063809Y-42327200D02*
X130920952Y-42374819D01*
X130920952Y-42374819D02*
X130825714Y-42374819D01*
X131635238Y-41470057D02*
X131682857Y-41422438D01*
X131682857Y-41422438D02*
X131778095Y-41374819D01*
X131778095Y-41374819D02*
X132016190Y-41374819D01*
X132016190Y-41374819D02*
X132111428Y-41422438D01*
X132111428Y-41422438D02*
X132159047Y-41470057D01*
X132159047Y-41470057D02*
X132206666Y-41565295D01*
X132206666Y-41565295D02*
X132206666Y-41660533D01*
X132206666Y-41660533D02*
X132159047Y-41803390D01*
X132159047Y-41803390D02*
X131587619Y-42374819D01*
X131587619Y-42374819D02*
X132206666Y-42374819D01*
X184126666Y-41374819D02*
X184126666Y-42089104D01*
X184126666Y-42089104D02*
X184079047Y-42231961D01*
X184079047Y-42231961D02*
X183983809Y-42327200D01*
X183983809Y-42327200D02*
X183840952Y-42374819D01*
X183840952Y-42374819D02*
X183745714Y-42374819D01*
X185031428Y-41708152D02*
X185031428Y-42374819D01*
X184793333Y-41327200D02*
X184555238Y-42041485D01*
X184555238Y-42041485D02*
X185174285Y-42041485D01*
X155916666Y-91179819D02*
X155916666Y-91894104D01*
X155916666Y-91894104D02*
X155869047Y-92036961D01*
X155869047Y-92036961D02*
X155773809Y-92132200D01*
X155773809Y-92132200D02*
X155630952Y-92179819D01*
X155630952Y-92179819D02*
X155535714Y-92179819D01*
X156440476Y-92179819D02*
X156630952Y-92179819D01*
X156630952Y-92179819D02*
X156726190Y-92132200D01*
X156726190Y-92132200D02*
X156773809Y-92084580D01*
X156773809Y-92084580D02*
X156869047Y-91941723D01*
X156869047Y-91941723D02*
X156916666Y-91751247D01*
X156916666Y-91751247D02*
X156916666Y-91370295D01*
X156916666Y-91370295D02*
X156869047Y-91275057D01*
X156869047Y-91275057D02*
X156821428Y-91227438D01*
X156821428Y-91227438D02*
X156726190Y-91179819D01*
X156726190Y-91179819D02*
X156535714Y-91179819D01*
X156535714Y-91179819D02*
X156440476Y-91227438D01*
X156440476Y-91227438D02*
X156392857Y-91275057D01*
X156392857Y-91275057D02*
X156345238Y-91370295D01*
X156345238Y-91370295D02*
X156345238Y-91608390D01*
X156345238Y-91608390D02*
X156392857Y-91703628D01*
X156392857Y-91703628D02*
X156440476Y-91751247D01*
X156440476Y-91751247D02*
X156535714Y-91798866D01*
X156535714Y-91798866D02*
X156726190Y-91798866D01*
X156726190Y-91798866D02*
X156821428Y-91751247D01*
X156821428Y-91751247D02*
X156869047Y-91703628D01*
X156869047Y-91703628D02*
X156916666Y-91608390D01*
X141940476Y-50004819D02*
X141940476Y-50719104D01*
X141940476Y-50719104D02*
X141892857Y-50861961D01*
X141892857Y-50861961D02*
X141797619Y-50957200D01*
X141797619Y-50957200D02*
X141654762Y-51004819D01*
X141654762Y-51004819D02*
X141559524Y-51004819D01*
X142940476Y-51004819D02*
X142369048Y-51004819D01*
X142654762Y-51004819D02*
X142654762Y-50004819D01*
X142654762Y-50004819D02*
X142559524Y-50147676D01*
X142559524Y-50147676D02*
X142464286Y-50242914D01*
X142464286Y-50242914D02*
X142369048Y-50290533D01*
X143797619Y-50338152D02*
X143797619Y-51004819D01*
X143559524Y-49957200D02*
X143321429Y-50671485D01*
X143321429Y-50671485D02*
X143940476Y-50671485D01*
X188624819Y-122166666D02*
X188148628Y-122499999D01*
X188624819Y-122738094D02*
X187624819Y-122738094D01*
X187624819Y-122738094D02*
X187624819Y-122357142D01*
X187624819Y-122357142D02*
X187672438Y-122261904D01*
X187672438Y-122261904D02*
X187720057Y-122214285D01*
X187720057Y-122214285D02*
X187815295Y-122166666D01*
X187815295Y-122166666D02*
X187958152Y-122166666D01*
X187958152Y-122166666D02*
X188053390Y-122214285D01*
X188053390Y-122214285D02*
X188101009Y-122261904D01*
X188101009Y-122261904D02*
X188148628Y-122357142D01*
X188148628Y-122357142D02*
X188148628Y-122738094D01*
X187720057Y-121785713D02*
X187672438Y-121738094D01*
X187672438Y-121738094D02*
X187624819Y-121642856D01*
X187624819Y-121642856D02*
X187624819Y-121404761D01*
X187624819Y-121404761D02*
X187672438Y-121309523D01*
X187672438Y-121309523D02*
X187720057Y-121261904D01*
X187720057Y-121261904D02*
X187815295Y-121214285D01*
X187815295Y-121214285D02*
X187910533Y-121214285D01*
X187910533Y-121214285D02*
X188053390Y-121261904D01*
X188053390Y-121261904D02*
X188624819Y-121833332D01*
X188624819Y-121833332D02*
X188624819Y-121214285D01*
X173916666Y-50004819D02*
X173916666Y-50719104D01*
X173916666Y-50719104D02*
X173869047Y-50861961D01*
X173869047Y-50861961D02*
X173773809Y-50957200D01*
X173773809Y-50957200D02*
X173630952Y-51004819D01*
X173630952Y-51004819D02*
X173535714Y-51004819D01*
X174821428Y-50004819D02*
X174630952Y-50004819D01*
X174630952Y-50004819D02*
X174535714Y-50052438D01*
X174535714Y-50052438D02*
X174488095Y-50100057D01*
X174488095Y-50100057D02*
X174392857Y-50242914D01*
X174392857Y-50242914D02*
X174345238Y-50433390D01*
X174345238Y-50433390D02*
X174345238Y-50814342D01*
X174345238Y-50814342D02*
X174392857Y-50909580D01*
X174392857Y-50909580D02*
X174440476Y-50957200D01*
X174440476Y-50957200D02*
X174535714Y-51004819D01*
X174535714Y-51004819D02*
X174726190Y-51004819D01*
X174726190Y-51004819D02*
X174821428Y-50957200D01*
X174821428Y-50957200D02*
X174869047Y-50909580D01*
X174869047Y-50909580D02*
X174916666Y-50814342D01*
X174916666Y-50814342D02*
X174916666Y-50576247D01*
X174916666Y-50576247D02*
X174869047Y-50481009D01*
X174869047Y-50481009D02*
X174821428Y-50433390D01*
X174821428Y-50433390D02*
X174726190Y-50385771D01*
X174726190Y-50385771D02*
X174535714Y-50385771D01*
X174535714Y-50385771D02*
X174440476Y-50433390D01*
X174440476Y-50433390D02*
X174392857Y-50481009D01*
X174392857Y-50481009D02*
X174345238Y-50576247D01*
X182284819Y-99105357D02*
X181808628Y-99438690D01*
X182284819Y-99676785D02*
X181284819Y-99676785D01*
X181284819Y-99676785D02*
X181284819Y-99295833D01*
X181284819Y-99295833D02*
X181332438Y-99200595D01*
X181332438Y-99200595D02*
X181380057Y-99152976D01*
X181380057Y-99152976D02*
X181475295Y-99105357D01*
X181475295Y-99105357D02*
X181618152Y-99105357D01*
X181618152Y-99105357D02*
X181713390Y-99152976D01*
X181713390Y-99152976D02*
X181761009Y-99200595D01*
X181761009Y-99200595D02*
X181808628Y-99295833D01*
X181808628Y-99295833D02*
X181808628Y-99676785D01*
X182284819Y-98152976D02*
X182284819Y-98724404D01*
X182284819Y-98438690D02*
X181284819Y-98438690D01*
X181284819Y-98438690D02*
X181427676Y-98533928D01*
X181427676Y-98533928D02*
X181522914Y-98629166D01*
X181522914Y-98629166D02*
X181570533Y-98724404D01*
X181284819Y-97533928D02*
X181284819Y-97438690D01*
X181284819Y-97438690D02*
X181332438Y-97343452D01*
X181332438Y-97343452D02*
X181380057Y-97295833D01*
X181380057Y-97295833D02*
X181475295Y-97248214D01*
X181475295Y-97248214D02*
X181665771Y-97200595D01*
X181665771Y-97200595D02*
X181903866Y-97200595D01*
X181903866Y-97200595D02*
X182094342Y-97248214D01*
X182094342Y-97248214D02*
X182189580Y-97295833D01*
X182189580Y-97295833D02*
X182237200Y-97343452D01*
X182237200Y-97343452D02*
X182284819Y-97438690D01*
X182284819Y-97438690D02*
X182284819Y-97533928D01*
X182284819Y-97533928D02*
X182237200Y-97629166D01*
X182237200Y-97629166D02*
X182189580Y-97676785D01*
X182189580Y-97676785D02*
X182094342Y-97724404D01*
X182094342Y-97724404D02*
X181903866Y-97772023D01*
X181903866Y-97772023D02*
X181665771Y-97772023D01*
X181665771Y-97772023D02*
X181475295Y-97724404D01*
X181475295Y-97724404D02*
X181380057Y-97676785D01*
X181380057Y-97676785D02*
X181332438Y-97629166D01*
X181332438Y-97629166D02*
X181284819Y-97533928D01*
X112330057Y-75095238D02*
X112282438Y-75190476D01*
X112282438Y-75190476D02*
X112187200Y-75285714D01*
X112187200Y-75285714D02*
X112044342Y-75428571D01*
X112044342Y-75428571D02*
X111996723Y-75523809D01*
X111996723Y-75523809D02*
X111996723Y-75619047D01*
X112234819Y-75571428D02*
X112187200Y-75666666D01*
X112187200Y-75666666D02*
X112091961Y-75761904D01*
X112091961Y-75761904D02*
X111901485Y-75809523D01*
X111901485Y-75809523D02*
X111568152Y-75809523D01*
X111568152Y-75809523D02*
X111377676Y-75761904D01*
X111377676Y-75761904D02*
X111282438Y-75666666D01*
X111282438Y-75666666D02*
X111234819Y-75571428D01*
X111234819Y-75571428D02*
X111234819Y-75380952D01*
X111234819Y-75380952D02*
X111282438Y-75285714D01*
X111282438Y-75285714D02*
X111377676Y-75190476D01*
X111377676Y-75190476D02*
X111568152Y-75142857D01*
X111568152Y-75142857D02*
X111901485Y-75142857D01*
X111901485Y-75142857D02*
X112091961Y-75190476D01*
X112091961Y-75190476D02*
X112187200Y-75285714D01*
X112187200Y-75285714D02*
X112234819Y-75380952D01*
X112234819Y-75380952D02*
X112234819Y-75571428D01*
X112234819Y-74190476D02*
X112234819Y-74761904D01*
X112234819Y-74476190D02*
X111234819Y-74476190D01*
X111234819Y-74476190D02*
X111377676Y-74571428D01*
X111377676Y-74571428D02*
X111472914Y-74666666D01*
X111472914Y-74666666D02*
X111520533Y-74761904D01*
X185440476Y-91179819D02*
X185440476Y-91894104D01*
X185440476Y-91894104D02*
X185392857Y-92036961D01*
X185392857Y-92036961D02*
X185297619Y-92132200D01*
X185297619Y-92132200D02*
X185154762Y-92179819D01*
X185154762Y-92179819D02*
X185059524Y-92179819D01*
X186440476Y-92179819D02*
X185869048Y-92179819D01*
X186154762Y-92179819D02*
X186154762Y-91179819D01*
X186154762Y-91179819D02*
X186059524Y-91322676D01*
X186059524Y-91322676D02*
X185964286Y-91417914D01*
X185964286Y-91417914D02*
X185869048Y-91465533D01*
X187059524Y-91179819D02*
X187154762Y-91179819D01*
X187154762Y-91179819D02*
X187250000Y-91227438D01*
X187250000Y-91227438D02*
X187297619Y-91275057D01*
X187297619Y-91275057D02*
X187345238Y-91370295D01*
X187345238Y-91370295D02*
X187392857Y-91560771D01*
X187392857Y-91560771D02*
X187392857Y-91798866D01*
X187392857Y-91798866D02*
X187345238Y-91989342D01*
X187345238Y-91989342D02*
X187297619Y-92084580D01*
X187297619Y-92084580D02*
X187250000Y-92132200D01*
X187250000Y-92132200D02*
X187154762Y-92179819D01*
X187154762Y-92179819D02*
X187059524Y-92179819D01*
X187059524Y-92179819D02*
X186964286Y-92132200D01*
X186964286Y-92132200D02*
X186916667Y-92084580D01*
X186916667Y-92084580D02*
X186869048Y-91989342D01*
X186869048Y-91989342D02*
X186821429Y-91798866D01*
X186821429Y-91798866D02*
X186821429Y-91560771D01*
X186821429Y-91560771D02*
X186869048Y-91370295D01*
X186869048Y-91370295D02*
X186916667Y-91275057D01*
X186916667Y-91275057D02*
X186964286Y-91227438D01*
X186964286Y-91227438D02*
X187059524Y-91179819D01*
X195284819Y-95904166D02*
X194808628Y-96237499D01*
X195284819Y-96475594D02*
X194284819Y-96475594D01*
X194284819Y-96475594D02*
X194284819Y-96094642D01*
X194284819Y-96094642D02*
X194332438Y-95999404D01*
X194332438Y-95999404D02*
X194380057Y-95951785D01*
X194380057Y-95951785D02*
X194475295Y-95904166D01*
X194475295Y-95904166D02*
X194618152Y-95904166D01*
X194618152Y-95904166D02*
X194713390Y-95951785D01*
X194713390Y-95951785D02*
X194761009Y-95999404D01*
X194761009Y-95999404D02*
X194808628Y-96094642D01*
X194808628Y-96094642D02*
X194808628Y-96475594D01*
X194713390Y-95332737D02*
X194665771Y-95427975D01*
X194665771Y-95427975D02*
X194618152Y-95475594D01*
X194618152Y-95475594D02*
X194522914Y-95523213D01*
X194522914Y-95523213D02*
X194475295Y-95523213D01*
X194475295Y-95523213D02*
X194380057Y-95475594D01*
X194380057Y-95475594D02*
X194332438Y-95427975D01*
X194332438Y-95427975D02*
X194284819Y-95332737D01*
X194284819Y-95332737D02*
X194284819Y-95142261D01*
X194284819Y-95142261D02*
X194332438Y-95047023D01*
X194332438Y-95047023D02*
X194380057Y-94999404D01*
X194380057Y-94999404D02*
X194475295Y-94951785D01*
X194475295Y-94951785D02*
X194522914Y-94951785D01*
X194522914Y-94951785D02*
X194618152Y-94999404D01*
X194618152Y-94999404D02*
X194665771Y-95047023D01*
X194665771Y-95047023D02*
X194713390Y-95142261D01*
X194713390Y-95142261D02*
X194713390Y-95332737D01*
X194713390Y-95332737D02*
X194761009Y-95427975D01*
X194761009Y-95427975D02*
X194808628Y-95475594D01*
X194808628Y-95475594D02*
X194903866Y-95523213D01*
X194903866Y-95523213D02*
X195094342Y-95523213D01*
X195094342Y-95523213D02*
X195189580Y-95475594D01*
X195189580Y-95475594D02*
X195237200Y-95427975D01*
X195237200Y-95427975D02*
X195284819Y-95332737D01*
X195284819Y-95332737D02*
X195284819Y-95142261D01*
X195284819Y-95142261D02*
X195237200Y-95047023D01*
X195237200Y-95047023D02*
X195189580Y-94999404D01*
X195189580Y-94999404D02*
X195094342Y-94951785D01*
X195094342Y-94951785D02*
X194903866Y-94951785D01*
X194903866Y-94951785D02*
X194808628Y-94999404D01*
X194808628Y-94999404D02*
X194761009Y-95047023D01*
X194761009Y-95047023D02*
X194713390Y-95142261D01*
D14*
%TO.C,R3*%
X214272936Y-39090000D02*
X215727064Y-39090000D01*
X214272936Y-40910000D02*
X215727064Y-40910000D01*
D13*
%TO.C,A1*%
X153650000Y-112110000D02*
X196830000Y-112110000D01*
X153650000Y-129890000D02*
X153650000Y-112110000D01*
X153650000Y-129890000D02*
X196830000Y-129890000D01*
X196830000Y-129890000D02*
X196830000Y-112110000D01*
D14*
%TO.C,J7*%
X158460000Y-43190000D02*
X158460000Y-50810000D01*
X158460000Y-50810000D02*
X168620000Y-50810000D01*
X168620000Y-43190000D02*
X158460000Y-43190000D01*
X168620000Y-49540000D02*
X158460000Y-49540000D01*
X168620000Y-50810000D02*
X168620000Y-43190000D01*
%TO.C,R5*%
X207090000Y-95735436D02*
X207090000Y-97189564D01*
X208910000Y-95735436D02*
X208910000Y-97189564D01*
%TO.C,Q2*%
X142780000Y-69750000D02*
X142780000Y-70950000D01*
X142780000Y-72149000D02*
X142780000Y-73350000D01*
X142780000Y-74550000D02*
X142780000Y-75750000D01*
X142780000Y-76950000D02*
X142780000Y-78150000D01*
X142780000Y-79350000D02*
X142780000Y-80250000D01*
X144420000Y-69750000D02*
X143220000Y-69750000D01*
X144420000Y-80250000D02*
X143220000Y-80250000D01*
X146820000Y-69750000D02*
X145620000Y-69750000D01*
X146820000Y-80250000D02*
X145620000Y-80250000D01*
X149220000Y-69750000D02*
X148020000Y-69750000D01*
X149220000Y-80250000D02*
X148020000Y-80250000D01*
X149460000Y-69750000D02*
X149460000Y-80250000D01*
X158890000Y-69750000D02*
X149460000Y-69750000D01*
X158890000Y-69750000D02*
X158890000Y-80250000D01*
X158890000Y-80250000D02*
X149460000Y-80250000D01*
X160850000Y-72460000D02*
X158890000Y-72460000D01*
X160850000Y-75000000D02*
X158890000Y-75000000D01*
X160850000Y-77540000D02*
X158890000Y-77540000D01*
D11*
X160850000Y-60000000D02*
X130850000Y-60000000D01*
X130850000Y-90000000D01*
X160850000Y-90000000D01*
X160850000Y-60000000D01*
D14*
%TO.C,U4*%
X169355000Y-92670000D02*
X169355000Y-97870000D01*
X169355000Y-97870000D02*
X174655000Y-97870000D01*
X171005000Y-92670000D02*
X169355000Y-92670000D01*
X174655000Y-92670000D02*
X173005000Y-92670000D01*
X174655000Y-97870000D02*
X174655000Y-92670000D01*
X173005000Y-92670000D02*
G75*
G02*
X171005000Y-92670000I-1000000J0D01*
G01*
%TO.C,Q3*%
X172780000Y-69750000D02*
X172780000Y-70950000D01*
X172780000Y-72149000D02*
X172780000Y-73350000D01*
X172780000Y-74550000D02*
X172780000Y-75750000D01*
X172780000Y-76950000D02*
X172780000Y-78150000D01*
X172780000Y-79350000D02*
X172780000Y-80250000D01*
X174420000Y-69750000D02*
X173220000Y-69750000D01*
X174420000Y-80250000D02*
X173220000Y-80250000D01*
X176820000Y-69750000D02*
X175620000Y-69750000D01*
X176820000Y-80250000D02*
X175620000Y-80250000D01*
X179220000Y-69750000D02*
X178020000Y-69750000D01*
X179220000Y-80250000D02*
X178020000Y-80250000D01*
X179460000Y-69750000D02*
X179460000Y-80250000D01*
X188890000Y-69750000D02*
X179460000Y-69750000D01*
X188890000Y-69750000D02*
X188890000Y-80250000D01*
X188890000Y-80250000D02*
X179460000Y-80250000D01*
X190850000Y-72460000D02*
X188890000Y-72460000D01*
X190850000Y-75000000D02*
X188890000Y-75000000D01*
X190850000Y-77540000D02*
X188890000Y-77540000D01*
D11*
X190850000Y-60000000D02*
X160850000Y-60000000D01*
X160850000Y-90000000D01*
X190850000Y-90000000D01*
X190850000Y-60000000D01*
D14*
%TO.C,R4*%
X149090000Y-97735436D02*
X149090000Y-99189564D01*
X150910000Y-97735436D02*
X150910000Y-99189564D01*
%TO.C,Q4*%
X202780000Y-69750000D02*
X202780000Y-70950000D01*
X202780000Y-72149000D02*
X202780000Y-73350000D01*
X202780000Y-74550000D02*
X202780000Y-75750000D01*
X202780000Y-76950000D02*
X202780000Y-78150000D01*
X202780000Y-79350000D02*
X202780000Y-80250000D01*
X204420000Y-69750000D02*
X203220000Y-69750000D01*
X204420000Y-80250000D02*
X203220000Y-80250000D01*
X206820000Y-69750000D02*
X205620000Y-69750000D01*
X206820000Y-80250000D02*
X205620000Y-80250000D01*
X209220000Y-69750000D02*
X208020000Y-69750000D01*
X209220000Y-80250000D02*
X208020000Y-80250000D01*
X209460000Y-69750000D02*
X209460000Y-80250000D01*
X218890000Y-69750000D02*
X209460000Y-69750000D01*
X218890000Y-69750000D02*
X218890000Y-80250000D01*
X218890000Y-80250000D02*
X209460000Y-80250000D01*
X220850000Y-72460000D02*
X218890000Y-72460000D01*
X220850000Y-75000000D02*
X218890000Y-75000000D01*
X220850000Y-77540000D02*
X218890000Y-77540000D01*
D11*
X220850000Y-60000000D02*
X190850000Y-60000000D01*
X190850000Y-90000000D01*
X220850000Y-90000000D01*
X220850000Y-60000000D01*
D14*
%TO.C,R11*%
X197090000Y-95272936D02*
X197090000Y-96727064D01*
X198910000Y-95272936D02*
X198910000Y-96727064D01*
%TO.C,J1*%
X114440000Y-43490000D02*
X114440000Y-49460000D01*
X114440000Y-49460000D02*
X124560000Y-49460000D01*
X114450000Y-47200000D02*
X115200000Y-47200000D01*
X114450000Y-48700000D02*
X114450000Y-49450000D01*
X114450000Y-49450000D02*
X116250000Y-49450000D01*
X115200000Y-44250000D02*
X119500000Y-44250000D01*
X115200000Y-47200000D02*
X115200000Y-44250000D01*
X116250000Y-48700000D02*
X114450000Y-48700000D01*
X116250000Y-49450000D02*
X116250000Y-48700000D01*
X117750000Y-48700000D02*
X117750000Y-49450000D01*
X117750000Y-49450000D02*
X121250000Y-49450000D01*
X121250000Y-48700000D02*
X117750000Y-48700000D01*
X121250000Y-49450000D02*
X121250000Y-48700000D01*
X122750000Y-48700000D02*
X122750000Y-49450000D01*
X122750000Y-49450000D02*
X124550000Y-49450000D01*
X123600000Y-49750000D02*
X124850000Y-49750000D01*
X123800000Y-44250000D02*
X119500000Y-44250000D01*
X123800000Y-47200000D02*
X123800000Y-44250000D01*
X124550000Y-47200000D02*
X123800000Y-47200000D01*
X124550000Y-48700000D02*
X122750000Y-48700000D01*
X124550000Y-49450000D02*
X124550000Y-48700000D01*
X124560000Y-43490000D02*
X114440000Y-43490000D01*
X124560000Y-49460000D02*
X124560000Y-43490000D01*
X124850000Y-49750000D02*
X124850000Y-48500000D01*
%TO.C,J15*%
X201380000Y-43190000D02*
X201380000Y-50810000D01*
X201380000Y-50810000D02*
X211540000Y-50810000D01*
X211540000Y-43190000D02*
X201380000Y-43190000D01*
X211540000Y-49540000D02*
X201380000Y-49540000D01*
X211540000Y-50810000D02*
X211540000Y-43190000D01*
%TO.C,J11*%
X212150000Y-92525000D02*
X212150000Y-93775000D01*
X212440000Y-92815000D02*
X212440000Y-98785000D01*
X212440000Y-98785000D02*
X220060000Y-98785000D01*
X212450000Y-92825000D02*
X212450000Y-93575000D01*
X212450000Y-93575000D02*
X214250000Y-93575000D01*
X212450000Y-95075000D02*
X213200000Y-95075000D01*
X213200000Y-95075000D02*
X213200000Y-98025000D01*
X213200000Y-98025000D02*
X216250000Y-98025000D01*
X213400000Y-92525000D02*
X212150000Y-92525000D01*
X214250000Y-92825000D02*
X212450000Y-92825000D01*
X214250000Y-93575000D02*
X214250000Y-92825000D01*
X215750000Y-92825000D02*
X215750000Y-93575000D01*
X215750000Y-93575000D02*
X216750000Y-93575000D01*
X216750000Y-92825000D02*
X215750000Y-92825000D01*
X216750000Y-93575000D02*
X216750000Y-92825000D01*
X218250000Y-92825000D02*
X218250000Y-93575000D01*
X218250000Y-93575000D02*
X220050000Y-93575000D01*
X219300000Y-95075000D02*
X219300000Y-98025000D01*
X219300000Y-98025000D02*
X216250000Y-98025000D01*
X220050000Y-92825000D02*
X218250000Y-92825000D01*
X220050000Y-93575000D02*
X220050000Y-92825000D01*
X220050000Y-95075000D02*
X219300000Y-95075000D01*
X220060000Y-92815000D02*
X212440000Y-92815000D01*
X220060000Y-98785000D02*
X220060000Y-92815000D01*
%TO.C,R9*%
X222090000Y-95010436D02*
X222090000Y-96464564D01*
X223910000Y-95010436D02*
X223910000Y-96464564D01*
%TO.C,R6*%
X132090000Y-96085436D02*
X132090000Y-97539564D01*
X133910000Y-96085436D02*
X133910000Y-97539564D01*
%TO.C,R7*%
X162090000Y-95010436D02*
X162090000Y-96464564D01*
X163910000Y-95010436D02*
X163910000Y-96464564D01*
%TO.C,R1*%
X185090000Y-122727064D02*
X185090000Y-121272936D01*
X186910000Y-122727064D02*
X186910000Y-121272936D01*
%TO.C,U1*%
X128350000Y-115860000D02*
X128350000Y-126140000D01*
X128350000Y-126140000D02*
X133650000Y-126140000D01*
X130000000Y-115860000D02*
X128350000Y-115860000D01*
X133650000Y-115860000D02*
X132000000Y-115860000D01*
X133650000Y-126140000D02*
X133650000Y-115860000D01*
X125860000Y-115800000D02*
X136140000Y-115800000D01*
X136140000Y-126200000D01*
X125860000Y-126200000D01*
X125860000Y-115800000D01*
X132000000Y-115860000D02*
G75*
G02*
X130000000Y-115860000I-1000000J0D01*
G01*
%TO.C,J3*%
X190380000Y-43190000D02*
X190380000Y-50810000D01*
X190380000Y-50810000D02*
X200540000Y-50810000D01*
X200540000Y-43190000D02*
X190380000Y-43190000D01*
X200540000Y-49540000D02*
X190380000Y-49540000D01*
X200540000Y-50810000D02*
X200540000Y-43190000D01*
%TO.C,J5*%
X148440000Y-43490000D02*
X148440000Y-49460000D01*
X148440000Y-49460000D02*
X156060000Y-49460000D01*
X148450000Y-47200000D02*
X149200000Y-47200000D01*
X148450000Y-48700000D02*
X148450000Y-49450000D01*
X148450000Y-49450000D02*
X150250000Y-49450000D01*
X149200000Y-44250000D02*
X152250000Y-44250000D01*
X149200000Y-47200000D02*
X149200000Y-44250000D01*
X150250000Y-48700000D02*
X148450000Y-48700000D01*
X150250000Y-49450000D02*
X150250000Y-48700000D01*
X151750000Y-48700000D02*
X151750000Y-49450000D01*
X151750000Y-49450000D02*
X152750000Y-49450000D01*
X152750000Y-48700000D02*
X151750000Y-48700000D01*
X152750000Y-49450000D02*
X152750000Y-48700000D01*
X154250000Y-48700000D02*
X154250000Y-49450000D01*
X154250000Y-49450000D02*
X156050000Y-49450000D01*
X155100000Y-49750000D02*
X156350000Y-49750000D01*
X155300000Y-44250000D02*
X152250000Y-44250000D01*
X155300000Y-47200000D02*
X155300000Y-44250000D01*
X156050000Y-47200000D02*
X155300000Y-47200000D01*
X156050000Y-48700000D02*
X154250000Y-48700000D01*
X156050000Y-49450000D02*
X156050000Y-48700000D01*
X156060000Y-43490000D02*
X148440000Y-43490000D01*
X156060000Y-49460000D02*
X156060000Y-43490000D01*
X156350000Y-49750000D02*
X156350000Y-48500000D01*
%TO.C,J8*%
X122150000Y-92525000D02*
X122150000Y-93775000D01*
X122440000Y-92815000D02*
X122440000Y-98785000D01*
X122440000Y-98785000D02*
X130060000Y-98785000D01*
X122450000Y-92825000D02*
X122450000Y-93575000D01*
X122450000Y-93575000D02*
X124250000Y-93575000D01*
X122450000Y-95075000D02*
X123200000Y-95075000D01*
X123200000Y-95075000D02*
X123200000Y-98025000D01*
X123200000Y-98025000D02*
X126250000Y-98025000D01*
X123400000Y-92525000D02*
X122150000Y-92525000D01*
X124250000Y-92825000D02*
X122450000Y-92825000D01*
X124250000Y-93575000D02*
X124250000Y-92825000D01*
X125750000Y-92825000D02*
X125750000Y-93575000D01*
X125750000Y-93575000D02*
X126750000Y-93575000D01*
X126750000Y-92825000D02*
X125750000Y-92825000D01*
X126750000Y-93575000D02*
X126750000Y-92825000D01*
X128250000Y-92825000D02*
X128250000Y-93575000D01*
X128250000Y-93575000D02*
X130050000Y-93575000D01*
X129300000Y-95075000D02*
X129300000Y-98025000D01*
X129300000Y-98025000D02*
X126250000Y-98025000D01*
X130050000Y-92825000D02*
X128250000Y-92825000D01*
X130050000Y-93575000D02*
X130050000Y-92825000D01*
X130050000Y-95075000D02*
X129300000Y-95075000D01*
X130060000Y-92815000D02*
X122440000Y-92815000D01*
X130060000Y-98785000D02*
X130060000Y-92815000D01*
%TO.C,D1*%
X106000000Y-71260000D02*
X106000000Y-72280000D01*
X106000000Y-78740000D02*
X106000000Y-77720000D01*
X107470000Y-73060000D02*
X104530000Y-73060000D01*
X107470000Y-73180000D02*
X104530000Y-73180000D01*
X107470000Y-73300000D02*
X104530000Y-73300000D01*
X107470000Y-72280000D02*
X104530000Y-72280000D01*
X104530000Y-77720000D01*
X107470000Y-77720000D01*
X107470000Y-72280000D01*
%TO.C,J12*%
X109650000Y-118450000D02*
X109650000Y-119700000D01*
X109940000Y-118740000D02*
X109940000Y-124710000D01*
X109940000Y-124710000D02*
X122560000Y-124710000D01*
X109950000Y-118750000D02*
X109950000Y-119500000D01*
X109950000Y-119500000D02*
X111750000Y-119500000D01*
X109950000Y-121000000D02*
X110700000Y-121000000D01*
X110700000Y-121000000D02*
X110700000Y-123950000D01*
X110700000Y-123950000D02*
X116250000Y-123950000D01*
X110900000Y-118450000D02*
X109650000Y-118450000D01*
X111750000Y-118750000D02*
X109950000Y-118750000D01*
X111750000Y-119500000D02*
X111750000Y-118750000D01*
X113250000Y-118750000D02*
X113250000Y-119500000D01*
X113250000Y-119500000D02*
X119250000Y-119500000D01*
X119250000Y-118750000D02*
X113250000Y-118750000D01*
X119250000Y-119500000D02*
X119250000Y-118750000D01*
X120750000Y-118750000D02*
X120750000Y-119500000D01*
X120750000Y-119500000D02*
X122550000Y-119500000D01*
X121800000Y-121000000D02*
X121800000Y-123950000D01*
X121800000Y-123950000D02*
X116250000Y-123950000D01*
X122550000Y-118750000D02*
X120750000Y-118750000D01*
X122550000Y-119500000D02*
X122550000Y-118750000D01*
X122550000Y-121000000D02*
X121800000Y-121000000D01*
X122560000Y-118740000D02*
X109940000Y-118740000D01*
X122560000Y-124710000D02*
X122560000Y-118740000D01*
%TO.C,BZ1*%
X151100000Y-120800000D02*
G75*
G02*
X138900000Y-120800000I-6100000J0D01*
G01*
X138900000Y-120800000D02*
G75*
G02*
X151100000Y-120800000I6100000J0D01*
G01*
D15*
%TO.C,G\u002A\u002A\u002A*%
G36*
X115469850Y-114375223D02*
G01*
X115475149Y-114385277D01*
X115484776Y-114407241D01*
X115497752Y-114438586D01*
X115513098Y-114476783D01*
X115529837Y-114519300D01*
X115546990Y-114563608D01*
X115563579Y-114607177D01*
X115578626Y-114647477D01*
X115591153Y-114681978D01*
X115600182Y-114708149D01*
X115604733Y-114723462D01*
X115604977Y-114724711D01*
X115603998Y-114763000D01*
X115590765Y-114801339D01*
X115567750Y-114835318D01*
X115537422Y-114860525D01*
X115525606Y-114866430D01*
X115492052Y-114875047D01*
X115455070Y-114876237D01*
X115421151Y-114870208D01*
X115403846Y-114862533D01*
X115365451Y-114831278D01*
X115341170Y-114794024D01*
X115331078Y-114750899D01*
X115330769Y-114741198D01*
X115333315Y-114727718D01*
X115340378Y-114703575D01*
X115351095Y-114671037D01*
X115364604Y-114632376D01*
X115380042Y-114589862D01*
X115396545Y-114545765D01*
X115413252Y-114502355D01*
X115429299Y-114461902D01*
X115443824Y-114426678D01*
X115455963Y-114398951D01*
X115464855Y-114380992D01*
X115469636Y-114375072D01*
X115469850Y-114375223D01*
G37*
G36*
X115665838Y-112273717D02*
G01*
X115719689Y-112277667D01*
X115764766Y-112284604D01*
X115776923Y-112287553D01*
X115872009Y-112321139D01*
X115958786Y-112366936D01*
X116036402Y-112423839D01*
X116104007Y-112490739D01*
X116160750Y-112566530D01*
X116205781Y-112650105D01*
X116238249Y-112740357D01*
X116257303Y-112836179D01*
X116262321Y-112919230D01*
X116256591Y-113010953D01*
X116238970Y-113096434D01*
X116214139Y-113167187D01*
X116201756Y-113195256D01*
X116188095Y-113222232D01*
X116171914Y-113249890D01*
X116151970Y-113280001D01*
X116127020Y-113314339D01*
X116095821Y-113354676D01*
X116057130Y-113402786D01*
X116009706Y-113460442D01*
X116002420Y-113469230D01*
X115965673Y-113513568D01*
X115921584Y-113566839D01*
X115872586Y-113626099D01*
X115821114Y-113688403D01*
X115769601Y-113750804D01*
X115720481Y-113810358D01*
X115703659Y-113830769D01*
X115663170Y-113879744D01*
X115625623Y-113924854D01*
X115592167Y-113964739D01*
X115563953Y-113998043D01*
X115542131Y-114023407D01*
X115527850Y-114039472D01*
X115522365Y-114044871D01*
X115516674Y-114040759D01*
X115515384Y-114032757D01*
X115512129Y-114012923D01*
X115503204Y-113982751D01*
X115489867Y-113945639D01*
X115473380Y-113904983D01*
X115455001Y-113864182D01*
X115446216Y-113846214D01*
X115422673Y-113801475D01*
X115397875Y-113758927D01*
X115370671Y-113717193D01*
X115339914Y-113674900D01*
X115304453Y-113630672D01*
X115263141Y-113583134D01*
X115214827Y-113530911D01*
X115158364Y-113472629D01*
X115092601Y-113406912D01*
X115018688Y-113334615D01*
X114952936Y-113270421D01*
X114897345Y-113215233D01*
X114850703Y-113167699D01*
X114811798Y-113126465D01*
X114779418Y-113090177D01*
X114752350Y-113057482D01*
X114729382Y-113027027D01*
X114709303Y-112997458D01*
X114692927Y-112970869D01*
X114653936Y-112890018D01*
X114628312Y-112803230D01*
X114616509Y-112712933D01*
X114618980Y-112621554D01*
X114622530Y-112594569D01*
X114627826Y-112567822D01*
X114636150Y-112533909D01*
X114646491Y-112496159D01*
X114657837Y-112457902D01*
X114669179Y-112422467D01*
X114679503Y-112393182D01*
X114687800Y-112373378D01*
X114691575Y-112367220D01*
X114701239Y-112367469D01*
X114719530Y-112376710D01*
X114744034Y-112393220D01*
X114772337Y-112415278D01*
X114802024Y-112441163D01*
X114821634Y-112459937D01*
X114869826Y-112514713D01*
X114913474Y-112577110D01*
X114949063Y-112641722D01*
X114966180Y-112682265D01*
X114978095Y-112711170D01*
X114988227Y-112728646D01*
X114995696Y-112733755D01*
X114999620Y-112725558D01*
X115000000Y-112718272D01*
X115003083Y-112706119D01*
X115011254Y-112684353D01*
X115022893Y-112657206D01*
X115025775Y-112650896D01*
X115074915Y-112562267D01*
X115135474Y-112483644D01*
X115206622Y-112415724D01*
X115287528Y-112359207D01*
X115377361Y-112314790D01*
X115457692Y-112287728D01*
X115499142Y-112279758D01*
X115550816Y-112274765D01*
X115607964Y-112272750D01*
X115665838Y-112273717D01*
G37*
G36*
X114440676Y-112274884D02*
G01*
X114482656Y-112279014D01*
X114505223Y-112283328D01*
X114545061Y-112293580D01*
X114530729Y-112327015D01*
X114521335Y-112350956D01*
X114509823Y-112383153D01*
X114498501Y-112417127D01*
X114497213Y-112421178D01*
X114468375Y-112533835D01*
X114454357Y-112642506D01*
X114455185Y-112747417D01*
X114470881Y-112848793D01*
X114501469Y-112946859D01*
X114546974Y-113041839D01*
X114566039Y-113073776D01*
X114587718Y-113107053D01*
X114610668Y-113139442D01*
X114636161Y-113172356D01*
X114665464Y-113207207D01*
X114699849Y-113245409D01*
X114740585Y-113288373D01*
X114788942Y-113337511D01*
X114846189Y-113394237D01*
X114910636Y-113457091D01*
X114983488Y-113528274D01*
X115045965Y-113590600D01*
X115099199Y-113645423D01*
X115144321Y-113694098D01*
X115182463Y-113737979D01*
X115214756Y-113778423D01*
X115242332Y-113816782D01*
X115266323Y-113854413D01*
X115287859Y-113892670D01*
X115308072Y-113932908D01*
X115308132Y-113933032D01*
X115342636Y-114020507D01*
X115365545Y-114112560D01*
X115373351Y-114171117D01*
X115378119Y-114226923D01*
X115345694Y-114265384D01*
X115332722Y-114280901D01*
X115311467Y-114306482D01*
X115283428Y-114340316D01*
X115250103Y-114380591D01*
X115212993Y-114425497D01*
X115173595Y-114473223D01*
X115156649Y-114493767D01*
X115118272Y-114540178D01*
X115082867Y-114582754D01*
X115051658Y-114620042D01*
X115025866Y-114650591D01*
X115006716Y-114672949D01*
X114995431Y-114685664D01*
X114993019Y-114688021D01*
X114987117Y-114682938D01*
X114972236Y-114666870D01*
X114949151Y-114640730D01*
X114918639Y-114605430D01*
X114881472Y-114561882D01*
X114838428Y-114511000D01*
X114790280Y-114453696D01*
X114737805Y-114390883D01*
X114681776Y-114323473D01*
X114622970Y-114252378D01*
X114621850Y-114251022D01*
X114257692Y-113809690D01*
X114253678Y-114445222D01*
X114272883Y-114473523D01*
X114296306Y-114519944D01*
X114305974Y-114567352D01*
X114303156Y-114613785D01*
X114289122Y-114657282D01*
X114265141Y-114695883D01*
X114232483Y-114727626D01*
X114192417Y-114750550D01*
X114146214Y-114762696D01*
X114095144Y-114762102D01*
X114086896Y-114760748D01*
X114051642Y-114751585D01*
X114022922Y-114736736D01*
X113993574Y-114712538D01*
X113961361Y-114672381D01*
X113945048Y-114633601D01*
X113941889Y-114626091D01*
X113935480Y-114576614D01*
X113941223Y-114535692D01*
X114042307Y-114535692D01*
X114042307Y-114633601D01*
X114076923Y-114654657D01*
X114098785Y-114666689D01*
X114116639Y-114674310D01*
X114123077Y-114675713D01*
X114135919Y-114671912D01*
X114156069Y-114662196D01*
X114169230Y-114654657D01*
X114203846Y-114633601D01*
X114203846Y-114535860D01*
X114119230Y-114490170D01*
X114080769Y-114512931D01*
X114042307Y-114535692D01*
X113941223Y-114535692D01*
X113942457Y-114526896D01*
X113963139Y-114479885D01*
X113967439Y-114473256D01*
X113988461Y-114442307D01*
X113992307Y-113967740D01*
X113996154Y-113493173D01*
X114123077Y-113647086D01*
X114250000Y-113801000D01*
X114254014Y-113171740D01*
X114274088Y-113160997D01*
X114300288Y-113141282D01*
X114327323Y-113111540D01*
X114351512Y-113076449D01*
X114369172Y-113040687D01*
X114369540Y-113039713D01*
X114383924Y-112980915D01*
X114384832Y-112920717D01*
X114373061Y-112861931D01*
X114349408Y-112807366D01*
X114314670Y-112759836D01*
X114281907Y-112730557D01*
X114262831Y-112717366D01*
X114248693Y-112709105D01*
X114244638Y-112707692D01*
X114242626Y-112714971D01*
X114240888Y-112735155D01*
X114239539Y-112765767D01*
X114238696Y-112804327D01*
X114238461Y-112840504D01*
X114237987Y-112897107D01*
X114236127Y-112940635D01*
X114232221Y-112973378D01*
X114225612Y-112997631D01*
X114215641Y-113015683D01*
X114201649Y-113029828D01*
X114182978Y-113042357D01*
X114179968Y-113044104D01*
X114140112Y-113059084D01*
X114100468Y-113059226D01*
X114062913Y-113044987D01*
X114029326Y-113016823D01*
X114019938Y-113005234D01*
X114014111Y-112996136D01*
X114009745Y-112985167D01*
X114006538Y-112969891D01*
X114004188Y-112947872D01*
X114002392Y-112916677D01*
X114000848Y-112873869D01*
X114000000Y-112844583D01*
X113996154Y-112705620D01*
X113962210Y-112731656D01*
X113927566Y-112764315D01*
X113896820Y-112804433D01*
X113874062Y-112846284D01*
X113867525Y-112864133D01*
X113862578Y-112888792D01*
X113859232Y-112921317D01*
X113858249Y-112951085D01*
X113866083Y-113011745D01*
X113888451Y-113068084D01*
X113924860Y-113119063D01*
X113950336Y-113144131D01*
X113992113Y-113180769D01*
X113992210Y-113328846D01*
X113991956Y-113374640D01*
X113991190Y-113414638D01*
X113990003Y-113446502D01*
X113988484Y-113467891D01*
X113986723Y-113476468D01*
X113986538Y-113476531D01*
X113979547Y-113470652D01*
X113965098Y-113454944D01*
X113945118Y-113431768D01*
X113921537Y-113403486D01*
X113896283Y-113372456D01*
X113871283Y-113341041D01*
X113848466Y-113311600D01*
X113829761Y-113286496D01*
X113820354Y-113273076D01*
X113794735Y-113229434D01*
X113769475Y-113176725D01*
X113747297Y-113121087D01*
X113732786Y-113075651D01*
X113725664Y-113038289D01*
X113721057Y-112990230D01*
X113718961Y-112935952D01*
X113719367Y-112879935D01*
X113722270Y-112826658D01*
X113727663Y-112780600D01*
X113733241Y-112753846D01*
X113748940Y-112707440D01*
X113771549Y-112655220D01*
X113798563Y-112602020D01*
X113827477Y-112552673D01*
X113855786Y-112512013D01*
X113863411Y-112502669D01*
X113928830Y-112436650D01*
X114004167Y-112378958D01*
X114086138Y-112331669D01*
X114171458Y-112296859D01*
X114203846Y-112287395D01*
X114240095Y-112280670D01*
X114286315Y-112275997D01*
X114338093Y-112273435D01*
X114391018Y-112273044D01*
X114440676Y-112274884D01*
G37*
G36*
X115095129Y-111175000D02*
G01*
X115114016Y-111216916D01*
X115132629Y-111265797D01*
X115149412Y-111316808D01*
X115162810Y-111365118D01*
X115171265Y-111405895D01*
X115172544Y-111415384D01*
X115174101Y-111446080D01*
X115173334Y-111483057D01*
X115171001Y-111512432D01*
X115168393Y-111557102D01*
X115172506Y-111588381D01*
X115183444Y-111606767D01*
X115191881Y-111611403D01*
X115208863Y-111615445D01*
X115236381Y-111620640D01*
X115269706Y-111626244D01*
X115304106Y-111631511D01*
X115334853Y-111635698D01*
X115357214Y-111638059D01*
X115362912Y-111638327D01*
X115379590Y-111636097D01*
X115392438Y-111627613D01*
X115402948Y-111610554D01*
X115412614Y-111582599D01*
X115421610Y-111547137D01*
X115431289Y-111510709D01*
X115442772Y-111474968D01*
X115453994Y-111446173D01*
X115457025Y-111439778D01*
X115475563Y-111408016D01*
X115501680Y-111369543D01*
X115532162Y-111328615D01*
X115563795Y-111289483D01*
X115593365Y-111256402D01*
X115602832Y-111246844D01*
X115637709Y-111212920D01*
X115697700Y-111230546D01*
X115737765Y-111242552D01*
X115765563Y-111252450D01*
X115783578Y-111262507D01*
X115794291Y-111274992D01*
X115800186Y-111292175D01*
X115803746Y-111316324D01*
X115805099Y-111328697D01*
X115807789Y-111363106D01*
X115809685Y-111406052D01*
X115810533Y-111450696D01*
X115810467Y-111473076D01*
X115809444Y-111510109D01*
X115806839Y-111541597D01*
X115801788Y-111571254D01*
X115793426Y-111602793D01*
X115780888Y-111639927D01*
X115763311Y-111686368D01*
X115757132Y-111702147D01*
X115748621Y-111728351D01*
X115747961Y-111745445D01*
X115750643Y-111752147D01*
X115760433Y-111760958D01*
X115780824Y-111774646D01*
X115808654Y-111791206D01*
X115835077Y-111805665D01*
X115876222Y-111826683D01*
X115906898Y-111839567D01*
X115929962Y-111843872D01*
X115948272Y-111839151D01*
X115964684Y-111824959D01*
X115982057Y-111800849D01*
X115994537Y-111780769D01*
X116015512Y-111748517D01*
X116038323Y-111716977D01*
X116058910Y-111691678D01*
X116064052Y-111686124D01*
X116089787Y-111662743D01*
X116125041Y-111634975D01*
X116165760Y-111605675D01*
X116207889Y-111577693D01*
X116247370Y-111553883D01*
X116267150Y-111543265D01*
X116307377Y-111522977D01*
X116372919Y-111569557D01*
X116407231Y-111595430D01*
X116429211Y-111615425D01*
X116438254Y-111628979D01*
X116438461Y-111630643D01*
X116436440Y-111650359D01*
X116431019Y-111680528D01*
X116423163Y-111716852D01*
X116413835Y-111755030D01*
X116403999Y-111790765D01*
X116398763Y-111807692D01*
X116371223Y-111878640D01*
X116337507Y-111939295D01*
X116295876Y-111993367D01*
X116269419Y-112024501D01*
X116252877Y-112047479D01*
X116245013Y-112064744D01*
X116244592Y-112078741D01*
X116248063Y-112087902D01*
X116256568Y-112099164D01*
X116273568Y-112118178D01*
X116296423Y-112142084D01*
X116317247Y-112162902D01*
X116350129Y-112193668D01*
X116374655Y-112213151D01*
X116391941Y-112222191D01*
X116397482Y-112223076D01*
X116414225Y-112217308D01*
X116440147Y-112200354D01*
X116474451Y-112172743D01*
X116477984Y-112169701D01*
X116521794Y-112135256D01*
X116567359Y-112107185D01*
X116618331Y-112083740D01*
X116678360Y-112063172D01*
X116730201Y-112048917D01*
X116774306Y-112038213D01*
X116806939Y-112032663D01*
X116831429Y-112033218D01*
X116851101Y-112040825D01*
X116869284Y-112056437D01*
X116889306Y-112081001D01*
X116901731Y-112097880D01*
X116947726Y-112161145D01*
X116911072Y-112224803D01*
X116867411Y-112295782D01*
X116825161Y-112353854D01*
X116782449Y-112401140D01*
X116737401Y-112439761D01*
X116697722Y-112466262D01*
X116663832Y-112487013D01*
X116640758Y-112504071D01*
X116627854Y-112520399D01*
X116624473Y-112538959D01*
X116629967Y-112562716D01*
X116643692Y-112594631D01*
X116661736Y-112631164D01*
X116682266Y-112670828D01*
X116699086Y-112697826D01*
X116714949Y-112713455D01*
X116732602Y-112719010D01*
X116754795Y-112715790D01*
X116784278Y-112705092D01*
X116802306Y-112697475D01*
X116864544Y-112674829D01*
X116927233Y-112661011D01*
X116994958Y-112655307D01*
X117065384Y-112656599D01*
X117114557Y-112659306D01*
X117150809Y-112661956D01*
X117176553Y-112665788D01*
X117194198Y-112672040D01*
X117206156Y-112681949D01*
X117214836Y-112696752D01*
X117222650Y-112717689D01*
X117230453Y-112741358D01*
X117240616Y-112773129D01*
X117248549Y-112800339D01*
X117253143Y-112819060D01*
X117253846Y-112824247D01*
X117247994Y-112836100D01*
X117231852Y-112855028D01*
X117207543Y-112879014D01*
X117177188Y-112906043D01*
X117142910Y-112934098D01*
X117119230Y-112952151D01*
X117055154Y-112994098D01*
X116990597Y-113024453D01*
X116919585Y-113045995D01*
X116915188Y-113047021D01*
X116880732Y-113055376D01*
X116856738Y-113063713D01*
X116841798Y-113074683D01*
X116834503Y-113090937D01*
X116833443Y-113115125D01*
X116837209Y-113149897D01*
X116842290Y-113184103D01*
X116848564Y-113220331D01*
X116855362Y-113251574D01*
X116861825Y-113274304D01*
X116866696Y-113284615D01*
X116874132Y-113289320D01*
X116887687Y-113292636D01*
X116909647Y-113294781D01*
X116942294Y-113295973D01*
X116987915Y-113296429D01*
X116990688Y-113296437D01*
X117044090Y-113297313D01*
X117088184Y-113300297D01*
X117127191Y-113306371D01*
X117165339Y-113316515D01*
X117206850Y-113331709D01*
X117255949Y-113352934D01*
X117278449Y-113363235D01*
X117345360Y-113394170D01*
X117347680Y-113425931D01*
X117348516Y-113450385D01*
X117348402Y-113482779D01*
X117347489Y-113512881D01*
X117344979Y-113568071D01*
X117274412Y-113598757D01*
X117220719Y-113621574D01*
X117177050Y-113638439D01*
X117139629Y-113650202D01*
X117104681Y-113657714D01*
X117068431Y-113661823D01*
X117027102Y-113663379D01*
X116987401Y-113663353D01*
X116943407Y-113663142D01*
X116912234Y-113663705D01*
X116891325Y-113665297D01*
X116878125Y-113668174D01*
X116870079Y-113672591D01*
X116867270Y-113675363D01*
X116861540Y-113688168D01*
X116854822Y-113712910D01*
X116847916Y-113746245D01*
X116842380Y-113779605D01*
X116836776Y-113818215D01*
X116833534Y-113844562D01*
X116832681Y-113861590D01*
X116834242Y-113872242D01*
X116838241Y-113879463D01*
X116843281Y-113884813D01*
X116857063Y-113892842D01*
X116881568Y-113902275D01*
X116912429Y-113911524D01*
X116926038Y-113914925D01*
X116988036Y-113933496D01*
X117046972Y-113960007D01*
X117105481Y-113996022D01*
X117166201Y-114043108D01*
X117214236Y-114086123D01*
X117260887Y-114129939D01*
X117248837Y-114166892D01*
X117239042Y-114196292D01*
X117227487Y-114230106D01*
X117221542Y-114247162D01*
X117206298Y-114290478D01*
X117158918Y-114296038D01*
X117105797Y-114300826D01*
X117049675Y-114303420D01*
X116995578Y-114303750D01*
X116948532Y-114301744D01*
X116925134Y-114299302D01*
X116895699Y-114293115D01*
X116858744Y-114282459D01*
X116820738Y-114269272D01*
X116807927Y-114264229D01*
X116773930Y-114250889D01*
X116750637Y-114243431D01*
X116734864Y-114241117D01*
X116723428Y-114243211D01*
X116721253Y-114244154D01*
X116709191Y-114255302D01*
X116693666Y-114277162D01*
X116676450Y-114306210D01*
X116659318Y-114338920D01*
X116644045Y-114371768D01*
X116632404Y-114401229D01*
X116626169Y-114423778D01*
X116625955Y-114433499D01*
X116634315Y-114447278D01*
X116653982Y-114464036D01*
X116686385Y-114484962D01*
X116691825Y-114488178D01*
X116753656Y-114531567D01*
X116810529Y-114586742D01*
X116863811Y-114655127D01*
X116888084Y-114692368D01*
X116911823Y-114730626D01*
X116928302Y-114758516D01*
X116937882Y-114779033D01*
X116940924Y-114795173D01*
X116937789Y-114809932D01*
X116928838Y-114826306D01*
X116914433Y-114847290D01*
X116907893Y-114856678D01*
X116885367Y-114889042D01*
X116868702Y-114910663D01*
X116854794Y-114923300D01*
X116840538Y-114928712D01*
X116822828Y-114928658D01*
X116798561Y-114924897D01*
X116790097Y-114923407D01*
X116691726Y-114900631D01*
X116604791Y-114868567D01*
X116528069Y-114826667D01*
X116463662Y-114777371D01*
X116440482Y-114758505D01*
X116419662Y-114744678D01*
X116405273Y-114738553D01*
X116404073Y-114738461D01*
X116390719Y-114744054D01*
X116370481Y-114759027D01*
X116345994Y-114780673D01*
X116319890Y-114806283D01*
X116294801Y-114833150D01*
X116273361Y-114858564D01*
X116258202Y-114879818D01*
X116251958Y-114894204D01*
X116251923Y-114894959D01*
X116258292Y-114914154D01*
X116277331Y-114941758D01*
X116295495Y-114963071D01*
X116338326Y-115020174D01*
X116375816Y-115089237D01*
X116406775Y-115167407D01*
X116430013Y-115251830D01*
X116440824Y-115311538D01*
X116442557Y-115323392D01*
X116442683Y-115332660D01*
X116439500Y-115341172D01*
X116431304Y-115350756D01*
X116416393Y-115363244D01*
X116393063Y-115380464D01*
X116359612Y-115404247D01*
X116344724Y-115414796D01*
X116308679Y-115440360D01*
X116252416Y-115407933D01*
X116179649Y-115363126D01*
X116119813Y-115319593D01*
X116070783Y-115275435D01*
X116030436Y-115228758D01*
X115999030Y-115181740D01*
X115980617Y-115151321D01*
X115967173Y-115131944D01*
X115956287Y-115121152D01*
X115945547Y-115116489D01*
X115934003Y-115115502D01*
X115918227Y-115119128D01*
X115893869Y-115128953D01*
X115864211Y-115143169D01*
X115832536Y-115159966D01*
X115802127Y-115177536D01*
X115776266Y-115194069D01*
X115758236Y-115207757D01*
X115751428Y-115216108D01*
X115752408Y-115230962D01*
X115759112Y-115255588D01*
X115770409Y-115285987D01*
X115772650Y-115291310D01*
X115791087Y-115338210D01*
X115803582Y-115380819D01*
X115811119Y-115424357D01*
X115814683Y-115474043D01*
X115815340Y-115517686D01*
X115814502Y-115559754D01*
X115812248Y-115601255D01*
X115808899Y-115639045D01*
X115804778Y-115669983D01*
X115800207Y-115690926D01*
X115796840Y-115698031D01*
X115787278Y-115702754D01*
X115766989Y-115710372D01*
X115740045Y-115719577D01*
X115710518Y-115729064D01*
X115682480Y-115737526D01*
X115660003Y-115743656D01*
X115647161Y-115746148D01*
X115646859Y-115746153D01*
X115634299Y-115740127D01*
X115615099Y-115723564D01*
X115591137Y-115698737D01*
X115564292Y-115667920D01*
X115536443Y-115633386D01*
X115509469Y-115597409D01*
X115485248Y-115562262D01*
X115465660Y-115530218D01*
X115460524Y-115520695D01*
X115451974Y-115500189D01*
X115441748Y-115469776D01*
X115431502Y-115434569D01*
X115426961Y-115417059D01*
X115415503Y-115375835D01*
X115404361Y-115347914D01*
X115392314Y-115331289D01*
X115378137Y-115323954D01*
X115369683Y-115323145D01*
X115357521Y-115324421D01*
X115333861Y-115327822D01*
X115302353Y-115332801D01*
X115273653Y-115337600D01*
X115228740Y-115346313D01*
X115198506Y-115354617D01*
X115182258Y-115362714D01*
X115180168Y-115364905D01*
X115175849Y-115376827D01*
X115173697Y-115398954D01*
X115173618Y-115433128D01*
X115174861Y-115467757D01*
X115175297Y-115530055D01*
X115169857Y-115587019D01*
X115157594Y-115643159D01*
X115137562Y-115702986D01*
X115113373Y-115760888D01*
X115097961Y-115794462D01*
X115086382Y-115816453D01*
X115076726Y-115829553D01*
X115067080Y-115836449D01*
X115057569Y-115839420D01*
X115034107Y-115842353D01*
X115001941Y-115843872D01*
X114967690Y-115843914D01*
X114937977Y-115842416D01*
X114924829Y-115840702D01*
X114910006Y-115830763D01*
X114892857Y-115806887D01*
X114874001Y-115770237D01*
X114854054Y-115721977D01*
X114838675Y-115678634D01*
X114820245Y-115617607D01*
X114809184Y-115564889D01*
X114804855Y-115515655D01*
X114806621Y-115465076D01*
X114808290Y-115448507D01*
X114811605Y-115413770D01*
X114811148Y-115388331D01*
X114804956Y-115370285D01*
X114791066Y-115357729D01*
X114767514Y-115348759D01*
X114732338Y-115341470D01*
X114691376Y-115335108D01*
X114652299Y-115329454D01*
X114625548Y-115326142D01*
X114608242Y-115325187D01*
X114597502Y-115326604D01*
X114590445Y-115330409D01*
X114585051Y-115335684D01*
X114577143Y-115349771D01*
X114568085Y-115374242D01*
X114559570Y-115404363D01*
X114557879Y-115411538D01*
X114549255Y-115445817D01*
X114539473Y-115478979D01*
X114530499Y-115504409D01*
X114529633Y-115506481D01*
X114511720Y-115541072D01*
X114485338Y-115582618D01*
X114453113Y-115627416D01*
X114417671Y-115671762D01*
X114390734Y-115702310D01*
X114342307Y-115754620D01*
X114266610Y-115728953D01*
X114226788Y-115714175D01*
X114198493Y-115700908D01*
X114183333Y-115689927D01*
X114182081Y-115688182D01*
X114178420Y-115673511D01*
X114175704Y-115643877D01*
X114173956Y-115599674D01*
X114173195Y-115541296D01*
X114173163Y-115526923D01*
X114173077Y-115380769D01*
X114201923Y-115311807D01*
X114218059Y-115271053D01*
X114227276Y-115241621D01*
X114229963Y-115221293D01*
X114226507Y-115207853D01*
X114221154Y-115201764D01*
X114207119Y-115192526D01*
X114183887Y-115179410D01*
X114154942Y-115164150D01*
X114123769Y-115148478D01*
X114093853Y-115134125D01*
X114068679Y-115122824D01*
X114051733Y-115116307D01*
X114047381Y-115115384D01*
X114031754Y-115120903D01*
X114013878Y-115138183D01*
X113992799Y-115168304D01*
X113977012Y-115195130D01*
X113957806Y-115224470D01*
X113932679Y-115256498D01*
X113909378Y-115281899D01*
X113875116Y-115312180D01*
X113831904Y-115345354D01*
X113784777Y-115377905D01*
X113738773Y-115406317D01*
X113706407Y-115423587D01*
X113670506Y-115440907D01*
X113607357Y-115395453D01*
X113580344Y-115375360D01*
X113558316Y-115357756D01*
X113544159Y-115345016D01*
X113540544Y-115340468D01*
X113540295Y-115327711D01*
X113543633Y-115303589D01*
X113549837Y-115271505D01*
X113558188Y-115234862D01*
X113567964Y-115197065D01*
X113578437Y-115161538D01*
X113606306Y-115088577D01*
X113641216Y-115025252D01*
X113684618Y-114967997D01*
X113706254Y-114941079D01*
X113722159Y-114917644D01*
X113730202Y-114900947D01*
X113730769Y-114897478D01*
X113725465Y-114886123D01*
X113711263Y-114867180D01*
X113690730Y-114843318D01*
X113666433Y-114817207D01*
X113640939Y-114791519D01*
X113616814Y-114768923D01*
X113596626Y-114752090D01*
X113582951Y-114743694D01*
X113568006Y-114746166D01*
X113544579Y-114760505D01*
X113530534Y-114771494D01*
X113474582Y-114815057D01*
X113422515Y-114849222D01*
X113370073Y-114876004D01*
X113312992Y-114897420D01*
X113247011Y-114915488D01*
X113207692Y-114924245D01*
X113134615Y-114939585D01*
X113114343Y-114915369D01*
X113098902Y-114895747D01*
X113079680Y-114869731D01*
X113064845Y-114848720D01*
X113051837Y-114829016D01*
X113043990Y-114812751D01*
X113041843Y-114797072D01*
X113045934Y-114779128D01*
X113056799Y-114756067D01*
X113074978Y-114725036D01*
X113093927Y-114694509D01*
X113145086Y-114621116D01*
X113198625Y-114561423D01*
X113256142Y-114513765D01*
X113285945Y-114494490D01*
X113316496Y-114474867D01*
X113339859Y-114456924D01*
X113353145Y-114442947D01*
X113354651Y-114440095D01*
X113356209Y-114429459D01*
X113353240Y-114414349D01*
X113344870Y-114392260D01*
X113330228Y-114360686D01*
X113319248Y-114338495D01*
X113301697Y-114305213D01*
X113285095Y-114276772D01*
X113271318Y-114256202D01*
X113262272Y-114246546D01*
X113252274Y-114244167D01*
X113236911Y-114246235D01*
X113213594Y-114253428D01*
X113179734Y-114266425D01*
X113167944Y-114271223D01*
X113088461Y-114303846D01*
X112957692Y-114303846D01*
X112912086Y-114303490D01*
X112869810Y-114302508D01*
X112834147Y-114301023D01*
X112808378Y-114299162D01*
X112798256Y-114297761D01*
X112785348Y-114294576D01*
X112776073Y-114289642D01*
X112768626Y-114280137D01*
X112761207Y-114263241D01*
X112752014Y-114236129D01*
X112745156Y-114214605D01*
X112720724Y-114137532D01*
X112758439Y-114099037D01*
X112799712Y-114060493D01*
X112846984Y-114022122D01*
X112895417Y-113987554D01*
X112940175Y-113960417D01*
X112950000Y-113955329D01*
X112981425Y-113942001D01*
X113019819Y-113928906D01*
X113056980Y-113918836D01*
X113057692Y-113918676D01*
X113092571Y-113910401D01*
X113117603Y-113901921D01*
X113133938Y-113890832D01*
X113142725Y-113874732D01*
X113145111Y-113851219D01*
X113142247Y-113817891D01*
X113135282Y-113772345D01*
X113133325Y-113760523D01*
X113125783Y-113719245D01*
X113117567Y-113691100D01*
X113106106Y-113673953D01*
X113088824Y-113665669D01*
X113063149Y-113664115D01*
X113026507Y-113667155D01*
X113021418Y-113667709D01*
X112957048Y-113670628D01*
X112892367Y-113664682D01*
X112824640Y-113649289D01*
X112751136Y-113623862D01*
X112687048Y-113596234D01*
X112630769Y-113570231D01*
X112630769Y-113480310D01*
X113316652Y-113480310D01*
X113317865Y-113542307D01*
X113319936Y-113601842D01*
X113322550Y-113650220D01*
X113326148Y-113691666D01*
X113331172Y-113730406D01*
X113338061Y-113770668D01*
X113345663Y-113809009D01*
X113385793Y-113966804D01*
X113439389Y-114117834D01*
X113505958Y-114261455D01*
X113585005Y-114397026D01*
X113676038Y-114523904D01*
X113778562Y-114641448D01*
X113892083Y-114749015D01*
X114016107Y-114845963D01*
X114150142Y-114931650D01*
X114249765Y-114984639D01*
X114374227Y-115040754D01*
X114494779Y-115084466D01*
X114615163Y-115116718D01*
X114739118Y-115138454D01*
X114870384Y-115150620D01*
X114915384Y-115152676D01*
X114967188Y-115154478D01*
X115007100Y-115155671D01*
X115038602Y-115156169D01*
X115065179Y-115155885D01*
X115090314Y-115154730D01*
X115117489Y-115152618D01*
X115150190Y-115149461D01*
X115184615Y-115145924D01*
X115327247Y-115123799D01*
X115470140Y-115087279D01*
X115611368Y-115037195D01*
X115749005Y-114974381D01*
X115881127Y-114899669D01*
X116005807Y-114813892D01*
X116069230Y-114763376D01*
X116185281Y-114656135D01*
X116290101Y-114538799D01*
X116383165Y-114412323D01*
X116463948Y-114277661D01*
X116531926Y-114135767D01*
X116586572Y-113987596D01*
X116627363Y-113834101D01*
X116649594Y-113708638D01*
X116655859Y-113649247D01*
X116659958Y-113579916D01*
X116661885Y-113505103D01*
X116661630Y-113429265D01*
X116659187Y-113356859D01*
X116654548Y-113292340D01*
X116650378Y-113256936D01*
X116620260Y-113098500D01*
X116576309Y-112945781D01*
X116519126Y-112799490D01*
X116449313Y-112660336D01*
X116367471Y-112529030D01*
X116274204Y-112406282D01*
X116170112Y-112292801D01*
X116055798Y-112189298D01*
X115931864Y-112096484D01*
X115798911Y-112015067D01*
X115657542Y-111945758D01*
X115508359Y-111889268D01*
X115484615Y-111881717D01*
X115369946Y-111850065D01*
X115258626Y-111827791D01*
X115146066Y-111814290D01*
X115027676Y-111808956D01*
X114938981Y-111809755D01*
X114791452Y-111819380D01*
X114652195Y-111840182D01*
X114518154Y-111872924D01*
X114386278Y-111918368D01*
X114253513Y-111977277D01*
X114238461Y-111984743D01*
X114113117Y-112054096D01*
X113996872Y-112132439D01*
X113886756Y-112221956D01*
X113787899Y-112316486D01*
X113681741Y-112436230D01*
X113588208Y-112564501D01*
X113507654Y-112700549D01*
X113440430Y-112843622D01*
X113386889Y-112992970D01*
X113347384Y-113147844D01*
X113322266Y-113307493D01*
X113322238Y-113307748D01*
X113318719Y-113354160D01*
X113316838Y-113412729D01*
X113316652Y-113480310D01*
X112630769Y-113480310D01*
X112630769Y-113398998D01*
X112687048Y-113372996D01*
X112765360Y-113339748D01*
X112835515Y-113316603D01*
X112900384Y-113302937D01*
X112962836Y-113298125D01*
X113018621Y-113300773D01*
X113057309Y-113304139D01*
X113084695Y-113303656D01*
X113103249Y-113297212D01*
X113115443Y-113282692D01*
X113123747Y-113257983D01*
X113130632Y-113220972D01*
X113133503Y-113202503D01*
X113138731Y-113166874D01*
X113142910Y-113135617D01*
X113145541Y-113112646D01*
X113146198Y-113103115D01*
X113141997Y-113086708D01*
X113128261Y-113073405D01*
X113103134Y-113062098D01*
X113064761Y-113051674D01*
X113057692Y-113050106D01*
X113006109Y-113036238D01*
X112957345Y-113016999D01*
X112908705Y-112990845D01*
X112857492Y-112956234D01*
X112801012Y-112911624D01*
X112771154Y-112886132D01*
X112748876Y-112865223D01*
X112732079Y-112846573D01*
X112723584Y-112833416D01*
X112723077Y-112831058D01*
X112725359Y-112818967D01*
X112731340Y-112796980D01*
X112739725Y-112769138D01*
X112749217Y-112739478D01*
X112758519Y-112712039D01*
X112766336Y-112690860D01*
X112771369Y-112679979D01*
X112771705Y-112679576D01*
X112783640Y-112674962D01*
X112807939Y-112670765D01*
X112841580Y-112667214D01*
X112881545Y-112664538D01*
X112924812Y-112662966D01*
X112968361Y-112662727D01*
X112988461Y-112663153D01*
X113030881Y-112664738D01*
X113062405Y-112666971D01*
X113087524Y-112670684D01*
X113110723Y-112676706D01*
X113136494Y-112685871D01*
X113158646Y-112694673D01*
X113198029Y-112709933D01*
X113226215Y-112718964D01*
X113245819Y-112722316D01*
X113259456Y-112720538D01*
X113265930Y-112717189D01*
X113274065Y-112707080D01*
X113286594Y-112686454D01*
X113301716Y-112658879D01*
X113317634Y-112627921D01*
X113332548Y-112597148D01*
X113344659Y-112570126D01*
X113352168Y-112550423D01*
X113353728Y-112543124D01*
X113352434Y-112530055D01*
X113347132Y-112519054D01*
X113335367Y-112507639D01*
X113314683Y-112493328D01*
X113288461Y-112477156D01*
X113228710Y-112435747D01*
X113176359Y-112387184D01*
X113135158Y-112338461D01*
X113114398Y-112309806D01*
X113092846Y-112277166D01*
X113072394Y-112243767D01*
X113054935Y-112212836D01*
X113042359Y-112187601D01*
X113036561Y-112171289D01*
X113036408Y-112170055D01*
X113040266Y-112158136D01*
X113051506Y-112137344D01*
X113068191Y-112111043D01*
X113080751Y-112092988D01*
X113126149Y-112029936D01*
X113157305Y-112034868D01*
X113200599Y-112043330D01*
X113251524Y-112055731D01*
X113303430Y-112070294D01*
X113349666Y-112085242D01*
X113360422Y-112089153D01*
X113403063Y-112107131D01*
X113440095Y-112127853D01*
X113476764Y-112154634D01*
X113511765Y-112184820D01*
X113536245Y-112205841D01*
X113556148Y-112218440D01*
X113574177Y-112222088D01*
X113593035Y-112216257D01*
X113615424Y-112200421D01*
X113644047Y-112174052D01*
X113662993Y-112155301D01*
X113695000Y-112121884D01*
X113717329Y-112095467D01*
X113729106Y-112077137D01*
X113730769Y-112071053D01*
X113725745Y-112057843D01*
X113712184Y-112037005D01*
X113692347Y-112011868D01*
X113684001Y-112002290D01*
X113647849Y-111957423D01*
X113617851Y-111909581D01*
X113592697Y-111855854D01*
X113571078Y-111793332D01*
X113551685Y-111719105D01*
X113546828Y-111697452D01*
X113539974Y-111665019D01*
X113536525Y-111644093D01*
X113536424Y-111631189D01*
X113539608Y-111622827D01*
X113545421Y-111616116D01*
X113560889Y-111602608D01*
X113583056Y-111585580D01*
X113608364Y-111567477D01*
X113633256Y-111550745D01*
X113654175Y-111537830D01*
X113667562Y-111531178D01*
X113669568Y-111530769D01*
X113683722Y-111534951D01*
X113707369Y-111546326D01*
X113737489Y-111563133D01*
X113771065Y-111583614D01*
X113805075Y-111606008D01*
X113833520Y-111626314D01*
X113885223Y-111668022D01*
X113926219Y-111708685D01*
X113960291Y-111752421D01*
X113983457Y-111789507D01*
X114004852Y-111823177D01*
X114022407Y-111842906D01*
X114033367Y-111848999D01*
X114048649Y-111847420D01*
X114073308Y-111839135D01*
X114103894Y-111825928D01*
X114136956Y-111809584D01*
X114169042Y-111791888D01*
X114196702Y-111774624D01*
X114216485Y-111759579D01*
X114224384Y-111750202D01*
X114227151Y-111738695D01*
X114225162Y-111723340D01*
X114217600Y-111700800D01*
X114204869Y-111670508D01*
X114184561Y-111618270D01*
X114171235Y-111567850D01*
X114164167Y-111514653D01*
X114162633Y-111454088D01*
X114164096Y-111411747D01*
X114166583Y-111361412D01*
X114169004Y-111324039D01*
X114172642Y-111297264D01*
X114178781Y-111278724D01*
X114188703Y-111266056D01*
X114203694Y-111256895D01*
X114225034Y-111248879D01*
X114254009Y-111239644D01*
X114258296Y-111238266D01*
X114338064Y-111212485D01*
X114381060Y-111258165D01*
X114413472Y-111294961D01*
X114446919Y-111336956D01*
X114478185Y-111379802D01*
X114504054Y-111419151D01*
X114517241Y-111442307D01*
X114526144Y-111463301D01*
X114536895Y-111494187D01*
X114547790Y-111529887D01*
X114553102Y-111549257D01*
X114564235Y-111587450D01*
X114574786Y-111615628D01*
X114583877Y-111631557D01*
X114586212Y-111633627D01*
X114599957Y-111636250D01*
X114624834Y-111635887D01*
X114657004Y-111633103D01*
X114692628Y-111628458D01*
X114727869Y-111622514D01*
X114758886Y-111615835D01*
X114781843Y-111608983D01*
X114792121Y-111603471D01*
X114796894Y-111595761D01*
X114800255Y-111582199D01*
X114802426Y-111560453D01*
X114803633Y-111528192D01*
X114804098Y-111483084D01*
X114804110Y-111478559D01*
X114804969Y-111425337D01*
X114807918Y-111381387D01*
X114813935Y-111342512D01*
X114823994Y-111304511D01*
X114839073Y-111263189D01*
X114860148Y-111214345D01*
X114871111Y-111190384D01*
X114902231Y-111123076D01*
X115069037Y-111123076D01*
X115095129Y-111175000D01*
G37*
D14*
%TO.C,D2*%
X213710000Y-45764000D02*
X213710000Y-45920000D01*
X213710000Y-48080000D02*
X213710000Y-48236000D01*
X213710000Y-45764484D02*
G75*
G02*
X216941437Y-45920000I1560000J-1235516D01*
G01*
X214229039Y-45920000D02*
G75*
G02*
X216310961Y-45920000I1040961J-1080000D01*
G01*
X216310961Y-48080000D02*
G75*
G02*
X214229039Y-48080000I-1040961J1080000D01*
G01*
X216941437Y-48080000D02*
G75*
G02*
X213710000Y-48235516I-1671437J1080000D01*
G01*
%TO.C,U2*%
X139355000Y-92670000D02*
X139355000Y-97870000D01*
X139355000Y-97870000D02*
X144655000Y-97870000D01*
X141005000Y-92670000D02*
X139355000Y-92670000D01*
X144655000Y-92670000D02*
X143005000Y-92670000D01*
X144655000Y-97870000D02*
X144655000Y-92670000D01*
X143005000Y-92670000D02*
G75*
G02*
X141005000Y-92670000I-1000000J0D01*
G01*
%TO.C,J2*%
X126460000Y-43190000D02*
X126460000Y-50810000D01*
X126460000Y-50810000D02*
X136620000Y-50810000D01*
X136620000Y-43190000D02*
X126460000Y-43190000D01*
X136620000Y-49540000D02*
X126460000Y-49540000D01*
X136620000Y-50810000D02*
X136620000Y-43190000D01*
%TO.C,J4*%
X179380000Y-43190000D02*
X179380000Y-50810000D01*
X179380000Y-50810000D02*
X189540000Y-50810000D01*
X189540000Y-43190000D02*
X179380000Y-43190000D01*
X189540000Y-49540000D02*
X179380000Y-49540000D01*
X189540000Y-50810000D02*
X189540000Y-43190000D01*
%TO.C,J9*%
X152150000Y-92525000D02*
X152150000Y-93775000D01*
X152440000Y-92815000D02*
X152440000Y-98785000D01*
X152440000Y-98785000D02*
X160060000Y-98785000D01*
X152450000Y-92825000D02*
X152450000Y-93575000D01*
X152450000Y-93575000D02*
X154250000Y-93575000D01*
X152450000Y-95075000D02*
X153200000Y-95075000D01*
X153200000Y-95075000D02*
X153200000Y-98025000D01*
X153200000Y-98025000D02*
X156250000Y-98025000D01*
X153400000Y-92525000D02*
X152150000Y-92525000D01*
X154250000Y-92825000D02*
X152450000Y-92825000D01*
X154250000Y-93575000D02*
X154250000Y-92825000D01*
X155750000Y-92825000D02*
X155750000Y-93575000D01*
X155750000Y-93575000D02*
X156750000Y-93575000D01*
X156750000Y-92825000D02*
X155750000Y-92825000D01*
X156750000Y-93575000D02*
X156750000Y-92825000D01*
X158250000Y-92825000D02*
X158250000Y-93575000D01*
X158250000Y-93575000D02*
X160050000Y-93575000D01*
X159300000Y-95075000D02*
X159300000Y-98025000D01*
X159300000Y-98025000D02*
X156250000Y-98025000D01*
X160050000Y-92825000D02*
X158250000Y-92825000D01*
X160050000Y-93575000D02*
X160050000Y-92825000D01*
X160050000Y-95075000D02*
X159300000Y-95075000D01*
X160060000Y-92815000D02*
X152440000Y-92815000D01*
X160060000Y-98785000D02*
X160060000Y-92815000D01*
%TO.C,J14*%
X138940000Y-43490000D02*
X138940000Y-49460000D01*
X138940000Y-49460000D02*
X146560000Y-49460000D01*
X138950000Y-47200000D02*
X139700000Y-47200000D01*
X138950000Y-48700000D02*
X138950000Y-49450000D01*
X138950000Y-49450000D02*
X140750000Y-49450000D01*
X139700000Y-44250000D02*
X142750000Y-44250000D01*
X139700000Y-47200000D02*
X139700000Y-44250000D01*
X140750000Y-48700000D02*
X138950000Y-48700000D01*
X140750000Y-49450000D02*
X140750000Y-48700000D01*
X142250000Y-48700000D02*
X142250000Y-49450000D01*
X142250000Y-49450000D02*
X143250000Y-49450000D01*
X143250000Y-48700000D02*
X142250000Y-48700000D01*
X143250000Y-49450000D02*
X143250000Y-48700000D01*
X144750000Y-48700000D02*
X144750000Y-49450000D01*
X144750000Y-49450000D02*
X146550000Y-49450000D01*
X145600000Y-49750000D02*
X146850000Y-49750000D01*
X145800000Y-44250000D02*
X142750000Y-44250000D01*
X145800000Y-47200000D02*
X145800000Y-44250000D01*
X146550000Y-47200000D02*
X145800000Y-47200000D01*
X146550000Y-48700000D02*
X144750000Y-48700000D01*
X146550000Y-49450000D02*
X146550000Y-48700000D01*
X146560000Y-43490000D02*
X138940000Y-43490000D01*
X146560000Y-49460000D02*
X146560000Y-43490000D01*
X146850000Y-49750000D02*
X146850000Y-48500000D01*
%TO.C,R2*%
X189090000Y-122727064D02*
X189090000Y-121272936D01*
X190910000Y-122727064D02*
X190910000Y-121272936D01*
%TO.C,J6*%
X170440000Y-43490000D02*
X170440000Y-49460000D01*
X170440000Y-49460000D02*
X178060000Y-49460000D01*
X170450000Y-47200000D02*
X171200000Y-47200000D01*
X170450000Y-48700000D02*
X170450000Y-49450000D01*
X170450000Y-49450000D02*
X172250000Y-49450000D01*
X171200000Y-44250000D02*
X174250000Y-44250000D01*
X171200000Y-47200000D02*
X171200000Y-44250000D01*
X172250000Y-48700000D02*
X170450000Y-48700000D01*
X172250000Y-49450000D02*
X172250000Y-48700000D01*
X173750000Y-48700000D02*
X173750000Y-49450000D01*
X173750000Y-49450000D02*
X174750000Y-49450000D01*
X174750000Y-48700000D02*
X173750000Y-48700000D01*
X174750000Y-49450000D02*
X174750000Y-48700000D01*
X176250000Y-48700000D02*
X176250000Y-49450000D01*
X176250000Y-49450000D02*
X178050000Y-49450000D01*
X177100000Y-49750000D02*
X178350000Y-49750000D01*
X177300000Y-44250000D02*
X174250000Y-44250000D01*
X177300000Y-47200000D02*
X177300000Y-44250000D01*
X178050000Y-47200000D02*
X177300000Y-47200000D01*
X178050000Y-48700000D02*
X176250000Y-48700000D01*
X178050000Y-49450000D02*
X178050000Y-48700000D01*
X178060000Y-43490000D02*
X170440000Y-43490000D01*
X178060000Y-49460000D02*
X178060000Y-43490000D01*
X178350000Y-49750000D02*
X178350000Y-48500000D01*
%TO.C,R10*%
X179090000Y-97735436D02*
X179090000Y-99189564D01*
X180910000Y-97735436D02*
X180910000Y-99189564D01*
%TO.C,Q1*%
X112780000Y-69750000D02*
X112780000Y-70950000D01*
X112780000Y-72149000D02*
X112780000Y-73350000D01*
X112780000Y-74550000D02*
X112780000Y-75750000D01*
X112780000Y-76950000D02*
X112780000Y-78150000D01*
X112780000Y-79350000D02*
X112780000Y-80250000D01*
X114420000Y-69750000D02*
X113220000Y-69750000D01*
X114420000Y-80250000D02*
X113220000Y-80250000D01*
X116820000Y-69750000D02*
X115620000Y-69750000D01*
X116820000Y-80250000D02*
X115620000Y-80250000D01*
X119220000Y-69750000D02*
X118020000Y-69750000D01*
X119220000Y-80250000D02*
X118020000Y-80250000D01*
X119460000Y-69750000D02*
X119460000Y-80250000D01*
X128890000Y-69750000D02*
X119460000Y-69750000D01*
X128890000Y-69750000D02*
X128890000Y-80250000D01*
X128890000Y-80250000D02*
X119460000Y-80250000D01*
X130850000Y-72460000D02*
X128890000Y-72460000D01*
X130850000Y-75000000D02*
X128890000Y-75000000D01*
X130850000Y-77540000D02*
X128890000Y-77540000D01*
D11*
X130850000Y-60000000D02*
X100850000Y-60000000D01*
X100850000Y-90000000D01*
X130850000Y-90000000D01*
X130850000Y-60000000D01*
D14*
%TO.C,J10*%
X182150000Y-92525000D02*
X182150000Y-93775000D01*
X182440000Y-92815000D02*
X182440000Y-98785000D01*
X182440000Y-98785000D02*
X190060000Y-98785000D01*
X182450000Y-92825000D02*
X182450000Y-93575000D01*
X182450000Y-93575000D02*
X184250000Y-93575000D01*
X182450000Y-95075000D02*
X183200000Y-95075000D01*
X183200000Y-95075000D02*
X183200000Y-98025000D01*
X183200000Y-98025000D02*
X186250000Y-98025000D01*
X183400000Y-92525000D02*
X182150000Y-92525000D01*
X184250000Y-92825000D02*
X182450000Y-92825000D01*
X184250000Y-93575000D02*
X184250000Y-92825000D01*
X185750000Y-92825000D02*
X185750000Y-93575000D01*
X185750000Y-93575000D02*
X186750000Y-93575000D01*
X186750000Y-92825000D02*
X185750000Y-92825000D01*
X186750000Y-93575000D02*
X186750000Y-92825000D01*
X188250000Y-92825000D02*
X188250000Y-93575000D01*
X188250000Y-93575000D02*
X190050000Y-93575000D01*
X189300000Y-95075000D02*
X189300000Y-98025000D01*
X189300000Y-98025000D02*
X186250000Y-98025000D01*
X190050000Y-92825000D02*
X188250000Y-92825000D01*
X190050000Y-93575000D02*
X190050000Y-92825000D01*
X190050000Y-95075000D02*
X189300000Y-95075000D01*
X190060000Y-92815000D02*
X182440000Y-92815000D01*
X190060000Y-98785000D02*
X190060000Y-92815000D01*
%TO.C,R8*%
X192090000Y-95010436D02*
X192090000Y-96464564D01*
X193910000Y-95010436D02*
X193910000Y-96464564D01*
%TD*%
M02*
