%TF.GenerationSoftware,KiCad,Pcbnew,9.0.3*%
%TF.CreationDate,2025-08-15T05:26:35+02:00*%
%TF.ProjectId,banc_rodage_pcb,62616e63-5f72-46f6-9461-67655f706362,rev?*%
%TF.SameCoordinates,Original*%
%TF.FileFunction,Copper,L1,Top*%
%TF.FilePolarity,Positive*%
%FSLAX46Y46*%
G04 Gerber Fmt 4.6, Leading zero omitted, Abs format (unit mm)*
G04 Created by KiCad (PCBNEW 9.0.3) date 2025-08-15 05:26:35*
%MOMM*%
%LPD*%
G01*
G04 APERTURE LIST*
G04 Aperture macros list*
%AMRoundRect*
0 Rectangle with rounded corners*
0 $1 Rounding radius*
0 $2 $3 $4 $5 $6 $7 $8 $9 X,Y pos of 4 corners*
0 Add a 4 corners polygon primitive as box body*
4,1,4,$2,$3,$4,$5,$6,$7,$8,$9,$2,$3,0*
0 Add four circle primitives for the rounded corners*
1,1,$1+$1,$2,$3*
1,1,$1+$1,$4,$5*
1,1,$1+$1,$6,$7*
1,1,$1+$1,$8,$9*
0 Add four rect primitives between the rounded corners*
20,1,$1+$1,$2,$3,$4,$5,0*
20,1,$1+$1,$4,$5,$6,$7,0*
20,1,$1+$1,$6,$7,$8,$9,0*
20,1,$1+$1,$8,$9,$2,$3,0*%
G04 Aperture macros list end*
%TA.AperFunction,SMDPad,CuDef*%
%ADD10RoundRect,0.250000X-0.312500X-0.625000X0.312500X-0.625000X0.312500X0.625000X-0.312500X0.625000X0*%
%TD*%
%TA.AperFunction,ComponentPad*%
%ADD11C,1.727200*%
%TD*%
%TA.AperFunction,ComponentPad*%
%ADD12R,1.727200X1.727200*%
%TD*%
%TA.AperFunction,ComponentPad*%
%ADD13R,3.000000X3.000000*%
%TD*%
%TA.AperFunction,ComponentPad*%
%ADD14C,3.000000*%
%TD*%
%TA.AperFunction,SMDPad,CuDef*%
%ADD15RoundRect,0.250000X-0.625000X0.312500X-0.625000X-0.312500X0.625000X-0.312500X0.625000X0.312500X0*%
%TD*%
%TA.AperFunction,ComponentPad*%
%ADD16R,2.000000X1.905000*%
%TD*%
%TA.AperFunction,ComponentPad*%
%ADD17O,2.000000X1.905000*%
%TD*%
%TA.AperFunction,ComponentPad*%
%ADD18RoundRect,0.250000X-0.550000X-0.550000X0.550000X-0.550000X0.550000X0.550000X-0.550000X0.550000X0*%
%TD*%
%TA.AperFunction,ComponentPad*%
%ADD19C,1.600000*%
%TD*%
%TA.AperFunction,ComponentPad*%
%ADD20RoundRect,0.250000X0.600000X0.725000X-0.600000X0.725000X-0.600000X-0.725000X0.600000X-0.725000X0*%
%TD*%
%TA.AperFunction,ComponentPad*%
%ADD21O,1.700000X1.950000*%
%TD*%
%TA.AperFunction,ComponentPad*%
%ADD22RoundRect,0.250000X-0.600000X-0.750000X0.600000X-0.750000X0.600000X0.750000X-0.600000X0.750000X0*%
%TD*%
%TA.AperFunction,ComponentPad*%
%ADD23O,1.700000X2.000000*%
%TD*%
%TA.AperFunction,SMDPad,CuDef*%
%ADD24RoundRect,0.250000X0.625000X-0.312500X0.625000X0.312500X-0.625000X0.312500X-0.625000X-0.312500X0*%
%TD*%
%TA.AperFunction,ComponentPad*%
%ADD25RoundRect,0.250000X0.600000X0.750000X-0.600000X0.750000X-0.600000X-0.750000X0.600000X-0.750000X0*%
%TD*%
%TA.AperFunction,ComponentPad*%
%ADD26RoundRect,0.249999X-0.850001X0.850001X-0.850001X-0.850001X0.850001X-0.850001X0.850001X0.850001X0*%
%TD*%
%TA.AperFunction,ComponentPad*%
%ADD27C,2.200000*%
%TD*%
%TA.AperFunction,ComponentPad*%
%ADD28RoundRect,0.250000X-0.600000X-0.725000X0.600000X-0.725000X0.600000X0.725000X-0.600000X0.725000X0*%
%TD*%
%TA.AperFunction,ComponentPad*%
%ADD29R,2.000000X2.000000*%
%TD*%
%TA.AperFunction,ComponentPad*%
%ADD30C,2.000000*%
%TD*%
%TA.AperFunction,ComponentPad*%
%ADD31R,1.800000X1.800000*%
%TD*%
%TA.AperFunction,ComponentPad*%
%ADD32C,1.800000*%
%TD*%
%TA.AperFunction,ViaPad*%
%ADD33C,0.600000*%
%TD*%
%TA.AperFunction,Conductor*%
%ADD34C,0.200000*%
%TD*%
%TA.AperFunction,Conductor*%
%ADD35C,0.800000*%
%TD*%
%TA.AperFunction,Conductor*%
%ADD36C,5.600000*%
%TD*%
%TA.AperFunction,Conductor*%
%ADD37C,2.500000*%
%TD*%
G04 APERTURE END LIST*
D10*
%TO.P,R3,1*%
%TO.N,+5V*%
X213537500Y-40000000D03*
%TO.P,R3,2*%
%TO.N,Net-(D2-A)*%
X216462500Y-40000000D03*
%TD*%
D11*
%TO.P,A1,3V3,3.3V*%
%TO.N,unconnected-(A1-3.3V-Pad3V3)*%
X190480000Y-113380000D03*
%TO.P,A1,5V,5V*%
%TO.N,+5V*%
X165080000Y-113380000D03*
%TO.P,A1,A0,A0_DAC*%
%TO.N,/PIN_NTC_MOSFET_1*%
X185400000Y-113380000D03*
%TO.P,A1,A1,A1*%
%TO.N,/PIN_NTC_MOSFET_2*%
X182860000Y-113380000D03*
%TO.P,A1,A2,A2*%
%TO.N,/PIN_NTC_MOSFET_3*%
X180320000Y-113380000D03*
%TO.P,A1,A3,A3*%
%TO.N,/PIN_NTC_MOSFET_4*%
X177780000Y-113380000D03*
%TO.P,A1,A4,A4/SDA*%
%TO.N,Net-(A1-A4{slash}SDA)*%
X175240000Y-113380000D03*
%TO.P,A1,A5,A5/SCL*%
%TO.N,Net-(A1-A5{slash}SCL)*%
X172700000Y-113380000D03*
%TO.P,A1,A6,A6*%
%TO.N,/PIN_NTC_OIL*%
X170160000Y-113380000D03*
%TO.P,A1,A7,A7*%
%TO.N,/PIN_NTC_MOTOR*%
X167620000Y-113380000D03*
%TO.P,A1,AREF,AREF*%
%TO.N,unconnected-(A1-PadAREF)*%
X187940000Y-113380000D03*
%TO.P,A1,BOOT,BOOT*%
%TO.N,unconnected-(A1-PadBOOT)*%
X162540000Y-113380000D03*
%TO.P,A1,D0,D0/RX*%
%TO.N,/NEXTION_TX*%
X160000000Y-128620000D03*
%TO.P,A1,D1,D1/TX*%
%TO.N,/NEXTION_RX*%
X157460000Y-128620000D03*
%TO.P,A1,D2,D2_INT0*%
%TO.N,unconnected-(A1-D2_INT0-PadD2)*%
X167620000Y-128620000D03*
%TO.P,A1,D3,D3_INT1*%
%TO.N,/SIGN_HALL*%
X170160000Y-128620000D03*
%TO.P,A1,D4,D4_CAN0_TX*%
%TO.N,/BUZZER+*%
X172700000Y-128620000D03*
%TO.P,A1,D5,D5_CAN0_RX*%
%TO.N,unconnected-(A1-D5_CAN0_RX-PadD5)*%
X175240000Y-128620000D03*
%TO.P,A1,D6,D6*%
%TO.N,unconnected-(A1-PadD6)*%
X177780000Y-128620000D03*
%TO.P,A1,D7,D7*%
%TO.N,unconnected-(A1-PadD7)*%
X180320000Y-128620000D03*
%TO.P,A1,D8,D8*%
%TO.N,unconnected-(A1-PadD8)*%
X182860000Y-128620000D03*
%TO.P,A1,D9,D9*%
%TO.N,unconnected-(A1-PadD9)*%
X185400000Y-128620000D03*
%TO.P,A1,D10,D10_SS*%
%TO.N,/PIN_MOTOR*%
X187940000Y-128620000D03*
%TO.P,A1,D11,D11_MOSI*%
%TO.N,/PIN_HEATER*%
X190480000Y-128620000D03*
%TO.P,A1,D12,D12_MISO*%
%TO.N,unconnected-(A1-D12_MISO-PadD12)*%
X193020000Y-128620000D03*
%TO.P,A1,D13,D13_SCK*%
%TO.N,unconnected-(A1-D13_SCK-PadD13)*%
X193020000Y-113380000D03*
D12*
%TO.P,A1,GND1,GND*%
%TO.N,GND*%
X165080000Y-128620000D03*
%TO.P,A1,GND2,GND*%
X160000000Y-113380000D03*
D11*
%TO.P,A1,RST,RESET*%
%TO.N,unconnected-(A1-RESET-PadRST)*%
X162540000Y-128620000D03*
%TO.P,A1,SCL,I2C0_SCL*%
%TO.N,unconnected-(A1-I2C0_SCL-PadSCL)*%
X154920000Y-126080000D03*
%TO.P,A1,SDA,I2C0_SDA*%
%TO.N,unconnected-(A1-I2C0_SDA-PadSDA)*%
X154920000Y-115920000D03*
%TO.P,A1,VBATT,VBATT*%
%TO.N,unconnected-(A1-PadVBATT)*%
X160000000Y-115920000D03*
%TO.P,A1,VIN,VIN*%
%TO.N,unconnected-(A1-PadVIN)*%
X157460000Y-113380000D03*
%TD*%
D13*
%TO.P,J7,1,Pin_1*%
%TO.N,+24V*%
X161000000Y-47000000D03*
D14*
%TO.P,J7,2,Pin_2*%
%TO.N,/HEATER_1*%
X166080000Y-47000000D03*
%TD*%
D15*
%TO.P,R5,1*%
%TO.N,/PIN_NTC_OIL*%
X208000000Y-95000000D03*
%TO.P,R5,2*%
%TO.N,GND*%
X208000000Y-97925000D03*
%TD*%
D16*
%TO.P,Q2,1,G*%
%TO.N,/SIGN_MOTOR*%
X162000000Y-72460000D03*
D17*
%TO.P,Q2,2,D*%
%TO.N,/MOTOR*%
X162000000Y-75000000D03*
%TO.P,Q2,3,S*%
%TO.N,GND*%
X162000000Y-77540000D03*
%TD*%
D18*
%TO.P,U4,1*%
%TO.N,Net-(R2-Pad2)*%
X168195000Y-94000000D03*
D19*
%TO.P,U4,2*%
%TO.N,GND*%
X168195000Y-96540000D03*
%TO.P,U4,3*%
%TO.N,/SIGN_HEATER*%
X175815000Y-96540000D03*
%TO.P,U4,4*%
%TO.N,+5V*%
X175815000Y-94000000D03*
%TD*%
D16*
%TO.P,Q3,1,G*%
%TO.N,/SIGN_HEATER*%
X192000000Y-72460000D03*
D17*
%TO.P,Q3,2,D*%
%TO.N,/HEATER_1*%
X192000000Y-75000000D03*
%TO.P,Q3,3,S*%
%TO.N,GND*%
X192000000Y-77540000D03*
%TD*%
D15*
%TO.P,R4,1*%
%TO.N,/SIGN_MOTOR*%
X150000000Y-97000000D03*
%TO.P,R4,2*%
%TO.N,GND*%
X150000000Y-99925000D03*
%TD*%
D16*
%TO.P,Q4,1,G*%
%TO.N,/SIGN_HEATER*%
X222000000Y-72460000D03*
D17*
%TO.P,Q4,2,D*%
%TO.N,/HEATER_2*%
X222000000Y-75000000D03*
%TO.P,Q4,3,S*%
%TO.N,GND*%
X222000000Y-77540000D03*
%TD*%
D15*
%TO.P,R11,1*%
%TO.N,/PIN_NTC_MOTOR*%
X198000000Y-94537500D03*
%TO.P,R11,2*%
%TO.N,GND*%
X198000000Y-97462500D03*
%TD*%
D20*
%TO.P,J1,1,Pin_1*%
%TO.N,+5V*%
X122000000Y-47000000D03*
D21*
%TO.P,J1,2,Pin_2*%
%TO.N,GND*%
X119500000Y-47000000D03*
%TO.P,J1,3,Pin_3*%
%TO.N,/SIGN_HALL*%
X117000000Y-47000000D03*
%TD*%
D13*
%TO.P,J15,1,Pin_1*%
%TO.N,+5V*%
X203920000Y-47000000D03*
D14*
%TO.P,J15,2,Pin_2*%
%TO.N,GND*%
X209000000Y-47000000D03*
%TD*%
D22*
%TO.P,J11,1,Pin_1*%
%TO.N,+5V*%
X215000000Y-95275000D03*
D23*
%TO.P,J11,2,Pin_2*%
%TO.N,/PIN_NTC_MOSFET_4*%
X217500000Y-95275000D03*
%TD*%
D15*
%TO.P,R9,1*%
%TO.N,/PIN_NTC_MOSFET_4*%
X223000000Y-94275000D03*
%TO.P,R9,2*%
%TO.N,GND*%
X223000000Y-97200000D03*
%TD*%
%TO.P,R6,1*%
%TO.N,/PIN_NTC_MOSFET_1*%
X133000000Y-95350000D03*
%TO.P,R6,2*%
%TO.N,GND*%
X133000000Y-98275000D03*
%TD*%
%TO.P,R7,1*%
%TO.N,/PIN_NTC_MOSFET_2*%
X163000000Y-94275000D03*
%TO.P,R7,2*%
%TO.N,GND*%
X163000000Y-97200000D03*
%TD*%
D24*
%TO.P,R1,1*%
%TO.N,/PIN_MOTOR*%
X186000000Y-123462500D03*
%TO.P,R1,2*%
%TO.N,Net-(R1-Pad2)*%
X186000000Y-120537500D03*
%TD*%
D18*
%TO.P,U1,1,A0*%
%TO.N,GND*%
X127190000Y-117190000D03*
D19*
%TO.P,U1,2,A1*%
X127190000Y-119730000D03*
%TO.P,U1,3,A2*%
X127190000Y-122270000D03*
%TO.P,U1,4,GND*%
X127190000Y-124810000D03*
%TO.P,U1,5,SDA*%
%TO.N,Net-(A1-A4{slash}SDA)*%
X134810000Y-124810000D03*
%TO.P,U1,6,SCL*%
%TO.N,Net-(A1-A5{slash}SCL)*%
X134810000Y-122270000D03*
%TO.P,U1,7,WP*%
%TO.N,GND*%
X134810000Y-119730000D03*
%TO.P,U1,8,VCC*%
%TO.N,+5V*%
X134810000Y-117190000D03*
%TD*%
D13*
%TO.P,J3,1,Pin_1*%
%TO.N,+24V*%
X192920000Y-47000000D03*
D14*
%TO.P,J3,2,Pin_2*%
%TO.N,GND*%
X198000000Y-47000000D03*
%TD*%
D25*
%TO.P,J5,1,Pin_1*%
%TO.N,+24V*%
X153500000Y-47000000D03*
D23*
%TO.P,J5,2,Pin_2*%
%TO.N,GND*%
X151000000Y-47000000D03*
%TD*%
D22*
%TO.P,J8,1,Pin_1*%
%TO.N,+5V*%
X125000000Y-95275000D03*
D23*
%TO.P,J8,2,Pin_2*%
%TO.N,/PIN_NTC_MOSFET_1*%
X127500000Y-95275000D03*
%TD*%
D26*
%TO.P,D1,1,K*%
%TO.N,+24V*%
X106000000Y-69920000D03*
D27*
%TO.P,D1,2,A*%
%TO.N,/MOTOR*%
X106000000Y-80080000D03*
%TD*%
D28*
%TO.P,J12,1,Pin_1*%
%TO.N,+5V*%
X112500000Y-121200000D03*
D21*
%TO.P,J12,2,Pin_2*%
%TO.N,/NEXTION_TX*%
X115000000Y-121200000D03*
%TO.P,J12,3,Pin_3*%
%TO.N,/NEXTION_RX*%
X117500000Y-121200000D03*
%TO.P,J12,4,Pin_4*%
%TO.N,GND*%
X120000000Y-121200000D03*
%TD*%
D29*
%TO.P,BZ1,1,+*%
%TO.N,/BUZZER+*%
X145000000Y-124600000D03*
D30*
%TO.P,BZ1,2,-*%
%TO.N,GND*%
X145000000Y-117000000D03*
%TD*%
D31*
%TO.P,D2,1,K*%
%TO.N,GND*%
X214000000Y-47000000D03*
D32*
%TO.P,D2,2,A*%
%TO.N,Net-(D2-A)*%
X216540000Y-47000000D03*
%TD*%
D18*
%TO.P,U2,1*%
%TO.N,Net-(R1-Pad2)*%
X138195000Y-94000000D03*
D19*
%TO.P,U2,2*%
%TO.N,GND*%
X138195000Y-96540000D03*
%TO.P,U2,3*%
%TO.N,/SIGN_MOTOR*%
X145815000Y-96540000D03*
%TO.P,U2,4*%
%TO.N,+5V*%
X145815000Y-94000000D03*
%TD*%
D13*
%TO.P,J2,1,Pin_1*%
%TO.N,+24V*%
X129000000Y-47000000D03*
D14*
%TO.P,J2,2,Pin_2*%
%TO.N,/MOTOR*%
X134080000Y-47000000D03*
%TD*%
D13*
%TO.P,J4,1,Pin_1*%
%TO.N,+24V*%
X181920000Y-47000000D03*
D14*
%TO.P,J4,2,Pin_2*%
%TO.N,/HEATER_2*%
X187000000Y-47000000D03*
%TD*%
D22*
%TO.P,J9,1,Pin_1*%
%TO.N,+5V*%
X155000000Y-95275000D03*
D23*
%TO.P,J9,2,Pin_2*%
%TO.N,/PIN_NTC_MOSFET_2*%
X157500000Y-95275000D03*
%TD*%
D25*
%TO.P,J14,1,Pin_1*%
%TO.N,+5V*%
X144000000Y-47000000D03*
D23*
%TO.P,J14,2,Pin_2*%
%TO.N,/PIN_NTC_MOTOR*%
X141500000Y-47000000D03*
%TD*%
D24*
%TO.P,R2,1*%
%TO.N,/PIN_HEATER*%
X190000000Y-123462500D03*
%TO.P,R2,2*%
%TO.N,Net-(R2-Pad2)*%
X190000000Y-120537500D03*
%TD*%
D25*
%TO.P,J6,1,Pin_1*%
%TO.N,+5V*%
X175500000Y-47000000D03*
D23*
%TO.P,J6,2,Pin_2*%
%TO.N,/PIN_NTC_OIL*%
X173000000Y-47000000D03*
%TD*%
D15*
%TO.P,R10,1*%
%TO.N,/SIGN_HEATER*%
X180000000Y-97000000D03*
%TO.P,R10,2*%
%TO.N,GND*%
X180000000Y-99925000D03*
%TD*%
D16*
%TO.P,Q1,1,G*%
%TO.N,/SIGN_MOTOR*%
X132000000Y-72460000D03*
D17*
%TO.P,Q1,2,D*%
%TO.N,/MOTOR*%
X132000000Y-75000000D03*
%TO.P,Q1,3,S*%
%TO.N,GND*%
X132000000Y-77540000D03*
%TD*%
D22*
%TO.P,J10,1,Pin_1*%
%TO.N,+5V*%
X185000000Y-95275000D03*
D23*
%TO.P,J10,2,Pin_2*%
%TO.N,/PIN_NTC_MOSFET_3*%
X187500000Y-95275000D03*
%TD*%
D15*
%TO.P,R8,1*%
%TO.N,/PIN_NTC_MOSFET_3*%
X193000000Y-94275000D03*
%TO.P,R8,2*%
%TO.N,GND*%
X193000000Y-97200000D03*
%TD*%
D33*
%TO.N,GND*%
X179000000Y-86000000D03*
X168000000Y-105000000D03*
%TO.N,+5V*%
X153500000Y-82500000D03*
%TO.N,Net-(R2-Pad2)*%
X156000000Y-105000000D03*
%TO.N,Net-(A1-A4{slash}SDA)*%
X175000000Y-120000000D03*
%TO.N,Net-(A1-A5{slash}SCL)*%
X172000000Y-120000000D03*
%TO.N,/PIN_NTC_OIL*%
X204500000Y-95000000D03*
%TO.N,/PIN_NTC_MOTOR*%
X201500000Y-95000000D03*
%TO.N,/PIN_NTC_MOSFET_3*%
X181000000Y-109000000D03*
%TO.N,/SIGN_MOTOR*%
X149000000Y-95000000D03*
%TD*%
D34*
%TO.N,/SIGN_HEATER*%
X179540000Y-96540000D02*
X180000000Y-97000000D01*
X175815000Y-96540000D02*
X179540000Y-96540000D01*
D35*
%TO.N,+5V*%
X225500000Y-80500000D02*
X225500000Y-70000000D01*
X118725000Y-95275000D02*
X125000000Y-95275000D01*
D34*
X203000000Y-106050500D02*
X203000000Y-77000000D01*
D35*
X125000000Y-93000000D02*
X125000000Y-95275000D01*
X185000000Y-95275000D02*
X185000000Y-104000000D01*
X185000000Y-104000000D02*
X187050500Y-106050500D01*
D34*
X165500000Y-82500000D02*
X167000000Y-81000000D01*
D35*
X203920000Y-48420000D02*
X203920000Y-47000000D01*
X146000000Y-92000000D02*
X126000000Y-92000000D01*
X155000000Y-95275000D02*
X155000000Y-98000000D01*
D34*
X175500000Y-49500000D02*
X175500000Y-47000000D01*
D35*
X175000000Y-94000000D02*
X173000000Y-92000000D01*
D34*
X134810000Y-117190000D02*
X134810000Y-115810000D01*
D35*
X175815000Y-94000000D02*
X175000000Y-94000000D01*
D34*
X153500000Y-82500000D02*
X165500000Y-82500000D01*
D35*
X180000000Y-94000000D02*
X175815000Y-94000000D01*
X165080000Y-108080000D02*
X165080000Y-113380000D01*
D34*
X167000000Y-70000000D02*
X144000000Y-47000000D01*
D35*
X187050500Y-106050500D02*
X203000000Y-106050500D01*
D34*
X132000000Y-113000000D02*
X112500000Y-113000000D01*
X207000000Y-40000000D02*
X203920000Y-43080000D01*
D35*
X145815000Y-94000000D02*
X145815000Y-92185000D01*
X112500000Y-101500000D02*
X118725000Y-95275000D01*
D34*
X203000000Y-77000000D02*
X175500000Y-49500000D01*
D35*
X112500000Y-113000000D02*
X112500000Y-101500000D01*
X225500000Y-70000000D02*
X203920000Y-48420000D01*
X165500000Y-92000000D02*
X155000000Y-92000000D01*
X207949500Y-106050500D02*
X215000000Y-99000000D01*
X185000000Y-95275000D02*
X181275000Y-95275000D01*
X215000000Y-99000000D02*
X215000000Y-95275000D01*
X126000000Y-92000000D02*
X125000000Y-93000000D01*
X203000000Y-106050500D02*
X207949500Y-106050500D01*
X112500000Y-121200000D02*
X112500000Y-113000000D01*
X155000000Y-95275000D02*
X155000000Y-92000000D01*
X173000000Y-92000000D02*
X165500000Y-92000000D01*
D34*
X167000000Y-81000000D02*
X167000000Y-70000000D01*
D35*
X181275000Y-95275000D02*
X180000000Y-94000000D01*
D34*
X134810000Y-115810000D02*
X132000000Y-113000000D01*
D35*
X215000000Y-95275000D02*
X215000000Y-91000000D01*
X155000000Y-92000000D02*
X146000000Y-92000000D01*
X155000000Y-98000000D02*
X165080000Y-108080000D01*
D34*
X213537500Y-40000000D02*
X207000000Y-40000000D01*
X165500000Y-82500000D02*
X165500000Y-92000000D01*
D35*
X145815000Y-92185000D02*
X146000000Y-92000000D01*
X215000000Y-91000000D02*
X225500000Y-80500000D01*
D34*
X203920000Y-43080000D02*
X203920000Y-47000000D01*
D36*
%TO.N,+24V*%
X192920000Y-44920000D02*
X190000000Y-42000000D01*
D35*
X123000000Y-58000000D02*
X129000000Y-52000000D01*
D36*
X190000000Y-42000000D02*
X184000000Y-42000000D01*
X161000000Y-44000000D02*
X163000000Y-42000000D01*
D35*
X111000000Y-58000000D02*
X123000000Y-58000000D01*
D37*
X129000000Y-44000000D02*
X131000000Y-42000000D01*
D36*
X192920000Y-47000000D02*
X192920000Y-44920000D01*
X179941636Y-42000000D02*
X181970818Y-44029182D01*
D37*
X131000000Y-42000000D02*
X163000000Y-42000000D01*
D36*
X163000000Y-42000000D02*
X179941636Y-42000000D01*
X161000000Y-47000000D02*
X161000000Y-44000000D01*
D37*
X129000000Y-47000000D02*
X129000000Y-44000000D01*
D35*
X106000000Y-63000000D02*
X111000000Y-58000000D01*
D36*
X181970818Y-44029182D02*
X181970818Y-46949182D01*
D37*
X153500000Y-47000000D02*
X161000000Y-47000000D01*
D35*
X129000000Y-52000000D02*
X129000000Y-47000000D01*
D36*
X184000000Y-42000000D02*
X181970818Y-44029182D01*
D35*
X106000000Y-69920000D02*
X106000000Y-63000000D01*
D34*
%TO.N,Net-(R1-Pad2)*%
X138000000Y-94000000D02*
X138195000Y-94000000D01*
X150000000Y-119000000D02*
X135000000Y-104000000D01*
X186000000Y-120537500D02*
X184462500Y-119000000D01*
X135000000Y-104000000D02*
X135000000Y-97000000D01*
X184462500Y-119000000D02*
X150000000Y-119000000D01*
X135000000Y-97000000D02*
X138000000Y-94000000D01*
%TO.N,Net-(R2-Pad2)*%
X187462500Y-118000000D02*
X154000000Y-118000000D01*
X190000000Y-120537500D02*
X187462500Y-118000000D01*
X154000000Y-118000000D02*
X150000000Y-114000000D01*
X150000000Y-110000000D02*
X155000000Y-105000000D01*
X155000000Y-105000000D02*
X156000000Y-105000000D01*
X150000000Y-114000000D02*
X150000000Y-110000000D01*
%TO.N,/BUZZER+*%
X172700000Y-126700000D02*
X172700000Y-128620000D01*
X145000000Y-124600000D02*
X170600000Y-124600000D01*
X170600000Y-124600000D02*
X172700000Y-126700000D01*
%TO.N,Net-(D2-A)*%
X216462500Y-46922500D02*
X216540000Y-47000000D01*
X216462500Y-40000000D02*
X216462500Y-46922500D01*
%TO.N,Net-(A1-A4{slash}SDA)*%
X134810000Y-124810000D02*
X139190000Y-124810000D01*
X143000000Y-121000000D02*
X174000000Y-121000000D01*
X174000000Y-121000000D02*
X175000000Y-120000000D01*
X139190000Y-124810000D02*
X143000000Y-121000000D01*
%TO.N,Net-(A1-A5{slash}SCL)*%
X138730000Y-122270000D02*
X141000000Y-120000000D01*
X141000000Y-120000000D02*
X172000000Y-120000000D01*
X134810000Y-122270000D02*
X138730000Y-122270000D01*
%TO.N,/PIN_NTC_OIL*%
X174301000Y-45699000D02*
X173000000Y-47000000D01*
X176335160Y-45699000D02*
X174301000Y-45699000D01*
X204500000Y-95000000D02*
X204500000Y-73863840D01*
X204500000Y-95000000D02*
X208000000Y-95000000D01*
X204500000Y-73863840D02*
X176335160Y-45699000D01*
%TO.N,/PIN_MOTOR*%
X187940000Y-125402500D02*
X186000000Y-123462500D01*
X187940000Y-128620000D02*
X187940000Y-125402500D01*
%TO.N,/PIN_NTC_MOTOR*%
X201500000Y-95000000D02*
X201000000Y-95000000D01*
X201500000Y-95000000D02*
X201500000Y-89000000D01*
X148000000Y-48000000D02*
X148000000Y-47000000D01*
X200537500Y-94537500D02*
X198000000Y-94537500D01*
X184500000Y-82000000D02*
X152500000Y-50000000D01*
X194500000Y-82000000D02*
X184500000Y-82000000D01*
X150000000Y-50000000D02*
X148000000Y-48000000D01*
X142000000Y-45000000D02*
X141500000Y-45500000D01*
X146000000Y-45000000D02*
X142000000Y-45000000D01*
X201500000Y-89000000D02*
X194500000Y-82000000D01*
X201000000Y-95000000D02*
X200537500Y-94537500D01*
X148000000Y-47000000D02*
X146000000Y-45000000D01*
X152500000Y-50000000D02*
X150000000Y-50000000D01*
X141500000Y-45500000D02*
X141500000Y-47000000D01*
%TO.N,/PIN_HEATER*%
X190480000Y-123942500D02*
X190000000Y-123462500D01*
X190480000Y-128620000D02*
X190480000Y-123942500D01*
D37*
%TO.N,/MOTOR*%
X127000000Y-72000000D02*
X127000000Y-62000000D01*
X134080000Y-54920000D02*
X134080000Y-47000000D01*
X132000000Y-75000000D02*
X162000000Y-75000000D01*
D35*
X106000000Y-80080000D02*
X120920000Y-80080000D01*
X120920000Y-80080000D02*
X126000000Y-75000000D01*
X126000000Y-75000000D02*
X132000000Y-75000000D01*
D37*
X132000000Y-75000000D02*
X130000000Y-75000000D01*
X127000000Y-62000000D02*
X134080000Y-54920000D01*
X130000000Y-75000000D02*
X127000000Y-72000000D01*
%TO.N,/HEATER_2*%
X222000000Y-75000000D02*
X208000000Y-75000000D01*
X187000000Y-54000000D02*
X187000000Y-47000000D01*
X208000000Y-75000000D02*
X187000000Y-54000000D01*
%TO.N,/HEATER_1*%
X182000000Y-75000000D02*
X166080000Y-59080000D01*
X166080000Y-59080000D02*
X166080000Y-47000000D01*
X192000000Y-75000000D02*
X182000000Y-75000000D01*
D34*
%TO.N,/PIN_NTC_MOSFET_1*%
X133000000Y-95350000D02*
X127575000Y-95350000D01*
X127575000Y-95350000D02*
X127500000Y-95275000D01*
%TO.N,/PIN_NTC_MOSFET_2*%
X174725000Y-106000000D02*
X180000000Y-106000000D01*
X163000000Y-94275000D02*
X158500000Y-94275000D01*
X182860000Y-108860000D02*
X182860000Y-113380000D01*
X158500000Y-94275000D02*
X157500000Y-95275000D01*
X163000000Y-94275000D02*
X174725000Y-106000000D01*
X180000000Y-106000000D02*
X182860000Y-108860000D01*
%TO.N,/PIN_NTC_MOSFET_3*%
X188500000Y-94275000D02*
X187500000Y-95275000D01*
X181000000Y-109000000D02*
X180320000Y-109680000D01*
X193000000Y-94275000D02*
X188500000Y-94275000D01*
X180320000Y-109680000D02*
X180320000Y-113380000D01*
%TO.N,/PIN_NTC_MOSFET_4*%
X223000000Y-94275000D02*
X218500000Y-94275000D01*
X177780000Y-114780000D02*
X177780000Y-113380000D01*
X218500000Y-94275000D02*
X217500000Y-95275000D01*
X217500000Y-95275000D02*
X217500000Y-100500000D01*
X202000000Y-116000000D02*
X179000000Y-116000000D01*
X179000000Y-116000000D02*
X177780000Y-114780000D01*
X217500000Y-100500000D02*
X202000000Y-116000000D01*
%TO.N,/SIGN_MOTOR*%
X147460000Y-96540000D02*
X149000000Y-95000000D01*
X150000000Y-97000000D02*
X149000000Y-96000000D01*
X149000000Y-96000000D02*
X149000000Y-95000000D01*
X145815000Y-96540000D02*
X147460000Y-96540000D01*
X132000000Y-72460000D02*
X162000000Y-72460000D01*
%TD*%
%TA.AperFunction,Conductor*%
%TO.N,GND*%
G36*
X166947018Y-92920185D02*
G01*
X166992773Y-92972989D01*
X167002717Y-93042147D01*
X166985518Y-93089594D01*
X166979409Y-93099500D01*
X166960187Y-93130663D01*
X166960185Y-93130668D01*
X166933235Y-93212000D01*
X166905001Y-93297203D01*
X166905001Y-93297204D01*
X166905000Y-93297204D01*
X166894500Y-93399983D01*
X166894500Y-94600001D01*
X166894501Y-94600018D01*
X166905000Y-94702796D01*
X166905001Y-94702799D01*
X166960185Y-94869331D01*
X166960187Y-94869336D01*
X166991551Y-94920185D01*
X167052288Y-95018656D01*
X167176344Y-95142712D01*
X167325666Y-95234814D01*
X167492203Y-95289999D01*
X167594991Y-95300500D01*
X168795008Y-95300499D01*
X168897797Y-95289999D01*
X169064334Y-95234814D01*
X169213656Y-95142712D01*
X169337712Y-95018656D01*
X169429814Y-94869334D01*
X169484999Y-94702797D01*
X169495500Y-94600009D01*
X169495499Y-93399992D01*
X169484999Y-93297203D01*
X169429814Y-93130666D01*
X169404481Y-93089595D01*
X169386042Y-93022204D01*
X169406965Y-92955541D01*
X169460607Y-92910771D01*
X169510021Y-92900500D01*
X172575638Y-92900500D01*
X172642677Y-92920185D01*
X172663319Y-92936819D01*
X174425964Y-94699464D01*
X174449846Y-94715421D01*
X174449848Y-94715423D01*
X174449849Y-94715423D01*
X174573453Y-94798013D01*
X174655393Y-94831953D01*
X174737334Y-94865895D01*
X174836522Y-94885624D01*
X174842172Y-94887319D01*
X174866703Y-94903287D01*
X174892644Y-94916857D01*
X174894224Y-94918409D01*
X174967786Y-94991971D01*
X175087359Y-95078844D01*
X175133390Y-95112287D01*
X175224840Y-95158883D01*
X175226080Y-95159515D01*
X175276876Y-95207490D01*
X175293671Y-95275311D01*
X175271134Y-95341446D01*
X175226080Y-95380485D01*
X175133386Y-95427715D01*
X174967786Y-95548028D01*
X174823028Y-95692786D01*
X174702715Y-95858386D01*
X174609781Y-96040776D01*
X174546522Y-96235465D01*
X174514500Y-96437648D01*
X174514500Y-96642351D01*
X174546522Y-96844534D01*
X174609781Y-97039223D01*
X174661385Y-97140500D01*
X174698320Y-97212989D01*
X174702715Y-97221613D01*
X174823028Y-97387213D01*
X174967786Y-97531971D01*
X175105241Y-97631836D01*
X175133390Y-97652287D01*
X175249607Y-97711503D01*
X175315776Y-97745218D01*
X175315778Y-97745218D01*
X175315781Y-97745220D01*
X175420137Y-97779127D01*
X175510465Y-97808477D01*
X175611557Y-97824488D01*
X175712648Y-97840500D01*
X175712649Y-97840500D01*
X175917351Y-97840500D01*
X175917352Y-97840500D01*
X176119534Y-97808477D01*
X176314219Y-97745220D01*
X176496610Y-97652287D01*
X176602109Y-97575638D01*
X176662213Y-97531971D01*
X176662215Y-97531968D01*
X176662219Y-97531966D01*
X176806966Y-97387219D01*
X176806968Y-97387215D01*
X176806971Y-97387213D01*
X176927284Y-97221614D01*
X176927285Y-97221613D01*
X176927287Y-97221610D01*
X176934117Y-97208204D01*
X176982091Y-97157409D01*
X177044602Y-97140500D01*
X178500501Y-97140500D01*
X178567540Y-97160185D01*
X178613295Y-97212989D01*
X178624501Y-97264500D01*
X178624501Y-97362518D01*
X178635000Y-97465296D01*
X178635001Y-97465299D01*
X178690185Y-97631831D01*
X178690187Y-97631836D01*
X178702801Y-97652287D01*
X178782288Y-97781156D01*
X178906344Y-97905212D01*
X179055666Y-97997314D01*
X179222203Y-98052499D01*
X179324991Y-98063000D01*
X180675008Y-98062999D01*
X180777797Y-98052499D01*
X180944334Y-97997314D01*
X181093656Y-97905212D01*
X181217712Y-97781156D01*
X181309814Y-97631834D01*
X181364999Y-97465297D01*
X181375500Y-97362509D01*
X181375499Y-96637492D01*
X181373478Y-96617712D01*
X181364999Y-96534703D01*
X181364998Y-96534700D01*
X181338622Y-96455104D01*
X181309814Y-96368166D01*
X181307612Y-96364597D01*
X181306850Y-96361812D01*
X181306760Y-96361618D01*
X181306793Y-96361602D01*
X181289172Y-96297206D01*
X181310094Y-96230542D01*
X181363735Y-96185772D01*
X181413151Y-96175500D01*
X183569699Y-96175500D01*
X183636738Y-96195185D01*
X183682493Y-96247989D01*
X183687403Y-96260492D01*
X183713378Y-96338879D01*
X183715185Y-96344331D01*
X183715187Y-96344336D01*
X183729887Y-96368168D01*
X183807288Y-96493656D01*
X183931344Y-96617712D01*
X184040597Y-96685099D01*
X184087321Y-96737047D01*
X184099500Y-96790638D01*
X184099500Y-104088696D01*
X184134103Y-104262658D01*
X184134105Y-104262666D01*
X184166029Y-104339738D01*
X184166031Y-104339743D01*
X184168046Y-104344606D01*
X184201987Y-104426547D01*
X184238051Y-104480520D01*
X184264082Y-104519479D01*
X184300537Y-104574038D01*
X184300538Y-104574039D01*
X186476464Y-106749964D01*
X186476466Y-106749966D01*
X186510826Y-106772923D01*
X186535540Y-106789436D01*
X186623953Y-106848513D01*
X186705893Y-106882453D01*
X186711980Y-106884974D01*
X186711985Y-106884977D01*
X186748440Y-106900077D01*
X186787834Y-106916395D01*
X186961803Y-106950999D01*
X186961807Y-106951000D01*
X186961808Y-106951000D01*
X208038193Y-106951000D01*
X208038194Y-106950999D01*
X208212166Y-106916395D01*
X208294106Y-106882453D01*
X208376047Y-106848513D01*
X208464459Y-106789436D01*
X208523536Y-106749964D01*
X215699464Y-99574035D01*
X215798013Y-99426547D01*
X215817895Y-99378547D01*
X215865895Y-99262666D01*
X215900500Y-99088691D01*
X215900500Y-98911308D01*
X215900500Y-96790638D01*
X215920185Y-96723599D01*
X215959401Y-96685100D01*
X216068656Y-96617712D01*
X216192712Y-96493656D01*
X216284814Y-96344334D01*
X216284814Y-96344331D01*
X216288178Y-96338879D01*
X216340126Y-96292154D01*
X216409088Y-96280931D01*
X216473170Y-96308774D01*
X216481398Y-96316294D01*
X216620213Y-96455109D01*
X216792184Y-96580051D01*
X216792184Y-96580052D01*
X216831793Y-96600233D01*
X216882590Y-96648206D01*
X216899500Y-96710718D01*
X216899500Y-100199903D01*
X216879815Y-100266942D01*
X216863181Y-100287584D01*
X201787584Y-115363181D01*
X201726261Y-115396666D01*
X201699903Y-115399500D01*
X179300098Y-115399500D01*
X179233059Y-115379815D01*
X179212417Y-115363181D01*
X178880582Y-115031346D01*
X178540249Y-114691014D01*
X178506765Y-114629692D01*
X178511749Y-114560001D01*
X178553620Y-114504067D01*
X178555046Y-114503016D01*
X178556209Y-114502171D01*
X178668651Y-114420477D01*
X178820477Y-114268651D01*
X178946683Y-114094944D01*
X178946683Y-114094943D01*
X178949547Y-114091002D01*
X178951478Y-114092405D01*
X178995927Y-114052078D01*
X179064840Y-114040558D01*
X179129042Y-114068125D01*
X179149478Y-114091709D01*
X179150453Y-114091002D01*
X179153316Y-114094943D01*
X179153317Y-114094944D01*
X179279523Y-114268651D01*
X179431349Y-114420477D01*
X179605056Y-114546683D01*
X179689067Y-114589489D01*
X179796366Y-114644161D01*
X179796369Y-114644162D01*
X179832302Y-114655837D01*
X180000573Y-114710511D01*
X180212643Y-114744100D01*
X180212644Y-114744100D01*
X180427356Y-114744100D01*
X180427357Y-114744100D01*
X180639427Y-114710511D01*
X180843633Y-114644161D01*
X181034944Y-114546683D01*
X181208651Y-114420477D01*
X181360477Y-114268651D01*
X181486683Y-114094944D01*
X181486683Y-114094943D01*
X181489547Y-114091002D01*
X181491478Y-114092405D01*
X181535927Y-114052078D01*
X181604840Y-114040558D01*
X181669042Y-114068125D01*
X181689478Y-114091709D01*
X181690453Y-114091002D01*
X181693316Y-114094943D01*
X181693317Y-114094944D01*
X181819523Y-114268651D01*
X181971349Y-114420477D01*
X182145056Y-114546683D01*
X182229067Y-114589489D01*
X182336366Y-114644161D01*
X182336369Y-114644162D01*
X182372302Y-114655837D01*
X182540573Y-114710511D01*
X182752643Y-114744100D01*
X182752644Y-114744100D01*
X182967356Y-114744100D01*
X182967357Y-114744100D01*
X183179427Y-114710511D01*
X183383633Y-114644161D01*
X183574944Y-114546683D01*
X183748651Y-114420477D01*
X183900477Y-114268651D01*
X184026683Y-114094944D01*
X184026683Y-114094943D01*
X184029547Y-114091002D01*
X184031478Y-114092405D01*
X184075927Y-114052078D01*
X184144840Y-114040558D01*
X184209042Y-114068125D01*
X184229478Y-114091709D01*
X184230453Y-114091002D01*
X184233316Y-114094943D01*
X184233317Y-114094944D01*
X184359523Y-114268651D01*
X184511349Y-114420477D01*
X184685056Y-114546683D01*
X184769067Y-114589489D01*
X184876366Y-114644161D01*
X184876369Y-114644162D01*
X184912302Y-114655837D01*
X185080573Y-114710511D01*
X185292643Y-114744100D01*
X185292644Y-114744100D01*
X185507356Y-114744100D01*
X185507357Y-114744100D01*
X185719427Y-114710511D01*
X185923633Y-114644161D01*
X186114944Y-114546683D01*
X186288651Y-114420477D01*
X186440477Y-114268651D01*
X186566683Y-114094944D01*
X186566683Y-114094943D01*
X186569547Y-114091002D01*
X186571478Y-114092405D01*
X186615927Y-114052078D01*
X186684840Y-114040558D01*
X186749042Y-114068125D01*
X186769478Y-114091709D01*
X186770453Y-114091002D01*
X186773316Y-114094943D01*
X186773317Y-114094944D01*
X186899523Y-114268651D01*
X187051349Y-114420477D01*
X187225056Y-114546683D01*
X187309067Y-114589489D01*
X187416366Y-114644161D01*
X187416369Y-114644162D01*
X187452302Y-114655837D01*
X187620573Y-114710511D01*
X187832643Y-114744100D01*
X187832644Y-114744100D01*
X188047356Y-114744100D01*
X188047357Y-114744100D01*
X188259427Y-114710511D01*
X188463633Y-114644161D01*
X188654944Y-114546683D01*
X188828651Y-114420477D01*
X188980477Y-114268651D01*
X189106683Y-114094944D01*
X189106683Y-114094943D01*
X189109547Y-114091002D01*
X189111478Y-114092405D01*
X189155927Y-114052078D01*
X189224840Y-114040558D01*
X189289042Y-114068125D01*
X189309478Y-114091709D01*
X189310453Y-114091002D01*
X189313316Y-114094943D01*
X189313317Y-114094944D01*
X189439523Y-114268651D01*
X189591349Y-114420477D01*
X189765056Y-114546683D01*
X189849067Y-114589489D01*
X189956366Y-114644161D01*
X189956369Y-114644162D01*
X189992302Y-114655837D01*
X190160573Y-114710511D01*
X190372643Y-114744100D01*
X190372644Y-114744100D01*
X190587356Y-114744100D01*
X190587357Y-114744100D01*
X190799427Y-114710511D01*
X191003633Y-114644161D01*
X191194944Y-114546683D01*
X191368651Y-114420477D01*
X191520477Y-114268651D01*
X191646683Y-114094944D01*
X191646683Y-114094943D01*
X191649547Y-114091002D01*
X191651478Y-114092405D01*
X191695927Y-114052078D01*
X191764840Y-114040558D01*
X191829042Y-114068125D01*
X191849478Y-114091709D01*
X191850453Y-114091002D01*
X191853316Y-114094943D01*
X191853317Y-114094944D01*
X191979523Y-114268651D01*
X192131349Y-114420477D01*
X192305056Y-114546683D01*
X192389067Y-114589489D01*
X192496366Y-114644161D01*
X192496369Y-114644162D01*
X192532302Y-114655837D01*
X192700573Y-114710511D01*
X192912643Y-114744100D01*
X192912644Y-114744100D01*
X193127356Y-114744100D01*
X193127357Y-114744100D01*
X193339427Y-114710511D01*
X193543633Y-114644161D01*
X193734944Y-114546683D01*
X193908651Y-114420477D01*
X194060477Y-114268651D01*
X194186683Y-114094944D01*
X194284161Y-113903633D01*
X194289545Y-113887061D01*
X194328980Y-113829385D01*
X194393337Y-113802185D01*
X194462184Y-113814097D01*
X194513662Y-113861339D01*
X194517962Y-113869081D01*
X194540517Y-113913348D01*
X194576006Y-113982997D01*
X194682441Y-114129494D01*
X194682445Y-114129499D01*
X194810500Y-114257554D01*
X194810505Y-114257558D01*
X194938287Y-114350396D01*
X194957006Y-114363996D01*
X195062484Y-114417740D01*
X195118360Y-114446211D01*
X195118363Y-114446212D01*
X195191614Y-114470012D01*
X195290591Y-114502171D01*
X195373429Y-114515291D01*
X195469449Y-114530500D01*
X195469454Y-114530500D01*
X195650551Y-114530500D01*
X195737259Y-114516765D01*
X195829409Y-114502171D01*
X196001639Y-114446211D01*
X196162994Y-114363996D01*
X196309501Y-114257553D01*
X196437553Y-114129501D01*
X196543996Y-113982994D01*
X196626211Y-113821639D01*
X196682171Y-113649409D01*
X196696765Y-113557259D01*
X196710500Y-113470551D01*
X196710500Y-113289448D01*
X196694019Y-113185397D01*
X196682171Y-113110591D01*
X196641103Y-112984194D01*
X196626212Y-112938363D01*
X196626211Y-112938360D01*
X196584436Y-112856374D01*
X196543996Y-112777006D01*
X196502151Y-112719411D01*
X196437558Y-112630505D01*
X196437554Y-112630500D01*
X196309499Y-112502445D01*
X196309494Y-112502441D01*
X196162997Y-112396006D01*
X196162996Y-112396005D01*
X196162994Y-112396004D01*
X196106167Y-112367049D01*
X196001639Y-112313788D01*
X196001636Y-112313787D01*
X195829410Y-112257829D01*
X195650551Y-112229500D01*
X195650546Y-112229500D01*
X195469454Y-112229500D01*
X195469449Y-112229500D01*
X195290589Y-112257829D01*
X195118363Y-112313787D01*
X195118360Y-112313788D01*
X194957002Y-112396006D01*
X194810505Y-112502441D01*
X194810500Y-112502445D01*
X194682445Y-112630500D01*
X194682441Y-112630505D01*
X194576004Y-112777004D01*
X194517961Y-112890919D01*
X194469987Y-112941714D01*
X194402166Y-112958509D01*
X194336031Y-112935971D01*
X194292580Y-112881256D01*
X194289545Y-112872938D01*
X194284161Y-112856367D01*
X194284161Y-112856366D01*
X194200266Y-112691715D01*
X194186683Y-112665056D01*
X194060477Y-112491349D01*
X193908651Y-112339523D01*
X193734944Y-112213317D01*
X193688203Y-112189501D01*
X193543633Y-112115838D01*
X193543630Y-112115837D01*
X193339428Y-112049489D01*
X193233392Y-112032694D01*
X193127357Y-112015900D01*
X192912643Y-112015900D01*
X192841953Y-112027096D01*
X192700571Y-112049489D01*
X192496369Y-112115837D01*
X192496366Y-112115838D01*
X192305055Y-112213317D01*
X192219469Y-112275500D01*
X192131349Y-112339523D01*
X192131347Y-112339525D01*
X192131346Y-112339525D01*
X191979525Y-112491346D01*
X191979525Y-112491347D01*
X191979523Y-112491349D01*
X191853318Y-112665055D01*
X191850453Y-112668998D01*
X191848562Y-112667624D01*
X191803848Y-112708030D01*
X191734911Y-112719411D01*
X191670765Y-112691715D01*
X191650488Y-112668314D01*
X191649547Y-112668998D01*
X191646682Y-112665055D01*
X191520477Y-112491349D01*
X191368651Y-112339523D01*
X191194944Y-112213317D01*
X191148203Y-112189501D01*
X191003633Y-112115838D01*
X191003630Y-112115837D01*
X190799428Y-112049489D01*
X190693392Y-112032694D01*
X190587357Y-112015900D01*
X190372643Y-112015900D01*
X190301953Y-112027096D01*
X190160571Y-112049489D01*
X189956369Y-112115837D01*
X189956366Y-112115838D01*
X189765055Y-112213317D01*
X189679469Y-112275500D01*
X189591349Y-112339523D01*
X189591347Y-112339525D01*
X189591346Y-112339525D01*
X189439525Y-112491346D01*
X189439525Y-112491347D01*
X189439523Y-112491349D01*
X189313318Y-112665055D01*
X189310453Y-112668998D01*
X189308562Y-112667624D01*
X189263848Y-112708030D01*
X189194911Y-112719411D01*
X189130765Y-112691715D01*
X189110488Y-112668314D01*
X189109547Y-112668998D01*
X189106682Y-112665055D01*
X188980477Y-112491349D01*
X188828651Y-112339523D01*
X188654944Y-112213317D01*
X188608203Y-112189501D01*
X188463633Y-112115838D01*
X188463630Y-112115837D01*
X188259428Y-112049489D01*
X188153392Y-112032694D01*
X188047357Y-112015900D01*
X187832643Y-112015900D01*
X187761953Y-112027096D01*
X187620571Y-112049489D01*
X187416369Y-112115837D01*
X187416366Y-112115838D01*
X187225055Y-112213317D01*
X187139469Y-112275500D01*
X187051349Y-112339523D01*
X187051347Y-112339525D01*
X187051346Y-112339525D01*
X186899525Y-112491346D01*
X186899525Y-112491347D01*
X186899523Y-112491349D01*
X186773318Y-112665055D01*
X186770453Y-112668998D01*
X186768562Y-112667624D01*
X186723848Y-112708030D01*
X186654911Y-112719411D01*
X186590765Y-112691715D01*
X186570488Y-112668314D01*
X186569547Y-112668998D01*
X186566682Y-112665055D01*
X186440477Y-112491349D01*
X186288651Y-112339523D01*
X186114944Y-112213317D01*
X186068203Y-112189501D01*
X185923633Y-112115838D01*
X185923630Y-112115837D01*
X185719428Y-112049489D01*
X185613392Y-112032694D01*
X185507357Y-112015900D01*
X185292643Y-112015900D01*
X185221953Y-112027096D01*
X185080571Y-112049489D01*
X184876369Y-112115837D01*
X184876366Y-112115838D01*
X184685055Y-112213317D01*
X184599469Y-112275500D01*
X184511349Y-112339523D01*
X184511347Y-112339525D01*
X184511346Y-112339525D01*
X184359525Y-112491346D01*
X184359525Y-112491347D01*
X184359523Y-112491349D01*
X184233318Y-112665055D01*
X184230453Y-112668998D01*
X184228562Y-112667624D01*
X184183848Y-112708030D01*
X184114911Y-112719411D01*
X184050765Y-112691715D01*
X184030488Y-112668314D01*
X184029547Y-112668998D01*
X184026682Y-112665055D01*
X183900477Y-112491349D01*
X183748651Y-112339523D01*
X183660531Y-112275500D01*
X183574942Y-112213315D01*
X183528204Y-112189501D01*
X183477409Y-112141527D01*
X183460500Y-112079017D01*
X183460500Y-108949060D01*
X183460501Y-108949047D01*
X183460501Y-108780945D01*
X183460501Y-108780943D01*
X183419577Y-108628215D01*
X183340520Y-108491284D01*
X180487589Y-105638354D01*
X180487588Y-105638352D01*
X180368717Y-105519481D01*
X180368716Y-105519480D01*
X180281904Y-105469360D01*
X180281904Y-105469359D01*
X180281900Y-105469358D01*
X180231785Y-105440423D01*
X180079057Y-105399499D01*
X179920943Y-105399499D01*
X179913347Y-105399499D01*
X179913331Y-105399500D01*
X175025097Y-105399500D01*
X174958058Y-105379815D01*
X174937416Y-105363181D01*
X164401986Y-94827751D01*
X164368501Y-94766428D01*
X164366309Y-94727471D01*
X164375500Y-94637509D01*
X164375499Y-93912492D01*
X164374801Y-93905663D01*
X164364999Y-93809703D01*
X164364998Y-93809700D01*
X164359954Y-93794479D01*
X164309814Y-93643166D01*
X164217712Y-93493844D01*
X164093656Y-93369788D01*
X164000888Y-93312569D01*
X163944336Y-93277687D01*
X163944331Y-93277685D01*
X163942862Y-93277198D01*
X163777797Y-93222501D01*
X163777795Y-93222500D01*
X163675010Y-93212000D01*
X162324998Y-93212000D01*
X162324981Y-93212001D01*
X162222203Y-93222500D01*
X162222200Y-93222501D01*
X162055668Y-93277685D01*
X162055663Y-93277687D01*
X161906342Y-93369789D01*
X161782289Y-93493842D01*
X161707191Y-93615597D01*
X161655243Y-93662321D01*
X161601652Y-93674500D01*
X158586670Y-93674500D01*
X158586654Y-93674499D01*
X158579058Y-93674499D01*
X158420943Y-93674499D01*
X158344579Y-93694961D01*
X158268214Y-93715423D01*
X158268209Y-93715426D01*
X158131283Y-93794479D01*
X158131282Y-93794479D01*
X158097733Y-93828028D01*
X158036409Y-93861512D01*
X157971737Y-93858276D01*
X157816244Y-93807754D01*
X157816240Y-93807753D01*
X157654957Y-93782208D01*
X157606287Y-93774500D01*
X157393713Y-93774500D01*
X157345042Y-93782208D01*
X157183760Y-93807753D01*
X157183757Y-93807754D01*
X157007878Y-93864901D01*
X156981585Y-93873444D01*
X156792179Y-93969951D01*
X156620215Y-94094889D01*
X156481398Y-94233706D01*
X156420075Y-94267190D01*
X156350383Y-94262206D01*
X156294450Y-94220334D01*
X156288178Y-94211120D01*
X156192712Y-94056344D01*
X156068657Y-93932289D01*
X156068656Y-93932288D01*
X155959402Y-93864900D01*
X155912679Y-93812953D01*
X155900500Y-93759362D01*
X155900500Y-93024500D01*
X155920185Y-92957461D01*
X155972989Y-92911706D01*
X156024500Y-92900500D01*
X165411309Y-92900500D01*
X166879979Y-92900500D01*
X166947018Y-92920185D01*
G37*
%TD.AperFunction*%
%TA.AperFunction,Conductor*%
G36*
X161668691Y-94895185D02*
G01*
X161707189Y-94934401D01*
X161782288Y-95056156D01*
X161906344Y-95180212D01*
X162055666Y-95272314D01*
X162222203Y-95327499D01*
X162324991Y-95338000D01*
X163162402Y-95337999D01*
X163229441Y-95357683D01*
X163250083Y-95374318D01*
X174240139Y-106364374D01*
X174240149Y-106364385D01*
X174244479Y-106368715D01*
X174244480Y-106368716D01*
X174356284Y-106480520D01*
X174443095Y-106530639D01*
X174443097Y-106530641D01*
X174481151Y-106552611D01*
X174493215Y-106559577D01*
X174645943Y-106600501D01*
X174645946Y-106600501D01*
X174811653Y-106600501D01*
X174811669Y-106600500D01*
X179699903Y-106600500D01*
X179766942Y-106620185D01*
X179787584Y-106636819D01*
X181138584Y-107987819D01*
X181172069Y-108049142D01*
X181167085Y-108118834D01*
X181125213Y-108174767D01*
X181059749Y-108199184D01*
X181050903Y-108199500D01*
X180921155Y-108199500D01*
X180766510Y-108230261D01*
X180766498Y-108230264D01*
X180620827Y-108290602D01*
X180620814Y-108290609D01*
X180489711Y-108378210D01*
X180489707Y-108378213D01*
X180378213Y-108489707D01*
X180378210Y-108489711D01*
X180290609Y-108620814D01*
X180290602Y-108620827D01*
X180230264Y-108766498D01*
X180230261Y-108766508D01*
X180199361Y-108921849D01*
X180166976Y-108983760D01*
X180165425Y-108985338D01*
X179953843Y-109196920D01*
X179953834Y-109196929D01*
X179951286Y-109199478D01*
X179951284Y-109199480D01*
X179839480Y-109311284D01*
X179822601Y-109340520D01*
X179816265Y-109351493D01*
X179816264Y-109351495D01*
X179760424Y-109448213D01*
X179760423Y-109448215D01*
X179719499Y-109600943D01*
X179719499Y-109600945D01*
X179719499Y-109769046D01*
X179719500Y-109769059D01*
X179719500Y-112079017D01*
X179699815Y-112146056D01*
X179651796Y-112189501D01*
X179605057Y-112213315D01*
X179485734Y-112300010D01*
X179431349Y-112339523D01*
X179431347Y-112339525D01*
X179431346Y-112339525D01*
X179279525Y-112491346D01*
X179279525Y-112491347D01*
X179279523Y-112491349D01*
X179153318Y-112665055D01*
X179150453Y-112668998D01*
X179148562Y-112667624D01*
X179103848Y-112708030D01*
X179034911Y-112719411D01*
X178970765Y-112691715D01*
X178950488Y-112668314D01*
X178949547Y-112668998D01*
X178946682Y-112665055D01*
X178820477Y-112491349D01*
X178668651Y-112339523D01*
X178494944Y-112213317D01*
X178448203Y-112189501D01*
X178303633Y-112115838D01*
X178303630Y-112115837D01*
X178099428Y-112049489D01*
X177993392Y-112032694D01*
X177887357Y-112015900D01*
X177672643Y-112015900D01*
X177601953Y-112027096D01*
X177460571Y-112049489D01*
X177256369Y-112115837D01*
X177256366Y-112115838D01*
X177065055Y-112213317D01*
X176979469Y-112275500D01*
X176891349Y-112339523D01*
X176891347Y-112339525D01*
X176891346Y-112339525D01*
X176739525Y-112491346D01*
X176739525Y-112491347D01*
X176739523Y-112491349D01*
X176613318Y-112665055D01*
X176610453Y-112668998D01*
X176608562Y-112667624D01*
X176563848Y-112708030D01*
X176494911Y-112719411D01*
X176430765Y-112691715D01*
X176410488Y-112668314D01*
X176409547Y-112668998D01*
X176406682Y-112665055D01*
X176280477Y-112491349D01*
X176128651Y-112339523D01*
X175954944Y-112213317D01*
X175908203Y-112189501D01*
X175763633Y-112115838D01*
X175763630Y-112115837D01*
X175559428Y-112049489D01*
X175453392Y-112032694D01*
X175347357Y-112015900D01*
X175132643Y-112015900D01*
X175061953Y-112027096D01*
X174920571Y-112049489D01*
X174716369Y-112115837D01*
X174716366Y-112115838D01*
X174525055Y-112213317D01*
X174439469Y-112275500D01*
X174351349Y-112339523D01*
X174351347Y-112339525D01*
X174351346Y-112339525D01*
X174199525Y-112491346D01*
X174199525Y-112491347D01*
X174199523Y-112491349D01*
X174073318Y-112665055D01*
X174070453Y-112668998D01*
X174068562Y-112667624D01*
X174023848Y-112708030D01*
X173954911Y-112719411D01*
X173890765Y-112691715D01*
X173870488Y-112668314D01*
X173869547Y-112668998D01*
X173866682Y-112665055D01*
X173740477Y-112491349D01*
X173588651Y-112339523D01*
X173414944Y-112213317D01*
X173368203Y-112189501D01*
X173223633Y-112115838D01*
X173223630Y-112115837D01*
X173019428Y-112049489D01*
X172913392Y-112032694D01*
X172807357Y-112015900D01*
X172592643Y-112015900D01*
X172521953Y-112027096D01*
X172380571Y-112049489D01*
X172176369Y-112115837D01*
X172176366Y-112115838D01*
X171985055Y-112213317D01*
X171899469Y-112275500D01*
X171811349Y-112339523D01*
X171811347Y-112339525D01*
X171811346Y-112339525D01*
X171659525Y-112491346D01*
X171659525Y-112491347D01*
X171659523Y-112491349D01*
X171533318Y-112665055D01*
X171530453Y-112668998D01*
X171528562Y-112667624D01*
X171483848Y-112708030D01*
X171414911Y-112719411D01*
X171350765Y-112691715D01*
X171330488Y-112668314D01*
X171329547Y-112668998D01*
X171326682Y-112665055D01*
X171200477Y-112491349D01*
X171048651Y-112339523D01*
X170874944Y-112213317D01*
X170828203Y-112189501D01*
X170683633Y-112115838D01*
X170683630Y-112115837D01*
X170479428Y-112049489D01*
X170373392Y-112032694D01*
X170267357Y-112015900D01*
X170052643Y-112015900D01*
X169981953Y-112027096D01*
X169840571Y-112049489D01*
X169636369Y-112115837D01*
X169636366Y-112115838D01*
X169445055Y-112213317D01*
X169359469Y-112275500D01*
X169271349Y-112339523D01*
X169271347Y-112339525D01*
X169271346Y-112339525D01*
X169119525Y-112491346D01*
X169119525Y-112491347D01*
X169119523Y-112491349D01*
X168993318Y-112665055D01*
X168990453Y-112668998D01*
X168988562Y-112667624D01*
X168943848Y-112708030D01*
X168874911Y-112719411D01*
X168810765Y-112691715D01*
X168790488Y-112668314D01*
X168789547Y-112668998D01*
X168786682Y-112665055D01*
X168660477Y-112491349D01*
X168508651Y-112339523D01*
X168334944Y-112213317D01*
X168288203Y-112189501D01*
X168143633Y-112115838D01*
X168143630Y-112115837D01*
X167939428Y-112049489D01*
X167833392Y-112032694D01*
X167727357Y-112015900D01*
X167512643Y-112015900D01*
X167441953Y-112027096D01*
X167300571Y-112049489D01*
X167096369Y-112115837D01*
X167096366Y-112115838D01*
X166905055Y-112213317D01*
X166819469Y-112275500D01*
X166731349Y-112339523D01*
X166731347Y-112339525D01*
X166731346Y-112339525D01*
X166579525Y-112491346D01*
X166579525Y-112491347D01*
X166579523Y-112491349D01*
X166453318Y-112665055D01*
X166450453Y-112668998D01*
X166448562Y-112667624D01*
X166403848Y-112708030D01*
X166334911Y-112719411D01*
X166270765Y-112691715D01*
X166250488Y-112668314D01*
X166249547Y-112668998D01*
X166246682Y-112665055D01*
X166120477Y-112491349D01*
X166016819Y-112387691D01*
X165983334Y-112326368D01*
X165980500Y-112300010D01*
X165980500Y-107991308D01*
X165980499Y-107991304D01*
X165945896Y-107817341D01*
X165945895Y-107817334D01*
X165880339Y-107659071D01*
X165878695Y-107654474D01*
X165779465Y-107505966D01*
X165779464Y-107505965D01*
X165654035Y-107380536D01*
X155936819Y-97663319D01*
X155903334Y-97601996D01*
X155900500Y-97575638D01*
X155900500Y-96790638D01*
X155920185Y-96723599D01*
X155959401Y-96685100D01*
X156068656Y-96617712D01*
X156192712Y-96493656D01*
X156284814Y-96344334D01*
X156284814Y-96344331D01*
X156288178Y-96338879D01*
X156340126Y-96292154D01*
X156409088Y-96280931D01*
X156473170Y-96308774D01*
X156481398Y-96316294D01*
X156620213Y-96455109D01*
X156792179Y-96580048D01*
X156792181Y-96580049D01*
X156792184Y-96580051D01*
X156981588Y-96676557D01*
X157183757Y-96742246D01*
X157393713Y-96775500D01*
X157393714Y-96775500D01*
X157606286Y-96775500D01*
X157606287Y-96775500D01*
X157816243Y-96742246D01*
X158018412Y-96676557D01*
X158207816Y-96580051D01*
X158270237Y-96534700D01*
X158379786Y-96455109D01*
X158379788Y-96455106D01*
X158379792Y-96455104D01*
X158530104Y-96304792D01*
X158530106Y-96304788D01*
X158530109Y-96304786D01*
X158655048Y-96132820D01*
X158655050Y-96132817D01*
X158655051Y-96132816D01*
X158751557Y-95943412D01*
X158817246Y-95741243D01*
X158850500Y-95531287D01*
X158850500Y-95018713D01*
X158850500Y-95018712D01*
X158850118Y-95013862D01*
X158851191Y-95013777D01*
X158859482Y-94949608D01*
X158904476Y-94896155D01*
X158971227Y-94875513D01*
X158973002Y-94875500D01*
X161601652Y-94875500D01*
X161668691Y-94895185D01*
G37*
%TD.AperFunction*%
%TA.AperFunction,Conductor*%
G36*
X145766942Y-45620185D02*
G01*
X145787584Y-45636819D01*
X147363181Y-47212416D01*
X147396666Y-47273739D01*
X147399500Y-47300097D01*
X147399500Y-47913330D01*
X147399499Y-47913348D01*
X147399499Y-48079054D01*
X147399498Y-48079054D01*
X147438939Y-48226250D01*
X147440423Y-48231785D01*
X147457002Y-48260500D01*
X147517920Y-48366014D01*
X147519479Y-48368714D01*
X147519481Y-48368717D01*
X147638349Y-48487585D01*
X147638355Y-48487590D01*
X149515139Y-50364374D01*
X149515149Y-50364385D01*
X149519479Y-50368715D01*
X149519480Y-50368716D01*
X149631284Y-50480520D01*
X149718095Y-50530639D01*
X149718097Y-50530641D01*
X149756151Y-50552611D01*
X149768215Y-50559577D01*
X149920943Y-50600500D01*
X152199903Y-50600500D01*
X152266942Y-50620185D01*
X152287584Y-50636819D01*
X184015139Y-82364374D01*
X184015149Y-82364385D01*
X184019479Y-82368715D01*
X184019480Y-82368716D01*
X184131284Y-82480520D01*
X184218095Y-82530639D01*
X184218097Y-82530641D01*
X184256151Y-82552611D01*
X184268215Y-82559577D01*
X184420943Y-82600501D01*
X184420946Y-82600501D01*
X184586653Y-82600501D01*
X184586669Y-82600500D01*
X194199903Y-82600500D01*
X194266942Y-82620185D01*
X194287584Y-82636819D01*
X200863181Y-89212416D01*
X200896666Y-89273739D01*
X200899500Y-89300097D01*
X200899500Y-93851214D01*
X200879815Y-93918253D01*
X200827011Y-93964008D01*
X200757853Y-93973952D01*
X200743411Y-93970990D01*
X200616557Y-93936999D01*
X200458443Y-93936999D01*
X200450847Y-93936999D01*
X200450831Y-93937000D01*
X199398348Y-93937000D01*
X199331309Y-93917315D01*
X199292809Y-93878097D01*
X199289939Y-93873444D01*
X199217712Y-93756344D01*
X199093656Y-93632288D01*
X198944334Y-93540186D01*
X198777797Y-93485001D01*
X198777795Y-93485000D01*
X198675010Y-93474500D01*
X197324998Y-93474500D01*
X197324981Y-93474501D01*
X197222203Y-93485000D01*
X197222200Y-93485001D01*
X197055668Y-93540185D01*
X197055663Y-93540187D01*
X196906342Y-93632289D01*
X196782289Y-93756342D01*
X196690187Y-93905663D01*
X196690185Y-93905668D01*
X196676323Y-93947501D01*
X196635001Y-94072203D01*
X196635001Y-94072204D01*
X196635000Y-94072204D01*
X196624500Y-94174983D01*
X196624500Y-94900001D01*
X196624501Y-94900019D01*
X196635000Y-95002796D01*
X196635001Y-95002799D01*
X196690185Y-95169331D01*
X196690187Y-95169336D01*
X196713721Y-95207490D01*
X196782288Y-95318656D01*
X196906344Y-95442712D01*
X197055666Y-95534814D01*
X197222203Y-95589999D01*
X197324991Y-95600500D01*
X198675008Y-95600499D01*
X198777797Y-95589999D01*
X198944334Y-95534814D01*
X199093656Y-95442712D01*
X199217712Y-95318656D01*
X199292809Y-95196902D01*
X199344757Y-95150179D01*
X199398348Y-95138000D01*
X200237403Y-95138000D01*
X200304442Y-95157685D01*
X200325083Y-95174318D01*
X200631284Y-95480520D01*
X200631286Y-95480521D01*
X200631290Y-95480524D01*
X200748212Y-95548028D01*
X200768216Y-95559577D01*
X200920943Y-95600501D01*
X200920945Y-95600501D01*
X200929002Y-95601562D01*
X200928810Y-95603018D01*
X200987275Y-95620186D01*
X200989127Y-95621399D01*
X201120814Y-95709390D01*
X201120827Y-95709397D01*
X201266498Y-95769735D01*
X201266503Y-95769737D01*
X201421153Y-95800499D01*
X201421156Y-95800500D01*
X201421158Y-95800500D01*
X201578844Y-95800500D01*
X201578845Y-95800499D01*
X201733497Y-95769737D01*
X201879179Y-95709394D01*
X202010289Y-95621789D01*
X202121789Y-95510289D01*
X202166944Y-95442710D01*
X202172398Y-95434548D01*
X202226010Y-95389743D01*
X202295335Y-95381036D01*
X202358363Y-95411190D01*
X202395082Y-95470634D01*
X202399500Y-95503439D01*
X202399500Y-105026000D01*
X202379815Y-105093039D01*
X202327011Y-105138794D01*
X202275500Y-105150000D01*
X187474862Y-105150000D01*
X187407823Y-105130315D01*
X187387181Y-105113681D01*
X185936819Y-103663319D01*
X185903334Y-103601996D01*
X185900500Y-103575638D01*
X185900500Y-96790638D01*
X185920185Y-96723599D01*
X185959401Y-96685100D01*
X186068656Y-96617712D01*
X186192712Y-96493656D01*
X186284814Y-96344334D01*
X186284814Y-96344331D01*
X186288178Y-96338879D01*
X186340126Y-96292154D01*
X186409088Y-96280931D01*
X186473170Y-96308774D01*
X186481398Y-96316294D01*
X186620213Y-96455109D01*
X186792179Y-96580048D01*
X186792181Y-96580049D01*
X186792184Y-96580051D01*
X186981588Y-96676557D01*
X187183757Y-96742246D01*
X187393713Y-96775500D01*
X187393714Y-96775500D01*
X187606286Y-96775500D01*
X187606287Y-96775500D01*
X187816243Y-96742246D01*
X188018412Y-96676557D01*
X188207816Y-96580051D01*
X188270237Y-96534700D01*
X188379786Y-96455109D01*
X188379788Y-96455106D01*
X188379792Y-96455104D01*
X188530104Y-96304792D01*
X188530106Y-96304788D01*
X188530109Y-96304786D01*
X188655048Y-96132820D01*
X188655050Y-96132817D01*
X188655051Y-96132816D01*
X188751557Y-95943412D01*
X188817246Y-95741243D01*
X188850500Y-95531287D01*
X188850500Y-95018713D01*
X188850500Y-95018712D01*
X188850118Y-95013862D01*
X188851191Y-95013777D01*
X188859482Y-94949608D01*
X188904476Y-94896155D01*
X188971227Y-94875513D01*
X188973002Y-94875500D01*
X191601652Y-94875500D01*
X191668691Y-94895185D01*
X191707189Y-94934401D01*
X191782288Y-95056156D01*
X191906344Y-95180212D01*
X192055666Y-95272314D01*
X192222203Y-95327499D01*
X192324991Y-95338000D01*
X193675008Y-95337999D01*
X193777797Y-95327499D01*
X193944334Y-95272314D01*
X194093656Y-95180212D01*
X194217712Y-95056156D01*
X194309814Y-94906834D01*
X194364999Y-94740297D01*
X194375500Y-94637509D01*
X194375499Y-93912492D01*
X194374801Y-93905663D01*
X194364999Y-93809703D01*
X194364998Y-93809700D01*
X194359954Y-93794479D01*
X194309814Y-93643166D01*
X194217712Y-93493844D01*
X194093656Y-93369788D01*
X194000888Y-93312569D01*
X193944336Y-93277687D01*
X193944331Y-93277685D01*
X193942862Y-93277198D01*
X193777797Y-93222501D01*
X193777795Y-93222500D01*
X193675010Y-93212000D01*
X192324998Y-93212000D01*
X192324981Y-93212001D01*
X192222203Y-93222500D01*
X192222200Y-93222501D01*
X192055668Y-93277685D01*
X192055663Y-93277687D01*
X191906342Y-93369789D01*
X191782289Y-93493842D01*
X191707191Y-93615597D01*
X191655243Y-93662321D01*
X191601652Y-93674500D01*
X188586670Y-93674500D01*
X188586654Y-93674499D01*
X188579058Y-93674499D01*
X188420943Y-93674499D01*
X188344579Y-93694961D01*
X188268214Y-93715423D01*
X188268209Y-93715426D01*
X188131283Y-93794479D01*
X188131282Y-93794479D01*
X188097733Y-93828028D01*
X188036409Y-93861512D01*
X187971737Y-93858276D01*
X187816244Y-93807754D01*
X187816240Y-93807753D01*
X187654957Y-93782208D01*
X187606287Y-93774500D01*
X187393713Y-93774500D01*
X187345042Y-93782208D01*
X187183760Y-93807753D01*
X187183757Y-93807754D01*
X187007878Y-93864901D01*
X186981585Y-93873444D01*
X186792179Y-93969951D01*
X186620215Y-94094889D01*
X186481398Y-94233706D01*
X186420075Y-94267190D01*
X186350383Y-94262206D01*
X186294450Y-94220334D01*
X186288178Y-94211120D01*
X186192712Y-94056344D01*
X186068657Y-93932289D01*
X186068656Y-93932288D01*
X185948663Y-93858276D01*
X185919336Y-93840187D01*
X185919331Y-93840185D01*
X185900500Y-93833945D01*
X185752797Y-93785001D01*
X185752795Y-93785000D01*
X185650010Y-93774500D01*
X184349998Y-93774500D01*
X184349981Y-93774501D01*
X184247203Y-93785000D01*
X184247200Y-93785001D01*
X184080668Y-93840185D01*
X184080663Y-93840187D01*
X183931342Y-93932289D01*
X183807289Y-94056342D01*
X183715187Y-94205663D01*
X183715185Y-94205668D01*
X183687405Y-94289504D01*
X183647632Y-94346949D01*
X183583116Y-94373772D01*
X183569699Y-94374500D01*
X181699361Y-94374500D01*
X181632322Y-94354815D01*
X181611680Y-94338181D01*
X180574041Y-93300540D01*
X180574040Y-93300539D01*
X180569049Y-93297204D01*
X180514959Y-93261063D01*
X180426547Y-93201987D01*
X180344606Y-93168046D01*
X180307765Y-93152786D01*
X180262666Y-93134105D01*
X180262658Y-93134103D01*
X180088696Y-93099500D01*
X180088692Y-93099500D01*
X180088691Y-93099500D01*
X176805047Y-93099500D01*
X176738008Y-93079815D01*
X176717366Y-93063181D01*
X176662213Y-93008028D01*
X176496613Y-92887715D01*
X176496612Y-92887714D01*
X176496610Y-92887713D01*
X176439653Y-92858691D01*
X176314223Y-92794781D01*
X176119534Y-92731522D01*
X175944995Y-92703878D01*
X175917352Y-92699500D01*
X175712648Y-92699500D01*
X175645254Y-92710174D01*
X175510464Y-92731523D01*
X175510461Y-92731523D01*
X175315783Y-92794778D01*
X175232090Y-92837421D01*
X175163421Y-92850316D01*
X175098681Y-92824039D01*
X175088116Y-92814616D01*
X173574035Y-91300535D01*
X173574030Y-91300531D01*
X173519622Y-91264178D01*
X173519616Y-91264175D01*
X173514959Y-91261063D01*
X173426547Y-91201987D01*
X173344606Y-91168046D01*
X173262666Y-91134105D01*
X173262658Y-91134103D01*
X173088696Y-91099500D01*
X173088692Y-91099500D01*
X173088691Y-91099500D01*
X166224500Y-91099500D01*
X166157461Y-91079815D01*
X166111706Y-91027011D01*
X166100500Y-90975500D01*
X166100500Y-82800096D01*
X166120185Y-82733057D01*
X166136814Y-82712420D01*
X167358506Y-81490727D01*
X167358511Y-81490724D01*
X167368714Y-81480520D01*
X167368716Y-81480520D01*
X167480520Y-81368716D01*
X167559577Y-81231784D01*
X167600500Y-81079057D01*
X167600500Y-70089059D01*
X167600501Y-70089046D01*
X167600501Y-69920945D01*
X167600501Y-69920943D01*
X167559577Y-69768215D01*
X167530639Y-69718095D01*
X167480520Y-69631284D01*
X167368716Y-69519480D01*
X167368715Y-69519479D01*
X167364385Y-69515149D01*
X167364374Y-69515139D01*
X145386818Y-47537583D01*
X145353333Y-47476260D01*
X145350499Y-47449902D01*
X145350499Y-46199998D01*
X145350498Y-46199981D01*
X145339999Y-46097203D01*
X145339998Y-46097200D01*
X145316200Y-46025382D01*
X145284814Y-45930666D01*
X145257385Y-45886197D01*
X145197802Y-45789596D01*
X145179362Y-45722204D01*
X145200285Y-45655541D01*
X145253927Y-45610771D01*
X145303341Y-45600500D01*
X145699903Y-45600500D01*
X145766942Y-45620185D01*
G37*
%TD.AperFunction*%
%TA.AperFunction,Conductor*%
G36*
X228442539Y-36520185D02*
G01*
X228488294Y-36572989D01*
X228499500Y-36624500D01*
X228499500Y-134375500D01*
X228479815Y-134442539D01*
X228427011Y-134488294D01*
X228375500Y-134499500D01*
X97624500Y-134499500D01*
X97557461Y-134479815D01*
X97511706Y-134427011D01*
X97500500Y-134375500D01*
X97500500Y-129862332D01*
X99899500Y-129862332D01*
X99899500Y-130137667D01*
X99899501Y-130137684D01*
X99935438Y-130410655D01*
X99935439Y-130410660D01*
X99935440Y-130410666D01*
X99935441Y-130410668D01*
X100006704Y-130676630D01*
X100112075Y-130931017D01*
X100112080Y-130931028D01*
X100191809Y-131069121D01*
X100249751Y-131169479D01*
X100249753Y-131169482D01*
X100249754Y-131169483D01*
X100417370Y-131387926D01*
X100417376Y-131387933D01*
X100612066Y-131582623D01*
X100612072Y-131582628D01*
X100830521Y-131750249D01*
X100983778Y-131838732D01*
X101068971Y-131887919D01*
X101068976Y-131887921D01*
X101068979Y-131887923D01*
X101323368Y-131993295D01*
X101589334Y-132064560D01*
X101862326Y-132100500D01*
X101862333Y-132100500D01*
X102137667Y-132100500D01*
X102137674Y-132100500D01*
X102410666Y-132064560D01*
X102676632Y-131993295D01*
X102931021Y-131887923D01*
X103169479Y-131750249D01*
X103387928Y-131582628D01*
X103582628Y-131387928D01*
X103750249Y-131169479D01*
X103887923Y-130931021D01*
X103993295Y-130676632D01*
X104064560Y-130410666D01*
X104100500Y-130137674D01*
X104100500Y-129862326D01*
X104064560Y-129589334D01*
X103993295Y-129323368D01*
X103887923Y-129068979D01*
X103887921Y-129068976D01*
X103887919Y-129068971D01*
X103838732Y-128983778D01*
X103750249Y-128830521D01*
X103582628Y-128612072D01*
X103582623Y-128612066D01*
X103387933Y-128417376D01*
X103387926Y-128417370D01*
X103169483Y-128249754D01*
X103169482Y-128249753D01*
X103169479Y-128249751D01*
X103045828Y-128178361D01*
X102931028Y-128112080D01*
X102931017Y-128112075D01*
X102676630Y-128006704D01*
X102500127Y-127959411D01*
X102410666Y-127935440D01*
X102410660Y-127935439D01*
X102410655Y-127935438D01*
X102137684Y-127899501D01*
X102137679Y-127899500D01*
X102137674Y-127899500D01*
X101862326Y-127899500D01*
X101862320Y-127899500D01*
X101862315Y-127899501D01*
X101589344Y-127935438D01*
X101589337Y-127935439D01*
X101589334Y-127935440D01*
X101542347Y-127948030D01*
X101323369Y-128006704D01*
X101068982Y-128112075D01*
X101068971Y-128112080D01*
X100830516Y-128249754D01*
X100612073Y-128417370D01*
X100612066Y-128417376D01*
X100417376Y-128612066D01*
X100417370Y-128612073D01*
X100249754Y-128830516D01*
X100112080Y-129068971D01*
X100112075Y-129068982D01*
X100006704Y-129323369D01*
X99935441Y-129589331D01*
X99935438Y-129589344D01*
X99899501Y-129862315D01*
X99899500Y-129862332D01*
X97500500Y-129862332D01*
X97500500Y-113862332D01*
X99899500Y-113862332D01*
X99899500Y-114137667D01*
X99899501Y-114137684D01*
X99935438Y-114410655D01*
X99935439Y-114410660D01*
X99935440Y-114410666D01*
X99956050Y-114487585D01*
X100006704Y-114676630D01*
X100112075Y-114931017D01*
X100112080Y-114931028D01*
X100170000Y-115031347D01*
X100249751Y-115169479D01*
X100249753Y-115169482D01*
X100249754Y-115169483D01*
X100417370Y-115387926D01*
X100417376Y-115387933D01*
X100612066Y-115582623D01*
X100612073Y-115582629D01*
X100740403Y-115681099D01*
X100830521Y-115750249D01*
X100983778Y-115838732D01*
X101068971Y-115887919D01*
X101068976Y-115887921D01*
X101068979Y-115887923D01*
X101323368Y-115993295D01*
X101589334Y-116064560D01*
X101862326Y-116100500D01*
X101862333Y-116100500D01*
X102137667Y-116100500D01*
X102137674Y-116100500D01*
X102410666Y-116064560D01*
X102676632Y-115993295D01*
X102931021Y-115887923D01*
X103169479Y-115750249D01*
X103387928Y-115582628D01*
X103582628Y-115387928D01*
X103750249Y-115169479D01*
X103887923Y-114931021D01*
X103993295Y-114676632D01*
X104064560Y-114410666D01*
X104100500Y-114137674D01*
X104100500Y-113862326D01*
X104064560Y-113589334D01*
X103993295Y-113323368D01*
X103887923Y-113068979D01*
X103887921Y-113068976D01*
X103887919Y-113068971D01*
X103823742Y-112957815D01*
X103750249Y-112830521D01*
X103602793Y-112638352D01*
X103582629Y-112612073D01*
X103582623Y-112612066D01*
X103387933Y-112417376D01*
X103387926Y-112417370D01*
X103169483Y-112249754D01*
X103169482Y-112249753D01*
X103169479Y-112249751D01*
X103065123Y-112189501D01*
X102931028Y-112112080D01*
X102931017Y-112112075D01*
X102676630Y-112006704D01*
X102543649Y-111971072D01*
X102410666Y-111935440D01*
X102410660Y-111935439D01*
X102410655Y-111935438D01*
X102137684Y-111899501D01*
X102137679Y-111899500D01*
X102137674Y-111899500D01*
X101862326Y-111899500D01*
X101862320Y-111899500D01*
X101862315Y-111899501D01*
X101589344Y-111935438D01*
X101589337Y-111935439D01*
X101589334Y-111935440D01*
X101533125Y-111950500D01*
X101323369Y-112006704D01*
X101068982Y-112112075D01*
X101068971Y-112112080D01*
X100830516Y-112249754D01*
X100612073Y-112417370D01*
X100612066Y-112417376D01*
X100417376Y-112612066D01*
X100417370Y-112612073D01*
X100249754Y-112830516D01*
X100112080Y-113068971D01*
X100112075Y-113068982D01*
X100006704Y-113323369D01*
X99935441Y-113589331D01*
X99935438Y-113589344D01*
X99899501Y-113862315D01*
X99899500Y-113862332D01*
X97500500Y-113862332D01*
X97500500Y-79954038D01*
X104399500Y-79954038D01*
X104399500Y-80205961D01*
X104438910Y-80454785D01*
X104516760Y-80694383D01*
X104564249Y-80787584D01*
X104628901Y-80914471D01*
X104631132Y-80918848D01*
X104779201Y-81122649D01*
X104779205Y-81122654D01*
X104957345Y-81300794D01*
X104957350Y-81300798D01*
X105093201Y-81399499D01*
X105161155Y-81448870D01*
X105299725Y-81519475D01*
X105385616Y-81563239D01*
X105385618Y-81563239D01*
X105385621Y-81563241D01*
X105625215Y-81641090D01*
X105874038Y-81680500D01*
X105874039Y-81680500D01*
X106125961Y-81680500D01*
X106125962Y-81680500D01*
X106374785Y-81641090D01*
X106614379Y-81563241D01*
X106838845Y-81448870D01*
X107042656Y-81300793D01*
X107220793Y-81122656D01*
X107286939Y-81031613D01*
X107342267Y-80988949D01*
X107387256Y-80980500D01*
X121008693Y-80980500D01*
X121008694Y-80980499D01*
X121182666Y-80945895D01*
X121264606Y-80911953D01*
X121346547Y-80878013D01*
X121434959Y-80818936D01*
X121494036Y-80779464D01*
X126336681Y-75936819D01*
X126398004Y-75903334D01*
X126424362Y-75900500D01*
X128373557Y-75900500D01*
X128440596Y-75920185D01*
X128461238Y-75936819D01*
X128843333Y-76318915D01*
X128843338Y-76318919D01*
X128843339Y-76318920D01*
X128934363Y-76388765D01*
X129025388Y-76458611D01*
X129124750Y-76515977D01*
X129128266Y-76518007D01*
X129128269Y-76518009D01*
X129130817Y-76519480D01*
X129224112Y-76573345D01*
X129363991Y-76631284D01*
X129436113Y-76661158D01*
X129474781Y-76671519D01*
X129657761Y-76720549D01*
X129828389Y-76743012D01*
X129885265Y-76750500D01*
X129885266Y-76750500D01*
X162114727Y-76750500D01*
X162114734Y-76750500D01*
X162342238Y-76720548D01*
X162563887Y-76661158D01*
X162775888Y-76573344D01*
X162974612Y-76458611D01*
X163156661Y-76318919D01*
X163156665Y-76318914D01*
X163156670Y-76318911D01*
X163318911Y-76156670D01*
X163318914Y-76156665D01*
X163318919Y-76156661D01*
X163458611Y-75974612D01*
X163573344Y-75775888D01*
X163661158Y-75563887D01*
X163720548Y-75342238D01*
X163750500Y-75114734D01*
X163750500Y-74885266D01*
X163720548Y-74657762D01*
X163661158Y-74436113D01*
X163573344Y-74224112D01*
X163458611Y-74025388D01*
X163367910Y-73907185D01*
X163342717Y-73842018D01*
X163356755Y-73773573D01*
X163367016Y-73757394D01*
X163443796Y-73654831D01*
X163494091Y-73519983D01*
X163500500Y-73460373D01*
X163500499Y-71459628D01*
X163494091Y-71400017D01*
X163480176Y-71362710D01*
X163443797Y-71265171D01*
X163443793Y-71265164D01*
X163357547Y-71149955D01*
X163357544Y-71149952D01*
X163242335Y-71063706D01*
X163242328Y-71063702D01*
X163107482Y-71013408D01*
X163107483Y-71013408D01*
X163047883Y-71007001D01*
X163047881Y-71007000D01*
X163047873Y-71007000D01*
X163047864Y-71007000D01*
X160952129Y-71007000D01*
X160952123Y-71007001D01*
X160892516Y-71013408D01*
X160757671Y-71063702D01*
X160757664Y-71063706D01*
X160642455Y-71149952D01*
X160642452Y-71149955D01*
X160556206Y-71265164D01*
X160556202Y-71265171D01*
X160505908Y-71400017D01*
X160500017Y-71454814D01*
X160499501Y-71459623D01*
X160499500Y-71459635D01*
X160499500Y-71735500D01*
X160479815Y-71802539D01*
X160427011Y-71848294D01*
X160375500Y-71859500D01*
X133624499Y-71859500D01*
X133557460Y-71839815D01*
X133511705Y-71787011D01*
X133500499Y-71735500D01*
X133500499Y-71459629D01*
X133500498Y-71459623D01*
X133500497Y-71459616D01*
X133494091Y-71400017D01*
X133480176Y-71362710D01*
X133443797Y-71265171D01*
X133443793Y-71265164D01*
X133357547Y-71149955D01*
X133357544Y-71149952D01*
X133242335Y-71063706D01*
X133242328Y-71063702D01*
X133107482Y-71013408D01*
X133107483Y-71013408D01*
X133047883Y-71007001D01*
X133047881Y-71007000D01*
X133047873Y-71007000D01*
X133047864Y-71007000D01*
X130952129Y-71007000D01*
X130952123Y-71007001D01*
X130892516Y-71013408D01*
X130757671Y-71063702D01*
X130757664Y-71063706D01*
X130642455Y-71149952D01*
X130642452Y-71149955D01*
X130556206Y-71265164D01*
X130556202Y-71265171D01*
X130505908Y-71400017D01*
X130500017Y-71454814D01*
X130499501Y-71459623D01*
X130499500Y-71459635D01*
X130499500Y-72724557D01*
X130479815Y-72791596D01*
X130427011Y-72837351D01*
X130357853Y-72847295D01*
X130294297Y-72818270D01*
X130287819Y-72812238D01*
X128786819Y-71311238D01*
X128753334Y-71249915D01*
X128750500Y-71223557D01*
X128750500Y-62776443D01*
X128770185Y-62709404D01*
X128786819Y-62688762D01*
X135398913Y-56076668D01*
X135398920Y-56076661D01*
X135468765Y-55985636D01*
X135538611Y-55894612D01*
X135653344Y-55695888D01*
X135741158Y-55483887D01*
X135800548Y-55262238D01*
X135830500Y-55034734D01*
X135830500Y-48002269D01*
X135847113Y-47940269D01*
X135878043Y-47886697D01*
X135978398Y-47644419D01*
X136046270Y-47391116D01*
X136080500Y-47131120D01*
X136080500Y-46868880D01*
X136046270Y-46608884D01*
X135978398Y-46355581D01*
X135968459Y-46331585D01*
X135878046Y-46113309D01*
X135878041Y-46113299D01*
X135746924Y-45886196D01*
X135619358Y-45719951D01*
X135587282Y-45678149D01*
X135587281Y-45678148D01*
X135587274Y-45678140D01*
X135401860Y-45492726D01*
X135401851Y-45492718D01*
X135193803Y-45333075D01*
X134966700Y-45201958D01*
X134966690Y-45201953D01*
X134724428Y-45101605D01*
X134724421Y-45101603D01*
X134724419Y-45101602D01*
X134471116Y-45033730D01*
X134413339Y-45026123D01*
X134211127Y-44999500D01*
X134211120Y-44999500D01*
X133948880Y-44999500D01*
X133948872Y-44999500D01*
X133717772Y-45029926D01*
X133688884Y-45033730D01*
X133560449Y-45068144D01*
X133435581Y-45101602D01*
X133435571Y-45101605D01*
X133193309Y-45201953D01*
X133193299Y-45201958D01*
X132966196Y-45333075D01*
X132758148Y-45492718D01*
X132572718Y-45678148D01*
X132413075Y-45886196D01*
X132281958Y-46113299D01*
X132281953Y-46113309D01*
X132181605Y-46355571D01*
X132181602Y-46355581D01*
X132118969Y-46589334D01*
X132113730Y-46608885D01*
X132079500Y-46868872D01*
X132079500Y-47131127D01*
X132098476Y-47275255D01*
X132113730Y-47391116D01*
X132143244Y-47501264D01*
X132181602Y-47644418D01*
X132181605Y-47644428D01*
X132281953Y-47886690D01*
X132281957Y-47886697D01*
X132311275Y-47937478D01*
X132312887Y-47940269D01*
X132329500Y-48002269D01*
X132329500Y-54143556D01*
X132309815Y-54210595D01*
X132293181Y-54231237D01*
X125681084Y-60843333D01*
X125681078Y-60843340D01*
X125611235Y-60934363D01*
X125579670Y-60975499D01*
X125541385Y-61025392D01*
X125426657Y-61224108D01*
X125426650Y-61224123D01*
X125338842Y-61436112D01*
X125279453Y-61657759D01*
X125279451Y-61657770D01*
X125249500Y-61885258D01*
X125249500Y-72114741D01*
X125274446Y-72304215D01*
X125279452Y-72342238D01*
X125279453Y-72342240D01*
X125338842Y-72563887D01*
X125426650Y-72775876D01*
X125426657Y-72775891D01*
X125535238Y-72963958D01*
X125541389Y-72974612D01*
X125589099Y-73036788D01*
X125681078Y-73156659D01*
X125681084Y-73156666D01*
X126412238Y-73887819D01*
X126445723Y-73949142D01*
X126440739Y-74018833D01*
X126398867Y-74074767D01*
X126333403Y-74099184D01*
X126324557Y-74099500D01*
X125911303Y-74099500D01*
X125737341Y-74134103D01*
X125737333Y-74134105D01*
X125573455Y-74201985D01*
X125573446Y-74201990D01*
X125425964Y-74300535D01*
X125425960Y-74300538D01*
X120583319Y-79143181D01*
X120521996Y-79176666D01*
X120495638Y-79179500D01*
X107387256Y-79179500D01*
X107320217Y-79159815D01*
X107286939Y-79128387D01*
X107220793Y-79037344D01*
X107042656Y-78859207D01*
X107042654Y-78859205D01*
X107042649Y-78859201D01*
X106838848Y-78711132D01*
X106838847Y-78711131D01*
X106838845Y-78711130D01*
X106768747Y-78675413D01*
X106614383Y-78596760D01*
X106374785Y-78518910D01*
X106125962Y-78479500D01*
X105874038Y-78479500D01*
X105749626Y-78499205D01*
X105625214Y-78518910D01*
X105385616Y-78596760D01*
X105161151Y-78711132D01*
X104957350Y-78859201D01*
X104957345Y-78859205D01*
X104779205Y-79037345D01*
X104779201Y-79037350D01*
X104631132Y-79241151D01*
X104516760Y-79465616D01*
X104438910Y-79705214D01*
X104399500Y-79954038D01*
X97500500Y-79954038D01*
X97500500Y-69019982D01*
X104399500Y-69019982D01*
X104399500Y-70820017D01*
X104410000Y-70922796D01*
X104456692Y-71063702D01*
X104465186Y-71089335D01*
X104557288Y-71238656D01*
X104681344Y-71362712D01*
X104830665Y-71454814D01*
X104997202Y-71509999D01*
X105099990Y-71520500D01*
X105099995Y-71520500D01*
X106900005Y-71520500D01*
X106900010Y-71520500D01*
X107002798Y-71509999D01*
X107169335Y-71454814D01*
X107318656Y-71362712D01*
X107442712Y-71238656D01*
X107534814Y-71089335D01*
X107589999Y-70922798D01*
X107600500Y-70820010D01*
X107600500Y-69019990D01*
X107589999Y-68917202D01*
X107534814Y-68750665D01*
X107442712Y-68601344D01*
X107318656Y-68477288D01*
X107169335Y-68385186D01*
X107169332Y-68385185D01*
X107002793Y-68329999D01*
X106998535Y-68329088D01*
X106937104Y-68295802D01*
X106903420Y-68234588D01*
X106900500Y-68207837D01*
X106900500Y-63424362D01*
X106920185Y-63357323D01*
X106936819Y-63336681D01*
X111336681Y-58936819D01*
X111398004Y-58903334D01*
X111424362Y-58900500D01*
X123088693Y-58900500D01*
X123088694Y-58900499D01*
X123262666Y-58865895D01*
X123344606Y-58831953D01*
X123426547Y-58798013D01*
X123516720Y-58737761D01*
X123574036Y-58699464D01*
X129699463Y-52574036D01*
X129699464Y-52574035D01*
X129798013Y-52426547D01*
X129865894Y-52262666D01*
X129900500Y-52088691D01*
X129900500Y-49124499D01*
X129920185Y-49057460D01*
X129972989Y-49011705D01*
X130024500Y-49000499D01*
X130547871Y-49000499D01*
X130547872Y-49000499D01*
X130607483Y-48994091D01*
X130742331Y-48943796D01*
X130857546Y-48857546D01*
X130943796Y-48742331D01*
X130994091Y-48607483D01*
X131000500Y-48547873D01*
X131000499Y-45452128D01*
X130994091Y-45392517D01*
X130989857Y-45381166D01*
X130943797Y-45257671D01*
X130943793Y-45257664D01*
X130857548Y-45142457D01*
X130857546Y-45142454D01*
X130842625Y-45131284D01*
X130800188Y-45099515D01*
X130797451Y-45095859D01*
X130793297Y-45093962D01*
X130776705Y-45068144D01*
X130758318Y-45043581D01*
X130757302Y-45037953D01*
X130755523Y-45035184D01*
X130750500Y-45000249D01*
X130750500Y-44776443D01*
X130770185Y-44709404D01*
X130786819Y-44688762D01*
X131688762Y-43786819D01*
X131750085Y-43753334D01*
X131776443Y-43750500D01*
X157575500Y-43750500D01*
X157642539Y-43770185D01*
X157688294Y-43822989D01*
X157699500Y-43874500D01*
X157699500Y-45125500D01*
X157679815Y-45192539D01*
X157627011Y-45238294D01*
X157575500Y-45249500D01*
X153385258Y-45249500D01*
X153168715Y-45278009D01*
X153157762Y-45279452D01*
X153079209Y-45300500D01*
X152936112Y-45338842D01*
X152724123Y-45426650D01*
X152724109Y-45426657D01*
X152525382Y-45541392D01*
X152343338Y-45681081D01*
X152181081Y-45843338D01*
X152041392Y-46025382D01*
X151926657Y-46224109D01*
X151926650Y-46224123D01*
X151838842Y-46436112D01*
X151779453Y-46657759D01*
X151779451Y-46657770D01*
X151749500Y-46885258D01*
X151749500Y-47114741D01*
X151766018Y-47240198D01*
X151779452Y-47342238D01*
X151831794Y-47537583D01*
X151838842Y-47563887D01*
X151926650Y-47775876D01*
X151926657Y-47775890D01*
X151959523Y-47832816D01*
X152016219Y-47931017D01*
X152041392Y-47974617D01*
X152181081Y-48156661D01*
X152181089Y-48156670D01*
X152343330Y-48318911D01*
X152343338Y-48318918D01*
X152343339Y-48318919D01*
X152393962Y-48357764D01*
X152525382Y-48458607D01*
X152525385Y-48458608D01*
X152525388Y-48458611D01*
X152724112Y-48573344D01*
X152724117Y-48573346D01*
X152724123Y-48573349D01*
X152815480Y-48611190D01*
X152936113Y-48661158D01*
X153157762Y-48720548D01*
X153385266Y-48750500D01*
X158133891Y-48750500D01*
X158200930Y-48770185D01*
X158236992Y-48805608D01*
X158311865Y-48917663D01*
X158345811Y-48968467D01*
X158345821Y-48968481D01*
X158551546Y-49219158D01*
X158780841Y-49448453D01*
X158780846Y-49448457D01*
X158780847Y-49448458D01*
X159031524Y-49654183D01*
X159301158Y-49834347D01*
X159301167Y-49834352D01*
X159301169Y-49834353D01*
X159587145Y-49987211D01*
X159587147Y-49987211D01*
X159587153Y-49987215D01*
X159886754Y-50111314D01*
X160197077Y-50205449D01*
X160197083Y-50205450D01*
X160197086Y-50205451D01*
X160197097Y-50205454D01*
X160396528Y-50245122D01*
X160515132Y-50268714D01*
X160837857Y-50300500D01*
X160837860Y-50300500D01*
X161162140Y-50300500D01*
X161162143Y-50300500D01*
X161484868Y-50268714D01*
X161642295Y-50237399D01*
X161802902Y-50205454D01*
X161802913Y-50205451D01*
X161802913Y-50205450D01*
X161802923Y-50205449D01*
X162113246Y-50111314D01*
X162412847Y-49987215D01*
X162698842Y-49834347D01*
X162968476Y-49654183D01*
X163219153Y-49448458D01*
X163448458Y-49219153D01*
X163654183Y-48968476D01*
X163834347Y-48698842D01*
X163987215Y-48412847D01*
X164090939Y-48162434D01*
X164134780Y-48108032D01*
X164201074Y-48085967D01*
X164268774Y-48103246D01*
X164316384Y-48154384D01*
X164329500Y-48209888D01*
X164329500Y-59194741D01*
X164354446Y-59384215D01*
X164359452Y-59422238D01*
X164359453Y-59422240D01*
X164418842Y-59643887D01*
X164506650Y-59855876D01*
X164506657Y-59855891D01*
X164615238Y-60043958D01*
X164621389Y-60054612D01*
X164691235Y-60145636D01*
X164761082Y-60236663D01*
X164761086Y-60236668D01*
X180843333Y-76318915D01*
X180843338Y-76318919D01*
X180843339Y-76318920D01*
X180934363Y-76388765D01*
X181025383Y-76458607D01*
X181025392Y-76458614D01*
X181224108Y-76573342D01*
X181224123Y-76573349D01*
X181315480Y-76611190D01*
X181436113Y-76661158D01*
X181474781Y-76671519D01*
X181657761Y-76720549D01*
X181778539Y-76736448D01*
X181885266Y-76750500D01*
X181885272Y-76750500D01*
X192114727Y-76750500D01*
X192114734Y-76750500D01*
X192342238Y-76720548D01*
X192563887Y-76661158D01*
X192775888Y-76573344D01*
X192974612Y-76458611D01*
X193156661Y-76318919D01*
X193156665Y-76318914D01*
X193156670Y-76318911D01*
X193318911Y-76156670D01*
X193318914Y-76156665D01*
X193318919Y-76156661D01*
X193458611Y-75974612D01*
X193573344Y-75775888D01*
X193661158Y-75563887D01*
X193720548Y-75342238D01*
X193750500Y-75114734D01*
X193750500Y-74885266D01*
X193720548Y-74657762D01*
X193661158Y-74436113D01*
X193573344Y-74224112D01*
X193458611Y-74025388D01*
X193367910Y-73907185D01*
X193342717Y-73842018D01*
X193356755Y-73773573D01*
X193367016Y-73757394D01*
X193443796Y-73654831D01*
X193494091Y-73519983D01*
X193500500Y-73460373D01*
X193500499Y-71459628D01*
X193494091Y-71400017D01*
X193480176Y-71362710D01*
X193443797Y-71265171D01*
X193443793Y-71265164D01*
X193357547Y-71149955D01*
X193357544Y-71149952D01*
X193242335Y-71063706D01*
X193242328Y-71063702D01*
X193107482Y-71013408D01*
X193107483Y-71013408D01*
X193047883Y-71007001D01*
X193047881Y-71007000D01*
X193047873Y-71007000D01*
X193047864Y-71007000D01*
X190952129Y-71007000D01*
X190952123Y-71007001D01*
X190892516Y-71013408D01*
X190757671Y-71063702D01*
X190757664Y-71063706D01*
X190642455Y-71149952D01*
X190642452Y-71149955D01*
X190556206Y-71265164D01*
X190556202Y-71265171D01*
X190505908Y-71400017D01*
X190500017Y-71454814D01*
X190499500Y-71459627D01*
X190499500Y-72342240D01*
X190499501Y-73125500D01*
X190479816Y-73192539D01*
X190427013Y-73238294D01*
X190375501Y-73249500D01*
X182776443Y-73249500D01*
X182709404Y-73229815D01*
X182688762Y-73213181D01*
X167866819Y-58391238D01*
X167833334Y-58329915D01*
X167830500Y-58303557D01*
X167830500Y-48002269D01*
X167847113Y-47940269D01*
X167878043Y-47886697D01*
X167978398Y-47644419D01*
X168046270Y-47391116D01*
X168080500Y-47131120D01*
X168080500Y-46868880D01*
X168046270Y-46608884D01*
X167978398Y-46355581D01*
X167968459Y-46331585D01*
X167878046Y-46113309D01*
X167878041Y-46113299D01*
X167746924Y-45886196D01*
X167619358Y-45719951D01*
X167587282Y-45678149D01*
X167587281Y-45678148D01*
X167587274Y-45678140D01*
X167421315Y-45512181D01*
X167387830Y-45450858D01*
X167392814Y-45381166D01*
X167434686Y-45325233D01*
X167500150Y-45300816D01*
X167508996Y-45300500D01*
X172615657Y-45300500D01*
X172682696Y-45320185D01*
X172728451Y-45372989D01*
X172738395Y-45442147D01*
X172709370Y-45505703D01*
X172653975Y-45542430D01*
X172507000Y-45590186D01*
X172481585Y-45598444D01*
X172292179Y-45694951D01*
X172120213Y-45819890D01*
X171969890Y-45970213D01*
X171844951Y-46142179D01*
X171748444Y-46331585D01*
X171682753Y-46533760D01*
X171649500Y-46743713D01*
X171649500Y-47256286D01*
X171680165Y-47449902D01*
X171682754Y-47466243D01*
X171740647Y-47644419D01*
X171748444Y-47668414D01*
X171844951Y-47857820D01*
X171969890Y-48029786D01*
X172120213Y-48180109D01*
X172292179Y-48305048D01*
X172292181Y-48305049D01*
X172292184Y-48305051D01*
X172481588Y-48401557D01*
X172683757Y-48467246D01*
X172893713Y-48500500D01*
X172893714Y-48500500D01*
X173106286Y-48500500D01*
X173106287Y-48500500D01*
X173316243Y-48467246D01*
X173518412Y-48401557D01*
X173707816Y-48305051D01*
X173808659Y-48231785D01*
X173879784Y-48180110D01*
X173879784Y-48180109D01*
X173879792Y-48180104D01*
X174018604Y-48041291D01*
X174079923Y-48007809D01*
X174149615Y-48012793D01*
X174205549Y-48054664D01*
X174211821Y-48063878D01*
X174215185Y-48069333D01*
X174215186Y-48069334D01*
X174307288Y-48218656D01*
X174431344Y-48342712D01*
X174580666Y-48434814D01*
X174747203Y-48489999D01*
X174788103Y-48494177D01*
X174852793Y-48520573D01*
X174892945Y-48577753D01*
X174899500Y-48617535D01*
X174899500Y-49413330D01*
X174899499Y-49413348D01*
X174899499Y-49579054D01*
X174899498Y-49579054D01*
X174940424Y-49731789D01*
X174940425Y-49731790D01*
X174961455Y-49768214D01*
X174961456Y-49768216D01*
X175019475Y-49868709D01*
X175019481Y-49868717D01*
X175138349Y-49987585D01*
X175138355Y-49987590D01*
X202363181Y-77212416D01*
X202396666Y-77273739D01*
X202399500Y-77300097D01*
X202399500Y-94496560D01*
X202389960Y-94529048D01*
X202380996Y-94561726D01*
X202380138Y-94562495D01*
X202379815Y-94563599D01*
X202354243Y-94585756D01*
X202329017Y-94608417D01*
X202327879Y-94608601D01*
X202327011Y-94609354D01*
X202293488Y-94614174D01*
X202260047Y-94619593D01*
X202258992Y-94619134D01*
X202257853Y-94619298D01*
X202227035Y-94605224D01*
X202195983Y-94591708D01*
X202194970Y-94590580D01*
X202194297Y-94590273D01*
X202172398Y-94565451D01*
X202121398Y-94489125D01*
X202100520Y-94422448D01*
X202100500Y-94420234D01*
X202100500Y-89089059D01*
X202100501Y-89089046D01*
X202100501Y-88920945D01*
X202100501Y-88920943D01*
X202059577Y-88768215D01*
X202030639Y-88718095D01*
X201980520Y-88631284D01*
X201868716Y-88519480D01*
X201868715Y-88519479D01*
X201864385Y-88515149D01*
X201864374Y-88515139D01*
X194987590Y-81638355D01*
X194987588Y-81638352D01*
X194868717Y-81519481D01*
X194868709Y-81519475D01*
X194746416Y-81448870D01*
X194746413Y-81448869D01*
X194731785Y-81440423D01*
X194579057Y-81399499D01*
X194420943Y-81399499D01*
X194413347Y-81399499D01*
X194413331Y-81399500D01*
X184800097Y-81399500D01*
X184733058Y-81379815D01*
X184712416Y-81363181D01*
X152987590Y-49638355D01*
X152987588Y-49638352D01*
X152868717Y-49519481D01*
X152868716Y-49519480D01*
X152781904Y-49469360D01*
X152781904Y-49469359D01*
X152781900Y-49469358D01*
X152731785Y-49440423D01*
X152579057Y-49399499D01*
X152420943Y-49399499D01*
X152413347Y-49399499D01*
X152413331Y-49399500D01*
X150300097Y-49399500D01*
X150233058Y-49379815D01*
X150212416Y-49363181D01*
X148636819Y-47787584D01*
X148603334Y-47726261D01*
X148600500Y-47699903D01*
X148600500Y-46920945D01*
X148600500Y-46920943D01*
X148559577Y-46768216D01*
X148559577Y-46768215D01*
X148524907Y-46708165D01*
X148480520Y-46631284D01*
X148368716Y-46519480D01*
X148368715Y-46519479D01*
X148364385Y-46515149D01*
X148364374Y-46515139D01*
X146487590Y-44638355D01*
X146487588Y-44638352D01*
X146368717Y-44519481D01*
X146368716Y-44519480D01*
X146281904Y-44469360D01*
X146281904Y-44469359D01*
X146281900Y-44469358D01*
X146231785Y-44440423D01*
X146079057Y-44399499D01*
X145920943Y-44399499D01*
X145913347Y-44399499D01*
X145913331Y-44399500D01*
X142086670Y-44399500D01*
X142086654Y-44399499D01*
X142079058Y-44399499D01*
X141920943Y-44399499D01*
X141844579Y-44419961D01*
X141768214Y-44440423D01*
X141768209Y-44440426D01*
X141631290Y-44519475D01*
X141631282Y-44519481D01*
X141124217Y-45026546D01*
X141124214Y-45026548D01*
X141124215Y-45026549D01*
X141019477Y-45131287D01*
X141013029Y-45142457D01*
X141004829Y-45156661D01*
X140978677Y-45201958D01*
X140951082Y-45249754D01*
X140940423Y-45268215D01*
X140899499Y-45420943D01*
X140899499Y-45420945D01*
X140899499Y-45564281D01*
X140879814Y-45631320D01*
X140831796Y-45674765D01*
X140792180Y-45694950D01*
X140620213Y-45819890D01*
X140469890Y-45970213D01*
X140344951Y-46142179D01*
X140248444Y-46331585D01*
X140182753Y-46533760D01*
X140149500Y-46743713D01*
X140149500Y-47256286D01*
X140180165Y-47449902D01*
X140182754Y-47466243D01*
X140240647Y-47644419D01*
X140248444Y-47668414D01*
X140344951Y-47857820D01*
X140469890Y-48029786D01*
X140620213Y-48180109D01*
X140792179Y-48305048D01*
X140792181Y-48305049D01*
X140792184Y-48305051D01*
X140981588Y-48401557D01*
X141183757Y-48467246D01*
X141393713Y-48500500D01*
X141393714Y-48500500D01*
X141606286Y-48500500D01*
X141606287Y-48500500D01*
X141816243Y-48467246D01*
X142018412Y-48401557D01*
X142207816Y-48305051D01*
X142308659Y-48231785D01*
X142379784Y-48180110D01*
X142379784Y-48180109D01*
X142379792Y-48180104D01*
X142518604Y-48041291D01*
X142579923Y-48007809D01*
X142649615Y-48012793D01*
X142705549Y-48054664D01*
X142711821Y-48063878D01*
X142715185Y-48069333D01*
X142715186Y-48069334D01*
X142807288Y-48218656D01*
X142931344Y-48342712D01*
X143080666Y-48434814D01*
X143247203Y-48489999D01*
X143349991Y-48500500D01*
X144599902Y-48500499D01*
X144666941Y-48520184D01*
X144687583Y-48536818D01*
X166363181Y-70212416D01*
X166396666Y-70273739D01*
X166399500Y-70300097D01*
X166399500Y-80699903D01*
X166379815Y-80766942D01*
X166363181Y-80787584D01*
X165287584Y-81863181D01*
X165226261Y-81896666D01*
X165199903Y-81899500D01*
X154079766Y-81899500D01*
X154012727Y-81879815D01*
X154010875Y-81878602D01*
X153879185Y-81790609D01*
X153879172Y-81790602D01*
X153733501Y-81730264D01*
X153733489Y-81730261D01*
X153578845Y-81699500D01*
X153578842Y-81699500D01*
X153421158Y-81699500D01*
X153421155Y-81699500D01*
X153266510Y-81730261D01*
X153266498Y-81730264D01*
X153120827Y-81790602D01*
X153120814Y-81790609D01*
X152989711Y-81878210D01*
X152989707Y-81878213D01*
X152878213Y-81989707D01*
X152878210Y-81989711D01*
X152790609Y-82120814D01*
X152790602Y-82120827D01*
X152730264Y-82266498D01*
X152730261Y-82266510D01*
X152699500Y-82421153D01*
X152699500Y-82578846D01*
X152730261Y-82733489D01*
X152730264Y-82733501D01*
X152790602Y-82879172D01*
X152790609Y-82879185D01*
X152878210Y-83010288D01*
X152878213Y-83010292D01*
X152989707Y-83121786D01*
X152989711Y-83121789D01*
X153120814Y-83209390D01*
X153120827Y-83209397D01*
X153266498Y-83269735D01*
X153266503Y-83269737D01*
X153421153Y-83300499D01*
X153421156Y-83300500D01*
X153421158Y-83300500D01*
X153578844Y-83300500D01*
X153578845Y-83300499D01*
X153733497Y-83269737D01*
X153879179Y-83209394D01*
X153933663Y-83172989D01*
X154010875Y-83121398D01*
X154077553Y-83100520D01*
X154079766Y-83100500D01*
X164775500Y-83100500D01*
X164842539Y-83120185D01*
X164888294Y-83172989D01*
X164899500Y-83224500D01*
X164899500Y-90975500D01*
X164879815Y-91042539D01*
X164827011Y-91088294D01*
X164775500Y-91099500D01*
X125911304Y-91099500D01*
X125737339Y-91134103D01*
X125737323Y-91134108D01*
X125621453Y-91182102D01*
X125621454Y-91182103D01*
X125573454Y-91201986D01*
X125425965Y-91300535D01*
X125425961Y-91300538D01*
X124300538Y-92425960D01*
X124300537Y-92425961D01*
X124264084Y-92480519D01*
X124264083Y-92480520D01*
X124201990Y-92573447D01*
X124201985Y-92573456D01*
X124168046Y-92655393D01*
X124134107Y-92737327D01*
X124134105Y-92737333D01*
X124134105Y-92737334D01*
X124101650Y-92900500D01*
X124099607Y-92910771D01*
X124099500Y-92911310D01*
X124099500Y-93759362D01*
X124079815Y-93826401D01*
X124040598Y-93864899D01*
X124008192Y-93884888D01*
X123931342Y-93932289D01*
X123807289Y-94056342D01*
X123715187Y-94205663D01*
X123715185Y-94205668D01*
X123687405Y-94289504D01*
X123647632Y-94346949D01*
X123583116Y-94373772D01*
X123569699Y-94374500D01*
X118636306Y-94374500D01*
X118462341Y-94409103D01*
X118462332Y-94409106D01*
X118298459Y-94476983D01*
X118298452Y-94476987D01*
X118240115Y-94515967D01*
X118153210Y-94574036D01*
X118153206Y-94574038D01*
X118150965Y-94575536D01*
X118150955Y-94575544D01*
X111800538Y-100925960D01*
X111800537Y-100925961D01*
X111764084Y-100980519D01*
X111764083Y-100980520D01*
X111701990Y-101073447D01*
X111701985Y-101073456D01*
X111668046Y-101155393D01*
X111634106Y-101237329D01*
X111634103Y-101237341D01*
X111599500Y-101411303D01*
X111599500Y-119709362D01*
X111579815Y-119776401D01*
X111540598Y-119814899D01*
X111526746Y-119823444D01*
X111431342Y-119882289D01*
X111307289Y-120006342D01*
X111215187Y-120155663D01*
X111215185Y-120155668D01*
X111208782Y-120174991D01*
X111160001Y-120322203D01*
X111160001Y-120322204D01*
X111160000Y-120322204D01*
X111149500Y-120424983D01*
X111149500Y-121975001D01*
X111149501Y-121975018D01*
X111160000Y-122077796D01*
X111160001Y-122077799D01*
X111205894Y-122216294D01*
X111215186Y-122244334D01*
X111307288Y-122393656D01*
X111431344Y-122517712D01*
X111580666Y-122609814D01*
X111747203Y-122664999D01*
X111849991Y-122675500D01*
X113150008Y-122675499D01*
X113252797Y-122664999D01*
X113419334Y-122609814D01*
X113568656Y-122517712D01*
X113692712Y-122393656D01*
X113784814Y-122244334D01*
X113784814Y-122244331D01*
X113788178Y-122238879D01*
X113840126Y-122192154D01*
X113909088Y-122180931D01*
X113973170Y-122208774D01*
X113981398Y-122216294D01*
X114120213Y-122355109D01*
X114292179Y-122480048D01*
X114292181Y-122480049D01*
X114292184Y-122480051D01*
X114481588Y-122576557D01*
X114683757Y-122642246D01*
X114893713Y-122675500D01*
X114893714Y-122675500D01*
X115106286Y-122675500D01*
X115106287Y-122675500D01*
X115316243Y-122642246D01*
X115518412Y-122576557D01*
X115707816Y-122480051D01*
X115729789Y-122464086D01*
X115879786Y-122355109D01*
X115879788Y-122355106D01*
X115879792Y-122355104D01*
X116030104Y-122204792D01*
X116149683Y-122040204D01*
X116205011Y-121997540D01*
X116274624Y-121991561D01*
X116336420Y-122024166D01*
X116350313Y-122040199D01*
X116452560Y-122180931D01*
X116469896Y-122204792D01*
X116620213Y-122355109D01*
X116792179Y-122480048D01*
X116792181Y-122480049D01*
X116792184Y-122480051D01*
X116981588Y-122576557D01*
X117183757Y-122642246D01*
X117393713Y-122675500D01*
X117393714Y-122675500D01*
X117606286Y-122675500D01*
X117606287Y-122675500D01*
X117816243Y-122642246D01*
X118018412Y-122576557D01*
X118207816Y-122480051D01*
X118229789Y-122464086D01*
X118379786Y-122355109D01*
X118379788Y-122355106D01*
X118379792Y-122355104D01*
X118530104Y-122204792D01*
X118530106Y-122204788D01*
X118530109Y-122204786D01*
X118655048Y-122032820D01*
X118655047Y-122032820D01*
X118655051Y-122032816D01*
X118751557Y-121843412D01*
X118817246Y-121641243D01*
X118850500Y-121431287D01*
X118850500Y-120968713D01*
X118817246Y-120758757D01*
X118751557Y-120556588D01*
X118655051Y-120367184D01*
X118655049Y-120367181D01*
X118655048Y-120367179D01*
X118530109Y-120195213D01*
X118379786Y-120044890D01*
X118207820Y-119919951D01*
X118018414Y-119823444D01*
X118018413Y-119823443D01*
X118018412Y-119823443D01*
X117816243Y-119757754D01*
X117816241Y-119757753D01*
X117816240Y-119757753D01*
X117654957Y-119732208D01*
X117606287Y-119724500D01*
X117393713Y-119724500D01*
X117345042Y-119732208D01*
X117183760Y-119757753D01*
X117183757Y-119757754D01*
X117007878Y-119814901D01*
X116981585Y-119823444D01*
X116792179Y-119919951D01*
X116620213Y-120044890D01*
X116469894Y-120195209D01*
X116469890Y-120195214D01*
X116350318Y-120359793D01*
X116294989Y-120402459D01*
X116225375Y-120408438D01*
X116163580Y-120375833D01*
X116149682Y-120359793D01*
X116030109Y-120195214D01*
X116030105Y-120195209D01*
X115879786Y-120044890D01*
X115707820Y-119919951D01*
X115518414Y-119823444D01*
X115518413Y-119823443D01*
X115518412Y-119823443D01*
X115316243Y-119757754D01*
X115316241Y-119757753D01*
X115316240Y-119757753D01*
X115154957Y-119732208D01*
X115106287Y-119724500D01*
X114893713Y-119724500D01*
X114845042Y-119732208D01*
X114683760Y-119757753D01*
X114683757Y-119757754D01*
X114507878Y-119814901D01*
X114481585Y-119823444D01*
X114292179Y-119919951D01*
X114120215Y-120044889D01*
X113981398Y-120183706D01*
X113920075Y-120217190D01*
X113850383Y-120212206D01*
X113794450Y-120170334D01*
X113788178Y-120161120D01*
X113692712Y-120006344D01*
X113568657Y-119882289D01*
X113568656Y-119882288D01*
X113459402Y-119814900D01*
X113412679Y-119762953D01*
X113400500Y-119709362D01*
X113400500Y-113724500D01*
X113420185Y-113657461D01*
X113472989Y-113611706D01*
X113524500Y-113600500D01*
X131699903Y-113600500D01*
X131766942Y-113620185D01*
X131787584Y-113636819D01*
X134083698Y-115932933D01*
X134117183Y-115994256D01*
X134112199Y-116063948D01*
X134070327Y-116119881D01*
X134068902Y-116120932D01*
X133962787Y-116198028D01*
X133962782Y-116198032D01*
X133818028Y-116342786D01*
X133697715Y-116508386D01*
X133604781Y-116690776D01*
X133541522Y-116885465D01*
X133509500Y-117087648D01*
X133509500Y-117292351D01*
X133541522Y-117494534D01*
X133604781Y-117689223D01*
X133697715Y-117871613D01*
X133818028Y-118037213D01*
X133962786Y-118181971D01*
X134117749Y-118294556D01*
X134128390Y-118302287D01*
X134244607Y-118361503D01*
X134310776Y-118395218D01*
X134310778Y-118395218D01*
X134310781Y-118395220D01*
X134415137Y-118429127D01*
X134505465Y-118458477D01*
X134606557Y-118474488D01*
X134707648Y-118490500D01*
X134707649Y-118490500D01*
X134912351Y-118490500D01*
X134912352Y-118490500D01*
X135114534Y-118458477D01*
X135309219Y-118395220D01*
X135491610Y-118302287D01*
X135584590Y-118234732D01*
X135657213Y-118181971D01*
X135657215Y-118181968D01*
X135657219Y-118181966D01*
X135801966Y-118037219D01*
X135801968Y-118037215D01*
X135801971Y-118037213D01*
X135854732Y-117964590D01*
X135922287Y-117871610D01*
X136015220Y-117689219D01*
X136078477Y-117494534D01*
X136110500Y-117292352D01*
X136110500Y-117087648D01*
X136078477Y-116885466D01*
X136015220Y-116690781D01*
X136015218Y-116690778D01*
X136015218Y-116690776D01*
X135948368Y-116559577D01*
X135922287Y-116508390D01*
X135914556Y-116497749D01*
X135801971Y-116342786D01*
X135657213Y-116198028D01*
X135491610Y-116077712D01*
X135478200Y-116070879D01*
X135427406Y-116022903D01*
X135410500Y-115960397D01*
X135410500Y-115730945D01*
X135410500Y-115730943D01*
X135383797Y-115631284D01*
X135369577Y-115578215D01*
X135335666Y-115519480D01*
X135290520Y-115441284D01*
X135178716Y-115329480D01*
X135178715Y-115329479D01*
X135174385Y-115325149D01*
X135174374Y-115325139D01*
X132487590Y-112638355D01*
X132487588Y-112638352D01*
X132368717Y-112519481D01*
X132368716Y-112519480D01*
X132281904Y-112469360D01*
X132281904Y-112469359D01*
X132281900Y-112469358D01*
X132231785Y-112440423D01*
X132079057Y-112399499D01*
X131920943Y-112399499D01*
X131913347Y-112399499D01*
X131913331Y-112399500D01*
X113524500Y-112399500D01*
X113457461Y-112379815D01*
X113411706Y-112327011D01*
X113400500Y-112275500D01*
X113400500Y-101924361D01*
X113420185Y-101857322D01*
X113436819Y-101836680D01*
X119061680Y-96211819D01*
X119123003Y-96178334D01*
X119149361Y-96175500D01*
X123569699Y-96175500D01*
X123636738Y-96195185D01*
X123682493Y-96247989D01*
X123687403Y-96260492D01*
X123713378Y-96338879D01*
X123715185Y-96344331D01*
X123715187Y-96344336D01*
X123729887Y-96368168D01*
X123807288Y-96493656D01*
X123931344Y-96617712D01*
X124080666Y-96709814D01*
X124247203Y-96764999D01*
X124349991Y-96775500D01*
X125650008Y-96775499D01*
X125752797Y-96764999D01*
X125919334Y-96709814D01*
X126068656Y-96617712D01*
X126192712Y-96493656D01*
X126284814Y-96344334D01*
X126284814Y-96344331D01*
X126288178Y-96338879D01*
X126340126Y-96292154D01*
X126409088Y-96280931D01*
X126473170Y-96308774D01*
X126481398Y-96316294D01*
X126620213Y-96455109D01*
X126792179Y-96580048D01*
X126792181Y-96580049D01*
X126792184Y-96580051D01*
X126981588Y-96676557D01*
X127183757Y-96742246D01*
X127393713Y-96775500D01*
X127393714Y-96775500D01*
X127606286Y-96775500D01*
X127606287Y-96775500D01*
X127816243Y-96742246D01*
X128018412Y-96676557D01*
X128207816Y-96580051D01*
X128270237Y-96534700D01*
X128379786Y-96455109D01*
X128379788Y-96455106D01*
X128379792Y-96455104D01*
X128530104Y-96304792D01*
X128530106Y-96304788D01*
X128530109Y-96304786D01*
X128597652Y-96211819D01*
X128655051Y-96132816D01*
X128713448Y-96018205D01*
X128761423Y-95967409D01*
X128823933Y-95950500D01*
X131601652Y-95950500D01*
X131668691Y-95970185D01*
X131707189Y-96009401D01*
X131782288Y-96131156D01*
X131906344Y-96255212D01*
X132055666Y-96347314D01*
X132222203Y-96402499D01*
X132324991Y-96413000D01*
X133675008Y-96412999D01*
X133777797Y-96402499D01*
X133944334Y-96347314D01*
X134093656Y-96255212D01*
X134217712Y-96131156D01*
X134309814Y-95981834D01*
X134364999Y-95815297D01*
X134375500Y-95712509D01*
X134375499Y-94987492D01*
X134371798Y-94951265D01*
X134364999Y-94884703D01*
X134364998Y-94884700D01*
X134346127Y-94827751D01*
X134309814Y-94718166D01*
X134217712Y-94568844D01*
X134093656Y-94444788D01*
X133975976Y-94372203D01*
X133944336Y-94352687D01*
X133944331Y-94352685D01*
X133927021Y-94346949D01*
X133777797Y-94297501D01*
X133777795Y-94297500D01*
X133675010Y-94287000D01*
X132324998Y-94287000D01*
X132324981Y-94287001D01*
X132222203Y-94297500D01*
X132222200Y-94297501D01*
X132055668Y-94352685D01*
X132055663Y-94352687D01*
X131906342Y-94444789D01*
X131782289Y-94568842D01*
X131768881Y-94590580D01*
X131715571Y-94677011D01*
X131707191Y-94690597D01*
X131655243Y-94737321D01*
X131601652Y-94749500D01*
X128888083Y-94749500D01*
X128821044Y-94729815D01*
X128775289Y-94677011D01*
X128770152Y-94663818D01*
X128761605Y-94637513D01*
X128751557Y-94606588D01*
X128655051Y-94417184D01*
X128655049Y-94417181D01*
X128655048Y-94417179D01*
X128530109Y-94245213D01*
X128379786Y-94094890D01*
X128207820Y-93969951D01*
X128018414Y-93873444D01*
X128018413Y-93873443D01*
X128018412Y-93873443D01*
X127816243Y-93807754D01*
X127816241Y-93807753D01*
X127816240Y-93807753D01*
X127654957Y-93782208D01*
X127606287Y-93774500D01*
X127393713Y-93774500D01*
X127345042Y-93782208D01*
X127183760Y-93807753D01*
X127183757Y-93807754D01*
X127007878Y-93864901D01*
X126981585Y-93873444D01*
X126792179Y-93969951D01*
X126620215Y-94094889D01*
X126481398Y-94233706D01*
X126420075Y-94267190D01*
X126350383Y-94262206D01*
X126294450Y-94220334D01*
X126288178Y-94211120D01*
X126192712Y-94056344D01*
X126068657Y-93932289D01*
X126068656Y-93932288D01*
X125959402Y-93864900D01*
X125912679Y-93812953D01*
X125900500Y-93759362D01*
X125900500Y-93424361D01*
X125920185Y-93357322D01*
X125936819Y-93336680D01*
X126336680Y-92936819D01*
X126398003Y-92903334D01*
X126424361Y-92900500D01*
X136879979Y-92900500D01*
X136947018Y-92920185D01*
X136992773Y-92972989D01*
X137002717Y-93042147D01*
X136985518Y-93089594D01*
X136979409Y-93099500D01*
X136960187Y-93130663D01*
X136960185Y-93130668D01*
X136933235Y-93212000D01*
X136905001Y-93297203D01*
X136905001Y-93297204D01*
X136905000Y-93297204D01*
X136894500Y-93399983D01*
X136894500Y-94204901D01*
X136874815Y-94271940D01*
X136858181Y-94292582D01*
X134634516Y-96516247D01*
X134634509Y-96516254D01*
X134631286Y-96519478D01*
X134631284Y-96519480D01*
X134519480Y-96631284D01*
X134493342Y-96676557D01*
X134440423Y-96768215D01*
X134399499Y-96920943D01*
X134399499Y-96920945D01*
X134399499Y-97089046D01*
X134399500Y-97089059D01*
X134399500Y-103913330D01*
X134399499Y-103913348D01*
X134399499Y-104079054D01*
X134399498Y-104079054D01*
X134440423Y-104231785D01*
X134469358Y-104281900D01*
X134469359Y-104281904D01*
X134469360Y-104281904D01*
X134519479Y-104368714D01*
X134519481Y-104368717D01*
X134638349Y-104487585D01*
X134638355Y-104487590D01*
X149338584Y-119187819D01*
X149372069Y-119249142D01*
X149367085Y-119318834D01*
X149325213Y-119374767D01*
X149259749Y-119399184D01*
X149250903Y-119399500D01*
X141086670Y-119399500D01*
X141086654Y-119399499D01*
X141079058Y-119399499D01*
X140920943Y-119399499D01*
X140768215Y-119440423D01*
X140691004Y-119485001D01*
X140631281Y-119519482D01*
X138517584Y-121633181D01*
X138456261Y-121666666D01*
X138429903Y-121669500D01*
X136039602Y-121669500D01*
X135972563Y-121649815D01*
X135929117Y-121601795D01*
X135928456Y-121600498D01*
X135922287Y-121588390D01*
X135922285Y-121588387D01*
X135922284Y-121588385D01*
X135801971Y-121422786D01*
X135657213Y-121278028D01*
X135491613Y-121157715D01*
X135491612Y-121157714D01*
X135491610Y-121157713D01*
X135434653Y-121128691D01*
X135309223Y-121064781D01*
X135114534Y-121001522D01*
X134939995Y-120973878D01*
X134912352Y-120969500D01*
X134707648Y-120969500D01*
X134683329Y-120973351D01*
X134505465Y-121001522D01*
X134310776Y-121064781D01*
X134128386Y-121157715D01*
X133962786Y-121278028D01*
X133818028Y-121422786D01*
X133697715Y-121588386D01*
X133604781Y-121770776D01*
X133541522Y-121965465D01*
X133509500Y-122167648D01*
X133509500Y-122372351D01*
X133541522Y-122574534D01*
X133604781Y-122769223D01*
X133697715Y-122951613D01*
X133818028Y-123117213D01*
X133962786Y-123261971D01*
X134117749Y-123374556D01*
X134128390Y-123382287D01*
X134219840Y-123428883D01*
X134221080Y-123429515D01*
X134271876Y-123477490D01*
X134288671Y-123545311D01*
X134266134Y-123611446D01*
X134221080Y-123650485D01*
X134128386Y-123697715D01*
X133962786Y-123818028D01*
X133818028Y-123962786D01*
X133697715Y-124128386D01*
X133604781Y-124310776D01*
X133541522Y-124505465D01*
X133518710Y-124649499D01*
X133509500Y-124707648D01*
X133509500Y-124912352D01*
X133510339Y-124917649D01*
X133541522Y-125114534D01*
X133604781Y-125309223D01*
X133697715Y-125491613D01*
X133818028Y-125657213D01*
X133962786Y-125801971D01*
X134117749Y-125914556D01*
X134128390Y-125922287D01*
X134197586Y-125957544D01*
X134310776Y-126015218D01*
X134310778Y-126015218D01*
X134310781Y-126015220D01*
X134398720Y-126043793D01*
X134505465Y-126078477D01*
X134604047Y-126094091D01*
X134707648Y-126110500D01*
X134707649Y-126110500D01*
X134912351Y-126110500D01*
X134912352Y-126110500D01*
X135114534Y-126078477D01*
X135309219Y-126015220D01*
X135491610Y-125922287D01*
X135584590Y-125854732D01*
X135657213Y-125801971D01*
X135657215Y-125801968D01*
X135657219Y-125801966D01*
X135801966Y-125657219D01*
X135801968Y-125657215D01*
X135801971Y-125657213D01*
X135922284Y-125491614D01*
X135922285Y-125491613D01*
X135922287Y-125491610D01*
X135929117Y-125478204D01*
X135977091Y-125427409D01*
X136039602Y-125410500D01*
X139103331Y-125410500D01*
X139103347Y-125410501D01*
X139110943Y-125410501D01*
X139269054Y-125410501D01*
X139269057Y-125410501D01*
X139421785Y-125369577D01*
X139501691Y-125323443D01*
X139558716Y-125290520D01*
X139670520Y-125178716D01*
X139670520Y-125178714D01*
X139680724Y-125168511D01*
X139680727Y-125168506D01*
X141297099Y-123552135D01*
X143499500Y-123552135D01*
X143499500Y-125647870D01*
X143499501Y-125647876D01*
X143505908Y-125707483D01*
X143556202Y-125842328D01*
X143556206Y-125842335D01*
X143642452Y-125957544D01*
X143642455Y-125957547D01*
X143757664Y-126043793D01*
X143757671Y-126043797D01*
X143892517Y-126094091D01*
X143892516Y-126094091D01*
X143899444Y-126094835D01*
X143952127Y-126100500D01*
X146047872Y-126100499D01*
X146107483Y-126094091D01*
X146242331Y-126043796D01*
X146357546Y-125957546D01*
X146443796Y-125842331D01*
X146494091Y-125707483D01*
X146500500Y-125647873D01*
X146500500Y-125324500D01*
X146520185Y-125257461D01*
X146572989Y-125211706D01*
X146624500Y-125200500D01*
X153634813Y-125200500D01*
X153701852Y-125220185D01*
X153747607Y-125272989D01*
X153757551Y-125342147D01*
X153745298Y-125380795D01*
X153655838Y-125556366D01*
X153655837Y-125556369D01*
X153589489Y-125760571D01*
X153555900Y-125972643D01*
X153555900Y-126187356D01*
X153589489Y-126399428D01*
X153655837Y-126603630D01*
X153655838Y-126603633D01*
X153753317Y-126794944D01*
X153879523Y-126968651D01*
X154031349Y-127120477D01*
X154205056Y-127246683D01*
X154396367Y-127344161D01*
X154412938Y-127349545D01*
X154470615Y-127388981D01*
X154497814Y-127453339D01*
X154485902Y-127522186D01*
X154438659Y-127573663D01*
X154430919Y-127577961D01*
X154317004Y-127636004D01*
X154170505Y-127742441D01*
X154170500Y-127742445D01*
X154042445Y-127870500D01*
X154042441Y-127870505D01*
X153936006Y-128017002D01*
X153853788Y-128178360D01*
X153853787Y-128178363D01*
X153797829Y-128350589D01*
X153769500Y-128529448D01*
X153769500Y-128710551D01*
X153797829Y-128889410D01*
X153853787Y-129061636D01*
X153853788Y-129061639D01*
X153936006Y-129222997D01*
X154042441Y-129369494D01*
X154042445Y-129369499D01*
X154170500Y-129497554D01*
X154170505Y-129497558D01*
X154282932Y-129579240D01*
X154317006Y-129603996D01*
X154422484Y-129657740D01*
X154478360Y-129686211D01*
X154478363Y-129686212D01*
X154564476Y-129714191D01*
X154650591Y-129742171D01*
X154733429Y-129755291D01*
X154829449Y-129770500D01*
X154829454Y-129770500D01*
X155010551Y-129770500D01*
X155097259Y-129756765D01*
X155189409Y-129742171D01*
X155361639Y-129686211D01*
X155522994Y-129603996D01*
X155669501Y-129497553D01*
X155797553Y-129369501D01*
X155903996Y-129222994D01*
X155962039Y-129109078D01*
X156010011Y-129058285D01*
X156077832Y-129041490D01*
X156143967Y-129064027D01*
X156187419Y-129118742D01*
X156190453Y-129127057D01*
X156195839Y-129143633D01*
X156195838Y-129143633D01*
X156279652Y-129308125D01*
X156293317Y-129334944D01*
X156419523Y-129508651D01*
X156571349Y-129660477D01*
X156745056Y-129786683D01*
X156838888Y-129834492D01*
X156936366Y-129884161D01*
X156936369Y-129884162D01*
X157027384Y-129913734D01*
X157140573Y-129950511D01*
X157352643Y-129984100D01*
X157352644Y-129984100D01*
X157567356Y-129984100D01*
X157567357Y-129984100D01*
X157779427Y-129950511D01*
X157983633Y-129884161D01*
X158174944Y-129786683D01*
X158348651Y-129660477D01*
X158500477Y-129508651D01*
X158626683Y-129334944D01*
X158626683Y-129334943D01*
X158629547Y-129331002D01*
X158631478Y-129332405D01*
X158675927Y-129292078D01*
X158744840Y-129280558D01*
X158809042Y-129308125D01*
X158829478Y-129331709D01*
X158830453Y-129331002D01*
X158833316Y-129334943D01*
X158833317Y-129334944D01*
X158959523Y-129508651D01*
X159111349Y-129660477D01*
X159285056Y-129786683D01*
X159378888Y-129834492D01*
X159476366Y-129884161D01*
X159476369Y-129884162D01*
X159567384Y-129913734D01*
X159680573Y-129950511D01*
X159892643Y-129984100D01*
X159892644Y-129984100D01*
X160107356Y-129984100D01*
X160107357Y-129984100D01*
X160319427Y-129950511D01*
X160523633Y-129884161D01*
X160714944Y-129786683D01*
X160888651Y-129660477D01*
X161040477Y-129508651D01*
X161166683Y-129334944D01*
X161166683Y-129334943D01*
X161169547Y-129331002D01*
X161171478Y-129332405D01*
X161215927Y-129292078D01*
X161284840Y-129280558D01*
X161349042Y-129308125D01*
X161369478Y-129331709D01*
X161370453Y-129331002D01*
X161373316Y-129334943D01*
X161373317Y-129334944D01*
X161499523Y-129508651D01*
X161651349Y-129660477D01*
X161825056Y-129786683D01*
X161918888Y-129834492D01*
X162016366Y-129884161D01*
X162016369Y-129884162D01*
X162107384Y-129913734D01*
X162220573Y-129950511D01*
X162432643Y-129984100D01*
X162432644Y-129984100D01*
X162647356Y-129984100D01*
X162647357Y-129984100D01*
X162859427Y-129950511D01*
X163063633Y-129884161D01*
X163254944Y-129786683D01*
X163428651Y-129660477D01*
X163580477Y-129508651D01*
X163706683Y-129334944D01*
X163804161Y-129143633D01*
X163870511Y-128939427D01*
X163904100Y-128727357D01*
X163904100Y-128512643D01*
X163870511Y-128300573D01*
X163837123Y-128197815D01*
X163804162Y-128096369D01*
X163804161Y-128096366D01*
X163720266Y-127931715D01*
X163706683Y-127905056D01*
X163580477Y-127731349D01*
X163428651Y-127579523D01*
X163254944Y-127453317D01*
X163208203Y-127429501D01*
X163063633Y-127355838D01*
X163063630Y-127355837D01*
X162859428Y-127289489D01*
X162753392Y-127272694D01*
X162647357Y-127255900D01*
X162432643Y-127255900D01*
X162361953Y-127267096D01*
X162220571Y-127289489D01*
X162016369Y-127355837D01*
X162016366Y-127355838D01*
X161825055Y-127453317D01*
X161730266Y-127522186D01*
X161651349Y-127579523D01*
X161651347Y-127579525D01*
X161651346Y-127579525D01*
X161499525Y-127731346D01*
X161499525Y-127731347D01*
X161499523Y-127731349D01*
X161398420Y-127870505D01*
X161370453Y-127908998D01*
X161368562Y-127907624D01*
X161323848Y-127948030D01*
X161254911Y-127959411D01*
X161190765Y-127931715D01*
X161170488Y-127908314D01*
X161169547Y-127908998D01*
X161141580Y-127870505D01*
X161040477Y-127731349D01*
X160888651Y-127579523D01*
X160714944Y-127453317D01*
X160668203Y-127429501D01*
X160523633Y-127355838D01*
X160523630Y-127355837D01*
X160319428Y-127289489D01*
X160213392Y-127272694D01*
X160107357Y-127255900D01*
X159892643Y-127255900D01*
X159821953Y-127267096D01*
X159680571Y-127289489D01*
X159476369Y-127355837D01*
X159476366Y-127355838D01*
X159285055Y-127453317D01*
X159190266Y-127522186D01*
X159111349Y-127579523D01*
X159111347Y-127579525D01*
X159111346Y-127579525D01*
X158959525Y-127731346D01*
X158959525Y-127731347D01*
X158959523Y-127731349D01*
X158858420Y-127870505D01*
X158830453Y-127908998D01*
X158828562Y-127907624D01*
X158783848Y-127948030D01*
X158714911Y-127959411D01*
X158650765Y-127931715D01*
X158630488Y-127908314D01*
X158629547Y-127908998D01*
X158601580Y-127870505D01*
X158500477Y-127731349D01*
X158348651Y-127579523D01*
X158174944Y-127453317D01*
X158128203Y-127429501D01*
X157983633Y-127355838D01*
X157983630Y-127355837D01*
X157779428Y-127289489D01*
X157673392Y-127272694D01*
X157567357Y-127255900D01*
X157352643Y-127255900D01*
X157281953Y-127267096D01*
X157140571Y-127289489D01*
X156936369Y-127355837D01*
X156936366Y-127355838D01*
X156745055Y-127453317D01*
X156650266Y-127522186D01*
X156571349Y-127579523D01*
X156571347Y-127579525D01*
X156571346Y-127579525D01*
X156419525Y-127731346D01*
X156419525Y-127731347D01*
X156419523Y-127731349D01*
X156411460Y-127742447D01*
X156293317Y-127905055D01*
X156195838Y-128096366D01*
X156195835Y-128096374D01*
X156190452Y-128112943D01*
X156151014Y-128170618D01*
X156086655Y-128197815D01*
X156017809Y-128185899D01*
X155966334Y-128138654D01*
X155962037Y-128130918D01*
X155957114Y-128121256D01*
X155903996Y-128017006D01*
X155862151Y-127959411D01*
X155797558Y-127870505D01*
X155797554Y-127870500D01*
X155669499Y-127742445D01*
X155669494Y-127742441D01*
X155522997Y-127636006D01*
X155522996Y-127636005D01*
X155522994Y-127636004D01*
X155421864Y-127584475D01*
X155409081Y-127577962D01*
X155358285Y-127529987D01*
X155341490Y-127462166D01*
X155364028Y-127396031D01*
X155418743Y-127352580D01*
X155427057Y-127349546D01*
X155443633Y-127344161D01*
X155634944Y-127246683D01*
X155808651Y-127120477D01*
X155960477Y-126968651D01*
X156086683Y-126794944D01*
X156184161Y-126603633D01*
X156250511Y-126399427D01*
X156284100Y-126187357D01*
X156284100Y-125972643D01*
X156250511Y-125760573D01*
X156184161Y-125556367D01*
X156184161Y-125556366D01*
X156094702Y-125380795D01*
X156081806Y-125312126D01*
X156108082Y-125247386D01*
X156165188Y-125207128D01*
X156205187Y-125200500D01*
X170299903Y-125200500D01*
X170366942Y-125220185D01*
X170387584Y-125236819D01*
X172063181Y-126912416D01*
X172096666Y-126973739D01*
X172099500Y-127000097D01*
X172099500Y-127319017D01*
X172079815Y-127386056D01*
X172031796Y-127429501D01*
X171985057Y-127453315D01*
X171890266Y-127522186D01*
X171811349Y-127579523D01*
X171811347Y-127579525D01*
X171811346Y-127579525D01*
X171659525Y-127731346D01*
X171659525Y-127731347D01*
X171659523Y-127731349D01*
X171558420Y-127870505D01*
X171530453Y-127908998D01*
X171528562Y-127907624D01*
X171483848Y-127948030D01*
X171414911Y-127959411D01*
X171350765Y-127931715D01*
X171330488Y-127908314D01*
X171329547Y-127908998D01*
X171301580Y-127870505D01*
X171200477Y-127731349D01*
X171048651Y-127579523D01*
X170874944Y-127453317D01*
X170828203Y-127429501D01*
X170683633Y-127355838D01*
X170683630Y-127355837D01*
X170479428Y-127289489D01*
X170373392Y-127272694D01*
X170267357Y-127255900D01*
X170052643Y-127255900D01*
X169981953Y-127267096D01*
X169840571Y-127289489D01*
X169636369Y-127355837D01*
X169636366Y-127355838D01*
X169445055Y-127453317D01*
X169350266Y-127522186D01*
X169271349Y-127579523D01*
X169271347Y-127579525D01*
X169271346Y-127579525D01*
X169119525Y-127731346D01*
X169119525Y-127731347D01*
X169119523Y-127731349D01*
X169018420Y-127870505D01*
X168990453Y-127908998D01*
X168988562Y-127907624D01*
X168943848Y-127948030D01*
X168874911Y-127959411D01*
X168810765Y-127931715D01*
X168790488Y-127908314D01*
X168789547Y-127908998D01*
X168761580Y-127870505D01*
X168660477Y-127731349D01*
X168508651Y-127579523D01*
X168334944Y-127453317D01*
X168288203Y-127429501D01*
X168143633Y-127355838D01*
X168143630Y-127355837D01*
X167939428Y-127289489D01*
X167833392Y-127272694D01*
X167727357Y-127255900D01*
X167512643Y-127255900D01*
X167441953Y-127267096D01*
X167300571Y-127289489D01*
X167096369Y-127355837D01*
X167096366Y-127355838D01*
X166905055Y-127453317D01*
X166810266Y-127522186D01*
X166731349Y-127579523D01*
X166731347Y-127579525D01*
X166731346Y-127579525D01*
X166579525Y-127731346D01*
X166579525Y-127731347D01*
X166579523Y-127731349D01*
X166571460Y-127742447D01*
X166453317Y-127905055D01*
X166355838Y-128096366D01*
X166355837Y-128096369D01*
X166289489Y-128300571D01*
X166255900Y-128512643D01*
X166255900Y-128727356D01*
X166289489Y-128939428D01*
X166355837Y-129143630D01*
X166355838Y-129143633D01*
X166439652Y-129308125D01*
X166453317Y-129334944D01*
X166579523Y-129508651D01*
X166731349Y-129660477D01*
X166905056Y-129786683D01*
X166998888Y-129834492D01*
X167096366Y-129884161D01*
X167096369Y-129884162D01*
X167187384Y-129913734D01*
X167300573Y-129950511D01*
X167512643Y-129984100D01*
X167512644Y-129984100D01*
X167727356Y-129984100D01*
X167727357Y-129984100D01*
X167939427Y-129950511D01*
X168143633Y-129884161D01*
X168334944Y-129786683D01*
X168508651Y-129660477D01*
X168660477Y-129508651D01*
X168786683Y-129334944D01*
X168786683Y-129334943D01*
X168789547Y-129331002D01*
X168791478Y-129332405D01*
X168835927Y-129292078D01*
X168904840Y-129280558D01*
X168969042Y-129308125D01*
X168989478Y-129331709D01*
X168990453Y-129331002D01*
X168993316Y-129334943D01*
X168993317Y-129334944D01*
X169119523Y-129508651D01*
X169271349Y-129660477D01*
X169445056Y-129786683D01*
X169538888Y-129834492D01*
X169636366Y-129884161D01*
X169636369Y-129884162D01*
X169727384Y-129913734D01*
X169840573Y-129950511D01*
X170052643Y-129984100D01*
X170052644Y-129984100D01*
X170267356Y-129984100D01*
X170267357Y-129984100D01*
X170479427Y-129950511D01*
X170683633Y-129884161D01*
X170874944Y-129786683D01*
X171048651Y-129660477D01*
X171200477Y-129508651D01*
X171326683Y-129334944D01*
X171326683Y-129334943D01*
X171329547Y-129331002D01*
X171331478Y-129332405D01*
X171375927Y-129292078D01*
X171444840Y-129280558D01*
X171509042Y-129308125D01*
X171529478Y-129331709D01*
X171530453Y-129331002D01*
X171533316Y-129334943D01*
X171533317Y-129334944D01*
X171659523Y-129508651D01*
X171811349Y-129660477D01*
X171985056Y-129786683D01*
X172078888Y-129834492D01*
X172176366Y-129884161D01*
X172176369Y-129884162D01*
X172267384Y-129913734D01*
X172380573Y-129950511D01*
X172592643Y-129984100D01*
X172592644Y-129984100D01*
X172807356Y-129984100D01*
X172807357Y-129984100D01*
X173019427Y-129950511D01*
X173223633Y-129884161D01*
X173414944Y-129786683D01*
X173588651Y-129660477D01*
X173740477Y-129508651D01*
X173866683Y-129334944D01*
X173866683Y-129334943D01*
X173869547Y-129331002D01*
X173871478Y-129332405D01*
X173915927Y-129292078D01*
X173984840Y-129280558D01*
X174049042Y-129308125D01*
X174069478Y-129331709D01*
X174070453Y-129331002D01*
X174073316Y-129334943D01*
X174073317Y-129334944D01*
X174199523Y-129508651D01*
X174351349Y-129660477D01*
X174525056Y-129786683D01*
X174618888Y-129834492D01*
X174716366Y-129884161D01*
X174716369Y-129884162D01*
X174807384Y-129913734D01*
X174920573Y-129950511D01*
X175132643Y-129984100D01*
X175132644Y-129984100D01*
X175347356Y-129984100D01*
X175347357Y-129984100D01*
X175559427Y-129950511D01*
X175763633Y-129884161D01*
X175954944Y-129786683D01*
X176128651Y-129660477D01*
X176280477Y-129508651D01*
X176406683Y-129334944D01*
X176406683Y-129334943D01*
X176409547Y-129331002D01*
X176411478Y-129332405D01*
X176455927Y-129292078D01*
X176524840Y-129280558D01*
X176589042Y-129308125D01*
X176609478Y-129331709D01*
X176610453Y-129331002D01*
X176613316Y-129334943D01*
X176613317Y-129334944D01*
X176739523Y-129508651D01*
X176891349Y-129660477D01*
X177065056Y-129786683D01*
X177158888Y-129834492D01*
X177256366Y-129884161D01*
X177256369Y-129884162D01*
X177347384Y-129913734D01*
X177460573Y-129950511D01*
X177672643Y-129984100D01*
X177672644Y-129984100D01*
X177887356Y-129984100D01*
X177887357Y-129984100D01*
X178099427Y-129950511D01*
X178303633Y-129884161D01*
X178494944Y-129786683D01*
X178668651Y-129660477D01*
X178820477Y-129508651D01*
X178946683Y-129334944D01*
X178946683Y-129334943D01*
X178949547Y-129331002D01*
X178951478Y-129332405D01*
X178995927Y-129292078D01*
X179064840Y-129280558D01*
X179129042Y-129308125D01*
X179149478Y-129331709D01*
X179150453Y-129331002D01*
X179153316Y-129334943D01*
X179153317Y-129334944D01*
X179279523Y-129508651D01*
X179431349Y-129660477D01*
X179605056Y-129786683D01*
X179698888Y-129834492D01*
X179796366Y-129884161D01*
X179796369Y-129884162D01*
X179887384Y-129913734D01*
X180000573Y-129950511D01*
X180212643Y-129984100D01*
X180212644Y-129984100D01*
X180427356Y-129984100D01*
X180427357Y-129984100D01*
X180639427Y-129950511D01*
X180843633Y-129884161D01*
X181034944Y-129786683D01*
X181208651Y-129660477D01*
X181360477Y-129508651D01*
X181486683Y-129334944D01*
X181486683Y-129334943D01*
X181489547Y-129331002D01*
X181491478Y-129332405D01*
X181535927Y-129292078D01*
X181604840Y-129280558D01*
X181669042Y-129308125D01*
X181689478Y-129331709D01*
X181690453Y-129331002D01*
X181693316Y-129334943D01*
X181693317Y-129334944D01*
X181819523Y-129508651D01*
X181971349Y-129660477D01*
X182145056Y-129786683D01*
X182238888Y-129834492D01*
X182336366Y-129884161D01*
X182336369Y-129884162D01*
X182427384Y-129913734D01*
X182540573Y-129950511D01*
X182752643Y-129984100D01*
X182752644Y-129984100D01*
X182967356Y-129984100D01*
X182967357Y-129984100D01*
X183179427Y-129950511D01*
X183383633Y-129884161D01*
X183574944Y-129786683D01*
X183748651Y-129660477D01*
X183900477Y-129508651D01*
X184026683Y-129334944D01*
X184026683Y-129334943D01*
X184029547Y-129331002D01*
X184031478Y-129332405D01*
X184075927Y-129292078D01*
X184144840Y-129280558D01*
X184209042Y-129308125D01*
X184229478Y-129331709D01*
X184230453Y-129331002D01*
X184233316Y-129334943D01*
X184233317Y-129334944D01*
X184359523Y-129508651D01*
X184511349Y-129660477D01*
X184685056Y-129786683D01*
X184778888Y-129834492D01*
X184876366Y-129884161D01*
X184876369Y-129884162D01*
X184967384Y-129913734D01*
X185080573Y-129950511D01*
X185292643Y-129984100D01*
X185292644Y-129984100D01*
X185507356Y-129984100D01*
X185507357Y-129984100D01*
X185719427Y-129950511D01*
X185923633Y-129884161D01*
X186114944Y-129786683D01*
X186288651Y-129660477D01*
X186440477Y-129508651D01*
X186566683Y-129334944D01*
X186566683Y-129334943D01*
X186569547Y-129331002D01*
X186571478Y-129332405D01*
X186615927Y-129292078D01*
X186684840Y-129280558D01*
X186749042Y-129308125D01*
X186769478Y-129331709D01*
X186770453Y-129331002D01*
X186773316Y-129334943D01*
X186773317Y-129334944D01*
X186899523Y-129508651D01*
X187051349Y-129660477D01*
X187225056Y-129786683D01*
X187318888Y-129834492D01*
X187416366Y-129884161D01*
X187416369Y-129884162D01*
X187507384Y-129913734D01*
X187620573Y-129950511D01*
X187832643Y-129984100D01*
X187832644Y-129984100D01*
X188047356Y-129984100D01*
X188047357Y-129984100D01*
X188259427Y-129950511D01*
X188463633Y-129884161D01*
X188654944Y-129786683D01*
X188828651Y-129660477D01*
X188980477Y-129508651D01*
X189106683Y-129334944D01*
X189106683Y-129334943D01*
X189109547Y-129331002D01*
X189111478Y-129332405D01*
X189155927Y-129292078D01*
X189224840Y-129280558D01*
X189289042Y-129308125D01*
X189309478Y-129331709D01*
X189310453Y-129331002D01*
X189313316Y-129334943D01*
X189313317Y-129334944D01*
X189439523Y-129508651D01*
X189591349Y-129660477D01*
X189765056Y-129786683D01*
X189858888Y-129834492D01*
X189956366Y-129884161D01*
X189956369Y-129884162D01*
X190047384Y-129913734D01*
X190160573Y-129950511D01*
X190372643Y-129984100D01*
X190372644Y-129984100D01*
X190587356Y-129984100D01*
X190587357Y-129984100D01*
X190799427Y-129950511D01*
X191003633Y-129884161D01*
X191194944Y-129786683D01*
X191368651Y-129660477D01*
X191520477Y-129508651D01*
X191646683Y-129334944D01*
X191646683Y-129334943D01*
X191649547Y-129331002D01*
X191651478Y-129332405D01*
X191695927Y-129292078D01*
X191764840Y-129280558D01*
X191829042Y-129308125D01*
X191849478Y-129331709D01*
X191850453Y-129331002D01*
X191853316Y-129334943D01*
X191853317Y-129334944D01*
X191979523Y-129508651D01*
X192131349Y-129660477D01*
X192305056Y-129786683D01*
X192398888Y-129834492D01*
X192496366Y-129884161D01*
X192496369Y-129884162D01*
X192587384Y-129913734D01*
X192700573Y-129950511D01*
X192912643Y-129984100D01*
X192912644Y-129984100D01*
X193127356Y-129984100D01*
X193127357Y-129984100D01*
X193339427Y-129950511D01*
X193543633Y-129884161D01*
X193586475Y-129862332D01*
X221899500Y-129862332D01*
X221899500Y-130137667D01*
X221899501Y-130137684D01*
X221935438Y-130410655D01*
X221935439Y-130410660D01*
X221935440Y-130410666D01*
X221935441Y-130410668D01*
X222006704Y-130676630D01*
X222112075Y-130931017D01*
X222112080Y-130931028D01*
X222191809Y-131069121D01*
X222249751Y-131169479D01*
X222249753Y-131169482D01*
X222249754Y-131169483D01*
X222417370Y-131387926D01*
X222417376Y-131387933D01*
X222612066Y-131582623D01*
X222612072Y-131582628D01*
X222830521Y-131750249D01*
X222983778Y-131838732D01*
X223068971Y-131887919D01*
X223068976Y-131887921D01*
X223068979Y-131887923D01*
X223323368Y-131993295D01*
X223589334Y-132064560D01*
X223862326Y-132100500D01*
X223862333Y-132100500D01*
X224137667Y-132100500D01*
X224137674Y-132100500D01*
X224410666Y-132064560D01*
X224676632Y-131993295D01*
X224931021Y-131887923D01*
X225169479Y-131750249D01*
X225387928Y-131582628D01*
X225582628Y-131387928D01*
X225750249Y-131169479D01*
X225887923Y-130931021D01*
X225993295Y-130676632D01*
X226064560Y-130410666D01*
X226100500Y-130137674D01*
X226100500Y-129862326D01*
X226064560Y-129589334D01*
X225993295Y-129323368D01*
X225887923Y-129068979D01*
X225887921Y-129068976D01*
X225887919Y-129068971D01*
X225838732Y-128983778D01*
X225750249Y-128830521D01*
X225582628Y-128612072D01*
X225582623Y-128612066D01*
X225387933Y-128417376D01*
X225387926Y-128417370D01*
X225169483Y-128249754D01*
X225169482Y-128249753D01*
X225169479Y-128249751D01*
X225045828Y-128178361D01*
X224931028Y-128112080D01*
X224931017Y-128112075D01*
X224676630Y-128006704D01*
X224500127Y-127959411D01*
X224410666Y-127935440D01*
X224410660Y-127935439D01*
X224410655Y-127935438D01*
X224137684Y-127899501D01*
X224137679Y-127899500D01*
X224137674Y-127899500D01*
X223862326Y-127899500D01*
X223862320Y-127899500D01*
X223862315Y-127899501D01*
X223589344Y-127935438D01*
X223589337Y-127935439D01*
X223589334Y-127935440D01*
X223542347Y-127948030D01*
X223323369Y-128006704D01*
X223068982Y-128112075D01*
X223068971Y-128112080D01*
X222830516Y-128249754D01*
X222612073Y-128417370D01*
X222612066Y-128417376D01*
X222417376Y-128612066D01*
X222417370Y-128612073D01*
X222249754Y-128830516D01*
X222112080Y-129068971D01*
X222112075Y-129068982D01*
X222006704Y-129323369D01*
X221935441Y-129589331D01*
X221935438Y-129589344D01*
X221899501Y-129862315D01*
X221899500Y-129862332D01*
X193586475Y-129862332D01*
X193734944Y-129786683D01*
X193908651Y-129660477D01*
X194060477Y-129508651D01*
X194186683Y-129334944D01*
X194284161Y-129143633D01*
X194289545Y-129127061D01*
X194328980Y-129069385D01*
X194393337Y-129042185D01*
X194462184Y-129054097D01*
X194513662Y-129101339D01*
X194517962Y-129109081D01*
X194576006Y-129222997D01*
X194682441Y-129369494D01*
X194682445Y-129369499D01*
X194810500Y-129497554D01*
X194810505Y-129497558D01*
X194922932Y-129579240D01*
X194957006Y-129603996D01*
X195062484Y-129657740D01*
X195118360Y-129686211D01*
X195118363Y-129686212D01*
X195204476Y-129714191D01*
X195290591Y-129742171D01*
X195373429Y-129755291D01*
X195469449Y-129770500D01*
X195469454Y-129770500D01*
X195650551Y-129770500D01*
X195762335Y-129752794D01*
X195829409Y-129742171D01*
X196001639Y-129686211D01*
X196162994Y-129603996D01*
X196309501Y-129497553D01*
X196437553Y-129369501D01*
X196543996Y-129222994D01*
X196626211Y-129061639D01*
X196682171Y-128889409D01*
X196696765Y-128797259D01*
X196710500Y-128710551D01*
X196710500Y-128529448D01*
X196692748Y-128417370D01*
X196682171Y-128350591D01*
X196649407Y-128249751D01*
X196626212Y-128178363D01*
X196626211Y-128178360D01*
X196584436Y-128096374D01*
X196543996Y-128017006D01*
X196502151Y-127959411D01*
X196437558Y-127870505D01*
X196437554Y-127870500D01*
X196309499Y-127742445D01*
X196309494Y-127742441D01*
X196162997Y-127636006D01*
X196162996Y-127636005D01*
X196162994Y-127636004D01*
X196111300Y-127609664D01*
X196001639Y-127553788D01*
X196001636Y-127553787D01*
X195829410Y-127497829D01*
X195650551Y-127469500D01*
X195650546Y-127469500D01*
X195469454Y-127469500D01*
X195469449Y-127469500D01*
X195290589Y-127497829D01*
X195118363Y-127553787D01*
X195118360Y-127553788D01*
X194957002Y-127636006D01*
X194810505Y-127742441D01*
X194810500Y-127742445D01*
X194682445Y-127870500D01*
X194682441Y-127870505D01*
X194576004Y-128017004D01*
X194517961Y-128130919D01*
X194469987Y-128181714D01*
X194402166Y-128198509D01*
X194336031Y-128175971D01*
X194292580Y-128121256D01*
X194289545Y-128112938D01*
X194284161Y-128096367D01*
X194284161Y-128096366D01*
X194200266Y-127931715D01*
X194186683Y-127905056D01*
X194060477Y-127731349D01*
X193908651Y-127579523D01*
X193734944Y-127453317D01*
X193688203Y-127429501D01*
X193543633Y-127355838D01*
X193543630Y-127355837D01*
X193339428Y-127289489D01*
X193233392Y-127272694D01*
X193127357Y-127255900D01*
X192912643Y-127255900D01*
X192841953Y-127267096D01*
X192700571Y-127289489D01*
X192496369Y-127355837D01*
X192496366Y-127355838D01*
X192305055Y-127453317D01*
X192210266Y-127522186D01*
X192131349Y-127579523D01*
X192131347Y-127579525D01*
X192131346Y-127579525D01*
X191979525Y-127731346D01*
X191979525Y-127731347D01*
X191979523Y-127731349D01*
X191878420Y-127870505D01*
X191850453Y-127908998D01*
X191848562Y-127907624D01*
X191803848Y-127948030D01*
X191734911Y-127959411D01*
X191670765Y-127931715D01*
X191650488Y-127908314D01*
X191649547Y-127908998D01*
X191621580Y-127870505D01*
X191520477Y-127731349D01*
X191368651Y-127579523D01*
X191281797Y-127516420D01*
X191194942Y-127453315D01*
X191148204Y-127429501D01*
X191097409Y-127381527D01*
X191080500Y-127319017D01*
X191080500Y-124432230D01*
X191100185Y-124365191D01*
X191116819Y-124344549D01*
X191150592Y-124310776D01*
X191217712Y-124243656D01*
X191309814Y-124094334D01*
X191364999Y-123927797D01*
X191375500Y-123825009D01*
X191375499Y-123099992D01*
X191364999Y-122997203D01*
X191309814Y-122830666D01*
X191217712Y-122681344D01*
X191093656Y-122557288D01*
X190944334Y-122465186D01*
X190777797Y-122410001D01*
X190777795Y-122410000D01*
X190675010Y-122399500D01*
X189324998Y-122399500D01*
X189324981Y-122399501D01*
X189222203Y-122410000D01*
X189222200Y-122410001D01*
X189055668Y-122465185D01*
X189055663Y-122465187D01*
X188906342Y-122557289D01*
X188782289Y-122681342D01*
X188690187Y-122830663D01*
X188690186Y-122830666D01*
X188635001Y-122997203D01*
X188635001Y-122997204D01*
X188635000Y-122997204D01*
X188624500Y-123099983D01*
X188624500Y-123825001D01*
X188624501Y-123825019D01*
X188635000Y-123927796D01*
X188635001Y-123927799D01*
X188681910Y-124069358D01*
X188690186Y-124094334D01*
X188782288Y-124243656D01*
X188906344Y-124367712D01*
X189055666Y-124459814D01*
X189222203Y-124514999D01*
X189324991Y-124525500D01*
X189755500Y-124525499D01*
X189822539Y-124545183D01*
X189868294Y-124597987D01*
X189879500Y-124649499D01*
X189879500Y-127319017D01*
X189859815Y-127386056D01*
X189811796Y-127429501D01*
X189765057Y-127453315D01*
X189670266Y-127522186D01*
X189591349Y-127579523D01*
X189591347Y-127579525D01*
X189591346Y-127579525D01*
X189439525Y-127731346D01*
X189439525Y-127731347D01*
X189439523Y-127731349D01*
X189338420Y-127870505D01*
X189310453Y-127908998D01*
X189308562Y-127907624D01*
X189263848Y-127948030D01*
X189194911Y-127959411D01*
X189130765Y-127931715D01*
X189110488Y-127908314D01*
X189109547Y-127908998D01*
X189081580Y-127870505D01*
X188980477Y-127731349D01*
X188828651Y-127579523D01*
X188741797Y-127516420D01*
X188654942Y-127453315D01*
X188608204Y-127429501D01*
X188557409Y-127381527D01*
X188540500Y-127319017D01*
X188540500Y-125323443D01*
X188540499Y-125323437D01*
X188531679Y-125290520D01*
X188499577Y-125170715D01*
X188464671Y-125110256D01*
X188464671Y-125110255D01*
X188420524Y-125033790D01*
X188420521Y-125033786D01*
X188420520Y-125033784D01*
X188308716Y-124921980D01*
X188308715Y-124921979D01*
X188304385Y-124917649D01*
X188304374Y-124917639D01*
X187401986Y-124015251D01*
X187368501Y-123953928D01*
X187366309Y-123914971D01*
X187375500Y-123825009D01*
X187375499Y-123099992D01*
X187364999Y-122997203D01*
X187309814Y-122830666D01*
X187217712Y-122681344D01*
X187093656Y-122557288D01*
X186944334Y-122465186D01*
X186777797Y-122410001D01*
X186777795Y-122410000D01*
X186675010Y-122399500D01*
X185324998Y-122399500D01*
X185324981Y-122399501D01*
X185222203Y-122410000D01*
X185222200Y-122410001D01*
X185055668Y-122465185D01*
X185055663Y-122465187D01*
X184906342Y-122557289D01*
X184782289Y-122681342D01*
X184690187Y-122830663D01*
X184690186Y-122830666D01*
X184635001Y-122997203D01*
X184635001Y-122997204D01*
X184635000Y-122997204D01*
X184624500Y-123099983D01*
X184624500Y-123825001D01*
X184624501Y-123825019D01*
X184635000Y-123927796D01*
X184635001Y-123927799D01*
X184681910Y-124069358D01*
X184690186Y-124094334D01*
X184782288Y-124243656D01*
X184906344Y-124367712D01*
X185055666Y-124459814D01*
X185222203Y-124514999D01*
X185324991Y-124525500D01*
X186162402Y-124525499D01*
X186229441Y-124545183D01*
X186250083Y-124561818D01*
X187303181Y-125614916D01*
X187336666Y-125676239D01*
X187339500Y-125702597D01*
X187339500Y-127319017D01*
X187319815Y-127386056D01*
X187271796Y-127429501D01*
X187225057Y-127453315D01*
X187130266Y-127522186D01*
X187051349Y-127579523D01*
X187051347Y-127579525D01*
X187051346Y-127579525D01*
X186899525Y-127731346D01*
X186899525Y-127731347D01*
X186899523Y-127731349D01*
X186798420Y-127870505D01*
X186770453Y-127908998D01*
X186768562Y-127907624D01*
X186723848Y-127948030D01*
X186654911Y-127959411D01*
X186590765Y-127931715D01*
X186570488Y-127908314D01*
X186569547Y-127908998D01*
X186541580Y-127870505D01*
X186440477Y-127731349D01*
X186288651Y-127579523D01*
X186114944Y-127453317D01*
X186068203Y-127429501D01*
X185923633Y-127355838D01*
X185923630Y-127355837D01*
X185719428Y-127289489D01*
X185613392Y-127272694D01*
X185507357Y-127255900D01*
X185292643Y-127255900D01*
X185221953Y-127267096D01*
X185080571Y-127289489D01*
X184876369Y-127355837D01*
X184876366Y-127355838D01*
X184685055Y-127453317D01*
X184590266Y-127522186D01*
X184511349Y-127579523D01*
X184511347Y-127579525D01*
X184511346Y-127579525D01*
X184359525Y-127731346D01*
X184359525Y-127731347D01*
X184359523Y-127731349D01*
X184258420Y-127870505D01*
X184230453Y-127908998D01*
X184228562Y-127907624D01*
X184183848Y-127948030D01*
X184114911Y-127959411D01*
X184050765Y-127931715D01*
X184030488Y-127908314D01*
X184029547Y-127908998D01*
X184001580Y-127870505D01*
X183900477Y-127731349D01*
X183748651Y-127579523D01*
X183574944Y-127453317D01*
X183528203Y-127429501D01*
X183383633Y-127355838D01*
X183383630Y-127355837D01*
X183179428Y-127289489D01*
X183073392Y-127272694D01*
X182967357Y-127255900D01*
X182752643Y-127255900D01*
X182681953Y-127267096D01*
X182540571Y-127289489D01*
X182336369Y-127355837D01*
X182336366Y-127355838D01*
X182145055Y-127453317D01*
X182050266Y-127522186D01*
X181971349Y-127579523D01*
X181971347Y-127579525D01*
X181971346Y-127579525D01*
X181819525Y-127731346D01*
X181819525Y-127731347D01*
X181819523Y-127731349D01*
X181718420Y-127870505D01*
X181690453Y-127908998D01*
X181688562Y-127907624D01*
X181643848Y-127948030D01*
X181574911Y-127959411D01*
X181510765Y-127931715D01*
X181490488Y-127908314D01*
X181489547Y-127908998D01*
X181461580Y-127870505D01*
X181360477Y-127731349D01*
X181208651Y-127579523D01*
X181034944Y-127453317D01*
X180988203Y-127429501D01*
X180843633Y-127355838D01*
X180843630Y-127355837D01*
X180639428Y-127289489D01*
X180533392Y-127272694D01*
X180427357Y-127255900D01*
X180212643Y-127255900D01*
X180141953Y-127267096D01*
X180000571Y-127289489D01*
X179796369Y-127355837D01*
X179796366Y-127355838D01*
X179605055Y-127453317D01*
X179510266Y-127522186D01*
X179431349Y-127579523D01*
X179431347Y-127579525D01*
X179431346Y-127579525D01*
X179279525Y-127731346D01*
X179279525Y-127731347D01*
X179279523Y-127731349D01*
X179178420Y-127870505D01*
X179150453Y-127908998D01*
X179148562Y-127907624D01*
X179103848Y-127948030D01*
X179034911Y-127959411D01*
X178970765Y-127931715D01*
X178950488Y-127908314D01*
X178949547Y-127908998D01*
X178921580Y-127870505D01*
X178820477Y-127731349D01*
X178668651Y-127579523D01*
X178494944Y-127453317D01*
X178448203Y-127429501D01*
X178303633Y-127355838D01*
X178303630Y-127355837D01*
X178099428Y-127289489D01*
X177993392Y-127272694D01*
X177887357Y-127255900D01*
X177672643Y-127255900D01*
X177601953Y-127267096D01*
X177460571Y-127289489D01*
X177256369Y-127355837D01*
X177256366Y-127355838D01*
X177065055Y-127453317D01*
X176970266Y-127522186D01*
X176891349Y-127579523D01*
X176891347Y-127579525D01*
X176891346Y-127579525D01*
X176739525Y-127731346D01*
X176739525Y-127731347D01*
X176739523Y-127731349D01*
X176638420Y-127870505D01*
X176610453Y-127908998D01*
X176608562Y-127907624D01*
X176563848Y-127948030D01*
X176494911Y-127959411D01*
X176430765Y-127931715D01*
X176410488Y-127908314D01*
X176409547Y-127908998D01*
X176381580Y-127870505D01*
X176280477Y-127731349D01*
X176128651Y-127579523D01*
X175954944Y-127453317D01*
X175908203Y-127429501D01*
X175763633Y-127355838D01*
X175763630Y-127355837D01*
X175559428Y-127289489D01*
X175453392Y-127272694D01*
X175347357Y-127255900D01*
X175132643Y-127255900D01*
X175061953Y-127267096D01*
X174920571Y-127289489D01*
X174716369Y-127355837D01*
X174716366Y-127355838D01*
X174525055Y-127453317D01*
X174430266Y-127522186D01*
X174351349Y-127579523D01*
X174351347Y-127579525D01*
X174351346Y-127579525D01*
X174199525Y-127731346D01*
X174199525Y-127731347D01*
X174199523Y-127731349D01*
X174098420Y-127870505D01*
X174070453Y-127908998D01*
X174068562Y-127907624D01*
X174023848Y-127948030D01*
X173954911Y-127959411D01*
X173890765Y-127931715D01*
X173870488Y-127908314D01*
X173869547Y-127908998D01*
X173841580Y-127870505D01*
X173740477Y-127731349D01*
X173588651Y-127579523D01*
X173501797Y-127516420D01*
X173414942Y-127453315D01*
X173368204Y-127429501D01*
X173317409Y-127381527D01*
X173300500Y-127319017D01*
X173300500Y-126620945D01*
X173300500Y-126620943D01*
X173259577Y-126468216D01*
X173219862Y-126399427D01*
X173180524Y-126331290D01*
X173180521Y-126331286D01*
X173180520Y-126331284D01*
X173068716Y-126219480D01*
X173068715Y-126219479D01*
X173064385Y-126215149D01*
X173064374Y-126215139D01*
X171087590Y-124238355D01*
X171087588Y-124238352D01*
X170968717Y-124119481D01*
X170968716Y-124119480D01*
X170881904Y-124069360D01*
X170881904Y-124069359D01*
X170881900Y-124069358D01*
X170831785Y-124040423D01*
X170679057Y-123999499D01*
X170520943Y-123999499D01*
X170513347Y-123999499D01*
X170513331Y-123999500D01*
X146624499Y-123999500D01*
X146557460Y-123979815D01*
X146511705Y-123927011D01*
X146500499Y-123875500D01*
X146500499Y-123552129D01*
X146500498Y-123552123D01*
X146500497Y-123552116D01*
X146494091Y-123492517D01*
X146488486Y-123477490D01*
X146443797Y-123357671D01*
X146443793Y-123357664D01*
X146357547Y-123242455D01*
X146357544Y-123242452D01*
X146242335Y-123156206D01*
X146242328Y-123156202D01*
X146107482Y-123105908D01*
X146107483Y-123105908D01*
X146047883Y-123099501D01*
X146047881Y-123099500D01*
X146047873Y-123099500D01*
X146047864Y-123099500D01*
X143952129Y-123099500D01*
X143952123Y-123099501D01*
X143892516Y-123105908D01*
X143757671Y-123156202D01*
X143757664Y-123156206D01*
X143642455Y-123242452D01*
X143642452Y-123242455D01*
X143556206Y-123357664D01*
X143556202Y-123357671D01*
X143505908Y-123492517D01*
X143500640Y-123541523D01*
X143499501Y-123552123D01*
X143499500Y-123552135D01*
X141297099Y-123552135D01*
X143212417Y-121636819D01*
X143273740Y-121603334D01*
X143300098Y-121600500D01*
X173913331Y-121600500D01*
X173913347Y-121600501D01*
X173920943Y-121600501D01*
X174079054Y-121600501D01*
X174079057Y-121600501D01*
X174231785Y-121559577D01*
X174281904Y-121530639D01*
X174368716Y-121480520D01*
X174480520Y-121368716D01*
X174480520Y-121368714D01*
X174490728Y-121358507D01*
X174490729Y-121358504D01*
X175014665Y-120834570D01*
X175075984Y-120801088D01*
X175078151Y-120800637D01*
X175078840Y-120800500D01*
X175078842Y-120800500D01*
X175233497Y-120769737D01*
X175379179Y-120709394D01*
X175510289Y-120621789D01*
X175621789Y-120510289D01*
X175709394Y-120379179D01*
X175714363Y-120367184D01*
X175723067Y-120346166D01*
X175769737Y-120233497D01*
X175800500Y-120078842D01*
X175800500Y-119921158D01*
X175800500Y-119921155D01*
X175800499Y-119921153D01*
X175773206Y-119783945D01*
X175769737Y-119766503D01*
X175769732Y-119766492D01*
X175767969Y-119760676D01*
X175770720Y-119759841D01*
X175764497Y-119702641D01*
X175795691Y-119640122D01*
X175855734Y-119604392D01*
X175886555Y-119600500D01*
X184162403Y-119600500D01*
X184229442Y-119620185D01*
X184250084Y-119636819D01*
X184598013Y-119984748D01*
X184631498Y-120046071D01*
X184633690Y-120085031D01*
X184624500Y-120174981D01*
X184624500Y-120900001D01*
X184624501Y-120900019D01*
X184635000Y-121002796D01*
X184635001Y-121002799D01*
X184686335Y-121157713D01*
X184690186Y-121169334D01*
X184782288Y-121318656D01*
X184906344Y-121442712D01*
X185055666Y-121534814D01*
X185222203Y-121589999D01*
X185324991Y-121600500D01*
X186675008Y-121600499D01*
X186777797Y-121589999D01*
X186944334Y-121534814D01*
X187093656Y-121442712D01*
X187217712Y-121318656D01*
X187309814Y-121169334D01*
X187364999Y-121002797D01*
X187375500Y-120900009D01*
X187375499Y-120174992D01*
X187364999Y-120072203D01*
X187309814Y-119905666D01*
X187217712Y-119756344D01*
X187093656Y-119632288D01*
X186944334Y-119540186D01*
X186777797Y-119485001D01*
X186777795Y-119485000D01*
X186675016Y-119474500D01*
X186675009Y-119474500D01*
X185837597Y-119474500D01*
X185770558Y-119454815D01*
X185749916Y-119438181D01*
X185123916Y-118812181D01*
X185090431Y-118750858D01*
X185095415Y-118681166D01*
X185137287Y-118625233D01*
X185202751Y-118600816D01*
X185211597Y-118600500D01*
X187162403Y-118600500D01*
X187229442Y-118620185D01*
X187250084Y-118636819D01*
X188598013Y-119984748D01*
X188631498Y-120046071D01*
X188633690Y-120085031D01*
X188624500Y-120174981D01*
X188624500Y-120900001D01*
X188624501Y-120900019D01*
X188635000Y-121002796D01*
X188635001Y-121002799D01*
X188686335Y-121157713D01*
X188690186Y-121169334D01*
X188782288Y-121318656D01*
X188906344Y-121442712D01*
X189055666Y-121534814D01*
X189222203Y-121589999D01*
X189324991Y-121600500D01*
X190675008Y-121600499D01*
X190777797Y-121589999D01*
X190944334Y-121534814D01*
X191093656Y-121442712D01*
X191217712Y-121318656D01*
X191309814Y-121169334D01*
X191364999Y-121002797D01*
X191375500Y-120900009D01*
X191375499Y-120174992D01*
X191364999Y-120072203D01*
X191309814Y-119905666D01*
X191217712Y-119756344D01*
X191093656Y-119632288D01*
X190944334Y-119540186D01*
X190777797Y-119485001D01*
X190777795Y-119485000D01*
X190675016Y-119474500D01*
X190675009Y-119474500D01*
X189837597Y-119474500D01*
X189770558Y-119454815D01*
X189749916Y-119438181D01*
X187950090Y-117638355D01*
X187950088Y-117638352D01*
X187831217Y-117519481D01*
X187831209Y-117519475D01*
X187715491Y-117452666D01*
X187715490Y-117452665D01*
X187700585Y-117444060D01*
X187694285Y-117440423D01*
X187541557Y-117399499D01*
X187383443Y-117399499D01*
X187375847Y-117399499D01*
X187375831Y-117399500D01*
X160617504Y-117399500D01*
X160550465Y-117379815D01*
X160504710Y-117327011D01*
X160494766Y-117257853D01*
X160523791Y-117194297D01*
X160561209Y-117165015D01*
X160714944Y-117086683D01*
X160888651Y-116960477D01*
X161040477Y-116808651D01*
X161166683Y-116634944D01*
X161264161Y-116443633D01*
X161330511Y-116239427D01*
X161364100Y-116027357D01*
X161364100Y-115812643D01*
X161330511Y-115600573D01*
X161264161Y-115396367D01*
X161264161Y-115396366D01*
X161166682Y-115205055D01*
X161040477Y-115031349D01*
X160888651Y-114879523D01*
X160714944Y-114753317D01*
X160637914Y-114714068D01*
X160523633Y-114655838D01*
X160523630Y-114655837D01*
X160319428Y-114589489D01*
X160133249Y-114560001D01*
X160107357Y-114555900D01*
X159892643Y-114555900D01*
X159866751Y-114560001D01*
X159680571Y-114589489D01*
X159476369Y-114655837D01*
X159476366Y-114655838D01*
X159285055Y-114753317D01*
X159185949Y-114825322D01*
X159111349Y-114879523D01*
X159111347Y-114879525D01*
X159111346Y-114879525D01*
X158959525Y-115031346D01*
X158959525Y-115031347D01*
X158959523Y-115031349D01*
X158905322Y-115105949D01*
X158833317Y-115205055D01*
X158735838Y-115396366D01*
X158735837Y-115396369D01*
X158669489Y-115600571D01*
X158664624Y-115631286D01*
X158635900Y-115812643D01*
X158635900Y-116027357D01*
X158641793Y-116064561D01*
X158669489Y-116239428D01*
X158735837Y-116443630D01*
X158735838Y-116443633D01*
X158815767Y-116600500D01*
X158833317Y-116634944D01*
X158959523Y-116808651D01*
X159111349Y-116960477D01*
X159285056Y-117086683D01*
X159438791Y-117165015D01*
X159489587Y-117212990D01*
X159506382Y-117280811D01*
X159483845Y-117346946D01*
X159429129Y-117390397D01*
X159382496Y-117399500D01*
X155537504Y-117399500D01*
X155470465Y-117379815D01*
X155424710Y-117327011D01*
X155414766Y-117257853D01*
X155443791Y-117194297D01*
X155481209Y-117165015D01*
X155634944Y-117086683D01*
X155808651Y-116960477D01*
X155960477Y-116808651D01*
X156086683Y-116634944D01*
X156184161Y-116443633D01*
X156250511Y-116239427D01*
X156284100Y-116027357D01*
X156284100Y-115812643D01*
X156250511Y-115600573D01*
X156184161Y-115396367D01*
X156184161Y-115396366D01*
X156086682Y-115205055D01*
X155960477Y-115031349D01*
X155808651Y-114879523D01*
X155634944Y-114753317D01*
X155443633Y-114655839D01*
X155443621Y-114655835D01*
X155427057Y-114650453D01*
X155369382Y-114611015D01*
X155342184Y-114546656D01*
X155354099Y-114477810D01*
X155401343Y-114426334D01*
X155409060Y-114422048D01*
X155522994Y-114363996D01*
X155669501Y-114257553D01*
X155797553Y-114129501D01*
X155903996Y-113982994D01*
X155962039Y-113869078D01*
X156010011Y-113818285D01*
X156077832Y-113801490D01*
X156143967Y-113824027D01*
X156187419Y-113878742D01*
X156190453Y-113887057D01*
X156195839Y-113903633D01*
X156195838Y-113903633D01*
X156279652Y-114068125D01*
X156293317Y-114094944D01*
X156419523Y-114268651D01*
X156571349Y-114420477D01*
X156745056Y-114546683D01*
X156829067Y-114589489D01*
X156936366Y-114644161D01*
X156936369Y-114644162D01*
X156972302Y-114655837D01*
X157140573Y-114710511D01*
X157352643Y-114744100D01*
X157352644Y-114744100D01*
X157567356Y-114744100D01*
X157567357Y-114744100D01*
X157779427Y-114710511D01*
X157983633Y-114644161D01*
X158174944Y-114546683D01*
X158348651Y-114420477D01*
X158500477Y-114268651D01*
X158626683Y-114094944D01*
X158724161Y-113903633D01*
X158790511Y-113699427D01*
X158824100Y-113487357D01*
X158824100Y-113272643D01*
X158790511Y-113060573D01*
X158757123Y-112957815D01*
X158724162Y-112856369D01*
X158724161Y-112856366D01*
X158640266Y-112691715D01*
X158626683Y-112665056D01*
X158500477Y-112491349D01*
X158348651Y-112339523D01*
X158174944Y-112213317D01*
X158128203Y-112189501D01*
X157983633Y-112115838D01*
X157983630Y-112115837D01*
X157779428Y-112049489D01*
X157673392Y-112032694D01*
X157567357Y-112015900D01*
X157352643Y-112015900D01*
X157281953Y-112027096D01*
X157140571Y-112049489D01*
X156936369Y-112115837D01*
X156936366Y-112115838D01*
X156745055Y-112213317D01*
X156659469Y-112275500D01*
X156571349Y-112339523D01*
X156571347Y-112339525D01*
X156571346Y-112339525D01*
X156419525Y-112491346D01*
X156419525Y-112491347D01*
X156419523Y-112491349D01*
X156399085Y-112519480D01*
X156293317Y-112665055D01*
X156195838Y-112856366D01*
X156195835Y-112856374D01*
X156190452Y-112872943D01*
X156151014Y-112930618D01*
X156086655Y-112957815D01*
X156017809Y-112945899D01*
X155966334Y-112898654D01*
X155962037Y-112890918D01*
X155957114Y-112881256D01*
X155903996Y-112777006D01*
X155862151Y-112719411D01*
X155797558Y-112630505D01*
X155797554Y-112630500D01*
X155669499Y-112502445D01*
X155669494Y-112502441D01*
X155522997Y-112396006D01*
X155522996Y-112396005D01*
X155522994Y-112396004D01*
X155466167Y-112367049D01*
X155361639Y-112313788D01*
X155361636Y-112313787D01*
X155189410Y-112257829D01*
X155010551Y-112229500D01*
X155010546Y-112229500D01*
X154829454Y-112229500D01*
X154829449Y-112229500D01*
X154650589Y-112257829D01*
X154478363Y-112313787D01*
X154478360Y-112313788D01*
X154317002Y-112396006D01*
X154170505Y-112502441D01*
X154170500Y-112502445D01*
X154042445Y-112630500D01*
X154042441Y-112630505D01*
X153936006Y-112777002D01*
X153853788Y-112938360D01*
X153853787Y-112938363D01*
X153797829Y-113110589D01*
X153769500Y-113289448D01*
X153769500Y-113470551D01*
X153797829Y-113649410D01*
X153853787Y-113821636D01*
X153853788Y-113821639D01*
X153936006Y-113982997D01*
X154042441Y-114129494D01*
X154042445Y-114129499D01*
X154170500Y-114257554D01*
X154170505Y-114257558D01*
X154298287Y-114350396D01*
X154317006Y-114363996D01*
X154430918Y-114422037D01*
X154481714Y-114470012D01*
X154498509Y-114537833D01*
X154475972Y-114603968D01*
X154421257Y-114647419D01*
X154412943Y-114650452D01*
X154396374Y-114655835D01*
X154396366Y-114655838D01*
X154205055Y-114753317D01*
X154105949Y-114825322D01*
X154031349Y-114879523D01*
X154031347Y-114879525D01*
X154031346Y-114879525D01*
X153879525Y-115031346D01*
X153879525Y-115031347D01*
X153879523Y-115031349D01*
X153825322Y-115105949D01*
X153753317Y-115205055D01*
X153655838Y-115396366D01*
X153655837Y-115396369D01*
X153589489Y-115600571D01*
X153584624Y-115631286D01*
X153555900Y-115812643D01*
X153555900Y-116027357D01*
X153561793Y-116064561D01*
X153589489Y-116239428D01*
X153655837Y-116443630D01*
X153655841Y-116443638D01*
X153677476Y-116486100D01*
X153690372Y-116554769D01*
X153664095Y-116619509D01*
X153606988Y-116659766D01*
X153537183Y-116662758D01*
X153479310Y-116630075D01*
X150636819Y-113787584D01*
X150603334Y-113726261D01*
X150600500Y-113699903D01*
X150600500Y-110300097D01*
X150620185Y-110233058D01*
X150636819Y-110212416D01*
X155212416Y-105636819D01*
X155239343Y-105622115D01*
X155265162Y-105605523D01*
X155271362Y-105604631D01*
X155273739Y-105603334D01*
X155300097Y-105600500D01*
X155420234Y-105600500D01*
X155487273Y-105620185D01*
X155489125Y-105621398D01*
X155620814Y-105709390D01*
X155620827Y-105709397D01*
X155766498Y-105769735D01*
X155766503Y-105769737D01*
X155921153Y-105800499D01*
X155921156Y-105800500D01*
X155921158Y-105800500D01*
X156078844Y-105800500D01*
X156078845Y-105800499D01*
X156233497Y-105769737D01*
X156379179Y-105709394D01*
X156510289Y-105621789D01*
X156621789Y-105510289D01*
X156709394Y-105379179D01*
X156769737Y-105233497D01*
X156800500Y-105078842D01*
X156800500Y-104921158D01*
X156800500Y-104921155D01*
X156800499Y-104921153D01*
X156769738Y-104766510D01*
X156769737Y-104766503D01*
X156713728Y-104631284D01*
X156709397Y-104620827D01*
X156709390Y-104620814D01*
X156621789Y-104489711D01*
X156621786Y-104489707D01*
X156510292Y-104378213D01*
X156510288Y-104378210D01*
X156379185Y-104290609D01*
X156379172Y-104290602D01*
X156233501Y-104230264D01*
X156233489Y-104230261D01*
X156078845Y-104199500D01*
X156078842Y-104199500D01*
X155921158Y-104199500D01*
X155921155Y-104199500D01*
X155766510Y-104230261D01*
X155766498Y-104230264D01*
X155620827Y-104290602D01*
X155620814Y-104290609D01*
X155489125Y-104378602D01*
X155422447Y-104399480D01*
X155420234Y-104399500D01*
X155086669Y-104399500D01*
X155086653Y-104399499D01*
X155079057Y-104399499D01*
X154920943Y-104399499D01*
X154820000Y-104426547D01*
X154768210Y-104440424D01*
X154768209Y-104440425D01*
X154718096Y-104469359D01*
X154718095Y-104469360D01*
X154682853Y-104489707D01*
X154631285Y-104519479D01*
X154631282Y-104519481D01*
X149519481Y-109631282D01*
X149519479Y-109631285D01*
X149474385Y-109709392D01*
X149474384Y-109709393D01*
X149440423Y-109768214D01*
X149440423Y-109768215D01*
X149399499Y-109920943D01*
X149399499Y-109920945D01*
X149399499Y-110089046D01*
X149399500Y-110089059D01*
X149399500Y-113913330D01*
X149399499Y-113913348D01*
X149399499Y-114079054D01*
X149399498Y-114079054D01*
X149415205Y-114137674D01*
X149440423Y-114231785D01*
X149455301Y-114257553D01*
X149461707Y-114268649D01*
X149461709Y-114268652D01*
X149519479Y-114368714D01*
X149519481Y-114368717D01*
X149638349Y-114487585D01*
X149638355Y-114487590D01*
X153338584Y-118187819D01*
X153372069Y-118249142D01*
X153367085Y-118318834D01*
X153325213Y-118374767D01*
X153259749Y-118399184D01*
X153250903Y-118399500D01*
X150300097Y-118399500D01*
X150233058Y-118379815D01*
X150212416Y-118363181D01*
X135636819Y-103787584D01*
X135603334Y-103726261D01*
X135600500Y-103699903D01*
X135600500Y-97300097D01*
X135620185Y-97233058D01*
X135636819Y-97212416D01*
X136568304Y-96280931D01*
X137512418Y-95336816D01*
X137573739Y-95303333D01*
X137600087Y-95300499D01*
X138795008Y-95300499D01*
X138897797Y-95289999D01*
X139064334Y-95234814D01*
X139213656Y-95142712D01*
X139337712Y-95018656D01*
X139429814Y-94869334D01*
X139484999Y-94702797D01*
X139495500Y-94600009D01*
X139495499Y-93399992D01*
X139484999Y-93297203D01*
X139429814Y-93130666D01*
X139404481Y-93089595D01*
X139386042Y-93022204D01*
X139406965Y-92955541D01*
X139460607Y-92910771D01*
X139510021Y-92900500D01*
X144775953Y-92900500D01*
X144842992Y-92920185D01*
X144888747Y-92972989D01*
X144898691Y-93042147D01*
X144869666Y-93105703D01*
X144863634Y-93112181D01*
X144823032Y-93152782D01*
X144823028Y-93152786D01*
X144702715Y-93318386D01*
X144609781Y-93500776D01*
X144546522Y-93695465D01*
X144514500Y-93897648D01*
X144514500Y-94102351D01*
X144546522Y-94304534D01*
X144609781Y-94499223D01*
X144661135Y-94600009D01*
X144680244Y-94637513D01*
X144702715Y-94681613D01*
X144823028Y-94847213D01*
X144967786Y-94991971D01*
X145087359Y-95078844D01*
X145133390Y-95112287D01*
X145224840Y-95158883D01*
X145226080Y-95159515D01*
X145276876Y-95207490D01*
X145293671Y-95275311D01*
X145271134Y-95341446D01*
X145226080Y-95380485D01*
X145133386Y-95427715D01*
X144967786Y-95548028D01*
X144823028Y-95692786D01*
X144702715Y-95858386D01*
X144609781Y-96040776D01*
X144546522Y-96235465D01*
X144514500Y-96437648D01*
X144514500Y-96642351D01*
X144546522Y-96844534D01*
X144609781Y-97039223D01*
X144661385Y-97140500D01*
X144698320Y-97212989D01*
X144702715Y-97221613D01*
X144823028Y-97387213D01*
X144967786Y-97531971D01*
X145105241Y-97631836D01*
X145133390Y-97652287D01*
X145249607Y-97711503D01*
X145315776Y-97745218D01*
X145315778Y-97745218D01*
X145315781Y-97745220D01*
X145420137Y-97779127D01*
X145510465Y-97808477D01*
X145611557Y-97824488D01*
X145712648Y-97840500D01*
X145712649Y-97840500D01*
X145917351Y-97840500D01*
X145917352Y-97840500D01*
X146119534Y-97808477D01*
X146314219Y-97745220D01*
X146496610Y-97652287D01*
X146602109Y-97575638D01*
X146662213Y-97531971D01*
X146662215Y-97531968D01*
X146662219Y-97531966D01*
X146806966Y-97387219D01*
X146806968Y-97387215D01*
X146806971Y-97387213D01*
X146927284Y-97221614D01*
X146927285Y-97221613D01*
X146927287Y-97221610D01*
X146934117Y-97208204D01*
X146982091Y-97157409D01*
X147044602Y-97140500D01*
X147373331Y-97140500D01*
X147373347Y-97140501D01*
X147380943Y-97140501D01*
X147539054Y-97140501D01*
X147539057Y-97140501D01*
X147691785Y-97099577D01*
X147741904Y-97070639D01*
X147828716Y-97020520D01*
X147940520Y-96908716D01*
X147940520Y-96908714D01*
X147950728Y-96898507D01*
X147950730Y-96898504D01*
X148412318Y-96436916D01*
X148420263Y-96432577D01*
X148425689Y-96425330D01*
X148450448Y-96416095D01*
X148473641Y-96403431D01*
X148482670Y-96404076D01*
X148491153Y-96400913D01*
X148516973Y-96406529D01*
X148543333Y-96408415D01*
X148552386Y-96414233D01*
X148559426Y-96415765D01*
X148587680Y-96436916D01*
X148598013Y-96447249D01*
X148631498Y-96508572D01*
X148633690Y-96547532D01*
X148624500Y-96637481D01*
X148624500Y-97362501D01*
X148624501Y-97362519D01*
X148635000Y-97465296D01*
X148635001Y-97465299D01*
X148690185Y-97631831D01*
X148690187Y-97631836D01*
X148702801Y-97652287D01*
X148782288Y-97781156D01*
X148906344Y-97905212D01*
X149055666Y-97997314D01*
X149222203Y-98052499D01*
X149324991Y-98063000D01*
X150675008Y-98062999D01*
X150777797Y-98052499D01*
X150944334Y-97997314D01*
X151093656Y-97905212D01*
X151217712Y-97781156D01*
X151309814Y-97631834D01*
X151364999Y-97465297D01*
X151375500Y-97362509D01*
X151375499Y-96637492D01*
X151373478Y-96617712D01*
X151364999Y-96534703D01*
X151364998Y-96534700D01*
X151338622Y-96455104D01*
X151309814Y-96368166D01*
X151217712Y-96218844D01*
X151093656Y-96094788D01*
X151000888Y-96037569D01*
X150944336Y-96002687D01*
X150944331Y-96002685D01*
X150928116Y-95997312D01*
X150777797Y-95947501D01*
X150777795Y-95947500D01*
X150675016Y-95937000D01*
X150675009Y-95937000D01*
X149837598Y-95937000D01*
X149808157Y-95928355D01*
X149778171Y-95921832D01*
X149773155Y-95918077D01*
X149770559Y-95917315D01*
X149749917Y-95900681D01*
X149636819Y-95787583D01*
X149603334Y-95726260D01*
X149600500Y-95699902D01*
X149600500Y-95579765D01*
X149620185Y-95512726D01*
X149621398Y-95510874D01*
X149709390Y-95379185D01*
X149709390Y-95379184D01*
X149709394Y-95379179D01*
X149711408Y-95374318D01*
X149726940Y-95336818D01*
X149769737Y-95233497D01*
X149800500Y-95078842D01*
X149800500Y-94921158D01*
X149800500Y-94921155D01*
X149800499Y-94921153D01*
X149796292Y-94900001D01*
X149769737Y-94766503D01*
X149758882Y-94740297D01*
X149709397Y-94620827D01*
X149709390Y-94620814D01*
X149621789Y-94489711D01*
X149621786Y-94489707D01*
X149510292Y-94378213D01*
X149510288Y-94378210D01*
X149379185Y-94290609D01*
X149379172Y-94290602D01*
X149233501Y-94230264D01*
X149233489Y-94230261D01*
X149078845Y-94199500D01*
X149078842Y-94199500D01*
X148921158Y-94199500D01*
X148921155Y-94199500D01*
X148766510Y-94230261D01*
X148766498Y-94230264D01*
X148620827Y-94290602D01*
X148620814Y-94290609D01*
X148489711Y-94378210D01*
X148489707Y-94378213D01*
X148378213Y-94489707D01*
X148378210Y-94489711D01*
X148290609Y-94620814D01*
X148290602Y-94620827D01*
X148230264Y-94766498D01*
X148230261Y-94766508D01*
X148199361Y-94921850D01*
X148166976Y-94983761D01*
X148165425Y-94985339D01*
X147247584Y-95903181D01*
X147220656Y-95917884D01*
X147194838Y-95934477D01*
X147188637Y-95935368D01*
X147186261Y-95936666D01*
X147159903Y-95939500D01*
X147044602Y-95939500D01*
X146977563Y-95919815D01*
X146934117Y-95871795D01*
X146927284Y-95858385D01*
X146806971Y-95692786D01*
X146662213Y-95548028D01*
X146496614Y-95427715D01*
X146464182Y-95411190D01*
X146403917Y-95380483D01*
X146353123Y-95332511D01*
X146336328Y-95264690D01*
X146358865Y-95198555D01*
X146403917Y-95159516D01*
X146496610Y-95112287D01*
X146542641Y-95078844D01*
X146662213Y-94991971D01*
X146662215Y-94991968D01*
X146662219Y-94991966D01*
X146806966Y-94847219D01*
X146806968Y-94847215D01*
X146806971Y-94847213D01*
X146877962Y-94749500D01*
X146927287Y-94681610D01*
X147020220Y-94499219D01*
X147083477Y-94304534D01*
X147115500Y-94102352D01*
X147115500Y-93897648D01*
X147093119Y-93756342D01*
X147083477Y-93695465D01*
X147020218Y-93500776D01*
X146968865Y-93399991D01*
X146927287Y-93318390D01*
X146897714Y-93277686D01*
X146806971Y-93152786D01*
X146766366Y-93112181D01*
X146732881Y-93050858D01*
X146737865Y-92981166D01*
X146779737Y-92925233D01*
X146845201Y-92900816D01*
X146854047Y-92900500D01*
X153975500Y-92900500D01*
X154042539Y-92920185D01*
X154088294Y-92972989D01*
X154099500Y-93024500D01*
X154099500Y-93759362D01*
X154079815Y-93826401D01*
X154040598Y-93864899D01*
X154008192Y-93884888D01*
X153931342Y-93932289D01*
X153807289Y-94056342D01*
X153715187Y-94205663D01*
X153715185Y-94205668D01*
X153710820Y-94218842D01*
X153660001Y-94372203D01*
X153660001Y-94372204D01*
X153660000Y-94372204D01*
X153649500Y-94474983D01*
X153649500Y-96075001D01*
X153649501Y-96075018D01*
X153660000Y-96177796D01*
X153660001Y-96177799D01*
X153715185Y-96344331D01*
X153715187Y-96344336D01*
X153729887Y-96368168D01*
X153807288Y-96493656D01*
X153931344Y-96617712D01*
X154040597Y-96685099D01*
X154087321Y-96737047D01*
X154099500Y-96790638D01*
X154099500Y-98088696D01*
X154134103Y-98262659D01*
X154134106Y-98262669D01*
X154149792Y-98300536D01*
X154149793Y-98300539D01*
X154201984Y-98426542D01*
X154201985Y-98426544D01*
X154261063Y-98514960D01*
X154261064Y-98514961D01*
X154300534Y-98574034D01*
X154300535Y-98574035D01*
X164143181Y-108416680D01*
X164176666Y-108478003D01*
X164179500Y-108504361D01*
X164179500Y-112300010D01*
X164159815Y-112367049D01*
X164143181Y-112387691D01*
X164039525Y-112491346D01*
X164039525Y-112491347D01*
X164039523Y-112491349D01*
X163913318Y-112665055D01*
X163910453Y-112668998D01*
X163908562Y-112667624D01*
X163863848Y-112708030D01*
X163794911Y-112719411D01*
X163730765Y-112691715D01*
X163710488Y-112668314D01*
X163709547Y-112668998D01*
X163706682Y-112665055D01*
X163580477Y-112491349D01*
X163428651Y-112339523D01*
X163254944Y-112213317D01*
X163208203Y-112189501D01*
X163063633Y-112115838D01*
X163063630Y-112115837D01*
X162859428Y-112049489D01*
X162753392Y-112032694D01*
X162647357Y-112015900D01*
X162432643Y-112015900D01*
X162361953Y-112027096D01*
X162220571Y-112049489D01*
X162016369Y-112115837D01*
X162016366Y-112115838D01*
X161825055Y-112213317D01*
X161739469Y-112275500D01*
X161651349Y-112339523D01*
X161651347Y-112339525D01*
X161651346Y-112339525D01*
X161499525Y-112491346D01*
X161499525Y-112491347D01*
X161499523Y-112491349D01*
X161479085Y-112519480D01*
X161373317Y-112665055D01*
X161275838Y-112856366D01*
X161275837Y-112856369D01*
X161209489Y-113060571D01*
X161175900Y-113272643D01*
X161175900Y-113487356D01*
X161209489Y-113699428D01*
X161275837Y-113903630D01*
X161275838Y-113903633D01*
X161359652Y-114068125D01*
X161373317Y-114094944D01*
X161499523Y-114268651D01*
X161651349Y-114420477D01*
X161825056Y-114546683D01*
X161909067Y-114589489D01*
X162016366Y-114644161D01*
X162016369Y-114644162D01*
X162052302Y-114655837D01*
X162220573Y-114710511D01*
X162432643Y-114744100D01*
X162432644Y-114744100D01*
X162647356Y-114744100D01*
X162647357Y-114744100D01*
X162859427Y-114710511D01*
X163063633Y-114644161D01*
X163254944Y-114546683D01*
X163428651Y-114420477D01*
X163580477Y-114268651D01*
X163706683Y-114094944D01*
X163706683Y-114094943D01*
X163709547Y-114091002D01*
X163711478Y-114092405D01*
X163755927Y-114052078D01*
X163824840Y-114040558D01*
X163889042Y-114068125D01*
X163909478Y-114091709D01*
X163910453Y-114091002D01*
X163913316Y-114094943D01*
X163913317Y-114094944D01*
X164039523Y-114268651D01*
X164191349Y-114420477D01*
X164365056Y-114546683D01*
X164449067Y-114589489D01*
X164556366Y-114644161D01*
X164556369Y-114644162D01*
X164592302Y-114655837D01*
X164760573Y-114710511D01*
X164972643Y-114744100D01*
X164972644Y-114744100D01*
X165187356Y-114744100D01*
X165187357Y-114744100D01*
X165399427Y-114710511D01*
X165603633Y-114644161D01*
X165794944Y-114546683D01*
X165968651Y-114420477D01*
X166120477Y-114268651D01*
X166246683Y-114094944D01*
X166246683Y-114094943D01*
X166249547Y-114091002D01*
X166251478Y-114092405D01*
X166295927Y-114052078D01*
X166364840Y-114040558D01*
X166429042Y-114068125D01*
X166449478Y-114091709D01*
X166450453Y-114091002D01*
X166453316Y-114094943D01*
X166453317Y-114094944D01*
X166579523Y-114268651D01*
X166731349Y-114420477D01*
X166905056Y-114546683D01*
X166989067Y-114589489D01*
X167096366Y-114644161D01*
X167096369Y-114644162D01*
X167132302Y-114655837D01*
X167300573Y-114710511D01*
X167512643Y-114744100D01*
X167512644Y-114744100D01*
X167727356Y-114744100D01*
X167727357Y-114744100D01*
X167939427Y-114710511D01*
X168143633Y-114644161D01*
X168334944Y-114546683D01*
X168508651Y-114420477D01*
X168660477Y-114268651D01*
X168786683Y-114094944D01*
X168786683Y-114094943D01*
X168789547Y-114091002D01*
X168791478Y-114092405D01*
X168835927Y-114052078D01*
X168904840Y-114040558D01*
X168969042Y-114068125D01*
X168989478Y-114091709D01*
X168990453Y-114091002D01*
X168993316Y-114094943D01*
X168993317Y-114094944D01*
X169119523Y-114268651D01*
X169271349Y-114420477D01*
X169445056Y-114546683D01*
X169529067Y-114589489D01*
X169636366Y-114644161D01*
X169636369Y-114644162D01*
X169672302Y-114655837D01*
X169840573Y-114710511D01*
X170052643Y-114744100D01*
X170052644Y-114744100D01*
X170267356Y-114744100D01*
X170267357Y-114744100D01*
X170479427Y-114710511D01*
X170683633Y-114644161D01*
X170874944Y-114546683D01*
X171048651Y-114420477D01*
X171200477Y-114268651D01*
X171326683Y-114094944D01*
X171326683Y-114094943D01*
X171329547Y-114091002D01*
X171331478Y-114092405D01*
X171375927Y-114052078D01*
X171444840Y-114040558D01*
X171509042Y-114068125D01*
X171529478Y-114091709D01*
X171530453Y-114091002D01*
X171533316Y-114094943D01*
X171533317Y-114094944D01*
X171659523Y-114268651D01*
X171811349Y-114420477D01*
X171985056Y-114546683D01*
X172069067Y-114589489D01*
X172176366Y-114644161D01*
X172176369Y-114644162D01*
X172212302Y-114655837D01*
X172380573Y-114710511D01*
X172592643Y-114744100D01*
X172592644Y-114744100D01*
X172807356Y-114744100D01*
X172807357Y-114744100D01*
X173019427Y-114710511D01*
X173223633Y-114644161D01*
X173414944Y-114546683D01*
X173588651Y-114420477D01*
X173740477Y-114268651D01*
X173866683Y-114094944D01*
X173866683Y-114094943D01*
X173869547Y-114091002D01*
X173871478Y-114092405D01*
X173915927Y-114052078D01*
X173984840Y-114040558D01*
X174049042Y-114068125D01*
X174069478Y-114091709D01*
X174070453Y-114091002D01*
X174073316Y-114094943D01*
X174073317Y-114094944D01*
X174199523Y-114268651D01*
X174351349Y-114420477D01*
X174525056Y-114546683D01*
X174609067Y-114589489D01*
X174716366Y-114644161D01*
X174716369Y-114644162D01*
X174752302Y-114655837D01*
X174920573Y-114710511D01*
X175132643Y-114744100D01*
X175132644Y-114744100D01*
X175347356Y-114744100D01*
X175347357Y-114744100D01*
X175559427Y-114710511D01*
X175763633Y-114644161D01*
X175954944Y-114546683D01*
X176128651Y-114420477D01*
X176280477Y-114268651D01*
X176406683Y-114094944D01*
X176406683Y-114094943D01*
X176409547Y-114091002D01*
X176411478Y-114092405D01*
X176455927Y-114052078D01*
X176524840Y-114040558D01*
X176589042Y-114068125D01*
X176609478Y-114091709D01*
X176610453Y-114091002D01*
X176613316Y-114094943D01*
X176613317Y-114094944D01*
X176739523Y-114268651D01*
X176891349Y-114420477D01*
X176983715Y-114487585D01*
X177065057Y-114546684D01*
X177111794Y-114570497D01*
X177122857Y-114580946D01*
X177136703Y-114587269D01*
X177147744Y-114604450D01*
X177162590Y-114618471D01*
X177166831Y-114634150D01*
X177174477Y-114646047D01*
X177179500Y-114680982D01*
X177179500Y-114693330D01*
X177179499Y-114693348D01*
X177179499Y-114859054D01*
X177179498Y-114859054D01*
X177179499Y-114859057D01*
X177220423Y-115011785D01*
X177231717Y-115031347D01*
X177249358Y-115061900D01*
X177249359Y-115061904D01*
X177249360Y-115061904D01*
X177299479Y-115148714D01*
X177299481Y-115148717D01*
X177418349Y-115267585D01*
X177418354Y-115267589D01*
X178631284Y-116480520D01*
X178631286Y-116480521D01*
X178631290Y-116480524D01*
X178768209Y-116559573D01*
X178768212Y-116559575D01*
X178768216Y-116559577D01*
X178920943Y-116600501D01*
X178920945Y-116600501D01*
X179086654Y-116600501D01*
X179086670Y-116600500D01*
X201913331Y-116600500D01*
X201913347Y-116600501D01*
X201920943Y-116600501D01*
X202079054Y-116600501D01*
X202079057Y-116600501D01*
X202231785Y-116559577D01*
X202320443Y-116508390D01*
X202368716Y-116480520D01*
X202480520Y-116368716D01*
X202480520Y-116368714D01*
X202490724Y-116358511D01*
X202490728Y-116358506D01*
X204986902Y-113862332D01*
X221899500Y-113862332D01*
X221899500Y-114137667D01*
X221899501Y-114137684D01*
X221935438Y-114410655D01*
X221935439Y-114410660D01*
X221935440Y-114410666D01*
X221956050Y-114487585D01*
X222006704Y-114676630D01*
X222112075Y-114931017D01*
X222112080Y-114931028D01*
X222170000Y-115031347D01*
X222249751Y-115169479D01*
X222249753Y-115169482D01*
X222249754Y-115169483D01*
X222417370Y-115387926D01*
X222417376Y-115387933D01*
X222612066Y-115582623D01*
X222612073Y-115582629D01*
X222740403Y-115681099D01*
X222830521Y-115750249D01*
X222983778Y-115838732D01*
X223068971Y-115887919D01*
X223068976Y-115887921D01*
X223068979Y-115887923D01*
X223323368Y-115993295D01*
X223589334Y-116064560D01*
X223862326Y-116100500D01*
X223862333Y-116100500D01*
X224137667Y-116100500D01*
X224137674Y-116100500D01*
X224410666Y-116064560D01*
X224676632Y-115993295D01*
X224931021Y-115887923D01*
X225169479Y-115750249D01*
X225387928Y-115582628D01*
X225582628Y-115387928D01*
X225750249Y-115169479D01*
X225887923Y-114931021D01*
X225993295Y-114676632D01*
X226064560Y-114410666D01*
X226100500Y-114137674D01*
X226100500Y-113862326D01*
X226064560Y-113589334D01*
X225993295Y-113323368D01*
X225887923Y-113068979D01*
X225887921Y-113068976D01*
X225887919Y-113068971D01*
X225823742Y-112957815D01*
X225750249Y-112830521D01*
X225602793Y-112638352D01*
X225582629Y-112612073D01*
X225582623Y-112612066D01*
X225387933Y-112417376D01*
X225387926Y-112417370D01*
X225169483Y-112249754D01*
X225169482Y-112249753D01*
X225169479Y-112249751D01*
X225065123Y-112189501D01*
X224931028Y-112112080D01*
X224931017Y-112112075D01*
X224676630Y-112006704D01*
X224543649Y-111971072D01*
X224410666Y-111935440D01*
X224410660Y-111935439D01*
X224410655Y-111935438D01*
X224137684Y-111899501D01*
X224137679Y-111899500D01*
X224137674Y-111899500D01*
X223862326Y-111899500D01*
X223862320Y-111899500D01*
X223862315Y-111899501D01*
X223589344Y-111935438D01*
X223589337Y-111935439D01*
X223589334Y-111935440D01*
X223533125Y-111950500D01*
X223323369Y-112006704D01*
X223068982Y-112112075D01*
X223068971Y-112112080D01*
X222830516Y-112249754D01*
X222612073Y-112417370D01*
X222612066Y-112417376D01*
X222417376Y-112612066D01*
X222417370Y-112612073D01*
X222249754Y-112830516D01*
X222112080Y-113068971D01*
X222112075Y-113068982D01*
X222006704Y-113323369D01*
X221935441Y-113589331D01*
X221935438Y-113589344D01*
X221899501Y-113862315D01*
X221899500Y-113862332D01*
X204986902Y-113862332D01*
X217868713Y-100980521D01*
X217868716Y-100980520D01*
X217980520Y-100868716D01*
X218030639Y-100781904D01*
X218059577Y-100731785D01*
X218100500Y-100579058D01*
X218100500Y-100420943D01*
X218100500Y-96710718D01*
X218120185Y-96643679D01*
X218168207Y-96600233D01*
X218207815Y-96580052D01*
X218207815Y-96580051D01*
X218207816Y-96580051D01*
X218306199Y-96508572D01*
X218379786Y-96455109D01*
X218379788Y-96455106D01*
X218379792Y-96455104D01*
X218530104Y-96304792D01*
X218530106Y-96304788D01*
X218530109Y-96304786D01*
X218655048Y-96132820D01*
X218655050Y-96132817D01*
X218655051Y-96132816D01*
X218751557Y-95943412D01*
X218817246Y-95741243D01*
X218850500Y-95531287D01*
X218850500Y-95018713D01*
X218850500Y-95018712D01*
X218850118Y-95013862D01*
X218851191Y-95013777D01*
X218859482Y-94949608D01*
X218904476Y-94896155D01*
X218971227Y-94875513D01*
X218973002Y-94875500D01*
X221601652Y-94875500D01*
X221668691Y-94895185D01*
X221707189Y-94934401D01*
X221782288Y-95056156D01*
X221906344Y-95180212D01*
X222055666Y-95272314D01*
X222222203Y-95327499D01*
X222324991Y-95338000D01*
X223675008Y-95337999D01*
X223777797Y-95327499D01*
X223944334Y-95272314D01*
X224093656Y-95180212D01*
X224217712Y-95056156D01*
X224309814Y-94906834D01*
X224364999Y-94740297D01*
X224375500Y-94637509D01*
X224375499Y-93912492D01*
X224374801Y-93905663D01*
X224364999Y-93809703D01*
X224364998Y-93809700D01*
X224359954Y-93794479D01*
X224309814Y-93643166D01*
X224217712Y-93493844D01*
X224093656Y-93369788D01*
X224000888Y-93312569D01*
X223944336Y-93277687D01*
X223944331Y-93277685D01*
X223942862Y-93277198D01*
X223777797Y-93222501D01*
X223777795Y-93222500D01*
X223675010Y-93212000D01*
X222324998Y-93212000D01*
X222324981Y-93212001D01*
X222222203Y-93222500D01*
X222222200Y-93222501D01*
X222055668Y-93277685D01*
X222055663Y-93277687D01*
X221906342Y-93369789D01*
X221782289Y-93493842D01*
X221707191Y-93615597D01*
X221655243Y-93662321D01*
X221601652Y-93674500D01*
X218586670Y-93674500D01*
X218586654Y-93674499D01*
X218579058Y-93674499D01*
X218420943Y-93674499D01*
X218344579Y-93694961D01*
X218268214Y-93715423D01*
X218268209Y-93715426D01*
X218131283Y-93794479D01*
X218131282Y-93794479D01*
X218097733Y-93828028D01*
X218036409Y-93861512D01*
X217971737Y-93858276D01*
X217816244Y-93807754D01*
X217816240Y-93807753D01*
X217654957Y-93782208D01*
X217606287Y-93774500D01*
X217393713Y-93774500D01*
X217345042Y-93782208D01*
X217183760Y-93807753D01*
X217183757Y-93807754D01*
X217007878Y-93864901D01*
X216981585Y-93873444D01*
X216792179Y-93969951D01*
X216620215Y-94094889D01*
X216481398Y-94233706D01*
X216420075Y-94267190D01*
X216350383Y-94262206D01*
X216294450Y-94220334D01*
X216288178Y-94211120D01*
X216192712Y-94056344D01*
X216068657Y-93932289D01*
X216068656Y-93932288D01*
X215959402Y-93864900D01*
X215912679Y-93812953D01*
X215900500Y-93759362D01*
X215900500Y-91424361D01*
X215920185Y-91357322D01*
X215936819Y-91336680D01*
X226199463Y-81074036D01*
X226241622Y-81010941D01*
X226298013Y-80926547D01*
X226365894Y-80762666D01*
X226378379Y-80699903D01*
X226400499Y-80588695D01*
X226400500Y-80588693D01*
X226400500Y-69911308D01*
X226400499Y-69911304D01*
X226365896Y-69737341D01*
X226365895Y-69737334D01*
X226300339Y-69579071D01*
X226298695Y-69574474D01*
X226199465Y-69425966D01*
X226199464Y-69425965D01*
X226074035Y-69300536D01*
X205790804Y-49017304D01*
X205757319Y-48955981D01*
X205762303Y-48886289D01*
X205779218Y-48855312D01*
X205842944Y-48770185D01*
X205863796Y-48742331D01*
X205914091Y-48607483D01*
X205920500Y-48547873D01*
X205920499Y-46889778D01*
X215139500Y-46889778D01*
X215139500Y-47110221D01*
X215173985Y-47327952D01*
X215242103Y-47537603D01*
X215242104Y-47537606D01*
X215296534Y-47644428D01*
X215324800Y-47699903D01*
X215342187Y-47734025D01*
X215471752Y-47912358D01*
X215471756Y-47912363D01*
X215627636Y-48068243D01*
X215627641Y-48068247D01*
X215757281Y-48162435D01*
X215805978Y-48197815D01*
X215928999Y-48260498D01*
X216002393Y-48297895D01*
X216002396Y-48297896D01*
X216067097Y-48318918D01*
X216212049Y-48366015D01*
X216429778Y-48400500D01*
X216429779Y-48400500D01*
X216650221Y-48400500D01*
X216650222Y-48400500D01*
X216867951Y-48366015D01*
X217077606Y-48297895D01*
X217274022Y-48197815D01*
X217452365Y-48068242D01*
X217608242Y-47912365D01*
X217737815Y-47734022D01*
X217837895Y-47537606D01*
X217906015Y-47327951D01*
X217940500Y-47110222D01*
X217940500Y-46889778D01*
X217936153Y-46862332D01*
X221899500Y-46862332D01*
X221899500Y-47137667D01*
X221899501Y-47137684D01*
X221935438Y-47410655D01*
X221935439Y-47410660D01*
X221935440Y-47410666D01*
X221969453Y-47537606D01*
X222006704Y-47676630D01*
X222112075Y-47931017D01*
X222112080Y-47931028D01*
X222183462Y-48054664D01*
X222249751Y-48169479D01*
X222249753Y-48169482D01*
X222249754Y-48169483D01*
X222417370Y-48387926D01*
X222417376Y-48387933D01*
X222612066Y-48582623D01*
X222612073Y-48582629D01*
X222697298Y-48648024D01*
X222830521Y-48750249D01*
X222983778Y-48838732D01*
X223068971Y-48887919D01*
X223068976Y-48887921D01*
X223068979Y-48887923D01*
X223323368Y-48993295D01*
X223589334Y-49064560D01*
X223862326Y-49100500D01*
X223862333Y-49100500D01*
X224137667Y-49100500D01*
X224137674Y-49100500D01*
X224410666Y-49064560D01*
X224676632Y-48993295D01*
X224931021Y-48887923D01*
X225169479Y-48750249D01*
X225387928Y-48582628D01*
X225582628Y-48387928D01*
X225750249Y-48169479D01*
X225887923Y-47931021D01*
X225993295Y-47676632D01*
X226064560Y-47410666D01*
X226100500Y-47137674D01*
X226100500Y-46862326D01*
X226064560Y-46589334D01*
X225993295Y-46323368D01*
X225887923Y-46068979D01*
X225887921Y-46068976D01*
X225887919Y-46068971D01*
X225822503Y-45955668D01*
X225750249Y-45830521D01*
X225646222Y-45694950D01*
X225582629Y-45612073D01*
X225582623Y-45612066D01*
X225387933Y-45417376D01*
X225387926Y-45417370D01*
X225169483Y-45249754D01*
X225169482Y-45249753D01*
X225169479Y-45249751D01*
X225070385Y-45192539D01*
X224931028Y-45112080D01*
X224931017Y-45112075D01*
X224676630Y-45006704D01*
X224543649Y-44971072D01*
X224410666Y-44935440D01*
X224410660Y-44935439D01*
X224410655Y-44935438D01*
X224137684Y-44899501D01*
X224137679Y-44899500D01*
X224137674Y-44899500D01*
X223862326Y-44899500D01*
X223862320Y-44899500D01*
X223862315Y-44899501D01*
X223589344Y-44935438D01*
X223589337Y-44935439D01*
X223589334Y-44935440D01*
X223562840Y-44942539D01*
X223323369Y-45006704D01*
X223068982Y-45112075D01*
X223068971Y-45112080D01*
X222830516Y-45249754D01*
X222612073Y-45417370D01*
X222612066Y-45417376D01*
X222417376Y-45612066D01*
X222417370Y-45612073D01*
X222249754Y-45830516D01*
X222112080Y-46068971D01*
X222112075Y-46068982D01*
X222006704Y-46323369D01*
X221935441Y-46589331D01*
X221935438Y-46589344D01*
X221899501Y-46862315D01*
X221899500Y-46862332D01*
X217936153Y-46862332D01*
X217906015Y-46672049D01*
X217856443Y-46519480D01*
X217837896Y-46462396D01*
X217837895Y-46462393D01*
X217803237Y-46394375D01*
X217737815Y-46265978D01*
X217721260Y-46243192D01*
X217608247Y-46087641D01*
X217608243Y-46087636D01*
X217452363Y-45931756D01*
X217452358Y-45931752D01*
X217274023Y-45802185D01*
X217130704Y-45729159D01*
X217079909Y-45681185D01*
X217063000Y-45618675D01*
X217063000Y-41398347D01*
X217082685Y-41331308D01*
X217121901Y-41292810D01*
X217243656Y-41217712D01*
X217367712Y-41093656D01*
X217459814Y-40944334D01*
X217514999Y-40777797D01*
X217525500Y-40675009D01*
X217525499Y-39862332D01*
X221899500Y-39862332D01*
X221899500Y-40137667D01*
X221899501Y-40137684D01*
X221935438Y-40410655D01*
X221935439Y-40410660D01*
X221935440Y-40410666D01*
X221939725Y-40426657D01*
X222006704Y-40676630D01*
X222112075Y-40931017D01*
X222112080Y-40931028D01*
X222191809Y-41069121D01*
X222249751Y-41169479D01*
X222249753Y-41169482D01*
X222249754Y-41169483D01*
X222417370Y-41387926D01*
X222417376Y-41387933D01*
X222612066Y-41582623D01*
X222612072Y-41582628D01*
X222830521Y-41750249D01*
X222983778Y-41838732D01*
X223068971Y-41887919D01*
X223068976Y-41887921D01*
X223068979Y-41887923D01*
X223323368Y-41993295D01*
X223589334Y-42064560D01*
X223862326Y-42100500D01*
X223862333Y-42100500D01*
X224137667Y-42100500D01*
X224137674Y-42100500D01*
X224410666Y-42064560D01*
X224676632Y-41993295D01*
X224931021Y-41887923D01*
X225169479Y-41750249D01*
X225387928Y-41582628D01*
X225582628Y-41387928D01*
X225750249Y-41169479D01*
X225887923Y-40931021D01*
X225993295Y-40676632D01*
X226064560Y-40410666D01*
X226100500Y-40137674D01*
X226100500Y-39862326D01*
X226064560Y-39589334D01*
X225993295Y-39323368D01*
X225887923Y-39068979D01*
X225887921Y-39068976D01*
X225887919Y-39068971D01*
X225838732Y-38983778D01*
X225750249Y-38830521D01*
X225649714Y-38699500D01*
X225582629Y-38612073D01*
X225582623Y-38612066D01*
X225387933Y-38417376D01*
X225387926Y-38417370D01*
X225169483Y-38249754D01*
X225169482Y-38249753D01*
X225169479Y-38249751D01*
X225074407Y-38194861D01*
X224931028Y-38112080D01*
X224931017Y-38112075D01*
X224676630Y-38006704D01*
X224543649Y-37971072D01*
X224410666Y-37935440D01*
X224410660Y-37935439D01*
X224410655Y-37935438D01*
X224137684Y-37899501D01*
X224137679Y-37899500D01*
X224137674Y-37899500D01*
X223862326Y-37899500D01*
X223862320Y-37899500D01*
X223862315Y-37899501D01*
X223589344Y-37935438D01*
X223589337Y-37935439D01*
X223589334Y-37935440D01*
X223533125Y-37950500D01*
X223323369Y-38006704D01*
X223068982Y-38112075D01*
X223068971Y-38112080D01*
X222830516Y-38249754D01*
X222612073Y-38417370D01*
X222612066Y-38417376D01*
X222417376Y-38612066D01*
X222417370Y-38612073D01*
X222249754Y-38830516D01*
X222112080Y-39068971D01*
X222112075Y-39068982D01*
X222006704Y-39323369D01*
X221935441Y-39589331D01*
X221935438Y-39589344D01*
X221899501Y-39862315D01*
X221899500Y-39862332D01*
X217525499Y-39862332D01*
X217525499Y-39324992D01*
X217514999Y-39222203D01*
X217459814Y-39055666D01*
X217367712Y-38906344D01*
X217243656Y-38782288D01*
X217150888Y-38725069D01*
X217094336Y-38690187D01*
X217094331Y-38690185D01*
X217092862Y-38689698D01*
X216927797Y-38635001D01*
X216927795Y-38635000D01*
X216825010Y-38624500D01*
X216099998Y-38624500D01*
X216099980Y-38624501D01*
X215997203Y-38635000D01*
X215997200Y-38635001D01*
X215830668Y-38690185D01*
X215830663Y-38690187D01*
X215681342Y-38782289D01*
X215557289Y-38906342D01*
X215465187Y-39055663D01*
X215465185Y-39055668D01*
X215437349Y-39139670D01*
X215410001Y-39222203D01*
X215410001Y-39222204D01*
X215410000Y-39222204D01*
X215399500Y-39324983D01*
X215399500Y-40675001D01*
X215399501Y-40675018D01*
X215410000Y-40777796D01*
X215410001Y-40777799D01*
X215460777Y-40931028D01*
X215465186Y-40944334D01*
X215557288Y-41093656D01*
X215681344Y-41217712D01*
X215803097Y-41292809D01*
X215849821Y-41344755D01*
X215862000Y-41398347D01*
X215862000Y-45698411D01*
X215842315Y-45765450D01*
X215809002Y-45798059D01*
X215809919Y-45799321D01*
X215627641Y-45931752D01*
X215627636Y-45931756D01*
X215471756Y-46087636D01*
X215471752Y-46087641D01*
X215342187Y-46265974D01*
X215242104Y-46462393D01*
X215242103Y-46462396D01*
X215173985Y-46672047D01*
X215139500Y-46889778D01*
X205920499Y-46889778D01*
X205920499Y-45452128D01*
X205914091Y-45392517D01*
X205909857Y-45381166D01*
X205863797Y-45257671D01*
X205863793Y-45257664D01*
X205777547Y-45142455D01*
X205777544Y-45142452D01*
X205662335Y-45056206D01*
X205662328Y-45056202D01*
X205527482Y-45005908D01*
X205527483Y-45005908D01*
X205467883Y-44999501D01*
X205467881Y-44999500D01*
X205467873Y-44999500D01*
X205467865Y-44999500D01*
X204644500Y-44999500D01*
X204577461Y-44979815D01*
X204531706Y-44927011D01*
X204520500Y-44875500D01*
X204520500Y-43380097D01*
X204540185Y-43313058D01*
X204556819Y-43292416D01*
X207212417Y-40636819D01*
X207273740Y-40603334D01*
X207300098Y-40600500D01*
X212354911Y-40600500D01*
X212421950Y-40620185D01*
X212467705Y-40672989D01*
X212478269Y-40711898D01*
X212485001Y-40777797D01*
X212485001Y-40777799D01*
X212535777Y-40931028D01*
X212540186Y-40944334D01*
X212632288Y-41093656D01*
X212756344Y-41217712D01*
X212905666Y-41309814D01*
X213072203Y-41364999D01*
X213174991Y-41375500D01*
X213900008Y-41375499D01*
X213900016Y-41375498D01*
X213900019Y-41375498D01*
X213956302Y-41369748D01*
X214002797Y-41364999D01*
X214169334Y-41309814D01*
X214318656Y-41217712D01*
X214442712Y-41093656D01*
X214534814Y-40944334D01*
X214589999Y-40777797D01*
X214600500Y-40675009D01*
X214600499Y-39324992D01*
X214589999Y-39222203D01*
X214534814Y-39055666D01*
X214442712Y-38906344D01*
X214318656Y-38782288D01*
X214225888Y-38725069D01*
X214169336Y-38690187D01*
X214169331Y-38690185D01*
X214167862Y-38689698D01*
X214002797Y-38635001D01*
X214002795Y-38635000D01*
X213900010Y-38624500D01*
X213174998Y-38624500D01*
X213174980Y-38624501D01*
X213072203Y-38635000D01*
X213072200Y-38635001D01*
X212905668Y-38690185D01*
X212905663Y-38690187D01*
X212756342Y-38782289D01*
X212632289Y-38906342D01*
X212540187Y-39055663D01*
X212540185Y-39055668D01*
X212512349Y-39139670D01*
X212504310Y-39163934D01*
X212485001Y-39222204D01*
X212485000Y-39222205D01*
X212478268Y-39288103D01*
X212451871Y-39352795D01*
X212394690Y-39392946D01*
X212354910Y-39399500D01*
X207086670Y-39399500D01*
X207086654Y-39399499D01*
X207079058Y-39399499D01*
X206920943Y-39399499D01*
X206844579Y-39419961D01*
X206768214Y-39440423D01*
X206768209Y-39440426D01*
X206631290Y-39519475D01*
X206631282Y-39519481D01*
X203439481Y-42711282D01*
X203439475Y-42711290D01*
X203402181Y-42775887D01*
X203402181Y-42775888D01*
X203360423Y-42848215D01*
X203319499Y-43000943D01*
X203319499Y-43000945D01*
X203319499Y-43169046D01*
X203319500Y-43169059D01*
X203319500Y-44875500D01*
X203299815Y-44942539D01*
X203247011Y-44988294D01*
X203195500Y-44999500D01*
X202372129Y-44999500D01*
X202372123Y-44999501D01*
X202312516Y-45005908D01*
X202177671Y-45056202D01*
X202177664Y-45056206D01*
X202062455Y-45142452D01*
X202062452Y-45142455D01*
X201976206Y-45257664D01*
X201976202Y-45257671D01*
X201925908Y-45392517D01*
X201919636Y-45450858D01*
X201919501Y-45452123D01*
X201919500Y-45452135D01*
X201919500Y-48547870D01*
X201919501Y-48547876D01*
X201925908Y-48607483D01*
X201976202Y-48742328D01*
X201976206Y-48742335D01*
X202062452Y-48857544D01*
X202062455Y-48857547D01*
X202177664Y-48943793D01*
X202177671Y-48943797D01*
X202312517Y-48994091D01*
X202312516Y-48994091D01*
X202319444Y-48994835D01*
X202372127Y-49000500D01*
X203175637Y-49000499D01*
X203242676Y-49020183D01*
X203263318Y-49036818D01*
X224563181Y-70336680D01*
X224596666Y-70398003D01*
X224599500Y-70424361D01*
X224599500Y-80075637D01*
X224579815Y-80142676D01*
X224563181Y-80163318D01*
X214300538Y-90425960D01*
X214300537Y-90425961D01*
X214261064Y-90485039D01*
X214261063Y-90485040D01*
X214201985Y-90573455D01*
X214168046Y-90655393D01*
X214134106Y-90737329D01*
X214134103Y-90737341D01*
X214099500Y-90911303D01*
X214099500Y-93759362D01*
X214079815Y-93826401D01*
X214040598Y-93864899D01*
X214008192Y-93884888D01*
X213931342Y-93932289D01*
X213807289Y-94056342D01*
X213715187Y-94205663D01*
X213715185Y-94205668D01*
X213710820Y-94218842D01*
X213660001Y-94372203D01*
X213660001Y-94372204D01*
X213660000Y-94372204D01*
X213649500Y-94474983D01*
X213649500Y-96075001D01*
X213649501Y-96075018D01*
X213660000Y-96177796D01*
X213660001Y-96177799D01*
X213715185Y-96344331D01*
X213715187Y-96344336D01*
X213729887Y-96368168D01*
X213807288Y-96493656D01*
X213931344Y-96617712D01*
X214040597Y-96685099D01*
X214087321Y-96737047D01*
X214099500Y-96790638D01*
X214099500Y-98575638D01*
X214079815Y-98642677D01*
X214063181Y-98663319D01*
X207612819Y-105113681D01*
X207551496Y-105147166D01*
X207525138Y-105150000D01*
X203724500Y-105150000D01*
X203657461Y-105130315D01*
X203611706Y-105077511D01*
X203600500Y-105026000D01*
X203600500Y-95503439D01*
X203620185Y-95436400D01*
X203672989Y-95390645D01*
X203742147Y-95380701D01*
X203805703Y-95409726D01*
X203827602Y-95434548D01*
X203878210Y-95510288D01*
X203878213Y-95510292D01*
X203989707Y-95621786D01*
X203989711Y-95621789D01*
X204120814Y-95709390D01*
X204120827Y-95709397D01*
X204266498Y-95769735D01*
X204266503Y-95769737D01*
X204421153Y-95800499D01*
X204421156Y-95800500D01*
X204421158Y-95800500D01*
X204578844Y-95800500D01*
X204578845Y-95800499D01*
X204733497Y-95769737D01*
X204879179Y-95709394D01*
X204995256Y-95631834D01*
X205010875Y-95621398D01*
X205077553Y-95600520D01*
X205079766Y-95600500D01*
X206601652Y-95600500D01*
X206668691Y-95620185D01*
X206707189Y-95659401D01*
X206782288Y-95781156D01*
X206906344Y-95905212D01*
X207055666Y-95997314D01*
X207222203Y-96052499D01*
X207324991Y-96063000D01*
X208675008Y-96062999D01*
X208777797Y-96052499D01*
X208944334Y-95997314D01*
X209093656Y-95905212D01*
X209217712Y-95781156D01*
X209309814Y-95631834D01*
X209364999Y-95465297D01*
X209375500Y-95362509D01*
X209375499Y-94637492D01*
X209373795Y-94620814D01*
X209364999Y-94534703D01*
X209364998Y-94534700D01*
X209353241Y-94499219D01*
X209309814Y-94368166D01*
X209217712Y-94218844D01*
X209093656Y-94094788D01*
X208944334Y-94002686D01*
X208777797Y-93947501D01*
X208777795Y-93947500D01*
X208675010Y-93937000D01*
X207324998Y-93937000D01*
X207324981Y-93937001D01*
X207222203Y-93947500D01*
X207222200Y-93947501D01*
X207055668Y-94002685D01*
X207055663Y-94002687D01*
X206906342Y-94094789D01*
X206782289Y-94218842D01*
X206759208Y-94256263D01*
X206715571Y-94327011D01*
X206707191Y-94340597D01*
X206655243Y-94387321D01*
X206601652Y-94399500D01*
X205224500Y-94399500D01*
X205157461Y-94379815D01*
X205111706Y-94327011D01*
X205100500Y-94275500D01*
X205100500Y-74875443D01*
X205120185Y-74808404D01*
X205172989Y-74762649D01*
X205242147Y-74752705D01*
X205305703Y-74781730D01*
X205312181Y-74787762D01*
X206843333Y-76318915D01*
X206843338Y-76318919D01*
X206843339Y-76318920D01*
X206934363Y-76388765D01*
X207025388Y-76458611D01*
X207124750Y-76515977D01*
X207128266Y-76518007D01*
X207128269Y-76518009D01*
X207130817Y-76519480D01*
X207224112Y-76573345D01*
X207363991Y-76631284D01*
X207436113Y-76661158D01*
X207474781Y-76671519D01*
X207657761Y-76720549D01*
X207828389Y-76743012D01*
X207885265Y-76750500D01*
X207885266Y-76750500D01*
X222114727Y-76750500D01*
X222114734Y-76750500D01*
X222342238Y-76720548D01*
X222563887Y-76661158D01*
X222775888Y-76573344D01*
X222974612Y-76458611D01*
X223156661Y-76318919D01*
X223156665Y-76318914D01*
X223156670Y-76318911D01*
X223318911Y-76156670D01*
X223318914Y-76156665D01*
X223318919Y-76156661D01*
X223458611Y-75974612D01*
X223573344Y-75775888D01*
X223661158Y-75563887D01*
X223720548Y-75342238D01*
X223750500Y-75114734D01*
X223750500Y-74885266D01*
X223720548Y-74657762D01*
X223661158Y-74436113D01*
X223573344Y-74224112D01*
X223458611Y-74025388D01*
X223367910Y-73907185D01*
X223342717Y-73842018D01*
X223356755Y-73773573D01*
X223367016Y-73757394D01*
X223443796Y-73654831D01*
X223494091Y-73519983D01*
X223500500Y-73460373D01*
X223500499Y-71459628D01*
X223494091Y-71400017D01*
X223480176Y-71362710D01*
X223443797Y-71265171D01*
X223443793Y-71265164D01*
X223357547Y-71149955D01*
X223357544Y-71149952D01*
X223242335Y-71063706D01*
X223242328Y-71063702D01*
X223107482Y-71013408D01*
X223107483Y-71013408D01*
X223047883Y-71007001D01*
X223047881Y-71007000D01*
X223047873Y-71007000D01*
X223047864Y-71007000D01*
X220952129Y-71007000D01*
X220952123Y-71007001D01*
X220892516Y-71013408D01*
X220757671Y-71063702D01*
X220757664Y-71063706D01*
X220642455Y-71149952D01*
X220642452Y-71149955D01*
X220556206Y-71265164D01*
X220556202Y-71265171D01*
X220505908Y-71400017D01*
X220500017Y-71454814D01*
X220499500Y-71459627D01*
X220499500Y-72342240D01*
X220499501Y-73125500D01*
X220479816Y-73192539D01*
X220427013Y-73238294D01*
X220375501Y-73249500D01*
X208776443Y-73249500D01*
X208709404Y-73229815D01*
X208688762Y-73213181D01*
X188786819Y-53311238D01*
X188753334Y-53249915D01*
X188750500Y-53223557D01*
X188750500Y-48002269D01*
X188767113Y-47940269D01*
X188798043Y-47886697D01*
X188898398Y-47644419D01*
X188966270Y-47391116D01*
X189000500Y-47131120D01*
X189000500Y-46868880D01*
X188966270Y-46608884D01*
X188898398Y-46355581D01*
X188888459Y-46331585D01*
X188798046Y-46113309D01*
X188798041Y-46113299D01*
X188666924Y-45886196D01*
X188539358Y-45719951D01*
X188507282Y-45678149D01*
X188507281Y-45678148D01*
X188507274Y-45678140D01*
X188341315Y-45512181D01*
X188330702Y-45492744D01*
X188316202Y-45476011D01*
X188314285Y-45462679D01*
X188307830Y-45450858D01*
X188309409Y-45428771D01*
X188306258Y-45406853D01*
X188311853Y-45394601D01*
X188312814Y-45381166D01*
X188326084Y-45363439D01*
X188335283Y-45343297D01*
X188346614Y-45336014D01*
X188354686Y-45325233D01*
X188375431Y-45317495D01*
X188394061Y-45305523D01*
X188415979Y-45302371D01*
X188420150Y-45300816D01*
X188428996Y-45300500D01*
X188581526Y-45300500D01*
X188648565Y-45320185D01*
X188669207Y-45336819D01*
X189583181Y-46250793D01*
X189616666Y-46312116D01*
X189619500Y-46338474D01*
X189619500Y-47162143D01*
X189629054Y-47259152D01*
X189651284Y-47484857D01*
X189651287Y-47484874D01*
X189714545Y-47802902D01*
X189714548Y-47802913D01*
X189808686Y-48113247D01*
X189858829Y-48234302D01*
X189914504Y-48368714D01*
X189932786Y-48412849D01*
X189932788Y-48412854D01*
X190085646Y-48698830D01*
X190085657Y-48698848D01*
X190265811Y-48968467D01*
X190265821Y-48968481D01*
X190471546Y-49219158D01*
X190700841Y-49448453D01*
X190700846Y-49448457D01*
X190700847Y-49448458D01*
X190951524Y-49654183D01*
X191221158Y-49834347D01*
X191221167Y-49834352D01*
X191221169Y-49834353D01*
X191507145Y-49987211D01*
X191507147Y-49987211D01*
X191507153Y-49987215D01*
X191806754Y-50111314D01*
X192117077Y-50205449D01*
X192117083Y-50205450D01*
X192117086Y-50205451D01*
X192117097Y-50205454D01*
X192316528Y-50245122D01*
X192435132Y-50268714D01*
X192757857Y-50300500D01*
X192757860Y-50300500D01*
X193082140Y-50300500D01*
X193082143Y-50300500D01*
X193404868Y-50268714D01*
X193562295Y-50237399D01*
X193722902Y-50205454D01*
X193722913Y-50205451D01*
X193722913Y-50205450D01*
X193722923Y-50205449D01*
X194033246Y-50111314D01*
X194332847Y-49987215D01*
X194618842Y-49834347D01*
X194888476Y-49654183D01*
X195139153Y-49448458D01*
X195368458Y-49219153D01*
X195574183Y-48968476D01*
X195754347Y-48698842D01*
X195907215Y-48412847D01*
X196031314Y-48113246D01*
X196125449Y-47802923D01*
X196125451Y-47802913D01*
X196125454Y-47802902D01*
X196157399Y-47642295D01*
X196188714Y-47484868D01*
X196220500Y-47162143D01*
X196220500Y-44757857D01*
X196188714Y-44435132D01*
X196165122Y-44316528D01*
X196125454Y-44117097D01*
X196125451Y-44117086D01*
X196125450Y-44117083D01*
X196125449Y-44117077D01*
X196031314Y-43806754D01*
X195907215Y-43507153D01*
X195754347Y-43221158D01*
X195754345Y-43221155D01*
X195754344Y-43221152D01*
X195738258Y-43197078D01*
X195607206Y-43000945D01*
X195574184Y-42951524D01*
X195368459Y-42700847D01*
X195368458Y-42700846D01*
X195368454Y-42700841D01*
X192219159Y-39551546D01*
X191968481Y-39345820D01*
X191698848Y-39165657D01*
X191698847Y-39165656D01*
X191698842Y-39165653D01*
X191698837Y-39165650D01*
X191698830Y-39165646D01*
X191412854Y-39012788D01*
X191412849Y-39012786D01*
X191113247Y-38888686D01*
X190802913Y-38794548D01*
X190802902Y-38794545D01*
X190484874Y-38731287D01*
X190484857Y-38731284D01*
X190240812Y-38707248D01*
X190162143Y-38699500D01*
X184162143Y-38699500D01*
X183837857Y-38699500D01*
X183765099Y-38706666D01*
X183515142Y-38731284D01*
X183515125Y-38731287D01*
X183197097Y-38794545D01*
X183197086Y-38794548D01*
X182886752Y-38888686D01*
X182587150Y-39012786D01*
X182587145Y-39012788D01*
X182301169Y-39165646D01*
X182301151Y-39165657D01*
X182039709Y-39340348D01*
X181973031Y-39361226D01*
X181905651Y-39342741D01*
X181901927Y-39340348D01*
X181640484Y-39165657D01*
X181640483Y-39165656D01*
X181640478Y-39165653D01*
X181640473Y-39165650D01*
X181640466Y-39165646D01*
X181354490Y-39012788D01*
X181354485Y-39012786D01*
X181054883Y-38888686D01*
X180744549Y-38794548D01*
X180744538Y-38794545D01*
X180426510Y-38731287D01*
X180426493Y-38731284D01*
X180182448Y-38707248D01*
X180103779Y-38699500D01*
X162837857Y-38699500D01*
X162765099Y-38706666D01*
X162515142Y-38731284D01*
X162515125Y-38731287D01*
X162197097Y-38794545D01*
X162197086Y-38794548D01*
X161886752Y-38888686D01*
X161587149Y-39012786D01*
X161587144Y-39012788D01*
X161301168Y-39165646D01*
X161301150Y-39165657D01*
X161031518Y-39345820D01*
X160780840Y-39551546D01*
X160119207Y-40213181D01*
X160057884Y-40246666D01*
X160031526Y-40249500D01*
X130885266Y-40249500D01*
X130885260Y-40249500D01*
X130885255Y-40249501D01*
X130684228Y-40275966D01*
X130684228Y-40275967D01*
X130680215Y-40276495D01*
X130657763Y-40279451D01*
X130576752Y-40301157D01*
X130576753Y-40301158D01*
X130436113Y-40338842D01*
X130436111Y-40338842D01*
X130436110Y-40338843D01*
X130224123Y-40426650D01*
X130224109Y-40426657D01*
X130025383Y-40541392D01*
X129965748Y-40587152D01*
X129843340Y-40681078D01*
X129843333Y-40681084D01*
X127681086Y-42843331D01*
X127681080Y-42843338D01*
X127647766Y-42886752D01*
X127647767Y-42886753D01*
X127541388Y-43025388D01*
X127426657Y-43224108D01*
X127426652Y-43224118D01*
X127338845Y-43436103D01*
X127338842Y-43436113D01*
X127284326Y-43639574D01*
X127284325Y-43639577D01*
X127279452Y-43657761D01*
X127249500Y-43885258D01*
X127249500Y-45000249D01*
X127229815Y-45067288D01*
X127199812Y-45099515D01*
X127142457Y-45142451D01*
X127142451Y-45142457D01*
X127056206Y-45257664D01*
X127056202Y-45257671D01*
X127005908Y-45392517D01*
X126999636Y-45450858D01*
X126999501Y-45452123D01*
X126999500Y-45452135D01*
X126999500Y-48547870D01*
X126999501Y-48547876D01*
X127005908Y-48607483D01*
X127056202Y-48742328D01*
X127056206Y-48742335D01*
X127142452Y-48857544D01*
X127142455Y-48857547D01*
X127257664Y-48943793D01*
X127257671Y-48943797D01*
X127290339Y-48955981D01*
X127392517Y-48994091D01*
X127452127Y-49000500D01*
X127975500Y-49000499D01*
X128042539Y-49020183D01*
X128088294Y-49072987D01*
X128099500Y-49124499D01*
X128099500Y-51575638D01*
X128079815Y-51642677D01*
X128063181Y-51663319D01*
X122663319Y-57063181D01*
X122601996Y-57096666D01*
X122575638Y-57099500D01*
X110911303Y-57099500D01*
X110737339Y-57134103D01*
X110737323Y-57134108D01*
X110621453Y-57182102D01*
X110621454Y-57182103D01*
X110573453Y-57201987D01*
X110499708Y-57251262D01*
X110425963Y-57300535D01*
X105300537Y-62425961D01*
X105261064Y-62485039D01*
X105261063Y-62485040D01*
X105201985Y-62573455D01*
X105168046Y-62655393D01*
X105134106Y-62737329D01*
X105134103Y-62737341D01*
X105099500Y-62911303D01*
X105099500Y-68207837D01*
X105079815Y-68274876D01*
X105027011Y-68320631D01*
X105001465Y-68329088D01*
X104997206Y-68329999D01*
X104830667Y-68385185D01*
X104830662Y-68385187D01*
X104681342Y-68477289D01*
X104557289Y-68601342D01*
X104465187Y-68750662D01*
X104465186Y-68750665D01*
X104410001Y-68917202D01*
X104410001Y-68917203D01*
X104410000Y-68917203D01*
X104399500Y-69019982D01*
X97500500Y-69019982D01*
X97500500Y-46862332D01*
X99899500Y-46862332D01*
X99899500Y-47137667D01*
X99899501Y-47137684D01*
X99935438Y-47410655D01*
X99935439Y-47410660D01*
X99935440Y-47410666D01*
X99969453Y-47537606D01*
X100006704Y-47676630D01*
X100112075Y-47931017D01*
X100112080Y-47931028D01*
X100183462Y-48054664D01*
X100249751Y-48169479D01*
X100249753Y-48169482D01*
X100249754Y-48169483D01*
X100417370Y-48387926D01*
X100417376Y-48387933D01*
X100612066Y-48582623D01*
X100612073Y-48582629D01*
X100697298Y-48648024D01*
X100830521Y-48750249D01*
X100983778Y-48838732D01*
X101068971Y-48887919D01*
X101068976Y-48887921D01*
X101068979Y-48887923D01*
X101323368Y-48993295D01*
X101589334Y-49064560D01*
X101862326Y-49100500D01*
X101862333Y-49100500D01*
X102137667Y-49100500D01*
X102137674Y-49100500D01*
X102410666Y-49064560D01*
X102676632Y-48993295D01*
X102931021Y-48887923D01*
X103169479Y-48750249D01*
X103387928Y-48582628D01*
X103582628Y-48387928D01*
X103750249Y-48169479D01*
X103887923Y-47931021D01*
X103993295Y-47676632D01*
X104064560Y-47410666D01*
X104100500Y-47137674D01*
X104100500Y-46862326D01*
X104088176Y-46768713D01*
X115649500Y-46768713D01*
X115649500Y-47231287D01*
X115653460Y-47256287D01*
X115679509Y-47420760D01*
X115682754Y-47441243D01*
X115714064Y-47537606D01*
X115748444Y-47643414D01*
X115844951Y-47832820D01*
X115969890Y-48004786D01*
X116120213Y-48155109D01*
X116292179Y-48280048D01*
X116292181Y-48280049D01*
X116292184Y-48280051D01*
X116481588Y-48376557D01*
X116683757Y-48442246D01*
X116893713Y-48475500D01*
X116893714Y-48475500D01*
X117106286Y-48475500D01*
X117106287Y-48475500D01*
X117316243Y-48442246D01*
X117518412Y-48376557D01*
X117707816Y-48280051D01*
X117774252Y-48231783D01*
X117879786Y-48155109D01*
X117879788Y-48155106D01*
X117879792Y-48155104D01*
X118030104Y-48004792D01*
X118030106Y-48004788D01*
X118030109Y-48004786D01*
X118155048Y-47832820D01*
X118155047Y-47832820D01*
X118155051Y-47832816D01*
X118251557Y-47643412D01*
X118317246Y-47441243D01*
X118350500Y-47231287D01*
X118350500Y-46768713D01*
X118317246Y-46558757D01*
X118251557Y-46356588D01*
X118184501Y-46224983D01*
X120649500Y-46224983D01*
X120649500Y-47775001D01*
X120649501Y-47775018D01*
X120660000Y-47877796D01*
X120660001Y-47877799D01*
X120715185Y-48044331D01*
X120715187Y-48044336D01*
X120730475Y-48069121D01*
X120807288Y-48193656D01*
X120931344Y-48317712D01*
X121080666Y-48409814D01*
X121247203Y-48464999D01*
X121349991Y-48475500D01*
X122650008Y-48475499D01*
X122752797Y-48464999D01*
X122919334Y-48409814D01*
X123068656Y-48317712D01*
X123192712Y-48193656D01*
X123284814Y-48044334D01*
X123339999Y-47877797D01*
X123350500Y-47775009D01*
X123350499Y-46224992D01*
X123339999Y-46122203D01*
X123284814Y-45955666D01*
X123192712Y-45806344D01*
X123068656Y-45682288D01*
X122936056Y-45600500D01*
X122919336Y-45590187D01*
X122919331Y-45590185D01*
X122885749Y-45579057D01*
X122752797Y-45535001D01*
X122752795Y-45535000D01*
X122650010Y-45524500D01*
X121349998Y-45524500D01*
X121349981Y-45524501D01*
X121247203Y-45535000D01*
X121247200Y-45535001D01*
X121080668Y-45590185D01*
X121080663Y-45590187D01*
X120931342Y-45682289D01*
X120807289Y-45806342D01*
X120715187Y-45955663D01*
X120715185Y-45955668D01*
X120705733Y-45984194D01*
X120660001Y-46122203D01*
X120660001Y-46122204D01*
X120660000Y-46122204D01*
X120649500Y-46224983D01*
X118184501Y-46224983D01*
X118155051Y-46167184D01*
X118155049Y-46167181D01*
X118155048Y-46167179D01*
X118030109Y-45995213D01*
X117879786Y-45844890D01*
X117707820Y-45719951D01*
X117518414Y-45623444D01*
X117518413Y-45623443D01*
X117518412Y-45623443D01*
X117316243Y-45557754D01*
X117316241Y-45557753D01*
X117316240Y-45557753D01*
X117154957Y-45532208D01*
X117106287Y-45524500D01*
X116893713Y-45524500D01*
X116845042Y-45532208D01*
X116683760Y-45557753D01*
X116481585Y-45623444D01*
X116292179Y-45719951D01*
X116120213Y-45844890D01*
X115969890Y-45995213D01*
X115844951Y-46167179D01*
X115748444Y-46356585D01*
X115682753Y-46558760D01*
X115664810Y-46672047D01*
X115649500Y-46768713D01*
X104088176Y-46768713D01*
X104064560Y-46589334D01*
X103993295Y-46323368D01*
X103887923Y-46068979D01*
X103887921Y-46068976D01*
X103887919Y-46068971D01*
X103822503Y-45955668D01*
X103750249Y-45830521D01*
X103646222Y-45694950D01*
X103582629Y-45612073D01*
X103582623Y-45612066D01*
X103387933Y-45417376D01*
X103387926Y-45417370D01*
X103169483Y-45249754D01*
X103169482Y-45249753D01*
X103169479Y-45249751D01*
X103070385Y-45192539D01*
X102931028Y-45112080D01*
X102931017Y-45112075D01*
X102676630Y-45006704D01*
X102543649Y-44971072D01*
X102410666Y-44935440D01*
X102410660Y-44935439D01*
X102410655Y-44935438D01*
X102137684Y-44899501D01*
X102137679Y-44899500D01*
X102137674Y-44899500D01*
X101862326Y-44899500D01*
X101862320Y-44899500D01*
X101862315Y-44899501D01*
X101589344Y-44935438D01*
X101589337Y-44935439D01*
X101589334Y-44935440D01*
X101562840Y-44942539D01*
X101323369Y-45006704D01*
X101068982Y-45112075D01*
X101068971Y-45112080D01*
X100830516Y-45249754D01*
X100612073Y-45417370D01*
X100612066Y-45417376D01*
X100417376Y-45612066D01*
X100417370Y-45612073D01*
X100249754Y-45830516D01*
X100112080Y-46068971D01*
X100112075Y-46068982D01*
X100006704Y-46323369D01*
X99935441Y-46589331D01*
X99935438Y-46589344D01*
X99899501Y-46862315D01*
X99899500Y-46862332D01*
X97500500Y-46862332D01*
X97500500Y-39862332D01*
X99899500Y-39862332D01*
X99899500Y-40137667D01*
X99899501Y-40137684D01*
X99935438Y-40410655D01*
X99935439Y-40410660D01*
X99935440Y-40410666D01*
X99939725Y-40426657D01*
X100006704Y-40676630D01*
X100112075Y-40931017D01*
X100112080Y-40931028D01*
X100191809Y-41069121D01*
X100249751Y-41169479D01*
X100249753Y-41169482D01*
X100249754Y-41169483D01*
X100417370Y-41387926D01*
X100417376Y-41387933D01*
X100612066Y-41582623D01*
X100612072Y-41582628D01*
X100830521Y-41750249D01*
X100983778Y-41838732D01*
X101068971Y-41887919D01*
X101068976Y-41887921D01*
X101068979Y-41887923D01*
X101323368Y-41993295D01*
X101589334Y-42064560D01*
X101862326Y-42100500D01*
X101862333Y-42100500D01*
X102137667Y-42100500D01*
X102137674Y-42100500D01*
X102410666Y-42064560D01*
X102676632Y-41993295D01*
X102931021Y-41887923D01*
X103169479Y-41750249D01*
X103387928Y-41582628D01*
X103582628Y-41387928D01*
X103750249Y-41169479D01*
X103887923Y-40931021D01*
X103993295Y-40676632D01*
X104064560Y-40410666D01*
X104100500Y-40137674D01*
X104100500Y-39862326D01*
X104064560Y-39589334D01*
X103993295Y-39323368D01*
X103887923Y-39068979D01*
X103887921Y-39068976D01*
X103887919Y-39068971D01*
X103838732Y-38983778D01*
X103750249Y-38830521D01*
X103649714Y-38699500D01*
X103582629Y-38612073D01*
X103582623Y-38612066D01*
X103387933Y-38417376D01*
X103387926Y-38417370D01*
X103169483Y-38249754D01*
X103169482Y-38249753D01*
X103169479Y-38249751D01*
X103074407Y-38194861D01*
X102931028Y-38112080D01*
X102931017Y-38112075D01*
X102676630Y-38006704D01*
X102543649Y-37971072D01*
X102410666Y-37935440D01*
X102410660Y-37935439D01*
X102410655Y-37935438D01*
X102137684Y-37899501D01*
X102137679Y-37899500D01*
X102137674Y-37899500D01*
X101862326Y-37899500D01*
X101862320Y-37899500D01*
X101862315Y-37899501D01*
X101589344Y-37935438D01*
X101589337Y-37935439D01*
X101589334Y-37935440D01*
X101533125Y-37950500D01*
X101323369Y-38006704D01*
X101068982Y-38112075D01*
X101068971Y-38112080D01*
X100830516Y-38249754D01*
X100612073Y-38417370D01*
X100612066Y-38417376D01*
X100417376Y-38612066D01*
X100417370Y-38612073D01*
X100249754Y-38830516D01*
X100112080Y-39068971D01*
X100112075Y-39068982D01*
X100006704Y-39323369D01*
X99935441Y-39589331D01*
X99935438Y-39589344D01*
X99899501Y-39862315D01*
X99899500Y-39862332D01*
X97500500Y-39862332D01*
X97500500Y-36624500D01*
X97520185Y-36557461D01*
X97572989Y-36511706D01*
X97624500Y-36500500D01*
X228375500Y-36500500D01*
X228442539Y-36520185D01*
G37*
%TD.AperFunction*%
%TD*%
M02*
