%TF.GenerationSoftware,KiCad,Pcbnew,9.0.3*%
%TF.CreationDate,2025-08-15T05:26:35+02:00*%
%TF.ProjectId,banc_rodage_pcb,62616e63-5f72-46f6-9461-67655f706362,rev?*%
%TF.SameCoordinates,Original*%
%TF.FileFunction,Soldermask,Top*%
%TF.FilePolarity,Negative*%
%FSLAX46Y46*%
G04 Gerber Fmt 4.6, Leading zero omitted, Abs format (unit mm)*
G04 Created by KiCad (PCBNEW 9.0.3) date 2025-08-15 05:26:35*
%MOMM*%
%LPD*%
G01*
G04 APERTURE LIST*
G04 Aperture macros list*
%AMRoundRect*
0 Rectangle with rounded corners*
0 $1 Rounding radius*
0 $2 $3 $4 $5 $6 $7 $8 $9 X,Y pos of 4 corners*
0 Add a 4 corners polygon primitive as box body*
4,1,4,$2,$3,$4,$5,$6,$7,$8,$9,$2,$3,0*
0 Add four circle primitives for the rounded corners*
1,1,$1+$1,$2,$3*
1,1,$1+$1,$4,$5*
1,1,$1+$1,$6,$7*
1,1,$1+$1,$8,$9*
0 Add four rect primitives between the rounded corners*
20,1,$1+$1,$2,$3,$4,$5,0*
20,1,$1+$1,$4,$5,$6,$7,0*
20,1,$1+$1,$6,$7,$8,$9,0*
20,1,$1+$1,$8,$9,$2,$3,0*%
G04 Aperture macros list end*
%ADD10RoundRect,0.250000X-0.312500X-0.625000X0.312500X-0.625000X0.312500X0.625000X-0.312500X0.625000X0*%
%ADD11C,1.800000*%
%ADD12C,1.727200*%
%ADD13R,1.727200X1.727200*%
%ADD14R,3.000000X3.000000*%
%ADD15C,3.000000*%
%ADD16RoundRect,0.250000X-0.625000X0.312500X-0.625000X-0.312500X0.625000X-0.312500X0.625000X0.312500X0*%
%ADD17R,2.000000X1.905000*%
%ADD18O,2.000000X1.905000*%
%ADD19RoundRect,0.250000X-0.550000X-0.550000X0.550000X-0.550000X0.550000X0.550000X-0.550000X0.550000X0*%
%ADD20C,1.600000*%
%ADD21RoundRect,0.250000X0.600000X0.725000X-0.600000X0.725000X-0.600000X-0.725000X0.600000X-0.725000X0*%
%ADD22O,1.700000X1.950000*%
%ADD23RoundRect,0.250000X-0.600000X-0.750000X0.600000X-0.750000X0.600000X0.750000X-0.600000X0.750000X0*%
%ADD24O,1.700000X2.000000*%
%ADD25RoundRect,0.250000X0.625000X-0.312500X0.625000X0.312500X-0.625000X0.312500X-0.625000X-0.312500X0*%
%ADD26RoundRect,0.250000X0.600000X0.750000X-0.600000X0.750000X-0.600000X-0.750000X0.600000X-0.750000X0*%
%ADD27RoundRect,0.249999X-0.850001X0.850001X-0.850001X-0.850001X0.850001X-0.850001X0.850001X0.850001X0*%
%ADD28C,2.200000*%
%ADD29RoundRect,0.250000X-0.600000X-0.725000X0.600000X-0.725000X0.600000X0.725000X-0.600000X0.725000X0*%
%ADD30R,2.000000X2.000000*%
%ADD31C,2.000000*%
%ADD32R,1.800000X1.800000*%
G04 APERTURE END LIST*
D10*
%TO.C,R3*%
X213537500Y-40000000D03*
X216462500Y-40000000D03*
%TD*%
D11*
%TO.C,A1*%
X154920000Y-128620000D03*
X195560000Y-128620000D03*
X154920000Y-113380000D03*
X195560000Y-113380000D03*
D12*
X190480000Y-113380000D03*
X165080000Y-113380000D03*
X185400000Y-113380000D03*
X182860000Y-113380000D03*
X180320000Y-113380000D03*
X177780000Y-113380000D03*
X175240000Y-113380000D03*
X172700000Y-113380000D03*
X170160000Y-113380000D03*
X167620000Y-113380000D03*
X187940000Y-113380000D03*
X162540000Y-113380000D03*
X160000000Y-128620000D03*
X157460000Y-128620000D03*
X167620000Y-128620000D03*
X170160000Y-128620000D03*
X172700000Y-128620000D03*
X175240000Y-128620000D03*
X177780000Y-128620000D03*
X180320000Y-128620000D03*
X182860000Y-128620000D03*
X185400000Y-128620000D03*
X187940000Y-128620000D03*
X190480000Y-128620000D03*
X193020000Y-128620000D03*
X193020000Y-113380000D03*
D13*
X165080000Y-128620000D03*
X160000000Y-113380000D03*
D12*
X162540000Y-128620000D03*
X154920000Y-126080000D03*
X154920000Y-115920000D03*
X160000000Y-115920000D03*
X157460000Y-113380000D03*
%TD*%
D14*
%TO.C,J7*%
X161000000Y-47000000D03*
D15*
X166080000Y-47000000D03*
%TD*%
D16*
%TO.C,R5*%
X208000000Y-95000000D03*
X208000000Y-97925000D03*
%TD*%
D17*
%TO.C,Q2*%
X162000000Y-72460000D03*
D18*
X162000000Y-75000000D03*
X162000000Y-77540000D03*
%TD*%
D19*
%TO.C,U4*%
X168195000Y-94000000D03*
D20*
X168195000Y-96540000D03*
X175815000Y-96540000D03*
X175815000Y-94000000D03*
%TD*%
D17*
%TO.C,Q3*%
X192000000Y-72460000D03*
D18*
X192000000Y-75000000D03*
X192000000Y-77540000D03*
%TD*%
D16*
%TO.C,R4*%
X150000000Y-97000000D03*
X150000000Y-99925000D03*
%TD*%
D17*
%TO.C,Q4*%
X222000000Y-72460000D03*
D18*
X222000000Y-75000000D03*
X222000000Y-77540000D03*
%TD*%
D16*
%TO.C,R11*%
X198000000Y-94537500D03*
X198000000Y-97462500D03*
%TD*%
D21*
%TO.C,J1*%
X122000000Y-47000000D03*
D22*
X119500000Y-47000000D03*
X117000000Y-47000000D03*
%TD*%
D14*
%TO.C,J15*%
X203920000Y-47000000D03*
D15*
X209000000Y-47000000D03*
%TD*%
D23*
%TO.C,J11*%
X215000000Y-95275000D03*
D24*
X217500000Y-95275000D03*
%TD*%
D16*
%TO.C,R9*%
X223000000Y-94275000D03*
X223000000Y-97200000D03*
%TD*%
%TO.C,R6*%
X133000000Y-95350000D03*
X133000000Y-98275000D03*
%TD*%
%TO.C,R7*%
X163000000Y-94275000D03*
X163000000Y-97200000D03*
%TD*%
D25*
%TO.C,R1*%
X186000000Y-123462500D03*
X186000000Y-120537500D03*
%TD*%
D19*
%TO.C,U1*%
X127190000Y-117190000D03*
D20*
X127190000Y-119730000D03*
X127190000Y-122270000D03*
X127190000Y-124810000D03*
X134810000Y-124810000D03*
X134810000Y-122270000D03*
X134810000Y-119730000D03*
X134810000Y-117190000D03*
%TD*%
D14*
%TO.C,J3*%
X192920000Y-47000000D03*
D15*
X198000000Y-47000000D03*
%TD*%
D26*
%TO.C,J5*%
X153500000Y-47000000D03*
D24*
X151000000Y-47000000D03*
%TD*%
D23*
%TO.C,J8*%
X125000000Y-95275000D03*
D24*
X127500000Y-95275000D03*
%TD*%
D27*
%TO.C,D1*%
X106000000Y-69920000D03*
D28*
X106000000Y-80080000D03*
%TD*%
D29*
%TO.C,J12*%
X112500000Y-121200000D03*
D22*
X115000000Y-121200000D03*
X117500000Y-121200000D03*
X120000000Y-121200000D03*
%TD*%
D30*
%TO.C,BZ1*%
X145000000Y-124600000D03*
D31*
X145000000Y-117000000D03*
%TD*%
D32*
%TO.C,D2*%
X214000000Y-47000000D03*
D11*
X216540000Y-47000000D03*
%TD*%
D19*
%TO.C,U2*%
X138195000Y-94000000D03*
D20*
X138195000Y-96540000D03*
X145815000Y-96540000D03*
X145815000Y-94000000D03*
%TD*%
D14*
%TO.C,J2*%
X129000000Y-47000000D03*
D15*
X134080000Y-47000000D03*
%TD*%
D14*
%TO.C,J4*%
X181920000Y-47000000D03*
D15*
X187000000Y-47000000D03*
%TD*%
D23*
%TO.C,J9*%
X155000000Y-95275000D03*
D24*
X157500000Y-95275000D03*
%TD*%
D26*
%TO.C,J14*%
X144000000Y-47000000D03*
D24*
X141500000Y-47000000D03*
%TD*%
D25*
%TO.C,R2*%
X190000000Y-123462500D03*
X190000000Y-120537500D03*
%TD*%
D26*
%TO.C,J6*%
X175500000Y-47000000D03*
D24*
X173000000Y-47000000D03*
%TD*%
D16*
%TO.C,R10*%
X180000000Y-97000000D03*
X180000000Y-99925000D03*
%TD*%
D17*
%TO.C,Q1*%
X132000000Y-72460000D03*
D18*
X132000000Y-75000000D03*
X132000000Y-77540000D03*
%TD*%
D23*
%TO.C,J10*%
X185000000Y-95275000D03*
D24*
X187500000Y-95275000D03*
%TD*%
D16*
%TO.C,R8*%
X193000000Y-94275000D03*
X193000000Y-97200000D03*
%TD*%
M02*
