%TF.GenerationSoftware,KiCad,Pcbnew,8.0.4*%
%TF.CreationDate,2024-11-12T18:47:24+01:00*%
%TF.ProjectId,banc_rodage_pcb,62616e63-5f72-46f6-9461-67655f706362,rev?*%
%TF.SameCoordinates,Original*%
%TF.FileFunction,Soldermask,Top*%
%TF.FilePolarity,Negative*%
%FSLAX46Y46*%
G04 Gerber Fmt 4.6, Leading zero omitted, Abs format (unit mm)*
G04 Created by KiCad (PCBNEW 8.0.4) date 2024-11-12 18:47:24*
%MOMM*%
%LPD*%
G01*
G04 APERTURE LIST*
G04 Aperture macros list*
%AMRoundRect*
0 Rectangle with rounded corners*
0 $1 Rounding radius*
0 $2 $3 $4 $5 $6 $7 $8 $9 X,Y pos of 4 corners*
0 Add a 4 corners polygon primitive as box body*
4,1,4,$2,$3,$4,$5,$6,$7,$8,$9,$2,$3,0*
0 Add four circle primitives for the rounded corners*
1,1,$1+$1,$2,$3*
1,1,$1+$1,$4,$5*
1,1,$1+$1,$6,$7*
1,1,$1+$1,$8,$9*
0 Add four rect primitives between the rounded corners*
20,1,$1+$1,$2,$3,$4,$5,0*
20,1,$1+$1,$4,$5,$6,$7,0*
20,1,$1+$1,$6,$7,$8,$9,0*
20,1,$1+$1,$8,$9,$2,$3,0*%
G04 Aperture macros list end*
%ADD10C,1.600000*%
%ADD11O,1.600000X1.600000*%
%ADD12R,1.600000X1.600000*%
%ADD13R,3.000000X3.000000*%
%ADD14C,3.000000*%
%ADD15RoundRect,0.250000X0.600000X0.750000X-0.600000X0.750000X-0.600000X-0.750000X0.600000X-0.750000X0*%
%ADD16O,1.700000X2.000000*%
%ADD17RoundRect,0.250000X0.600000X0.725000X-0.600000X0.725000X-0.600000X-0.725000X0.600000X-0.725000X0*%
%ADD18O,1.700000X1.950000*%
%ADD19R,1.905000X2.000000*%
%ADD20O,1.905000X2.000000*%
%ADD21R,2.000000X1.905000*%
%ADD22O,2.000000X1.905000*%
%ADD23R,1.700000X1.700000*%
%ADD24O,1.700000X1.700000*%
G04 APERTURE END LIST*
D10*
%TO.C,R7*%
X133414119Y-86765000D03*
D11*
X125794119Y-86765000D03*
%TD*%
D12*
%TO.C,U2*%
X120810000Y-95000000D03*
D11*
X120810000Y-97540000D03*
X128430000Y-97540000D03*
X128430000Y-95000000D03*
%TD*%
D13*
%TO.C,J3*%
X199000000Y-42275000D03*
D14*
X193920000Y-42275000D03*
%TD*%
D15*
%TO.C,J10*%
X172824119Y-86765000D03*
D16*
X170324119Y-86765000D03*
%TD*%
D15*
%TO.C,J6*%
X113500000Y-107000000D03*
D16*
X111000000Y-107000000D03*
%TD*%
D15*
%TO.C,J11*%
X204574119Y-86765000D03*
D16*
X202074119Y-86765000D03*
%TD*%
D10*
%TO.C,R6*%
X102934119Y-86765000D03*
D11*
X102934119Y-94385000D03*
%TD*%
D13*
%TO.C,J7*%
X153280000Y-42275000D03*
D14*
X148200000Y-42275000D03*
%TD*%
D17*
%TO.C,J1*%
X144634119Y-107000000D03*
D18*
X142134119Y-107000000D03*
X139634119Y-107000000D03*
%TD*%
D15*
%TO.C,J5*%
X204500000Y-107000000D03*
D16*
X202000000Y-107000000D03*
%TD*%
D15*
%TO.C,J8*%
X113094119Y-86765000D03*
D16*
X110594119Y-86765000D03*
%TD*%
D10*
%TO.C,R9*%
X194414119Y-86765000D03*
D11*
X186794119Y-86765000D03*
%TD*%
D12*
%TO.C,U4*%
X156370000Y-95000000D03*
D11*
X156370000Y-97540000D03*
X163990000Y-97540000D03*
X163990000Y-95000000D03*
%TD*%
D13*
%TO.C,J2*%
X120260000Y-42275000D03*
D14*
X115180000Y-42275000D03*
%TD*%
D10*
%TO.C,R1*%
X109380000Y-95000000D03*
D11*
X117000000Y-95000000D03*
%TD*%
D19*
%TO.C,U3*%
X192080000Y-103580000D03*
D20*
X189540000Y-103580000D03*
X187000000Y-103580000D03*
%TD*%
D10*
%TO.C,R5*%
X103000000Y-107000000D03*
D11*
X103000000Y-99380000D03*
%TD*%
D21*
%TO.C,Q2*%
X144434119Y-61365000D03*
D22*
X144434119Y-63905000D03*
X144434119Y-66445000D03*
%TD*%
D10*
%TO.C,C1*%
X192080000Y-98500000D03*
X192080000Y-96000000D03*
%TD*%
%TO.C,R2*%
X144930000Y-95005000D03*
D11*
X152550000Y-95005000D03*
%TD*%
D10*
%TO.C,R10*%
X171570000Y-97235000D03*
D11*
X179190000Y-97235000D03*
%TD*%
D10*
%TO.C,R4*%
X139860000Y-95000000D03*
D11*
X132240000Y-95000000D03*
%TD*%
D23*
%TO.C,J13*%
X84000000Y-111540000D03*
D24*
X84000000Y-109000000D03*
X84000000Y-106460000D03*
X84000000Y-103920000D03*
X84000000Y-101380000D03*
X84000000Y-98840000D03*
X84000000Y-96300000D03*
X84000000Y-93760000D03*
X84000000Y-91220000D03*
X84000000Y-88680000D03*
X84000000Y-86140000D03*
X84000000Y-83600000D03*
%TD*%
D21*
%TO.C,Q1*%
X114434119Y-61365000D03*
D22*
X114434119Y-63905000D03*
X114434119Y-66445000D03*
%TD*%
D10*
%TO.C,R8*%
X162664119Y-86765000D03*
D11*
X155044119Y-86765000D03*
%TD*%
D13*
%TO.C,J4*%
X176140000Y-42275000D03*
D14*
X171060000Y-42275000D03*
%TD*%
D17*
%TO.C,J12*%
X175134119Y-107000000D03*
D18*
X172634119Y-107000000D03*
X170134119Y-107000000D03*
X167634119Y-107000000D03*
%TD*%
D10*
%TO.C,C2*%
X187000000Y-98500000D03*
X187000000Y-96000000D03*
%TD*%
D21*
%TO.C,Q3*%
X174434119Y-61365000D03*
D22*
X174434119Y-63905000D03*
X174434119Y-66445000D03*
%TD*%
D15*
%TO.C,J9*%
X143574119Y-86765000D03*
D16*
X141074119Y-86765000D03*
%TD*%
D21*
%TO.C,Q4*%
X204434119Y-61365000D03*
D22*
X204434119Y-63905000D03*
X204434119Y-66445000D03*
%TD*%
M02*
