#VRML V2.0 utf8


Group {
  children 
    DEF o0 Group {
      children 
        DEF o1 Group {
          children 
            DEF o2 Transform {
              translation -0.79984397 0.48948523 -0.79440635
              rotation 0 0 1  0
              scale 1 1 1
              scaleOrientation 0 0 1  0
              center 0 0 0
              children 
                DEF o3 Group {
                  children [ 
                    DEF o4 Group {
                      children 
                        DEF o5 Shape {
                          appearance 
                          Appearance {
                            material 
                            Material {
                              emissiveColor 0.098039217 0.098039217 0.098039217

                            }

                          }
                          geometry 
                          PointSet {
                            coord 
                            DEF o6 Coordinate {
                              point [ 0 5.3740449 6.8000002,
                                  0 4 6.8000002,
                                  1.110223e-016 4 8,
                                  -0.14358939 4 7.9825649,
                                  -0.2788339 4 7.9312735,
                                  -0.39787358 4 7.8491063,
                                  -0.49379033 4 7.740839,
                                  -0.56100976 4 7.6127629,
                                  -0.59562534 4 7.472322,
                                  -0.59562534 4 7.3276782,
                                  -0.56100976 4 7.1872373,
                                  -0.49379033 4 7.0591612,
                                  -0.39787358 4 6.9508934,
                                  -0.2788339 4 6.8687263,
                                  -0.14358939 4 6.8174348,
                                  1.110223e-016 5.3740449 8,
                                  -0.14358939 5.3740449 7.9825649,
                                  -0.2788339 5.3740449 7.9312735,
                                  -0.39787358 5.3740449 7.8491063,
                                  -0.49379033 5.3740449 7.740839,
                                  -0.56100976 5.3740449 7.6127629,
                                  -0.59562534 5.3740449 7.472322,
                                  -0.59562534 5.3740449 7.3276782,
                                  -0.56100976 5.3740449 7.1872373,
                                  -0.49379033 5.3740449 7.0591612,
                                  -0.39787358 5.3740449 6.9508934,
                                  -0.2788339 5.3740449 6.8687263,
                                  -0.14358939 5.3740449 6.8174348,
                                  0.81599998 3.4000001 12.6,
                                  0.2 3.4000001 12.6,
                                  0.2 3.7660944 12.6,
                                  -0.2 3.7660944 12.6,
                                  -0.2 3.4000001 12.6,
                                  -0.81599998 3.4000001 12.6,
                                  -0.81599998 3.7660944 12.6,
                                  -1.216 3.7660944 12.6,
                                  -1.216 3.4000001 12.6,
                                  -1.7846901 3.4000001 12.6,
                                  -1.7846901 4 12.6,
                                  1.7846901 4 12.6,
                                  1.7846901 3.4000001 12.6,
                                  1.216 3.4000001 12.6,
                                  1.216 3.7660944 12.6,
                                  0.81599998 3.7660944 12.6,
                                  1.7846901 3.4000001 6.1999998,
                                  1.7846901 3.4000001 9,
                                  -1.7846901 3.4000001 6.1999998,
                                  -1.7846901 3.4000001 9,
                                  -1.7846901 4 6.1999998,
                                  1.7846901 4 6.1999998,
                                  1.7846901 4 12,
                                  5.2214632 4 12,
                                  5.2214632 4 0,
                                  -5.5785365 4 0,
                                  -5.5785365 4 12,
                                  -1.7846901 4 12,
                                  -6 0 12,
                                  -6 0 0,
                                  -5.5785365 0 12,
                                  -5.5785365 0 0,
                                  -6 9.6000004 12,
                                  -6 9.6000004 0,
                                  -5.5785365 9.6000004 0,
                                  -5.5785365 9.6000004 12,
                                  -3.4148297 9.6000004 0,
                                  -3.4148297 9.6000004 12,
                                  -3.8564026 9.6000004 12,
                                  -3.8564026 9.6000004 0,
                                  -1.2952802 9.6000004 0,
                                  -1.2952802 9.6000004 12,
                                  -1.6926957 9.6000004 12,
                                  -1.6926957 9.6000004 0,
                                  1.2658421 9.6000004 0,
                                  1.2658421 9.6000004 12,
                                  0.91258383 9.6000004 12,
                                  0.91258383 9.6000004 0,
                                  3.6503353 9.6000004 0,
                                  3.6503353 9.6000004 12,
                                  3.2970769 9.6000004 12,
                                  3.2970769 9.6000004 0,
                                  -6 9.6000004 12,
                                  -6 9.6000004 0,
                                  -6 0 12,
                                  -6 0 0,
                                  6 0 12,
                                  6 0 0,
                                  5.2214632 0 0,
                                  5.2214632 0 12,
                                  6 0 12,
                                  6 0 0,
                                  6 9.6000004 12,
                                  6 9.6000004 0,
                                  6 9.6000004 12,
                                  6 9.6000004 0,
                                  5.2214632 9.6000004 12,
                                  5.2214632 9.6000004 0,
                                  -5.5785365 4 12,
                                  -5.5785365 0 12,
                                  -1.7846901 4 12,
                                  1.7846901 4 12,
                                  5.2214632 4 12,
                                  5.2214632 0 12,
                                  6 0 12,
                                  6 9.6000004 12,
                                  5.2214632 9.6000004 12,
                                  5.2214632 5.3298874 12,
                                  3.6503353 5.3298874 12,
                                  3.6503353 9.6000004 12,
                                  3.2970769 9.6000004 12,
                                  3.2970769 4.8000002 12,
                                  1.2658421 4.8000002 12,
                                  1.2658421 9.6000004 12,
                                  0.91258383 9.6000004 12,
                                  0.91258383 5.3740449 12,
                                  -1.2952802 5.3740449 12,
                                  -1.2952802 9.6000004 12,
                                  -1.6926957 9.6000004 12,
                                  -1.6926957 4.7558427 12,
                                  -3.4148297 4.7558427 12,
                                  -3.4148297 9.6000004 12,
                                  -3.8564026 9.6000004 12,
                                  -3.8564026 5.3298874 12,
                                  -5.5785365 5.3298874 12,
                                  -5.5785365 9.6000004 12,
                                  -6 9.6000004 12,
                                  -6 0 12,
                                  5.2214632 0 0,
                                  5.2214632 4 0,
                                  6 0 0,
                                  6 9.6000004 0,
                                  5.2214632 9.6000004 0,
                                  5.2214632 5.3298874 0,
                                  3.6503353 5.3298874 0,
                                  3.6503353 9.6000004 0,
                                  3.2970769 9.6000004 0,
                                  3.2970769 4.8000002 0,
                                  1.2658421 4.8000002 0,
                                  1.2658421 9.6000004 0,
                                  0.91258383 9.6000004 0,
                                  0.91258383 5.3740449 0,
                                  -1.2952802 5.3740449 0,
                                  -1.2952802 9.6000004 0,
                                  -1.6926957 9.6000004 0,
                                  -1.6926957 4.7558427 0,
                                  -3.4148297 4.7558427 0,
                                  -3.4148297 9.6000004 0,
                                  -3.8564026 9.6000004 0,
                                  -3.8564026 5.3298874 0,
                                  -5.5785365 5.3298874 0,
                                  -5.5785365 9.6000004 0,
                                  -6 9.6000004 0,
                                  -6 0 0,
                                  -5.5785365 0 0,
                                  -5.5785365 4 0,
                                  3.6503353 9.6000004 0,
                                  3.6503353 9.6000004 12,
                                  3.6503353 5.3298874 0,
                                  3.6503353 5.3298874 12,
                                  5.2214632 5.3298874 0,
                                  5.2214632 5.3298874 12,
                                  5.2214632 9.6000004 0,
                                  5.2214632 9.6000004 12,
                                  3.6503353 5.3298874 0,
                                  3.6503353 5.3298874 12,
                                  5.2214632 5.3298874 0,
                                  5.2214632 5.3298874 12,
                                  1.2658421 9.6000004 0,
                                  1.2658421 9.6000004 12,
                                  1.2658421 4.8000002 0,
                                  1.2658421 4.8000002 12,
                                  3.2970769 4.8000002 0,
                                  3.2970769 4.8000002 12,
                                  3.2970769 9.6000004 0,
                                  3.2970769 9.6000004 12,
                                  1.2658421 4.8000002 0,
                                  1.2658421 4.8000002 12,
                                  3.2970769 4.8000002 0,
                                  3.2970769 4.8000002 12,
                                  -1.2952802 9.6000004 0,
                                  -1.2952802 9.6000004 12,
                                  -1.2952802 5.3740449 0,
                                  -1.2952802 5.3740449 12,
                                  0.91258383 5.3740449 0,
                                  0.91258383 5.3740449 12,
                                  0.91258383 9.6000004 0,
                                  0.91258383 9.6000004 12,
                                  -1.2952802 5.3740449 0,
                                  -1.2952802 5.3740449 12,
                                  0.91258383 5.3740449 0,
                                  0.91258383 5.3740449 12,
                                  1.110223e-016 5.3740449 8,
                                  -0.14358939 5.3740449 7.9825649,
                                  -0.2788339 5.3740449 7.9312735,
                                  -0.39787358 5.3740449 7.8491063,
                                  -0.49379033 5.3740449 7.740839,
                                  -0.56100976 5.3740449 7.6127629,
                                  -0.59562534 5.3740449 7.472322,
                                  -0.59562534 5.3740449 7.3276782,
                                  -0.56100976 5.3740449 7.1872373,
                                  -0.49379033 5.3740449 7.0591612,
                                  -0.39787358 5.3740449 6.9508934,
                                  -0.2788339 5.3740449 6.8687263,
                                  -0.14358939 5.3740449 6.8174348,
                                  0 5.3740449 6.8000002,
                                  0.14358939 5.3740449 6.8174348,
                                  0.2788339 5.3740449 6.8687263,
                                  0.39787358 5.3740449 6.9508934,
                                  0.49379033 5.3740449 7.0591612,
                                  0.56100976 5.3740449 7.1872373,
                                  0.59562534 5.3740449 7.3276782,
                                  0.59562534 5.3740449 7.472322,
                                  0.56100976 5.3740449 7.6127629,
                                  0.49379033 5.3740449 7.740839,
                                  0.39787358 5.3740449 7.8491063,
                                  0.2788339 5.3740449 7.9312735,
                                  0.14358939 5.3740449 7.9825649,
                                  -3.4148297 9.6000004 0,
                                  -3.4148297 9.6000004 12,
                                  -3.4148297 4.7558427 0,
                                  -3.4148297 4.7558427 12,
                                  -1.6926957 4.7558427 0,
                                  -1.6926957 4.7558427 12,
                                  -1.6926957 9.6000004 0,
                                  -1.6926957 9.6000004 12,
                                  -3.4148297 4.7558427 0,
                                  -3.4148297 4.7558427 12,
                                  -1.6926957 4.7558427 0,
                                  -1.6926957 4.7558427 12,
                                  -5.5785365 9.6000004 0,
                                  -5.5785365 9.6000004 12,
                                  -5.5785365 5.3298874 0,
                                  -5.5785365 5.3298874 12,
                                  -3.8564026 5.3298874 0,
                                  -3.8564026 5.3298874 12,
                                  -3.8564026 9.6000004 0,
                                  -3.8564026 9.6000004 12,
                                  -5.5785365 5.3298874 0,
                                  -5.5785365 5.3298874 12,
                                  -3.8564026 5.3298874 0,
                                  -3.8564026 5.3298874 12,
                                  -5.5785365 4 0,
                                  -5.5785365 4 12,
                                  -5.5785365 0 0,
                                  -5.5785365 0 12,
                                  5.2214632 0 0,
                                  5.2214632 0 12,
                                  5.2214632 4 0,
                                  5.2214632 4 12,
                                  0 4 6.8000002,
                                  0.14358939 4 6.8174348,
                                  0.2788339 4 6.8687263,
                                  0.39787358 4 6.9508934,
                                  0.49379033 4 7.0591612,
                                  0.56100976 4 7.1872373,
                                  0.59562534 4 7.3276782,
                                  0.59562534 4 7.472322,
                                  0.56100976 4 7.6127629,
                                  0.49379033 4 7.740839,
                                  0.39787358 4 7.8491063,
                                  0.2788339 4 7.9312735,
                                  0.14358939 4 7.9825649,
                                  1.110223e-016 4 8,
                                  0 5.3740449 6.8000002,
                                  0.14358939 5.3740449 6.8174348,
                                  0.2788339 5.3740449 6.8687263,
                                  0.39787358 5.3740449 6.9508934,
                                  0.49379033 5.3740449 7.0591612,
                                  0.56100976 5.3740449 7.1872373,
                                  0.59562534 5.3740449 7.3276782,
                                  0.59562534 5.3740449 7.472322,
                                  0.56100976 5.3740449 7.6127629,
                                  0.49379033 5.3740449 7.740839,
                                  0.39787358 5.3740449 7.8491063,
                                  0.2788339 5.3740449 7.9312735,
                                  0.14358939 5.3740449 7.9825649,
                                  1.110223e-016 5.3740449 8,
                                  0 4 6.8000002,
                                  0.14358939 4 6.8174348,
                                  0.2788339 4 6.8687263,
                                  0.39787358 4 6.9508934,
                                  0.49379033 4 7.0591612,
                                  0.56100976 4 7.1872373,
                                  0.59562534 4 7.3276782,
                                  0.59562534 4 7.472322,
                                  0.56100976 4 7.6127629,
                                  0.49379033 4 7.740839,
                                  0.39787358 4 7.8491063,
                                  0.2788339 4 7.9312735,
                                  0.14358939 4 7.9825649,
                                  1.110223e-016 4 8,
                                  -0.14358939 4 7.9825649,
                                  -0.2788339 4 7.9312735,
                                  -0.39787358 4 7.8491063,
                                  -0.49379033 4 7.740839,
                                  -0.56100976 4 7.6127629,
                                  -0.59562534 4 7.472322,
                                  -0.59562534 4 7.3276782,
                                  -0.56100976 4 7.1872373,
                                  -0.49379033 4 7.0591612,
                                  -0.39787358 4 6.9508934,
                                  -0.2788339 4 6.8687263,
                                  -0.14358939 4 6.8174348,
                                  -1.7846901 3.4000001 12.6,
                                  -1.7846901 4 12.6,
                                  -1.7846901 3.4000001 9,
                                  -1.7846901 3.4000001 6.1999998,
                                  -1.7846901 4 6.1999998,
                                  -1.7846901 4 12,
                                  -1.7846901 3.4000001 6.1999998,
                                  -1.7846901 4 6.1999998,
                                  1.7846901 3.4000001 6.1999998,
                                  1.7846901 4 6.1999998,
                                  1.7846901 3.4000001 6.1999998,
                                  1.7846901 4 6.1999998,
                                  1.7846901 3.4000001 9,
                                  1.7846901 3.4000001 12.6,
                                  1.7846901 4 12.6,
                                  1.7846901 4 12,
                                  1.7846901 4 12,
                                  1.7846901 4 12.6,
                                  -1.7846901 4 12,
                                  -1.7846901 4 12.6,
                                  -1.7846901 3.4000001 12.6,
                                  -1.7846901 3.4000001 9,
                                  -1.6373487 2.2 9.1473417,
                                  -1.6373487 2.2 12.452659,
                                  -1.7846901 3.4000001 9,
                                  1.7846901 3.4000001 9,
                                  1.6373487 2.2 9.1473417,
                                  -1.6373487 2.2 9.1473417,
                                  1.7846901 3.4000001 9,
                                  1.7846901 3.4000001 12.6,
                                  1.6373487 2.2 12.452659,
                                  1.6373487 2.2 9.1473417,
                                  1.7846901 3.4000001 12.6,
                                  1.216 3.4000001 12.6,
                                  0.81599998 3.4000001 12.6,
                                  0.2 3.4000001 12.6,
                                  -0.2 3.4000001 12.6,
                                  -0.81599998 3.4000001 12.6,
                                  -1.216 3.4000001 12.6,
                                  -1.7846901 3.4000001 12.6,
                                  -1.6373487 2.2 12.452659,
                                  1.6373487 2.2 12.452659,
                                  -1.6373487 2.2 12.452659,
                                  -1.6373487 2.2 9.1473417,
                                  1.6373487 2.2 9.1473417,
                                  1.6373487 2.2 12.452659,
                                  -1.216 3.7660944 12.84,
                                  -1.216 3.7660944 12.6,
                                  -1.216 -1.6 12.84,
                                  -1.216 -1.6 12.6,
                                  -1.216 3.4000001 12.6,
                                  -1.216 -1.6 12.84,
                                  -1.216 -1.6 12.6,
                                  -0.81599998 -1.6 12.84,
                                  -0.81599998 -1.6 12.6,
                                  -0.81599998 -1.6 12.84,
                                  -0.81599998 -1.6 12.6,
                                  -0.81599998 3.7660944 12.84,
                                  -0.81599998 3.7660944 12.6,
                                  -0.81599998 3.4000001 12.6,
                                  -0.81599998 3.7660944 12.84,
                                  -0.81599998 3.7660944 12.6,
                                  -1.216 3.7660944 12.84,
                                  -1.216 3.7660944 12.6,
                                  -1.216 3.7660944 12.84,
                                  -1.216 -1.6 12.84,
                                  -0.81599998 -1.6 12.84,
                                  -0.81599998 3.7660944 12.84,
                                  -1.216 3.4000001 12.6,
                                  -1.216 -1.6 12.6,
                                  -0.81599998 -1.6 12.6,
                                  -0.81599998 3.4000001 12.6,
                                  -0.2 -1.6 12.6,
                                  0.2 -1.6 12.6,
                                  0.2 3.4000001 12.6,
                                  -0.2 3.4000001 12.6,
                                  -0.2 3.7660944 12.84,
                                  -0.2 3.7660944 12.6,
                                  -0.2 -1.6 12.84,
                                  -0.2 -1.6 12.6,
                                  -0.2 3.4000001 12.6,
                                  -0.2 -1.6 12.84,
                                  -0.2 -1.6 12.6,
                                  0.2 -1.6 12.84,
                                  0.2 -1.6 12.6,
                                  0.2 -1.6 12.84,
                                  0.2 -1.6 12.6,
                                  0.2 3.7660944 12.84,
                                  0.2 3.7660944 12.6,
                                  0.2 3.4000001 12.6,
                                  0.2 3.7660944 12.84,
                                  0.2 3.7660944 12.6,
                                  -0.2 3.7660944 12.84,
                                  -0.2 3.7660944 12.6,
                                  -0.2 3.7660944 12.84,
                                  -0.2 -1.6 12.84,
                                  0.2 -1.6 12.84,
                                  0.2 3.7660944 12.84,
                                  0.81599998 -1.6 12.6,
                                  1.216 -1.6 12.6,
                                  1.216 3.4000001 12.6,
                                  0.81599998 3.4000001 12.6,
                                  0.81599998 3.7660944 12.84,
                                  0.81599998 3.7660944 12.6,
                                  0.81599998 -1.6 12.84,
                                  0.81599998 -1.6 12.6,
                                  0.81599998 3.4000001 12.6,
                                  0.81599998 -1.6 12.84,
                                  0.81599998 -1.6 12.6,
                                  1.216 -1.6 12.84,
                                  1.216 -1.6 12.6,
                                  1.216 -1.6 12.84,
                                  1.216 -1.6 12.6,
                                  1.216 3.7660944 12.84,
                                  1.216 3.7660944 12.6,
                                  1.216 3.4000001 12.6,
                                  1.216 3.7660944 12.84,
                                  1.216 3.7660944 12.6,
                                  0.81599998 3.7660944 12.84,
                                  0.81599998 3.7660944 12.6,
                                  0.81599998 3.7660944 12.84,
                                  0.81599998 -1.6 12.84,
                                  1.216 -1.6 12.84,
                                  1.216 3.7660944 12.84,
                                  0 5.3740449 6.8000002,
                                  0 4 6.8000002,
                                  7.3478811e-017 4 8,
                                  7.3478811e-017 5.3740449 8,
                                  0.81599998 3.7660944 12.6,
                                  0.81599998 3.4000001 12.6,
                                  1.216 3.7660944 12.6,
                                  1.216 3.4000001 12.6,
                                  1.7846901 3.4000001 12.6,
                                  1.7846901 4 12.6,
                                  -1.7846901 4 12.6,
                                  -1.7846901 3.4000001 12.6,
                                  -1.216 3.4000001 12.6,
                                  -1.216 3.7660944 12.6,
                                  -0.81599998 3.7660944 12.6,
                                  -0.81599998 3.4000001 12.6,
                                  -0.2 3.4000001 12.6,
                                  -0.2 3.7660944 12.6,
                                  0.2 3.7660944 12.6,
                                  0.2 3.4000001 12.6,
                                  -1.7846901 3.4000001 9,
                                  1.7846901 3.4000001 9,
                                  -1.7846901 3.4000001 6.1999998,
                                  1.7846901 3.4000001 6.1999998,
                                  -1.7846901 4 12,
                                  -1.7846901 4 6.1999998,
                                  -5.5785365 4 12,
                                  -5.5785365 4 0,
                                  5.2214632 4 0,
                                  5.2214632 4 12,
                                  1.7846901 4 12,
                                  1.7846901 4 6.1999998,
                                  -6 0 0,
                                  -5.5785365 0 0,
                                  -5.5785365 0 12,
                                  -6 0 12,
                                  -5.5785365 9.6000004 12,
                                  -6 9.6000004 12,
                                  -5.5785365 9.6000004 0,
                                  -6 9.6000004 0,
                                  -3.4148297 9.6000004 0,
                                  -3.8564026 9.6000004 0,
                                  -3.8564026 9.6000004 12,
                                  -3.4148297 9.6000004 12,
                                  -1.2952802 9.6000004 0,
                                  -1.6926957 9.6000004 0,
                                  -1.6926957 9.6000004 12,
                                  -1.2952802 9.6000004 12,
                                  1.2658421 9.6000004 0,
                                  0.91258383 9.6000004 0,
                                  0.91258383 9.6000004 12,
                                  1.2658421 9.6000004 12,
                                  3.6503353 9.6000004 0,
                                  3.2970769 9.6000004 0,
                                  3.2970769 9.6000004 12,
                                  3.6503353 9.6000004 12,
                                  5.2214632 0 12,
                                  6 0 12,
                                  5.2214632 0 0,
                                  6 0 0,
                                  6 9.6000004 0,
                                  6 9.6000004 12,
                                  5.2214632 9.6000004 0,
                                  5.2214632 9.6000004 12,
                                  5.2214632 5.3298874 12,
                                  3.6503353 5.3298874 12,
                                  3.2970769 4.8000002 12,
                                  1.2658421 4.8000002 12,
                                  0.91258383 5.3740449 12,
                                  -1.2952802 5.3740449 12,
                                  -1.6926957 4.7558427 12,
                                  -3.4148297 4.7558427 12,
                                  -3.8564026 5.3298874 12,
                                  -5.5785365 5.3298874 12,
                                  -5.5785365 5.3298874 0,
                                  -3.8564026 5.3298874 0,
                                  -3.4148297 4.7558427 0,
                                  -1.6926957 4.7558427 0,
                                  -1.2952802 5.3740449 0,
                                  0.91258383 5.3740449 0,
                                  1.2658421 4.8000002 0,
                                  3.2970769 4.8000002 0,
                                  3.6503353 5.3298874 0,
                                  5.2214632 5.3298874 0,
                                  -1.6373487 2.2 9.1473417,
                                  -1.6373487 2.2 12.452659,
                                  1.6373487 2.2 9.1473417,
                                  1.6373487 2.2 12.452659,
                                  -1.216 -1.6 12.6,
                                  -1.216 -1.6 12.84,
                                  -1.216 3.7660944 12.84,
                                  -0.81599998 -1.6 12.6,
                                  -0.81599998 -1.6 12.84,
                                  -0.81599998 3.7660944 12.84,
                                  -0.2 -1.6 12.6,
                                  0.2 -1.6 12.6,
                                  -0.2 -1.6 12.84,
                                  -0.2 3.7660944 12.84,
                                  0.2 -1.6 12.84,
                                  0.2 3.7660944 12.84,
                                  0.81599998 -1.6 12.6,
                                  1.216 -1.6 12.6,
                                  0.81599998 -1.6 12.84,
                                  0.81599998 3.7660944 12.84,
                                  1.216 -1.6 12.84,
                                  1.216 3.7660944 12.84 ]

                            }

                          }

                        }

                    },
                      
                    DEF o7 Group {
                      children 
                        DEF o8 Shape {
                          appearance 
                          Appearance {
                            material 
                            Material {
                              diffuseColor 0.098039217 0.098039217 0.098039217
                              shininess 1

                            }

                          }
                          geometry 
                          IndexedLineSet {
                            coord 
                            USE o6
                            coordIndex [ 0, 1, -1, 2, 3, 4, 5, 6,
                                7, 8, 9, 10, 11, 12, 13, 14,
                                1, -1, 15, 2, -1, 15, 16, 17,
                                18, 19, 20, 21, 22, 23, 24, 25,
                                26, 27, 0, -1, 43, 28, -1, 42,
                                43, -1, 41, 42, -1, 40, 41, -1,
                                40, 39, -1, 39, 38, -1, 37, 38,
                                -1, 36, 37, -1, 35, 36, -1, 34,
                                35, -1, 33, 34, -1, 32, 33, -1,
                                31, 32, -1, 30, 31, -1, 29, 30,
                                -1, 28, 29, -1, 47, 45, -1, 47,
                                46, -1, 46, 44, -1, 44, 45, -1,
                                55, 48, -1, 55, 54, -1, 53, 54,
                                -1, 52, 53, -1, 52, 51, -1, 51,
                                50, -1, 49, 50, -1, 48, 49, -1,
                                57, 59, -1, 59, 58, -1, 56, 58,
                                -1, 56, 57, -1, 63, 60, -1, 62,
                                63, -1, 62, 61, -1, 60, 61, -1,
                                64, 67, -1, 67, 66, -1, 65, 66,
                                -1, 64, 65, -1, 68, 71, -1, 71,
                                70, -1, 69, 70, -1, 68, 69, -1,
                                72, 75, -1, 75, 74, -1, 73, 74,
                                -1, 72, 73, -1, 76, 79, -1, 79,
                                78, -1, 77, 78, -1, 76, 77, -1,
                                81, 83, -1, 80, 82, -1, 87, 84,
                                -1, 86, 87, -1, 86, 85, -1, 84,
                                85, -1, 89, 91, -1, 90, 91, -1,
                                88, 90, -1, 93, 95, -1, 95, 94,
                                -1, 92, 94, -1, 96, 97, -1, 99,
                                98, -1, 101, 100, -1, 105, 104, -1,
                                106, 105, -1, 107, 106, -1, 109, 108,
                                -1, 110, 109, -1, 111, 110, -1, 113,
                                112, -1, 114, 113, -1, 115, 114, -1,
                                117, 116, -1, 118, 117, -1, 119, 118,
                                -1, 121, 120, -1, 122, 121, -1, 123,
                                122, -1, 153, 152, -1, 149, 148, -1,
                                148, 147, -1, 147, 146, -1, 145, 144,
                                -1, 144, 143, -1, 143, 142, -1, 141,
                                140, -1, 140, 139, -1, 139, 138, -1,
                                137, 136, -1, 136, 135, -1, 135, 134,
                                -1, 133, 132, -1, 132, 131, -1, 131,
                                130, -1, 126, 127, -1, 156, 157, -1,
                                158, 159, -1, 168, 169, -1, 170, 171,
                                -1, 180, 181, -1, 182, 183, -1, 203,
                                204, 205, 206, 207, 208, 209, 210, 211,
                                212, 213, 214, 215, 190, -1, 218, 219,
                                -1, 220, 221, -1, 230, 231, -1, 232,
                                233, -1, 248, 249, 250, 251, 252, 253,
                                254, 255, 256, 257, 258, 259, 260, 261,
                                -1, 303, 307, -1, 305, 306, -1, 302,
                                304, -1, 310, 311, -1, 317, 316, -1,
                                314, 315, -1, 324, 323, -1, 325, 324,
                                -1, 325, 322, -1, 328, 327, -1, 329,
                                328, -1, 332, 331, -1, 333, 332, -1,
                                335, 336, -1, 337, 338, -1, 339, 340,
                                -1, 343, 342, -1, 352, 351, -1, 350,
                                351, -1, 348, 350, -1, 348, 349, -1,
                                354, 356, -1, 355, 356, -1, 353, 355,
                                -1, 358, 361, -1, 359, 360, -1, 357,
                                359, -1, 362, 364, -1, 377, 374, -1,
                                375, 376, -1, 374, 375, -1, 380, 381,
                                -1, 378, 380, -1, 378, 379, -1, 385,
                                386, -1, 383, 385, -1, 389, 390, -1,
                                387, 389, -1, 392, 394, -1, 403, 400,
                                -1, 401, 402, -1, 400, 401, -1, 406,
                                407, -1, 404, 406, -1, 404, 405, -1,
                                411, 412, -1, 409, 411, -1, 415, 416,
                                -1, 413, 415, -1, 418, 420, -1 ]

                          }

                        }

                    },
                      
                    DEF o9 Group {
                      children 
                        DEF o10 Shape {
                          appearance 
                          Appearance {
                            material 
                            Material {
                              diffuseColor 0.79215688 0.81960785 0.93333334

                            }

                          }
                          geometry 
                          IndexedFaceSet {
                            coord 
                            USE o6
                            color 
                            Color {
                              color [ 0.79215688 0.81960785 0.93333334,
                                  0.79215688 0.81960785 0.93333334,
                                  0.79215688 0.81960785 0.93333334,
                                  0.25098038 0.25098038 0.25098038,
                                  0.25098038 0.25098038 0.25098038,
                                  0.25098038 0.25098038 0.25098038,
                                  0.25098038 0.25098038 0.25098038,
                                  0.25098038 0.25098038 0.25098038,
                                  0.25098038 0.25098038 0.25098038,
                                  0.25098038 0.25098038 0.25098038,
                                  0.25098038 0.25098038 0.25098038,
                                  0.25098038 0.25098038 0.25098038,
                                  0.25098038 0.25098038 0.25098038,
                                  0.25098038 0.25098038 0.25098038,
                                  0.25098038 0.25098038 0.25098038,
                                  0.25098038 0.25098038 0.25098038,
                                  0.25098038 0.25098038 0.25098038,
                                  0.25098038 0.25098038 0.25098038,
                                  0.25098038 0.25098038 0.25098038,
                                  0.25098038 0.25098038 0.25098038,
                                  0.25098038 0.25098038 0.25098038,
                                  0.25098038 0.25098038 0.25098038,
                                  0.25098038 0.25098038 0.25098038,
                                  0.25098038 0.25098038 0.25098038,
                                  0.25098038 0.25098038 0.25098038,
                                  0.25098038 0.25098038 0.25098038,
                                  0.25098038 0.25098038 0.25098038,
                                  0.25098038 0.25098038 0.25098038,
                                  0.25098038 0.25098038 0.25098038,
                                  0.25098038 0.25098038 0.25098038,
                                  0.25098038 0.25098038 0.25098038,
                                  0.25098038 0.25098038 0.25098038,
                                  0.25098038 0.25098038 0.25098038,
                                  0.79215688 0.81960785 0.93333334,
                                  0.79215688 0.81960785 0.93333334,
                                  0.79215688 0.81960785 0.93333334,
                                  0.79215688 0.81960785 0.93333334,
                                  0.79215688 0.81960785 0.93333334,
                                  0.79215688 0.81960785 0.93333334,
                                  0.25098038 0.25098038 0.25098038,
                                  0.25098038 0.25098038 0.25098038,
                                  0.25098038 0.25098038 0.25098038,
                                  0.25098038 0.25098038 0.25098038,
                                  0.25098038 0.25098038 0.25098038,
                                  0.79215688 0.81960785 0.93333334,
                                  0.79215688 0.81960785 0.93333334,
                                  0.79215688 0.81960785 0.93333334,
                                  0.79215688 0.81960785 0.93333334,
                                  0.79215688 0.81960785 0.93333334,
                                  0.79215688 0.81960785 0.93333334,
                                  0.79215688 0.81960785 0.93333334,
                                  0.79215688 0.81960785 0.93333334,
                                  0.79215688 0.81960785 0.93333334,
                                  0.79215688 0.81960785 0.93333334,
                                  0.79215688 0.81960785 0.93333334,
                                  0.79215688 0.81960785 0.93333334,
                                  0.79215688 0.81960785 0.93333334,
                                  0.79215688 0.81960785 0.93333334,
                                  0.79215688 0.81960785 0.93333334,
                                  0.79215688 0.81960785 0.93333334,
                                  0.79215688 0.81960785 0.93333334,
                                  0.79215688 0.81960785 0.93333334 ]

                            }
                            colorPerVertex FALSE
                            coordIndex [ 2, 3, 15, -1, 15, 3, 16, -1,
                                16, 4, 17, -1, 17, 4, 18, -1,
                                3, 4, 16, -1, 4, 5, 18, -1,
                                18, 6, 19, -1, 19, 6, 20, -1,
                                5, 6, 18, -1, 20, 7, 21, -1,
                                6, 7, 20, -1, 21, 8, 22, -1,
                                7, 8, 21, -1, 8, 9, 22, -1,
                                22, 10, 23, -1, 23, 10, 24, -1,
                                9, 10, 22, -1, 24, 11, 25, -1,
                                10, 11, 24, -1, 11, 12, 25, -1,
                                25, 13, 26, -1, 26, 13, 27, -1,
                                12, 13, 25, -1, 13, 14, 27, -1,
                                27, 1, 0, -1, 14, 1, 27, -1,
                                39, 42, 40, -1, 40, 42, 41, -1,
                                39, 43, 42, -1, 28, 30, 29, -1,
                                43, 30, 28, -1, 31, 34, 32, -1,
                                32, 34, 33, -1, 35, 37, 36, -1,
                                34, 38, 35, -1, 35, 38, 37, -1,
                                39, 38, 43, -1, 43, 38, 30, -1,
                                30, 38, 31, -1, 31, 38, 34, -1,
                                46, 44, 47, -1, 44, 45, 47, -1,
                                53, 52, 48, -1, 48, 54, 53, -1,
                                52, 49, 48, -1, 48, 55, 54, -1,
                                49, 51, 50, -1, 52, 51, 49, -1,
                                57, 58, 56, -1, 59, 58, 57, -1,
                                60, 63, 61, -1, 61, 63, 62, -1,
                                66, 65, 67, -1, 67, 65, 64, -1,
                                70, 69, 71, -1, 71, 69, 68, -1,
                                74, 73, 75, -1, 75, 73, 72, -1,
                                78, 77, 79, -1, 79, 77, 76, -1,
                                82, 80, 83, -1, 83, 80, 81, -1,
                                85, 84, 86, -1, 86, 84, 87, -1,
                                90, 88, 91, -1, 91, 88, 89, -1,
                                94, 92, 95, -1, 95, 92, 93, -1,
                                96, 125, 97, -1, 121, 96, 118, -1,
                                121, 122, 96, -1, 98, 118, 96, -1,
                                117, 118, 98, -1, 123, 124, 122, -1,
                                110, 98, 99, -1, 110, 114, 117, -1,
                                110, 117, 98, -1, 119, 120, 121, -1,
                                113, 114, 110, -1, 109, 110, 99, -1,
                                115, 116, 114, -1, 100, 101, 102, -1,
                                100, 109, 99, -1, 100, 106, 109, -1,
                                105, 100, 102, -1, 105, 106, 100, -1,
                                111, 112, 113, -1, 107, 108, 106, -1,
                                103, 104, 105, -1, 103, 105, 102, -1,
                                108, 109, 106, -1, 110, 111, 113, -1,
                                116, 117, 114, -1, 118, 119, 121, -1,
                                124, 125, 96, -1, 124, 96, 122, -1,
                                151, 153, 152, -1, 153, 147, 144, -1,
                                148, 147, 153, -1, 150, 149, 148, -1,
                                140, 136, 143, -1, 146, 145, 147, -1,
                                140, 139, 136, -1, 142, 141, 140, -1,
                                126, 127, 128, -1, 132, 127, 135, -1,
                                127, 131, 128, -1, 132, 131, 127, -1,
                                138, 137, 139, -1, 134, 133, 132, -1,
                                130, 129, 131, -1, 131, 129, 128, -1,
                                135, 134, 132, -1, 137, 136, 139, -1,
                                143, 142, 140, -1, 145, 144, 147, -1,
                                151, 150, 153, -1, 153, 150, 148, -1,
                                127, 153, 143, -1, 127, 143, 136, -1,
                                127, 136, 135, -1, 143, 153, 144, -1,
                                154, 155, 156, -1, 156, 155, 157, -1,
                                159, 160, 158, -1, 161, 160, 159, -1,
                                163, 164, 162, -1, 165, 164, 163, -1,
                                167, 169, 166, -1, 166, 169, 168, -1,
                                171, 173, 170, -1, 170, 173, 172, -1,
                                175, 176, 174, -1, 177, 176, 175, -1,
                                178, 179, 180, -1, 180, 179, 181, -1,
                                183, 184, 182, -1, 185, 184, 183, -1,
                                193, 194, 187, -1, 187, 192, 193, -1,
                                194, 195, 187, -1, 187, 191, 192, -1,
                                195, 196, 187, -1, 189, 190, 187, -1,
                                187, 190, 191, -1, 196, 197, 187, -1,
                                189, 215, 190, -1, 189, 214, 215, -1,
                                189, 213, 214, -1, 189, 212, 213, -1,
                                189, 211, 212, -1, 198, 186, 197, -1,
                                199, 186, 198, -1, 200, 186, 199, -1,
                                201, 186, 200, -1, 202, 186, 201, -1,
                                203, 186, 202, -1, 197, 186, 187, -1,
                                204, 188, 203, -1, 205, 188, 204, -1,
                                206, 188, 205, -1, 207, 188, 206, -1,
                                203, 188, 186, -1, 189, 188, 210, -1,
                                189, 210, 211, -1, 210, 188, 209, -1,
                                209, 188, 208, -1, 208, 188, 207, -1,
                                216, 217, 218, -1, 218, 217, 219, -1,
                                221, 222, 220, -1, 223, 222, 221, -1,
                                225, 226, 224, -1, 227, 226, 225, -1,
                                228, 229, 230, -1, 230, 229, 231, -1,
                                233, 234, 232, -1, 235, 234, 233, -1,
                                237, 238, 236, -1, 239, 238, 237, -1,
                                240, 241, 242, -1, 242, 241, 243, -1,
                                245, 246, 244, -1, 247, 246, 245, -1,
                                248, 249, 262, -1, 262, 249, 263, -1,
                                263, 250, 264, -1, 249, 250, 263, -1,
                                264, 251, 265, -1, 250, 251, 264, -1,
                                265, 252, 266, -1, 251, 252, 265, -1,
                                266, 253, 267, -1, 252, 253, 266, -1,
                                267, 254, 268, -1, 253, 254, 267, -1,
                                268, 255, 269, -1, 254, 255, 268, -1,
                                269, 256, 270, -1, 255, 256, 269, -1,
                                270, 257, 271, -1, 256, 257, 270, -1,
                                271, 258, 272, -1, 257, 258, 271, -1,
                                272, 259, 273, -1, 258, 259, 272, -1,
                                273, 260, 274, -1, 259, 260, 273, -1,
                                274, 261, 275, -1, 260, 261, 274, -1,
                                301, 299, 298, -1, 301, 300, 299, -1,
                                278, 277, 276, -1, 278, 276, 301, -1,
                                292, 294, 293, -1, 280, 279, 278, -1,
                                280, 298, 297, -1, 280, 278, 301, -1,
                                280, 301, 298, -1, 282, 281, 280, -1,
                                282, 280, 297, -1, 289, 291, 290, -1,
                                283, 297, 296, -1, 283, 282, 297, -1,
                                288, 291, 289, -1, 284, 296, 295, -1,
                                284, 283, 296, -1, 285, 295, 294, -1,
                                285, 284, 295, -1, 286, 288, 287, -1,
                                286, 292, 291, -1, 286, 291, 288, -1,
                                286, 294, 292, -1, 286, 285, 294, -1,
                                303, 307, 302, -1, 307, 304, 302, -1,
                                304, 306, 305, -1, 307, 306, 304, -1,
                                309, 311, 308, -1, 308, 311, 310, -1,
                                313, 314, 312, -1, 317, 315, 314, -1,
                                317, 316, 315, -1, 313, 317, 314, -1,
                                319, 318, 320, -1, 319, 320, 321, -1,
                                325, 322, 323, -1, 325, 323, 324, -1,
                                327, 328, 329, -1, 327, 329, 326, -1,
                                331, 332, 333, -1, 331, 333, 330, -1,
                                342, 339, 340, -1, 342, 340, 341, -1,
                                338, 339, 342, -1, 343, 334, 335, -1,
                                343, 335, 336, -1, 343, 336, 337, -1,
                                343, 337, 338, -1, 343, 338, 342, -1,
                                346, 344, 345, -1, 346, 347, 344, -1,
                                350, 352, 351, -1, 348, 349, 352, -1,
                                350, 348, 352, -1, 354, 355, 353, -1,
                                356, 355, 354, -1, 359, 361, 360, -1,
                                361, 357, 358, -1, 359, 357, 361, -1,
                                362, 363, 364, -1, 364, 363, 365, -1,
                                369, 366, 367, -1, 369, 367, 368, -1,
                                370, 373, 371, -1, 371, 373, 372, -1,
                                374, 377, 375, -1, 377, 376, 375, -1,
                                380, 382, 381, -1, 378, 379, 382, -1,
                                380, 378, 382, -1, 384, 385, 383, -1,
                                386, 385, 384, -1, 389, 391, 390, -1,
                                391, 387, 388, -1, 389, 387, 391, -1,
                                392, 393, 394, -1, 394, 393, 395, -1,
                                399, 396, 397, -1, 399, 397, 398, -1,
                                400, 403, 401, -1, 403, 402, 401, -1,
                                406, 408, 407, -1, 404, 405, 408, -1,
                                406, 404, 408, -1, 410, 411, 409, -1,
                                412, 411, 410, -1, 414, 417, 413, -1,
                                416, 415, 417, -1, 415, 413, 417, -1,
                                418, 419, 420, -1, 420, 419, 421, -1,
                                425, 422, 423, -1, 425, 423, 424, -1 ]
                            colorIndex [ 0, 0, 0, 0, 0, 0, 0, 0,
                                0, 0, 0, 0, 0, 0, 0, 0,
                                0, 0, 0, 0, 0, 0, 0, 0,
                                0, 0, 1, 1, 1, 1, 1, 1,
                                1, 1, 1, 1, 1, 1, 1, 1,
                                2, 2, 3, 3, 3, 3, 3, 3,
                                4, 4, 5, 5, 6, 6, 7, 7,
                                8, 8, 9, 9, 10, 10, 11, 11,
                                12, 12, 13, 13, 14, 14, 14, 14,
                                14, 14, 14, 14, 14, 14, 14, 14,
                                14, 14, 14, 14, 14, 14, 14, 14,
                                14, 14, 14, 14, 14, 14, 14, 14,
                                15, 15, 15, 15, 15, 15, 15, 15,
                                15, 15, 15, 15, 15, 15, 15, 15,
                                15, 15, 15, 15, 15, 15, 15, 15,
                                15, 15, 16, 16, 17, 17, 18, 18,
                                19, 19, 20, 20, 21, 21, 22, 22,
                                23, 23, 24, 24, 24, 24, 24, 24,
                                24, 24, 24, 24, 24, 24, 24, 24,
                                24, 24, 24, 24, 24, 24, 24, 24,
                                24, 24, 24, 24, 24, 24, 24, 24,
                                25, 25, 26, 26, 27, 27, 28, 28,
                                29, 29, 30, 30, 31, 31, 32, 32,
                                33, 33, 33, 33, 33, 33, 33, 33,
                                33, 33, 33, 33, 33, 33, 33, 33,
                                33, 33, 33, 33, 33, 33, 33, 33,
                                33, 33, 34, 34, 34, 34, 34, 34,
                                34, 34, 34, 34, 34, 34, 34, 34,
                                34, 34, 34, 34, 34, 34, 34, 34,
                                34, 34, 35, 35, 35, 35, 36, 36,
                                37, 37, 37, 37, 38, 38, 39, 39,
                                40, 40, 41, 41, 42, 42, 42, 42,
                                42, 42, 42, 42, 43, 43, 44, 44,
                                44, 45, 45, 46, 46, 46, 47, 47,
                                48, 48, 49, 49, 50, 50, 51, 51,
                                51, 52, 52, 53, 53, 53, 54, 54,
                                55, 55, 56, 56, 57, 57, 57, 58,
                                58, 59, 59, 59, 60, 60, 61, 61 ]
                            ccw TRUE
                            solid FALSE
                            convex TRUE
                            creaseAngle 0

                          }

                        }

                    } ]

                }

            }

        }

    }

}
